<?xml version="1.0"?>
<svg xmlns="http://www.w3.org/2000/svg" xmlns:xlink="http://www.w3.org/1999/xlink" viewBox="0 0 629.400000 164.000000" width="314.700000mm" height="82.000000mm" version="1.1">
<defs>
   <filter id="filter" filterRes="18" x="0" y="0">
     <feGaussianBlur in="SourceGraphic" stdDeviation="1.55" result="blur"/>
     <feOffset in="blur" dx="3" dy="3"/>
   </filter>
</defs>
<a xlink:href="Early-0x1f8dac0.svg">
<rect x="1.000000" y="1.000000" width="628.400000" height="163.000000" rx="0.1" ry="0.1" style="stroke:none;fill:#aaaaaa;;filter:url(#filter);"/>
<rect x="0.000000" y="0.000000" width="628.400000" height="163.000000" rx="0" ry="0" style="stroke:none;fill:#ffffff;"/>
</a>
<text x="10.000000" y="7.000000" font-family="Arial" font-size="7"></text>
<rect x="76.000000" y="55.000000" width="24.000000" height="24.000000" rx="0.1" ry="0.1" style="stroke:none;fill:#aaaaaa;;filter:url(#filter);"/>
<rect x="75.000000" y="54.000000" width="24.000000" height="24.000000" rx="0" ry="0" style="stroke:none;fill:#4B71A1;"/>
<text x="87.000000" y="68.000000" font-family="Arial" font-size="7" text-anchor="middle" fill="#FFFFFF">-</text>
<circle cx="77.000000" cy="56.000000" r="1"/>
<line x1="72.000000" y1="61.000000" x2="75.000000" y2="62.000000"  transform="rotate(0.000000,75.000000,62.000000)" style="stroke: black; stroke-width:0.25;"/>
<line x1="72.000000" y1="63.000000" x2="75.000000" y2="62.000000"  transform="rotate(0.000000,75.000000,62.000000)" style="stroke: black; stroke-width:0.25;"/>
<line x1="72.000000" y1="69.000000" x2="75.000000" y2="70.000000"  transform="rotate(0.000000,75.000000,70.000000)" style="stroke: black; stroke-width:0.25;"/>
<line x1="72.000000" y1="71.000000" x2="75.000000" y2="70.000000"  transform="rotate(0.000000,75.000000,70.000000)" style="stroke: black; stroke-width:0.25;"/>
<rect x="126.000000" y="43.000000" width="180.600000" height="24.000000" rx="0.1" ry="0.1" style="stroke:none;fill:#aaaaaa;;filter:url(#filter);"/>
<rect x="125.000000" y="42.000000" width="180.600000" height="24.000000" rx="0" ry="0" style="stroke:none;fill:#477881;"/>
<text x="215.300000" y="56.000000" font-family="Arial" font-size="7" text-anchor="middle" fill="#FFFFFF">hslider(freezelength, 0.6, 0.1, 15, 0.1)</text>
<circle cx="127.000000" cy="44.000000" r="1"/>
<line x1="116.000000" y1="33.000000" x2="116.000000" y2="75.000000"  style="stroke: black; stroke-linecap:round; stroke-width:0.25; stroke-dasharray:3,3;"/>
<line x1="116.000000" y1="75.000000" x2="314.600000" y2="75.000000"  style="stroke: black; stroke-linecap:round; stroke-width:0.25; stroke-dasharray:3,3;"/>
<line x1="314.600000" y1="75.000000" x2="314.600000" y2="33.000000"  style="stroke: black; stroke-linecap:round; stroke-width:0.25; stroke-dasharray:3,3;"/>
<line x1="116.000000" y1="33.000000" x2="121.000000" y2="33.000000"  style="stroke: black; stroke-linecap:round; stroke-width:0.25; stroke-dasharray:3,3;"/>
<line x1="150.025000" y1="33.000000" x2="314.600000" y2="33.000000"  style="stroke: black; stroke-linecap:round; stroke-width:0.25; stroke-dasharray:3,3;"/>
<text x="121.000000" y="35.000000" font-family="Arial" font-size="7">DelTime</text>
<rect x="204.300000" y="85.000000" width="24.000000" height="24.000000" rx="0.1" ry="0.1" style="stroke:none;fill:#aaaaaa;;filter:url(#filter);"/>
<rect x="203.300000" y="84.000000" width="24.000000" height="24.000000" rx="0" ry="0" style="stroke:none;fill:#f44800;"/>
<text x="215.300000" y="98.000000" font-family="Arial" font-size="7" text-anchor="middle" fill="#FFFFFF">7</text>
<circle cx="205.300000" cy="86.000000" r="1"/>
<rect x="332.600000" y="59.000000" width="24.000000" height="24.000000" rx="0.1" ry="0.1" style="stroke:none;fill:#aaaaaa;;filter:url(#filter);"/>
<rect x="331.600000" y="58.000000" width="24.000000" height="24.000000" rx="0" ry="0" style="stroke:none;fill:#4B71A1;"/>
<text x="343.600000" y="72.000000" font-family="Arial" font-size="7" text-anchor="middle" fill="#FFFFFF">*</text>
<circle cx="333.600000" cy="60.000000" r="1"/>
<line x1="328.600000" y1="65.000000" x2="331.600000" y2="66.000000"  transform="rotate(0.000000,331.600000,66.000000)" style="stroke: black; stroke-width:0.25;"/>
<line x1="328.600000" y1="67.000000" x2="331.600000" y2="66.000000"  transform="rotate(0.000000,331.600000,66.000000)" style="stroke: black; stroke-width:0.25;"/>
<line x1="328.600000" y1="73.000000" x2="331.600000" y2="74.000000"  transform="rotate(0.000000,331.600000,74.000000)" style="stroke: black; stroke-width:0.25;"/>
<line x1="328.600000" y1="75.000000" x2="331.600000" y2="74.000000"  transform="rotate(0.000000,331.600000,74.000000)" style="stroke: black; stroke-width:0.25;"/>
<rect x="364.600000" y="59.000000" width="24.000000" height="24.000000" rx="0.1" ry="0.1" style="stroke:none;fill:#aaaaaa;;filter:url(#filter);"/>
<rect x="363.600000" y="58.000000" width="24.000000" height="24.000000" rx="0" ry="0" style="stroke:none;fill:#4B71A1;"/>
<text x="375.600000" y="72.000000" font-family="Arial" font-size="7" text-anchor="middle" fill="#FFFFFF">int</text>
<circle cx="365.600000" cy="60.000000" r="1"/>
<line x1="360.600000" y1="69.000000" x2="363.600000" y2="70.000000"  transform="rotate(0.000000,363.600000,70.000000)" style="stroke: black; stroke-width:0.25;"/>
<line x1="360.600000" y1="71.000000" x2="363.600000" y2="70.000000"  transform="rotate(0.000000,363.600000,70.000000)" style="stroke: black; stroke-width:0.25;"/>
<rect x="404.600000" y="55.000000" width="24.000000" height="24.000000" rx="0.1" ry="0.1" style="stroke:none;fill:#aaaaaa;;filter:url(#filter);"/>
<rect x="403.600000" y="54.000000" width="24.000000" height="24.000000" rx="0" ry="0" style="stroke:none;fill:#f44800;"/>
<text x="415.600000" y="68.000000" font-family="Arial" font-size="7" text-anchor="middle" fill="#FFFFFF">1</text>
<circle cx="405.600000" cy="56.000000" r="1"/>
<rect x="444.600000" y="59.000000" width="24.000000" height="24.000000" rx="0.1" ry="0.1" style="stroke:none;fill:#aaaaaa;;filter:url(#filter);"/>
<rect x="443.600000" y="58.000000" width="24.000000" height="24.000000" rx="0" ry="0" style="stroke:none;fill:#4B71A1;"/>
<text x="455.600000" y="72.000000" font-family="Arial" font-size="7" text-anchor="middle" fill="#FFFFFF">max</text>
<circle cx="445.600000" cy="60.000000" r="1"/>
<line x1="440.600000" y1="65.000000" x2="443.600000" y2="66.000000"  transform="rotate(0.000000,443.600000,66.000000)" style="stroke: black; stroke-width:0.25;"/>
<line x1="440.600000" y1="67.000000" x2="443.600000" y2="66.000000"  transform="rotate(0.000000,443.600000,66.000000)" style="stroke: black; stroke-width:0.25;"/>
<line x1="440.600000" y1="73.000000" x2="443.600000" y2="74.000000"  transform="rotate(0.000000,443.600000,74.000000)" style="stroke: black; stroke-width:0.25;"/>
<line x1="440.600000" y1="75.000000" x2="443.600000" y2="74.000000"  transform="rotate(0.000000,443.600000,74.000000)" style="stroke: black; stroke-width:0.25;"/>
<rect x="484.600000" y="55.000000" width="25.800000" height="24.000000" rx="0.1" ry="0.1" style="stroke:none;fill:#aaaaaa;;filter:url(#filter);"/>
<rect x="483.600000" y="54.000000" width="25.800000" height="24.000000" rx="0" ry="0" style="stroke:none;fill:#f44800;"/>
<text x="496.500000" y="68.000000" font-family="Arial" font-size="7" text-anchor="middle" fill="#FFFFFF">33060</text>
<circle cx="485.600000" cy="56.000000" r="1"/>
<rect x="526.400000" y="59.000000" width="24.000000" height="24.000000" rx="0.1" ry="0.1" style="stroke:none;fill:#aaaaaa;;filter:url(#filter);"/>
<rect x="525.400000" y="58.000000" width="24.000000" height="24.000000" rx="0" ry="0" style="stroke:none;fill:#4B71A1;"/>
<text x="537.400000" y="72.000000" font-family="Arial" font-size="7" text-anchor="middle" fill="#FFFFFF">min</text>
<circle cx="527.400000" cy="60.000000" r="1"/>
<line x1="522.400000" y1="65.000000" x2="525.400000" y2="66.000000"  transform="rotate(0.000000,525.400000,66.000000)" style="stroke: black; stroke-width:0.25;"/>
<line x1="522.400000" y1="67.000000" x2="525.400000" y2="66.000000"  transform="rotate(0.000000,525.400000,66.000000)" style="stroke: black; stroke-width:0.25;"/>
<line x1="522.400000" y1="73.000000" x2="525.400000" y2="74.000000"  transform="rotate(0.000000,525.400000,74.000000)" style="stroke: black; stroke-width:0.25;"/>
<line x1="522.400000" y1="75.000000" x2="525.400000" y2="74.000000"  transform="rotate(0.000000,525.400000,74.000000)" style="stroke: black; stroke-width:0.25;"/>
<rect x="566.400000" y="55.000000" width="24.000000" height="24.000000" rx="0.1" ry="0.1" style="stroke:none;fill:#aaaaaa;;filter:url(#filter);"/>
<rect x="565.400000" y="54.000000" width="24.000000" height="24.000000" rx="0" ry="0" style="stroke:none;fill:#4B71A1;"/>
<text x="577.400000" y="68.000000" font-family="Arial" font-size="7" text-anchor="middle" fill="#FFFFFF">@</text>
<circle cx="567.400000" cy="56.000000" r="1"/>
<line x1="562.400000" y1="61.000000" x2="565.400000" y2="62.000000"  transform="rotate(0.000000,565.400000,62.000000)" style="stroke: black; stroke-width:0.25;"/>
<line x1="562.400000" y1="63.000000" x2="565.400000" y2="62.000000"  transform="rotate(0.000000,565.400000,62.000000)" style="stroke: black; stroke-width:0.25;"/>
<line x1="562.400000" y1="69.000000" x2="565.400000" y2="70.000000"  transform="rotate(0.000000,565.400000,70.000000)" style="stroke: black; stroke-width:0.25;"/>
<line x1="562.400000" y1="71.000000" x2="565.400000" y2="70.000000"  transform="rotate(0.000000,565.400000,70.000000)" style="stroke: black; stroke-width:0.25;"/>
<rect x="321.200000" y="117.000000" width="24.000000" height="24.000000" rx="0.1" ry="0.1" style="stroke:none;fill:#aaaaaa;;filter:url(#filter);"/>
<rect x="320.200000" y="116.000000" width="24.000000" height="24.000000" rx="0" ry="0" style="stroke:none;fill:#4B71A1;"/>
<text x="332.200000" y="130.000000" font-family="Arial" font-size="7" text-anchor="middle" fill="#FFFFFF">+</text>
<circle cx="322.200000" cy="118.000000" r="1"/>
<line x1="317.200000" y1="123.000000" x2="320.200000" y2="124.000000"  transform="rotate(0.000000,320.200000,124.000000)" style="stroke: black; stroke-width:0.25;"/>
<line x1="317.200000" y1="125.000000" x2="320.200000" y2="124.000000"  transform="rotate(0.000000,320.200000,124.000000)" style="stroke: black; stroke-width:0.25;"/>
<line x1="317.200000" y1="131.000000" x2="320.200000" y2="132.000000"  transform="rotate(0.000000,320.200000,132.000000)" style="stroke: black; stroke-width:0.25;"/>
<line x1="317.200000" y1="133.000000" x2="320.200000" y2="132.000000"  transform="rotate(0.000000,320.200000,132.000000)" style="stroke: black; stroke-width:0.25;"/>
<line x1="15.000000" y1="15.000000" x2="15.000000" y2="149.000000"  style="stroke: black; stroke-linecap:round; stroke-width:0.25; stroke-dasharray:3,3;"/>
<line x1="15.000000" y1="149.000000" x2="614.400000" y2="149.000000"  style="stroke: black; stroke-linecap:round; stroke-width:0.25; stroke-dasharray:3,3;"/>
<line x1="614.400000" y1="149.000000" x2="614.400000" y2="15.000000"  style="stroke: black; stroke-linecap:round; stroke-width:0.25; stroke-dasharray:3,3;"/>
<line x1="15.000000" y1="15.000000" x2="20.000000" y2="15.000000"  style="stroke: black; stroke-linecap:round; stroke-width:0.25; stroke-dasharray:3,3;"/>
<line x1="45.800000" y1="15.000000" x2="614.400000" y2="15.000000"  style="stroke: black; stroke-linecap:round; stroke-width:0.25; stroke-dasharray:3,3;"/>
<text x="20.000000" y="17.000000" font-family="Arial" font-size="7">Del(7)</text>
<line x1="616.400000" y1="77.000000" x2="619.400000" y2="78.000000"  transform="rotate(0.000000,619.400000,78.000000)" style="stroke: black; stroke-width:0.25;"/>
<line x1="616.400000" y1="79.000000" x2="619.400000" y2="78.000000"  transform="rotate(0.000000,619.400000,78.000000)" style="stroke: black; stroke-width:0.25;"/>
<line x1="616.400000" y1="85.000000" x2="619.400000" y2="86.000000"  transform="rotate(0.000000,619.400000,86.000000)" style="stroke: black; stroke-width:0.25;"/>
<line x1="616.400000" y1="87.000000" x2="619.400000" y2="86.000000"  transform="rotate(0.000000,619.400000,86.000000)" style="stroke: black; stroke-width:0.25;"/>
<line x1="10.000000" y1="78.000000" x2="20.000000" y2="78.000000"  style="stroke:black; stroke-linecap:round; stroke-width:0.25;"/>
<line x1="10.000000" y1="86.000000" x2="20.000000" y2="86.000000"  style="stroke:black; stroke-linecap:round; stroke-width:0.25;"/>
<line x1="20.000000" y1="78.000000" x2="24.000000" y2="78.000000"  style="stroke:black; stroke-linecap:round; stroke-width:0.25;"/>
<line x1="20.000000" y1="86.000000" x2="24.000000" y2="86.000000"  style="stroke:black; stroke-linecap:round; stroke-width:0.25;"/>
<line x1="24.000000" y1="78.000000" x2="28.000000" y2="78.000000"  style="stroke:black; stroke-linecap:round; stroke-width:0.25;"/>
<line x1="24.000000" y1="86.000000" x2="28.000000" y2="86.000000"  style="stroke:black; stroke-linecap:round; stroke-width:0.25;"/>
<line x1="28.000000" y1="78.000000" x2="28.000000" y2="78.000000"  style="stroke:black; stroke-linecap:round; stroke-width:0.25;"/>
<line x1="28.000000" y1="78.000000" x2="32.000000" y2="78.000000"  style="stroke:black; stroke-linecap:round; stroke-width:0.25;"/>
<line x1="28.000000" y1="86.000000" x2="28.000000" y2="86.000000"  style="stroke:black; stroke-linecap:round; stroke-width:0.25;"/>
<line x1="28.000000" y1="86.000000" x2="32.000000" y2="86.000000"  style="stroke:black; stroke-linecap:round; stroke-width:0.25;"/>
<line x1="32.000000" y1="78.000000" x2="36.000000" y2="78.000000"  style="stroke:black; stroke-linecap:round; stroke-width:0.25;"/>
<line x1="32.000000" y1="86.000000" x2="36.000000" y2="86.000000"  style="stroke:black; stroke-linecap:round; stroke-width:0.25;"/>
<line x1="36.000000" y1="78.000000" x2="71.000000" y2="62.000000"  style="stroke:black; stroke-linecap:round; stroke-width:0.25;"/>
<line x1="36.000000" y1="78.000000" x2="71.000000" y2="124.000000"  style="stroke:black; stroke-linecap:round; stroke-width:0.25;"/>
<line x1="36.000000" y1="86.000000" x2="71.000000" y2="70.000000"  style="stroke:black; stroke-linecap:round; stroke-width:0.25;"/>
<line x1="36.000000" y1="86.000000" x2="71.000000" y2="132.000000"  style="stroke:black; stroke-linecap:round; stroke-width:0.25;"/>
<line x1="71.000000" y1="62.000000" x2="71.000000" y2="62.000000"  style="stroke:black; stroke-linecap:round; stroke-width:0.25;"/>
<line x1="71.000000" y1="62.000000" x2="75.000000" y2="62.000000"  style="stroke:black; stroke-linecap:round; stroke-width:0.25;"/>
<line x1="71.000000" y1="70.000000" x2="71.000000" y2="70.000000"  style="stroke:black; stroke-linecap:round; stroke-width:0.25;"/>
<line x1="71.000000" y1="70.000000" x2="75.000000" y2="70.000000"  style="stroke:black; stroke-linecap:round; stroke-width:0.25;"/>
<line x1="71.000000" y1="124.000000" x2="316.200000" y2="124.000000"  style="stroke:black; stroke-linecap:round; stroke-width:0.25;"/>
<line x1="71.000000" y1="132.000000" x2="316.200000" y2="132.000000"  style="stroke:black; stroke-linecap:round; stroke-width:0.25;"/>
<line x1="99.000000" y1="66.000000" x2="103.000000" y2="66.000000"  style="stroke:black; stroke-linecap:round; stroke-width:0.25;"/>
<line x1="103.000000" y1="24.000000" x2="111.000000" y2="24.000000"  style="stroke:black; stroke-linecap:round; stroke-width:0.25;"/>
<line x1="103.000000" y1="66.000000" x2="103.000000" y2="24.000000"  style="stroke:black; stroke-linecap:round; stroke-width:0.25;"/>
<line x1="103.000000" y1="66.000000" x2="103.000000" y2="66.000000"  style="stroke:black; stroke-linecap:round; stroke-width:0.25;"/>
<line x1="111.000000" y1="24.000000" x2="332.200000" y2="24.000000"  style="stroke:black; stroke-linecap:round; stroke-width:0.25;"/>
<line x1="227.300000" y1="96.000000" x2="231.300000" y2="96.000000"  style="stroke:black; stroke-linecap:round; stroke-width:0.25;"/>
<line x1="231.300000" y1="96.000000" x2="319.600000" y2="96.000000"  style="stroke:black; stroke-linecap:round; stroke-width:0.25;"/>
<line x1="305.600000" y1="54.000000" x2="309.600000" y2="54.000000"  style="stroke:black; stroke-linecap:round; stroke-width:0.25;"/>
<line x1="309.600000" y1="54.000000" x2="319.600000" y2="54.000000"  style="stroke:black; stroke-linecap:round; stroke-width:0.25;"/>
<line x1="316.200000" y1="124.000000" x2="316.200000" y2="124.000000"  style="stroke:black; stroke-linecap:round; stroke-width:0.25;"/>
<line x1="316.200000" y1="124.000000" x2="320.200000" y2="124.000000"  style="stroke:black; stroke-linecap:round; stroke-width:0.25;"/>
<line x1="316.200000" y1="132.000000" x2="316.200000" y2="132.000000"  style="stroke:black; stroke-linecap:round; stroke-width:0.25;"/>
<line x1="316.200000" y1="132.000000" x2="320.200000" y2="132.000000"  style="stroke:black; stroke-linecap:round; stroke-width:0.25;"/>
<line x1="319.600000" y1="54.000000" x2="327.600000" y2="54.000000"  style="stroke:black; stroke-linecap:round; stroke-width:0.25;"/>
<line x1="319.600000" y1="74.000000" x2="327.600000" y2="74.000000"  style="stroke:black; stroke-linecap:round; stroke-width:0.25;"/>
<line x1="319.600000" y1="96.000000" x2="319.600000" y2="74.000000"  style="stroke:black; stroke-linecap:round; stroke-width:0.25;"/>
<line x1="319.600000" y1="96.000000" x2="319.600000" y2="96.000000"  style="stroke:black; stroke-linecap:round; stroke-width:0.25;"/>
<line x1="327.600000" y1="54.000000" x2="327.600000" y2="66.000000"  style="stroke:black; stroke-linecap:round; stroke-width:0.25;"/>
<line x1="327.600000" y1="66.000000" x2="327.600000" y2="66.000000"  style="stroke:black; stroke-linecap:round; stroke-width:0.25;"/>
<line x1="327.600000" y1="66.000000" x2="331.600000" y2="66.000000"  style="stroke:black; stroke-linecap:round; stroke-width:0.25;"/>
<line x1="327.600000" y1="74.000000" x2="331.600000" y2="74.000000"  style="stroke:black; stroke-linecap:round; stroke-width:0.25;"/>
<line x1="332.200000" y1="24.000000" x2="553.400000" y2="24.000000"  style="stroke:black; stroke-linecap:round; stroke-width:0.25;"/>
<line x1="344.200000" y1="128.000000" x2="348.200000" y2="128.000000"  style="stroke:black; stroke-linecap:round; stroke-width:0.25;"/>
<line x1="348.200000" y1="128.000000" x2="593.400000" y2="128.000000"  style="stroke:black; stroke-linecap:round; stroke-width:0.25;"/>
<line x1="355.600000" y1="70.000000" x2="359.600000" y2="70.000000"  style="stroke:black; stroke-linecap:round; stroke-width:0.25;"/>
<line x1="359.600000" y1="70.000000" x2="359.600000" y2="70.000000"  style="stroke:black; stroke-linecap:round; stroke-width:0.25;"/>
<line x1="359.600000" y1="70.000000" x2="363.600000" y2="70.000000"  style="stroke:black; stroke-linecap:round; stroke-width:0.25;"/>
<line x1="387.600000" y1="70.000000" x2="391.600000" y2="70.000000"  style="stroke:black; stroke-linecap:round; stroke-width:0.25;"/>
<line x1="391.600000" y1="70.000000" x2="399.600000" y2="70.000000"  style="stroke:black; stroke-linecap:round; stroke-width:0.25;"/>
<line x1="399.600000" y1="70.000000" x2="399.600000" y2="86.000000"  style="stroke:black; stroke-linecap:round; stroke-width:0.25;"/>
<line x1="399.600000" y1="86.000000" x2="399.600000" y2="86.000000"  style="stroke:black; stroke-linecap:round; stroke-width:0.25;"/>
<line x1="399.600000" y1="86.000000" x2="415.600000" y2="86.000000"  style="stroke:black; stroke-linecap:round; stroke-width:0.25;"/>
<line x1="415.600000" y1="86.000000" x2="431.600000" y2="86.000000"  style="stroke:black; stroke-linecap:round; stroke-width:0.25;"/>
<line x1="427.600000" y1="66.000000" x2="431.600000" y2="66.000000"  style="stroke:black; stroke-linecap:round; stroke-width:0.25;"/>
<line x1="431.600000" y1="66.000000" x2="439.600000" y2="66.000000"  style="stroke:black; stroke-linecap:round; stroke-width:0.25;"/>
<line x1="431.600000" y1="74.000000" x2="439.600000" y2="74.000000"  style="stroke:black; stroke-linecap:round; stroke-width:0.25;"/>
<line x1="431.600000" y1="86.000000" x2="431.600000" y2="74.000000"  style="stroke:black; stroke-linecap:round; stroke-width:0.25;"/>
<line x1="431.600000" y1="86.000000" x2="431.600000" y2="86.000000"  style="stroke:black; stroke-linecap:round; stroke-width:0.25;"/>
<line x1="439.600000" y1="66.000000" x2="443.600000" y2="66.000000"  style="stroke:black; stroke-linecap:round; stroke-width:0.25;"/>
<line x1="439.600000" y1="74.000000" x2="443.600000" y2="74.000000"  style="stroke:black; stroke-linecap:round; stroke-width:0.25;"/>
<line x1="467.600000" y1="70.000000" x2="471.600000" y2="70.000000"  style="stroke:black; stroke-linecap:round; stroke-width:0.25;"/>
<line x1="471.600000" y1="70.000000" x2="479.600000" y2="70.000000"  style="stroke:black; stroke-linecap:round; stroke-width:0.25;"/>
<line x1="479.600000" y1="70.000000" x2="479.600000" y2="86.000000"  style="stroke:black; stroke-linecap:round; stroke-width:0.25;"/>
<line x1="479.600000" y1="86.000000" x2="479.600000" y2="86.000000"  style="stroke:black; stroke-linecap:round; stroke-width:0.25;"/>
<line x1="479.600000" y1="86.000000" x2="496.500000" y2="86.000000"  style="stroke:black; stroke-linecap:round; stroke-width:0.25;"/>
<line x1="496.500000" y1="86.000000" x2="513.400000" y2="86.000000"  style="stroke:black; stroke-linecap:round; stroke-width:0.25;"/>
<line x1="509.400000" y1="66.000000" x2="513.400000" y2="66.000000"  style="stroke:black; stroke-linecap:round; stroke-width:0.25;"/>
<line x1="513.400000" y1="66.000000" x2="521.400000" y2="66.000000"  style="stroke:black; stroke-linecap:round; stroke-width:0.25;"/>
<line x1="513.400000" y1="74.000000" x2="521.400000" y2="74.000000"  style="stroke:black; stroke-linecap:round; stroke-width:0.25;"/>
<line x1="513.400000" y1="86.000000" x2="513.400000" y2="74.000000"  style="stroke:black; stroke-linecap:round; stroke-width:0.25;"/>
<line x1="513.400000" y1="86.000000" x2="513.400000" y2="86.000000"  style="stroke:black; stroke-linecap:round; stroke-width:0.25;"/>
<line x1="521.400000" y1="66.000000" x2="525.400000" y2="66.000000"  style="stroke:black; stroke-linecap:round; stroke-width:0.25;"/>
<line x1="521.400000" y1="74.000000" x2="525.400000" y2="74.000000"  style="stroke:black; stroke-linecap:round; stroke-width:0.25;"/>
<line x1="549.400000" y1="70.000000" x2="553.400000" y2="70.000000"  style="stroke:black; stroke-linecap:round; stroke-width:0.25;"/>
<line x1="553.400000" y1="24.000000" x2="561.400000" y2="24.000000"  style="stroke:black; stroke-linecap:round; stroke-width:0.25;"/>
<line x1="553.400000" y1="70.000000" x2="561.400000" y2="70.000000"  style="stroke:black; stroke-linecap:round; stroke-width:0.25;"/>
<line x1="561.400000" y1="24.000000" x2="561.400000" y2="62.000000"  style="stroke:black; stroke-linecap:round; stroke-width:0.25;"/>
<line x1="561.400000" y1="62.000000" x2="561.400000" y2="62.000000"  style="stroke:black; stroke-linecap:round; stroke-width:0.25;"/>
<line x1="561.400000" y1="62.000000" x2="565.400000" y2="62.000000"  style="stroke:black; stroke-linecap:round; stroke-width:0.25;"/>
<line x1="561.400000" y1="70.000000" x2="565.400000" y2="70.000000"  style="stroke:black; stroke-linecap:round; stroke-width:0.25;"/>
<line x1="589.400000" y1="66.000000" x2="593.400000" y2="66.000000"  style="stroke:black; stroke-linecap:round; stroke-width:0.25;"/>
<line x1="593.400000" y1="66.000000" x2="601.400000" y2="66.000000"  style="stroke:black; stroke-linecap:round; stroke-width:0.25;"/>
<line x1="593.400000" y1="86.000000" x2="601.400000" y2="86.000000"  style="stroke:black; stroke-linecap:round; stroke-width:0.25;"/>
<line x1="593.400000" y1="128.000000" x2="593.400000" y2="86.000000"  style="stroke:black; stroke-linecap:round; stroke-width:0.25;"/>
<line x1="593.400000" y1="128.000000" x2="593.400000" y2="128.000000"  style="stroke:black; stroke-linecap:round; stroke-width:0.25;"/>
<line x1="601.400000" y1="66.000000" x2="601.400000" y2="78.000000"  style="stroke:black; stroke-linecap:round; stroke-width:0.25;"/>
<line x1="601.400000" y1="78.000000" x2="601.400000" y2="78.000000"  style="stroke:black; stroke-linecap:round; stroke-width:0.25;"/>
<line x1="601.400000" y1="78.000000" x2="605.400000" y2="78.000000"  style="stroke:black; stroke-linecap:round; stroke-width:0.25;"/>
<line x1="601.400000" y1="86.000000" x2="605.400000" y2="86.000000"  style="stroke:black; stroke-linecap:round; stroke-width:0.25;"/>
<line x1="605.400000" y1="78.000000" x2="609.400000" y2="78.000000"  style="stroke:black; stroke-linecap:round; stroke-width:0.25;"/>
<line x1="605.400000" y1="86.000000" x2="609.400000" y2="86.000000"  style="stroke:black; stroke-linecap:round; stroke-width:0.25;"/>
<line x1="609.400000" y1="78.000000" x2="619.400000" y2="78.000000"  style="stroke:black; stroke-linecap:round; stroke-width:0.25;"/>
<line x1="609.400000" y1="86.000000" x2="619.400000" y2="86.000000"  style="stroke:black; stroke-linecap:round; stroke-width:0.25;"/>
</svg>
