<?xml version="1.0"?>
<svg xmlns="http://www.w3.org/2000/svg" xmlns:xlink="http://www.w3.org/1999/xlink" viewBox="0 0 635.500000 80.000000" width="317.750000mm" height="40.000000mm" version="1.1">
<defs>
   <filter id="filter" filterRes="18" x="0" y="0">
     <feGaussianBlur in="SourceGraphic" stdDeviation="1.55" result="blur"/>
     <feOffset in="blur" dx="3" dy="3"/>
   </filter>
</defs>
<a xlink:href="process.svg">
<rect x="1.000000" y="1.000000" width="634.500000" height="79.000000" rx="0.1" ry="0.1" style="stroke:none;fill:#aaaaaa;;filter:url(#filter);"/>
<rect x="0.000000" y="0.000000" width="634.500000" height="79.000000" rx="0" ry="0" style="stroke:none;fill:#ffffff;"/>
</a>
<text x="10.000000" y="7.000000" font-family="Arial" font-size="7"></text>
<rect x="25.000000" y="33.000000" width="24.000000" height="24.000000" rx="0.1" ry="0.1" style="stroke:none;fill:#aaaaaa;;filter:url(#filter);"/>
<rect x="24.000000" y="32.000000" width="24.000000" height="24.000000" rx="0" ry="0" style="stroke:none;fill:#f44800;"/>
<text x="36.000000" y="46.000000" font-family="Arial" font-size="7" text-anchor="middle" fill="#FFFFFF">0</text>
<circle cx="26.000000" cy="34.000000" r="1"/>
<a xlink:href="Del-0x275b610.svg">
<rect x="65.000000" y="29.000000" width="25.800000" height="24.000000" rx="0.1" ry="0.1" style="stroke:none;fill:#aaaaaa;;filter:url(#filter);"/>
<rect x="64.000000" y="28.000000" width="25.800000" height="24.000000" rx="0" ry="0" style="stroke:none;fill:#003366;"/>
</a>
<a xlink:href="Del-0x275b610.svg">
<text x="76.900000" y="42.000000" font-family="Arial" font-size="7" text-anchor="middle" fill="#FFFFFF">Del(1)</text>
</a>
<circle cx="66.000000" cy="30.000000" r="1"/>
<line x1="61.000000" y1="35.000000" x2="64.000000" y2="36.000000"  transform="rotate(0.000000,64.000000,36.000000)" style="stroke: black; stroke-width:0.25;"/>
<line x1="61.000000" y1="37.000000" x2="64.000000" y2="36.000000"  transform="rotate(0.000000,64.000000,36.000000)" style="stroke: black; stroke-width:0.25;"/>
<line x1="61.000000" y1="43.000000" x2="64.000000" y2="44.000000"  transform="rotate(0.000000,64.000000,44.000000)" style="stroke: black; stroke-width:0.25;"/>
<line x1="61.000000" y1="45.000000" x2="64.000000" y2="44.000000"  transform="rotate(0.000000,64.000000,44.000000)" style="stroke: black; stroke-width:0.25;"/>
<a xlink:href="Del-0x2759230.svg">
<rect x="98.800000" y="29.000000" width="25.800000" height="24.000000" rx="0.1" ry="0.1" style="stroke:none;fill:#aaaaaa;;filter:url(#filter);"/>
<rect x="97.800000" y="28.000000" width="25.800000" height="24.000000" rx="0" ry="0" style="stroke:none;fill:#003366;"/>
</a>
<a xlink:href="Del-0x2759230.svg">
<text x="110.700000" y="42.000000" font-family="Arial" font-size="7" text-anchor="middle" fill="#FFFFFF">Del(2)</text>
</a>
<circle cx="99.800000" cy="30.000000" r="1"/>
<line x1="94.800000" y1="35.000000" x2="97.800000" y2="36.000000"  transform="rotate(0.000000,97.800000,36.000000)" style="stroke: black; stroke-width:0.25;"/>
<line x1="94.800000" y1="37.000000" x2="97.800000" y2="36.000000"  transform="rotate(0.000000,97.800000,36.000000)" style="stroke: black; stroke-width:0.25;"/>
<line x1="94.800000" y1="43.000000" x2="97.800000" y2="44.000000"  transform="rotate(0.000000,97.800000,44.000000)" style="stroke: black; stroke-width:0.25;"/>
<line x1="94.800000" y1="45.000000" x2="97.800000" y2="44.000000"  transform="rotate(0.000000,97.800000,44.000000)" style="stroke: black; stroke-width:0.25;"/>
<a xlink:href="Del-0x2756d50.svg">
<rect x="132.600000" y="29.000000" width="25.800000" height="24.000000" rx="0.1" ry="0.1" style="stroke:none;fill:#aaaaaa;;filter:url(#filter);"/>
<rect x="131.600000" y="28.000000" width="25.800000" height="24.000000" rx="0" ry="0" style="stroke:none;fill:#003366;"/>
</a>
<a xlink:href="Del-0x2756d50.svg">
<text x="144.500000" y="42.000000" font-family="Arial" font-size="7" text-anchor="middle" fill="#FFFFFF">Del(5)</text>
</a>
<circle cx="133.600000" cy="30.000000" r="1"/>
<line x1="128.600000" y1="35.000000" x2="131.600000" y2="36.000000"  transform="rotate(0.000000,131.600000,36.000000)" style="stroke: black; stroke-width:0.25;"/>
<line x1="128.600000" y1="37.000000" x2="131.600000" y2="36.000000"  transform="rotate(0.000000,131.600000,36.000000)" style="stroke: black; stroke-width:0.25;"/>
<line x1="128.600000" y1="43.000000" x2="131.600000" y2="44.000000"  transform="rotate(0.000000,131.600000,44.000000)" style="stroke: black; stroke-width:0.25;"/>
<line x1="128.600000" y1="45.000000" x2="131.600000" y2="44.000000"  transform="rotate(0.000000,131.600000,44.000000)" style="stroke: black; stroke-width:0.25;"/>
<a xlink:href="Del-0x2754870.svg">
<rect x="166.400000" y="29.000000" width="25.800000" height="24.000000" rx="0.1" ry="0.1" style="stroke:none;fill:#aaaaaa;;filter:url(#filter);"/>
<rect x="165.400000" y="28.000000" width="25.800000" height="24.000000" rx="0" ry="0" style="stroke:none;fill:#003366;"/>
</a>
<a xlink:href="Del-0x2754870.svg">
<text x="178.300000" y="42.000000" font-family="Arial" font-size="7" text-anchor="middle" fill="#FFFFFF">Del(7)</text>
</a>
<circle cx="167.400000" cy="30.000000" r="1"/>
<line x1="162.400000" y1="35.000000" x2="165.400000" y2="36.000000"  transform="rotate(0.000000,165.400000,36.000000)" style="stroke: black; stroke-width:0.25;"/>
<line x1="162.400000" y1="37.000000" x2="165.400000" y2="36.000000"  transform="rotate(0.000000,165.400000,36.000000)" style="stroke: black; stroke-width:0.25;"/>
<line x1="162.400000" y1="43.000000" x2="165.400000" y2="44.000000"  transform="rotate(0.000000,165.400000,44.000000)" style="stroke: black; stroke-width:0.25;"/>
<line x1="162.400000" y1="45.000000" x2="165.400000" y2="44.000000"  transform="rotate(0.000000,165.400000,44.000000)" style="stroke: black; stroke-width:0.25;"/>
<a xlink:href="Del-0x2752390.svg">
<rect x="200.200000" y="29.000000" width="38.700000" height="24.000000" rx="0.1" ry="0.1" style="stroke:none;fill:#aaaaaa;;filter:url(#filter);"/>
<rect x="199.200000" y="28.000000" width="38.700000" height="24.000000" rx="0" ry="0" style="stroke:none;fill:#003366;"/>
</a>
<a xlink:href="Del-0x2752390.svg">
<text x="218.550000" y="42.000000" font-family="Arial" font-size="7" text-anchor="middle" fill="#FFFFFF">Del(23)</text>
</a>
<circle cx="201.200000" cy="30.000000" r="1"/>
<line x1="196.200000" y1="35.000000" x2="199.200000" y2="36.000000"  transform="rotate(0.000000,199.200000,36.000000)" style="stroke: black; stroke-width:0.25;"/>
<line x1="196.200000" y1="37.000000" x2="199.200000" y2="36.000000"  transform="rotate(0.000000,199.200000,36.000000)" style="stroke: black; stroke-width:0.25;"/>
<line x1="196.200000" y1="43.000000" x2="199.200000" y2="44.000000"  transform="rotate(0.000000,199.200000,44.000000)" style="stroke: black; stroke-width:0.25;"/>
<line x1="196.200000" y1="45.000000" x2="199.200000" y2="44.000000"  transform="rotate(0.000000,199.200000,44.000000)" style="stroke: black; stroke-width:0.25;"/>
<a xlink:href="Del-0x274feb0.svg">
<rect x="246.900000" y="29.000000" width="38.700000" height="24.000000" rx="0.1" ry="0.1" style="stroke:none;fill:#aaaaaa;;filter:url(#filter);"/>
<rect x="245.900000" y="28.000000" width="38.700000" height="24.000000" rx="0" ry="0" style="stroke:none;fill:#003366;"/>
</a>
<a xlink:href="Del-0x274feb0.svg">
<text x="265.250000" y="42.000000" font-family="Arial" font-size="7" text-anchor="middle" fill="#FFFFFF">Del(54)</text>
</a>
<circle cx="247.900000" cy="30.000000" r="1"/>
<line x1="242.900000" y1="35.000000" x2="245.900000" y2="36.000000"  transform="rotate(0.000000,245.900000,36.000000)" style="stroke: black; stroke-width:0.25;"/>
<line x1="242.900000" y1="37.000000" x2="245.900000" y2="36.000000"  transform="rotate(0.000000,245.900000,36.000000)" style="stroke: black; stroke-width:0.25;"/>
<line x1="242.900000" y1="43.000000" x2="245.900000" y2="44.000000"  transform="rotate(0.000000,245.900000,44.000000)" style="stroke: black; stroke-width:0.25;"/>
<line x1="242.900000" y1="45.000000" x2="245.900000" y2="44.000000"  transform="rotate(0.000000,245.900000,44.000000)" style="stroke: black; stroke-width:0.25;"/>
<a xlink:href="Del-0x274d9a0.svg">
<rect x="293.600000" y="29.000000" width="38.700000" height="24.000000" rx="0.1" ry="0.1" style="stroke:none;fill:#aaaaaa;;filter:url(#filter);"/>
<rect x="292.600000" y="28.000000" width="38.700000" height="24.000000" rx="0" ry="0" style="stroke:none;fill:#003366;"/>
</a>
<a xlink:href="Del-0x274d9a0.svg">
<text x="311.950000" y="42.000000" font-family="Arial" font-size="7" text-anchor="middle" fill="#FFFFFF">Del(79)</text>
</a>
<circle cx="294.600000" cy="30.000000" r="1"/>
<line x1="289.600000" y1="35.000000" x2="292.600000" y2="36.000000"  transform="rotate(0.000000,292.600000,36.000000)" style="stroke: black; stroke-width:0.25;"/>
<line x1="289.600000" y1="37.000000" x2="292.600000" y2="36.000000"  transform="rotate(0.000000,292.600000,36.000000)" style="stroke: black; stroke-width:0.25;"/>
<line x1="289.600000" y1="43.000000" x2="292.600000" y2="44.000000"  transform="rotate(0.000000,292.600000,44.000000)" style="stroke: black; stroke-width:0.25;"/>
<line x1="289.600000" y1="45.000000" x2="292.600000" y2="44.000000"  transform="rotate(0.000000,292.600000,44.000000)" style="stroke: black; stroke-width:0.25;"/>
<a xlink:href="Del-0x274b4b0.svg">
<rect x="340.300000" y="29.000000" width="38.700000" height="24.000000" rx="0.1" ry="0.1" style="stroke:none;fill:#aaaaaa;;filter:url(#filter);"/>
<rect x="339.300000" y="28.000000" width="38.700000" height="24.000000" rx="0" ry="0" style="stroke:none;fill:#003366;"/>
</a>
<a xlink:href="Del-0x274b4b0.svg">
<text x="358.650000" y="42.000000" font-family="Arial" font-size="7" text-anchor="middle" fill="#FFFFFF">Del(220)</text>
</a>
<circle cx="341.300000" cy="30.000000" r="1"/>
<line x1="336.300000" y1="35.000000" x2="339.300000" y2="36.000000"  transform="rotate(0.000000,339.300000,36.000000)" style="stroke: black; stroke-width:0.25;"/>
<line x1="336.300000" y1="37.000000" x2="339.300000" y2="36.000000"  transform="rotate(0.000000,339.300000,36.000000)" style="stroke: black; stroke-width:0.25;"/>
<line x1="336.300000" y1="43.000000" x2="339.300000" y2="44.000000"  transform="rotate(0.000000,339.300000,44.000000)" style="stroke: black; stroke-width:0.25;"/>
<line x1="336.300000" y1="45.000000" x2="339.300000" y2="44.000000"  transform="rotate(0.000000,339.300000,44.000000)" style="stroke: black; stroke-width:0.25;"/>
<a xlink:href="Del-0x2748fc0.svg">
<rect x="387.000000" y="29.000000" width="38.700000" height="24.000000" rx="0.1" ry="0.1" style="stroke:none;fill:#aaaaaa;;filter:url(#filter);"/>
<rect x="386.000000" y="28.000000" width="38.700000" height="24.000000" rx="0" ry="0" style="stroke:none;fill:#003366;"/>
</a>
<a xlink:href="Del-0x2748fc0.svg">
<text x="405.350000" y="42.000000" font-family="Arial" font-size="7" text-anchor="middle" fill="#FFFFFF">Del(340)</text>
</a>
<circle cx="388.000000" cy="30.000000" r="1"/>
<line x1="383.000000" y1="35.000000" x2="386.000000" y2="36.000000"  transform="rotate(0.000000,386.000000,36.000000)" style="stroke: black; stroke-width:0.25;"/>
<line x1="383.000000" y1="37.000000" x2="386.000000" y2="36.000000"  transform="rotate(0.000000,386.000000,36.000000)" style="stroke: black; stroke-width:0.25;"/>
<line x1="383.000000" y1="43.000000" x2="386.000000" y2="44.000000"  transform="rotate(0.000000,386.000000,44.000000)" style="stroke: black; stroke-width:0.25;"/>
<line x1="383.000000" y1="45.000000" x2="386.000000" y2="44.000000"  transform="rotate(0.000000,386.000000,44.000000)" style="stroke: black; stroke-width:0.25;"/>
<a xlink:href="Del-0x2746ad0.svg">
<rect x="433.700000" y="29.000000" width="38.700000" height="24.000000" rx="0.1" ry="0.1" style="stroke:none;fill:#aaaaaa;;filter:url(#filter);"/>
<rect x="432.700000" y="28.000000" width="38.700000" height="24.000000" rx="0" ry="0" style="stroke:none;fill:#003366;"/>
</a>
<a xlink:href="Del-0x2746ad0.svg">
<text x="452.050000" y="42.000000" font-family="Arial" font-size="7" text-anchor="middle" fill="#FFFFFF">Del(454)</text>
</a>
<circle cx="434.700000" cy="30.000000" r="1"/>
<line x1="429.700000" y1="35.000000" x2="432.700000" y2="36.000000"  transform="rotate(0.000000,432.700000,36.000000)" style="stroke: black; stroke-width:0.25;"/>
<line x1="429.700000" y1="37.000000" x2="432.700000" y2="36.000000"  transform="rotate(0.000000,432.700000,36.000000)" style="stroke: black; stroke-width:0.25;"/>
<line x1="429.700000" y1="43.000000" x2="432.700000" y2="44.000000"  transform="rotate(0.000000,432.700000,44.000000)" style="stroke: black; stroke-width:0.25;"/>
<line x1="429.700000" y1="45.000000" x2="432.700000" y2="44.000000"  transform="rotate(0.000000,432.700000,44.000000)" style="stroke: black; stroke-width:0.25;"/>
<a xlink:href="Del-0x27445e0.svg">
<rect x="480.400000" y="29.000000" width="38.700000" height="24.000000" rx="0.1" ry="0.1" style="stroke:none;fill:#aaaaaa;;filter:url(#filter);"/>
<rect x="479.400000" y="28.000000" width="38.700000" height="24.000000" rx="0" ry="0" style="stroke:none;fill:#003366;"/>
</a>
<a xlink:href="Del-0x27445e0.svg">
<text x="498.750000" y="42.000000" font-family="Arial" font-size="7" text-anchor="middle" fill="#FFFFFF">Del(623)</text>
</a>
<circle cx="481.400000" cy="30.000000" r="1"/>
<line x1="476.400000" y1="35.000000" x2="479.400000" y2="36.000000"  transform="rotate(0.000000,479.400000,36.000000)" style="stroke: black; stroke-width:0.25;"/>
<line x1="476.400000" y1="37.000000" x2="479.400000" y2="36.000000"  transform="rotate(0.000000,479.400000,36.000000)" style="stroke: black; stroke-width:0.25;"/>
<line x1="476.400000" y1="43.000000" x2="479.400000" y2="44.000000"  transform="rotate(0.000000,479.400000,44.000000)" style="stroke: black; stroke-width:0.25;"/>
<line x1="476.400000" y1="45.000000" x2="479.400000" y2="44.000000"  transform="rotate(0.000000,479.400000,44.000000)" style="stroke: black; stroke-width:0.25;"/>
<a xlink:href="Del-0x27420f0.svg">
<rect x="527.100000" y="29.000000" width="38.700000" height="24.000000" rx="0.1" ry="0.1" style="stroke:none;fill:#aaaaaa;;filter:url(#filter);"/>
<rect x="526.100000" y="28.000000" width="38.700000" height="24.000000" rx="0" ry="0" style="stroke:none;fill:#003366;"/>
</a>
<a xlink:href="Del-0x27420f0.svg">
<text x="545.450000" y="42.000000" font-family="Arial" font-size="7" text-anchor="middle" fill="#FFFFFF">Del(845)</text>
</a>
<circle cx="528.100000" cy="30.000000" r="1"/>
<line x1="523.100000" y1="35.000000" x2="526.100000" y2="36.000000"  transform="rotate(0.000000,526.100000,36.000000)" style="stroke: black; stroke-width:0.25;"/>
<line x1="523.100000" y1="37.000000" x2="526.100000" y2="36.000000"  transform="rotate(0.000000,526.100000,36.000000)" style="stroke: black; stroke-width:0.25;"/>
<line x1="523.100000" y1="43.000000" x2="526.100000" y2="44.000000"  transform="rotate(0.000000,526.100000,44.000000)" style="stroke: black; stroke-width:0.25;"/>
<line x1="523.100000" y1="45.000000" x2="526.100000" y2="44.000000"  transform="rotate(0.000000,526.100000,44.000000)" style="stroke: black; stroke-width:0.25;"/>
<a xlink:href="Del-0x273fce0.svg">
<rect x="573.800000" y="29.000000" width="38.700000" height="24.000000" rx="0.1" ry="0.1" style="stroke:none;fill:#aaaaaa;;filter:url(#filter);"/>
<rect x="572.800000" y="28.000000" width="38.700000" height="24.000000" rx="0" ry="0" style="stroke:none;fill:#003366;"/>
</a>
<a xlink:href="Del-0x273fce0.svg">
<text x="592.150000" y="42.000000" font-family="Arial" font-size="7" text-anchor="middle" fill="#FFFFFF">Del(1304)</text>
</a>
<circle cx="574.800000" cy="30.000000" r="1"/>
<line x1="569.800000" y1="35.000000" x2="572.800000" y2="36.000000"  transform="rotate(0.000000,572.800000,36.000000)" style="stroke: black; stroke-width:0.25;"/>
<line x1="569.800000" y1="37.000000" x2="572.800000" y2="36.000000"  transform="rotate(0.000000,572.800000,36.000000)" style="stroke: black; stroke-width:0.25;"/>
<line x1="569.800000" y1="43.000000" x2="572.800000" y2="44.000000"  transform="rotate(0.000000,572.800000,44.000000)" style="stroke: black; stroke-width:0.25;"/>
<line x1="569.800000" y1="45.000000" x2="572.800000" y2="44.000000"  transform="rotate(0.000000,572.800000,44.000000)" style="stroke: black; stroke-width:0.25;"/>
<line x1="15.000000" y1="15.000000" x2="15.000000" y2="65.000000"  style="stroke: black; stroke-linecap:round; stroke-width:0.25; stroke-dasharray:3,3;"/>
<line x1="15.000000" y1="65.000000" x2="620.500000" y2="65.000000"  style="stroke: black; stroke-linecap:round; stroke-width:0.25; stroke-dasharray:3,3;"/>
<line x1="620.500000" y1="65.000000" x2="620.500000" y2="15.000000"  style="stroke: black; stroke-linecap:round; stroke-width:0.25; stroke-dasharray:3,3;"/>
<line x1="15.000000" y1="15.000000" x2="20.000000" y2="15.000000"  style="stroke: black; stroke-linecap:round; stroke-width:0.25; stroke-dasharray:3,3;"/>
<line x1="42.575000" y1="15.000000" x2="620.500000" y2="15.000000"  style="stroke: black; stroke-linecap:round; stroke-width:0.25; stroke-dasharray:3,3;"/>
<text x="20.000000" y="17.000000" font-family="Arial" font-size="7">Early</text>
<line x1="622.500000" y1="35.000000" x2="625.500000" y2="36.000000"  transform="rotate(0.000000,625.500000,36.000000)" style="stroke: black; stroke-width:0.25;"/>
<line x1="622.500000" y1="37.000000" x2="625.500000" y2="36.000000"  transform="rotate(0.000000,625.500000,36.000000)" style="stroke: black; stroke-width:0.25;"/>
<line x1="622.500000" y1="43.000000" x2="625.500000" y2="44.000000"  transform="rotate(0.000000,625.500000,44.000000)" style="stroke: black; stroke-width:0.25;"/>
<line x1="622.500000" y1="45.000000" x2="625.500000" y2="44.000000"  transform="rotate(0.000000,625.500000,44.000000)" style="stroke: black; stroke-width:0.25;"/>
<line x1="10.000000" y1="24.000000" x2="20.000000" y2="24.000000"  style="stroke:black; stroke-linecap:round; stroke-width:0.25;"/>
<line x1="20.000000" y1="24.000000" x2="36.000000" y2="24.000000"  style="stroke:black; stroke-linecap:round; stroke-width:0.25;"/>
<line x1="36.000000" y1="24.000000" x2="52.000000" y2="24.000000"  style="stroke:black; stroke-linecap:round; stroke-width:0.25;"/>
<line x1="48.000000" y1="44.000000" x2="52.000000" y2="44.000000"  style="stroke:black; stroke-linecap:round; stroke-width:0.25;"/>
<line x1="52.000000" y1="24.000000" x2="60.000000" y2="24.000000"  style="stroke:black; stroke-linecap:round; stroke-width:0.25;"/>
<line x1="52.000000" y1="44.000000" x2="60.000000" y2="44.000000"  style="stroke:black; stroke-linecap:round; stroke-width:0.25;"/>
<line x1="60.000000" y1="24.000000" x2="60.000000" y2="36.000000"  style="stroke:black; stroke-linecap:round; stroke-width:0.25;"/>
<line x1="60.000000" y1="36.000000" x2="60.000000" y2="36.000000"  style="stroke:black; stroke-linecap:round; stroke-width:0.25;"/>
<line x1="60.000000" y1="36.000000" x2="64.000000" y2="36.000000"  style="stroke:black; stroke-linecap:round; stroke-width:0.25;"/>
<line x1="60.000000" y1="44.000000" x2="64.000000" y2="44.000000"  style="stroke:black; stroke-linecap:round; stroke-width:0.25;"/>
<line x1="89.800000" y1="36.000000" x2="93.800000" y2="36.000000"  style="stroke:black; stroke-linecap:round; stroke-width:0.25;"/>
<line x1="89.800000" y1="44.000000" x2="93.800000" y2="44.000000"  style="stroke:black; stroke-linecap:round; stroke-width:0.25;"/>
<line x1="93.800000" y1="36.000000" x2="93.800000" y2="36.000000"  style="stroke:black; stroke-linecap:round; stroke-width:0.25;"/>
<line x1="93.800000" y1="36.000000" x2="97.800000" y2="36.000000"  style="stroke:black; stroke-linecap:round; stroke-width:0.25;"/>
<line x1="93.800000" y1="44.000000" x2="93.800000" y2="44.000000"  style="stroke:black; stroke-linecap:round; stroke-width:0.25;"/>
<line x1="93.800000" y1="44.000000" x2="97.800000" y2="44.000000"  style="stroke:black; stroke-linecap:round; stroke-width:0.25;"/>
<line x1="123.600000" y1="36.000000" x2="127.600000" y2="36.000000"  style="stroke:black; stroke-linecap:round; stroke-width:0.25;"/>
<line x1="123.600000" y1="44.000000" x2="127.600000" y2="44.000000"  style="stroke:black; stroke-linecap:round; stroke-width:0.25;"/>
<line x1="127.600000" y1="36.000000" x2="127.600000" y2="36.000000"  style="stroke:black; stroke-linecap:round; stroke-width:0.25;"/>
<line x1="127.600000" y1="36.000000" x2="131.600000" y2="36.000000"  style="stroke:black; stroke-linecap:round; stroke-width:0.25;"/>
<line x1="127.600000" y1="44.000000" x2="127.600000" y2="44.000000"  style="stroke:black; stroke-linecap:round; stroke-width:0.25;"/>
<line x1="127.600000" y1="44.000000" x2="131.600000" y2="44.000000"  style="stroke:black; stroke-linecap:round; stroke-width:0.25;"/>
<line x1="157.400000" y1="36.000000" x2="161.400000" y2="36.000000"  style="stroke:black; stroke-linecap:round; stroke-width:0.25;"/>
<line x1="157.400000" y1="44.000000" x2="161.400000" y2="44.000000"  style="stroke:black; stroke-linecap:round; stroke-width:0.25;"/>
<line x1="161.400000" y1="36.000000" x2="161.400000" y2="36.000000"  style="stroke:black; stroke-linecap:round; stroke-width:0.25;"/>
<line x1="161.400000" y1="36.000000" x2="165.400000" y2="36.000000"  style="stroke:black; stroke-linecap:round; stroke-width:0.25;"/>
<line x1="161.400000" y1="44.000000" x2="161.400000" y2="44.000000"  style="stroke:black; stroke-linecap:round; stroke-width:0.25;"/>
<line x1="161.400000" y1="44.000000" x2="165.400000" y2="44.000000"  style="stroke:black; stroke-linecap:round; stroke-width:0.25;"/>
<line x1="191.200000" y1="36.000000" x2="195.200000" y2="36.000000"  style="stroke:black; stroke-linecap:round; stroke-width:0.25;"/>
<line x1="191.200000" y1="44.000000" x2="195.200000" y2="44.000000"  style="stroke:black; stroke-linecap:round; stroke-width:0.25;"/>
<line x1="195.200000" y1="36.000000" x2="195.200000" y2="36.000000"  style="stroke:black; stroke-linecap:round; stroke-width:0.25;"/>
<line x1="195.200000" y1="36.000000" x2="199.200000" y2="36.000000"  style="stroke:black; stroke-linecap:round; stroke-width:0.25;"/>
<line x1="195.200000" y1="44.000000" x2="195.200000" y2="44.000000"  style="stroke:black; stroke-linecap:round; stroke-width:0.25;"/>
<line x1="195.200000" y1="44.000000" x2="199.200000" y2="44.000000"  style="stroke:black; stroke-linecap:round; stroke-width:0.25;"/>
<line x1="237.900000" y1="36.000000" x2="241.900000" y2="36.000000"  style="stroke:black; stroke-linecap:round; stroke-width:0.25;"/>
<line x1="237.900000" y1="44.000000" x2="241.900000" y2="44.000000"  style="stroke:black; stroke-linecap:round; stroke-width:0.25;"/>
<line x1="241.900000" y1="36.000000" x2="241.900000" y2="36.000000"  style="stroke:black; stroke-linecap:round; stroke-width:0.25;"/>
<line x1="241.900000" y1="36.000000" x2="245.900000" y2="36.000000"  style="stroke:black; stroke-linecap:round; stroke-width:0.25;"/>
<line x1="241.900000" y1="44.000000" x2="241.900000" y2="44.000000"  style="stroke:black; stroke-linecap:round; stroke-width:0.25;"/>
<line x1="241.900000" y1="44.000000" x2="245.900000" y2="44.000000"  style="stroke:black; stroke-linecap:round; stroke-width:0.25;"/>
<line x1="284.600000" y1="36.000000" x2="288.600000" y2="36.000000"  style="stroke:black; stroke-linecap:round; stroke-width:0.25;"/>
<line x1="284.600000" y1="44.000000" x2="288.600000" y2="44.000000"  style="stroke:black; stroke-linecap:round; stroke-width:0.25;"/>
<line x1="288.600000" y1="36.000000" x2="288.600000" y2="36.000000"  style="stroke:black; stroke-linecap:round; stroke-width:0.25;"/>
<line x1="288.600000" y1="36.000000" x2="292.600000" y2="36.000000"  style="stroke:black; stroke-linecap:round; stroke-width:0.25;"/>
<line x1="288.600000" y1="44.000000" x2="288.600000" y2="44.000000"  style="stroke:black; stroke-linecap:round; stroke-width:0.25;"/>
<line x1="288.600000" y1="44.000000" x2="292.600000" y2="44.000000"  style="stroke:black; stroke-linecap:round; stroke-width:0.25;"/>
<line x1="331.300000" y1="36.000000" x2="335.300000" y2="36.000000"  style="stroke:black; stroke-linecap:round; stroke-width:0.25;"/>
<line x1="331.300000" y1="44.000000" x2="335.300000" y2="44.000000"  style="stroke:black; stroke-linecap:round; stroke-width:0.25;"/>
<line x1="335.300000" y1="36.000000" x2="335.300000" y2="36.000000"  style="stroke:black; stroke-linecap:round; stroke-width:0.25;"/>
<line x1="335.300000" y1="36.000000" x2="339.300000" y2="36.000000"  style="stroke:black; stroke-linecap:round; stroke-width:0.25;"/>
<line x1="335.300000" y1="44.000000" x2="335.300000" y2="44.000000"  style="stroke:black; stroke-linecap:round; stroke-width:0.25;"/>
<line x1="335.300000" y1="44.000000" x2="339.300000" y2="44.000000"  style="stroke:black; stroke-linecap:round; stroke-width:0.25;"/>
<line x1="378.000000" y1="36.000000" x2="382.000000" y2="36.000000"  style="stroke:black; stroke-linecap:round; stroke-width:0.25;"/>
<line x1="378.000000" y1="44.000000" x2="382.000000" y2="44.000000"  style="stroke:black; stroke-linecap:round; stroke-width:0.25;"/>
<line x1="382.000000" y1="36.000000" x2="382.000000" y2="36.000000"  style="stroke:black; stroke-linecap:round; stroke-width:0.25;"/>
<line x1="382.000000" y1="36.000000" x2="386.000000" y2="36.000000"  style="stroke:black; stroke-linecap:round; stroke-width:0.25;"/>
<line x1="382.000000" y1="44.000000" x2="382.000000" y2="44.000000"  style="stroke:black; stroke-linecap:round; stroke-width:0.25;"/>
<line x1="382.000000" y1="44.000000" x2="386.000000" y2="44.000000"  style="stroke:black; stroke-linecap:round; stroke-width:0.25;"/>
<line x1="424.700000" y1="36.000000" x2="428.700000" y2="36.000000"  style="stroke:black; stroke-linecap:round; stroke-width:0.25;"/>
<line x1="424.700000" y1="44.000000" x2="428.700000" y2="44.000000"  style="stroke:black; stroke-linecap:round; stroke-width:0.25;"/>
<line x1="428.700000" y1="36.000000" x2="428.700000" y2="36.000000"  style="stroke:black; stroke-linecap:round; stroke-width:0.25;"/>
<line x1="428.700000" y1="36.000000" x2="432.700000" y2="36.000000"  style="stroke:black; stroke-linecap:round; stroke-width:0.25;"/>
<line x1="428.700000" y1="44.000000" x2="428.700000" y2="44.000000"  style="stroke:black; stroke-linecap:round; stroke-width:0.25;"/>
<line x1="428.700000" y1="44.000000" x2="432.700000" y2="44.000000"  style="stroke:black; stroke-linecap:round; stroke-width:0.25;"/>
<line x1="471.400000" y1="36.000000" x2="475.400000" y2="36.000000"  style="stroke:black; stroke-linecap:round; stroke-width:0.25;"/>
<line x1="471.400000" y1="44.000000" x2="475.400000" y2="44.000000"  style="stroke:black; stroke-linecap:round; stroke-width:0.25;"/>
<line x1="475.400000" y1="36.000000" x2="475.400000" y2="36.000000"  style="stroke:black; stroke-linecap:round; stroke-width:0.25;"/>
<line x1="475.400000" y1="36.000000" x2="479.400000" y2="36.000000"  style="stroke:black; stroke-linecap:round; stroke-width:0.25;"/>
<line x1="475.400000" y1="44.000000" x2="475.400000" y2="44.000000"  style="stroke:black; stroke-linecap:round; stroke-width:0.25;"/>
<line x1="475.400000" y1="44.000000" x2="479.400000" y2="44.000000"  style="stroke:black; stroke-linecap:round; stroke-width:0.25;"/>
<line x1="518.100000" y1="36.000000" x2="522.100000" y2="36.000000"  style="stroke:black; stroke-linecap:round; stroke-width:0.25;"/>
<line x1="518.100000" y1="44.000000" x2="522.100000" y2="44.000000"  style="stroke:black; stroke-linecap:round; stroke-width:0.25;"/>
<line x1="522.100000" y1="36.000000" x2="522.100000" y2="36.000000"  style="stroke:black; stroke-linecap:round; stroke-width:0.25;"/>
<line x1="522.100000" y1="36.000000" x2="526.100000" y2="36.000000"  style="stroke:black; stroke-linecap:round; stroke-width:0.25;"/>
<line x1="522.100000" y1="44.000000" x2="522.100000" y2="44.000000"  style="stroke:black; stroke-linecap:round; stroke-width:0.25;"/>
<line x1="522.100000" y1="44.000000" x2="526.100000" y2="44.000000"  style="stroke:black; stroke-linecap:round; stroke-width:0.25;"/>
<line x1="564.800000" y1="36.000000" x2="568.800000" y2="36.000000"  style="stroke:black; stroke-linecap:round; stroke-width:0.25;"/>
<line x1="564.800000" y1="44.000000" x2="568.800000" y2="44.000000"  style="stroke:black; stroke-linecap:round; stroke-width:0.25;"/>
<line x1="568.800000" y1="36.000000" x2="568.800000" y2="36.000000"  style="stroke:black; stroke-linecap:round; stroke-width:0.25;"/>
<line x1="568.800000" y1="36.000000" x2="572.800000" y2="36.000000"  style="stroke:black; stroke-linecap:round; stroke-width:0.25;"/>
<line x1="568.800000" y1="44.000000" x2="568.800000" y2="44.000000"  style="stroke:black; stroke-linecap:round; stroke-width:0.25;"/>
<line x1="568.800000" y1="44.000000" x2="572.800000" y2="44.000000"  style="stroke:black; stroke-linecap:round; stroke-width:0.25;"/>
<line x1="611.500000" y1="36.000000" x2="615.500000" y2="36.000000"  style="stroke:black; stroke-linecap:round; stroke-width:0.25;"/>
<line x1="611.500000" y1="44.000000" x2="615.500000" y2="44.000000"  style="stroke:black; stroke-linecap:round; stroke-width:0.25;"/>
<line x1="615.500000" y1="36.000000" x2="625.500000" y2="36.000000"  style="stroke:black; stroke-linecap:round; stroke-width:0.25;"/>
<line x1="615.500000" y1="44.000000" x2="625.500000" y2="44.000000"  style="stroke:black; stroke-linecap:round; stroke-width:0.25;"/>
</svg>
