<?xml version="1.0"?>
<svg xmlns="http://www.w3.org/2000/svg" xmlns:xlink="http://www.w3.org/1999/xlink" viewBox="0 0 659.500000 80.000000" width="329.750000mm" height="40.000000mm" version="1.1">
<defs>
   <filter id="filter" filterRes="18" x="0" y="0">
     <feGaussianBlur in="SourceGraphic" stdDeviation="1.55" result="blur"/>
     <feOffset in="blur" dx="3" dy="3"/>
   </filter>
</defs>
<a xlink:href="process.svg">
<rect x="1.000000" y="1.000000" width="658.500000" height="79.000000" rx="0.1" ry="0.1" style="stroke:none;fill:#aaaaaa;;filter:url(#filter);"/>
<rect x="0.000000" y="0.000000" width="658.500000" height="79.000000" rx="0" ry="0" style="stroke:none;fill:#ffffff;"/>
</a>
<text x="10.000000" y="7.000000" font-family="Arial" font-size="7"></text>
<rect x="41.000000" y="33.000000" width="24.000000" height="24.000000" rx="0.1" ry="0.1" style="stroke:none;fill:#aaaaaa;;filter:url(#filter);"/>
<rect x="40.000000" y="32.000000" width="24.000000" height="24.000000" rx="0" ry="0" style="stroke:none;fill:#f44800;"/>
<text x="52.000000" y="46.000000" font-family="Arial" font-size="7" text-anchor="middle" fill="#FFFFFF">0</text>
<circle cx="42.000000" cy="34.000000" r="1"/>
<a xlink:href="Del-0x1a82590.svg">
<rect x="81.000000" y="29.000000" width="25.800000" height="24.000000" rx="0.1" ry="0.1" style="stroke:none;fill:#aaaaaa;;filter:url(#filter);"/>
<rect x="80.000000" y="28.000000" width="25.800000" height="24.000000" rx="0" ry="0" style="stroke:none;fill:#003366;"/>
</a>
<a xlink:href="Del-0x1a82590.svg">
<text x="92.900000" y="42.000000" font-family="Arial" font-size="7" text-anchor="middle" fill="#FFFFFF">Del(1)</text>
</a>
<circle cx="82.000000" cy="30.000000" r="1"/>
<line x1="77.000000" y1="35.000000" x2="80.000000" y2="36.000000"  transform="rotate(0.000000,80.000000,36.000000)" style="stroke: black; stroke-width:0.25;"/>
<line x1="77.000000" y1="37.000000" x2="80.000000" y2="36.000000"  transform="rotate(0.000000,80.000000,36.000000)" style="stroke: black; stroke-width:0.25;"/>
<line x1="77.000000" y1="43.000000" x2="80.000000" y2="44.000000"  transform="rotate(0.000000,80.000000,44.000000)" style="stroke: black; stroke-width:0.25;"/>
<line x1="77.000000" y1="45.000000" x2="80.000000" y2="44.000000"  transform="rotate(0.000000,80.000000,44.000000)" style="stroke: black; stroke-width:0.25;"/>
<a xlink:href="Del-0x1a801b0.svg">
<rect x="114.800000" y="29.000000" width="25.800000" height="24.000000" rx="0.1" ry="0.1" style="stroke:none;fill:#aaaaaa;;filter:url(#filter);"/>
<rect x="113.800000" y="28.000000" width="25.800000" height="24.000000" rx="0" ry="0" style="stroke:none;fill:#003366;"/>
</a>
<a xlink:href="Del-0x1a801b0.svg">
<text x="126.700000" y="42.000000" font-family="Arial" font-size="7" text-anchor="middle" fill="#FFFFFF">Del(2)</text>
</a>
<circle cx="115.800000" cy="30.000000" r="1"/>
<line x1="110.800000" y1="35.000000" x2="113.800000" y2="36.000000"  transform="rotate(0.000000,113.800000,36.000000)" style="stroke: black; stroke-width:0.25;"/>
<line x1="110.800000" y1="37.000000" x2="113.800000" y2="36.000000"  transform="rotate(0.000000,113.800000,36.000000)" style="stroke: black; stroke-width:0.25;"/>
<line x1="110.800000" y1="43.000000" x2="113.800000" y2="44.000000"  transform="rotate(0.000000,113.800000,44.000000)" style="stroke: black; stroke-width:0.25;"/>
<line x1="110.800000" y1="45.000000" x2="113.800000" y2="44.000000"  transform="rotate(0.000000,113.800000,44.000000)" style="stroke: black; stroke-width:0.25;"/>
<a xlink:href="Del-0x1a7dcd0.svg">
<rect x="148.600000" y="29.000000" width="25.800000" height="24.000000" rx="0.1" ry="0.1" style="stroke:none;fill:#aaaaaa;;filter:url(#filter);"/>
<rect x="147.600000" y="28.000000" width="25.800000" height="24.000000" rx="0" ry="0" style="stroke:none;fill:#003366;"/>
</a>
<a xlink:href="Del-0x1a7dcd0.svg">
<text x="160.500000" y="42.000000" font-family="Arial" font-size="7" text-anchor="middle" fill="#FFFFFF">Del(5)</text>
</a>
<circle cx="149.600000" cy="30.000000" r="1"/>
<line x1="144.600000" y1="35.000000" x2="147.600000" y2="36.000000"  transform="rotate(0.000000,147.600000,36.000000)" style="stroke: black; stroke-width:0.25;"/>
<line x1="144.600000" y1="37.000000" x2="147.600000" y2="36.000000"  transform="rotate(0.000000,147.600000,36.000000)" style="stroke: black; stroke-width:0.25;"/>
<line x1="144.600000" y1="43.000000" x2="147.600000" y2="44.000000"  transform="rotate(0.000000,147.600000,44.000000)" style="stroke: black; stroke-width:0.25;"/>
<line x1="144.600000" y1="45.000000" x2="147.600000" y2="44.000000"  transform="rotate(0.000000,147.600000,44.000000)" style="stroke: black; stroke-width:0.25;"/>
<a xlink:href="Del-0x1a7b7f0.svg">
<rect x="182.400000" y="29.000000" width="25.800000" height="24.000000" rx="0.1" ry="0.1" style="stroke:none;fill:#aaaaaa;;filter:url(#filter);"/>
<rect x="181.400000" y="28.000000" width="25.800000" height="24.000000" rx="0" ry="0" style="stroke:none;fill:#003366;"/>
</a>
<a xlink:href="Del-0x1a7b7f0.svg">
<text x="194.300000" y="42.000000" font-family="Arial" font-size="7" text-anchor="middle" fill="#FFFFFF">Del(7)</text>
</a>
<circle cx="183.400000" cy="30.000000" r="1"/>
<line x1="178.400000" y1="35.000000" x2="181.400000" y2="36.000000"  transform="rotate(0.000000,181.400000,36.000000)" style="stroke: black; stroke-width:0.25;"/>
<line x1="178.400000" y1="37.000000" x2="181.400000" y2="36.000000"  transform="rotate(0.000000,181.400000,36.000000)" style="stroke: black; stroke-width:0.25;"/>
<line x1="178.400000" y1="43.000000" x2="181.400000" y2="44.000000"  transform="rotate(0.000000,181.400000,44.000000)" style="stroke: black; stroke-width:0.25;"/>
<line x1="178.400000" y1="45.000000" x2="181.400000" y2="44.000000"  transform="rotate(0.000000,181.400000,44.000000)" style="stroke: black; stroke-width:0.25;"/>
<a xlink:href="Del-0x1a79310.svg">
<rect x="216.200000" y="29.000000" width="38.700000" height="24.000000" rx="0.1" ry="0.1" style="stroke:none;fill:#aaaaaa;;filter:url(#filter);"/>
<rect x="215.200000" y="28.000000" width="38.700000" height="24.000000" rx="0" ry="0" style="stroke:none;fill:#003366;"/>
</a>
<a xlink:href="Del-0x1a79310.svg">
<text x="234.550000" y="42.000000" font-family="Arial" font-size="7" text-anchor="middle" fill="#FFFFFF">Del(23)</text>
</a>
<circle cx="217.200000" cy="30.000000" r="1"/>
<line x1="212.200000" y1="35.000000" x2="215.200000" y2="36.000000"  transform="rotate(0.000000,215.200000,36.000000)" style="stroke: black; stroke-width:0.25;"/>
<line x1="212.200000" y1="37.000000" x2="215.200000" y2="36.000000"  transform="rotate(0.000000,215.200000,36.000000)" style="stroke: black; stroke-width:0.25;"/>
<line x1="212.200000" y1="43.000000" x2="215.200000" y2="44.000000"  transform="rotate(0.000000,215.200000,44.000000)" style="stroke: black; stroke-width:0.25;"/>
<line x1="212.200000" y1="45.000000" x2="215.200000" y2="44.000000"  transform="rotate(0.000000,215.200000,44.000000)" style="stroke: black; stroke-width:0.25;"/>
<a xlink:href="Del-0x1a76e30.svg">
<rect x="262.900000" y="29.000000" width="38.700000" height="24.000000" rx="0.1" ry="0.1" style="stroke:none;fill:#aaaaaa;;filter:url(#filter);"/>
<rect x="261.900000" y="28.000000" width="38.700000" height="24.000000" rx="0" ry="0" style="stroke:none;fill:#003366;"/>
</a>
<a xlink:href="Del-0x1a76e30.svg">
<text x="281.250000" y="42.000000" font-family="Arial" font-size="7" text-anchor="middle" fill="#FFFFFF">Del(54)</text>
</a>
<circle cx="263.900000" cy="30.000000" r="1"/>
<line x1="258.900000" y1="35.000000" x2="261.900000" y2="36.000000"  transform="rotate(0.000000,261.900000,36.000000)" style="stroke: black; stroke-width:0.25;"/>
<line x1="258.900000" y1="37.000000" x2="261.900000" y2="36.000000"  transform="rotate(0.000000,261.900000,36.000000)" style="stroke: black; stroke-width:0.25;"/>
<line x1="258.900000" y1="43.000000" x2="261.900000" y2="44.000000"  transform="rotate(0.000000,261.900000,44.000000)" style="stroke: black; stroke-width:0.25;"/>
<line x1="258.900000" y1="45.000000" x2="261.900000" y2="44.000000"  transform="rotate(0.000000,261.900000,44.000000)" style="stroke: black; stroke-width:0.25;"/>
<a xlink:href="Del-0x1a74920.svg">
<rect x="309.600000" y="29.000000" width="38.700000" height="24.000000" rx="0.1" ry="0.1" style="stroke:none;fill:#aaaaaa;;filter:url(#filter);"/>
<rect x="308.600000" y="28.000000" width="38.700000" height="24.000000" rx="0" ry="0" style="stroke:none;fill:#003366;"/>
</a>
<a xlink:href="Del-0x1a74920.svg">
<text x="327.950000" y="42.000000" font-family="Arial" font-size="7" text-anchor="middle" fill="#FFFFFF">Del(79)</text>
</a>
<circle cx="310.600000" cy="30.000000" r="1"/>
<line x1="305.600000" y1="35.000000" x2="308.600000" y2="36.000000"  transform="rotate(0.000000,308.600000,36.000000)" style="stroke: black; stroke-width:0.25;"/>
<line x1="305.600000" y1="37.000000" x2="308.600000" y2="36.000000"  transform="rotate(0.000000,308.600000,36.000000)" style="stroke: black; stroke-width:0.25;"/>
<line x1="305.600000" y1="43.000000" x2="308.600000" y2="44.000000"  transform="rotate(0.000000,308.600000,44.000000)" style="stroke: black; stroke-width:0.25;"/>
<line x1="305.600000" y1="45.000000" x2="308.600000" y2="44.000000"  transform="rotate(0.000000,308.600000,44.000000)" style="stroke: black; stroke-width:0.25;"/>
<a xlink:href="Del-0x1a72430.svg">
<rect x="356.300000" y="29.000000" width="38.700000" height="24.000000" rx="0.1" ry="0.1" style="stroke:none;fill:#aaaaaa;;filter:url(#filter);"/>
<rect x="355.300000" y="28.000000" width="38.700000" height="24.000000" rx="0" ry="0" style="stroke:none;fill:#003366;"/>
</a>
<a xlink:href="Del-0x1a72430.svg">
<text x="374.650000" y="42.000000" font-family="Arial" font-size="7" text-anchor="middle" fill="#FFFFFF">Del(220)</text>
</a>
<circle cx="357.300000" cy="30.000000" r="1"/>
<line x1="352.300000" y1="35.000000" x2="355.300000" y2="36.000000"  transform="rotate(0.000000,355.300000,36.000000)" style="stroke: black; stroke-width:0.25;"/>
<line x1="352.300000" y1="37.000000" x2="355.300000" y2="36.000000"  transform="rotate(0.000000,355.300000,36.000000)" style="stroke: black; stroke-width:0.25;"/>
<line x1="352.300000" y1="43.000000" x2="355.300000" y2="44.000000"  transform="rotate(0.000000,355.300000,44.000000)" style="stroke: black; stroke-width:0.25;"/>
<line x1="352.300000" y1="45.000000" x2="355.300000" y2="44.000000"  transform="rotate(0.000000,355.300000,44.000000)" style="stroke: black; stroke-width:0.25;"/>
<a xlink:href="Del-0x1a6ff40.svg">
<rect x="403.000000" y="29.000000" width="38.700000" height="24.000000" rx="0.1" ry="0.1" style="stroke:none;fill:#aaaaaa;;filter:url(#filter);"/>
<rect x="402.000000" y="28.000000" width="38.700000" height="24.000000" rx="0" ry="0" style="stroke:none;fill:#003366;"/>
</a>
<a xlink:href="Del-0x1a6ff40.svg">
<text x="421.350000" y="42.000000" font-family="Arial" font-size="7" text-anchor="middle" fill="#FFFFFF">Del(340)</text>
</a>
<circle cx="404.000000" cy="30.000000" r="1"/>
<line x1="399.000000" y1="35.000000" x2="402.000000" y2="36.000000"  transform="rotate(0.000000,402.000000,36.000000)" style="stroke: black; stroke-width:0.25;"/>
<line x1="399.000000" y1="37.000000" x2="402.000000" y2="36.000000"  transform="rotate(0.000000,402.000000,36.000000)" style="stroke: black; stroke-width:0.25;"/>
<line x1="399.000000" y1="43.000000" x2="402.000000" y2="44.000000"  transform="rotate(0.000000,402.000000,44.000000)" style="stroke: black; stroke-width:0.25;"/>
<line x1="399.000000" y1="45.000000" x2="402.000000" y2="44.000000"  transform="rotate(0.000000,402.000000,44.000000)" style="stroke: black; stroke-width:0.25;"/>
<a xlink:href="Del-0x1a6da50.svg">
<rect x="449.700000" y="29.000000" width="38.700000" height="24.000000" rx="0.1" ry="0.1" style="stroke:none;fill:#aaaaaa;;filter:url(#filter);"/>
<rect x="448.700000" y="28.000000" width="38.700000" height="24.000000" rx="0" ry="0" style="stroke:none;fill:#003366;"/>
</a>
<a xlink:href="Del-0x1a6da50.svg">
<text x="468.050000" y="42.000000" font-family="Arial" font-size="7" text-anchor="middle" fill="#FFFFFF">Del(454)</text>
</a>
<circle cx="450.700000" cy="30.000000" r="1"/>
<line x1="445.700000" y1="35.000000" x2="448.700000" y2="36.000000"  transform="rotate(0.000000,448.700000,36.000000)" style="stroke: black; stroke-width:0.25;"/>
<line x1="445.700000" y1="37.000000" x2="448.700000" y2="36.000000"  transform="rotate(0.000000,448.700000,36.000000)" style="stroke: black; stroke-width:0.25;"/>
<line x1="445.700000" y1="43.000000" x2="448.700000" y2="44.000000"  transform="rotate(0.000000,448.700000,44.000000)" style="stroke: black; stroke-width:0.25;"/>
<line x1="445.700000" y1="45.000000" x2="448.700000" y2="44.000000"  transform="rotate(0.000000,448.700000,44.000000)" style="stroke: black; stroke-width:0.25;"/>
<a xlink:href="Del-0x1a6b560.svg">
<rect x="496.400000" y="29.000000" width="38.700000" height="24.000000" rx="0.1" ry="0.1" style="stroke:none;fill:#aaaaaa;;filter:url(#filter);"/>
<rect x="495.400000" y="28.000000" width="38.700000" height="24.000000" rx="0" ry="0" style="stroke:none;fill:#003366;"/>
</a>
<a xlink:href="Del-0x1a6b560.svg">
<text x="514.750000" y="42.000000" font-family="Arial" font-size="7" text-anchor="middle" fill="#FFFFFF">Del(623)</text>
</a>
<circle cx="497.400000" cy="30.000000" r="1"/>
<line x1="492.400000" y1="35.000000" x2="495.400000" y2="36.000000"  transform="rotate(0.000000,495.400000,36.000000)" style="stroke: black; stroke-width:0.25;"/>
<line x1="492.400000" y1="37.000000" x2="495.400000" y2="36.000000"  transform="rotate(0.000000,495.400000,36.000000)" style="stroke: black; stroke-width:0.25;"/>
<line x1="492.400000" y1="43.000000" x2="495.400000" y2="44.000000"  transform="rotate(0.000000,495.400000,44.000000)" style="stroke: black; stroke-width:0.25;"/>
<line x1="492.400000" y1="45.000000" x2="495.400000" y2="44.000000"  transform="rotate(0.000000,495.400000,44.000000)" style="stroke: black; stroke-width:0.25;"/>
<a xlink:href="Del-0x1a69070.svg">
<rect x="543.100000" y="29.000000" width="38.700000" height="24.000000" rx="0.1" ry="0.1" style="stroke:none;fill:#aaaaaa;;filter:url(#filter);"/>
<rect x="542.100000" y="28.000000" width="38.700000" height="24.000000" rx="0" ry="0" style="stroke:none;fill:#003366;"/>
</a>
<a xlink:href="Del-0x1a69070.svg">
<text x="561.450000" y="42.000000" font-family="Arial" font-size="7" text-anchor="middle" fill="#FFFFFF">Del(845)</text>
</a>
<circle cx="544.100000" cy="30.000000" r="1"/>
<line x1="539.100000" y1="35.000000" x2="542.100000" y2="36.000000"  transform="rotate(0.000000,542.100000,36.000000)" style="stroke: black; stroke-width:0.25;"/>
<line x1="539.100000" y1="37.000000" x2="542.100000" y2="36.000000"  transform="rotate(0.000000,542.100000,36.000000)" style="stroke: black; stroke-width:0.25;"/>
<line x1="539.100000" y1="43.000000" x2="542.100000" y2="44.000000"  transform="rotate(0.000000,542.100000,44.000000)" style="stroke: black; stroke-width:0.25;"/>
<line x1="539.100000" y1="45.000000" x2="542.100000" y2="44.000000"  transform="rotate(0.000000,542.100000,44.000000)" style="stroke: black; stroke-width:0.25;"/>
<a xlink:href="Del-0x1a66c60.svg">
<rect x="589.800000" y="29.000000" width="38.700000" height="24.000000" rx="0.1" ry="0.1" style="stroke:none;fill:#aaaaaa;;filter:url(#filter);"/>
<rect x="588.800000" y="28.000000" width="38.700000" height="24.000000" rx="0" ry="0" style="stroke:none;fill:#003366;"/>
</a>
<a xlink:href="Del-0x1a66c60.svg">
<text x="608.150000" y="42.000000" font-family="Arial" font-size="7" text-anchor="middle" fill="#FFFFFF">Del(1304)</text>
</a>
<circle cx="590.800000" cy="30.000000" r="1"/>
<line x1="585.800000" y1="35.000000" x2="588.800000" y2="36.000000"  transform="rotate(0.000000,588.800000,36.000000)" style="stroke: black; stroke-width:0.25;"/>
<line x1="585.800000" y1="37.000000" x2="588.800000" y2="36.000000"  transform="rotate(0.000000,588.800000,36.000000)" style="stroke: black; stroke-width:0.25;"/>
<line x1="585.800000" y1="43.000000" x2="588.800000" y2="44.000000"  transform="rotate(0.000000,588.800000,44.000000)" style="stroke: black; stroke-width:0.25;"/>
<line x1="585.800000" y1="45.000000" x2="588.800000" y2="44.000000"  transform="rotate(0.000000,588.800000,44.000000)" style="stroke: black; stroke-width:0.25;"/>
<line x1="15.000000" y1="15.000000" x2="15.000000" y2="65.000000"  style="stroke: black; stroke-linecap:round; stroke-width:0.25; stroke-dasharray:3,3;"/>
<line x1="15.000000" y1="65.000000" x2="644.500000" y2="65.000000"  style="stroke: black; stroke-linecap:round; stroke-width:0.25; stroke-dasharray:3,3;"/>
<line x1="644.500000" y1="65.000000" x2="644.500000" y2="15.000000"  style="stroke: black; stroke-linecap:round; stroke-width:0.25; stroke-dasharray:3,3;"/>
<line x1="15.000000" y1="15.000000" x2="20.000000" y2="15.000000"  style="stroke: black; stroke-linecap:round; stroke-width:0.25; stroke-dasharray:3,3;"/>
<line x1="42.575000" y1="15.000000" x2="644.500000" y2="15.000000"  style="stroke: black; stroke-linecap:round; stroke-width:0.25; stroke-dasharray:3,3;"/>
<text x="20.000000" y="17.000000" font-family="Arial" font-size="7">Early</text>
<line x1="646.500000" y1="35.000000" x2="649.500000" y2="36.000000"  transform="rotate(0.000000,649.500000,36.000000)" style="stroke: black; stroke-width:0.25;"/>
<line x1="646.500000" y1="37.000000" x2="649.500000" y2="36.000000"  transform="rotate(0.000000,649.500000,36.000000)" style="stroke: black; stroke-width:0.25;"/>
<line x1="646.500000" y1="43.000000" x2="649.500000" y2="44.000000"  transform="rotate(0.000000,649.500000,44.000000)" style="stroke: black; stroke-width:0.25;"/>
<line x1="646.500000" y1="45.000000" x2="649.500000" y2="44.000000"  transform="rotate(0.000000,649.500000,44.000000)" style="stroke: black; stroke-width:0.25;"/>
<line x1="10.000000" y1="40.000000" x2="20.000000" y2="40.000000"  style="stroke:black; stroke-linecap:round; stroke-width:0.25;"/>
<line x1="20.000000" y1="40.000000" x2="24.000000" y2="40.000000"  style="stroke:black; stroke-linecap:round; stroke-width:0.25;"/>
<line x1="24.000000" y1="40.000000" x2="28.000000" y2="40.000000"  style="stroke:black; stroke-linecap:round; stroke-width:0.25;"/>
<line x1="28.000000" y1="24.000000" x2="36.000000" y2="24.000000"  style="stroke:black; stroke-linecap:round; stroke-width:0.25;"/>
<line x1="28.000000" y1="40.000000" x2="28.000000" y2="24.000000"  style="stroke:black; stroke-linecap:round; stroke-width:0.25;"/>
<line x1="28.000000" y1="40.000000" x2="28.000000" y2="40.000000"  style="stroke:black; stroke-linecap:round; stroke-width:0.25;"/>
<line x1="36.000000" y1="24.000000" x2="52.000000" y2="24.000000"  style="stroke:black; stroke-linecap:round; stroke-width:0.25;"/>
<line x1="52.000000" y1="24.000000" x2="68.000000" y2="24.000000"  style="stroke:black; stroke-linecap:round; stroke-width:0.25;"/>
<line x1="64.000000" y1="44.000000" x2="68.000000" y2="44.000000"  style="stroke:black; stroke-linecap:round; stroke-width:0.25;"/>
<line x1="68.000000" y1="24.000000" x2="76.000000" y2="24.000000"  style="stroke:black; stroke-linecap:round; stroke-width:0.25;"/>
<line x1="68.000000" y1="44.000000" x2="76.000000" y2="44.000000"  style="stroke:black; stroke-linecap:round; stroke-width:0.25;"/>
<line x1="76.000000" y1="24.000000" x2="76.000000" y2="36.000000"  style="stroke:black; stroke-linecap:round; stroke-width:0.25;"/>
<line x1="76.000000" y1="36.000000" x2="76.000000" y2="36.000000"  style="stroke:black; stroke-linecap:round; stroke-width:0.25;"/>
<line x1="76.000000" y1="36.000000" x2="80.000000" y2="36.000000"  style="stroke:black; stroke-linecap:round; stroke-width:0.25;"/>
<line x1="76.000000" y1="44.000000" x2="80.000000" y2="44.000000"  style="stroke:black; stroke-linecap:round; stroke-width:0.25;"/>
<line x1="105.800000" y1="36.000000" x2="109.800000" y2="36.000000"  style="stroke:black; stroke-linecap:round; stroke-width:0.25;"/>
<line x1="105.800000" y1="44.000000" x2="109.800000" y2="44.000000"  style="stroke:black; stroke-linecap:round; stroke-width:0.25;"/>
<line x1="109.800000" y1="36.000000" x2="109.800000" y2="36.000000"  style="stroke:black; stroke-linecap:round; stroke-width:0.25;"/>
<line x1="109.800000" y1="36.000000" x2="113.800000" y2="36.000000"  style="stroke:black; stroke-linecap:round; stroke-width:0.25;"/>
<line x1="109.800000" y1="44.000000" x2="109.800000" y2="44.000000"  style="stroke:black; stroke-linecap:round; stroke-width:0.25;"/>
<line x1="109.800000" y1="44.000000" x2="113.800000" y2="44.000000"  style="stroke:black; stroke-linecap:round; stroke-width:0.25;"/>
<line x1="139.600000" y1="36.000000" x2="143.600000" y2="36.000000"  style="stroke:black; stroke-linecap:round; stroke-width:0.25;"/>
<line x1="139.600000" y1="44.000000" x2="143.600000" y2="44.000000"  style="stroke:black; stroke-linecap:round; stroke-width:0.25;"/>
<line x1="143.600000" y1="36.000000" x2="143.600000" y2="36.000000"  style="stroke:black; stroke-linecap:round; stroke-width:0.25;"/>
<line x1="143.600000" y1="36.000000" x2="147.600000" y2="36.000000"  style="stroke:black; stroke-linecap:round; stroke-width:0.25;"/>
<line x1="143.600000" y1="44.000000" x2="143.600000" y2="44.000000"  style="stroke:black; stroke-linecap:round; stroke-width:0.25;"/>
<line x1="143.600000" y1="44.000000" x2="147.600000" y2="44.000000"  style="stroke:black; stroke-linecap:round; stroke-width:0.25;"/>
<line x1="173.400000" y1="36.000000" x2="177.400000" y2="36.000000"  style="stroke:black; stroke-linecap:round; stroke-width:0.25;"/>
<line x1="173.400000" y1="44.000000" x2="177.400000" y2="44.000000"  style="stroke:black; stroke-linecap:round; stroke-width:0.25;"/>
<line x1="177.400000" y1="36.000000" x2="177.400000" y2="36.000000"  style="stroke:black; stroke-linecap:round; stroke-width:0.25;"/>
<line x1="177.400000" y1="36.000000" x2="181.400000" y2="36.000000"  style="stroke:black; stroke-linecap:round; stroke-width:0.25;"/>
<line x1="177.400000" y1="44.000000" x2="177.400000" y2="44.000000"  style="stroke:black; stroke-linecap:round; stroke-width:0.25;"/>
<line x1="177.400000" y1="44.000000" x2="181.400000" y2="44.000000"  style="stroke:black; stroke-linecap:round; stroke-width:0.25;"/>
<line x1="207.200000" y1="36.000000" x2="211.200000" y2="36.000000"  style="stroke:black; stroke-linecap:round; stroke-width:0.25;"/>
<line x1="207.200000" y1="44.000000" x2="211.200000" y2="44.000000"  style="stroke:black; stroke-linecap:round; stroke-width:0.25;"/>
<line x1="211.200000" y1="36.000000" x2="211.200000" y2="36.000000"  style="stroke:black; stroke-linecap:round; stroke-width:0.25;"/>
<line x1="211.200000" y1="36.000000" x2="215.200000" y2="36.000000"  style="stroke:black; stroke-linecap:round; stroke-width:0.25;"/>
<line x1="211.200000" y1="44.000000" x2="211.200000" y2="44.000000"  style="stroke:black; stroke-linecap:round; stroke-width:0.25;"/>
<line x1="211.200000" y1="44.000000" x2="215.200000" y2="44.000000"  style="stroke:black; stroke-linecap:round; stroke-width:0.25;"/>
<line x1="253.900000" y1="36.000000" x2="257.900000" y2="36.000000"  style="stroke:black; stroke-linecap:round; stroke-width:0.25;"/>
<line x1="253.900000" y1="44.000000" x2="257.900000" y2="44.000000"  style="stroke:black; stroke-linecap:round; stroke-width:0.25;"/>
<line x1="257.900000" y1="36.000000" x2="257.900000" y2="36.000000"  style="stroke:black; stroke-linecap:round; stroke-width:0.25;"/>
<line x1="257.900000" y1="36.000000" x2="261.900000" y2="36.000000"  style="stroke:black; stroke-linecap:round; stroke-width:0.25;"/>
<line x1="257.900000" y1="44.000000" x2="257.900000" y2="44.000000"  style="stroke:black; stroke-linecap:round; stroke-width:0.25;"/>
<line x1="257.900000" y1="44.000000" x2="261.900000" y2="44.000000"  style="stroke:black; stroke-linecap:round; stroke-width:0.25;"/>
<line x1="300.600000" y1="36.000000" x2="304.600000" y2="36.000000"  style="stroke:black; stroke-linecap:round; stroke-width:0.25;"/>
<line x1="300.600000" y1="44.000000" x2="304.600000" y2="44.000000"  style="stroke:black; stroke-linecap:round; stroke-width:0.25;"/>
<line x1="304.600000" y1="36.000000" x2="304.600000" y2="36.000000"  style="stroke:black; stroke-linecap:round; stroke-width:0.25;"/>
<line x1="304.600000" y1="36.000000" x2="308.600000" y2="36.000000"  style="stroke:black; stroke-linecap:round; stroke-width:0.25;"/>
<line x1="304.600000" y1="44.000000" x2="304.600000" y2="44.000000"  style="stroke:black; stroke-linecap:round; stroke-width:0.25;"/>
<line x1="304.600000" y1="44.000000" x2="308.600000" y2="44.000000"  style="stroke:black; stroke-linecap:round; stroke-width:0.25;"/>
<line x1="347.300000" y1="36.000000" x2="351.300000" y2="36.000000"  style="stroke:black; stroke-linecap:round; stroke-width:0.25;"/>
<line x1="347.300000" y1="44.000000" x2="351.300000" y2="44.000000"  style="stroke:black; stroke-linecap:round; stroke-width:0.25;"/>
<line x1="351.300000" y1="36.000000" x2="351.300000" y2="36.000000"  style="stroke:black; stroke-linecap:round; stroke-width:0.25;"/>
<line x1="351.300000" y1="36.000000" x2="355.300000" y2="36.000000"  style="stroke:black; stroke-linecap:round; stroke-width:0.25;"/>
<line x1="351.300000" y1="44.000000" x2="351.300000" y2="44.000000"  style="stroke:black; stroke-linecap:round; stroke-width:0.25;"/>
<line x1="351.300000" y1="44.000000" x2="355.300000" y2="44.000000"  style="stroke:black; stroke-linecap:round; stroke-width:0.25;"/>
<line x1="394.000000" y1="36.000000" x2="398.000000" y2="36.000000"  style="stroke:black; stroke-linecap:round; stroke-width:0.25;"/>
<line x1="394.000000" y1="44.000000" x2="398.000000" y2="44.000000"  style="stroke:black; stroke-linecap:round; stroke-width:0.25;"/>
<line x1="398.000000" y1="36.000000" x2="398.000000" y2="36.000000"  style="stroke:black; stroke-linecap:round; stroke-width:0.25;"/>
<line x1="398.000000" y1="36.000000" x2="402.000000" y2="36.000000"  style="stroke:black; stroke-linecap:round; stroke-width:0.25;"/>
<line x1="398.000000" y1="44.000000" x2="398.000000" y2="44.000000"  style="stroke:black; stroke-linecap:round; stroke-width:0.25;"/>
<line x1="398.000000" y1="44.000000" x2="402.000000" y2="44.000000"  style="stroke:black; stroke-linecap:round; stroke-width:0.25;"/>
<line x1="440.700000" y1="36.000000" x2="444.700000" y2="36.000000"  style="stroke:black; stroke-linecap:round; stroke-width:0.25;"/>
<line x1="440.700000" y1="44.000000" x2="444.700000" y2="44.000000"  style="stroke:black; stroke-linecap:round; stroke-width:0.25;"/>
<line x1="444.700000" y1="36.000000" x2="444.700000" y2="36.000000"  style="stroke:black; stroke-linecap:round; stroke-width:0.25;"/>
<line x1="444.700000" y1="36.000000" x2="448.700000" y2="36.000000"  style="stroke:black; stroke-linecap:round; stroke-width:0.25;"/>
<line x1="444.700000" y1="44.000000" x2="444.700000" y2="44.000000"  style="stroke:black; stroke-linecap:round; stroke-width:0.25;"/>
<line x1="444.700000" y1="44.000000" x2="448.700000" y2="44.000000"  style="stroke:black; stroke-linecap:round; stroke-width:0.25;"/>
<line x1="487.400000" y1="36.000000" x2="491.400000" y2="36.000000"  style="stroke:black; stroke-linecap:round; stroke-width:0.25;"/>
<line x1="487.400000" y1="44.000000" x2="491.400000" y2="44.000000"  style="stroke:black; stroke-linecap:round; stroke-width:0.25;"/>
<line x1="491.400000" y1="36.000000" x2="491.400000" y2="36.000000"  style="stroke:black; stroke-linecap:round; stroke-width:0.25;"/>
<line x1="491.400000" y1="36.000000" x2="495.400000" y2="36.000000"  style="stroke:black; stroke-linecap:round; stroke-width:0.25;"/>
<line x1="491.400000" y1="44.000000" x2="491.400000" y2="44.000000"  style="stroke:black; stroke-linecap:round; stroke-width:0.25;"/>
<line x1="491.400000" y1="44.000000" x2="495.400000" y2="44.000000"  style="stroke:black; stroke-linecap:round; stroke-width:0.25;"/>
<line x1="534.100000" y1="36.000000" x2="538.100000" y2="36.000000"  style="stroke:black; stroke-linecap:round; stroke-width:0.25;"/>
<line x1="534.100000" y1="44.000000" x2="538.100000" y2="44.000000"  style="stroke:black; stroke-linecap:round; stroke-width:0.25;"/>
<line x1="538.100000" y1="36.000000" x2="538.100000" y2="36.000000"  style="stroke:black; stroke-linecap:round; stroke-width:0.25;"/>
<line x1="538.100000" y1="36.000000" x2="542.100000" y2="36.000000"  style="stroke:black; stroke-linecap:round; stroke-width:0.25;"/>
<line x1="538.100000" y1="44.000000" x2="538.100000" y2="44.000000"  style="stroke:black; stroke-linecap:round; stroke-width:0.25;"/>
<line x1="538.100000" y1="44.000000" x2="542.100000" y2="44.000000"  style="stroke:black; stroke-linecap:round; stroke-width:0.25;"/>
<line x1="580.800000" y1="36.000000" x2="584.800000" y2="36.000000"  style="stroke:black; stroke-linecap:round; stroke-width:0.25;"/>
<line x1="580.800000" y1="44.000000" x2="584.800000" y2="44.000000"  style="stroke:black; stroke-linecap:round; stroke-width:0.25;"/>
<line x1="584.800000" y1="36.000000" x2="584.800000" y2="36.000000"  style="stroke:black; stroke-linecap:round; stroke-width:0.25;"/>
<line x1="584.800000" y1="36.000000" x2="588.800000" y2="36.000000"  style="stroke:black; stroke-linecap:round; stroke-width:0.25;"/>
<line x1="584.800000" y1="44.000000" x2="584.800000" y2="44.000000"  style="stroke:black; stroke-linecap:round; stroke-width:0.25;"/>
<line x1="584.800000" y1="44.000000" x2="588.800000" y2="44.000000"  style="stroke:black; stroke-linecap:round; stroke-width:0.25;"/>
<line x1="627.500000" y1="36.000000" x2="631.500000" y2="36.000000"  style="stroke:black; stroke-linecap:round; stroke-width:0.25;"/>
<line x1="627.500000" y1="44.000000" x2="631.500000" y2="44.000000"  style="stroke:black; stroke-linecap:round; stroke-width:0.25;"/>
<line x1="631.500000" y1="36.000000" x2="635.500000" y2="36.000000"  style="stroke:black; stroke-linecap:round; stroke-width:0.25;"/>
<line x1="631.500000" y1="44.000000" x2="635.500000" y2="44.000000"  style="stroke:black; stroke-linecap:round; stroke-width:0.25;"/>
<line x1="631.500000" y1="36.000000" x2="631.500000" y2="36.000000"  style="stroke:black; stroke-linecap:round; stroke-width:0.25;"/>
<line x1="631.500000" y1="44.000000" x2="631.500000" y2="44.000000"  style="stroke:black; stroke-linecap:round; stroke-width:0.25;"/>
<line x1="635.500000" y1="36.000000" x2="639.500000" y2="36.000000"  style="stroke:black; stroke-linecap:round; stroke-width:0.25;"/>
<line x1="635.500000" y1="44.000000" x2="639.500000" y2="44.000000"  style="stroke:black; stroke-linecap:round; stroke-width:0.25;"/>
<line x1="639.500000" y1="36.000000" x2="649.500000" y2="36.000000"  style="stroke:black; stroke-linecap:round; stroke-width:0.25;"/>
<line x1="639.500000" y1="44.000000" x2="649.500000" y2="44.000000"  style="stroke:black; stroke-linecap:round; stroke-width:0.25;"/>
</svg>
