<?xml version="1.0"?>
<svg xmlns="http://www.w3.org/2000/svg" xmlns:xlink="http://www.w3.org/1999/xlink" viewBox="0 0 385.100000 164.000000" width="192.550000mm" height="82.000000mm" version="1.1">
<defs>
   <filter id="filter" filterRes="18" x="0" y="0">
     <feGaussianBlur in="SourceGraphic" stdDeviation="1.55" result="blur"/>
     <feOffset in="blur" dx="3" dy="3"/>
   </filter>
</defs>
<rect x="1.000000" y="1.000000" width="384.100000" height="163.000000" rx="0.1" ry="0.1" style="stroke:none;fill:#aaaaaa;;filter:url(#filter);"/>
<rect x="0.000000" y="0.000000" width="384.100000" height="163.000000" rx="0" ry="0" style="stroke:none;fill:#ffffff;"/>
<text x="10.000000" y="7.000000" font-family="Arial" font-size="7"></text>
<rect x="130.700000" y="57.000000" width="24.000000" height="24.000000" rx="0.1" ry="0.1" style="stroke:none;fill:#aaaaaa;;filter:url(#filter);"/>
<rect x="129.700000" y="56.000000" width="24.000000" height="24.000000" rx="0" ry="0" style="stroke:none;fill:#4B71A1;"/>
<text x="141.700000" y="70.000000" font-family="Arial" font-size="7" text-anchor="middle" fill="#FFFFFF">+</text>
<circle cx="131.700000" cy="58.000000" r="1"/>
<line x1="126.700000" y1="63.000000" x2="129.700000" y2="64.000000"  transform="rotate(0.000000,129.700000,64.000000)" style="stroke: black; stroke-width:0.25;"/>
<line x1="126.700000" y1="65.000000" x2="129.700000" y2="64.000000"  transform="rotate(0.000000,129.700000,64.000000)" style="stroke: black; stroke-width:0.25;"/>
<line x1="126.700000" y1="71.000000" x2="129.700000" y2="72.000000"  transform="rotate(0.000000,129.700000,72.000000)" style="stroke: black; stroke-width:0.25;"/>
<line x1="126.700000" y1="73.000000" x2="129.700000" y2="72.000000"  transform="rotate(0.000000,129.700000,72.000000)" style="stroke: black; stroke-width:0.25;"/>
<a xlink:href="Early-0x1876ac0.svg">
<rect x="129.800000" y="25.000000" width="25.800000" height="24.000000" rx="0.1" ry="0.1" style="stroke:none;fill:#aaaaaa;;filter:url(#filter);"/>
<rect x="128.800000" y="24.000000" width="25.800000" height="24.000000" rx="0" ry="0" style="stroke:none;fill:#003366;"/>
</a>
<a xlink:href="Early-0x1876ac0.svg">
<text x="141.700000" y="38.000000" font-family="Arial" font-size="7" text-anchor="middle" fill="#FFFFFF">Early</text>
</a>
<circle cx="152.600000" cy="46.000000" r="1"/>
<line x1="157.600000" y1="35.000000" x2="154.600000" y2="36.000000"  transform="rotate(0.000000,154.600000,36.000000)" style="stroke: black; stroke-width:0.25;"/>
<line x1="157.600000" y1="37.000000" x2="154.600000" y2="36.000000"  transform="rotate(0.000000,154.600000,36.000000)" style="stroke: black; stroke-width:0.25;"/>
<line x1="174.600000" y1="68.000000" x2="174.600000" y2="64.000000"  style="stroke:black; stroke-linecap:round; stroke-width:0.25;"/>
<line x1="174.600000" y1="64.000000" x2="178.600000" y2="64.000000"  style="stroke:black; stroke-linecap:round; stroke-width:0.25;"/>
<line x1="178.600000" y1="64.000000" x2="178.600000" y2="68.000000"  style="stroke:black; stroke-linecap:round; stroke-width:0.25;"/>
<rect x="84.000000" y="107.000000" width="77.400000" height="24.000000" rx="0.1" ry="0.1" style="stroke:none;fill:#aaaaaa;;filter:url(#filter);"/>
<rect x="83.000000" y="106.000000" width="77.400000" height="24.000000" rx="0" ry="0" style="stroke:none;fill:#477881;"/>
<text x="121.700000" y="120.000000" font-family="Arial" font-size="7" text-anchor="middle" fill="#FFFFFF">checkbox(freeze)</text>
<circle cx="85.000000" cy="108.000000" r="1"/>
<line x1="74.000000" y1="97.000000" x2="74.000000" y2="139.000000"  style="stroke: black; stroke-linecap:round; stroke-width:0.25; stroke-dasharray:3,3;"/>
<line x1="74.000000" y1="139.000000" x2="169.400000" y2="139.000000"  style="stroke: black; stroke-linecap:round; stroke-width:0.25; stroke-dasharray:3,3;"/>
<line x1="169.400000" y1="139.000000" x2="169.400000" y2="97.000000"  style="stroke: black; stroke-linecap:round; stroke-width:0.25; stroke-dasharray:3,3;"/>
<line x1="74.000000" y1="97.000000" x2="79.000000" y2="97.000000"  style="stroke: black; stroke-linecap:round; stroke-width:0.25; stroke-dasharray:3,3;"/>
<line x1="104.800000" y1="97.000000" x2="169.400000" y2="97.000000"  style="stroke: black; stroke-linecap:round; stroke-width:0.25; stroke-dasharray:3,3;"/>
<text x="79.000000" y="99.000000" font-family="Arial" font-size="7">Button</text>
<rect x="187.400000" y="103.000000" width="24.000000" height="24.000000" rx="0.1" ry="0.1" style="stroke:none;fill:#aaaaaa;;filter:url(#filter);"/>
<rect x="186.400000" y="102.000000" width="24.000000" height="24.000000" rx="0" ry="0" style="stroke:none;fill:#4B71A1;"/>
<text x="198.400000" y="116.000000" font-family="Arial" font-size="7" text-anchor="middle" fill="#FFFFFF">*</text>
<circle cx="188.400000" cy="104.000000" r="1"/>
<line x1="183.400000" y1="109.000000" x2="186.400000" y2="110.000000"  transform="rotate(0.000000,186.400000,110.000000)" style="stroke: black; stroke-width:0.25;"/>
<line x1="183.400000" y1="111.000000" x2="186.400000" y2="110.000000"  transform="rotate(0.000000,186.400000,110.000000)" style="stroke: black; stroke-width:0.25;"/>
<line x1="183.400000" y1="117.000000" x2="186.400000" y2="118.000000"  transform="rotate(0.000000,186.400000,118.000000)" style="stroke: black; stroke-width:0.25;"/>
<line x1="183.400000" y1="119.000000" x2="186.400000" y2="118.000000"  transform="rotate(0.000000,186.400000,118.000000)" style="stroke: black; stroke-width:0.25;"/>
<a xlink:href="invButton-0x18559d0.svg">
<rect x="235.400000" y="71.000000" width="38.700000" height="24.000000" rx="0.1" ry="0.1" style="stroke:none;fill:#aaaaaa;;filter:url(#filter);"/>
<rect x="234.400000" y="70.000000" width="38.700000" height="24.000000" rx="0" ry="0" style="stroke:none;fill:#003366;"/>
</a>
<a xlink:href="invButton-0x18559d0.svg">
<text x="253.750000" y="84.000000" font-family="Arial" font-size="7" text-anchor="middle" fill="#FFFFFF">invButton</text>
</a>
<circle cx="236.400000" cy="72.000000" r="1"/>
<rect x="290.100000" y="67.000000" width="24.000000" height="24.000000" rx="0.1" ry="0.1" style="stroke:none;fill:#aaaaaa;;filter:url(#filter);"/>
<rect x="289.100000" y="66.000000" width="24.000000" height="24.000000" rx="0" ry="0" style="stroke:none;fill:#4B71A1;"/>
<text x="301.100000" y="80.000000" font-family="Arial" font-size="7" text-anchor="middle" fill="#FFFFFF">*</text>
<circle cx="291.100000" cy="68.000000" r="1"/>
<line x1="286.100000" y1="73.000000" x2="289.100000" y2="74.000000"  transform="rotate(0.000000,289.100000,74.000000)" style="stroke: black; stroke-width:0.25;"/>
<line x1="286.100000" y1="75.000000" x2="289.100000" y2="74.000000"  transform="rotate(0.000000,289.100000,74.000000)" style="stroke: black; stroke-width:0.25;"/>
<line x1="286.100000" y1="81.000000" x2="289.100000" y2="82.000000"  transform="rotate(0.000000,289.100000,82.000000)" style="stroke: black; stroke-width:0.25;"/>
<line x1="286.100000" y1="83.000000" x2="289.100000" y2="82.000000"  transform="rotate(0.000000,289.100000,82.000000)" style="stroke: black; stroke-width:0.25;"/>
<rect x="330.100000" y="71.000000" width="24.000000" height="24.000000" rx="0.1" ry="0.1" style="stroke:none;fill:#aaaaaa;;filter:url(#filter);"/>
<rect x="329.100000" y="70.000000" width="24.000000" height="24.000000" rx="0" ry="0" style="stroke:none;fill:#4B71A1;"/>
<text x="341.100000" y="84.000000" font-family="Arial" font-size="7" text-anchor="middle" fill="#FFFFFF">+</text>
<circle cx="331.100000" cy="72.000000" r="1"/>
<line x1="326.100000" y1="77.000000" x2="329.100000" y2="78.000000"  transform="rotate(0.000000,329.100000,78.000000)" style="stroke: black; stroke-width:0.25;"/>
<line x1="326.100000" y1="79.000000" x2="329.100000" y2="78.000000"  transform="rotate(0.000000,329.100000,78.000000)" style="stroke: black; stroke-width:0.25;"/>
<line x1="326.100000" y1="85.000000" x2="329.100000" y2="86.000000"  transform="rotate(0.000000,329.100000,86.000000)" style="stroke: black; stroke-width:0.25;"/>
<line x1="326.100000" y1="87.000000" x2="329.100000" y2="86.000000"  transform="rotate(0.000000,329.100000,86.000000)" style="stroke: black; stroke-width:0.25;"/>
<line x1="15.000000" y1="15.000000" x2="15.000000" y2="149.000000"  style="stroke: black; stroke-linecap:round; stroke-width:0.25; stroke-dasharray:3,3;"/>
<line x1="15.000000" y1="149.000000" x2="370.100000" y2="149.000000"  style="stroke: black; stroke-linecap:round; stroke-width:0.25; stroke-dasharray:3,3;"/>
<line x1="370.100000" y1="149.000000" x2="370.100000" y2="15.000000"  style="stroke: black; stroke-linecap:round; stroke-width:0.25; stroke-dasharray:3,3;"/>
<line x1="15.000000" y1="15.000000" x2="20.000000" y2="15.000000"  style="stroke: black; stroke-linecap:round; stroke-width:0.25; stroke-dasharray:3,3;"/>
<line x1="49.025000" y1="15.000000" x2="370.100000" y2="15.000000"  style="stroke: black; stroke-linecap:round; stroke-width:0.25; stroke-dasharray:3,3;"/>
<text x="20.000000" y="17.000000" font-family="Arial" font-size="7">process</text>
<line x1="372.100000" y1="81.000000" x2="375.100000" y2="82.000000"  transform="rotate(0.000000,375.100000,82.000000)" style="stroke: black; stroke-width:0.25;"/>
<line x1="372.100000" y1="83.000000" x2="375.100000" y2="82.000000"  transform="rotate(0.000000,375.100000,82.000000)" style="stroke: black; stroke-width:0.25;"/>
<line x1="10.000000" y1="82.000000" x2="20.000000" y2="82.000000"  style="stroke:black; stroke-linecap:round; stroke-width:0.25;"/>
<line x1="20.000000" y1="82.000000" x2="24.000000" y2="82.000000"  style="stroke:black; stroke-linecap:round; stroke-width:0.25;"/>
<line x1="24.000000" y1="82.000000" x2="28.000000" y2="82.000000"  style="stroke:black; stroke-linecap:round; stroke-width:0.25;"/>
<line x1="28.000000" y1="82.000000" x2="28.000000" y2="82.000000"  style="stroke:black; stroke-linecap:round; stroke-width:0.25;"/>
<line x1="28.000000" y1="82.000000" x2="32.000000" y2="82.000000"  style="stroke:black; stroke-linecap:round; stroke-width:0.25;"/>
<line x1="32.000000" y1="82.000000" x2="36.000000" y2="82.000000"  style="stroke:black; stroke-linecap:round; stroke-width:0.25;"/>
<line x1="36.000000" y1="82.000000" x2="69.000000" y2="72.000000"  style="stroke:black; stroke-linecap:round; stroke-width:0.25;"/>
<line x1="36.000000" y1="82.000000" x2="69.000000" y2="88.000000"  style="stroke:black; stroke-linecap:round; stroke-width:0.25;"/>
<line x1="69.000000" y1="72.000000" x2="98.800000" y2="72.000000"  style="stroke:black; stroke-linecap:round; stroke-width:0.25;"/>
<line x1="69.000000" y1="88.000000" x2="121.700000" y2="88.000000"  style="stroke:black; stroke-linecap:round; stroke-width:0.25;"/>
<line x1="98.800000" y1="72.000000" x2="106.800000" y2="72.000000"  style="stroke:black; stroke-linecap:round; stroke-width:0.25;"/>
<line x1="106.800000" y1="36.000000" x2="106.800000" y2="36.000000"  style="stroke:black; stroke-linecap:round; stroke-width:0.25;"/>
<line x1="106.800000" y1="36.000000" x2="106.800000" y2="64.000000"  style="stroke:black; stroke-linecap:round; stroke-width:0.25;"/>
<line x1="106.800000" y1="64.000000" x2="106.800000" y2="64.000000"  style="stroke:black; stroke-linecap:round; stroke-width:0.25;"/>
<line x1="106.800000" y1="64.000000" x2="125.700000" y2="64.000000"  style="stroke:black; stroke-linecap:round; stroke-width:0.25;"/>
<line x1="106.800000" y1="72.000000" x2="125.700000" y2="72.000000"  style="stroke:black; stroke-linecap:round; stroke-width:0.25;"/>
<line x1="110.800000" y1="36.000000" x2="106.800000" y2="36.000000"  style="stroke:black; stroke-linecap:round; stroke-width:0.25;"/>
<line x1="114.800000" y1="36.000000" x2="110.800000" y2="36.000000"  style="stroke:black; stroke-linecap:round; stroke-width:0.25;"/>
<line x1="121.700000" y1="88.000000" x2="174.400000" y2="88.000000"  style="stroke:black; stroke-linecap:round; stroke-width:0.25;"/>
<line x1="124.800000" y1="32.000000" x2="114.800000" y2="36.000000"  style="stroke:black; stroke-linecap:round; stroke-width:0.25;"/>
<line x1="124.800000" y1="40.000000" x2="114.800000" y2="36.000000"  style="stroke:black; stroke-linecap:round; stroke-width:0.25;"/>
<line x1="125.700000" y1="64.000000" x2="125.700000" y2="64.000000"  style="stroke:black; stroke-linecap:round; stroke-width:0.25;"/>
<line x1="125.700000" y1="64.000000" x2="129.700000" y2="64.000000"  style="stroke:black; stroke-linecap:round; stroke-width:0.25;"/>
<line x1="125.700000" y1="72.000000" x2="125.700000" y2="72.000000"  style="stroke:black; stroke-linecap:round; stroke-width:0.25;"/>
<line x1="125.700000" y1="72.000000" x2="129.700000" y2="72.000000"  style="stroke:black; stroke-linecap:round; stroke-width:0.25;"/>
<line x1="128.800000" y1="32.000000" x2="124.800000" y2="32.000000"  style="stroke:black; stroke-linecap:round; stroke-width:0.25;"/>
<line x1="128.800000" y1="40.000000" x2="124.800000" y2="40.000000"  style="stroke:black; stroke-linecap:round; stroke-width:0.25;"/>
<line x1="153.700000" y1="68.000000" x2="157.700000" y2="68.000000"  style="stroke:black; stroke-linecap:round; stroke-width:0.25;"/>
<line x1="157.700000" y1="68.000000" x2="176.600000" y2="68.000000"  style="stroke:black; stroke-linecap:round; stroke-width:0.25;"/>
<line x1="158.600000" y1="36.000000" x2="154.600000" y2="36.000000"  style="stroke:black; stroke-linecap:round; stroke-width:0.25;"/>
<line x1="160.400000" y1="118.000000" x2="164.400000" y2="118.000000"  style="stroke:black; stroke-linecap:round; stroke-width:0.25;"/>
<line x1="164.400000" y1="118.000000" x2="174.400000" y2="118.000000"  style="stroke:black; stroke-linecap:round; stroke-width:0.25;"/>
<line x1="168.600000" y1="36.000000" x2="158.600000" y2="36.000000"  style="stroke:black; stroke-linecap:round; stroke-width:0.25;"/>
<line x1="172.600000" y1="36.000000" x2="168.600000" y2="36.000000"  style="stroke:black; stroke-linecap:round; stroke-width:0.25;"/>
<line x1="174.400000" y1="88.000000" x2="182.400000" y2="88.000000"  style="stroke:black; stroke-linecap:round; stroke-width:0.25;"/>
<line x1="174.400000" y1="118.000000" x2="182.400000" y2="118.000000"  style="stroke:black; stroke-linecap:round; stroke-width:0.25;"/>
<line x1="176.600000" y1="36.000000" x2="172.600000" y2="36.000000"  style="stroke:black; stroke-linecap:round; stroke-width:0.25;"/>
<line x1="176.600000" y1="36.000000" x2="176.600000" y2="36.000000"  style="stroke:black; stroke-linecap:round; stroke-width:0.25;"/>
<line x1="176.600000" y1="64.000000" x2="176.600000" y2="36.000000"  style="stroke:black; stroke-linecap:round; stroke-width:0.25;"/>
<line x1="176.600000" y1="68.000000" x2="178.600000" y2="68.000000"  style="stroke:black; stroke-linecap:round; stroke-width:0.25;"/>
<line x1="178.600000" y1="68.000000" x2="184.600000" y2="68.000000"  style="stroke:black; stroke-linecap:round; stroke-width:0.25;"/>
<line x1="182.400000" y1="88.000000" x2="182.400000" y2="110.000000"  style="stroke:black; stroke-linecap:round; stroke-width:0.25;"/>
<line x1="182.400000" y1="110.000000" x2="182.400000" y2="110.000000"  style="stroke:black; stroke-linecap:round; stroke-width:0.25;"/>
<line x1="182.400000" y1="110.000000" x2="186.400000" y2="110.000000"  style="stroke:black; stroke-linecap:round; stroke-width:0.25;"/>
<line x1="182.400000" y1="118.000000" x2="186.400000" y2="118.000000"  style="stroke:black; stroke-linecap:round; stroke-width:0.25;"/>
<line x1="184.600000" y1="68.000000" x2="214.400000" y2="68.000000"  style="stroke:black; stroke-linecap:round; stroke-width:0.25;"/>
<line x1="210.400000" y1="114.000000" x2="214.400000" y2="114.000000"  style="stroke:black; stroke-linecap:round; stroke-width:0.25;"/>
<line x1="214.400000" y1="62.000000" x2="230.400000" y2="62.000000"  style="stroke:black; stroke-linecap:round; stroke-width:0.25;"/>
<line x1="214.400000" y1="68.000000" x2="214.400000" y2="62.000000"  style="stroke:black; stroke-linecap:round; stroke-width:0.25;"/>
<line x1="214.400000" y1="68.000000" x2="214.400000" y2="68.000000"  style="stroke:black; stroke-linecap:round; stroke-width:0.25;"/>
<line x1="214.400000" y1="114.000000" x2="222.400000" y2="114.000000"  style="stroke:black; stroke-linecap:round; stroke-width:0.25;"/>
<line x1="222.400000" y1="102.000000" x2="230.400000" y2="102.000000"  style="stroke:black; stroke-linecap:round; stroke-width:0.25;"/>
<line x1="222.400000" y1="114.000000" x2="222.400000" y2="102.000000"  style="stroke:black; stroke-linecap:round; stroke-width:0.25;"/>
<line x1="230.400000" y1="62.000000" x2="253.750000" y2="62.000000"  style="stroke:black; stroke-linecap:round; stroke-width:0.25;"/>
<line x1="230.400000" y1="102.000000" x2="273.750000" y2="102.000000"  style="stroke:black; stroke-linecap:round; stroke-width:0.25;"/>
<line x1="253.750000" y1="62.000000" x2="277.100000" y2="62.000000"  style="stroke:black; stroke-linecap:round; stroke-width:0.25;"/>
<line x1="273.100000" y1="82.000000" x2="277.100000" y2="82.000000"  style="stroke:black; stroke-linecap:round; stroke-width:0.25;"/>
<line x1="273.750000" y1="102.000000" x2="317.100000" y2="102.000000"  style="stroke:black; stroke-linecap:round; stroke-width:0.25;"/>
<line x1="277.100000" y1="62.000000" x2="285.100000" y2="62.000000"  style="stroke:black; stroke-linecap:round; stroke-width:0.25;"/>
<line x1="277.100000" y1="82.000000" x2="285.100000" y2="82.000000"  style="stroke:black; stroke-linecap:round; stroke-width:0.25;"/>
<line x1="285.100000" y1="62.000000" x2="285.100000" y2="74.000000"  style="stroke:black; stroke-linecap:round; stroke-width:0.25;"/>
<line x1="285.100000" y1="74.000000" x2="285.100000" y2="74.000000"  style="stroke:black; stroke-linecap:round; stroke-width:0.25;"/>
<line x1="285.100000" y1="74.000000" x2="289.100000" y2="74.000000"  style="stroke:black; stroke-linecap:round; stroke-width:0.25;"/>
<line x1="285.100000" y1="82.000000" x2="289.100000" y2="82.000000"  style="stroke:black; stroke-linecap:round; stroke-width:0.25;"/>
<line x1="313.100000" y1="78.000000" x2="317.100000" y2="78.000000"  style="stroke:black; stroke-linecap:round; stroke-width:0.25;"/>
<line x1="317.100000" y1="78.000000" x2="325.100000" y2="78.000000"  style="stroke:black; stroke-linecap:round; stroke-width:0.25;"/>
<line x1="317.100000" y1="86.000000" x2="325.100000" y2="86.000000"  style="stroke:black; stroke-linecap:round; stroke-width:0.25;"/>
<line x1="317.100000" y1="102.000000" x2="317.100000" y2="86.000000"  style="stroke:black; stroke-linecap:round; stroke-width:0.25;"/>
<line x1="317.100000" y1="102.000000" x2="317.100000" y2="102.000000"  style="stroke:black; stroke-linecap:round; stroke-width:0.25;"/>
<line x1="325.100000" y1="78.000000" x2="329.100000" y2="78.000000"  style="stroke:black; stroke-linecap:round; stroke-width:0.25;"/>
<line x1="325.100000" y1="86.000000" x2="329.100000" y2="86.000000"  style="stroke:black; stroke-linecap:round; stroke-width:0.25;"/>
<line x1="353.100000" y1="82.000000" x2="357.100000" y2="82.000000"  style="stroke:black; stroke-linecap:round; stroke-width:0.25;"/>
<line x1="357.100000" y1="82.000000" x2="357.100000" y2="82.000000"  style="stroke:black; stroke-linecap:round; stroke-width:0.25;"/>
<line x1="357.100000" y1="82.000000" x2="361.100000" y2="82.000000"  style="stroke:black; stroke-linecap:round; stroke-width:0.25;"/>
<line x1="361.100000" y1="82.000000" x2="365.100000" y2="82.000000"  style="stroke:black; stroke-linecap:round; stroke-width:0.25;"/>
<line x1="365.100000" y1="82.000000" x2="375.100000" y2="82.000000"  style="stroke:black; stroke-linecap:round; stroke-width:0.25;"/>
</svg>
