<?xml version="1.0"?>
<svg xmlns="http://www.w3.org/2000/svg" xmlns:xlink="http://www.w3.org/1999/xlink" viewBox="0 0 416.000000 296.000000" width="208.000000mm" height="148.000000mm" version="1.1">
<rect x="1.000000" y="1.000000" width="415.000000" height="295.000000" rx="0" ry="0" style="stroke:none;fill:#cccccc;"/>
<rect x="0.000000" y="0.000000" width="415.000000" height="295.000000" rx="0" ry="0" style="stroke:none;fill:#ffffff;"/>
<text x="10.000000" y="7.000000" font-family="Arial" font-size="7"></text>
<rect x="33.000000" y="185.000000" width="24.000000" height="24.000000" rx="0" ry="0" style="stroke:none;fill:#cccccc;"/>
<rect x="32.000000" y="184.000000" width="24.000000" height="24.000000" rx="0" ry="0" style="stroke:none;fill:#f44800;"/>
<text x="44.000000" y="198.000000" font-family="Arial" font-size="7" text-anchor="middle" fill="#FFFFFF">1</text>
<circle cx="34.000000" cy="186.000000" r="1"/>
<rect x="33.000000" y="217.000000" width="24.000000" height="24.000000" rx="0" ry="0" style="stroke:none;fill:#cccccc;"/>
<rect x="32.000000" y="216.000000" width="24.000000" height="24.000000" rx="0" ry="0" style="stroke:none;fill:#f44800;"/>
<text x="44.000000" y="230.000000" font-family="Arial" font-size="7" text-anchor="middle" fill="#FFFFFF">0</text>
<circle cx="34.000000" cy="218.000000" r="1"/>
<rect x="73.000000" y="201.000000" width="24.000000" height="24.000000" rx="0" ry="0" style="stroke:none;fill:#cccccc;"/>
<rect x="72.000000" y="200.000000" width="24.000000" height="24.000000" rx="0" ry="0" style="stroke:none;fill:#4B71A1;"/>
<text x="84.000000" y="214.000000" font-family="Arial" font-size="7" text-anchor="middle" fill="#FFFFFF">-</text>
<circle cx="74.000000" cy="202.000000" r="1"/>
<line x1="69.000000" y1="207.000000" x2="72.000000" y2="208.000000"  transform="rotate(0.000000,72.000000,208.000000)" style="stroke: black; stroke-width:0.25;"/>
<line x1="69.000000" y1="209.000000" x2="72.000000" y2="208.000000"  transform="rotate(0.000000,72.000000,208.000000)" style="stroke: black; stroke-width:0.25;"/>
<line x1="69.000000" y1="215.000000" x2="72.000000" y2="216.000000"  transform="rotate(0.000000,72.000000,216.000000)" style="stroke: black; stroke-width:0.25;"/>
<line x1="69.000000" y1="217.000000" x2="72.000000" y2="216.000000"  transform="rotate(0.000000,72.000000,216.000000)" style="stroke: black; stroke-width:0.25;"/>
<rect x="53.000000" y="249.000000" width="24.000000" height="24.000000" rx="0" ry="0" style="stroke:none;fill:#cccccc;"/>
<rect x="52.000000" y="248.000000" width="24.000000" height="24.000000" rx="0" ry="0" style="stroke:none;fill:#f44800;"/>
<text x="64.000000" y="262.000000" font-family="Arial" font-size="7" text-anchor="middle" fill="#FFFFFF">100</text>
<circle cx="54.000000" cy="250.000000" r="1"/>
<rect x="113.000000" y="217.000000" width="24.000000" height="24.000000" rx="0" ry="0" style="stroke:none;fill:#cccccc;"/>
<rect x="112.000000" y="216.000000" width="24.000000" height="24.000000" rx="0" ry="0" style="stroke:none;fill:#4B71A1;"/>
<text x="124.000000" y="230.000000" font-family="Arial" font-size="7" text-anchor="middle" fill="#FFFFFF">/</text>
<circle cx="114.000000" cy="218.000000" r="1"/>
<line x1="109.000000" y1="223.000000" x2="112.000000" y2="224.000000"  transform="rotate(0.000000,112.000000,224.000000)" style="stroke: black; stroke-width:0.25;"/>
<line x1="109.000000" y1="225.000000" x2="112.000000" y2="224.000000"  transform="rotate(0.000000,112.000000,224.000000)" style="stroke: black; stroke-width:0.25;"/>
<line x1="109.000000" y1="231.000000" x2="112.000000" y2="232.000000"  transform="rotate(0.000000,112.000000,232.000000)" style="stroke: black; stroke-width:0.25;"/>
<line x1="109.000000" y1="233.000000" x2="112.000000" y2="232.000000"  transform="rotate(0.000000,112.000000,232.000000)" style="stroke: black; stroke-width:0.25;"/>
<rect x="153.000000" y="213.000000" width="24.000000" height="24.000000" rx="0" ry="0" style="stroke:none;fill:#cccccc;"/>
<rect x="152.000000" y="212.000000" width="24.000000" height="24.000000" rx="0" ry="0" style="stroke:none;fill:#f44800;"/>
<text x="164.000000" y="226.000000" font-family="Arial" font-size="7" text-anchor="middle" fill="#FFFFFF">1</text>
<circle cx="154.000000" cy="214.000000" r="1"/>
<rect x="193.000000" y="217.000000" width="24.000000" height="24.000000" rx="0" ry="0" style="stroke:none;fill:#cccccc;"/>
<rect x="192.000000" y="216.000000" width="24.000000" height="24.000000" rx="0" ry="0" style="stroke:none;fill:#4B71A1;"/>
<text x="204.000000" y="230.000000" font-family="Arial" font-size="7" text-anchor="middle" fill="#FFFFFF">max</text>
<circle cx="194.000000" cy="218.000000" r="1"/>
<line x1="189.000000" y1="223.000000" x2="192.000000" y2="224.000000"  transform="rotate(0.000000,192.000000,224.000000)" style="stroke: black; stroke-width:0.25;"/>
<line x1="189.000000" y1="225.000000" x2="192.000000" y2="224.000000"  transform="rotate(0.000000,192.000000,224.000000)" style="stroke: black; stroke-width:0.25;"/>
<line x1="189.000000" y1="231.000000" x2="192.000000" y2="232.000000"  transform="rotate(0.000000,192.000000,232.000000)" style="stroke: black; stroke-width:0.25;"/>
<line x1="189.000000" y1="233.000000" x2="192.000000" y2="232.000000"  transform="rotate(0.000000,192.000000,232.000000)" style="stroke: black; stroke-width:0.25;"/>
<a xlink:href="SR-0x32913b0.svg">
<rect x="233.000000" y="197.000000" width="24.000000" height="24.000000" rx="0" ry="0" style="stroke:none;fill:#cccccc;"/>
<rect x="232.000000" y="196.000000" width="24.000000" height="24.000000" rx="0" ry="0" style="stroke:none;fill:#003366;"/>
</a>
<a xlink:href="SR-0x32913b0.svg">
<text x="244.000000" y="210.000000" font-family="Arial" font-size="7" text-anchor="middle" fill="#FFFFFF">SR</text>
</a>
<circle cx="234.000000" cy="198.000000" r="1"/>
<rect x="233.000000" y="229.000000" width="24.000000" height="24.000000" rx="0" ry="0" style="stroke:none;fill:#cccccc;"/>
<rect x="232.000000" y="228.000000" width="24.000000" height="24.000000" rx="0" ry="0" style="stroke:none;fill:#f44800;"/>
<text x="244.000000" y="242.000000" font-family="Arial" font-size="7" text-anchor="middle" fill="#FFFFFF">20</text>
<circle cx="234.000000" cy="230.000000" r="1"/>
<rect x="273.000000" y="213.000000" width="24.000000" height="24.000000" rx="0" ry="0" style="stroke:none;fill:#cccccc;"/>
<rect x="272.000000" y="212.000000" width="24.000000" height="24.000000" rx="0" ry="0" style="stroke:none;fill:#4B71A1;"/>
<text x="284.000000" y="226.000000" font-family="Arial" font-size="7" text-anchor="middle" fill="#FFFFFF">/</text>
<circle cx="274.000000" cy="214.000000" r="1"/>
<line x1="269.000000" y1="219.000000" x2="272.000000" y2="220.000000"  transform="rotate(0.000000,272.000000,220.000000)" style="stroke: black; stroke-width:0.25;"/>
<line x1="269.000000" y1="221.000000" x2="272.000000" y2="220.000000"  transform="rotate(0.000000,272.000000,220.000000)" style="stroke: black; stroke-width:0.25;"/>
<line x1="269.000000" y1="227.000000" x2="272.000000" y2="228.000000"  transform="rotate(0.000000,272.000000,228.000000)" style="stroke: black; stroke-width:0.25;"/>
<line x1="269.000000" y1="229.000000" x2="272.000000" y2="228.000000"  transform="rotate(0.000000,272.000000,228.000000)" style="stroke: black; stroke-width:0.25;"/>
<rect x="313.000000" y="217.000000" width="24.000000" height="24.000000" rx="0" ry="0" style="stroke:none;fill:#cccccc;"/>
<rect x="312.000000" y="216.000000" width="24.000000" height="24.000000" rx="0" ry="0" style="stroke:none;fill:#4B71A1;"/>
<text x="324.000000" y="230.000000" font-family="Arial" font-size="7" text-anchor="middle" fill="#FFFFFF">min</text>
<circle cx="314.000000" cy="218.000000" r="1"/>
<line x1="309.000000" y1="223.000000" x2="312.000000" y2="224.000000"  transform="rotate(0.000000,312.000000,224.000000)" style="stroke: black; stroke-width:0.25;"/>
<line x1="309.000000" y1="225.000000" x2="312.000000" y2="224.000000"  transform="rotate(0.000000,312.000000,224.000000)" style="stroke: black; stroke-width:0.25;"/>
<line x1="309.000000" y1="231.000000" x2="312.000000" y2="232.000000"  transform="rotate(0.000000,312.000000,232.000000)" style="stroke: black; stroke-width:0.25;"/>
<line x1="309.000000" y1="233.000000" x2="312.000000" y2="232.000000"  transform="rotate(0.000000,312.000000,232.000000)" style="stroke: black; stroke-width:0.25;"/>
<rect x="353.000000" y="213.000000" width="24.000000" height="24.000000" rx="0" ry="0" style="stroke:none;fill:#cccccc;"/>
<rect x="352.000000" y="212.000000" width="24.000000" height="24.000000" rx="0" ry="0" style="stroke:none;fill:#4B71A1;"/>
<text x="364.000000" y="226.000000" font-family="Arial" font-size="7" text-anchor="middle" fill="#FFFFFF">+</text>
<circle cx="354.000000" cy="214.000000" r="1"/>
<line x1="349.000000" y1="219.000000" x2="352.000000" y2="220.000000"  transform="rotate(0.000000,352.000000,220.000000)" style="stroke: black; stroke-width:0.25;"/>
<line x1="349.000000" y1="221.000000" x2="352.000000" y2="220.000000"  transform="rotate(0.000000,352.000000,220.000000)" style="stroke: black; stroke-width:0.25;"/>
<line x1="349.000000" y1="227.000000" x2="352.000000" y2="228.000000"  transform="rotate(0.000000,352.000000,228.000000)" style="stroke: black; stroke-width:0.25;"/>
<line x1="349.000000" y1="229.000000" x2="352.000000" y2="228.000000"  transform="rotate(0.000000,352.000000,228.000000)" style="stroke: black; stroke-width:0.25;"/>
<rect x="233.000000" y="145.000000" width="24.000000" height="24.000000" rx="0" ry="0" style="stroke:none;fill:#cccccc;"/>
<rect x="232.000000" y="144.000000" width="24.000000" height="24.000000" rx="0" ry="0" style="stroke:none;fill:#f44800;"/>
<text x="244.000000" y="158.000000" font-family="Arial" font-size="7" text-anchor="middle" fill="#FFFFFF">0</text>
<circle cx="254.000000" cy="166.000000" r="1"/>
<rect x="253.000000" y="105.000000" width="24.000000" height="24.000000" rx="0" ry="0" style="stroke:none;fill:#cccccc;"/>
<rect x="252.000000" y="104.000000" width="24.000000" height="24.000000" rx="0" ry="0" style="stroke:none;fill:#f44800;"/>
<text x="264.000000" y="118.000000" font-family="Arial" font-size="7" text-anchor="middle" fill="#FFFFFF">1</text>
<circle cx="274.000000" cy="126.000000" r="1"/>
<rect x="213.000000" y="109.000000" width="24.000000" height="24.000000" rx="0" ry="0" style="stroke:none;fill:#cccccc;"/>
<rect x="212.000000" y="108.000000" width="24.000000" height="24.000000" rx="0" ry="0" style="stroke:none;fill:#4B71A1;"/>
<text x="224.000000" y="122.000000" font-family="Arial" font-size="7" text-anchor="middle" fill="#FFFFFF">==</text>
<circle cx="234.000000" cy="130.000000" r="1"/>
<line x1="239.000000" y1="123.000000" x2="236.000000" y2="124.000000"  transform="rotate(0.000000,236.000000,124.000000)" style="stroke: black; stroke-width:0.25;"/>
<line x1="239.000000" y1="125.000000" x2="236.000000" y2="124.000000"  transform="rotate(0.000000,236.000000,124.000000)" style="stroke: black; stroke-width:0.25;"/>
<line x1="239.000000" y1="115.000000" x2="236.000000" y2="116.000000"  transform="rotate(0.000000,236.000000,116.000000)" style="stroke: black; stroke-width:0.25;"/>
<line x1="239.000000" y1="117.000000" x2="236.000000" y2="116.000000"  transform="rotate(0.000000,236.000000,116.000000)" style="stroke: black; stroke-width:0.25;"/>
<rect x="173.000000" y="125.000000" width="24.000000" height="24.000000" rx="0" ry="0" style="stroke:none;fill:#cccccc;"/>
<rect x="172.000000" y="124.000000" width="24.000000" height="24.000000" rx="0" ry="0" style="stroke:none;fill:#4B71A1;"/>
<text x="184.000000" y="138.000000" font-family="Arial" font-size="7" text-anchor="middle" fill="#FFFFFF">*</text>
<circle cx="194.000000" cy="146.000000" r="1"/>
<line x1="199.000000" y1="139.000000" x2="196.000000" y2="140.000000"  transform="rotate(0.000000,196.000000,140.000000)" style="stroke: black; stroke-width:0.25;"/>
<line x1="199.000000" y1="141.000000" x2="196.000000" y2="140.000000"  transform="rotate(0.000000,196.000000,140.000000)" style="stroke: black; stroke-width:0.25;"/>
<line x1="199.000000" y1="131.000000" x2="196.000000" y2="132.000000"  transform="rotate(0.000000,196.000000,132.000000)" style="stroke: black; stroke-width:0.25;"/>
<line x1="199.000000" y1="133.000000" x2="196.000000" y2="132.000000"  transform="rotate(0.000000,196.000000,132.000000)" style="stroke: black; stroke-width:0.25;"/>
<rect x="253.000000" y="57.000000" width="24.000000" height="24.000000" rx="0" ry="0" style="stroke:none;fill:#cccccc;"/>
<rect x="252.000000" y="56.000000" width="24.000000" height="24.000000" rx="0" ry="0" style="stroke:none;fill:#f44800;"/>
<text x="264.000000" y="70.000000" font-family="Arial" font-size="7" text-anchor="middle" fill="#FFFFFF">1</text>
<circle cx="274.000000" cy="78.000000" r="1"/>
<rect x="213.000000" y="61.000000" width="24.000000" height="24.000000" rx="0" ry="0" style="stroke:none;fill:#cccccc;"/>
<rect x="212.000000" y="60.000000" width="24.000000" height="24.000000" rx="0" ry="0" style="stroke:none;fill:#4B71A1;"/>
<text x="224.000000" y="74.000000" font-family="Arial" font-size="7" text-anchor="middle" fill="#FFFFFF">!=</text>
<circle cx="234.000000" cy="82.000000" r="1"/>
<line x1="239.000000" y1="75.000000" x2="236.000000" y2="76.000000"  transform="rotate(0.000000,236.000000,76.000000)" style="stroke: black; stroke-width:0.25;"/>
<line x1="239.000000" y1="77.000000" x2="236.000000" y2="76.000000"  transform="rotate(0.000000,236.000000,76.000000)" style="stroke: black; stroke-width:0.25;"/>
<line x1="239.000000" y1="67.000000" x2="236.000000" y2="68.000000"  transform="rotate(0.000000,236.000000,68.000000)" style="stroke: black; stroke-width:0.25;"/>
<line x1="239.000000" y1="69.000000" x2="236.000000" y2="68.000000"  transform="rotate(0.000000,236.000000,68.000000)" style="stroke: black; stroke-width:0.25;"/>
<rect x="173.000000" y="65.000000" width="24.000000" height="24.000000" rx="0" ry="0" style="stroke:none;fill:#cccccc;"/>
<rect x="172.000000" y="64.000000" width="24.000000" height="24.000000" rx="0" ry="0" style="stroke:none;fill:#4B71A1;"/>
<text x="184.000000" y="78.000000" font-family="Arial" font-size="7" text-anchor="middle" fill="#FFFFFF">*</text>
<circle cx="194.000000" cy="86.000000" r="1"/>
<line x1="199.000000" y1="79.000000" x2="196.000000" y2="80.000000"  transform="rotate(0.000000,196.000000,80.000000)" style="stroke: black; stroke-width:0.25;"/>
<line x1="199.000000" y1="81.000000" x2="196.000000" y2="80.000000"  transform="rotate(0.000000,196.000000,80.000000)" style="stroke: black; stroke-width:0.25;"/>
<line x1="199.000000" y1="71.000000" x2="196.000000" y2="72.000000"  transform="rotate(0.000000,196.000000,72.000000)" style="stroke: black; stroke-width:0.25;"/>
<line x1="199.000000" y1="73.000000" x2="196.000000" y2="72.000000"  transform="rotate(0.000000,196.000000,72.000000)" style="stroke: black; stroke-width:0.25;"/>
<rect x="133.000000" y="101.000000" width="24.000000" height="24.000000" rx="0" ry="0" style="stroke:none;fill:#cccccc;"/>
<rect x="132.000000" y="100.000000" width="24.000000" height="24.000000" rx="0" ry="0" style="stroke:none;fill:#4B71A1;"/>
<text x="144.000000" y="114.000000" font-family="Arial" font-size="7" text-anchor="middle" fill="#FFFFFF">+</text>
<circle cx="154.000000" cy="122.000000" r="1"/>
<line x1="159.000000" y1="115.000000" x2="156.000000" y2="116.000000"  transform="rotate(0.000000,156.000000,116.000000)" style="stroke: black; stroke-width:0.25;"/>
<line x1="159.000000" y1="117.000000" x2="156.000000" y2="116.000000"  transform="rotate(0.000000,156.000000,116.000000)" style="stroke: black; stroke-width:0.25;"/>
<line x1="159.000000" y1="107.000000" x2="156.000000" y2="108.000000"  transform="rotate(0.000000,156.000000,108.000000)" style="stroke: black; stroke-width:0.25;"/>
<line x1="159.000000" y1="109.000000" x2="156.000000" y2="108.000000"  transform="rotate(0.000000,156.000000,108.000000)" style="stroke: black; stroke-width:0.25;"/>
<rect x="213.000000" y="25.000000" width="24.000000" height="24.000000" rx="0" ry="0" style="stroke:none;fill:#cccccc;"/>
<rect x="212.000000" y="24.000000" width="24.000000" height="24.000000" rx="0" ry="0" style="stroke:none;fill:#f44800;"/>
<text x="224.000000" y="38.000000" font-family="Arial" font-size="7" text-anchor="middle" fill="#FFFFFF">1</text>
<circle cx="234.000000" cy="46.000000" r="1"/>
<rect x="93.000000" y="85.000000" width="24.000000" height="24.000000" rx="0" ry="0" style="stroke:none;fill:#cccccc;"/>
<rect x="92.000000" y="84.000000" width="24.000000" height="24.000000" rx="0" ry="0" style="stroke:none;fill:#4B71A1;"/>
<text x="104.000000" y="98.000000" font-family="Arial" font-size="7" text-anchor="middle" fill="#FFFFFF">@</text>
<circle cx="114.000000" cy="106.000000" r="1"/>
<line x1="119.000000" y1="99.000000" x2="116.000000" y2="100.000000"  transform="rotate(0.000000,116.000000,100.000000)" style="stroke: black; stroke-width:0.25;"/>
<line x1="119.000000" y1="101.000000" x2="116.000000" y2="100.000000"  transform="rotate(0.000000,116.000000,100.000000)" style="stroke: black; stroke-width:0.25;"/>
<line x1="119.000000" y1="91.000000" x2="116.000000" y2="92.000000"  transform="rotate(0.000000,116.000000,92.000000)" style="stroke: black; stroke-width:0.25;"/>
<line x1="119.000000" y1="93.000000" x2="116.000000" y2="92.000000"  transform="rotate(0.000000,116.000000,92.000000)" style="stroke: black; stroke-width:0.25;"/>
<line x1="378.000000" y1="224.000000" x2="378.000000" y2="220.000000"  style="stroke:black; stroke-linecap:round; stroke-width:0.25;"/>
<line x1="378.000000" y1="220.000000" x2="382.000000" y2="220.000000"  style="stroke:black; stroke-linecap:round; stroke-width:0.25;"/>
<line x1="382.000000" y1="220.000000" x2="382.000000" y2="224.000000"  style="stroke:black; stroke-linecap:round; stroke-width:0.25;"/>
<line x1="15.000000" y1="15.000000" x2="15.000000" y2="281.000000"  style="stroke: black; stroke-linecap:round; stroke-width:0.25; stroke-dasharray:3,3;"/>
<line x1="15.000000" y1="281.000000" x2="401.000000" y2="281.000000"  style="stroke: black; stroke-linecap:round; stroke-width:0.25; stroke-dasharray:3,3;"/>
<line x1="401.000000" y1="281.000000" x2="401.000000" y2="15.000000"  style="stroke: black; stroke-linecap:round; stroke-width:0.25; stroke-dasharray:3,3;"/>
<line x1="15.000000" y1="15.000000" x2="20.000000" y2="15.000000"  style="stroke: black; stroke-linecap:round; stroke-width:0.25; stroke-dasharray:3,3;"/>
<line x1="49.025000" y1="15.000000" x2="401.000000" y2="15.000000"  style="stroke: black; stroke-linecap:round; stroke-width:0.25; stroke-dasharray:3,3;"/>
<text x="20.000000" y="17.000000" font-family="Arial" font-size="7">process</text>
<line x1="403.000000" y1="147.000000" x2="406.000000" y2="148.000000"  transform="rotate(0.000000,406.000000,148.000000)" style="stroke: black; stroke-width:0.25;"/>
<line x1="403.000000" y1="149.000000" x2="406.000000" y2="148.000000"  transform="rotate(0.000000,406.000000,148.000000)" style="stroke: black; stroke-width:0.25;"/>
<line x1="28.000000" y1="96.000000" x2="28.000000" y2="96.000000"  style="stroke:black; stroke-linecap:round; stroke-width:0.25;"/>
<line x1="28.000000" y1="96.000000" x2="28.000000" y2="176.000000"  style="stroke:black; stroke-linecap:round; stroke-width:0.25;"/>
<line x1="28.000000" y1="176.000000" x2="28.000000" y2="176.000000"  style="stroke:black; stroke-linecap:round; stroke-width:0.25;"/>
<line x1="28.000000" y1="176.000000" x2="184.000000" y2="176.000000"  style="stroke:black; stroke-linecap:round; stroke-width:0.25;"/>
<line x1="56.000000" y1="196.000000" x2="60.000000" y2="196.000000"  style="stroke:black; stroke-linecap:round; stroke-width:0.25;"/>
<line x1="56.000000" y1="228.000000" x2="60.000000" y2="228.000000"  style="stroke:black; stroke-linecap:round; stroke-width:0.25;"/>
<line x1="60.000000" y1="196.000000" x2="68.000000" y2="196.000000"  style="stroke:black; stroke-linecap:round; stroke-width:0.25;"/>
<line x1="60.000000" y1="216.000000" x2="68.000000" y2="216.000000"  style="stroke:black; stroke-linecap:round; stroke-width:0.25;"/>
<line x1="60.000000" y1="228.000000" x2="60.000000" y2="216.000000"  style="stroke:black; stroke-linecap:round; stroke-width:0.25;"/>
<line x1="60.000000" y1="228.000000" x2="60.000000" y2="228.000000"  style="stroke:black; stroke-linecap:round; stroke-width:0.25;"/>
<line x1="68.000000" y1="196.000000" x2="68.000000" y2="208.000000"  style="stroke:black; stroke-linecap:round; stroke-width:0.25;"/>
<line x1="68.000000" y1="208.000000" x2="68.000000" y2="208.000000"  style="stroke:black; stroke-linecap:round; stroke-width:0.25;"/>
<line x1="68.000000" y1="208.000000" x2="72.000000" y2="208.000000"  style="stroke:black; stroke-linecap:round; stroke-width:0.25;"/>
<line x1="68.000000" y1="216.000000" x2="72.000000" y2="216.000000"  style="stroke:black; stroke-linecap:round; stroke-width:0.25;"/>
<line x1="76.000000" y1="260.000000" x2="80.000000" y2="260.000000"  style="stroke:black; stroke-linecap:round; stroke-width:0.25;"/>
<line x1="80.000000" y1="260.000000" x2="100.000000" y2="260.000000"  style="stroke:black; stroke-linecap:round; stroke-width:0.25;"/>
<line x1="88.000000" y1="96.000000" x2="28.000000" y2="96.000000"  style="stroke:black; stroke-linecap:round; stroke-width:0.25;"/>
<line x1="92.000000" y1="96.000000" x2="88.000000" y2="96.000000"  style="stroke:black; stroke-linecap:round; stroke-width:0.25;"/>
<line x1="96.000000" y1="212.000000" x2="100.000000" y2="212.000000"  style="stroke:black; stroke-linecap:round; stroke-width:0.25;"/>
<line x1="100.000000" y1="212.000000" x2="108.000000" y2="212.000000"  style="stroke:black; stroke-linecap:round; stroke-width:0.25;"/>
<line x1="100.000000" y1="232.000000" x2="108.000000" y2="232.000000"  style="stroke:black; stroke-linecap:round; stroke-width:0.25;"/>
<line x1="100.000000" y1="260.000000" x2="100.000000" y2="232.000000"  style="stroke:black; stroke-linecap:round; stroke-width:0.25;"/>
<line x1="100.000000" y1="260.000000" x2="100.000000" y2="260.000000"  style="stroke:black; stroke-linecap:round; stroke-width:0.25;"/>
<line x1="108.000000" y1="212.000000" x2="108.000000" y2="224.000000"  style="stroke:black; stroke-linecap:round; stroke-width:0.25;"/>
<line x1="108.000000" y1="224.000000" x2="108.000000" y2="224.000000"  style="stroke:black; stroke-linecap:round; stroke-width:0.25;"/>
<line x1="108.000000" y1="224.000000" x2="112.000000" y2="224.000000"  style="stroke:black; stroke-linecap:round; stroke-width:0.25;"/>
<line x1="108.000000" y1="232.000000" x2="112.000000" y2="232.000000"  style="stroke:black; stroke-linecap:round; stroke-width:0.25;"/>
<line x1="120.000000" y1="92.000000" x2="116.000000" y2="92.000000"  style="stroke:black; stroke-linecap:round; stroke-width:0.25;"/>
<line x1="120.000000" y1="100.000000" x2="116.000000" y2="100.000000"  style="stroke:black; stroke-linecap:round; stroke-width:0.25;"/>
<line x1="120.000000" y1="100.000000" x2="120.000000" y2="100.000000"  style="stroke:black; stroke-linecap:round; stroke-width:0.25;"/>
<line x1="120.000000" y1="112.000000" x2="120.000000" y2="100.000000"  style="stroke:black; stroke-linecap:round; stroke-width:0.25;"/>
<line x1="128.000000" y1="36.000000" x2="128.000000" y2="36.000000"  style="stroke:black; stroke-linecap:round; stroke-width:0.25;"/>
<line x1="128.000000" y1="36.000000" x2="128.000000" y2="92.000000"  style="stroke:black; stroke-linecap:round; stroke-width:0.25;"/>
<line x1="128.000000" y1="92.000000" x2="120.000000" y2="92.000000"  style="stroke:black; stroke-linecap:round; stroke-width:0.25;"/>
<line x1="128.000000" y1="112.000000" x2="120.000000" y2="112.000000"  style="stroke:black; stroke-linecap:round; stroke-width:0.25;"/>
<line x1="132.000000" y1="112.000000" x2="128.000000" y2="112.000000"  style="stroke:black; stroke-linecap:round; stroke-width:0.25;"/>
<line x1="136.000000" y1="228.000000" x2="140.000000" y2="228.000000"  style="stroke:black; stroke-linecap:round; stroke-width:0.25;"/>
<line x1="140.000000" y1="228.000000" x2="148.000000" y2="228.000000"  style="stroke:black; stroke-linecap:round; stroke-width:0.25;"/>
<line x1="148.000000" y1="228.000000" x2="148.000000" y2="244.000000"  style="stroke:black; stroke-linecap:round; stroke-width:0.25;"/>
<line x1="148.000000" y1="244.000000" x2="148.000000" y2="244.000000"  style="stroke:black; stroke-linecap:round; stroke-width:0.25;"/>
<line x1="148.000000" y1="244.000000" x2="164.000000" y2="244.000000"  style="stroke:black; stroke-linecap:round; stroke-width:0.25;"/>
<line x1="160.000000" y1="108.000000" x2="156.000000" y2="108.000000"  style="stroke:black; stroke-linecap:round; stroke-width:0.25;"/>
<line x1="160.000000" y1="108.000000" x2="160.000000" y2="108.000000"  style="stroke:black; stroke-linecap:round; stroke-width:0.25;"/>
<line x1="160.000000" y1="116.000000" x2="156.000000" y2="116.000000"  style="stroke:black; stroke-linecap:round; stroke-width:0.25;"/>
<line x1="160.000000" y1="116.000000" x2="160.000000" y2="116.000000"  style="stroke:black; stroke-linecap:round; stroke-width:0.25;"/>
<line x1="160.000000" y1="136.000000" x2="160.000000" y2="116.000000"  style="stroke:black; stroke-linecap:round; stroke-width:0.25;"/>
<line x1="164.000000" y1="244.000000" x2="180.000000" y2="244.000000"  style="stroke:black; stroke-linecap:round; stroke-width:0.25;"/>
<line x1="168.000000" y1="76.000000" x2="168.000000" y2="76.000000"  style="stroke:black; stroke-linecap:round; stroke-width:0.25;"/>
<line x1="168.000000" y1="76.000000" x2="168.000000" y2="108.000000"  style="stroke:black; stroke-linecap:round; stroke-width:0.25;"/>
<line x1="168.000000" y1="108.000000" x2="160.000000" y2="108.000000"  style="stroke:black; stroke-linecap:round; stroke-width:0.25;"/>
<line x1="168.000000" y1="136.000000" x2="160.000000" y2="136.000000"  style="stroke:black; stroke-linecap:round; stroke-width:0.25;"/>
<line x1="172.000000" y1="76.000000" x2="168.000000" y2="76.000000"  style="stroke:black; stroke-linecap:round; stroke-width:0.25;"/>
<line x1="172.000000" y1="136.000000" x2="168.000000" y2="136.000000"  style="stroke:black; stroke-linecap:round; stroke-width:0.25;"/>
<line x1="176.000000" y1="224.000000" x2="180.000000" y2="224.000000"  style="stroke:black; stroke-linecap:round; stroke-width:0.25;"/>
<line x1="180.000000" y1="224.000000" x2="188.000000" y2="224.000000"  style="stroke:black; stroke-linecap:round; stroke-width:0.25;"/>
<line x1="180.000000" y1="232.000000" x2="188.000000" y2="232.000000"  style="stroke:black; stroke-linecap:round; stroke-width:0.25;"/>
<line x1="180.000000" y1="244.000000" x2="180.000000" y2="232.000000"  style="stroke:black; stroke-linecap:round; stroke-width:0.25;"/>
<line x1="180.000000" y1="244.000000" x2="180.000000" y2="244.000000"  style="stroke:black; stroke-linecap:round; stroke-width:0.25;"/>
<line x1="184.000000" y1="176.000000" x2="340.000000" y2="176.000000"  style="stroke:black; stroke-linecap:round; stroke-width:0.25;"/>
<line x1="188.000000" y1="224.000000" x2="192.000000" y2="224.000000"  style="stroke:black; stroke-linecap:round; stroke-width:0.25;"/>
<line x1="188.000000" y1="232.000000" x2="192.000000" y2="232.000000"  style="stroke:black; stroke-linecap:round; stroke-width:0.25;"/>
<line x1="200.000000" y1="72.000000" x2="196.000000" y2="72.000000"  style="stroke:black; stroke-linecap:round; stroke-width:0.25;"/>
<line x1="200.000000" y1="80.000000" x2="196.000000" y2="80.000000"  style="stroke:black; stroke-linecap:round; stroke-width:0.25;"/>
<line x1="200.000000" y1="80.000000" x2="200.000000" y2="80.000000"  style="stroke:black; stroke-linecap:round; stroke-width:0.25;"/>
<line x1="200.000000" y1="96.000000" x2="200.000000" y2="80.000000"  style="stroke:black; stroke-linecap:round; stroke-width:0.25;"/>
<line x1="200.000000" y1="132.000000" x2="196.000000" y2="132.000000"  style="stroke:black; stroke-linecap:round; stroke-width:0.25;"/>
<line x1="200.000000" y1="140.000000" x2="196.000000" y2="140.000000"  style="stroke:black; stroke-linecap:round; stroke-width:0.25;"/>
<line x1="200.000000" y1="140.000000" x2="200.000000" y2="140.000000"  style="stroke:black; stroke-linecap:round; stroke-width:0.25;"/>
<line x1="200.000000" y1="156.000000" x2="200.000000" y2="140.000000"  style="stroke:black; stroke-linecap:round; stroke-width:0.25;"/>
<line x1="208.000000" y1="36.000000" x2="128.000000" y2="36.000000"  style="stroke:black; stroke-linecap:round; stroke-width:0.25;"/>
<line x1="208.000000" y1="72.000000" x2="200.000000" y2="72.000000"  style="stroke:black; stroke-linecap:round; stroke-width:0.25;"/>
<line x1="208.000000" y1="96.000000" x2="200.000000" y2="96.000000"  style="stroke:black; stroke-linecap:round; stroke-width:0.25;"/>
<line x1="208.000000" y1="120.000000" x2="208.000000" y2="120.000000"  style="stroke:black; stroke-linecap:round; stroke-width:0.25;"/>
<line x1="208.000000" y1="120.000000" x2="208.000000" y2="132.000000"  style="stroke:black; stroke-linecap:round; stroke-width:0.25;"/>
<line x1="208.000000" y1="132.000000" x2="200.000000" y2="132.000000"  style="stroke:black; stroke-linecap:round; stroke-width:0.25;"/>
<line x1="208.000000" y1="156.000000" x2="200.000000" y2="156.000000"  style="stroke:black; stroke-linecap:round; stroke-width:0.25;"/>
<line x1="212.000000" y1="36.000000" x2="208.000000" y2="36.000000"  style="stroke:black; stroke-linecap:round; stroke-width:0.25;"/>
<line x1="212.000000" y1="72.000000" x2="208.000000" y2="72.000000"  style="stroke:black; stroke-linecap:round; stroke-width:0.25;"/>
<line x1="212.000000" y1="120.000000" x2="208.000000" y2="120.000000"  style="stroke:black; stroke-linecap:round; stroke-width:0.25;"/>
<line x1="216.000000" y1="228.000000" x2="220.000000" y2="228.000000"  style="stroke:black; stroke-linecap:round; stroke-width:0.25;"/>
<line x1="220.000000" y1="228.000000" x2="228.000000" y2="228.000000"  style="stroke:black; stroke-linecap:round; stroke-width:0.25;"/>
<line x1="228.000000" y1="156.000000" x2="208.000000" y2="156.000000"  style="stroke:black; stroke-linecap:round; stroke-width:0.25;"/>
<line x1="228.000000" y1="228.000000" x2="228.000000" y2="260.000000"  style="stroke:black; stroke-linecap:round; stroke-width:0.25;"/>
<line x1="228.000000" y1="260.000000" x2="228.000000" y2="260.000000"  style="stroke:black; stroke-linecap:round; stroke-width:0.25;"/>
<line x1="228.000000" y1="260.000000" x2="264.000000" y2="260.000000"  style="stroke:black; stroke-linecap:round; stroke-width:0.25;"/>
<line x1="232.000000" y1="156.000000" x2="228.000000" y2="156.000000"  style="stroke:black; stroke-linecap:round; stroke-width:0.25;"/>
<line x1="240.000000" y1="68.000000" x2="236.000000" y2="68.000000"  style="stroke:black; stroke-linecap:round; stroke-width:0.25;"/>
<line x1="240.000000" y1="76.000000" x2="236.000000" y2="76.000000"  style="stroke:black; stroke-linecap:round; stroke-width:0.25;"/>
<line x1="240.000000" y1="76.000000" x2="240.000000" y2="76.000000"  style="stroke:black; stroke-linecap:round; stroke-width:0.25;"/>
<line x1="240.000000" y1="88.000000" x2="240.000000" y2="76.000000"  style="stroke:black; stroke-linecap:round; stroke-width:0.25;"/>
<line x1="240.000000" y1="116.000000" x2="236.000000" y2="116.000000"  style="stroke:black; stroke-linecap:round; stroke-width:0.25;"/>
<line x1="240.000000" y1="124.000000" x2="236.000000" y2="124.000000"  style="stroke:black; stroke-linecap:round; stroke-width:0.25;"/>
<line x1="240.000000" y1="124.000000" x2="240.000000" y2="124.000000"  style="stroke:black; stroke-linecap:round; stroke-width:0.25;"/>
<line x1="240.000000" y1="136.000000" x2="240.000000" y2="124.000000"  style="stroke:black; stroke-linecap:round; stroke-width:0.25;"/>
<line x1="244.000000" y1="96.000000" x2="208.000000" y2="96.000000"  style="stroke:black; stroke-linecap:round; stroke-width:0.25;"/>
<line x1="248.000000" y1="68.000000" x2="240.000000" y2="68.000000"  style="stroke:black; stroke-linecap:round; stroke-width:0.25;"/>
<line x1="248.000000" y1="88.000000" x2="240.000000" y2="88.000000"  style="stroke:black; stroke-linecap:round; stroke-width:0.25;"/>
<line x1="248.000000" y1="116.000000" x2="240.000000" y2="116.000000"  style="stroke:black; stroke-linecap:round; stroke-width:0.25;"/>
<line x1="248.000000" y1="136.000000" x2="240.000000" y2="136.000000"  style="stroke:black; stroke-linecap:round; stroke-width:0.25;"/>
<line x1="252.000000" y1="68.000000" x2="248.000000" y2="68.000000"  style="stroke:black; stroke-linecap:round; stroke-width:0.25;"/>
<line x1="252.000000" y1="116.000000" x2="248.000000" y2="116.000000"  style="stroke:black; stroke-linecap:round; stroke-width:0.25;"/>
<line x1="256.000000" y1="208.000000" x2="260.000000" y2="208.000000"  style="stroke:black; stroke-linecap:round; stroke-width:0.25;"/>
<line x1="256.000000" y1="240.000000" x2="260.000000" y2="240.000000"  style="stroke:black; stroke-linecap:round; stroke-width:0.25;"/>
<line x1="260.000000" y1="208.000000" x2="268.000000" y2="208.000000"  style="stroke:black; stroke-linecap:round; stroke-width:0.25;"/>
<line x1="260.000000" y1="228.000000" x2="268.000000" y2="228.000000"  style="stroke:black; stroke-linecap:round; stroke-width:0.25;"/>
<line x1="260.000000" y1="240.000000" x2="260.000000" y2="228.000000"  style="stroke:black; stroke-linecap:round; stroke-width:0.25;"/>
<line x1="260.000000" y1="240.000000" x2="260.000000" y2="240.000000"  style="stroke:black; stroke-linecap:round; stroke-width:0.25;"/>
<line x1="264.000000" y1="88.000000" x2="248.000000" y2="88.000000"  style="stroke:black; stroke-linecap:round; stroke-width:0.25;"/>
<line x1="264.000000" y1="136.000000" x2="248.000000" y2="136.000000"  style="stroke:black; stroke-linecap:round; stroke-width:0.25;"/>
<line x1="264.000000" y1="260.000000" x2="300.000000" y2="260.000000"  style="stroke:black; stroke-linecap:round; stroke-width:0.25;"/>
<line x1="268.000000" y1="208.000000" x2="268.000000" y2="220.000000"  style="stroke:black; stroke-linecap:round; stroke-width:0.25;"/>
<line x1="268.000000" y1="220.000000" x2="268.000000" y2="220.000000"  style="stroke:black; stroke-linecap:round; stroke-width:0.25;"/>
<line x1="268.000000" y1="220.000000" x2="272.000000" y2="220.000000"  style="stroke:black; stroke-linecap:round; stroke-width:0.25;"/>
<line x1="268.000000" y1="228.000000" x2="272.000000" y2="228.000000"  style="stroke:black; stroke-linecap:round; stroke-width:0.25;"/>
<line x1="280.000000" y1="88.000000" x2="264.000000" y2="88.000000"  style="stroke:black; stroke-linecap:round; stroke-width:0.25;"/>
<line x1="280.000000" y1="96.000000" x2="244.000000" y2="96.000000"  style="stroke:black; stroke-linecap:round; stroke-width:0.25;"/>
<line x1="280.000000" y1="136.000000" x2="264.000000" y2="136.000000"  style="stroke:black; stroke-linecap:round; stroke-width:0.25;"/>
<line x1="296.000000" y1="224.000000" x2="300.000000" y2="224.000000"  style="stroke:black; stroke-linecap:round; stroke-width:0.25;"/>
<line x1="300.000000" y1="224.000000" x2="308.000000" y2="224.000000"  style="stroke:black; stroke-linecap:round; stroke-width:0.25;"/>
<line x1="300.000000" y1="232.000000" x2="308.000000" y2="232.000000"  style="stroke:black; stroke-linecap:round; stroke-width:0.25;"/>
<line x1="300.000000" y1="260.000000" x2="300.000000" y2="232.000000"  style="stroke:black; stroke-linecap:round; stroke-width:0.25;"/>
<line x1="300.000000" y1="260.000000" x2="300.000000" y2="260.000000"  style="stroke:black; stroke-linecap:round; stroke-width:0.25;"/>
<line x1="308.000000" y1="224.000000" x2="312.000000" y2="224.000000"  style="stroke:black; stroke-linecap:round; stroke-width:0.25;"/>
<line x1="308.000000" y1="232.000000" x2="312.000000" y2="232.000000"  style="stroke:black; stroke-linecap:round; stroke-width:0.25;"/>
<line x1="312.000000" y1="112.000000" x2="280.000000" y2="88.000000"  style="stroke:black; stroke-linecap:round; stroke-width:0.25;"/>
<line x1="312.000000" y1="112.000000" x2="280.000000" y2="96.000000"  style="stroke:black; stroke-linecap:round; stroke-width:0.25;"/>
<line x1="312.000000" y1="112.000000" x2="280.000000" y2="136.000000"  style="stroke:black; stroke-linecap:round; stroke-width:0.25;"/>
<line x1="316.000000" y1="112.000000" x2="312.000000" y2="112.000000"  style="stroke:black; stroke-linecap:round; stroke-width:0.25;"/>
<line x1="320.000000" y1="112.000000" x2="316.000000" y2="112.000000"  style="stroke:black; stroke-linecap:round; stroke-width:0.25;"/>
<line x1="336.000000" y1="228.000000" x2="340.000000" y2="228.000000"  style="stroke:black; stroke-linecap:round; stroke-width:0.25;"/>
<line x1="340.000000" y1="176.000000" x2="348.000000" y2="176.000000"  style="stroke:black; stroke-linecap:round; stroke-width:0.25;"/>
<line x1="340.000000" y1="228.000000" x2="348.000000" y2="228.000000"  style="stroke:black; stroke-linecap:round; stroke-width:0.25;"/>
<line x1="348.000000" y1="176.000000" x2="348.000000" y2="220.000000"  style="stroke:black; stroke-linecap:round; stroke-width:0.25;"/>
<line x1="348.000000" y1="220.000000" x2="348.000000" y2="220.000000"  style="stroke:black; stroke-linecap:round; stroke-width:0.25;"/>
<line x1="348.000000" y1="220.000000" x2="352.000000" y2="220.000000"  style="stroke:black; stroke-linecap:round; stroke-width:0.25;"/>
<line x1="348.000000" y1="228.000000" x2="352.000000" y2="228.000000"  style="stroke:black; stroke-linecap:round; stroke-width:0.25;"/>
<line x1="376.000000" y1="224.000000" x2="380.000000" y2="224.000000"  style="stroke:black; stroke-linecap:round; stroke-width:0.25;"/>
<line x1="380.000000" y1="112.000000" x2="320.000000" y2="112.000000"  style="stroke:black; stroke-linecap:round; stroke-width:0.25;"/>
<line x1="380.000000" y1="112.000000" x2="380.000000" y2="112.000000"  style="stroke:black; stroke-linecap:round; stroke-width:0.25;"/>
<line x1="380.000000" y1="220.000000" x2="380.000000" y2="112.000000"  style="stroke:black; stroke-linecap:round; stroke-width:0.25;"/>
<line x1="380.000000" y1="224.000000" x2="382.000000" y2="224.000000"  style="stroke:black; stroke-linecap:round; stroke-width:0.25;"/>
<line x1="382.000000" y1="224.000000" x2="388.000000" y2="224.000000"  style="stroke:black; stroke-linecap:round; stroke-width:0.25;"/>
<line x1="388.000000" y1="148.000000" x2="396.000000" y2="148.000000"  style="stroke:black; stroke-linecap:round; stroke-width:0.25;"/>
<line x1="388.000000" y1="224.000000" x2="388.000000" y2="148.000000"  style="stroke:black; stroke-linecap:round; stroke-width:0.25;"/>
<line x1="388.000000" y1="224.000000" x2="388.000000" y2="224.000000"  style="stroke:black; stroke-linecap:round; stroke-width:0.25;"/>
<line x1="396.000000" y1="148.000000" x2="406.000000" y2="148.000000"  style="stroke:black; stroke-linecap:round; stroke-width:0.25;"/>
</svg>
