<?xml version="1.0"?>
<svg xmlns="http://www.w3.org/2000/svg" xmlns:xlink="http://www.w3.org/1999/xlink" viewBox="0 0 862.200000 104.000000" width="431.100000mm" height="52.000000mm" version="1.1">
<defs>
   <filter id="filter" filterRes="18" x="0" y="0">
     <feGaussianBlur in="SourceGraphic" stdDeviation="1.55" result="blur"/>
     <feOffset in="blur" dx="3" dy="3"/>
   </filter>
</defs>
<rect x="1.000000" y="1.000000" width="861.200000" height="103.000000" rx="0.1" ry="0.1" style="stroke:none;fill:#aaaaaa;;filter:url(#filter);"/>
<rect x="0.000000" y="0.000000" width="861.200000" height="103.000000" rx="0" ry="0" style="stroke:none;fill:#ffffff;"/>
<text x="10.000000" y="7.000000" font-family="Arial" font-size="7"></text>
<rect x="35.000000" y="45.000000" width="154.800000" height="24.000000" rx="0.1" ry="0.1" style="stroke:none;fill:#aaaaaa;;filter:url(#filter);"/>
<rect x="34.000000" y="44.000000" width="154.800000" height="24.000000" rx="0" ry="0" style="stroke:none;fill:#477881;"/>
<text x="111.400000" y="58.000000" font-family="Arial" font-size="7" text-anchor="middle" fill="#FFFFFF">hslider(Drive, 10000, 0, 10000, 0.1)</text>
<circle cx="36.000000" cy="46.000000" r="1"/>
<line x1="25.000000" y1="35.000000" x2="25.000000" y2="77.000000"  style="stroke: black; stroke-linecap:round; stroke-width:0.25; stroke-dasharray:3,3;"/>
<line x1="25.000000" y1="77.000000" x2="197.800000" y2="77.000000"  style="stroke: black; stroke-linecap:round; stroke-width:0.25; stroke-dasharray:3,3;"/>
<line x1="197.800000" y1="77.000000" x2="197.800000" y2="35.000000"  style="stroke: black; stroke-linecap:round; stroke-width:0.25; stroke-dasharray:3,3;"/>
<line x1="25.000000" y1="35.000000" x2="30.000000" y2="35.000000"  style="stroke: black; stroke-linecap:round; stroke-width:0.25; stroke-dasharray:3,3;"/>
<line x1="52.575000" y1="35.000000" x2="197.800000" y2="35.000000"  style="stroke: black; stroke-linecap:round; stroke-width:0.25; stroke-dasharray:3,3;"/>
<text x="30.000000" y="37.000000" font-family="Arial" font-size="7">Drive</text>
<rect x="215.800000" y="41.000000" width="24.000000" height="24.000000" rx="0.1" ry="0.1" style="stroke:none;fill:#aaaaaa;;filter:url(#filter);"/>
<rect x="214.800000" y="40.000000" width="24.000000" height="24.000000" rx="0" ry="0" style="stroke:none;fill:#4B71A1;"/>
<text x="226.800000" y="54.000000" font-family="Arial" font-size="7" text-anchor="middle" fill="#FFFFFF">*</text>
<circle cx="216.800000" cy="42.000000" r="1"/>
<line x1="211.800000" y1="47.000000" x2="214.800000" y2="48.000000"  transform="rotate(0.000000,214.800000,48.000000)" style="stroke: black; stroke-width:0.25;"/>
<line x1="211.800000" y1="49.000000" x2="214.800000" y2="48.000000"  transform="rotate(0.000000,214.800000,48.000000)" style="stroke: black; stroke-width:0.25;"/>
<line x1="211.800000" y1="55.000000" x2="214.800000" y2="56.000000"  transform="rotate(0.000000,214.800000,56.000000)" style="stroke: black; stroke-width:0.25;"/>
<line x1="211.800000" y1="57.000000" x2="214.800000" y2="56.000000"  transform="rotate(0.000000,214.800000,56.000000)" style="stroke: black; stroke-width:0.25;"/>
<rect x="255.800000" y="25.000000" width="24.000000" height="24.000000" rx="0.1" ry="0.1" style="stroke:none;fill:#aaaaaa;;filter:url(#filter);"/>
<rect x="254.800000" y="24.000000" width="24.000000" height="24.000000" rx="0" ry="0" style="stroke:none;fill:#4B71A1;"/>
<text x="266.800000" y="38.000000" font-family="Arial" font-size="7" text-anchor="middle" fill="#FFFFFF">int</text>
<circle cx="256.800000" cy="26.000000" r="1"/>
<line x1="251.800000" y1="35.000000" x2="254.800000" y2="36.000000"  transform="rotate(0.000000,254.800000,36.000000)" style="stroke: black; stroke-width:0.25;"/>
<line x1="251.800000" y1="37.000000" x2="254.800000" y2="36.000000"  transform="rotate(0.000000,254.800000,36.000000)" style="stroke: black; stroke-width:0.25;"/>
<rect x="255.800000" y="57.000000" width="24.000000" height="24.000000" rx="0.1" ry="0.1" style="stroke:none;fill:#aaaaaa;;filter:url(#filter);"/>
<rect x="254.800000" y="56.000000" width="24.000000" height="24.000000" rx="0" ry="0" style="stroke:none;fill:#f44800;"/>
<text x="266.800000" y="70.000000" font-family="Arial" font-size="7" text-anchor="middle" fill="#FFFFFF">1</text>
<circle cx="256.800000" cy="58.000000" r="1"/>
<rect x="295.800000" y="41.000000" width="24.000000" height="24.000000" rx="0.1" ry="0.1" style="stroke:none;fill:#aaaaaa;;filter:url(#filter);"/>
<rect x="294.800000" y="40.000000" width="24.000000" height="24.000000" rx="0" ry="0" style="stroke:none;fill:#4B71A1;"/>
<text x="306.800000" y="54.000000" font-family="Arial" font-size="7" text-anchor="middle" fill="#FFFFFF">%</text>
<circle cx="296.800000" cy="42.000000" r="1"/>
<line x1="291.800000" y1="47.000000" x2="294.800000" y2="48.000000"  transform="rotate(0.000000,294.800000,48.000000)" style="stroke: black; stroke-width:0.25;"/>
<line x1="291.800000" y1="49.000000" x2="294.800000" y2="48.000000"  transform="rotate(0.000000,294.800000,48.000000)" style="stroke: black; stroke-width:0.25;"/>
<line x1="291.800000" y1="55.000000" x2="294.800000" y2="56.000000"  transform="rotate(0.000000,294.800000,56.000000)" style="stroke: black; stroke-width:0.25;"/>
<line x1="291.800000" y1="57.000000" x2="294.800000" y2="56.000000"  transform="rotate(0.000000,294.800000,56.000000)" style="stroke: black; stroke-width:0.25;"/>
<rect x="345.800000" y="45.000000" width="167.700000" height="24.000000" rx="0.1" ry="0.1" style="stroke:none;fill:#aaaaaa;;filter:url(#filter);"/>
<rect x="344.800000" y="44.000000" width="167.700000" height="24.000000" rx="0" ry="0" style="stroke:none;fill:#477881;"/>
<text x="428.650000" y="58.000000" font-family="Arial" font-size="7" text-anchor="middle" fill="#FFFFFF">hslider(Bitdepth, 65536, 65536, 0, 1)</text>
<circle cx="346.800000" cy="46.000000" r="1"/>
<line x1="335.800000" y1="35.000000" x2="335.800000" y2="77.000000"  style="stroke: black; stroke-linecap:round; stroke-width:0.25; stroke-dasharray:3,3;"/>
<line x1="335.800000" y1="77.000000" x2="521.500000" y2="77.000000"  style="stroke: black; stroke-linecap:round; stroke-width:0.25; stroke-dasharray:3,3;"/>
<line x1="521.500000" y1="77.000000" x2="521.500000" y2="35.000000"  style="stroke: black; stroke-linecap:round; stroke-width:0.25; stroke-dasharray:3,3;"/>
<line x1="335.800000" y1="35.000000" x2="340.800000" y2="35.000000"  style="stroke: black; stroke-linecap:round; stroke-width:0.25; stroke-dasharray:3,3;"/>
<line x1="373.050000" y1="35.000000" x2="521.500000" y2="35.000000"  style="stroke: black; stroke-linecap:round; stroke-width:0.25; stroke-dasharray:3,3;"/>
<text x="340.800000" y="37.000000" font-family="Arial" font-size="7">Bitdepth</text>
<rect x="539.500000" y="41.000000" width="24.000000" height="24.000000" rx="0.1" ry="0.1" style="stroke:none;fill:#aaaaaa;;filter:url(#filter);"/>
<rect x="538.500000" y="40.000000" width="24.000000" height="24.000000" rx="0" ry="0" style="stroke:none;fill:#4B71A1;"/>
<text x="550.500000" y="54.000000" font-family="Arial" font-size="7" text-anchor="middle" fill="#FFFFFF">*</text>
<circle cx="540.500000" cy="42.000000" r="1"/>
<line x1="535.500000" y1="47.000000" x2="538.500000" y2="48.000000"  transform="rotate(0.000000,538.500000,48.000000)" style="stroke: black; stroke-width:0.25;"/>
<line x1="535.500000" y1="49.000000" x2="538.500000" y2="48.000000"  transform="rotate(0.000000,538.500000,48.000000)" style="stroke: black; stroke-width:0.25;"/>
<line x1="535.500000" y1="55.000000" x2="538.500000" y2="56.000000"  transform="rotate(0.000000,538.500000,56.000000)" style="stroke: black; stroke-width:0.25;"/>
<line x1="535.500000" y1="57.000000" x2="538.500000" y2="56.000000"  transform="rotate(0.000000,538.500000,56.000000)" style="stroke: black; stroke-width:0.25;"/>
<rect x="571.500000" y="41.000000" width="24.000000" height="24.000000" rx="0.1" ry="0.1" style="stroke:none;fill:#aaaaaa;;filter:url(#filter);"/>
<rect x="570.500000" y="40.000000" width="24.000000" height="24.000000" rx="0" ry="0" style="stroke:none;fill:#4B71A1;"/>
<text x="582.500000" y="54.000000" font-family="Arial" font-size="7" text-anchor="middle" fill="#FFFFFF">int</text>
<circle cx="572.500000" cy="42.000000" r="1"/>
<line x1="567.500000" y1="51.000000" x2="570.500000" y2="52.000000"  transform="rotate(0.000000,570.500000,52.000000)" style="stroke: black; stroke-width:0.25;"/>
<line x1="567.500000" y1="53.000000" x2="570.500000" y2="52.000000"  transform="rotate(0.000000,570.500000,52.000000)" style="stroke: black; stroke-width:0.25;"/>
<rect x="621.500000" y="45.000000" width="167.700000" height="24.000000" rx="0.1" ry="0.1" style="stroke:none;fill:#aaaaaa;;filter:url(#filter);"/>
<rect x="620.500000" y="44.000000" width="167.700000" height="24.000000" rx="0" ry="0" style="stroke:none;fill:#477881;"/>
<text x="704.350000" y="58.000000" font-family="Arial" font-size="7" text-anchor="middle" fill="#FFFFFF">hslider(Bitdepth, 65536, 65536, 0, 1)</text>
<circle cx="622.500000" cy="46.000000" r="1"/>
<line x1="611.500000" y1="35.000000" x2="611.500000" y2="77.000000"  style="stroke: black; stroke-linecap:round; stroke-width:0.25; stroke-dasharray:3,3;"/>
<line x1="611.500000" y1="77.000000" x2="797.200000" y2="77.000000"  style="stroke: black; stroke-linecap:round; stroke-width:0.25; stroke-dasharray:3,3;"/>
<line x1="797.200000" y1="77.000000" x2="797.200000" y2="35.000000"  style="stroke: black; stroke-linecap:round; stroke-width:0.25; stroke-dasharray:3,3;"/>
<line x1="611.500000" y1="35.000000" x2="616.500000" y2="35.000000"  style="stroke: black; stroke-linecap:round; stroke-width:0.25; stroke-dasharray:3,3;"/>
<line x1="648.750000" y1="35.000000" x2="797.200000" y2="35.000000"  style="stroke: black; stroke-linecap:round; stroke-width:0.25; stroke-dasharray:3,3;"/>
<text x="616.500000" y="37.000000" font-family="Arial" font-size="7">Bitdepth</text>
<rect x="815.200000" y="41.000000" width="24.000000" height="24.000000" rx="0.1" ry="0.1" style="stroke:none;fill:#aaaaaa;;filter:url(#filter);"/>
<rect x="814.200000" y="40.000000" width="24.000000" height="24.000000" rx="0" ry="0" style="stroke:none;fill:#4B71A1;"/>
<text x="826.200000" y="54.000000" font-family="Arial" font-size="7" text-anchor="middle" fill="#FFFFFF">/</text>
<circle cx="816.200000" cy="42.000000" r="1"/>
<line x1="811.200000" y1="47.000000" x2="814.200000" y2="48.000000"  transform="rotate(0.000000,814.200000,48.000000)" style="stroke: black; stroke-width:0.25;"/>
<line x1="811.200000" y1="49.000000" x2="814.200000" y2="48.000000"  transform="rotate(0.000000,814.200000,48.000000)" style="stroke: black; stroke-width:0.25;"/>
<line x1="811.200000" y1="55.000000" x2="814.200000" y2="56.000000"  transform="rotate(0.000000,814.200000,56.000000)" style="stroke: black; stroke-width:0.25;"/>
<line x1="811.200000" y1="57.000000" x2="814.200000" y2="56.000000"  transform="rotate(0.000000,814.200000,56.000000)" style="stroke: black; stroke-width:0.25;"/>
<line x1="15.000000" y1="15.000000" x2="15.000000" y2="89.000000"  style="stroke: black; stroke-linecap:round; stroke-width:0.25; stroke-dasharray:3,3;"/>
<line x1="15.000000" y1="89.000000" x2="847.200000" y2="89.000000"  style="stroke: black; stroke-linecap:round; stroke-width:0.25; stroke-dasharray:3,3;"/>
<line x1="847.200000" y1="89.000000" x2="847.200000" y2="15.000000"  style="stroke: black; stroke-linecap:round; stroke-width:0.25; stroke-dasharray:3,3;"/>
<line x1="15.000000" y1="15.000000" x2="20.000000" y2="15.000000"  style="stroke: black; stroke-linecap:round; stroke-width:0.25; stroke-dasharray:3,3;"/>
<line x1="49.025000" y1="15.000000" x2="847.200000" y2="15.000000"  style="stroke: black; stroke-linecap:round; stroke-width:0.25; stroke-dasharray:3,3;"/>
<text x="20.000000" y="17.000000" font-family="Arial" font-size="7">process</text>
<line x1="849.200000" y1="51.000000" x2="852.200000" y2="52.000000"  transform="rotate(0.000000,852.200000,52.000000)" style="stroke: black; stroke-width:0.25;"/>
<line x1="849.200000" y1="53.000000" x2="852.200000" y2="52.000000"  transform="rotate(0.000000,852.200000,52.000000)" style="stroke: black; stroke-width:0.25;"/>
<line x1="10.000000" y1="26.000000" x2="20.000000" y2="26.000000"  style="stroke:black; stroke-linecap:round; stroke-width:0.25;"/>
<line x1="20.000000" y1="26.000000" x2="111.400000" y2="26.000000"  style="stroke:black; stroke-linecap:round; stroke-width:0.25;"/>
<line x1="111.400000" y1="26.000000" x2="202.800000" y2="26.000000"  style="stroke:black; stroke-linecap:round; stroke-width:0.25;"/>
<line x1="188.800000" y1="56.000000" x2="192.800000" y2="56.000000"  style="stroke:black; stroke-linecap:round; stroke-width:0.25;"/>
<line x1="192.800000" y1="56.000000" x2="202.800000" y2="56.000000"  style="stroke:black; stroke-linecap:round; stroke-width:0.25;"/>
<line x1="202.800000" y1="26.000000" x2="210.800000" y2="26.000000"  style="stroke:black; stroke-linecap:round; stroke-width:0.25;"/>
<line x1="202.800000" y1="56.000000" x2="210.800000" y2="56.000000"  style="stroke:black; stroke-linecap:round; stroke-width:0.25;"/>
<line x1="210.800000" y1="26.000000" x2="210.800000" y2="48.000000"  style="stroke:black; stroke-linecap:round; stroke-width:0.25;"/>
<line x1="210.800000" y1="48.000000" x2="210.800000" y2="48.000000"  style="stroke:black; stroke-linecap:round; stroke-width:0.25;"/>
<line x1="210.800000" y1="48.000000" x2="214.800000" y2="48.000000"  style="stroke:black; stroke-linecap:round; stroke-width:0.25;"/>
<line x1="210.800000" y1="56.000000" x2="214.800000" y2="56.000000"  style="stroke:black; stroke-linecap:round; stroke-width:0.25;"/>
<line x1="238.800000" y1="52.000000" x2="242.800000" y2="52.000000"  style="stroke:black; stroke-linecap:round; stroke-width:0.25;"/>
<line x1="242.800000" y1="36.000000" x2="250.800000" y2="36.000000"  style="stroke:black; stroke-linecap:round; stroke-width:0.25;"/>
<line x1="242.800000" y1="52.000000" x2="242.800000" y2="36.000000"  style="stroke:black; stroke-linecap:round; stroke-width:0.25;"/>
<line x1="242.800000" y1="52.000000" x2="242.800000" y2="52.000000"  style="stroke:black; stroke-linecap:round; stroke-width:0.25;"/>
<line x1="250.800000" y1="36.000000" x2="254.800000" y2="36.000000"  style="stroke:black; stroke-linecap:round; stroke-width:0.25;"/>
<line x1="278.800000" y1="36.000000" x2="282.800000" y2="36.000000"  style="stroke:black; stroke-linecap:round; stroke-width:0.25;"/>
<line x1="278.800000" y1="68.000000" x2="282.800000" y2="68.000000"  style="stroke:black; stroke-linecap:round; stroke-width:0.25;"/>
<line x1="282.800000" y1="36.000000" x2="290.800000" y2="36.000000"  style="stroke:black; stroke-linecap:round; stroke-width:0.25;"/>
<line x1="282.800000" y1="56.000000" x2="290.800000" y2="56.000000"  style="stroke:black; stroke-linecap:round; stroke-width:0.25;"/>
<line x1="282.800000" y1="68.000000" x2="282.800000" y2="56.000000"  style="stroke:black; stroke-linecap:round; stroke-width:0.25;"/>
<line x1="282.800000" y1="68.000000" x2="282.800000" y2="68.000000"  style="stroke:black; stroke-linecap:round; stroke-width:0.25;"/>
<line x1="290.800000" y1="36.000000" x2="290.800000" y2="48.000000"  style="stroke:black; stroke-linecap:round; stroke-width:0.25;"/>
<line x1="290.800000" y1="48.000000" x2="290.800000" y2="48.000000"  style="stroke:black; stroke-linecap:round; stroke-width:0.25;"/>
<line x1="290.800000" y1="48.000000" x2="294.800000" y2="48.000000"  style="stroke:black; stroke-linecap:round; stroke-width:0.25;"/>
<line x1="290.800000" y1="56.000000" x2="294.800000" y2="56.000000"  style="stroke:black; stroke-linecap:round; stroke-width:0.25;"/>
<line x1="318.800000" y1="52.000000" x2="322.800000" y2="52.000000"  style="stroke:black; stroke-linecap:round; stroke-width:0.25;"/>
<line x1="322.800000" y1="26.000000" x2="330.800000" y2="26.000000"  style="stroke:black; stroke-linecap:round; stroke-width:0.25;"/>
<line x1="322.800000" y1="52.000000" x2="322.800000" y2="26.000000"  style="stroke:black; stroke-linecap:round; stroke-width:0.25;"/>
<line x1="322.800000" y1="52.000000" x2="322.800000" y2="52.000000"  style="stroke:black; stroke-linecap:round; stroke-width:0.25;"/>
<line x1="330.800000" y1="26.000000" x2="428.650000" y2="26.000000"  style="stroke:black; stroke-linecap:round; stroke-width:0.25;"/>
<line x1="428.650000" y1="26.000000" x2="526.500000" y2="26.000000"  style="stroke:black; stroke-linecap:round; stroke-width:0.25;"/>
<line x1="512.500000" y1="56.000000" x2="516.500000" y2="56.000000"  style="stroke:black; stroke-linecap:round; stroke-width:0.25;"/>
<line x1="516.500000" y1="56.000000" x2="526.500000" y2="56.000000"  style="stroke:black; stroke-linecap:round; stroke-width:0.25;"/>
<line x1="526.500000" y1="26.000000" x2="534.500000" y2="26.000000"  style="stroke:black; stroke-linecap:round; stroke-width:0.25;"/>
<line x1="526.500000" y1="56.000000" x2="534.500000" y2="56.000000"  style="stroke:black; stroke-linecap:round; stroke-width:0.25;"/>
<line x1="534.500000" y1="26.000000" x2="534.500000" y2="48.000000"  style="stroke:black; stroke-linecap:round; stroke-width:0.25;"/>
<line x1="534.500000" y1="48.000000" x2="534.500000" y2="48.000000"  style="stroke:black; stroke-linecap:round; stroke-width:0.25;"/>
<line x1="534.500000" y1="48.000000" x2="538.500000" y2="48.000000"  style="stroke:black; stroke-linecap:round; stroke-width:0.25;"/>
<line x1="534.500000" y1="56.000000" x2="538.500000" y2="56.000000"  style="stroke:black; stroke-linecap:round; stroke-width:0.25;"/>
<line x1="562.500000" y1="52.000000" x2="566.500000" y2="52.000000"  style="stroke:black; stroke-linecap:round; stroke-width:0.25;"/>
<line x1="566.500000" y1="52.000000" x2="566.500000" y2="52.000000"  style="stroke:black; stroke-linecap:round; stroke-width:0.25;"/>
<line x1="566.500000" y1="52.000000" x2="570.500000" y2="52.000000"  style="stroke:black; stroke-linecap:round; stroke-width:0.25;"/>
<line x1="594.500000" y1="52.000000" x2="598.500000" y2="52.000000"  style="stroke:black; stroke-linecap:round; stroke-width:0.25;"/>
<line x1="598.500000" y1="26.000000" x2="606.500000" y2="26.000000"  style="stroke:black; stroke-linecap:round; stroke-width:0.25;"/>
<line x1="598.500000" y1="52.000000" x2="598.500000" y2="26.000000"  style="stroke:black; stroke-linecap:round; stroke-width:0.25;"/>
<line x1="598.500000" y1="52.000000" x2="598.500000" y2="52.000000"  style="stroke:black; stroke-linecap:round; stroke-width:0.25;"/>
<line x1="606.500000" y1="26.000000" x2="704.350000" y2="26.000000"  style="stroke:black; stroke-linecap:round; stroke-width:0.25;"/>
<line x1="704.350000" y1="26.000000" x2="802.200000" y2="26.000000"  style="stroke:black; stroke-linecap:round; stroke-width:0.25;"/>
<line x1="788.200000" y1="56.000000" x2="792.200000" y2="56.000000"  style="stroke:black; stroke-linecap:round; stroke-width:0.25;"/>
<line x1="792.200000" y1="56.000000" x2="802.200000" y2="56.000000"  style="stroke:black; stroke-linecap:round; stroke-width:0.25;"/>
<line x1="802.200000" y1="26.000000" x2="810.200000" y2="26.000000"  style="stroke:black; stroke-linecap:round; stroke-width:0.25;"/>
<line x1="802.200000" y1="56.000000" x2="810.200000" y2="56.000000"  style="stroke:black; stroke-linecap:round; stroke-width:0.25;"/>
<line x1="810.200000" y1="26.000000" x2="810.200000" y2="48.000000"  style="stroke:black; stroke-linecap:round; stroke-width:0.25;"/>
<line x1="810.200000" y1="48.000000" x2="810.200000" y2="48.000000"  style="stroke:black; stroke-linecap:round; stroke-width:0.25;"/>
<line x1="810.200000" y1="48.000000" x2="814.200000" y2="48.000000"  style="stroke:black; stroke-linecap:round; stroke-width:0.25;"/>
<line x1="810.200000" y1="56.000000" x2="814.200000" y2="56.000000"  style="stroke:black; stroke-linecap:round; stroke-width:0.25;"/>
<line x1="838.200000" y1="52.000000" x2="842.200000" y2="52.000000"  style="stroke:black; stroke-linecap:round; stroke-width:0.25;"/>
<line x1="842.200000" y1="52.000000" x2="852.200000" y2="52.000000"  style="stroke:black; stroke-linecap:round; stroke-width:0.25;"/>
</svg>
