<?xml version="1.0"?>
<svg xmlns="http://www.w3.org/2000/svg" xmlns:xlink="http://www.w3.org/1999/xlink" viewBox="0 0 300.100000 176.000000" width="150.050000mm" height="88.000000mm" version="1.1">
<defs>
   <filter id="filter" filterRes="18" x="0" y="0">
     <feGaussianBlur in="SourceGraphic" stdDeviation="1.55" result="blur"/>
     <feOffset in="blur" dx="3" dy="3"/>
   </filter>
</defs>
<a xlink:href="process.svg">
<rect x="1.000000" y="1.000000" width="299.100000" height="175.000000" rx="0.1" ry="0.1" style="stroke:none;fill:#aaaaaa;;filter:url(#filter);"/>
<rect x="0.000000" y="0.000000" width="299.100000" height="175.000000" rx="0" ry="0" style="stroke:none;fill:#ffffff;"/>
</a>
<text x="10.000000" y="7.000000" font-family="Arial" font-size="7"></text>
<rect x="98.150000" y="33.000000" width="24.000000" height="24.000000" rx="0.1" ry="0.1" style="stroke:none;fill:#aaaaaa;;filter:url(#filter);"/>
<rect x="97.150000" y="32.000000" width="24.000000" height="24.000000" rx="0" ry="0" style="stroke:none;fill:#f44800;"/>
<text x="109.150000" y="46.000000" font-family="Arial" font-size="7" text-anchor="middle" fill="#FFFFFF">2</text>
<circle cx="99.150000" cy="34.000000" r="1"/>
<rect x="58.150000" y="65.000000" width="24.000000" height="24.000000" rx="0.1" ry="0.1" style="stroke:none;fill:#aaaaaa;;filter:url(#filter);"/>
<rect x="57.150000" y="64.000000" width="24.000000" height="24.000000" rx="0" ry="0" style="stroke:none;fill:#f44800;"/>
<text x="69.150000" y="78.000000" font-family="Arial" font-size="7" text-anchor="middle" fill="#FFFFFF">8</text>
<circle cx="59.150000" cy="66.000000" r="1"/>
<rect x="25.000000" y="97.000000" width="90.300000" height="24.000000" rx="0.1" ry="0.1" style="stroke:none;fill:#aaaaaa;;filter:url(#filter);"/>
<rect x="24.000000" y="96.000000" width="90.300000" height="24.000000" rx="0" ry="0" style="stroke:none;fill:#477881;"/>
<text x="69.150000" y="110.000000" font-family="Arial" font-size="7" text-anchor="middle" fill="#FFFFFF">checkbox(8 or 16 bit)</text>
<circle cx="26.000000" cy="98.000000" r="1"/>
<rect x="131.300000" y="81.000000" width="24.000000" height="24.000000" rx="0.1" ry="0.1" style="stroke:none;fill:#aaaaaa;;filter:url(#filter);"/>
<rect x="130.300000" y="80.000000" width="24.000000" height="24.000000" rx="0" ry="0" style="stroke:none;fill:#4B71A1;"/>
<text x="142.300000" y="94.000000" font-family="Arial" font-size="7" text-anchor="middle" fill="#FFFFFF">*</text>
<circle cx="132.300000" cy="82.000000" r="1"/>
<line x1="127.300000" y1="87.000000" x2="130.300000" y2="88.000000"  transform="rotate(0.000000,130.300000,88.000000)" style="stroke: black; stroke-width:0.25;"/>
<line x1="127.300000" y1="89.000000" x2="130.300000" y2="88.000000"  transform="rotate(0.000000,130.300000,88.000000)" style="stroke: black; stroke-width:0.25;"/>
<line x1="127.300000" y1="95.000000" x2="130.300000" y2="96.000000"  transform="rotate(0.000000,130.300000,96.000000)" style="stroke: black; stroke-width:0.25;"/>
<line x1="127.300000" y1="97.000000" x2="130.300000" y2="96.000000"  transform="rotate(0.000000,130.300000,96.000000)" style="stroke: black; stroke-width:0.25;"/>
<rect x="78.150000" y="129.000000" width="24.000000" height="24.000000" rx="0.1" ry="0.1" style="stroke:none;fill:#aaaaaa;;filter:url(#filter);"/>
<rect x="77.150000" y="128.000000" width="24.000000" height="24.000000" rx="0" ry="0" style="stroke:none;fill:#f44800;"/>
<text x="89.150000" y="142.000000" font-family="Arial" font-size="7" text-anchor="middle" fill="#FFFFFF">1</text>
<circle cx="79.150000" cy="130.000000" r="1"/>
<rect x="171.300000" y="97.000000" width="24.000000" height="24.000000" rx="0.1" ry="0.1" style="stroke:none;fill:#aaaaaa;;filter:url(#filter);"/>
<rect x="170.300000" y="96.000000" width="24.000000" height="24.000000" rx="0" ry="0" style="stroke:none;fill:#4B71A1;"/>
<text x="182.300000" y="110.000000" font-family="Arial" font-size="7" text-anchor="middle" fill="#FFFFFF">+</text>
<circle cx="172.300000" cy="98.000000" r="1"/>
<line x1="167.300000" y1="103.000000" x2="170.300000" y2="104.000000"  transform="rotate(0.000000,170.300000,104.000000)" style="stroke: black; stroke-width:0.25;"/>
<line x1="167.300000" y1="105.000000" x2="170.300000" y2="104.000000"  transform="rotate(0.000000,170.300000,104.000000)" style="stroke: black; stroke-width:0.25;"/>
<line x1="167.300000" y1="111.000000" x2="170.300000" y2="112.000000"  transform="rotate(0.000000,170.300000,112.000000)" style="stroke: black; stroke-width:0.25;"/>
<line x1="167.300000" y1="113.000000" x2="170.300000" y2="112.000000"  transform="rotate(0.000000,170.300000,112.000000)" style="stroke: black; stroke-width:0.25;"/>
<rect x="211.300000" y="81.000000" width="25.800000" height="24.000000" rx="0.1" ry="0.1" style="stroke:none;fill:#aaaaaa;;filter:url(#filter);"/>
<rect x="210.300000" y="80.000000" width="25.800000" height="24.000000" rx="0" ry="0" style="stroke:none;fill:#4B71A1;"/>
<text x="223.200000" y="94.000000" font-family="Arial" font-size="7" text-anchor="middle" fill="#FFFFFF">powf</text>
<circle cx="212.300000" cy="82.000000" r="1"/>
<line x1="207.300000" y1="87.000000" x2="210.300000" y2="88.000000"  transform="rotate(0.000000,210.300000,88.000000)" style="stroke: black; stroke-width:0.25;"/>
<line x1="207.300000" y1="89.000000" x2="210.300000" y2="88.000000"  transform="rotate(0.000000,210.300000,88.000000)" style="stroke: black; stroke-width:0.25;"/>
<line x1="207.300000" y1="95.000000" x2="210.300000" y2="96.000000"  transform="rotate(0.000000,210.300000,96.000000)" style="stroke: black; stroke-width:0.25;"/>
<line x1="207.300000" y1="97.000000" x2="210.300000" y2="96.000000"  transform="rotate(0.000000,210.300000,96.000000)" style="stroke: black; stroke-width:0.25;"/>
<rect x="253.100000" y="77.000000" width="24.000000" height="24.000000" rx="0.1" ry="0.1" style="stroke:none;fill:#aaaaaa;;filter:url(#filter);"/>
<rect x="252.100000" y="76.000000" width="24.000000" height="24.000000" rx="0" ry="0" style="stroke:none;fill:#4B71A1;"/>
<text x="264.100000" y="90.000000" font-family="Arial" font-size="7" text-anchor="middle" fill="#FFFFFF">/</text>
<circle cx="254.100000" cy="78.000000" r="1"/>
<line x1="249.100000" y1="83.000000" x2="252.100000" y2="84.000000"  transform="rotate(0.000000,252.100000,84.000000)" style="stroke: black; stroke-width:0.25;"/>
<line x1="249.100000" y1="85.000000" x2="252.100000" y2="84.000000"  transform="rotate(0.000000,252.100000,84.000000)" style="stroke: black; stroke-width:0.25;"/>
<line x1="249.100000" y1="91.000000" x2="252.100000" y2="92.000000"  transform="rotate(0.000000,252.100000,92.000000)" style="stroke: black; stroke-width:0.25;"/>
<line x1="249.100000" y1="93.000000" x2="252.100000" y2="92.000000"  transform="rotate(0.000000,252.100000,92.000000)" style="stroke: black; stroke-width:0.25;"/>
<line x1="15.000000" y1="15.000000" x2="15.000000" y2="161.000000"  style="stroke: black; stroke-linecap:round; stroke-width:0.25; stroke-dasharray:3,3;"/>
<line x1="15.000000" y1="161.000000" x2="285.100000" y2="161.000000"  style="stroke: black; stroke-linecap:round; stroke-width:0.25; stroke-dasharray:3,3;"/>
<line x1="285.100000" y1="161.000000" x2="285.100000" y2="15.000000"  style="stroke: black; stroke-linecap:round; stroke-width:0.25; stroke-dasharray:3,3;"/>
<line x1="15.000000" y1="15.000000" x2="20.000000" y2="15.000000"  style="stroke: black; stroke-linecap:round; stroke-width:0.25; stroke-dasharray:3,3;"/>
<line x1="52.250000" y1="15.000000" x2="285.100000" y2="15.000000"  style="stroke: black; stroke-linecap:round; stroke-width:0.25; stroke-dasharray:3,3;"/>
<text x="20.000000" y="17.000000" font-family="Arial" font-size="7">BitDepth</text>
<line x1="287.100000" y1="87.000000" x2="290.100000" y2="88.000000"  transform="rotate(0.000000,290.100000,88.000000)" style="stroke: black; stroke-width:0.25;"/>
<line x1="287.100000" y1="89.000000" x2="290.100000" y2="88.000000"  transform="rotate(0.000000,290.100000,88.000000)" style="stroke: black; stroke-width:0.25;"/>
<line x1="10.000000" y1="24.000000" x2="20.000000" y2="24.000000"  style="stroke:black; stroke-linecap:round; stroke-width:0.25;"/>
<line x1="20.000000" y1="24.000000" x2="130.050000" y2="24.000000"  style="stroke:black; stroke-linecap:round; stroke-width:0.25;"/>
<line x1="81.150000" y1="76.000000" x2="85.150000" y2="76.000000"  style="stroke:black; stroke-linecap:round; stroke-width:0.25;"/>
<line x1="85.150000" y1="76.000000" x2="118.300000" y2="76.000000"  style="stroke:black; stroke-linecap:round; stroke-width:0.25;"/>
<line x1="101.150000" y1="140.000000" x2="105.150000" y2="140.000000"  style="stroke:black; stroke-linecap:round; stroke-width:0.25;"/>
<line x1="105.150000" y1="140.000000" x2="158.300000" y2="140.000000"  style="stroke:black; stroke-linecap:round; stroke-width:0.25;"/>
<line x1="114.300000" y1="108.000000" x2="118.300000" y2="108.000000"  style="stroke:black; stroke-linecap:round; stroke-width:0.25;"/>
<line x1="118.300000" y1="96.000000" x2="126.300000" y2="96.000000"  style="stroke:black; stroke-linecap:round; stroke-width:0.25;"/>
<line x1="118.300000" y1="108.000000" x2="118.300000" y2="96.000000"  style="stroke:black; stroke-linecap:round; stroke-width:0.25;"/>
<line x1="118.300000" y1="108.000000" x2="118.300000" y2="108.000000"  style="stroke:black; stroke-linecap:round; stroke-width:0.25;"/>
<line x1="118.300000" y1="76.000000" x2="126.300000" y2="76.000000"  style="stroke:black; stroke-linecap:round; stroke-width:0.25;"/>
<line x1="121.150000" y1="44.000000" x2="125.150000" y2="44.000000"  style="stroke:black; stroke-linecap:round; stroke-width:0.25;"/>
<line x1="125.150000" y1="44.000000" x2="198.300000" y2="44.000000"  style="stroke:black; stroke-linecap:round; stroke-width:0.25;"/>
<line x1="126.300000" y1="88.000000" x2="130.300000" y2="88.000000"  style="stroke:black; stroke-linecap:round; stroke-width:0.25;"/>
<line x1="126.300000" y1="96.000000" x2="130.300000" y2="96.000000"  style="stroke:black; stroke-linecap:round; stroke-width:0.25;"/>
<line x1="126.300000" y1="76.000000" x2="126.300000" y2="88.000000"  style="stroke:black; stroke-linecap:round; stroke-width:0.25;"/>
<line x1="126.300000" y1="88.000000" x2="126.300000" y2="88.000000"  style="stroke:black; stroke-linecap:round; stroke-width:0.25;"/>
<line x1="130.050000" y1="24.000000" x2="240.100000" y2="24.000000"  style="stroke:black; stroke-linecap:round; stroke-width:0.25;"/>
<line x1="154.300000" y1="92.000000" x2="158.300000" y2="92.000000"  style="stroke:black; stroke-linecap:round; stroke-width:0.25;"/>
<line x1="158.300000" y1="92.000000" x2="166.300000" y2="92.000000"  style="stroke:black; stroke-linecap:round; stroke-width:0.25;"/>
<line x1="158.300000" y1="112.000000" x2="166.300000" y2="112.000000"  style="stroke:black; stroke-linecap:round; stroke-width:0.25;"/>
<line x1="158.300000" y1="140.000000" x2="158.300000" y2="112.000000"  style="stroke:black; stroke-linecap:round; stroke-width:0.25;"/>
<line x1="158.300000" y1="140.000000" x2="158.300000" y2="140.000000"  style="stroke:black; stroke-linecap:round; stroke-width:0.25;"/>
<line x1="166.300000" y1="92.000000" x2="166.300000" y2="104.000000"  style="stroke:black; stroke-linecap:round; stroke-width:0.25;"/>
<line x1="166.300000" y1="104.000000" x2="166.300000" y2="104.000000"  style="stroke:black; stroke-linecap:round; stroke-width:0.25;"/>
<line x1="166.300000" y1="104.000000" x2="170.300000" y2="104.000000"  style="stroke:black; stroke-linecap:round; stroke-width:0.25;"/>
<line x1="166.300000" y1="112.000000" x2="170.300000" y2="112.000000"  style="stroke:black; stroke-linecap:round; stroke-width:0.25;"/>
<line x1="194.300000" y1="108.000000" x2="198.300000" y2="108.000000"  style="stroke:black; stroke-linecap:round; stroke-width:0.25;"/>
<line x1="198.300000" y1="44.000000" x2="206.300000" y2="44.000000"  style="stroke:black; stroke-linecap:round; stroke-width:0.25;"/>
<line x1="198.300000" y1="96.000000" x2="206.300000" y2="96.000000"  style="stroke:black; stroke-linecap:round; stroke-width:0.25;"/>
<line x1="198.300000" y1="108.000000" x2="198.300000" y2="96.000000"  style="stroke:black; stroke-linecap:round; stroke-width:0.25;"/>
<line x1="198.300000" y1="108.000000" x2="198.300000" y2="108.000000"  style="stroke:black; stroke-linecap:round; stroke-width:0.25;"/>
<line x1="206.300000" y1="44.000000" x2="206.300000" y2="88.000000"  style="stroke:black; stroke-linecap:round; stroke-width:0.25;"/>
<line x1="206.300000" y1="88.000000" x2="206.300000" y2="88.000000"  style="stroke:black; stroke-linecap:round; stroke-width:0.25;"/>
<line x1="206.300000" y1="88.000000" x2="210.300000" y2="88.000000"  style="stroke:black; stroke-linecap:round; stroke-width:0.25;"/>
<line x1="206.300000" y1="96.000000" x2="210.300000" y2="96.000000"  style="stroke:black; stroke-linecap:round; stroke-width:0.25;"/>
<line x1="236.100000" y1="92.000000" x2="240.100000" y2="92.000000"  style="stroke:black; stroke-linecap:round; stroke-width:0.25;"/>
<line x1="240.100000" y1="24.000000" x2="248.100000" y2="24.000000"  style="stroke:black; stroke-linecap:round; stroke-width:0.25;"/>
<line x1="240.100000" y1="92.000000" x2="248.100000" y2="92.000000"  style="stroke:black; stroke-linecap:round; stroke-width:0.25;"/>
<line x1="248.100000" y1="24.000000" x2="248.100000" y2="84.000000"  style="stroke:black; stroke-linecap:round; stroke-width:0.25;"/>
<line x1="248.100000" y1="84.000000" x2="248.100000" y2="84.000000"  style="stroke:black; stroke-linecap:round; stroke-width:0.25;"/>
<line x1="248.100000" y1="84.000000" x2="252.100000" y2="84.000000"  style="stroke:black; stroke-linecap:round; stroke-width:0.25;"/>
<line x1="248.100000" y1="92.000000" x2="252.100000" y2="92.000000"  style="stroke:black; stroke-linecap:round; stroke-width:0.25;"/>
<line x1="276.100000" y1="88.000000" x2="280.100000" y2="88.000000"  style="stroke:black; stroke-linecap:round; stroke-width:0.25;"/>
<line x1="280.100000" y1="88.000000" x2="280.100000" y2="88.000000"  style="stroke:black; stroke-linecap:round; stroke-width:0.25;"/>
<line x1="280.100000" y1="88.000000" x2="290.100000" y2="88.000000"  style="stroke:black; stroke-linecap:round; stroke-width:0.25;"/>
</svg>
