<?xml version="1.0"?>
<svg xmlns="http://www.w3.org/2000/svg" xmlns:xlink="http://www.w3.org/1999/xlink" viewBox="0 0 487.200000 248.000000" width="243.600000mm" height="124.000000mm" version="1.1">
<defs>
   <filter id="filter" filterRes="18" x="0" y="0">
     <feGaussianBlur in="SourceGraphic" stdDeviation="1.55" result="blur"/>
     <feOffset in="blur" dx="3" dy="3"/>
   </filter>
</defs>
<a xlink:href="process.svg">
<rect x="1.000000" y="1.000000" width="486.200000" height="247.000000" rx="0.1" ry="0.1" style="stroke:none;fill:#aaaaaa;;filter:url(#filter);"/>
<rect x="0.000000" y="0.000000" width="486.200000" height="247.000000" rx="0" ry="0" style="stroke:none;fill:#ffffff;"/>
</a>
<text x="10.000000" y="7.000000" font-family="Arial" font-size="7"></text>
<rect x="33.000000" y="73.000000" width="38.700000" height="24.000000" rx="0.1" ry="0.1" style="stroke:none;fill:#aaaaaa;;filter:url(#filter);"/>
<rect x="32.000000" y="72.000000" width="38.700000" height="24.000000" rx="0" ry="0" style="stroke:none;fill:#f44800;"/>
<text x="51.350000" y="86.000000" font-family="Arial" font-size="7" text-anchor="middle" fill="#FFFFFF">6.28319</text>
<circle cx="34.000000" cy="74.000000" r="1"/>
<rect x="40.350000" y="105.000000" width="24.000000" height="24.000000" rx="0.1" ry="0.1" style="stroke:none;fill:#aaaaaa;;filter:url(#filter);"/>
<rect x="39.350000" y="104.000000" width="24.000000" height="24.000000" rx="0" ry="0" style="stroke:none;fill:#f44800;"/>
<text x="51.350000" y="118.000000" font-family="Arial" font-size="7" text-anchor="middle" fill="#FFFFFF">0</text>
<circle cx="41.350000" cy="106.000000" r="1"/>
<rect x="87.700000" y="89.000000" width="24.000000" height="24.000000" rx="0.1" ry="0.1" style="stroke:none;fill:#aaaaaa;;filter:url(#filter);"/>
<rect x="86.700000" y="88.000000" width="24.000000" height="24.000000" rx="0" ry="0" style="stroke:none;fill:#4B71A1;"/>
<text x="98.700000" y="102.000000" font-family="Arial" font-size="7" text-anchor="middle" fill="#FFFFFF">-</text>
<circle cx="88.700000" cy="90.000000" r="1"/>
<line x1="83.700000" y1="95.000000" x2="86.700000" y2="96.000000"  transform="rotate(0.000000,86.700000,96.000000)" style="stroke: black; stroke-width:0.25;"/>
<line x1="83.700000" y1="97.000000" x2="86.700000" y2="96.000000"  transform="rotate(0.000000,86.700000,96.000000)" style="stroke: black; stroke-width:0.25;"/>
<line x1="83.700000" y1="103.000000" x2="86.700000" y2="104.000000"  transform="rotate(0.000000,86.700000,104.000000)" style="stroke: black; stroke-width:0.25;"/>
<line x1="83.700000" y1="105.000000" x2="86.700000" y2="104.000000"  transform="rotate(0.000000,86.700000,104.000000)" style="stroke: black; stroke-width:0.25;"/>
<rect x="60.350000" y="137.000000" width="24.000000" height="24.000000" rx="0.1" ry="0.1" style="stroke:none;fill:#aaaaaa;;filter:url(#filter);"/>
<rect x="59.350000" y="136.000000" width="24.000000" height="24.000000" rx="0" ry="0" style="stroke:none;fill:#f44800;"/>
<text x="71.350000" y="150.000000" font-family="Arial" font-size="7" text-anchor="middle" fill="#FFFFFF">265</text>
<circle cx="61.350000" cy="138.000000" r="1"/>
<rect x="127.700000" y="105.000000" width="24.000000" height="24.000000" rx="0.1" ry="0.1" style="stroke:none;fill:#aaaaaa;;filter:url(#filter);"/>
<rect x="126.700000" y="104.000000" width="24.000000" height="24.000000" rx="0" ry="0" style="stroke:none;fill:#4B71A1;"/>
<text x="138.700000" y="118.000000" font-family="Arial" font-size="7" text-anchor="middle" fill="#FFFFFF">*</text>
<circle cx="128.700000" cy="106.000000" r="1"/>
<line x1="123.700000" y1="111.000000" x2="126.700000" y2="112.000000"  transform="rotate(0.000000,126.700000,112.000000)" style="stroke: black; stroke-width:0.25;"/>
<line x1="123.700000" y1="113.000000" x2="126.700000" y2="112.000000"  transform="rotate(0.000000,126.700000,112.000000)" style="stroke: black; stroke-width:0.25;"/>
<line x1="123.700000" y1="119.000000" x2="126.700000" y2="120.000000"  transform="rotate(0.000000,126.700000,120.000000)" style="stroke: black; stroke-width:0.25;"/>
<line x1="123.700000" y1="121.000000" x2="126.700000" y2="120.000000"  transform="rotate(0.000000,126.700000,120.000000)" style="stroke: black; stroke-width:0.25;"/>
<a xlink:href="SR-0x2ed3650.svg">
<rect x="80.350000" y="169.000000" width="24.000000" height="24.000000" rx="0.1" ry="0.1" style="stroke:none;fill:#aaaaaa;;filter:url(#filter);"/>
<rect x="79.350000" y="168.000000" width="24.000000" height="24.000000" rx="0" ry="0" style="stroke:none;fill:#003366;"/>
</a>
<a xlink:href="SR-0x2ed3650.svg">
<text x="91.350000" y="182.000000" font-family="Arial" font-size="7" text-anchor="middle" fill="#FFFFFF">SR</text>
</a>
<circle cx="81.350000" cy="170.000000" r="1"/>
<rect x="167.700000" y="121.000000" width="24.000000" height="24.000000" rx="0.1" ry="0.1" style="stroke:none;fill:#aaaaaa;;filter:url(#filter);"/>
<rect x="166.700000" y="120.000000" width="24.000000" height="24.000000" rx="0" ry="0" style="stroke:none;fill:#4B71A1;"/>
<text x="178.700000" y="134.000000" font-family="Arial" font-size="7" text-anchor="middle" fill="#FFFFFF">/</text>
<circle cx="168.700000" cy="122.000000" r="1"/>
<line x1="163.700000" y1="127.000000" x2="166.700000" y2="128.000000"  transform="rotate(0.000000,166.700000,128.000000)" style="stroke: black; stroke-width:0.25;"/>
<line x1="163.700000" y1="129.000000" x2="166.700000" y2="128.000000"  transform="rotate(0.000000,166.700000,128.000000)" style="stroke: black; stroke-width:0.25;"/>
<line x1="163.700000" y1="135.000000" x2="166.700000" y2="136.000000"  transform="rotate(0.000000,166.700000,136.000000)" style="stroke: black; stroke-width:0.25;"/>
<line x1="163.700000" y1="137.000000" x2="166.700000" y2="136.000000"  transform="rotate(0.000000,166.700000,136.000000)" style="stroke: black; stroke-width:0.25;"/>
<rect x="207.700000" y="117.000000" width="24.000000" height="24.000000" rx="0.1" ry="0.1" style="stroke:none;fill:#aaaaaa;;filter:url(#filter);"/>
<rect x="206.700000" y="116.000000" width="24.000000" height="24.000000" rx="0" ry="0" style="stroke:none;fill:#4B71A1;"/>
<text x="218.700000" y="130.000000" font-family="Arial" font-size="7" text-anchor="middle" fill="#FFFFFF">+</text>
<circle cx="208.700000" cy="118.000000" r="1"/>
<line x1="203.700000" y1="123.000000" x2="206.700000" y2="124.000000"  transform="rotate(0.000000,206.700000,124.000000)" style="stroke: black; stroke-width:0.25;"/>
<line x1="203.700000" y1="125.000000" x2="206.700000" y2="124.000000"  transform="rotate(0.000000,206.700000,124.000000)" style="stroke: black; stroke-width:0.25;"/>
<line x1="203.700000" y1="131.000000" x2="206.700000" y2="132.000000"  transform="rotate(0.000000,206.700000,132.000000)" style="stroke: black; stroke-width:0.25;"/>
<line x1="203.700000" y1="133.000000" x2="206.700000" y2="132.000000"  transform="rotate(0.000000,206.700000,132.000000)" style="stroke: black; stroke-width:0.25;"/>
<rect x="120.350000" y="201.000000" width="24.000000" height="24.000000" rx="0.1" ry="0.1" style="stroke:none;fill:#aaaaaa;;filter:url(#filter);"/>
<rect x="119.350000" y="200.000000" width="24.000000" height="24.000000" rx="0" ry="0" style="stroke:none;fill:#f44800;"/>
<text x="131.350000" y="214.000000" font-family="Arial" font-size="7" text-anchor="middle" fill="#FFFFFF">0</text>
<circle cx="121.350000" cy="202.000000" r="1"/>
<rect x="247.700000" y="133.000000" width="24.000000" height="24.000000" rx="0.1" ry="0.1" style="stroke:none;fill:#aaaaaa;;filter:url(#filter);"/>
<rect x="246.700000" y="132.000000" width="24.000000" height="24.000000" rx="0" ry="0" style="stroke:none;fill:#4B71A1;"/>
<text x="258.700000" y="146.000000" font-family="Arial" font-size="7" text-anchor="middle" fill="#FFFFFF">-</text>
<circle cx="248.700000" cy="134.000000" r="1"/>
<line x1="243.700000" y1="139.000000" x2="246.700000" y2="140.000000"  transform="rotate(0.000000,246.700000,140.000000)" style="stroke: black; stroke-width:0.25;"/>
<line x1="243.700000" y1="141.000000" x2="246.700000" y2="140.000000"  transform="rotate(0.000000,246.700000,140.000000)" style="stroke: black; stroke-width:0.25;"/>
<line x1="243.700000" y1="147.000000" x2="246.700000" y2="148.000000"  transform="rotate(0.000000,246.700000,148.000000)" style="stroke: black; stroke-width:0.25;"/>
<line x1="243.700000" y1="149.000000" x2="246.700000" y2="148.000000"  transform="rotate(0.000000,246.700000,148.000000)" style="stroke: black; stroke-width:0.25;"/>
<rect x="287.700000" y="97.000000" width="38.700000" height="24.000000" rx="0.1" ry="0.1" style="stroke:none;fill:#aaaaaa;;filter:url(#filter);"/>
<rect x="286.700000" y="96.000000" width="38.700000" height="24.000000" rx="0" ry="0" style="stroke:none;fill:#f44800;"/>
<text x="306.050000" y="110.000000" font-family="Arial" font-size="7" text-anchor="middle" fill="#FFFFFF">6.28319</text>
<circle cx="288.700000" cy="98.000000" r="1"/>
<rect x="295.050000" y="129.000000" width="24.000000" height="24.000000" rx="0.1" ry="0.1" style="stroke:none;fill:#aaaaaa;;filter:url(#filter);"/>
<rect x="294.050000" y="128.000000" width="24.000000" height="24.000000" rx="0" ry="0" style="stroke:none;fill:#f44800;"/>
<text x="306.050000" y="142.000000" font-family="Arial" font-size="7" text-anchor="middle" fill="#FFFFFF">0</text>
<circle cx="296.050000" cy="130.000000" r="1"/>
<rect x="342.400000" y="113.000000" width="24.000000" height="24.000000" rx="0.1" ry="0.1" style="stroke:none;fill:#aaaaaa;;filter:url(#filter);"/>
<rect x="341.400000" y="112.000000" width="24.000000" height="24.000000" rx="0" ry="0" style="stroke:none;fill:#4B71A1;"/>
<text x="353.400000" y="126.000000" font-family="Arial" font-size="7" text-anchor="middle" fill="#FFFFFF">-</text>
<circle cx="343.400000" cy="114.000000" r="1"/>
<line x1="338.400000" y1="119.000000" x2="341.400000" y2="120.000000"  transform="rotate(0.000000,341.400000,120.000000)" style="stroke: black; stroke-width:0.25;"/>
<line x1="338.400000" y1="121.000000" x2="341.400000" y2="120.000000"  transform="rotate(0.000000,341.400000,120.000000)" style="stroke: black; stroke-width:0.25;"/>
<line x1="338.400000" y1="127.000000" x2="341.400000" y2="128.000000"  transform="rotate(0.000000,341.400000,128.000000)" style="stroke: black; stroke-width:0.25;"/>
<line x1="338.400000" y1="129.000000" x2="341.400000" y2="128.000000"  transform="rotate(0.000000,341.400000,128.000000)" style="stroke: black; stroke-width:0.25;"/>
<rect x="382.400000" y="117.000000" width="25.800000" height="24.000000" rx="0.1" ry="0.1" style="stroke:none;fill:#aaaaaa;;filter:url(#filter);"/>
<rect x="381.400000" y="116.000000" width="25.800000" height="24.000000" rx="0" ry="0" style="stroke:none;fill:#4B71A1;"/>
<text x="394.300000" y="130.000000" font-family="Arial" font-size="7" text-anchor="middle" fill="#FFFFFF">fmodf</text>
<circle cx="383.400000" cy="118.000000" r="1"/>
<line x1="378.400000" y1="123.000000" x2="381.400000" y2="124.000000"  transform="rotate(0.000000,381.400000,124.000000)" style="stroke: black; stroke-width:0.25;"/>
<line x1="378.400000" y1="125.000000" x2="381.400000" y2="124.000000"  transform="rotate(0.000000,381.400000,124.000000)" style="stroke: black; stroke-width:0.25;"/>
<line x1="378.400000" y1="131.000000" x2="381.400000" y2="132.000000"  transform="rotate(0.000000,381.400000,132.000000)" style="stroke: black; stroke-width:0.25;"/>
<line x1="378.400000" y1="133.000000" x2="381.400000" y2="132.000000"  transform="rotate(0.000000,381.400000,132.000000)" style="stroke: black; stroke-width:0.25;"/>
<rect x="335.950000" y="169.000000" width="24.000000" height="24.000000" rx="0.1" ry="0.1" style="stroke:none;fill:#aaaaaa;;filter:url(#filter);"/>
<rect x="334.950000" y="168.000000" width="24.000000" height="24.000000" rx="0" ry="0" style="stroke:none;fill:#f44800;"/>
<text x="346.950000" y="182.000000" font-family="Arial" font-size="7" text-anchor="middle" fill="#FFFFFF">0</text>
<circle cx="336.950000" cy="170.000000" r="1"/>
<rect x="424.200000" y="133.000000" width="24.000000" height="24.000000" rx="0.1" ry="0.1" style="stroke:none;fill:#aaaaaa;;filter:url(#filter);"/>
<rect x="423.200000" y="132.000000" width="24.000000" height="24.000000" rx="0" ry="0" style="stroke:none;fill:#4B71A1;"/>
<text x="435.200000" y="146.000000" font-family="Arial" font-size="7" text-anchor="middle" fill="#FFFFFF">+</text>
<circle cx="425.200000" cy="134.000000" r="1"/>
<line x1="420.200000" y1="139.000000" x2="423.200000" y2="140.000000"  transform="rotate(0.000000,423.200000,140.000000)" style="stroke: black; stroke-width:0.25;"/>
<line x1="420.200000" y1="141.000000" x2="423.200000" y2="140.000000"  transform="rotate(0.000000,423.200000,140.000000)" style="stroke: black; stroke-width:0.25;"/>
<line x1="420.200000" y1="147.000000" x2="423.200000" y2="148.000000"  transform="rotate(0.000000,423.200000,148.000000)" style="stroke: black; stroke-width:0.25;"/>
<line x1="420.200000" y1="149.000000" x2="423.200000" y2="148.000000"  transform="rotate(0.000000,423.200000,148.000000)" style="stroke: black; stroke-width:0.25;"/>
<rect x="248.600000" y="25.000000" width="24.000000" height="24.000000" rx="0.1" ry="0.1" style="stroke:none;fill:#aaaaaa;;filter:url(#filter);"/>
<rect x="247.600000" y="24.000000" width="24.000000" height="24.000000" rx="0" ry="0" style="stroke:none;fill:#f44800;"/>
<text x="259.600000" y="38.000000" font-family="Arial" font-size="7" text-anchor="middle" fill="#FFFFFF">1</text>
<circle cx="269.600000" cy="46.000000" r="1"/>
<rect x="208.600000" y="29.000000" width="24.000000" height="24.000000" rx="0.1" ry="0.1" style="stroke:none;fill:#aaaaaa;;filter:url(#filter);"/>
<rect x="207.600000" y="28.000000" width="24.000000" height="24.000000" rx="0" ry="0" style="stroke:none;fill:#4B71A1;"/>
<text x="219.600000" y="42.000000" font-family="Arial" font-size="7" text-anchor="middle" fill="#FFFFFF">@</text>
<circle cx="229.600000" cy="50.000000" r="1"/>
<line x1="234.600000" y1="43.000000" x2="231.600000" y2="44.000000"  transform="rotate(0.000000,231.600000,44.000000)" style="stroke: black; stroke-width:0.25;"/>
<line x1="234.600000" y1="45.000000" x2="231.600000" y2="44.000000"  transform="rotate(0.000000,231.600000,44.000000)" style="stroke: black; stroke-width:0.25;"/>
<line x1="234.600000" y1="35.000000" x2="231.600000" y2="36.000000"  transform="rotate(0.000000,231.600000,36.000000)" style="stroke: black; stroke-width:0.25;"/>
<line x1="234.600000" y1="37.000000" x2="231.600000" y2="36.000000"  transform="rotate(0.000000,231.600000,36.000000)" style="stroke: black; stroke-width:0.25;"/>
<line x1="449.200000" y1="144.000000" x2="449.200000" y2="140.000000"  style="stroke:black; stroke-linecap:round; stroke-width:0.25;"/>
<line x1="449.200000" y1="140.000000" x2="453.200000" y2="140.000000"  style="stroke:black; stroke-linecap:round; stroke-width:0.25;"/>
<line x1="453.200000" y1="140.000000" x2="453.200000" y2="144.000000"  style="stroke:black; stroke-linecap:round; stroke-width:0.25;"/>
<line x1="15.000000" y1="15.000000" x2="15.000000" y2="233.000000"  style="stroke: black; stroke-linecap:round; stroke-width:0.25; stroke-dasharray:3,3;"/>
<line x1="15.000000" y1="233.000000" x2="472.200000" y2="233.000000"  style="stroke: black; stroke-linecap:round; stroke-width:0.25; stroke-dasharray:3,3;"/>
<line x1="472.200000" y1="233.000000" x2="472.200000" y2="15.000000"  style="stroke: black; stroke-linecap:round; stroke-width:0.25; stroke-dasharray:3,3;"/>
<line x1="15.000000" y1="15.000000" x2="20.000000" y2="15.000000"  style="stroke: black; stroke-linecap:round; stroke-width:0.25; stroke-dasharray:3,3;"/>
<line x1="94.175000" y1="15.000000" x2="472.200000" y2="15.000000"  style="stroke: black; stroke-linecap:round; stroke-width:0.25; stroke-dasharray:3,3;"/>
<text x="20.000000" y="17.000000" font-family="Arial" font-size="7">loop(0)(6.28319)(265)</text>
<line x1="474.200000" y1="123.000000" x2="477.200000" y2="124.000000"  transform="rotate(0.000000,477.200000,124.000000)" style="stroke: black; stroke-width:0.25;"/>
<line x1="474.200000" y1="125.000000" x2="477.200000" y2="124.000000"  transform="rotate(0.000000,477.200000,124.000000)" style="stroke: black; stroke-width:0.25;"/>
<line x1="28.000000" y1="40.000000" x2="28.000000" y2="40.000000"  style="stroke:black; stroke-linecap:round; stroke-width:0.25;"/>
<line x1="28.000000" y1="40.000000" x2="28.000000" y2="64.000000"  style="stroke:black; stroke-linecap:round; stroke-width:0.25;"/>
<line x1="28.000000" y1="64.000000" x2="28.000000" y2="64.000000"  style="stroke:black; stroke-linecap:round; stroke-width:0.25;"/>
<line x1="28.000000" y1="64.000000" x2="111.350000" y2="64.000000"  style="stroke:black; stroke-linecap:round; stroke-width:0.25;"/>
<line x1="63.350000" y1="116.000000" x2="67.350000" y2="116.000000"  style="stroke:black; stroke-linecap:round; stroke-width:0.25;"/>
<line x1="67.350000" y1="116.000000" x2="74.700000" y2="116.000000"  style="stroke:black; stroke-linecap:round; stroke-width:0.25;"/>
<line x1="70.700000" y1="84.000000" x2="74.700000" y2="84.000000"  style="stroke:black; stroke-linecap:round; stroke-width:0.25;"/>
<line x1="74.700000" y1="84.000000" x2="82.700000" y2="84.000000"  style="stroke:black; stroke-linecap:round; stroke-width:0.25;"/>
<line x1="74.700000" y1="104.000000" x2="82.700000" y2="104.000000"  style="stroke:black; stroke-linecap:round; stroke-width:0.25;"/>
<line x1="74.700000" y1="116.000000" x2="74.700000" y2="104.000000"  style="stroke:black; stroke-linecap:round; stroke-width:0.25;"/>
<line x1="74.700000" y1="116.000000" x2="74.700000" y2="116.000000"  style="stroke:black; stroke-linecap:round; stroke-width:0.25;"/>
<line x1="82.700000" y1="84.000000" x2="82.700000" y2="96.000000"  style="stroke:black; stroke-linecap:round; stroke-width:0.25;"/>
<line x1="82.700000" y1="96.000000" x2="82.700000" y2="96.000000"  style="stroke:black; stroke-linecap:round; stroke-width:0.25;"/>
<line x1="82.700000" y1="96.000000" x2="86.700000" y2="96.000000"  style="stroke:black; stroke-linecap:round; stroke-width:0.25;"/>
<line x1="82.700000" y1="104.000000" x2="86.700000" y2="104.000000"  style="stroke:black; stroke-linecap:round; stroke-width:0.25;"/>
<line x1="83.350000" y1="148.000000" x2="87.350000" y2="148.000000"  style="stroke:black; stroke-linecap:round; stroke-width:0.25;"/>
<line x1="87.350000" y1="148.000000" x2="114.700000" y2="148.000000"  style="stroke:black; stroke-linecap:round; stroke-width:0.25;"/>
<line x1="103.350000" y1="180.000000" x2="107.350000" y2="180.000000"  style="stroke:black; stroke-linecap:round; stroke-width:0.25;"/>
<line x1="107.350000" y1="180.000000" x2="154.700000" y2="180.000000"  style="stroke:black; stroke-linecap:round; stroke-width:0.25;"/>
<line x1="110.700000" y1="100.000000" x2="114.700000" y2="100.000000"  style="stroke:black; stroke-linecap:round; stroke-width:0.25;"/>
<line x1="111.350000" y1="64.000000" x2="194.700000" y2="64.000000"  style="stroke:black; stroke-linecap:round; stroke-width:0.25;"/>
<line x1="114.700000" y1="100.000000" x2="122.700000" y2="100.000000"  style="stroke:black; stroke-linecap:round; stroke-width:0.25;"/>
<line x1="114.700000" y1="120.000000" x2="122.700000" y2="120.000000"  style="stroke:black; stroke-linecap:round; stroke-width:0.25;"/>
<line x1="114.700000" y1="148.000000" x2="114.700000" y2="120.000000"  style="stroke:black; stroke-linecap:round; stroke-width:0.25;"/>
<line x1="114.700000" y1="148.000000" x2="114.700000" y2="148.000000"  style="stroke:black; stroke-linecap:round; stroke-width:0.25;"/>
<line x1="122.700000" y1="100.000000" x2="122.700000" y2="112.000000"  style="stroke:black; stroke-linecap:round; stroke-width:0.25;"/>
<line x1="122.700000" y1="112.000000" x2="122.700000" y2="112.000000"  style="stroke:black; stroke-linecap:round; stroke-width:0.25;"/>
<line x1="122.700000" y1="112.000000" x2="126.700000" y2="112.000000"  style="stroke:black; stroke-linecap:round; stroke-width:0.25;"/>
<line x1="122.700000" y1="120.000000" x2="126.700000" y2="120.000000"  style="stroke:black; stroke-linecap:round; stroke-width:0.25;"/>
<line x1="143.350000" y1="212.000000" x2="147.350000" y2="212.000000"  style="stroke:black; stroke-linecap:round; stroke-width:0.25;"/>
<line x1="147.350000" y1="212.000000" x2="234.700000" y2="212.000000"  style="stroke:black; stroke-linecap:round; stroke-width:0.25;"/>
<line x1="150.700000" y1="116.000000" x2="154.700000" y2="116.000000"  style="stroke:black; stroke-linecap:round; stroke-width:0.25;"/>
<line x1="154.700000" y1="116.000000" x2="162.700000" y2="116.000000"  style="stroke:black; stroke-linecap:round; stroke-width:0.25;"/>
<line x1="154.700000" y1="136.000000" x2="162.700000" y2="136.000000"  style="stroke:black; stroke-linecap:round; stroke-width:0.25;"/>
<line x1="154.700000" y1="180.000000" x2="154.700000" y2="136.000000"  style="stroke:black; stroke-linecap:round; stroke-width:0.25;"/>
<line x1="154.700000" y1="180.000000" x2="154.700000" y2="180.000000"  style="stroke:black; stroke-linecap:round; stroke-width:0.25;"/>
<line x1="162.700000" y1="116.000000" x2="162.700000" y2="128.000000"  style="stroke:black; stroke-linecap:round; stroke-width:0.25;"/>
<line x1="162.700000" y1="128.000000" x2="162.700000" y2="128.000000"  style="stroke:black; stroke-linecap:round; stroke-width:0.25;"/>
<line x1="162.700000" y1="128.000000" x2="166.700000" y2="128.000000"  style="stroke:black; stroke-linecap:round; stroke-width:0.25;"/>
<line x1="162.700000" y1="136.000000" x2="166.700000" y2="136.000000"  style="stroke:black; stroke-linecap:round; stroke-width:0.25;"/>
<line x1="190.700000" y1="132.000000" x2="194.700000" y2="132.000000"  style="stroke:black; stroke-linecap:round; stroke-width:0.25;"/>
<line x1="194.700000" y1="64.000000" x2="202.700000" y2="64.000000"  style="stroke:black; stroke-linecap:round; stroke-width:0.25;"/>
<line x1="194.700000" y1="132.000000" x2="202.700000" y2="132.000000"  style="stroke:black; stroke-linecap:round; stroke-width:0.25;"/>
<line x1="202.700000" y1="64.000000" x2="202.700000" y2="124.000000"  style="stroke:black; stroke-linecap:round; stroke-width:0.25;"/>
<line x1="202.700000" y1="124.000000" x2="202.700000" y2="124.000000"  style="stroke:black; stroke-linecap:round; stroke-width:0.25;"/>
<line x1="202.700000" y1="124.000000" x2="206.700000" y2="124.000000"  style="stroke:black; stroke-linecap:round; stroke-width:0.25;"/>
<line x1="202.700000" y1="132.000000" x2="206.700000" y2="132.000000"  style="stroke:black; stroke-linecap:round; stroke-width:0.25;"/>
<line x1="203.600000" y1="40.000000" x2="28.000000" y2="40.000000"  style="stroke:black; stroke-linecap:round; stroke-width:0.25;"/>
<line x1="207.600000" y1="40.000000" x2="203.600000" y2="40.000000"  style="stroke:black; stroke-linecap:round; stroke-width:0.25;"/>
<line x1="230.700000" y1="128.000000" x2="234.700000" y2="128.000000"  style="stroke:black; stroke-linecap:round; stroke-width:0.25;"/>
<line x1="234.700000" y1="128.000000" x2="242.700000" y2="128.000000"  style="stroke:black; stroke-linecap:round; stroke-width:0.25;"/>
<line x1="234.700000" y1="148.000000" x2="242.700000" y2="148.000000"  style="stroke:black; stroke-linecap:round; stroke-width:0.25;"/>
<line x1="234.700000" y1="212.000000" x2="234.700000" y2="148.000000"  style="stroke:black; stroke-linecap:round; stroke-width:0.25;"/>
<line x1="234.700000" y1="212.000000" x2="234.700000" y2="212.000000"  style="stroke:black; stroke-linecap:round; stroke-width:0.25;"/>
<line x1="235.600000" y1="36.000000" x2="231.600000" y2="36.000000"  style="stroke:black; stroke-linecap:round; stroke-width:0.25;"/>
<line x1="235.600000" y1="44.000000" x2="231.600000" y2="44.000000"  style="stroke:black; stroke-linecap:round; stroke-width:0.25;"/>
<line x1="235.600000" y1="44.000000" x2="235.600000" y2="44.000000"  style="stroke:black; stroke-linecap:round; stroke-width:0.25;"/>
<line x1="235.600000" y1="56.000000" x2="235.600000" y2="44.000000"  style="stroke:black; stroke-linecap:round; stroke-width:0.25;"/>
<line x1="242.700000" y1="128.000000" x2="242.700000" y2="140.000000"  style="stroke:black; stroke-linecap:round; stroke-width:0.25;"/>
<line x1="242.700000" y1="140.000000" x2="242.700000" y2="140.000000"  style="stroke:black; stroke-linecap:round; stroke-width:0.25;"/>
<line x1="242.700000" y1="140.000000" x2="246.700000" y2="140.000000"  style="stroke:black; stroke-linecap:round; stroke-width:0.25;"/>
<line x1="242.700000" y1="148.000000" x2="246.700000" y2="148.000000"  style="stroke:black; stroke-linecap:round; stroke-width:0.25;"/>
<line x1="243.600000" y1="36.000000" x2="235.600000" y2="36.000000"  style="stroke:black; stroke-linecap:round; stroke-width:0.25;"/>
<line x1="243.600000" y1="56.000000" x2="235.600000" y2="56.000000"  style="stroke:black; stroke-linecap:round; stroke-width:0.25;"/>
<line x1="247.600000" y1="36.000000" x2="243.600000" y2="36.000000"  style="stroke:black; stroke-linecap:round; stroke-width:0.25;"/>
<line x1="259.600000" y1="56.000000" x2="243.600000" y2="56.000000"  style="stroke:black; stroke-linecap:round; stroke-width:0.25;"/>
<line x1="270.700000" y1="144.000000" x2="274.700000" y2="144.000000"  style="stroke:black; stroke-linecap:round; stroke-width:0.25;"/>
<line x1="274.700000" y1="144.000000" x2="282.700000" y2="144.000000"  style="stroke:black; stroke-linecap:round; stroke-width:0.25;"/>
<line x1="275.600000" y1="56.000000" x2="259.600000" y2="56.000000"  style="stroke:black; stroke-linecap:round; stroke-width:0.25;"/>
<line x1="282.700000" y1="160.000000" x2="326.050000" y2="160.000000"  style="stroke:black; stroke-linecap:round; stroke-width:0.25;"/>
<line x1="282.700000" y1="144.000000" x2="282.700000" y2="160.000000"  style="stroke:black; stroke-linecap:round; stroke-width:0.25;"/>
<line x1="282.700000" y1="160.000000" x2="282.700000" y2="160.000000"  style="stroke:black; stroke-linecap:round; stroke-width:0.25;"/>
<line x1="318.050000" y1="140.000000" x2="322.050000" y2="140.000000"  style="stroke:black; stroke-linecap:round; stroke-width:0.25;"/>
<line x1="322.050000" y1="140.000000" x2="329.400000" y2="140.000000"  style="stroke:black; stroke-linecap:round; stroke-width:0.25;"/>
<line x1="325.400000" y1="108.000000" x2="329.400000" y2="108.000000"  style="stroke:black; stroke-linecap:round; stroke-width:0.25;"/>
<line x1="326.050000" y1="160.000000" x2="369.400000" y2="160.000000"  style="stroke:black; stroke-linecap:round; stroke-width:0.25;"/>
<line x1="329.400000" y1="108.000000" x2="337.400000" y2="108.000000"  style="stroke:black; stroke-linecap:round; stroke-width:0.25;"/>
<line x1="329.400000" y1="128.000000" x2="337.400000" y2="128.000000"  style="stroke:black; stroke-linecap:round; stroke-width:0.25;"/>
<line x1="329.400000" y1="140.000000" x2="329.400000" y2="128.000000"  style="stroke:black; stroke-linecap:round; stroke-width:0.25;"/>
<line x1="329.400000" y1="140.000000" x2="329.400000" y2="140.000000"  style="stroke:black; stroke-linecap:round; stroke-width:0.25;"/>
<line x1="337.400000" y1="108.000000" x2="337.400000" y2="120.000000"  style="stroke:black; stroke-linecap:round; stroke-width:0.25;"/>
<line x1="337.400000" y1="120.000000" x2="337.400000" y2="120.000000"  style="stroke:black; stroke-linecap:round; stroke-width:0.25;"/>
<line x1="337.400000" y1="120.000000" x2="341.400000" y2="120.000000"  style="stroke:black; stroke-linecap:round; stroke-width:0.25;"/>
<line x1="337.400000" y1="128.000000" x2="341.400000" y2="128.000000"  style="stroke:black; stroke-linecap:round; stroke-width:0.25;"/>
<line x1="358.950000" y1="180.000000" x2="362.950000" y2="180.000000"  style="stroke:black; stroke-linecap:round; stroke-width:0.25;"/>
<line x1="362.950000" y1="180.000000" x2="411.200000" y2="180.000000"  style="stroke:black; stroke-linecap:round; stroke-width:0.25;"/>
<line x1="365.400000" y1="124.000000" x2="369.400000" y2="124.000000"  style="stroke:black; stroke-linecap:round; stroke-width:0.25;"/>
<line x1="369.400000" y1="124.000000" x2="377.400000" y2="124.000000"  style="stroke:black; stroke-linecap:round; stroke-width:0.25;"/>
<line x1="369.400000" y1="132.000000" x2="377.400000" y2="132.000000"  style="stroke:black; stroke-linecap:round; stroke-width:0.25;"/>
<line x1="369.400000" y1="160.000000" x2="369.400000" y2="132.000000"  style="stroke:black; stroke-linecap:round; stroke-width:0.25;"/>
<line x1="369.400000" y1="160.000000" x2="369.400000" y2="160.000000"  style="stroke:black; stroke-linecap:round; stroke-width:0.25;"/>
<line x1="377.400000" y1="124.000000" x2="381.400000" y2="124.000000"  style="stroke:black; stroke-linecap:round; stroke-width:0.25;"/>
<line x1="377.400000" y1="132.000000" x2="381.400000" y2="132.000000"  style="stroke:black; stroke-linecap:round; stroke-width:0.25;"/>
<line x1="407.200000" y1="128.000000" x2="411.200000" y2="128.000000"  style="stroke:black; stroke-linecap:round; stroke-width:0.25;"/>
<line x1="411.200000" y1="128.000000" x2="419.200000" y2="128.000000"  style="stroke:black; stroke-linecap:round; stroke-width:0.25;"/>
<line x1="411.200000" y1="148.000000" x2="419.200000" y2="148.000000"  style="stroke:black; stroke-linecap:round; stroke-width:0.25;"/>
<line x1="411.200000" y1="180.000000" x2="411.200000" y2="148.000000"  style="stroke:black; stroke-linecap:round; stroke-width:0.25;"/>
<line x1="411.200000" y1="180.000000" x2="411.200000" y2="180.000000"  style="stroke:black; stroke-linecap:round; stroke-width:0.25;"/>
<line x1="419.200000" y1="128.000000" x2="419.200000" y2="140.000000"  style="stroke:black; stroke-linecap:round; stroke-width:0.25;"/>
<line x1="419.200000" y1="140.000000" x2="419.200000" y2="140.000000"  style="stroke:black; stroke-linecap:round; stroke-width:0.25;"/>
<line x1="419.200000" y1="140.000000" x2="423.200000" y2="140.000000"  style="stroke:black; stroke-linecap:round; stroke-width:0.25;"/>
<line x1="419.200000" y1="148.000000" x2="423.200000" y2="148.000000"  style="stroke:black; stroke-linecap:round; stroke-width:0.25;"/>
<line x1="447.200000" y1="144.000000" x2="451.200000" y2="144.000000"  style="stroke:black; stroke-linecap:round; stroke-width:0.25;"/>
<line x1="451.200000" y1="56.000000" x2="451.200000" y2="56.000000"  style="stroke:black; stroke-linecap:round; stroke-width:0.25;"/>
<line x1="451.200000" y1="140.000000" x2="451.200000" y2="56.000000"  style="stroke:black; stroke-linecap:round; stroke-width:0.25;"/>
<line x1="451.200000" y1="144.000000" x2="453.200000" y2="144.000000"  style="stroke:black; stroke-linecap:round; stroke-width:0.25;"/>
<line x1="451.200000" y1="56.000000" x2="275.600000" y2="56.000000"  style="stroke:black; stroke-linecap:round; stroke-width:0.25;"/>
<line x1="453.200000" y1="144.000000" x2="459.200000" y2="144.000000"  style="stroke:black; stroke-linecap:round; stroke-width:0.25;"/>
<line x1="459.200000" y1="124.000000" x2="467.200000" y2="124.000000"  style="stroke:black; stroke-linecap:round; stroke-width:0.25;"/>
<line x1="459.200000" y1="144.000000" x2="459.200000" y2="124.000000"  style="stroke:black; stroke-linecap:round; stroke-width:0.25;"/>
<line x1="459.200000" y1="144.000000" x2="459.200000" y2="144.000000"  style="stroke:black; stroke-linecap:round; stroke-width:0.25;"/>
<line x1="467.200000" y1="124.000000" x2="477.200000" y2="124.000000"  style="stroke:black; stroke-linecap:round; stroke-width:0.25;"/>
</svg>
