<?xml version="1.0"?>
<svg xmlns="http://www.w3.org/2000/svg" xmlns:xlink="http://www.w3.org/1999/xlink" viewBox="0 0 487.200000 288.000000" width="243.600000mm" height="144.000000mm" version="1.1">
<defs>
   <filter id="filter" filterRes="18" x="0" y="0">
     <feGaussianBlur in="SourceGraphic" stdDeviation="1.55" result="blur"/>
     <feOffset in="blur" dx="3" dy="3"/>
   </filter>
</defs>
<a xlink:href="process.svg">
<rect x="1.000000" y="1.000000" width="486.200000" height="287.000000" rx="0.1" ry="0.1" style="stroke:none;fill:#aaaaaa;;filter:url(#filter);"/>
<rect x="0.000000" y="0.000000" width="486.200000" height="287.000000" rx="0" ry="0" style="stroke:none;fill:#ffffff;"/>
</a>
<text x="10.000000" y="7.000000" font-family="Arial" font-size="7"></text>
<rect x="25.000000" y="117.000000" width="38.700000" height="24.000000" rx="0.1" ry="0.1" style="stroke:none;fill:#aaaaaa;;filter:url(#filter);"/>
<rect x="24.000000" y="116.000000" width="38.700000" height="24.000000" rx="0" ry="0" style="stroke:none;fill:#f44800;"/>
<text x="43.350000" y="130.000000" font-family="Arial" font-size="7" text-anchor="middle" fill="#FFFFFF">6.28319</text>
<circle cx="26.000000" cy="118.000000" r="1"/>
<rect x="32.350000" y="149.000000" width="24.000000" height="24.000000" rx="0.1" ry="0.1" style="stroke:none;fill:#aaaaaa;;filter:url(#filter);"/>
<rect x="31.350000" y="148.000000" width="24.000000" height="24.000000" rx="0" ry="0" style="stroke:none;fill:#f44800;"/>
<text x="43.350000" y="162.000000" font-family="Arial" font-size="7" text-anchor="middle" fill="#FFFFFF">0</text>
<circle cx="33.350000" cy="150.000000" r="1"/>
<rect x="79.700000" y="133.000000" width="24.000000" height="24.000000" rx="0.1" ry="0.1" style="stroke:none;fill:#aaaaaa;;filter:url(#filter);"/>
<rect x="78.700000" y="132.000000" width="24.000000" height="24.000000" rx="0" ry="0" style="stroke:none;fill:#4B71A1;"/>
<text x="90.700000" y="146.000000" font-family="Arial" font-size="7" text-anchor="middle" fill="#FFFFFF">-</text>
<circle cx="80.700000" cy="134.000000" r="1"/>
<line x1="75.700000" y1="139.000000" x2="78.700000" y2="140.000000"  transform="rotate(0.000000,78.700000,140.000000)" style="stroke: black; stroke-width:0.25;"/>
<line x1="75.700000" y1="141.000000" x2="78.700000" y2="140.000000"  transform="rotate(0.000000,78.700000,140.000000)" style="stroke: black; stroke-width:0.25;"/>
<line x1="75.700000" y1="147.000000" x2="78.700000" y2="148.000000"  transform="rotate(0.000000,78.700000,148.000000)" style="stroke: black; stroke-width:0.25;"/>
<line x1="75.700000" y1="149.000000" x2="78.700000" y2="148.000000"  transform="rotate(0.000000,78.700000,148.000000)" style="stroke: black; stroke-width:0.25;"/>
<rect x="127.700000" y="73.000000" width="38.700000" height="24.000000" rx="0.1" ry="0.1" style="stroke:none;fill:#aaaaaa;;filter:url(#filter);"/>
<rect x="126.700000" y="72.000000" width="38.700000" height="24.000000" rx="0" ry="0" style="stroke:none;fill:#f44800;"/>
<text x="146.050000" y="86.000000" font-family="Arial" font-size="7" text-anchor="middle" fill="#FFFFFF">6.28319</text>
<circle cx="128.700000" cy="74.000000" r="1"/>
<rect x="135.050000" y="105.000000" width="24.000000" height="24.000000" rx="0.1" ry="0.1" style="stroke:none;fill:#aaaaaa;;filter:url(#filter);"/>
<rect x="134.050000" y="104.000000" width="24.000000" height="24.000000" rx="0" ry="0" style="stroke:none;fill:#f44800;"/>
<text x="146.050000" y="118.000000" font-family="Arial" font-size="7" text-anchor="middle" fill="#FFFFFF">0</text>
<circle cx="136.050000" cy="106.000000" r="1"/>
<rect x="182.400000" y="89.000000" width="24.000000" height="24.000000" rx="0.1" ry="0.1" style="stroke:none;fill:#aaaaaa;;filter:url(#filter);"/>
<rect x="181.400000" y="88.000000" width="24.000000" height="24.000000" rx="0" ry="0" style="stroke:none;fill:#4B71A1;"/>
<text x="193.400000" y="102.000000" font-family="Arial" font-size="7" text-anchor="middle" fill="#FFFFFF">-</text>
<circle cx="183.400000" cy="90.000000" r="1"/>
<line x1="178.400000" y1="95.000000" x2="181.400000" y2="96.000000"  transform="rotate(0.000000,181.400000,96.000000)" style="stroke: black; stroke-width:0.25;"/>
<line x1="178.400000" y1="97.000000" x2="181.400000" y2="96.000000"  transform="rotate(0.000000,181.400000,96.000000)" style="stroke: black; stroke-width:0.25;"/>
<line x1="178.400000" y1="103.000000" x2="181.400000" y2="104.000000"  transform="rotate(0.000000,181.400000,104.000000)" style="stroke: black; stroke-width:0.25;"/>
<line x1="178.400000" y1="105.000000" x2="181.400000" y2="104.000000"  transform="rotate(0.000000,181.400000,104.000000)" style="stroke: black; stroke-width:0.25;"/>
<rect x="155.050000" y="137.000000" width="24.000000" height="24.000000" rx="0.1" ry="0.1" style="stroke:none;fill:#aaaaaa;;filter:url(#filter);"/>
<rect x="154.050000" y="136.000000" width="24.000000" height="24.000000" rx="0" ry="0" style="stroke:none;fill:#f44800;"/>
<text x="166.050000" y="150.000000" font-family="Arial" font-size="7" text-anchor="middle" fill="#FFFFFF">265</text>
<circle cx="156.050000" cy="138.000000" r="1"/>
<rect x="222.400000" y="105.000000" width="24.000000" height="24.000000" rx="0.1" ry="0.1" style="stroke:none;fill:#aaaaaa;;filter:url(#filter);"/>
<rect x="221.400000" y="104.000000" width="24.000000" height="24.000000" rx="0" ry="0" style="stroke:none;fill:#4B71A1;"/>
<text x="233.400000" y="118.000000" font-family="Arial" font-size="7" text-anchor="middle" fill="#FFFFFF">*</text>
<circle cx="223.400000" cy="106.000000" r="1"/>
<line x1="218.400000" y1="111.000000" x2="221.400000" y2="112.000000"  transform="rotate(0.000000,221.400000,112.000000)" style="stroke: black; stroke-width:0.25;"/>
<line x1="218.400000" y1="113.000000" x2="221.400000" y2="112.000000"  transform="rotate(0.000000,221.400000,112.000000)" style="stroke: black; stroke-width:0.25;"/>
<line x1="218.400000" y1="119.000000" x2="221.400000" y2="120.000000"  transform="rotate(0.000000,221.400000,120.000000)" style="stroke: black; stroke-width:0.25;"/>
<line x1="218.400000" y1="121.000000" x2="221.400000" y2="120.000000"  transform="rotate(0.000000,221.400000,120.000000)" style="stroke: black; stroke-width:0.25;"/>
<a xlink:href="SR-0x3180ad0.svg">
<rect x="175.050000" y="169.000000" width="24.000000" height="24.000000" rx="0.1" ry="0.1" style="stroke:none;fill:#aaaaaa;;filter:url(#filter);"/>
<rect x="174.050000" y="168.000000" width="24.000000" height="24.000000" rx="0" ry="0" style="stroke:none;fill:#003366;"/>
</a>
<a xlink:href="SR-0x3180ad0.svg">
<text x="186.050000" y="182.000000" font-family="Arial" font-size="7" text-anchor="middle" fill="#FFFFFF">SR</text>
</a>
<circle cx="176.050000" cy="170.000000" r="1"/>
<rect x="262.400000" y="121.000000" width="24.000000" height="24.000000" rx="0.1" ry="0.1" style="stroke:none;fill:#aaaaaa;;filter:url(#filter);"/>
<rect x="261.400000" y="120.000000" width="24.000000" height="24.000000" rx="0" ry="0" style="stroke:none;fill:#4B71A1;"/>
<text x="273.400000" y="134.000000" font-family="Arial" font-size="7" text-anchor="middle" fill="#FFFFFF">/</text>
<circle cx="263.400000" cy="122.000000" r="1"/>
<line x1="258.400000" y1="127.000000" x2="261.400000" y2="128.000000"  transform="rotate(0.000000,261.400000,128.000000)" style="stroke: black; stroke-width:0.25;"/>
<line x1="258.400000" y1="129.000000" x2="261.400000" y2="128.000000"  transform="rotate(0.000000,261.400000,128.000000)" style="stroke: black; stroke-width:0.25;"/>
<line x1="258.400000" y1="135.000000" x2="261.400000" y2="136.000000"  transform="rotate(0.000000,261.400000,136.000000)" style="stroke: black; stroke-width:0.25;"/>
<line x1="258.400000" y1="137.000000" x2="261.400000" y2="136.000000"  transform="rotate(0.000000,261.400000,136.000000)" style="stroke: black; stroke-width:0.25;"/>
<rect x="302.400000" y="117.000000" width="24.000000" height="24.000000" rx="0.1" ry="0.1" style="stroke:none;fill:#aaaaaa;;filter:url(#filter);"/>
<rect x="301.400000" y="116.000000" width="24.000000" height="24.000000" rx="0" ry="0" style="stroke:none;fill:#4B71A1;"/>
<text x="313.400000" y="130.000000" font-family="Arial" font-size="7" text-anchor="middle" fill="#FFFFFF">+</text>
<circle cx="303.400000" cy="118.000000" r="1"/>
<line x1="298.400000" y1="123.000000" x2="301.400000" y2="124.000000"  transform="rotate(0.000000,301.400000,124.000000)" style="stroke: black; stroke-width:0.25;"/>
<line x1="298.400000" y1="125.000000" x2="301.400000" y2="124.000000"  transform="rotate(0.000000,301.400000,124.000000)" style="stroke: black; stroke-width:0.25;"/>
<line x1="298.400000" y1="131.000000" x2="301.400000" y2="132.000000"  transform="rotate(0.000000,301.400000,132.000000)" style="stroke: black; stroke-width:0.25;"/>
<line x1="298.400000" y1="133.000000" x2="301.400000" y2="132.000000"  transform="rotate(0.000000,301.400000,132.000000)" style="stroke: black; stroke-width:0.25;"/>
<rect x="215.050000" y="201.000000" width="24.000000" height="24.000000" rx="0.1" ry="0.1" style="stroke:none;fill:#aaaaaa;;filter:url(#filter);"/>
<rect x="214.050000" y="200.000000" width="24.000000" height="24.000000" rx="0" ry="0" style="stroke:none;fill:#f44800;"/>
<text x="226.050000" y="214.000000" font-family="Arial" font-size="7" text-anchor="middle" fill="#FFFFFF">0</text>
<circle cx="216.050000" cy="202.000000" r="1"/>
<rect x="342.400000" y="133.000000" width="24.000000" height="24.000000" rx="0.1" ry="0.1" style="stroke:none;fill:#aaaaaa;;filter:url(#filter);"/>
<rect x="341.400000" y="132.000000" width="24.000000" height="24.000000" rx="0" ry="0" style="stroke:none;fill:#4B71A1;"/>
<text x="353.400000" y="146.000000" font-family="Arial" font-size="7" text-anchor="middle" fill="#FFFFFF">-</text>
<circle cx="343.400000" cy="134.000000" r="1"/>
<line x1="338.400000" y1="139.000000" x2="341.400000" y2="140.000000"  transform="rotate(0.000000,341.400000,140.000000)" style="stroke: black; stroke-width:0.25;"/>
<line x1="338.400000" y1="141.000000" x2="341.400000" y2="140.000000"  transform="rotate(0.000000,341.400000,140.000000)" style="stroke: black; stroke-width:0.25;"/>
<line x1="338.400000" y1="147.000000" x2="341.400000" y2="148.000000"  transform="rotate(0.000000,341.400000,148.000000)" style="stroke: black; stroke-width:0.25;"/>
<line x1="338.400000" y1="149.000000" x2="341.400000" y2="148.000000"  transform="rotate(0.000000,341.400000,148.000000)" style="stroke: black; stroke-width:0.25;"/>
<rect x="235.050000" y="233.000000" width="24.000000" height="24.000000" rx="0.1" ry="0.1" style="stroke:none;fill:#aaaaaa;;filter:url(#filter);"/>
<rect x="234.050000" y="232.000000" width="24.000000" height="24.000000" rx="0" ry="0" style="stroke:none;fill:#f44800;"/>
<text x="246.050000" y="246.000000" font-family="Arial" font-size="7" text-anchor="middle" fill="#FFFFFF">0</text>
<circle cx="236.050000" cy="234.000000" r="1"/>
<rect x="382.400000" y="149.000000" width="24.000000" height="24.000000" rx="0.1" ry="0.1" style="stroke:none;fill:#aaaaaa;;filter:url(#filter);"/>
<rect x="381.400000" y="148.000000" width="24.000000" height="24.000000" rx="0" ry="0" style="stroke:none;fill:#4B71A1;"/>
<text x="393.400000" y="162.000000" font-family="Arial" font-size="7" text-anchor="middle" fill="#FFFFFF">+</text>
<circle cx="383.400000" cy="150.000000" r="1"/>
<line x1="378.400000" y1="155.000000" x2="381.400000" y2="156.000000"  transform="rotate(0.000000,381.400000,156.000000)" style="stroke: black; stroke-width:0.25;"/>
<line x1="378.400000" y1="157.000000" x2="381.400000" y2="156.000000"  transform="rotate(0.000000,381.400000,156.000000)" style="stroke: black; stroke-width:0.25;"/>
<line x1="378.400000" y1="163.000000" x2="381.400000" y2="164.000000"  transform="rotate(0.000000,381.400000,164.000000)" style="stroke: black; stroke-width:0.25;"/>
<line x1="378.400000" y1="165.000000" x2="381.400000" y2="164.000000"  transform="rotate(0.000000,381.400000,164.000000)" style="stroke: black; stroke-width:0.25;"/>
<rect x="422.400000" y="153.000000" width="25.800000" height="24.000000" rx="0.1" ry="0.1" style="stroke:none;fill:#aaaaaa;;filter:url(#filter);"/>
<rect x="421.400000" y="152.000000" width="25.800000" height="24.000000" rx="0" ry="0" style="stroke:none;fill:#4B71A1;"/>
<text x="434.300000" y="166.000000" font-family="Arial" font-size="7" text-anchor="middle" fill="#FFFFFF">fmodf</text>
<circle cx="423.400000" cy="154.000000" r="1"/>
<line x1="418.400000" y1="159.000000" x2="421.400000" y2="160.000000"  transform="rotate(0.000000,421.400000,160.000000)" style="stroke: black; stroke-width:0.25;"/>
<line x1="418.400000" y1="161.000000" x2="421.400000" y2="160.000000"  transform="rotate(0.000000,421.400000,160.000000)" style="stroke: black; stroke-width:0.25;"/>
<line x1="418.400000" y1="167.000000" x2="421.400000" y2="168.000000"  transform="rotate(0.000000,421.400000,168.000000)" style="stroke: black; stroke-width:0.25;"/>
<line x1="418.400000" y1="169.000000" x2="421.400000" y2="168.000000"  transform="rotate(0.000000,421.400000,168.000000)" style="stroke: black; stroke-width:0.25;"/>
<rect x="295.950000" y="25.000000" width="24.000000" height="24.000000" rx="0.1" ry="0.1" style="stroke:none;fill:#aaaaaa;;filter:url(#filter);"/>
<rect x="294.950000" y="24.000000" width="24.000000" height="24.000000" rx="0" ry="0" style="stroke:none;fill:#f44800;"/>
<text x="306.950000" y="38.000000" font-family="Arial" font-size="7" text-anchor="middle" fill="#FFFFFF">1</text>
<circle cx="316.950000" cy="46.000000" r="1"/>
<rect x="255.950000" y="29.000000" width="24.000000" height="24.000000" rx="0.1" ry="0.1" style="stroke:none;fill:#aaaaaa;;filter:url(#filter);"/>
<rect x="254.950000" y="28.000000" width="24.000000" height="24.000000" rx="0" ry="0" style="stroke:none;fill:#4B71A1;"/>
<text x="266.950000" y="42.000000" font-family="Arial" font-size="7" text-anchor="middle" fill="#FFFFFF">@</text>
<circle cx="276.950000" cy="50.000000" r="1"/>
<line x1="281.950000" y1="43.000000" x2="278.950000" y2="44.000000"  transform="rotate(0.000000,278.950000,44.000000)" style="stroke: black; stroke-width:0.25;"/>
<line x1="281.950000" y1="45.000000" x2="278.950000" y2="44.000000"  transform="rotate(0.000000,278.950000,44.000000)" style="stroke: black; stroke-width:0.25;"/>
<line x1="281.950000" y1="35.000000" x2="278.950000" y2="36.000000"  transform="rotate(0.000000,278.950000,36.000000)" style="stroke: black; stroke-width:0.25;"/>
<line x1="281.950000" y1="37.000000" x2="278.950000" y2="36.000000"  transform="rotate(0.000000,278.950000,36.000000)" style="stroke: black; stroke-width:0.25;"/>
<line x1="449.200000" y1="164.000000" x2="449.200000" y2="160.000000"  style="stroke:black; stroke-linecap:round; stroke-width:0.25;"/>
<line x1="449.200000" y1="160.000000" x2="453.200000" y2="160.000000"  style="stroke:black; stroke-linecap:round; stroke-width:0.25;"/>
<line x1="453.200000" y1="160.000000" x2="453.200000" y2="164.000000"  style="stroke:black; stroke-linecap:round; stroke-width:0.25;"/>
<line x1="15.000000" y1="15.000000" x2="15.000000" y2="273.000000"  style="stroke: black; stroke-linecap:round; stroke-width:0.25; stroke-dasharray:3,3;"/>
<line x1="15.000000" y1="273.000000" x2="472.200000" y2="273.000000"  style="stroke: black; stroke-linecap:round; stroke-width:0.25; stroke-dasharray:3,3;"/>
<line x1="472.200000" y1="273.000000" x2="472.200000" y2="15.000000"  style="stroke: black; stroke-linecap:round; stroke-width:0.25; stroke-dasharray:3,3;"/>
<line x1="15.000000" y1="15.000000" x2="20.000000" y2="15.000000"  style="stroke: black; stroke-linecap:round; stroke-width:0.25; stroke-dasharray:3,3;"/>
<line x1="94.175000" y1="15.000000" x2="472.200000" y2="15.000000"  style="stroke: black; stroke-linecap:round; stroke-width:0.25; stroke-dasharray:3,3;"/>
<text x="20.000000" y="17.000000" font-family="Arial" font-size="7">loop(0)(6.28319)(265)</text>
<line x1="474.200000" y1="143.000000" x2="477.200000" y2="144.000000"  transform="rotate(0.000000,477.200000,144.000000)" style="stroke: black; stroke-width:0.25;"/>
<line x1="474.200000" y1="145.000000" x2="477.200000" y2="144.000000"  transform="rotate(0.000000,477.200000,144.000000)" style="stroke: black; stroke-width:0.25;"/>
<line x1="55.350000" y1="160.000000" x2="59.350000" y2="160.000000"  style="stroke:black; stroke-linecap:round; stroke-width:0.25;"/>
<line x1="59.350000" y1="160.000000" x2="66.700000" y2="160.000000"  style="stroke:black; stroke-linecap:round; stroke-width:0.25;"/>
<line x1="62.700000" y1="128.000000" x2="66.700000" y2="128.000000"  style="stroke:black; stroke-linecap:round; stroke-width:0.25;"/>
<line x1="66.700000" y1="128.000000" x2="74.700000" y2="128.000000"  style="stroke:black; stroke-linecap:round; stroke-width:0.25;"/>
<line x1="66.700000" y1="148.000000" x2="74.700000" y2="148.000000"  style="stroke:black; stroke-linecap:round; stroke-width:0.25;"/>
<line x1="66.700000" y1="160.000000" x2="66.700000" y2="148.000000"  style="stroke:black; stroke-linecap:round; stroke-width:0.25;"/>
<line x1="66.700000" y1="160.000000" x2="66.700000" y2="160.000000"  style="stroke:black; stroke-linecap:round; stroke-width:0.25;"/>
<line x1="74.700000" y1="128.000000" x2="74.700000" y2="140.000000"  style="stroke:black; stroke-linecap:round; stroke-width:0.25;"/>
<line x1="74.700000" y1="140.000000" x2="74.700000" y2="140.000000"  style="stroke:black; stroke-linecap:round; stroke-width:0.25;"/>
<line x1="74.700000" y1="140.000000" x2="78.700000" y2="140.000000"  style="stroke:black; stroke-linecap:round; stroke-width:0.25;"/>
<line x1="74.700000" y1="148.000000" x2="78.700000" y2="148.000000"  style="stroke:black; stroke-linecap:round; stroke-width:0.25;"/>
<line x1="102.700000" y1="144.000000" x2="106.700000" y2="144.000000"  style="stroke:black; stroke-linecap:round; stroke-width:0.25;"/>
<line x1="106.700000" y1="144.000000" x2="114.700000" y2="144.000000"  style="stroke:black; stroke-linecap:round; stroke-width:0.25;"/>
<line x1="114.700000" y1="264.000000" x2="122.700000" y2="264.000000"  style="stroke:black; stroke-linecap:round; stroke-width:0.25;"/>
<line x1="114.700000" y1="144.000000" x2="114.700000" y2="264.000000"  style="stroke:black; stroke-linecap:round; stroke-width:0.25;"/>
<line x1="114.700000" y1="264.000000" x2="114.700000" y2="264.000000"  style="stroke:black; stroke-linecap:round; stroke-width:0.25;"/>
<line x1="122.700000" y1="264.000000" x2="266.050000" y2="264.000000"  style="stroke:black; stroke-linecap:round; stroke-width:0.25;"/>
<line x1="122.700000" y1="40.000000" x2="122.700000" y2="40.000000"  style="stroke:black; stroke-linecap:round; stroke-width:0.25;"/>
<line x1="122.700000" y1="40.000000" x2="122.700000" y2="64.000000"  style="stroke:black; stroke-linecap:round; stroke-width:0.25;"/>
<line x1="122.700000" y1="64.000000" x2="122.700000" y2="64.000000"  style="stroke:black; stroke-linecap:round; stroke-width:0.25;"/>
<line x1="122.700000" y1="64.000000" x2="206.050000" y2="64.000000"  style="stroke:black; stroke-linecap:round; stroke-width:0.25;"/>
<line x1="158.050000" y1="116.000000" x2="162.050000" y2="116.000000"  style="stroke:black; stroke-linecap:round; stroke-width:0.25;"/>
<line x1="162.050000" y1="116.000000" x2="169.400000" y2="116.000000"  style="stroke:black; stroke-linecap:round; stroke-width:0.25;"/>
<line x1="165.400000" y1="84.000000" x2="169.400000" y2="84.000000"  style="stroke:black; stroke-linecap:round; stroke-width:0.25;"/>
<line x1="169.400000" y1="84.000000" x2="177.400000" y2="84.000000"  style="stroke:black; stroke-linecap:round; stroke-width:0.25;"/>
<line x1="169.400000" y1="104.000000" x2="177.400000" y2="104.000000"  style="stroke:black; stroke-linecap:round; stroke-width:0.25;"/>
<line x1="169.400000" y1="116.000000" x2="169.400000" y2="104.000000"  style="stroke:black; stroke-linecap:round; stroke-width:0.25;"/>
<line x1="169.400000" y1="116.000000" x2="169.400000" y2="116.000000"  style="stroke:black; stroke-linecap:round; stroke-width:0.25;"/>
<line x1="177.400000" y1="84.000000" x2="177.400000" y2="96.000000"  style="stroke:black; stroke-linecap:round; stroke-width:0.25;"/>
<line x1="177.400000" y1="96.000000" x2="177.400000" y2="96.000000"  style="stroke:black; stroke-linecap:round; stroke-width:0.25;"/>
<line x1="177.400000" y1="96.000000" x2="181.400000" y2="96.000000"  style="stroke:black; stroke-linecap:round; stroke-width:0.25;"/>
<line x1="177.400000" y1="104.000000" x2="181.400000" y2="104.000000"  style="stroke:black; stroke-linecap:round; stroke-width:0.25;"/>
<line x1="178.050000" y1="148.000000" x2="182.050000" y2="148.000000"  style="stroke:black; stroke-linecap:round; stroke-width:0.25;"/>
<line x1="182.050000" y1="148.000000" x2="209.400000" y2="148.000000"  style="stroke:black; stroke-linecap:round; stroke-width:0.25;"/>
<line x1="198.050000" y1="180.000000" x2="202.050000" y2="180.000000"  style="stroke:black; stroke-linecap:round; stroke-width:0.25;"/>
<line x1="202.050000" y1="180.000000" x2="249.400000" y2="180.000000"  style="stroke:black; stroke-linecap:round; stroke-width:0.25;"/>
<line x1="205.400000" y1="100.000000" x2="209.400000" y2="100.000000"  style="stroke:black; stroke-linecap:round; stroke-width:0.25;"/>
<line x1="206.050000" y1="64.000000" x2="289.400000" y2="64.000000"  style="stroke:black; stroke-linecap:round; stroke-width:0.25;"/>
<line x1="209.400000" y1="100.000000" x2="217.400000" y2="100.000000"  style="stroke:black; stroke-linecap:round; stroke-width:0.25;"/>
<line x1="209.400000" y1="120.000000" x2="217.400000" y2="120.000000"  style="stroke:black; stroke-linecap:round; stroke-width:0.25;"/>
<line x1="209.400000" y1="148.000000" x2="209.400000" y2="120.000000"  style="stroke:black; stroke-linecap:round; stroke-width:0.25;"/>
<line x1="209.400000" y1="148.000000" x2="209.400000" y2="148.000000"  style="stroke:black; stroke-linecap:round; stroke-width:0.25;"/>
<line x1="217.400000" y1="100.000000" x2="217.400000" y2="112.000000"  style="stroke:black; stroke-linecap:round; stroke-width:0.25;"/>
<line x1="217.400000" y1="112.000000" x2="217.400000" y2="112.000000"  style="stroke:black; stroke-linecap:round; stroke-width:0.25;"/>
<line x1="217.400000" y1="112.000000" x2="221.400000" y2="112.000000"  style="stroke:black; stroke-linecap:round; stroke-width:0.25;"/>
<line x1="217.400000" y1="120.000000" x2="221.400000" y2="120.000000"  style="stroke:black; stroke-linecap:round; stroke-width:0.25;"/>
<line x1="238.050000" y1="212.000000" x2="242.050000" y2="212.000000"  style="stroke:black; stroke-linecap:round; stroke-width:0.25;"/>
<line x1="242.050000" y1="212.000000" x2="329.400000" y2="212.000000"  style="stroke:black; stroke-linecap:round; stroke-width:0.25;"/>
<line x1="245.400000" y1="116.000000" x2="249.400000" y2="116.000000"  style="stroke:black; stroke-linecap:round; stroke-width:0.25;"/>
<line x1="249.400000" y1="116.000000" x2="257.400000" y2="116.000000"  style="stroke:black; stroke-linecap:round; stroke-width:0.25;"/>
<line x1="249.400000" y1="136.000000" x2="257.400000" y2="136.000000"  style="stroke:black; stroke-linecap:round; stroke-width:0.25;"/>
<line x1="249.400000" y1="180.000000" x2="249.400000" y2="136.000000"  style="stroke:black; stroke-linecap:round; stroke-width:0.25;"/>
<line x1="249.400000" y1="180.000000" x2="249.400000" y2="180.000000"  style="stroke:black; stroke-linecap:round; stroke-width:0.25;"/>
<line x1="250.950000" y1="40.000000" x2="122.700000" y2="40.000000"  style="stroke:black; stroke-linecap:round; stroke-width:0.25;"/>
<line x1="254.950000" y1="40.000000" x2="250.950000" y2="40.000000"  style="stroke:black; stroke-linecap:round; stroke-width:0.25;"/>
<line x1="257.400000" y1="116.000000" x2="257.400000" y2="128.000000"  style="stroke:black; stroke-linecap:round; stroke-width:0.25;"/>
<line x1="257.400000" y1="128.000000" x2="257.400000" y2="128.000000"  style="stroke:black; stroke-linecap:round; stroke-width:0.25;"/>
<line x1="257.400000" y1="128.000000" x2="261.400000" y2="128.000000"  style="stroke:black; stroke-linecap:round; stroke-width:0.25;"/>
<line x1="257.400000" y1="136.000000" x2="261.400000" y2="136.000000"  style="stroke:black; stroke-linecap:round; stroke-width:0.25;"/>
<line x1="258.050000" y1="244.000000" x2="262.050000" y2="244.000000"  style="stroke:black; stroke-linecap:round; stroke-width:0.25;"/>
<line x1="262.050000" y1="244.000000" x2="369.400000" y2="244.000000"  style="stroke:black; stroke-linecap:round; stroke-width:0.25;"/>
<line x1="266.050000" y1="264.000000" x2="409.400000" y2="264.000000"  style="stroke:black; stroke-linecap:round; stroke-width:0.25;"/>
<line x1="282.950000" y1="36.000000" x2="278.950000" y2="36.000000"  style="stroke:black; stroke-linecap:round; stroke-width:0.25;"/>
<line x1="282.950000" y1="44.000000" x2="278.950000" y2="44.000000"  style="stroke:black; stroke-linecap:round; stroke-width:0.25;"/>
<line x1="282.950000" y1="44.000000" x2="282.950000" y2="44.000000"  style="stroke:black; stroke-linecap:round; stroke-width:0.25;"/>
<line x1="282.950000" y1="56.000000" x2="282.950000" y2="44.000000"  style="stroke:black; stroke-linecap:round; stroke-width:0.25;"/>
<line x1="285.400000" y1="132.000000" x2="289.400000" y2="132.000000"  style="stroke:black; stroke-linecap:round; stroke-width:0.25;"/>
<line x1="289.400000" y1="64.000000" x2="297.400000" y2="64.000000"  style="stroke:black; stroke-linecap:round; stroke-width:0.25;"/>
<line x1="289.400000" y1="132.000000" x2="297.400000" y2="132.000000"  style="stroke:black; stroke-linecap:round; stroke-width:0.25;"/>
<line x1="290.950000" y1="36.000000" x2="282.950000" y2="36.000000"  style="stroke:black; stroke-linecap:round; stroke-width:0.25;"/>
<line x1="290.950000" y1="56.000000" x2="282.950000" y2="56.000000"  style="stroke:black; stroke-linecap:round; stroke-width:0.25;"/>
<line x1="294.950000" y1="36.000000" x2="290.950000" y2="36.000000"  style="stroke:black; stroke-linecap:round; stroke-width:0.25;"/>
<line x1="297.400000" y1="64.000000" x2="297.400000" y2="124.000000"  style="stroke:black; stroke-linecap:round; stroke-width:0.25;"/>
<line x1="297.400000" y1="124.000000" x2="297.400000" y2="124.000000"  style="stroke:black; stroke-linecap:round; stroke-width:0.25;"/>
<line x1="297.400000" y1="124.000000" x2="301.400000" y2="124.000000"  style="stroke:black; stroke-linecap:round; stroke-width:0.25;"/>
<line x1="297.400000" y1="132.000000" x2="301.400000" y2="132.000000"  style="stroke:black; stroke-linecap:round; stroke-width:0.25;"/>
<line x1="306.950000" y1="56.000000" x2="290.950000" y2="56.000000"  style="stroke:black; stroke-linecap:round; stroke-width:0.25;"/>
<line x1="322.950000" y1="56.000000" x2="306.950000" y2="56.000000"  style="stroke:black; stroke-linecap:round; stroke-width:0.25;"/>
<line x1="325.400000" y1="128.000000" x2="329.400000" y2="128.000000"  style="stroke:black; stroke-linecap:round; stroke-width:0.25;"/>
<line x1="329.400000" y1="128.000000" x2="337.400000" y2="128.000000"  style="stroke:black; stroke-linecap:round; stroke-width:0.25;"/>
<line x1="329.400000" y1="148.000000" x2="337.400000" y2="148.000000"  style="stroke:black; stroke-linecap:round; stroke-width:0.25;"/>
<line x1="329.400000" y1="212.000000" x2="329.400000" y2="148.000000"  style="stroke:black; stroke-linecap:round; stroke-width:0.25;"/>
<line x1="329.400000" y1="212.000000" x2="329.400000" y2="212.000000"  style="stroke:black; stroke-linecap:round; stroke-width:0.25;"/>
<line x1="337.400000" y1="128.000000" x2="337.400000" y2="140.000000"  style="stroke:black; stroke-linecap:round; stroke-width:0.25;"/>
<line x1="337.400000" y1="140.000000" x2="337.400000" y2="140.000000"  style="stroke:black; stroke-linecap:round; stroke-width:0.25;"/>
<line x1="337.400000" y1="140.000000" x2="341.400000" y2="140.000000"  style="stroke:black; stroke-linecap:round; stroke-width:0.25;"/>
<line x1="337.400000" y1="148.000000" x2="341.400000" y2="148.000000"  style="stroke:black; stroke-linecap:round; stroke-width:0.25;"/>
<line x1="365.400000" y1="144.000000" x2="369.400000" y2="144.000000"  style="stroke:black; stroke-linecap:round; stroke-width:0.25;"/>
<line x1="369.400000" y1="144.000000" x2="377.400000" y2="144.000000"  style="stroke:black; stroke-linecap:round; stroke-width:0.25;"/>
<line x1="369.400000" y1="164.000000" x2="377.400000" y2="164.000000"  style="stroke:black; stroke-linecap:round; stroke-width:0.25;"/>
<line x1="369.400000" y1="244.000000" x2="369.400000" y2="164.000000"  style="stroke:black; stroke-linecap:round; stroke-width:0.25;"/>
<line x1="369.400000" y1="244.000000" x2="369.400000" y2="244.000000"  style="stroke:black; stroke-linecap:round; stroke-width:0.25;"/>
<line x1="377.400000" y1="144.000000" x2="377.400000" y2="156.000000"  style="stroke:black; stroke-linecap:round; stroke-width:0.25;"/>
<line x1="377.400000" y1="156.000000" x2="377.400000" y2="156.000000"  style="stroke:black; stroke-linecap:round; stroke-width:0.25;"/>
<line x1="377.400000" y1="156.000000" x2="381.400000" y2="156.000000"  style="stroke:black; stroke-linecap:round; stroke-width:0.25;"/>
<line x1="377.400000" y1="164.000000" x2="381.400000" y2="164.000000"  style="stroke:black; stroke-linecap:round; stroke-width:0.25;"/>
<line x1="405.400000" y1="160.000000" x2="409.400000" y2="160.000000"  style="stroke:black; stroke-linecap:round; stroke-width:0.25;"/>
<line x1="409.400000" y1="160.000000" x2="417.400000" y2="160.000000"  style="stroke:black; stroke-linecap:round; stroke-width:0.25;"/>
<line x1="409.400000" y1="168.000000" x2="417.400000" y2="168.000000"  style="stroke:black; stroke-linecap:round; stroke-width:0.25;"/>
<line x1="409.400000" y1="264.000000" x2="409.400000" y2="168.000000"  style="stroke:black; stroke-linecap:round; stroke-width:0.25;"/>
<line x1="409.400000" y1="264.000000" x2="409.400000" y2="264.000000"  style="stroke:black; stroke-linecap:round; stroke-width:0.25;"/>
<line x1="417.400000" y1="160.000000" x2="421.400000" y2="160.000000"  style="stroke:black; stroke-linecap:round; stroke-width:0.25;"/>
<line x1="417.400000" y1="168.000000" x2="421.400000" y2="168.000000"  style="stroke:black; stroke-linecap:round; stroke-width:0.25;"/>
<line x1="447.200000" y1="164.000000" x2="451.200000" y2="164.000000"  style="stroke:black; stroke-linecap:round; stroke-width:0.25;"/>
<line x1="451.200000" y1="56.000000" x2="322.950000" y2="56.000000"  style="stroke:black; stroke-linecap:round; stroke-width:0.25;"/>
<line x1="451.200000" y1="56.000000" x2="451.200000" y2="56.000000"  style="stroke:black; stroke-linecap:round; stroke-width:0.25;"/>
<line x1="451.200000" y1="160.000000" x2="451.200000" y2="56.000000"  style="stroke:black; stroke-linecap:round; stroke-width:0.25;"/>
<line x1="451.200000" y1="164.000000" x2="453.200000" y2="164.000000"  style="stroke:black; stroke-linecap:round; stroke-width:0.25;"/>
<line x1="453.200000" y1="164.000000" x2="459.200000" y2="164.000000"  style="stroke:black; stroke-linecap:round; stroke-width:0.25;"/>
<line x1="459.200000" y1="144.000000" x2="467.200000" y2="144.000000"  style="stroke:black; stroke-linecap:round; stroke-width:0.25;"/>
<line x1="459.200000" y1="164.000000" x2="459.200000" y2="144.000000"  style="stroke:black; stroke-linecap:round; stroke-width:0.25;"/>
<line x1="459.200000" y1="164.000000" x2="459.200000" y2="164.000000"  style="stroke:black; stroke-linecap:round; stroke-width:0.25;"/>
<line x1="467.200000" y1="144.000000" x2="477.200000" y2="144.000000"  style="stroke:black; stroke-linecap:round; stroke-width:0.25;"/>
</svg>
