<?xml version="1.0"?>
<svg xmlns="http://www.w3.org/2000/svg" xmlns:xlink="http://www.w3.org/1999/xlink" viewBox="0 0 457.800000 248.000000" width="228.900000mm" height="124.000000mm" version="1.1">
<defs>
   <filter id="filter" filterRes="18" x="0" y="0">
     <feGaussianBlur in="SourceGraphic" stdDeviation="1.55" result="blur"/>
     <feOffset in="blur" dx="3" dy="3"/>
   </filter>
</defs>
<a xlink:href="process.svg">
<rect x="1.000000" y="1.000000" width="456.800000" height="247.000000" rx="0.1" ry="0.1" style="stroke:none;fill:#aaaaaa;;filter:url(#filter);"/>
<rect x="0.000000" y="0.000000" width="456.800000" height="247.000000" rx="0" ry="0" style="stroke:none;fill:#ffffff;"/>
</a>
<text x="10.000000" y="7.000000" font-family="Arial" font-size="7"></text>
<rect x="33.000000" y="73.000000" width="24.000000" height="24.000000" rx="0.1" ry="0.1" style="stroke:none;fill:#aaaaaa;;filter:url(#filter);"/>
<rect x="32.000000" y="72.000000" width="24.000000" height="24.000000" rx="0" ry="0" style="stroke:none;fill:#f44800;"/>
<text x="44.000000" y="86.000000" font-family="Arial" font-size="7" text-anchor="middle" fill="#FFFFFF">1</text>
<circle cx="34.000000" cy="74.000000" r="1"/>
<rect x="33.000000" y="105.000000" width="24.000000" height="24.000000" rx="0.1" ry="0.1" style="stroke:none;fill:#aaaaaa;;filter:url(#filter);"/>
<rect x="32.000000" y="104.000000" width="24.000000" height="24.000000" rx="0" ry="0" style="stroke:none;fill:#f44800;"/>
<text x="44.000000" y="118.000000" font-family="Arial" font-size="7" text-anchor="middle" fill="#FFFFFF">0</text>
<circle cx="34.000000" cy="106.000000" r="1"/>
<rect x="73.000000" y="89.000000" width="24.000000" height="24.000000" rx="0.1" ry="0.1" style="stroke:none;fill:#aaaaaa;;filter:url(#filter);"/>
<rect x="72.000000" y="88.000000" width="24.000000" height="24.000000" rx="0" ry="0" style="stroke:none;fill:#4B71A1;"/>
<text x="84.000000" y="102.000000" font-family="Arial" font-size="7" text-anchor="middle" fill="#FFFFFF">-</text>
<circle cx="74.000000" cy="90.000000" r="1"/>
<line x1="69.000000" y1="95.000000" x2="72.000000" y2="96.000000"  transform="rotate(0.000000,72.000000,96.000000)" style="stroke: black; stroke-width:0.25;"/>
<line x1="69.000000" y1="97.000000" x2="72.000000" y2="96.000000"  transform="rotate(0.000000,72.000000,96.000000)" style="stroke: black; stroke-width:0.25;"/>
<line x1="69.000000" y1="103.000000" x2="72.000000" y2="104.000000"  transform="rotate(0.000000,72.000000,104.000000)" style="stroke: black; stroke-width:0.25;"/>
<line x1="69.000000" y1="105.000000" x2="72.000000" y2="104.000000"  transform="rotate(0.000000,72.000000,104.000000)" style="stroke: black; stroke-width:0.25;"/>
<rect x="53.000000" y="137.000000" width="24.000000" height="24.000000" rx="0.1" ry="0.1" style="stroke:none;fill:#aaaaaa;;filter:url(#filter);"/>
<rect x="52.000000" y="136.000000" width="24.000000" height="24.000000" rx="0" ry="0" style="stroke:none;fill:#f44800;"/>
<text x="64.000000" y="150.000000" font-family="Arial" font-size="7" text-anchor="middle" fill="#FFFFFF">265</text>
<circle cx="54.000000" cy="138.000000" r="1"/>
<rect x="113.000000" y="105.000000" width="24.000000" height="24.000000" rx="0.1" ry="0.1" style="stroke:none;fill:#aaaaaa;;filter:url(#filter);"/>
<rect x="112.000000" y="104.000000" width="24.000000" height="24.000000" rx="0" ry="0" style="stroke:none;fill:#4B71A1;"/>
<text x="124.000000" y="118.000000" font-family="Arial" font-size="7" text-anchor="middle" fill="#FFFFFF">*</text>
<circle cx="114.000000" cy="106.000000" r="1"/>
<line x1="109.000000" y1="111.000000" x2="112.000000" y2="112.000000"  transform="rotate(0.000000,112.000000,112.000000)" style="stroke: black; stroke-width:0.25;"/>
<line x1="109.000000" y1="113.000000" x2="112.000000" y2="112.000000"  transform="rotate(0.000000,112.000000,112.000000)" style="stroke: black; stroke-width:0.25;"/>
<line x1="109.000000" y1="119.000000" x2="112.000000" y2="120.000000"  transform="rotate(0.000000,112.000000,120.000000)" style="stroke: black; stroke-width:0.25;"/>
<line x1="109.000000" y1="121.000000" x2="112.000000" y2="120.000000"  transform="rotate(0.000000,112.000000,120.000000)" style="stroke: black; stroke-width:0.25;"/>
<a xlink:href="SR-0x19957a0.svg">
<rect x="73.000000" y="169.000000" width="24.000000" height="24.000000" rx="0.1" ry="0.1" style="stroke:none;fill:#aaaaaa;;filter:url(#filter);"/>
<rect x="72.000000" y="168.000000" width="24.000000" height="24.000000" rx="0" ry="0" style="stroke:none;fill:#003366;"/>
</a>
<a xlink:href="SR-0x19957a0.svg">
<text x="84.000000" y="182.000000" font-family="Arial" font-size="7" text-anchor="middle" fill="#FFFFFF">SR</text>
</a>
<circle cx="74.000000" cy="170.000000" r="1"/>
<rect x="153.000000" y="121.000000" width="24.000000" height="24.000000" rx="0.1" ry="0.1" style="stroke:none;fill:#aaaaaa;;filter:url(#filter);"/>
<rect x="152.000000" y="120.000000" width="24.000000" height="24.000000" rx="0" ry="0" style="stroke:none;fill:#4B71A1;"/>
<text x="164.000000" y="134.000000" font-family="Arial" font-size="7" text-anchor="middle" fill="#FFFFFF">/</text>
<circle cx="154.000000" cy="122.000000" r="1"/>
<line x1="149.000000" y1="127.000000" x2="152.000000" y2="128.000000"  transform="rotate(0.000000,152.000000,128.000000)" style="stroke: black; stroke-width:0.25;"/>
<line x1="149.000000" y1="129.000000" x2="152.000000" y2="128.000000"  transform="rotate(0.000000,152.000000,128.000000)" style="stroke: black; stroke-width:0.25;"/>
<line x1="149.000000" y1="135.000000" x2="152.000000" y2="136.000000"  transform="rotate(0.000000,152.000000,136.000000)" style="stroke: black; stroke-width:0.25;"/>
<line x1="149.000000" y1="137.000000" x2="152.000000" y2="136.000000"  transform="rotate(0.000000,152.000000,136.000000)" style="stroke: black; stroke-width:0.25;"/>
<rect x="193.000000" y="117.000000" width="24.000000" height="24.000000" rx="0.1" ry="0.1" style="stroke:none;fill:#aaaaaa;;filter:url(#filter);"/>
<rect x="192.000000" y="116.000000" width="24.000000" height="24.000000" rx="0" ry="0" style="stroke:none;fill:#4B71A1;"/>
<text x="204.000000" y="130.000000" font-family="Arial" font-size="7" text-anchor="middle" fill="#FFFFFF">+</text>
<circle cx="194.000000" cy="118.000000" r="1"/>
<line x1="189.000000" y1="123.000000" x2="192.000000" y2="124.000000"  transform="rotate(0.000000,192.000000,124.000000)" style="stroke: black; stroke-width:0.25;"/>
<line x1="189.000000" y1="125.000000" x2="192.000000" y2="124.000000"  transform="rotate(0.000000,192.000000,124.000000)" style="stroke: black; stroke-width:0.25;"/>
<line x1="189.000000" y1="131.000000" x2="192.000000" y2="132.000000"  transform="rotate(0.000000,192.000000,132.000000)" style="stroke: black; stroke-width:0.25;"/>
<line x1="189.000000" y1="133.000000" x2="192.000000" y2="132.000000"  transform="rotate(0.000000,192.000000,132.000000)" style="stroke: black; stroke-width:0.25;"/>
<rect x="113.000000" y="201.000000" width="24.000000" height="24.000000" rx="0.1" ry="0.1" style="stroke:none;fill:#aaaaaa;;filter:url(#filter);"/>
<rect x="112.000000" y="200.000000" width="24.000000" height="24.000000" rx="0" ry="0" style="stroke:none;fill:#f44800;"/>
<text x="124.000000" y="214.000000" font-family="Arial" font-size="7" text-anchor="middle" fill="#FFFFFF">0</text>
<circle cx="114.000000" cy="202.000000" r="1"/>
<rect x="233.000000" y="133.000000" width="24.000000" height="24.000000" rx="0.1" ry="0.1" style="stroke:none;fill:#aaaaaa;;filter:url(#filter);"/>
<rect x="232.000000" y="132.000000" width="24.000000" height="24.000000" rx="0" ry="0" style="stroke:none;fill:#4B71A1;"/>
<text x="244.000000" y="146.000000" font-family="Arial" font-size="7" text-anchor="middle" fill="#FFFFFF">-</text>
<circle cx="234.000000" cy="134.000000" r="1"/>
<line x1="229.000000" y1="139.000000" x2="232.000000" y2="140.000000"  transform="rotate(0.000000,232.000000,140.000000)" style="stroke: black; stroke-width:0.25;"/>
<line x1="229.000000" y1="141.000000" x2="232.000000" y2="140.000000"  transform="rotate(0.000000,232.000000,140.000000)" style="stroke: black; stroke-width:0.25;"/>
<line x1="229.000000" y1="147.000000" x2="232.000000" y2="148.000000"  transform="rotate(0.000000,232.000000,148.000000)" style="stroke: black; stroke-width:0.25;"/>
<line x1="229.000000" y1="149.000000" x2="232.000000" y2="148.000000"  transform="rotate(0.000000,232.000000,148.000000)" style="stroke: black; stroke-width:0.25;"/>
<rect x="273.000000" y="97.000000" width="24.000000" height="24.000000" rx="0.1" ry="0.1" style="stroke:none;fill:#aaaaaa;;filter:url(#filter);"/>
<rect x="272.000000" y="96.000000" width="24.000000" height="24.000000" rx="0" ry="0" style="stroke:none;fill:#f44800;"/>
<text x="284.000000" y="110.000000" font-family="Arial" font-size="7" text-anchor="middle" fill="#FFFFFF">1</text>
<circle cx="274.000000" cy="98.000000" r="1"/>
<rect x="273.000000" y="129.000000" width="24.000000" height="24.000000" rx="0.1" ry="0.1" style="stroke:none;fill:#aaaaaa;;filter:url(#filter);"/>
<rect x="272.000000" y="128.000000" width="24.000000" height="24.000000" rx="0" ry="0" style="stroke:none;fill:#f44800;"/>
<text x="284.000000" y="142.000000" font-family="Arial" font-size="7" text-anchor="middle" fill="#FFFFFF">0</text>
<circle cx="274.000000" cy="130.000000" r="1"/>
<rect x="313.000000" y="113.000000" width="24.000000" height="24.000000" rx="0.1" ry="0.1" style="stroke:none;fill:#aaaaaa;;filter:url(#filter);"/>
<rect x="312.000000" y="112.000000" width="24.000000" height="24.000000" rx="0" ry="0" style="stroke:none;fill:#4B71A1;"/>
<text x="324.000000" y="126.000000" font-family="Arial" font-size="7" text-anchor="middle" fill="#FFFFFF">-</text>
<circle cx="314.000000" cy="114.000000" r="1"/>
<line x1="309.000000" y1="119.000000" x2="312.000000" y2="120.000000"  transform="rotate(0.000000,312.000000,120.000000)" style="stroke: black; stroke-width:0.25;"/>
<line x1="309.000000" y1="121.000000" x2="312.000000" y2="120.000000"  transform="rotate(0.000000,312.000000,120.000000)" style="stroke: black; stroke-width:0.25;"/>
<line x1="309.000000" y1="127.000000" x2="312.000000" y2="128.000000"  transform="rotate(0.000000,312.000000,128.000000)" style="stroke: black; stroke-width:0.25;"/>
<line x1="309.000000" y1="129.000000" x2="312.000000" y2="128.000000"  transform="rotate(0.000000,312.000000,128.000000)" style="stroke: black; stroke-width:0.25;"/>
<rect x="353.000000" y="117.000000" width="25.800000" height="24.000000" rx="0.1" ry="0.1" style="stroke:none;fill:#aaaaaa;;filter:url(#filter);"/>
<rect x="352.000000" y="116.000000" width="25.800000" height="24.000000" rx="0" ry="0" style="stroke:none;fill:#4B71A1;"/>
<text x="364.900000" y="130.000000" font-family="Arial" font-size="7" text-anchor="middle" fill="#FFFFFF">fmodf</text>
<circle cx="354.000000" cy="118.000000" r="1"/>
<line x1="349.000000" y1="123.000000" x2="352.000000" y2="124.000000"  transform="rotate(0.000000,352.000000,124.000000)" style="stroke: black; stroke-width:0.25;"/>
<line x1="349.000000" y1="125.000000" x2="352.000000" y2="124.000000"  transform="rotate(0.000000,352.000000,124.000000)" style="stroke: black; stroke-width:0.25;"/>
<line x1="349.000000" y1="131.000000" x2="352.000000" y2="132.000000"  transform="rotate(0.000000,352.000000,132.000000)" style="stroke: black; stroke-width:0.25;"/>
<line x1="349.000000" y1="133.000000" x2="352.000000" y2="132.000000"  transform="rotate(0.000000,352.000000,132.000000)" style="stroke: black; stroke-width:0.25;"/>
<rect x="313.900000" y="169.000000" width="24.000000" height="24.000000" rx="0.1" ry="0.1" style="stroke:none;fill:#aaaaaa;;filter:url(#filter);"/>
<rect x="312.900000" y="168.000000" width="24.000000" height="24.000000" rx="0" ry="0" style="stroke:none;fill:#f44800;"/>
<text x="324.900000" y="182.000000" font-family="Arial" font-size="7" text-anchor="middle" fill="#FFFFFF">0</text>
<circle cx="314.900000" cy="170.000000" r="1"/>
<rect x="394.800000" y="133.000000" width="24.000000" height="24.000000" rx="0.1" ry="0.1" style="stroke:none;fill:#aaaaaa;;filter:url(#filter);"/>
<rect x="393.800000" y="132.000000" width="24.000000" height="24.000000" rx="0" ry="0" style="stroke:none;fill:#4B71A1;"/>
<text x="405.800000" y="146.000000" font-family="Arial" font-size="7" text-anchor="middle" fill="#FFFFFF">+</text>
<circle cx="395.800000" cy="134.000000" r="1"/>
<line x1="390.800000" y1="139.000000" x2="393.800000" y2="140.000000"  transform="rotate(0.000000,393.800000,140.000000)" style="stroke: black; stroke-width:0.25;"/>
<line x1="390.800000" y1="141.000000" x2="393.800000" y2="140.000000"  transform="rotate(0.000000,393.800000,140.000000)" style="stroke: black; stroke-width:0.25;"/>
<line x1="390.800000" y1="147.000000" x2="393.800000" y2="148.000000"  transform="rotate(0.000000,393.800000,148.000000)" style="stroke: black; stroke-width:0.25;"/>
<line x1="390.800000" y1="149.000000" x2="393.800000" y2="148.000000"  transform="rotate(0.000000,393.800000,148.000000)" style="stroke: black; stroke-width:0.25;"/>
<rect x="233.900000" y="25.000000" width="24.000000" height="24.000000" rx="0.1" ry="0.1" style="stroke:none;fill:#aaaaaa;;filter:url(#filter);"/>
<rect x="232.900000" y="24.000000" width="24.000000" height="24.000000" rx="0" ry="0" style="stroke:none;fill:#f44800;"/>
<text x="244.900000" y="38.000000" font-family="Arial" font-size="7" text-anchor="middle" fill="#FFFFFF">1</text>
<circle cx="254.900000" cy="46.000000" r="1"/>
<rect x="193.900000" y="29.000000" width="24.000000" height="24.000000" rx="0.1" ry="0.1" style="stroke:none;fill:#aaaaaa;;filter:url(#filter);"/>
<rect x="192.900000" y="28.000000" width="24.000000" height="24.000000" rx="0" ry="0" style="stroke:none;fill:#4B71A1;"/>
<text x="204.900000" y="42.000000" font-family="Arial" font-size="7" text-anchor="middle" fill="#FFFFFF">@</text>
<circle cx="214.900000" cy="50.000000" r="1"/>
<line x1="219.900000" y1="43.000000" x2="216.900000" y2="44.000000"  transform="rotate(0.000000,216.900000,44.000000)" style="stroke: black; stroke-width:0.25;"/>
<line x1="219.900000" y1="45.000000" x2="216.900000" y2="44.000000"  transform="rotate(0.000000,216.900000,44.000000)" style="stroke: black; stroke-width:0.25;"/>
<line x1="219.900000" y1="35.000000" x2="216.900000" y2="36.000000"  transform="rotate(0.000000,216.900000,36.000000)" style="stroke: black; stroke-width:0.25;"/>
<line x1="219.900000" y1="37.000000" x2="216.900000" y2="36.000000"  transform="rotate(0.000000,216.900000,36.000000)" style="stroke: black; stroke-width:0.25;"/>
<line x1="419.800000" y1="144.000000" x2="419.800000" y2="140.000000"  style="stroke:black; stroke-linecap:round; stroke-width:0.25;"/>
<line x1="419.800000" y1="140.000000" x2="423.800000" y2="140.000000"  style="stroke:black; stroke-linecap:round; stroke-width:0.25;"/>
<line x1="423.800000" y1="140.000000" x2="423.800000" y2="144.000000"  style="stroke:black; stroke-linecap:round; stroke-width:0.25;"/>
<line x1="15.000000" y1="15.000000" x2="15.000000" y2="233.000000"  style="stroke: black; stroke-linecap:round; stroke-width:0.25; stroke-dasharray:3,3;"/>
<line x1="15.000000" y1="233.000000" x2="442.800000" y2="233.000000"  style="stroke: black; stroke-linecap:round; stroke-width:0.25; stroke-dasharray:3,3;"/>
<line x1="442.800000" y1="233.000000" x2="442.800000" y2="15.000000"  style="stroke: black; stroke-linecap:round; stroke-width:0.25; stroke-dasharray:3,3;"/>
<line x1="15.000000" y1="15.000000" x2="20.000000" y2="15.000000"  style="stroke: black; stroke-linecap:round; stroke-width:0.25; stroke-dasharray:3,3;"/>
<line x1="74.825000" y1="15.000000" x2="442.800000" y2="15.000000"  style="stroke: black; stroke-linecap:round; stroke-width:0.25; stroke-dasharray:3,3;"/>
<text x="20.000000" y="17.000000" font-family="Arial" font-size="7">loop(0)(1)(265)</text>
<line x1="444.800000" y1="123.000000" x2="447.800000" y2="124.000000"  transform="rotate(0.000000,447.800000,124.000000)" style="stroke: black; stroke-width:0.25;"/>
<line x1="444.800000" y1="125.000000" x2="447.800000" y2="124.000000"  transform="rotate(0.000000,447.800000,124.000000)" style="stroke: black; stroke-width:0.25;"/>
<line x1="28.000000" y1="40.000000" x2="28.000000" y2="40.000000"  style="stroke:black; stroke-linecap:round; stroke-width:0.25;"/>
<line x1="28.000000" y1="40.000000" x2="28.000000" y2="64.000000"  style="stroke:black; stroke-linecap:round; stroke-width:0.25;"/>
<line x1="28.000000" y1="64.000000" x2="28.000000" y2="64.000000"  style="stroke:black; stroke-linecap:round; stroke-width:0.25;"/>
<line x1="28.000000" y1="64.000000" x2="104.000000" y2="64.000000"  style="stroke:black; stroke-linecap:round; stroke-width:0.25;"/>
<line x1="56.000000" y1="84.000000" x2="60.000000" y2="84.000000"  style="stroke:black; stroke-linecap:round; stroke-width:0.25;"/>
<line x1="56.000000" y1="116.000000" x2="60.000000" y2="116.000000"  style="stroke:black; stroke-linecap:round; stroke-width:0.25;"/>
<line x1="60.000000" y1="84.000000" x2="68.000000" y2="84.000000"  style="stroke:black; stroke-linecap:round; stroke-width:0.25;"/>
<line x1="60.000000" y1="104.000000" x2="68.000000" y2="104.000000"  style="stroke:black; stroke-linecap:round; stroke-width:0.25;"/>
<line x1="60.000000" y1="116.000000" x2="60.000000" y2="104.000000"  style="stroke:black; stroke-linecap:round; stroke-width:0.25;"/>
<line x1="60.000000" y1="116.000000" x2="60.000000" y2="116.000000"  style="stroke:black; stroke-linecap:round; stroke-width:0.25;"/>
<line x1="68.000000" y1="84.000000" x2="68.000000" y2="96.000000"  style="stroke:black; stroke-linecap:round; stroke-width:0.25;"/>
<line x1="68.000000" y1="96.000000" x2="68.000000" y2="96.000000"  style="stroke:black; stroke-linecap:round; stroke-width:0.25;"/>
<line x1="68.000000" y1="96.000000" x2="72.000000" y2="96.000000"  style="stroke:black; stroke-linecap:round; stroke-width:0.25;"/>
<line x1="68.000000" y1="104.000000" x2="72.000000" y2="104.000000"  style="stroke:black; stroke-linecap:round; stroke-width:0.25;"/>
<line x1="76.000000" y1="148.000000" x2="80.000000" y2="148.000000"  style="stroke:black; stroke-linecap:round; stroke-width:0.25;"/>
<line x1="80.000000" y1="148.000000" x2="100.000000" y2="148.000000"  style="stroke:black; stroke-linecap:round; stroke-width:0.25;"/>
<line x1="96.000000" y1="100.000000" x2="100.000000" y2="100.000000"  style="stroke:black; stroke-linecap:round; stroke-width:0.25;"/>
<line x1="96.000000" y1="180.000000" x2="100.000000" y2="180.000000"  style="stroke:black; stroke-linecap:round; stroke-width:0.25;"/>
<line x1="100.000000" y1="100.000000" x2="108.000000" y2="100.000000"  style="stroke:black; stroke-linecap:round; stroke-width:0.25;"/>
<line x1="100.000000" y1="120.000000" x2="108.000000" y2="120.000000"  style="stroke:black; stroke-linecap:round; stroke-width:0.25;"/>
<line x1="100.000000" y1="148.000000" x2="100.000000" y2="120.000000"  style="stroke:black; stroke-linecap:round; stroke-width:0.25;"/>
<line x1="100.000000" y1="148.000000" x2="100.000000" y2="148.000000"  style="stroke:black; stroke-linecap:round; stroke-width:0.25;"/>
<line x1="100.000000" y1="180.000000" x2="140.000000" y2="180.000000"  style="stroke:black; stroke-linecap:round; stroke-width:0.25;"/>
<line x1="104.000000" y1="64.000000" x2="180.000000" y2="64.000000"  style="stroke:black; stroke-linecap:round; stroke-width:0.25;"/>
<line x1="108.000000" y1="100.000000" x2="108.000000" y2="112.000000"  style="stroke:black; stroke-linecap:round; stroke-width:0.25;"/>
<line x1="108.000000" y1="112.000000" x2="108.000000" y2="112.000000"  style="stroke:black; stroke-linecap:round; stroke-width:0.25;"/>
<line x1="108.000000" y1="112.000000" x2="112.000000" y2="112.000000"  style="stroke:black; stroke-linecap:round; stroke-width:0.25;"/>
<line x1="108.000000" y1="120.000000" x2="112.000000" y2="120.000000"  style="stroke:black; stroke-linecap:round; stroke-width:0.25;"/>
<line x1="136.000000" y1="116.000000" x2="140.000000" y2="116.000000"  style="stroke:black; stroke-linecap:round; stroke-width:0.25;"/>
<line x1="136.000000" y1="212.000000" x2="140.000000" y2="212.000000"  style="stroke:black; stroke-linecap:round; stroke-width:0.25;"/>
<line x1="140.000000" y1="116.000000" x2="148.000000" y2="116.000000"  style="stroke:black; stroke-linecap:round; stroke-width:0.25;"/>
<line x1="140.000000" y1="136.000000" x2="148.000000" y2="136.000000"  style="stroke:black; stroke-linecap:round; stroke-width:0.25;"/>
<line x1="140.000000" y1="180.000000" x2="140.000000" y2="136.000000"  style="stroke:black; stroke-linecap:round; stroke-width:0.25;"/>
<line x1="140.000000" y1="180.000000" x2="140.000000" y2="180.000000"  style="stroke:black; stroke-linecap:round; stroke-width:0.25;"/>
<line x1="140.000000" y1="212.000000" x2="220.000000" y2="212.000000"  style="stroke:black; stroke-linecap:round; stroke-width:0.25;"/>
<line x1="148.000000" y1="116.000000" x2="148.000000" y2="128.000000"  style="stroke:black; stroke-linecap:round; stroke-width:0.25;"/>
<line x1="148.000000" y1="128.000000" x2="148.000000" y2="128.000000"  style="stroke:black; stroke-linecap:round; stroke-width:0.25;"/>
<line x1="148.000000" y1="128.000000" x2="152.000000" y2="128.000000"  style="stroke:black; stroke-linecap:round; stroke-width:0.25;"/>
<line x1="148.000000" y1="136.000000" x2="152.000000" y2="136.000000"  style="stroke:black; stroke-linecap:round; stroke-width:0.25;"/>
<line x1="176.000000" y1="132.000000" x2="180.000000" y2="132.000000"  style="stroke:black; stroke-linecap:round; stroke-width:0.25;"/>
<line x1="180.000000" y1="64.000000" x2="188.000000" y2="64.000000"  style="stroke:black; stroke-linecap:round; stroke-width:0.25;"/>
<line x1="180.000000" y1="132.000000" x2="188.000000" y2="132.000000"  style="stroke:black; stroke-linecap:round; stroke-width:0.25;"/>
<line x1="188.000000" y1="64.000000" x2="188.000000" y2="124.000000"  style="stroke:black; stroke-linecap:round; stroke-width:0.25;"/>
<line x1="188.000000" y1="124.000000" x2="188.000000" y2="124.000000"  style="stroke:black; stroke-linecap:round; stroke-width:0.25;"/>
<line x1="188.000000" y1="124.000000" x2="192.000000" y2="124.000000"  style="stroke:black; stroke-linecap:round; stroke-width:0.25;"/>
<line x1="188.000000" y1="132.000000" x2="192.000000" y2="132.000000"  style="stroke:black; stroke-linecap:round; stroke-width:0.25;"/>
<line x1="188.900000" y1="40.000000" x2="28.000000" y2="40.000000"  style="stroke:black; stroke-linecap:round; stroke-width:0.25;"/>
<line x1="192.900000" y1="40.000000" x2="188.900000" y2="40.000000"  style="stroke:black; stroke-linecap:round; stroke-width:0.25;"/>
<line x1="216.000000" y1="128.000000" x2="220.000000" y2="128.000000"  style="stroke:black; stroke-linecap:round; stroke-width:0.25;"/>
<line x1="220.000000" y1="128.000000" x2="228.000000" y2="128.000000"  style="stroke:black; stroke-linecap:round; stroke-width:0.25;"/>
<line x1="220.000000" y1="148.000000" x2="228.000000" y2="148.000000"  style="stroke:black; stroke-linecap:round; stroke-width:0.25;"/>
<line x1="220.000000" y1="212.000000" x2="220.000000" y2="148.000000"  style="stroke:black; stroke-linecap:round; stroke-width:0.25;"/>
<line x1="220.000000" y1="212.000000" x2="220.000000" y2="212.000000"  style="stroke:black; stroke-linecap:round; stroke-width:0.25;"/>
<line x1="220.900000" y1="36.000000" x2="216.900000" y2="36.000000"  style="stroke:black; stroke-linecap:round; stroke-width:0.25;"/>
<line x1="220.900000" y1="44.000000" x2="216.900000" y2="44.000000"  style="stroke:black; stroke-linecap:round; stroke-width:0.25;"/>
<line x1="220.900000" y1="44.000000" x2="220.900000" y2="44.000000"  style="stroke:black; stroke-linecap:round; stroke-width:0.25;"/>
<line x1="220.900000" y1="56.000000" x2="220.900000" y2="44.000000"  style="stroke:black; stroke-linecap:round; stroke-width:0.25;"/>
<line x1="228.000000" y1="128.000000" x2="228.000000" y2="140.000000"  style="stroke:black; stroke-linecap:round; stroke-width:0.25;"/>
<line x1="228.000000" y1="140.000000" x2="228.000000" y2="140.000000"  style="stroke:black; stroke-linecap:round; stroke-width:0.25;"/>
<line x1="228.000000" y1="140.000000" x2="232.000000" y2="140.000000"  style="stroke:black; stroke-linecap:round; stroke-width:0.25;"/>
<line x1="228.000000" y1="148.000000" x2="232.000000" y2="148.000000"  style="stroke:black; stroke-linecap:round; stroke-width:0.25;"/>
<line x1="228.900000" y1="36.000000" x2="220.900000" y2="36.000000"  style="stroke:black; stroke-linecap:round; stroke-width:0.25;"/>
<line x1="228.900000" y1="56.000000" x2="220.900000" y2="56.000000"  style="stroke:black; stroke-linecap:round; stroke-width:0.25;"/>
<line x1="232.900000" y1="36.000000" x2="228.900000" y2="36.000000"  style="stroke:black; stroke-linecap:round; stroke-width:0.25;"/>
<line x1="244.900000" y1="56.000000" x2="228.900000" y2="56.000000"  style="stroke:black; stroke-linecap:round; stroke-width:0.25;"/>
<line x1="256.000000" y1="144.000000" x2="260.000000" y2="144.000000"  style="stroke:black; stroke-linecap:round; stroke-width:0.25;"/>
<line x1="260.000000" y1="144.000000" x2="268.000000" y2="144.000000"  style="stroke:black; stroke-linecap:round; stroke-width:0.25;"/>
<line x1="260.900000" y1="56.000000" x2="244.900000" y2="56.000000"  style="stroke:black; stroke-linecap:round; stroke-width:0.25;"/>
<line x1="268.000000" y1="144.000000" x2="268.000000" y2="160.000000"  style="stroke:black; stroke-linecap:round; stroke-width:0.25;"/>
<line x1="268.000000" y1="160.000000" x2="268.000000" y2="160.000000"  style="stroke:black; stroke-linecap:round; stroke-width:0.25;"/>
<line x1="268.000000" y1="160.000000" x2="304.000000" y2="160.000000"  style="stroke:black; stroke-linecap:round; stroke-width:0.25;"/>
<line x1="296.000000" y1="108.000000" x2="300.000000" y2="108.000000"  style="stroke:black; stroke-linecap:round; stroke-width:0.25;"/>
<line x1="296.000000" y1="140.000000" x2="300.000000" y2="140.000000"  style="stroke:black; stroke-linecap:round; stroke-width:0.25;"/>
<line x1="300.000000" y1="108.000000" x2="308.000000" y2="108.000000"  style="stroke:black; stroke-linecap:round; stroke-width:0.25;"/>
<line x1="300.000000" y1="128.000000" x2="308.000000" y2="128.000000"  style="stroke:black; stroke-linecap:round; stroke-width:0.25;"/>
<line x1="300.000000" y1="140.000000" x2="300.000000" y2="128.000000"  style="stroke:black; stroke-linecap:round; stroke-width:0.25;"/>
<line x1="300.000000" y1="140.000000" x2="300.000000" y2="140.000000"  style="stroke:black; stroke-linecap:round; stroke-width:0.25;"/>
<line x1="304.000000" y1="160.000000" x2="340.000000" y2="160.000000"  style="stroke:black; stroke-linecap:round; stroke-width:0.25;"/>
<line x1="308.000000" y1="108.000000" x2="308.000000" y2="120.000000"  style="stroke:black; stroke-linecap:round; stroke-width:0.25;"/>
<line x1="308.000000" y1="120.000000" x2="308.000000" y2="120.000000"  style="stroke:black; stroke-linecap:round; stroke-width:0.25;"/>
<line x1="308.000000" y1="120.000000" x2="312.000000" y2="120.000000"  style="stroke:black; stroke-linecap:round; stroke-width:0.25;"/>
<line x1="308.000000" y1="128.000000" x2="312.000000" y2="128.000000"  style="stroke:black; stroke-linecap:round; stroke-width:0.25;"/>
<line x1="336.000000" y1="124.000000" x2="340.000000" y2="124.000000"  style="stroke:black; stroke-linecap:round; stroke-width:0.25;"/>
<line x1="336.900000" y1="180.000000" x2="340.900000" y2="180.000000"  style="stroke:black; stroke-linecap:round; stroke-width:0.25;"/>
<line x1="340.000000" y1="124.000000" x2="348.000000" y2="124.000000"  style="stroke:black; stroke-linecap:round; stroke-width:0.25;"/>
<line x1="340.000000" y1="132.000000" x2="348.000000" y2="132.000000"  style="stroke:black; stroke-linecap:round; stroke-width:0.25;"/>
<line x1="340.000000" y1="160.000000" x2="340.000000" y2="132.000000"  style="stroke:black; stroke-linecap:round; stroke-width:0.25;"/>
<line x1="340.000000" y1="160.000000" x2="340.000000" y2="160.000000"  style="stroke:black; stroke-linecap:round; stroke-width:0.25;"/>
<line x1="340.900000" y1="180.000000" x2="381.800000" y2="180.000000"  style="stroke:black; stroke-linecap:round; stroke-width:0.25;"/>
<line x1="348.000000" y1="124.000000" x2="352.000000" y2="124.000000"  style="stroke:black; stroke-linecap:round; stroke-width:0.25;"/>
<line x1="348.000000" y1="132.000000" x2="352.000000" y2="132.000000"  style="stroke:black; stroke-linecap:round; stroke-width:0.25;"/>
<line x1="377.800000" y1="128.000000" x2="381.800000" y2="128.000000"  style="stroke:black; stroke-linecap:round; stroke-width:0.25;"/>
<line x1="381.800000" y1="148.000000" x2="389.800000" y2="148.000000"  style="stroke:black; stroke-linecap:round; stroke-width:0.25;"/>
<line x1="381.800000" y1="180.000000" x2="381.800000" y2="148.000000"  style="stroke:black; stroke-linecap:round; stroke-width:0.25;"/>
<line x1="381.800000" y1="180.000000" x2="381.800000" y2="180.000000"  style="stroke:black; stroke-linecap:round; stroke-width:0.25;"/>
<line x1="381.800000" y1="128.000000" x2="389.800000" y2="128.000000"  style="stroke:black; stroke-linecap:round; stroke-width:0.25;"/>
<line x1="389.800000" y1="128.000000" x2="389.800000" y2="140.000000"  style="stroke:black; stroke-linecap:round; stroke-width:0.25;"/>
<line x1="389.800000" y1="140.000000" x2="389.800000" y2="140.000000"  style="stroke:black; stroke-linecap:round; stroke-width:0.25;"/>
<line x1="389.800000" y1="140.000000" x2="393.800000" y2="140.000000"  style="stroke:black; stroke-linecap:round; stroke-width:0.25;"/>
<line x1="389.800000" y1="148.000000" x2="393.800000" y2="148.000000"  style="stroke:black; stroke-linecap:round; stroke-width:0.25;"/>
<line x1="417.800000" y1="144.000000" x2="421.800000" y2="144.000000"  style="stroke:black; stroke-linecap:round; stroke-width:0.25;"/>
<line x1="421.800000" y1="56.000000" x2="260.900000" y2="56.000000"  style="stroke:black; stroke-linecap:round; stroke-width:0.25;"/>
<line x1="421.800000" y1="56.000000" x2="421.800000" y2="56.000000"  style="stroke:black; stroke-linecap:round; stroke-width:0.25;"/>
<line x1="421.800000" y1="140.000000" x2="421.800000" y2="56.000000"  style="stroke:black; stroke-linecap:round; stroke-width:0.25;"/>
<line x1="421.800000" y1="144.000000" x2="423.800000" y2="144.000000"  style="stroke:black; stroke-linecap:round; stroke-width:0.25;"/>
<line x1="423.800000" y1="144.000000" x2="429.800000" y2="144.000000"  style="stroke:black; stroke-linecap:round; stroke-width:0.25;"/>
<line x1="429.800000" y1="124.000000" x2="437.800000" y2="124.000000"  style="stroke:black; stroke-linecap:round; stroke-width:0.25;"/>
<line x1="429.800000" y1="144.000000" x2="429.800000" y2="124.000000"  style="stroke:black; stroke-linecap:round; stroke-width:0.25;"/>
<line x1="429.800000" y1="144.000000" x2="429.800000" y2="144.000000"  style="stroke:black; stroke-linecap:round; stroke-width:0.25;"/>
<line x1="437.800000" y1="124.000000" x2="447.800000" y2="124.000000"  style="stroke:black; stroke-linecap:round; stroke-width:0.25;"/>
</svg>
