<?xml version="1.0"?>
<svg xmlns="http://www.w3.org/2000/svg" xmlns:xlink="http://www.w3.org/1999/xlink" viewBox="0 0 459.600000 280.000000" width="229.800000mm" height="140.000000mm" version="1.1">
<defs>
   <filter id="filter" filterRes="18" x="0" y="0">
     <feGaussianBlur in="SourceGraphic" stdDeviation="1.55" result="blur"/>
     <feOffset in="blur" dx="3" dy="3"/>
   </filter>
</defs>
<a xlink:href="process.svg">
<rect x="1.000000" y="1.000000" width="458.600000" height="279.000000" rx="0.1" ry="0.1" style="stroke:none;fill:#aaaaaa;;filter:url(#filter);"/>
<rect x="0.000000" y="0.000000" width="458.600000" height="279.000000" rx="0" ry="0" style="stroke:none;fill:#ffffff;"/>
</a>
<text x="10.000000" y="7.000000" font-family="Arial" font-size="7"></text>
<rect x="53.900000" y="73.000000" width="24.000000" height="24.000000" rx="0.1" ry="0.1" style="stroke:none;fill:#aaaaaa;;filter:url(#filter);"/>
<rect x="52.900000" y="72.000000" width="24.000000" height="24.000000" rx="0" ry="0" style="stroke:none;fill:#f44800;"/>
<text x="64.900000" y="86.000000" font-family="Arial" font-size="7" text-anchor="middle" fill="#FFFFFF">1</text>
<circle cx="54.900000" cy="74.000000" r="1"/>
<rect x="53.900000" y="105.000000" width="24.000000" height="24.000000" rx="0.1" ry="0.1" style="stroke:none;fill:#aaaaaa;;filter:url(#filter);"/>
<rect x="52.900000" y="104.000000" width="24.000000" height="24.000000" rx="0" ry="0" style="stroke:none;fill:#f44800;"/>
<text x="64.900000" y="118.000000" font-family="Arial" font-size="7" text-anchor="middle" fill="#FFFFFF">0</text>
<circle cx="54.900000" cy="106.000000" r="1"/>
<rect x="93.900000" y="89.000000" width="24.000000" height="24.000000" rx="0.1" ry="0.1" style="stroke:none;fill:#aaaaaa;;filter:url(#filter);"/>
<rect x="92.900000" y="88.000000" width="24.000000" height="24.000000" rx="0" ry="0" style="stroke:none;fill:#4B71A1;"/>
<text x="104.900000" y="102.000000" font-family="Arial" font-size="7" text-anchor="middle" fill="#FFFFFF">-</text>
<circle cx="94.900000" cy="90.000000" r="1"/>
<line x1="89.900000" y1="95.000000" x2="92.900000" y2="96.000000"  transform="rotate(0.000000,92.900000,96.000000)" style="stroke: black; stroke-width:0.25;"/>
<line x1="89.900000" y1="97.000000" x2="92.900000" y2="96.000000"  transform="rotate(0.000000,92.900000,96.000000)" style="stroke: black; stroke-width:0.25;"/>
<line x1="89.900000" y1="103.000000" x2="92.900000" y2="104.000000"  transform="rotate(0.000000,92.900000,104.000000)" style="stroke: black; stroke-width:0.25;"/>
<line x1="89.900000" y1="105.000000" x2="92.900000" y2="104.000000"  transform="rotate(0.000000,92.900000,104.000000)" style="stroke: black; stroke-width:0.25;"/>
<rect x="53.900000" y="137.000000" width="24.000000" height="24.000000" rx="0.1" ry="0.1" style="stroke:none;fill:#aaaaaa;;filter:url(#filter);"/>
<rect x="52.900000" y="136.000000" width="24.000000" height="24.000000" rx="0" ry="0" style="stroke:none;fill:#f44800;"/>
<text x="64.900000" y="150.000000" font-family="Arial" font-size="7" text-anchor="middle" fill="#FFFFFF">5</text>
<circle cx="54.900000" cy="138.000000" r="1"/>
<a xlink:href="SR-0x1692da0.svg">
<rect x="33.900000" y="169.000000" width="24.000000" height="24.000000" rx="0.1" ry="0.1" style="stroke:none;fill:#aaaaaa;;filter:url(#filter);"/>
<rect x="32.900000" y="168.000000" width="24.000000" height="24.000000" rx="0" ry="0" style="stroke:none;fill:#003366;"/>
</a>
<a xlink:href="SR-0x1692da0.svg">
<text x="44.900000" y="182.000000" font-family="Arial" font-size="7" text-anchor="middle" fill="#FFFFFF">SR</text>
</a>
<circle cx="34.900000" cy="170.000000" r="1"/>
<rect x="33.000000" y="201.000000" width="25.800000" height="24.000000" rx="0.1" ry="0.1" style="stroke:none;fill:#aaaaaa;;filter:url(#filter);"/>
<rect x="32.000000" y="200.000000" width="25.800000" height="24.000000" rx="0" ry="0" style="stroke:none;fill:#f44800;"/>
<text x="44.900000" y="214.000000" font-family="Arial" font-size="7" text-anchor="middle" fill="#FFFFFF">1000</text>
<circle cx="34.000000" cy="202.000000" r="1"/>
<rect x="74.800000" y="185.000000" width="24.000000" height="24.000000" rx="0.1" ry="0.1" style="stroke:none;fill:#aaaaaa;;filter:url(#filter);"/>
<rect x="73.800000" y="184.000000" width="24.000000" height="24.000000" rx="0" ry="0" style="stroke:none;fill:#4B71A1;"/>
<text x="85.800000" y="198.000000" font-family="Arial" font-size="7" text-anchor="middle" fill="#FFFFFF">/</text>
<circle cx="75.800000" cy="186.000000" r="1"/>
<line x1="70.800000" y1="191.000000" x2="73.800000" y2="192.000000"  transform="rotate(0.000000,73.800000,192.000000)" style="stroke: black; stroke-width:0.25;"/>
<line x1="70.800000" y1="193.000000" x2="73.800000" y2="192.000000"  transform="rotate(0.000000,73.800000,192.000000)" style="stroke: black; stroke-width:0.25;"/>
<line x1="70.800000" y1="199.000000" x2="73.800000" y2="200.000000"  transform="rotate(0.000000,73.800000,200.000000)" style="stroke: black; stroke-width:0.25;"/>
<line x1="70.800000" y1="201.000000" x2="73.800000" y2="200.000000"  transform="rotate(0.000000,73.800000,200.000000)" style="stroke: black; stroke-width:0.25;"/>
<rect x="114.800000" y="169.000000" width="24.000000" height="24.000000" rx="0.1" ry="0.1" style="stroke:none;fill:#aaaaaa;;filter:url(#filter);"/>
<rect x="113.800000" y="168.000000" width="24.000000" height="24.000000" rx="0" ry="0" style="stroke:none;fill:#4B71A1;"/>
<text x="125.800000" y="182.000000" font-family="Arial" font-size="7" text-anchor="middle" fill="#FFFFFF">*</text>
<circle cx="115.800000" cy="170.000000" r="1"/>
<line x1="110.800000" y1="175.000000" x2="113.800000" y2="176.000000"  transform="rotate(0.000000,113.800000,176.000000)" style="stroke: black; stroke-width:0.25;"/>
<line x1="110.800000" y1="177.000000" x2="113.800000" y2="176.000000"  transform="rotate(0.000000,113.800000,176.000000)" style="stroke: black; stroke-width:0.25;"/>
<line x1="110.800000" y1="183.000000" x2="113.800000" y2="184.000000"  transform="rotate(0.000000,113.800000,184.000000)" style="stroke: black; stroke-width:0.25;"/>
<line x1="110.800000" y1="185.000000" x2="113.800000" y2="184.000000"  transform="rotate(0.000000,113.800000,184.000000)" style="stroke: black; stroke-width:0.25;"/>
<rect x="154.800000" y="137.000000" width="24.000000" height="24.000000" rx="0.1" ry="0.1" style="stroke:none;fill:#aaaaaa;;filter:url(#filter);"/>
<rect x="153.800000" y="136.000000" width="24.000000" height="24.000000" rx="0" ry="0" style="stroke:none;fill:#4B71A1;"/>
<text x="165.800000" y="150.000000" font-family="Arial" font-size="7" text-anchor="middle" fill="#FFFFFF">/</text>
<circle cx="155.800000" cy="138.000000" r="1"/>
<line x1="150.800000" y1="143.000000" x2="153.800000" y2="144.000000"  transform="rotate(0.000000,153.800000,144.000000)" style="stroke: black; stroke-width:0.25;"/>
<line x1="150.800000" y1="145.000000" x2="153.800000" y2="144.000000"  transform="rotate(0.000000,153.800000,144.000000)" style="stroke: black; stroke-width:0.25;"/>
<line x1="150.800000" y1="151.000000" x2="153.800000" y2="152.000000"  transform="rotate(0.000000,153.800000,152.000000)" style="stroke: black; stroke-width:0.25;"/>
<line x1="150.800000" y1="153.000000" x2="153.800000" y2="152.000000"  transform="rotate(0.000000,153.800000,152.000000)" style="stroke: black; stroke-width:0.25;"/>
<rect x="194.800000" y="133.000000" width="24.000000" height="24.000000" rx="0.1" ry="0.1" style="stroke:none;fill:#aaaaaa;;filter:url(#filter);"/>
<rect x="193.800000" y="132.000000" width="24.000000" height="24.000000" rx="0" ry="0" style="stroke:none;fill:#4B71A1;"/>
<text x="205.800000" y="146.000000" font-family="Arial" font-size="7" text-anchor="middle" fill="#FFFFFF">+</text>
<circle cx="195.800000" cy="134.000000" r="1"/>
<line x1="190.800000" y1="139.000000" x2="193.800000" y2="140.000000"  transform="rotate(0.000000,193.800000,140.000000)" style="stroke: black; stroke-width:0.25;"/>
<line x1="190.800000" y1="141.000000" x2="193.800000" y2="140.000000"  transform="rotate(0.000000,193.800000,140.000000)" style="stroke: black; stroke-width:0.25;"/>
<line x1="190.800000" y1="147.000000" x2="193.800000" y2="148.000000"  transform="rotate(0.000000,193.800000,148.000000)" style="stroke: black; stroke-width:0.25;"/>
<line x1="190.800000" y1="149.000000" x2="193.800000" y2="148.000000"  transform="rotate(0.000000,193.800000,148.000000)" style="stroke: black; stroke-width:0.25;"/>
<rect x="113.900000" y="233.000000" width="24.000000" height="24.000000" rx="0.1" ry="0.1" style="stroke:none;fill:#aaaaaa;;filter:url(#filter);"/>
<rect x="112.900000" y="232.000000" width="24.000000" height="24.000000" rx="0" ry="0" style="stroke:none;fill:#f44800;"/>
<text x="124.900000" y="246.000000" font-family="Arial" font-size="7" text-anchor="middle" fill="#FFFFFF">0</text>
<circle cx="114.900000" cy="234.000000" r="1"/>
<rect x="234.800000" y="149.000000" width="24.000000" height="24.000000" rx="0.1" ry="0.1" style="stroke:none;fill:#aaaaaa;;filter:url(#filter);"/>
<rect x="233.800000" y="148.000000" width="24.000000" height="24.000000" rx="0" ry="0" style="stroke:none;fill:#4B71A1;"/>
<text x="245.800000" y="162.000000" font-family="Arial" font-size="7" text-anchor="middle" fill="#FFFFFF">-</text>
<circle cx="235.800000" cy="150.000000" r="1"/>
<line x1="230.800000" y1="155.000000" x2="233.800000" y2="156.000000"  transform="rotate(0.000000,233.800000,156.000000)" style="stroke: black; stroke-width:0.25;"/>
<line x1="230.800000" y1="157.000000" x2="233.800000" y2="156.000000"  transform="rotate(0.000000,233.800000,156.000000)" style="stroke: black; stroke-width:0.25;"/>
<line x1="230.800000" y1="163.000000" x2="233.800000" y2="164.000000"  transform="rotate(0.000000,233.800000,164.000000)" style="stroke: black; stroke-width:0.25;"/>
<line x1="230.800000" y1="165.000000" x2="233.800000" y2="164.000000"  transform="rotate(0.000000,233.800000,164.000000)" style="stroke: black; stroke-width:0.25;"/>
<rect x="274.800000" y="113.000000" width="24.000000" height="24.000000" rx="0.1" ry="0.1" style="stroke:none;fill:#aaaaaa;;filter:url(#filter);"/>
<rect x="273.800000" y="112.000000" width="24.000000" height="24.000000" rx="0" ry="0" style="stroke:none;fill:#f44800;"/>
<text x="285.800000" y="126.000000" font-family="Arial" font-size="7" text-anchor="middle" fill="#FFFFFF">1</text>
<circle cx="275.800000" cy="114.000000" r="1"/>
<rect x="274.800000" y="145.000000" width="24.000000" height="24.000000" rx="0.1" ry="0.1" style="stroke:none;fill:#aaaaaa;;filter:url(#filter);"/>
<rect x="273.800000" y="144.000000" width="24.000000" height="24.000000" rx="0" ry="0" style="stroke:none;fill:#f44800;"/>
<text x="285.800000" y="158.000000" font-family="Arial" font-size="7" text-anchor="middle" fill="#FFFFFF">0</text>
<circle cx="275.800000" cy="146.000000" r="1"/>
<rect x="314.800000" y="129.000000" width="24.000000" height="24.000000" rx="0.1" ry="0.1" style="stroke:none;fill:#aaaaaa;;filter:url(#filter);"/>
<rect x="313.800000" y="128.000000" width="24.000000" height="24.000000" rx="0" ry="0" style="stroke:none;fill:#4B71A1;"/>
<text x="325.800000" y="142.000000" font-family="Arial" font-size="7" text-anchor="middle" fill="#FFFFFF">-</text>
<circle cx="315.800000" cy="130.000000" r="1"/>
<line x1="310.800000" y1="135.000000" x2="313.800000" y2="136.000000"  transform="rotate(0.000000,313.800000,136.000000)" style="stroke: black; stroke-width:0.25;"/>
<line x1="310.800000" y1="137.000000" x2="313.800000" y2="136.000000"  transform="rotate(0.000000,313.800000,136.000000)" style="stroke: black; stroke-width:0.25;"/>
<line x1="310.800000" y1="143.000000" x2="313.800000" y2="144.000000"  transform="rotate(0.000000,313.800000,144.000000)" style="stroke: black; stroke-width:0.25;"/>
<line x1="310.800000" y1="145.000000" x2="313.800000" y2="144.000000"  transform="rotate(0.000000,313.800000,144.000000)" style="stroke: black; stroke-width:0.25;"/>
<rect x="354.800000" y="133.000000" width="25.800000" height="24.000000" rx="0.1" ry="0.1" style="stroke:none;fill:#aaaaaa;;filter:url(#filter);"/>
<rect x="353.800000" y="132.000000" width="25.800000" height="24.000000" rx="0" ry="0" style="stroke:none;fill:#4B71A1;"/>
<text x="366.700000" y="146.000000" font-family="Arial" font-size="7" text-anchor="middle" fill="#FFFFFF">fmodf</text>
<circle cx="355.800000" cy="134.000000" r="1"/>
<line x1="350.800000" y1="139.000000" x2="353.800000" y2="140.000000"  transform="rotate(0.000000,353.800000,140.000000)" style="stroke: black; stroke-width:0.25;"/>
<line x1="350.800000" y1="141.000000" x2="353.800000" y2="140.000000"  transform="rotate(0.000000,353.800000,140.000000)" style="stroke: black; stroke-width:0.25;"/>
<line x1="350.800000" y1="147.000000" x2="353.800000" y2="148.000000"  transform="rotate(0.000000,353.800000,148.000000)" style="stroke: black; stroke-width:0.25;"/>
<line x1="350.800000" y1="149.000000" x2="353.800000" y2="148.000000"  transform="rotate(0.000000,353.800000,148.000000)" style="stroke: black; stroke-width:0.25;"/>
<rect x="315.700000" y="185.000000" width="24.000000" height="24.000000" rx="0.1" ry="0.1" style="stroke:none;fill:#aaaaaa;;filter:url(#filter);"/>
<rect x="314.700000" y="184.000000" width="24.000000" height="24.000000" rx="0" ry="0" style="stroke:none;fill:#f44800;"/>
<text x="326.700000" y="198.000000" font-family="Arial" font-size="7" text-anchor="middle" fill="#FFFFFF">0</text>
<circle cx="316.700000" cy="186.000000" r="1"/>
<rect x="396.600000" y="149.000000" width="24.000000" height="24.000000" rx="0.1" ry="0.1" style="stroke:none;fill:#aaaaaa;;filter:url(#filter);"/>
<rect x="395.600000" y="148.000000" width="24.000000" height="24.000000" rx="0" ry="0" style="stroke:none;fill:#4B71A1;"/>
<text x="407.600000" y="162.000000" font-family="Arial" font-size="7" text-anchor="middle" fill="#FFFFFF">+</text>
<circle cx="397.600000" cy="150.000000" r="1"/>
<line x1="392.600000" y1="155.000000" x2="395.600000" y2="156.000000"  transform="rotate(0.000000,395.600000,156.000000)" style="stroke: black; stroke-width:0.25;"/>
<line x1="392.600000" y1="157.000000" x2="395.600000" y2="156.000000"  transform="rotate(0.000000,395.600000,156.000000)" style="stroke: black; stroke-width:0.25;"/>
<line x1="392.600000" y1="163.000000" x2="395.600000" y2="164.000000"  transform="rotate(0.000000,395.600000,164.000000)" style="stroke: black; stroke-width:0.25;"/>
<line x1="392.600000" y1="165.000000" x2="395.600000" y2="164.000000"  transform="rotate(0.000000,395.600000,164.000000)" style="stroke: black; stroke-width:0.25;"/>
<rect x="234.800000" y="25.000000" width="24.000000" height="24.000000" rx="0.1" ry="0.1" style="stroke:none;fill:#aaaaaa;;filter:url(#filter);"/>
<rect x="233.800000" y="24.000000" width="24.000000" height="24.000000" rx="0" ry="0" style="stroke:none;fill:#f44800;"/>
<text x="245.800000" y="38.000000" font-family="Arial" font-size="7" text-anchor="middle" fill="#FFFFFF">1</text>
<circle cx="255.800000" cy="46.000000" r="1"/>
<rect x="194.800000" y="29.000000" width="24.000000" height="24.000000" rx="0.1" ry="0.1" style="stroke:none;fill:#aaaaaa;;filter:url(#filter);"/>
<rect x="193.800000" y="28.000000" width="24.000000" height="24.000000" rx="0" ry="0" style="stroke:none;fill:#4B71A1;"/>
<text x="205.800000" y="42.000000" font-family="Arial" font-size="7" text-anchor="middle" fill="#FFFFFF">@</text>
<circle cx="215.800000" cy="50.000000" r="1"/>
<line x1="220.800000" y1="43.000000" x2="217.800000" y2="44.000000"  transform="rotate(0.000000,217.800000,44.000000)" style="stroke: black; stroke-width:0.25;"/>
<line x1="220.800000" y1="45.000000" x2="217.800000" y2="44.000000"  transform="rotate(0.000000,217.800000,44.000000)" style="stroke: black; stroke-width:0.25;"/>
<line x1="220.800000" y1="35.000000" x2="217.800000" y2="36.000000"  transform="rotate(0.000000,217.800000,36.000000)" style="stroke: black; stroke-width:0.25;"/>
<line x1="220.800000" y1="37.000000" x2="217.800000" y2="36.000000"  transform="rotate(0.000000,217.800000,36.000000)" style="stroke: black; stroke-width:0.25;"/>
<line x1="421.600000" y1="160.000000" x2="421.600000" y2="156.000000"  style="stroke:black; stroke-linecap:round; stroke-width:0.25;"/>
<line x1="421.600000" y1="156.000000" x2="425.600000" y2="156.000000"  style="stroke:black; stroke-linecap:round; stroke-width:0.25;"/>
<line x1="425.600000" y1="156.000000" x2="425.600000" y2="160.000000"  style="stroke:black; stroke-linecap:round; stroke-width:0.25;"/>
<line x1="15.000000" y1="15.000000" x2="15.000000" y2="265.000000"  style="stroke: black; stroke-linecap:round; stroke-width:0.25; stroke-dasharray:3,3;"/>
<line x1="15.000000" y1="265.000000" x2="444.600000" y2="265.000000"  style="stroke: black; stroke-linecap:round; stroke-width:0.25; stroke-dasharray:3,3;"/>
<line x1="444.600000" y1="265.000000" x2="444.600000" y2="15.000000"  style="stroke: black; stroke-linecap:round; stroke-width:0.25; stroke-dasharray:3,3;"/>
<line x1="15.000000" y1="15.000000" x2="20.000000" y2="15.000000"  style="stroke: black; stroke-linecap:round; stroke-width:0.25; stroke-dasharray:3,3;"/>
<line x1="68.375000" y1="15.000000" x2="444.600000" y2="15.000000"  style="stroke: black; stroke-linecap:round; stroke-width:0.25; stroke-dasharray:3,3;"/>
<text x="20.000000" y="17.000000" font-family="Arial" font-size="7">loop(0)(1)(5)</text>
<line x1="446.600000" y1="139.000000" x2="449.600000" y2="140.000000"  transform="rotate(0.000000,449.600000,140.000000)" style="stroke: black; stroke-width:0.25;"/>
<line x1="446.600000" y1="141.000000" x2="449.600000" y2="140.000000"  transform="rotate(0.000000,449.600000,140.000000)" style="stroke: black; stroke-width:0.25;"/>
<line x1="28.000000" y1="40.000000" x2="28.000000" y2="40.000000"  style="stroke:black; stroke-linecap:round; stroke-width:0.25;"/>
<line x1="28.000000" y1="40.000000" x2="28.000000" y2="64.000000"  style="stroke:black; stroke-linecap:round; stroke-width:0.25;"/>
<line x1="28.000000" y1="64.000000" x2="28.000000" y2="64.000000"  style="stroke:black; stroke-linecap:round; stroke-width:0.25;"/>
<line x1="28.000000" y1="64.000000" x2="104.900000" y2="64.000000"  style="stroke:black; stroke-linecap:round; stroke-width:0.25;"/>
<line x1="56.900000" y1="180.000000" x2="60.900000" y2="180.000000"  style="stroke:black; stroke-linecap:round; stroke-width:0.25;"/>
<line x1="57.800000" y1="212.000000" x2="61.800000" y2="212.000000"  style="stroke:black; stroke-linecap:round; stroke-width:0.25;"/>
<line x1="60.900000" y1="180.000000" x2="61.800000" y2="180.000000"  style="stroke:black; stroke-linecap:round; stroke-width:0.25;"/>
<line x1="61.800000" y1="180.000000" x2="69.800000" y2="180.000000"  style="stroke:black; stroke-linecap:round; stroke-width:0.25;"/>
<line x1="61.800000" y1="200.000000" x2="69.800000" y2="200.000000"  style="stroke:black; stroke-linecap:round; stroke-width:0.25;"/>
<line x1="61.800000" y1="212.000000" x2="61.800000" y2="200.000000"  style="stroke:black; stroke-linecap:round; stroke-width:0.25;"/>
<line x1="61.800000" y1="212.000000" x2="61.800000" y2="212.000000"  style="stroke:black; stroke-linecap:round; stroke-width:0.25;"/>
<line x1="69.800000" y1="180.000000" x2="69.800000" y2="192.000000"  style="stroke:black; stroke-linecap:round; stroke-width:0.25;"/>
<line x1="69.800000" y1="192.000000" x2="69.800000" y2="192.000000"  style="stroke:black; stroke-linecap:round; stroke-width:0.25;"/>
<line x1="69.800000" y1="192.000000" x2="73.800000" y2="192.000000"  style="stroke:black; stroke-linecap:round; stroke-width:0.25;"/>
<line x1="69.800000" y1="200.000000" x2="73.800000" y2="200.000000"  style="stroke:black; stroke-linecap:round; stroke-width:0.25;"/>
<line x1="76.900000" y1="84.000000" x2="80.900000" y2="84.000000"  style="stroke:black; stroke-linecap:round; stroke-width:0.25;"/>
<line x1="76.900000" y1="116.000000" x2="80.900000" y2="116.000000"  style="stroke:black; stroke-linecap:round; stroke-width:0.25;"/>
<line x1="76.900000" y1="148.000000" x2="80.900000" y2="148.000000"  style="stroke:black; stroke-linecap:round; stroke-width:0.25;"/>
<line x1="80.900000" y1="84.000000" x2="88.900000" y2="84.000000"  style="stroke:black; stroke-linecap:round; stroke-width:0.25;"/>
<line x1="80.900000" y1="104.000000" x2="88.900000" y2="104.000000"  style="stroke:black; stroke-linecap:round; stroke-width:0.25;"/>
<line x1="80.900000" y1="116.000000" x2="80.900000" y2="104.000000"  style="stroke:black; stroke-linecap:round; stroke-width:0.25;"/>
<line x1="80.900000" y1="116.000000" x2="80.900000" y2="116.000000"  style="stroke:black; stroke-linecap:round; stroke-width:0.25;"/>
<line x1="80.900000" y1="148.000000" x2="101.800000" y2="148.000000"  style="stroke:black; stroke-linecap:round; stroke-width:0.25;"/>
<line x1="88.900000" y1="84.000000" x2="88.900000" y2="96.000000"  style="stroke:black; stroke-linecap:round; stroke-width:0.25;"/>
<line x1="88.900000" y1="96.000000" x2="88.900000" y2="96.000000"  style="stroke:black; stroke-linecap:round; stroke-width:0.25;"/>
<line x1="88.900000" y1="96.000000" x2="92.900000" y2="96.000000"  style="stroke:black; stroke-linecap:round; stroke-width:0.25;"/>
<line x1="88.900000" y1="104.000000" x2="92.900000" y2="104.000000"  style="stroke:black; stroke-linecap:round; stroke-width:0.25;"/>
<line x1="97.800000" y1="196.000000" x2="101.800000" y2="196.000000"  style="stroke:black; stroke-linecap:round; stroke-width:0.25;"/>
<line x1="101.800000" y1="184.000000" x2="109.800000" y2="184.000000"  style="stroke:black; stroke-linecap:round; stroke-width:0.25;"/>
<line x1="101.800000" y1="196.000000" x2="101.800000" y2="184.000000"  style="stroke:black; stroke-linecap:round; stroke-width:0.25;"/>
<line x1="101.800000" y1="196.000000" x2="101.800000" y2="196.000000"  style="stroke:black; stroke-linecap:round; stroke-width:0.25;"/>
<line x1="101.800000" y1="148.000000" x2="109.800000" y2="148.000000"  style="stroke:black; stroke-linecap:round; stroke-width:0.25;"/>
<line x1="104.900000" y1="64.000000" x2="181.800000" y2="64.000000"  style="stroke:black; stroke-linecap:round; stroke-width:0.25;"/>
<line x1="109.800000" y1="176.000000" x2="113.800000" y2="176.000000"  style="stroke:black; stroke-linecap:round; stroke-width:0.25;"/>
<line x1="109.800000" y1="184.000000" x2="113.800000" y2="184.000000"  style="stroke:black; stroke-linecap:round; stroke-width:0.25;"/>
<line x1="109.800000" y1="148.000000" x2="109.800000" y2="176.000000"  style="stroke:black; stroke-linecap:round; stroke-width:0.25;"/>
<line x1="109.800000" y1="176.000000" x2="109.800000" y2="176.000000"  style="stroke:black; stroke-linecap:round; stroke-width:0.25;"/>
<line x1="116.900000" y1="100.000000" x2="120.900000" y2="100.000000"  style="stroke:black; stroke-linecap:round; stroke-width:0.25;"/>
<line x1="120.900000" y1="100.000000" x2="141.800000" y2="100.000000"  style="stroke:black; stroke-linecap:round; stroke-width:0.25;"/>
<line x1="136.900000" y1="244.000000" x2="140.900000" y2="244.000000"  style="stroke:black; stroke-linecap:round; stroke-width:0.25;"/>
<line x1="137.800000" y1="180.000000" x2="141.800000" y2="180.000000"  style="stroke:black; stroke-linecap:round; stroke-width:0.25;"/>
<line x1="140.900000" y1="244.000000" x2="221.800000" y2="244.000000"  style="stroke:black; stroke-linecap:round; stroke-width:0.25;"/>
<line x1="141.800000" y1="100.000000" x2="149.800000" y2="100.000000"  style="stroke:black; stroke-linecap:round; stroke-width:0.25;"/>
<line x1="141.800000" y1="152.000000" x2="149.800000" y2="152.000000"  style="stroke:black; stroke-linecap:round; stroke-width:0.25;"/>
<line x1="141.800000" y1="180.000000" x2="141.800000" y2="152.000000"  style="stroke:black; stroke-linecap:round; stroke-width:0.25;"/>
<line x1="141.800000" y1="180.000000" x2="141.800000" y2="180.000000"  style="stroke:black; stroke-linecap:round; stroke-width:0.25;"/>
<line x1="149.800000" y1="100.000000" x2="149.800000" y2="144.000000"  style="stroke:black; stroke-linecap:round; stroke-width:0.25;"/>
<line x1="149.800000" y1="144.000000" x2="149.800000" y2="144.000000"  style="stroke:black; stroke-linecap:round; stroke-width:0.25;"/>
<line x1="149.800000" y1="144.000000" x2="153.800000" y2="144.000000"  style="stroke:black; stroke-linecap:round; stroke-width:0.25;"/>
<line x1="149.800000" y1="152.000000" x2="153.800000" y2="152.000000"  style="stroke:black; stroke-linecap:round; stroke-width:0.25;"/>
<line x1="177.800000" y1="148.000000" x2="181.800000" y2="148.000000"  style="stroke:black; stroke-linecap:round; stroke-width:0.25;"/>
<line x1="181.800000" y1="64.000000" x2="189.800000" y2="64.000000"  style="stroke:black; stroke-linecap:round; stroke-width:0.25;"/>
<line x1="181.800000" y1="148.000000" x2="189.800000" y2="148.000000"  style="stroke:black; stroke-linecap:round; stroke-width:0.25;"/>
<line x1="189.800000" y1="40.000000" x2="28.000000" y2="40.000000"  style="stroke:black; stroke-linecap:round; stroke-width:0.25;"/>
<line x1="189.800000" y1="64.000000" x2="189.800000" y2="140.000000"  style="stroke:black; stroke-linecap:round; stroke-width:0.25;"/>
<line x1="189.800000" y1="140.000000" x2="189.800000" y2="140.000000"  style="stroke:black; stroke-linecap:round; stroke-width:0.25;"/>
<line x1="189.800000" y1="140.000000" x2="193.800000" y2="140.000000"  style="stroke:black; stroke-linecap:round; stroke-width:0.25;"/>
<line x1="189.800000" y1="148.000000" x2="193.800000" y2="148.000000"  style="stroke:black; stroke-linecap:round; stroke-width:0.25;"/>
<line x1="193.800000" y1="40.000000" x2="189.800000" y2="40.000000"  style="stroke:black; stroke-linecap:round; stroke-width:0.25;"/>
<line x1="217.800000" y1="144.000000" x2="221.800000" y2="144.000000"  style="stroke:black; stroke-linecap:round; stroke-width:0.25;"/>
<line x1="221.800000" y1="36.000000" x2="217.800000" y2="36.000000"  style="stroke:black; stroke-linecap:round; stroke-width:0.25;"/>
<line x1="221.800000" y1="44.000000" x2="217.800000" y2="44.000000"  style="stroke:black; stroke-linecap:round; stroke-width:0.25;"/>
<line x1="221.800000" y1="44.000000" x2="221.800000" y2="44.000000"  style="stroke:black; stroke-linecap:round; stroke-width:0.25;"/>
<line x1="221.800000" y1="56.000000" x2="221.800000" y2="44.000000"  style="stroke:black; stroke-linecap:round; stroke-width:0.25;"/>
<line x1="221.800000" y1="144.000000" x2="229.800000" y2="144.000000"  style="stroke:black; stroke-linecap:round; stroke-width:0.25;"/>
<line x1="221.800000" y1="164.000000" x2="229.800000" y2="164.000000"  style="stroke:black; stroke-linecap:round; stroke-width:0.25;"/>
<line x1="221.800000" y1="244.000000" x2="221.800000" y2="164.000000"  style="stroke:black; stroke-linecap:round; stroke-width:0.25;"/>
<line x1="221.800000" y1="244.000000" x2="221.800000" y2="244.000000"  style="stroke:black; stroke-linecap:round; stroke-width:0.25;"/>
<line x1="229.800000" y1="36.000000" x2="221.800000" y2="36.000000"  style="stroke:black; stroke-linecap:round; stroke-width:0.25;"/>
<line x1="229.800000" y1="56.000000" x2="221.800000" y2="56.000000"  style="stroke:black; stroke-linecap:round; stroke-width:0.25;"/>
<line x1="229.800000" y1="144.000000" x2="229.800000" y2="156.000000"  style="stroke:black; stroke-linecap:round; stroke-width:0.25;"/>
<line x1="229.800000" y1="156.000000" x2="229.800000" y2="156.000000"  style="stroke:black; stroke-linecap:round; stroke-width:0.25;"/>
<line x1="229.800000" y1="156.000000" x2="233.800000" y2="156.000000"  style="stroke:black; stroke-linecap:round; stroke-width:0.25;"/>
<line x1="229.800000" y1="164.000000" x2="233.800000" y2="164.000000"  style="stroke:black; stroke-linecap:round; stroke-width:0.25;"/>
<line x1="233.800000" y1="36.000000" x2="229.800000" y2="36.000000"  style="stroke:black; stroke-linecap:round; stroke-width:0.25;"/>
<line x1="245.800000" y1="56.000000" x2="229.800000" y2="56.000000"  style="stroke:black; stroke-linecap:round; stroke-width:0.25;"/>
<line x1="257.800000" y1="160.000000" x2="261.800000" y2="160.000000"  style="stroke:black; stroke-linecap:round; stroke-width:0.25;"/>
<line x1="261.800000" y1="56.000000" x2="245.800000" y2="56.000000"  style="stroke:black; stroke-linecap:round; stroke-width:0.25;"/>
<line x1="261.800000" y1="160.000000" x2="269.800000" y2="160.000000"  style="stroke:black; stroke-linecap:round; stroke-width:0.25;"/>
<line x1="269.800000" y1="160.000000" x2="269.800000" y2="176.000000"  style="stroke:black; stroke-linecap:round; stroke-width:0.25;"/>
<line x1="269.800000" y1="176.000000" x2="269.800000" y2="176.000000"  style="stroke:black; stroke-linecap:round; stroke-width:0.25;"/>
<line x1="269.800000" y1="176.000000" x2="305.800000" y2="176.000000"  style="stroke:black; stroke-linecap:round; stroke-width:0.25;"/>
<line x1="297.800000" y1="124.000000" x2="301.800000" y2="124.000000"  style="stroke:black; stroke-linecap:round; stroke-width:0.25;"/>
<line x1="297.800000" y1="156.000000" x2="301.800000" y2="156.000000"  style="stroke:black; stroke-linecap:round; stroke-width:0.25;"/>
<line x1="301.800000" y1="124.000000" x2="309.800000" y2="124.000000"  style="stroke:black; stroke-linecap:round; stroke-width:0.25;"/>
<line x1="301.800000" y1="144.000000" x2="309.800000" y2="144.000000"  style="stroke:black; stroke-linecap:round; stroke-width:0.25;"/>
<line x1="301.800000" y1="156.000000" x2="301.800000" y2="144.000000"  style="stroke:black; stroke-linecap:round; stroke-width:0.25;"/>
<line x1="301.800000" y1="156.000000" x2="301.800000" y2="156.000000"  style="stroke:black; stroke-linecap:round; stroke-width:0.25;"/>
<line x1="305.800000" y1="176.000000" x2="341.800000" y2="176.000000"  style="stroke:black; stroke-linecap:round; stroke-width:0.25;"/>
<line x1="309.800000" y1="124.000000" x2="309.800000" y2="136.000000"  style="stroke:black; stroke-linecap:round; stroke-width:0.25;"/>
<line x1="309.800000" y1="136.000000" x2="309.800000" y2="136.000000"  style="stroke:black; stroke-linecap:round; stroke-width:0.25;"/>
<line x1="309.800000" y1="136.000000" x2="313.800000" y2="136.000000"  style="stroke:black; stroke-linecap:round; stroke-width:0.25;"/>
<line x1="309.800000" y1="144.000000" x2="313.800000" y2="144.000000"  style="stroke:black; stroke-linecap:round; stroke-width:0.25;"/>
<line x1="337.800000" y1="140.000000" x2="341.800000" y2="140.000000"  style="stroke:black; stroke-linecap:round; stroke-width:0.25;"/>
<line x1="338.700000" y1="196.000000" x2="342.700000" y2="196.000000"  style="stroke:black; stroke-linecap:round; stroke-width:0.25;"/>
<line x1="341.800000" y1="140.000000" x2="349.800000" y2="140.000000"  style="stroke:black; stroke-linecap:round; stroke-width:0.25;"/>
<line x1="341.800000" y1="148.000000" x2="349.800000" y2="148.000000"  style="stroke:black; stroke-linecap:round; stroke-width:0.25;"/>
<line x1="341.800000" y1="176.000000" x2="341.800000" y2="148.000000"  style="stroke:black; stroke-linecap:round; stroke-width:0.25;"/>
<line x1="341.800000" y1="176.000000" x2="341.800000" y2="176.000000"  style="stroke:black; stroke-linecap:round; stroke-width:0.25;"/>
<line x1="342.700000" y1="196.000000" x2="383.600000" y2="196.000000"  style="stroke:black; stroke-linecap:round; stroke-width:0.25;"/>
<line x1="349.800000" y1="140.000000" x2="353.800000" y2="140.000000"  style="stroke:black; stroke-linecap:round; stroke-width:0.25;"/>
<line x1="349.800000" y1="148.000000" x2="353.800000" y2="148.000000"  style="stroke:black; stroke-linecap:round; stroke-width:0.25;"/>
<line x1="379.600000" y1="144.000000" x2="383.600000" y2="144.000000"  style="stroke:black; stroke-linecap:round; stroke-width:0.25;"/>
<line x1="383.600000" y1="164.000000" x2="391.600000" y2="164.000000"  style="stroke:black; stroke-linecap:round; stroke-width:0.25;"/>
<line x1="383.600000" y1="196.000000" x2="383.600000" y2="164.000000"  style="stroke:black; stroke-linecap:round; stroke-width:0.25;"/>
<line x1="383.600000" y1="196.000000" x2="383.600000" y2="196.000000"  style="stroke:black; stroke-linecap:round; stroke-width:0.25;"/>
<line x1="383.600000" y1="144.000000" x2="391.600000" y2="144.000000"  style="stroke:black; stroke-linecap:round; stroke-width:0.25;"/>
<line x1="391.600000" y1="144.000000" x2="391.600000" y2="156.000000"  style="stroke:black; stroke-linecap:round; stroke-width:0.25;"/>
<line x1="391.600000" y1="156.000000" x2="391.600000" y2="156.000000"  style="stroke:black; stroke-linecap:round; stroke-width:0.25;"/>
<line x1="391.600000" y1="156.000000" x2="395.600000" y2="156.000000"  style="stroke:black; stroke-linecap:round; stroke-width:0.25;"/>
<line x1="391.600000" y1="164.000000" x2="395.600000" y2="164.000000"  style="stroke:black; stroke-linecap:round; stroke-width:0.25;"/>
<line x1="419.600000" y1="160.000000" x2="423.600000" y2="160.000000"  style="stroke:black; stroke-linecap:round; stroke-width:0.25;"/>
<line x1="423.600000" y1="56.000000" x2="261.800000" y2="56.000000"  style="stroke:black; stroke-linecap:round; stroke-width:0.25;"/>
<line x1="423.600000" y1="56.000000" x2="423.600000" y2="56.000000"  style="stroke:black; stroke-linecap:round; stroke-width:0.25;"/>
<line x1="423.600000" y1="156.000000" x2="423.600000" y2="56.000000"  style="stroke:black; stroke-linecap:round; stroke-width:0.25;"/>
<line x1="423.600000" y1="160.000000" x2="425.600000" y2="160.000000"  style="stroke:black; stroke-linecap:round; stroke-width:0.25;"/>
<line x1="425.600000" y1="160.000000" x2="431.600000" y2="160.000000"  style="stroke:black; stroke-linecap:round; stroke-width:0.25;"/>
<line x1="431.600000" y1="140.000000" x2="439.600000" y2="140.000000"  style="stroke:black; stroke-linecap:round; stroke-width:0.25;"/>
<line x1="431.600000" y1="160.000000" x2="431.600000" y2="140.000000"  style="stroke:black; stroke-linecap:round; stroke-width:0.25;"/>
<line x1="431.600000" y1="160.000000" x2="431.600000" y2="160.000000"  style="stroke:black; stroke-linecap:round; stroke-width:0.25;"/>
<line x1="439.600000" y1="140.000000" x2="449.600000" y2="140.000000"  style="stroke:black; stroke-linecap:round; stroke-width:0.25;"/>
</svg>
