<?xml version="1.0"?>
<svg xmlns="http://www.w3.org/2000/svg" xmlns:xlink="http://www.w3.org/1999/xlink" viewBox="0 0 582.400000 280.000000" width="291.200000mm" height="140.000000mm" version="1.1">
<defs>
   <filter id="filter" filterRes="18" x="0" y="0">
     <feGaussianBlur in="SourceGraphic" stdDeviation="1.55" result="blur"/>
     <feOffset in="blur" dx="3" dy="3"/>
   </filter>
</defs>
<rect x="1.000000" y="1.000000" width="581.400000" height="279.000000" rx="0.1" ry="0.1" style="stroke:none;fill:#aaaaaa;;filter:url(#filter);"/>
<rect x="0.000000" y="0.000000" width="581.400000" height="279.000000" rx="0" ry="0" style="stroke:none;fill:#ffffff;"/>
<text x="10.000000" y="7.000000" font-family="Arial" font-size="7"></text>
<rect x="218.700000" y="43.000000" width="129.000000" height="24.000000" rx="0.1" ry="0.1" style="stroke:none;fill:#aaaaaa;;filter:url(#filter);"/>
<rect x="217.700000" y="42.000000" width="129.000000" height="24.000000" rx="0" ry="0" style="stroke:none;fill:#477881;"/>
<text x="282.200000" y="56.000000" font-family="Arial" font-size="7" text-anchor="middle" fill="#FFFFFF">hslider(dry, 1, 0, 100, 0.1)</text>
<circle cx="219.700000" cy="44.000000" r="1"/>
<line x1="208.700000" y1="33.000000" x2="208.700000" y2="75.000000"  style="stroke: black; stroke-linecap:round; stroke-width:0.25; stroke-dasharray:3,3;"/>
<line x1="208.700000" y1="75.000000" x2="355.700000" y2="75.000000"  style="stroke: black; stroke-linecap:round; stroke-width:0.25; stroke-dasharray:3,3;"/>
<line x1="355.700000" y1="75.000000" x2="355.700000" y2="33.000000"  style="stroke: black; stroke-linecap:round; stroke-width:0.25; stroke-dasharray:3,3;"/>
<line x1="208.700000" y1="33.000000" x2="213.700000" y2="33.000000"  style="stroke: black; stroke-linecap:round; stroke-width:0.25; stroke-dasharray:3,3;"/>
<line x1="265.300000" y1="33.000000" x2="355.700000" y2="33.000000"  style="stroke: black; stroke-linecap:round; stroke-width:0.25; stroke-dasharray:3,3;"/>
<text x="213.700000" y="35.000000" font-family="Arial" font-size="7">Volumeinputdry</text>
<rect x="373.700000" y="39.000000" width="24.000000" height="24.000000" rx="0.1" ry="0.1" style="stroke:none;fill:#aaaaaa;;filter:url(#filter);"/>
<rect x="372.700000" y="38.000000" width="24.000000" height="24.000000" rx="0" ry="0" style="stroke:none;fill:#4B71A1;"/>
<text x="384.700000" y="52.000000" font-family="Arial" font-size="7" text-anchor="middle" fill="#FFFFFF">*</text>
<circle cx="374.700000" cy="40.000000" r="1"/>
<line x1="369.700000" y1="45.000000" x2="372.700000" y2="46.000000"  transform="rotate(0.000000,372.700000,46.000000)" style="stroke: black; stroke-width:0.25;"/>
<line x1="369.700000" y1="47.000000" x2="372.700000" y2="46.000000"  transform="rotate(0.000000,372.700000,46.000000)" style="stroke: black; stroke-width:0.25;"/>
<line x1="369.700000" y1="53.000000" x2="372.700000" y2="54.000000"  transform="rotate(0.000000,372.700000,54.000000)" style="stroke: black; stroke-width:0.25;"/>
<line x1="369.700000" y1="55.000000" x2="372.700000" y2="54.000000"  transform="rotate(0.000000,372.700000,54.000000)" style="stroke: black; stroke-width:0.25;"/>
<a xlink:href="Febaroute2-0x3063980.svg">
<rect x="95.000000" y="129.000000" width="51.600000" height="24.000000" rx="0.1" ry="0.1" style="stroke:none;fill:#aaaaaa;;filter:url(#filter);"/>
<rect x="94.000000" y="128.000000" width="51.600000" height="24.000000" rx="0" ry="0" style="stroke:none;fill:#003366;"/>
</a>
<a xlink:href="Febaroute2-0x3063980.svg">
<text x="119.800000" y="142.000000" font-family="Arial" font-size="7" text-anchor="middle" fill="#FFFFFF">Febaroute2</text>
</a>
<circle cx="96.000000" cy="130.000000" r="1"/>
<line x1="91.000000" y1="139.000000" x2="94.000000" y2="140.000000"  transform="rotate(0.000000,94.000000,140.000000)" style="stroke: black; stroke-width:0.25;"/>
<line x1="91.000000" y1="141.000000" x2="94.000000" y2="140.000000"  transform="rotate(0.000000,94.000000,140.000000)" style="stroke: black; stroke-width:0.25;"/>
<rect x="192.600000" y="113.000000" width="24.000000" height="24.000000" rx="0.1" ry="0.1" style="stroke:none;fill:#aaaaaa;;filter:url(#filter);"/>
<rect x="191.600000" y="112.000000" width="24.000000" height="24.000000" rx="0" ry="0" style="stroke:none;fill:#4B71A1;"/>
<text x="203.600000" y="126.000000" font-family="Arial" font-size="7" text-anchor="middle" fill="#FFFFFF">+</text>
<circle cx="193.600000" cy="114.000000" r="1"/>
<line x1="188.600000" y1="119.000000" x2="191.600000" y2="120.000000"  transform="rotate(0.000000,191.600000,120.000000)" style="stroke: black; stroke-width:0.25;"/>
<line x1="188.600000" y1="121.000000" x2="191.600000" y2="120.000000"  transform="rotate(0.000000,191.600000,120.000000)" style="stroke: black; stroke-width:0.25;"/>
<line x1="188.600000" y1="127.000000" x2="191.600000" y2="128.000000"  transform="rotate(0.000000,191.600000,128.000000)" style="stroke: black; stroke-width:0.25;"/>
<line x1="188.600000" y1="129.000000" x2="191.600000" y2="128.000000"  transform="rotate(0.000000,191.600000,128.000000)" style="stroke: black; stroke-width:0.25;"/>
<rect x="192.600000" y="145.000000" width="24.000000" height="24.000000" rx="0.1" ry="0.1" style="stroke:none;fill:#aaaaaa;;filter:url(#filter);"/>
<rect x="191.600000" y="144.000000" width="24.000000" height="24.000000" rx="0" ry="0" style="stroke:none;fill:#4B71A1;"/>
<text x="203.600000" y="158.000000" font-family="Arial" font-size="7" text-anchor="middle" fill="#FFFFFF">-</text>
<circle cx="193.600000" cy="146.000000" r="1"/>
<line x1="188.600000" y1="151.000000" x2="191.600000" y2="152.000000"  transform="rotate(0.000000,191.600000,152.000000)" style="stroke: black; stroke-width:0.25;"/>
<line x1="188.600000" y1="153.000000" x2="191.600000" y2="152.000000"  transform="rotate(0.000000,191.600000,152.000000)" style="stroke: black; stroke-width:0.25;"/>
<line x1="188.600000" y1="159.000000" x2="191.600000" y2="160.000000"  transform="rotate(0.000000,191.600000,160.000000)" style="stroke: black; stroke-width:0.25;"/>
<line x1="188.600000" y1="161.000000" x2="191.600000" y2="160.000000"  transform="rotate(0.000000,191.600000,160.000000)" style="stroke: black; stroke-width:0.25;"/>
<rect x="240.600000" y="103.000000" width="25.800000" height="24.000000" rx="0.1" ry="0.1" style="stroke:none;fill:#aaaaaa;;filter:url(#filter);"/>
<rect x="239.600000" y="102.000000" width="25.800000" height="24.000000" rx="0" ry="0" style="stroke:none;fill:#f44800;"/>
<text x="252.500000" y="116.000000" font-family="Arial" font-size="7" text-anchor="middle" fill="#FFFFFF">1000</text>
<circle cx="241.600000" cy="104.000000" r="1"/>
<rect x="282.400000" y="99.000000" width="24.000000" height="24.000000" rx="0.1" ry="0.1" style="stroke:none;fill:#aaaaaa;;filter:url(#filter);"/>
<rect x="281.400000" y="98.000000" width="24.000000" height="24.000000" rx="0" ry="0" style="stroke:none;fill:#4B71A1;"/>
<text x="293.400000" y="112.000000" font-family="Arial" font-size="7" text-anchor="middle" fill="#FFFFFF">/</text>
<circle cx="283.400000" cy="100.000000" r="1"/>
<line x1="278.400000" y1="105.000000" x2="281.400000" y2="106.000000"  transform="rotate(0.000000,281.400000,106.000000)" style="stroke: black; stroke-width:0.25;"/>
<line x1="278.400000" y1="107.000000" x2="281.400000" y2="106.000000"  transform="rotate(0.000000,281.400000,106.000000)" style="stroke: black; stroke-width:0.25;"/>
<line x1="278.400000" y1="113.000000" x2="281.400000" y2="114.000000"  transform="rotate(0.000000,281.400000,114.000000)" style="stroke: black; stroke-width:0.25;"/>
<line x1="278.400000" y1="115.000000" x2="281.400000" y2="114.000000"  transform="rotate(0.000000,281.400000,114.000000)" style="stroke: black; stroke-width:0.25;"/>
<rect x="332.400000" y="103.000000" width="129.000000" height="24.000000" rx="0.1" ry="0.1" style="stroke:none;fill:#aaaaaa;;filter:url(#filter);"/>
<rect x="331.400000" y="102.000000" width="129.000000" height="24.000000" rx="0" ry="0" style="stroke:none;fill:#477881;"/>
<text x="395.900000" y="116.000000" font-family="Arial" font-size="7" text-anchor="middle" fill="#FFFFFF">hslider(wet, 5, 0, 100, 0.1)</text>
<circle cx="333.400000" cy="104.000000" r="1"/>
<line x1="322.400000" y1="93.000000" x2="322.400000" y2="135.000000"  style="stroke: black; stroke-linecap:round; stroke-width:0.25; stroke-dasharray:3,3;"/>
<line x1="322.400000" y1="135.000000" x2="469.400000" y2="135.000000"  style="stroke: black; stroke-linecap:round; stroke-width:0.25; stroke-dasharray:3,3;"/>
<line x1="469.400000" y1="135.000000" x2="469.400000" y2="93.000000"  style="stroke: black; stroke-linecap:round; stroke-width:0.25; stroke-dasharray:3,3;"/>
<line x1="322.400000" y1="93.000000" x2="327.400000" y2="93.000000"  style="stroke: black; stroke-linecap:round; stroke-width:0.25; stroke-dasharray:3,3;"/>
<line x1="379.000000" y1="93.000000" x2="469.400000" y2="93.000000"  style="stroke: black; stroke-linecap:round; stroke-width:0.25; stroke-dasharray:3,3;"/>
<text x="327.400000" y="95.000000" font-family="Arial" font-size="7">Volumeinputwet</text>
<rect x="487.400000" y="99.000000" width="24.000000" height="24.000000" rx="0.1" ry="0.1" style="stroke:none;fill:#aaaaaa;;filter:url(#filter);"/>
<rect x="486.400000" y="98.000000" width="24.000000" height="24.000000" rx="0" ry="0" style="stroke:none;fill:#4B71A1;"/>
<text x="498.400000" y="112.000000" font-family="Arial" font-size="7" text-anchor="middle" fill="#FFFFFF">*</text>
<circle cx="488.400000" cy="100.000000" r="1"/>
<line x1="483.400000" y1="105.000000" x2="486.400000" y2="106.000000"  transform="rotate(0.000000,486.400000,106.000000)" style="stroke: black; stroke-width:0.25;"/>
<line x1="483.400000" y1="107.000000" x2="486.400000" y2="106.000000"  transform="rotate(0.000000,486.400000,106.000000)" style="stroke: black; stroke-width:0.25;"/>
<line x1="483.400000" y1="113.000000" x2="486.400000" y2="114.000000"  transform="rotate(0.000000,486.400000,114.000000)" style="stroke: black; stroke-width:0.25;"/>
<line x1="483.400000" y1="115.000000" x2="486.400000" y2="114.000000"  transform="rotate(0.000000,486.400000,114.000000)" style="stroke: black; stroke-width:0.25;"/>
<rect x="240.600000" y="163.000000" width="25.800000" height="24.000000" rx="0.1" ry="0.1" style="stroke:none;fill:#aaaaaa;;filter:url(#filter);"/>
<rect x="239.600000" y="162.000000" width="25.800000" height="24.000000" rx="0" ry="0" style="stroke:none;fill:#f44800;"/>
<text x="252.500000" y="176.000000" font-family="Arial" font-size="7" text-anchor="middle" fill="#FFFFFF">1000</text>
<circle cx="241.600000" cy="164.000000" r="1"/>
<rect x="282.400000" y="159.000000" width="24.000000" height="24.000000" rx="0.1" ry="0.1" style="stroke:none;fill:#aaaaaa;;filter:url(#filter);"/>
<rect x="281.400000" y="158.000000" width="24.000000" height="24.000000" rx="0" ry="0" style="stroke:none;fill:#4B71A1;"/>
<text x="293.400000" y="172.000000" font-family="Arial" font-size="7" text-anchor="middle" fill="#FFFFFF">/</text>
<circle cx="283.400000" cy="160.000000" r="1"/>
<line x1="278.400000" y1="165.000000" x2="281.400000" y2="166.000000"  transform="rotate(0.000000,281.400000,166.000000)" style="stroke: black; stroke-width:0.25;"/>
<line x1="278.400000" y1="167.000000" x2="281.400000" y2="166.000000"  transform="rotate(0.000000,281.400000,166.000000)" style="stroke: black; stroke-width:0.25;"/>
<line x1="278.400000" y1="173.000000" x2="281.400000" y2="174.000000"  transform="rotate(0.000000,281.400000,174.000000)" style="stroke: black; stroke-width:0.25;"/>
<line x1="278.400000" y1="175.000000" x2="281.400000" y2="174.000000"  transform="rotate(0.000000,281.400000,174.000000)" style="stroke: black; stroke-width:0.25;"/>
<rect x="332.400000" y="163.000000" width="129.000000" height="24.000000" rx="0.1" ry="0.1" style="stroke:none;fill:#aaaaaa;;filter:url(#filter);"/>
<rect x="331.400000" y="162.000000" width="129.000000" height="24.000000" rx="0" ry="0" style="stroke:none;fill:#477881;"/>
<text x="395.900000" y="176.000000" font-family="Arial" font-size="7" text-anchor="middle" fill="#FFFFFF">hslider(wet, 5, 0, 100, 0.1)</text>
<circle cx="333.400000" cy="164.000000" r="1"/>
<line x1="322.400000" y1="153.000000" x2="322.400000" y2="195.000000"  style="stroke: black; stroke-linecap:round; stroke-width:0.25; stroke-dasharray:3,3;"/>
<line x1="322.400000" y1="195.000000" x2="469.400000" y2="195.000000"  style="stroke: black; stroke-linecap:round; stroke-width:0.25; stroke-dasharray:3,3;"/>
<line x1="469.400000" y1="195.000000" x2="469.400000" y2="153.000000"  style="stroke: black; stroke-linecap:round; stroke-width:0.25; stroke-dasharray:3,3;"/>
<line x1="322.400000" y1="153.000000" x2="327.400000" y2="153.000000"  style="stroke: black; stroke-linecap:round; stroke-width:0.25; stroke-dasharray:3,3;"/>
<line x1="379.000000" y1="153.000000" x2="469.400000" y2="153.000000"  style="stroke: black; stroke-linecap:round; stroke-width:0.25; stroke-dasharray:3,3;"/>
<text x="327.400000" y="155.000000" font-family="Arial" font-size="7">Volumeinputwet</text>
<rect x="487.400000" y="159.000000" width="24.000000" height="24.000000" rx="0.1" ry="0.1" style="stroke:none;fill:#aaaaaa;;filter:url(#filter);"/>
<rect x="486.400000" y="158.000000" width="24.000000" height="24.000000" rx="0" ry="0" style="stroke:none;fill:#4B71A1;"/>
<text x="498.400000" y="172.000000" font-family="Arial" font-size="7" text-anchor="middle" fill="#FFFFFF">*</text>
<circle cx="488.400000" cy="160.000000" r="1"/>
<line x1="483.400000" y1="165.000000" x2="486.400000" y2="166.000000"  transform="rotate(0.000000,486.400000,166.000000)" style="stroke: black; stroke-width:0.25;"/>
<line x1="483.400000" y1="167.000000" x2="486.400000" y2="166.000000"  transform="rotate(0.000000,486.400000,166.000000)" style="stroke: black; stroke-width:0.25;"/>
<line x1="483.400000" y1="173.000000" x2="486.400000" y2="174.000000"  transform="rotate(0.000000,486.400000,174.000000)" style="stroke: black; stroke-width:0.25;"/>
<line x1="483.400000" y1="175.000000" x2="486.400000" y2="174.000000"  transform="rotate(0.000000,486.400000,174.000000)" style="stroke: black; stroke-width:0.25;"/>
<rect x="218.700000" y="223.000000" width="129.000000" height="24.000000" rx="0.1" ry="0.1" style="stroke:none;fill:#aaaaaa;;filter:url(#filter);"/>
<rect x="217.700000" y="222.000000" width="129.000000" height="24.000000" rx="0" ry="0" style="stroke:none;fill:#477881;"/>
<text x="282.200000" y="236.000000" font-family="Arial" font-size="7" text-anchor="middle" fill="#FFFFFF">hslider(dry, 1, 0, 100, 0.1)</text>
<circle cx="219.700000" cy="224.000000" r="1"/>
<line x1="208.700000" y1="213.000000" x2="208.700000" y2="255.000000"  style="stroke: black; stroke-linecap:round; stroke-width:0.25; stroke-dasharray:3,3;"/>
<line x1="208.700000" y1="255.000000" x2="355.700000" y2="255.000000"  style="stroke: black; stroke-linecap:round; stroke-width:0.25; stroke-dasharray:3,3;"/>
<line x1="355.700000" y1="255.000000" x2="355.700000" y2="213.000000"  style="stroke: black; stroke-linecap:round; stroke-width:0.25; stroke-dasharray:3,3;"/>
<line x1="208.700000" y1="213.000000" x2="213.700000" y2="213.000000"  style="stroke: black; stroke-linecap:round; stroke-width:0.25; stroke-dasharray:3,3;"/>
<line x1="265.300000" y1="213.000000" x2="355.700000" y2="213.000000"  style="stroke: black; stroke-linecap:round; stroke-width:0.25; stroke-dasharray:3,3;"/>
<text x="213.700000" y="215.000000" font-family="Arial" font-size="7">Volumeinputdry</text>
<rect x="373.700000" y="219.000000" width="24.000000" height="24.000000" rx="0.1" ry="0.1" style="stroke:none;fill:#aaaaaa;;filter:url(#filter);"/>
<rect x="372.700000" y="218.000000" width="24.000000" height="24.000000" rx="0" ry="0" style="stroke:none;fill:#4B71A1;"/>
<text x="384.700000" y="232.000000" font-family="Arial" font-size="7" text-anchor="middle" fill="#FFFFFF">*</text>
<circle cx="374.700000" cy="220.000000" r="1"/>
<line x1="369.700000" y1="225.000000" x2="372.700000" y2="226.000000"  transform="rotate(0.000000,372.700000,226.000000)" style="stroke: black; stroke-width:0.25;"/>
<line x1="369.700000" y1="227.000000" x2="372.700000" y2="226.000000"  transform="rotate(0.000000,372.700000,226.000000)" style="stroke: black; stroke-width:0.25;"/>
<line x1="369.700000" y1="233.000000" x2="372.700000" y2="234.000000"  transform="rotate(0.000000,372.700000,234.000000)" style="stroke: black; stroke-width:0.25;"/>
<line x1="369.700000" y1="235.000000" x2="372.700000" y2="234.000000"  transform="rotate(0.000000,372.700000,234.000000)" style="stroke: black; stroke-width:0.25;"/>
<rect x="535.400000" y="113.000000" width="24.000000" height="24.000000" rx="0.1" ry="0.1" style="stroke:none;fill:#aaaaaa;;filter:url(#filter);"/>
<rect x="534.400000" y="112.000000" width="24.000000" height="24.000000" rx="0" ry="0" style="stroke:none;fill:#4B71A1;"/>
<text x="546.400000" y="126.000000" font-family="Arial" font-size="7" text-anchor="middle" fill="#FFFFFF">+</text>
<circle cx="536.400000" cy="114.000000" r="1"/>
<line x1="531.400000" y1="119.000000" x2="534.400000" y2="120.000000"  transform="rotate(0.000000,534.400000,120.000000)" style="stroke: black; stroke-width:0.25;"/>
<line x1="531.400000" y1="121.000000" x2="534.400000" y2="120.000000"  transform="rotate(0.000000,534.400000,120.000000)" style="stroke: black; stroke-width:0.25;"/>
<line x1="531.400000" y1="127.000000" x2="534.400000" y2="128.000000"  transform="rotate(0.000000,534.400000,128.000000)" style="stroke: black; stroke-width:0.25;"/>
<line x1="531.400000" y1="129.000000" x2="534.400000" y2="128.000000"  transform="rotate(0.000000,534.400000,128.000000)" style="stroke: black; stroke-width:0.25;"/>
<rect x="535.400000" y="145.000000" width="24.000000" height="24.000000" rx="0.1" ry="0.1" style="stroke:none;fill:#aaaaaa;;filter:url(#filter);"/>
<rect x="534.400000" y="144.000000" width="24.000000" height="24.000000" rx="0" ry="0" style="stroke:none;fill:#4B71A1;"/>
<text x="546.400000" y="158.000000" font-family="Arial" font-size="7" text-anchor="middle" fill="#FFFFFF">+</text>
<circle cx="536.400000" cy="146.000000" r="1"/>
<line x1="531.400000" y1="151.000000" x2="534.400000" y2="152.000000"  transform="rotate(0.000000,534.400000,152.000000)" style="stroke: black; stroke-width:0.25;"/>
<line x1="531.400000" y1="153.000000" x2="534.400000" y2="152.000000"  transform="rotate(0.000000,534.400000,152.000000)" style="stroke: black; stroke-width:0.25;"/>
<line x1="531.400000" y1="159.000000" x2="534.400000" y2="160.000000"  transform="rotate(0.000000,534.400000,160.000000)" style="stroke: black; stroke-width:0.25;"/>
<line x1="531.400000" y1="161.000000" x2="534.400000" y2="160.000000"  transform="rotate(0.000000,534.400000,160.000000)" style="stroke: black; stroke-width:0.25;"/>
<line x1="15.000000" y1="15.000000" x2="15.000000" y2="265.000000"  style="stroke: black; stroke-linecap:round; stroke-width:0.25; stroke-dasharray:3,3;"/>
<line x1="15.000000" y1="265.000000" x2="567.400000" y2="265.000000"  style="stroke: black; stroke-linecap:round; stroke-width:0.25; stroke-dasharray:3,3;"/>
<line x1="567.400000" y1="265.000000" x2="567.400000" y2="15.000000"  style="stroke: black; stroke-linecap:round; stroke-width:0.25; stroke-dasharray:3,3;"/>
<line x1="15.000000" y1="15.000000" x2="20.000000" y2="15.000000"  style="stroke: black; stroke-linecap:round; stroke-width:0.25; stroke-dasharray:3,3;"/>
<line x1="49.025000" y1="15.000000" x2="567.400000" y2="15.000000"  style="stroke: black; stroke-linecap:round; stroke-width:0.25; stroke-dasharray:3,3;"/>
<text x="20.000000" y="17.000000" font-family="Arial" font-size="7">process</text>
<line x1="569.400000" y1="123.000000" x2="572.400000" y2="124.000000"  transform="rotate(0.000000,572.400000,124.000000)" style="stroke: black; stroke-width:0.25;"/>
<line x1="569.400000" y1="125.000000" x2="572.400000" y2="124.000000"  transform="rotate(0.000000,572.400000,124.000000)" style="stroke: black; stroke-width:0.25;"/>
<line x1="569.400000" y1="155.000000" x2="572.400000" y2="156.000000"  transform="rotate(0.000000,572.400000,156.000000)" style="stroke: black; stroke-width:0.25;"/>
<line x1="569.400000" y1="157.000000" x2="572.400000" y2="156.000000"  transform="rotate(0.000000,572.400000,156.000000)" style="stroke: black; stroke-width:0.25;"/>
<line x1="10.000000" y1="140.000000" x2="20.000000" y2="140.000000"  style="stroke:black; stroke-linecap:round; stroke-width:0.25;"/>
<line x1="20.000000" y1="140.000000" x2="24.000000" y2="140.000000"  style="stroke:black; stroke-linecap:round; stroke-width:0.25;"/>
<line x1="24.000000" y1="140.000000" x2="28.000000" y2="140.000000"  style="stroke:black; stroke-linecap:round; stroke-width:0.25;"/>
<line x1="28.000000" y1="140.000000" x2="90.000000" y2="24.000000"  style="stroke:black; stroke-linecap:round; stroke-width:0.25;"/>
<line x1="28.000000" y1="140.000000" x2="90.000000" y2="140.000000"  style="stroke:black; stroke-linecap:round; stroke-width:0.25;"/>
<line x1="28.000000" y1="140.000000" x2="90.000000" y2="204.000000"  style="stroke:black; stroke-linecap:round; stroke-width:0.25;"/>
<line x1="90.000000" y1="24.000000" x2="203.700000" y2="24.000000"  style="stroke:black; stroke-linecap:round; stroke-width:0.25;"/>
<line x1="90.000000" y1="140.000000" x2="94.000000" y2="140.000000"  style="stroke:black; stroke-linecap:round; stroke-width:0.25;"/>
<line x1="90.000000" y1="204.000000" x2="203.700000" y2="204.000000"  style="stroke:black; stroke-linecap:round; stroke-width:0.25;"/>
<line x1="145.600000" y1="136.000000" x2="149.600000" y2="136.000000"  style="stroke:black; stroke-linecap:round; stroke-width:0.25;"/>
<line x1="145.600000" y1="144.000000" x2="149.600000" y2="144.000000"  style="stroke:black; stroke-linecap:round; stroke-width:0.25;"/>
<line x1="149.600000" y1="136.000000" x2="187.600000" y2="120.000000"  style="stroke:black; stroke-linecap:round; stroke-width:0.25;"/>
<line x1="149.600000" y1="136.000000" x2="187.600000" y2="152.000000"  style="stroke:black; stroke-linecap:round; stroke-width:0.25;"/>
<line x1="149.600000" y1="144.000000" x2="187.600000" y2="128.000000"  style="stroke:black; stroke-linecap:round; stroke-width:0.25;"/>
<line x1="149.600000" y1="144.000000" x2="187.600000" y2="160.000000"  style="stroke:black; stroke-linecap:round; stroke-width:0.25;"/>
<line x1="187.600000" y1="120.000000" x2="187.600000" y2="120.000000"  style="stroke:black; stroke-linecap:round; stroke-width:0.25;"/>
<line x1="187.600000" y1="120.000000" x2="191.600000" y2="120.000000"  style="stroke:black; stroke-linecap:round; stroke-width:0.25;"/>
<line x1="187.600000" y1="128.000000" x2="187.600000" y2="128.000000"  style="stroke:black; stroke-linecap:round; stroke-width:0.25;"/>
<line x1="187.600000" y1="128.000000" x2="191.600000" y2="128.000000"  style="stroke:black; stroke-linecap:round; stroke-width:0.25;"/>
<line x1="187.600000" y1="152.000000" x2="187.600000" y2="152.000000"  style="stroke:black; stroke-linecap:round; stroke-width:0.25;"/>
<line x1="187.600000" y1="152.000000" x2="191.600000" y2="152.000000"  style="stroke:black; stroke-linecap:round; stroke-width:0.25;"/>
<line x1="187.600000" y1="160.000000" x2="187.600000" y2="160.000000"  style="stroke:black; stroke-linecap:round; stroke-width:0.25;"/>
<line x1="187.600000" y1="160.000000" x2="191.600000" y2="160.000000"  style="stroke:black; stroke-linecap:round; stroke-width:0.25;"/>
<line x1="203.700000" y1="24.000000" x2="282.200000" y2="24.000000"  style="stroke:black; stroke-linecap:round; stroke-width:0.25;"/>
<line x1="203.700000" y1="204.000000" x2="282.200000" y2="204.000000"  style="stroke:black; stroke-linecap:round; stroke-width:0.25;"/>
<line x1="215.600000" y1="124.000000" x2="219.600000" y2="124.000000"  style="stroke:black; stroke-linecap:round; stroke-width:0.25;"/>
<line x1="215.600000" y1="156.000000" x2="219.600000" y2="156.000000"  style="stroke:black; stroke-linecap:round; stroke-width:0.25;"/>
<line x1="219.600000" y1="94.000000" x2="235.600000" y2="94.000000"  style="stroke:black; stroke-linecap:round; stroke-width:0.25;"/>
<line x1="219.600000" y1="124.000000" x2="219.600000" y2="94.000000"  style="stroke:black; stroke-linecap:round; stroke-width:0.25;"/>
<line x1="219.600000" y1="124.000000" x2="219.600000" y2="124.000000"  style="stroke:black; stroke-linecap:round; stroke-width:0.25;"/>
<line x1="219.600000" y1="156.000000" x2="227.600000" y2="156.000000"  style="stroke:black; stroke-linecap:round; stroke-width:0.25;"/>
<line x1="227.600000" y1="154.000000" x2="235.600000" y2="154.000000"  style="stroke:black; stroke-linecap:round; stroke-width:0.25;"/>
<line x1="227.600000" y1="156.000000" x2="227.600000" y2="154.000000"  style="stroke:black; stroke-linecap:round; stroke-width:0.25;"/>
<line x1="235.600000" y1="94.000000" x2="252.500000" y2="94.000000"  style="stroke:black; stroke-linecap:round; stroke-width:0.25;"/>
<line x1="235.600000" y1="154.000000" x2="252.500000" y2="154.000000"  style="stroke:black; stroke-linecap:round; stroke-width:0.25;"/>
<line x1="252.500000" y1="94.000000" x2="269.400000" y2="94.000000"  style="stroke:black; stroke-linecap:round; stroke-width:0.25;"/>
<line x1="252.500000" y1="154.000000" x2="269.400000" y2="154.000000"  style="stroke:black; stroke-linecap:round; stroke-width:0.25;"/>
<line x1="265.400000" y1="114.000000" x2="269.400000" y2="114.000000"  style="stroke:black; stroke-linecap:round; stroke-width:0.25;"/>
<line x1="265.400000" y1="174.000000" x2="269.400000" y2="174.000000"  style="stroke:black; stroke-linecap:round; stroke-width:0.25;"/>
<line x1="269.400000" y1="94.000000" x2="277.400000" y2="94.000000"  style="stroke:black; stroke-linecap:round; stroke-width:0.25;"/>
<line x1="269.400000" y1="114.000000" x2="277.400000" y2="114.000000"  style="stroke:black; stroke-linecap:round; stroke-width:0.25;"/>
<line x1="269.400000" y1="154.000000" x2="277.400000" y2="154.000000"  style="stroke:black; stroke-linecap:round; stroke-width:0.25;"/>
<line x1="269.400000" y1="174.000000" x2="277.400000" y2="174.000000"  style="stroke:black; stroke-linecap:round; stroke-width:0.25;"/>
<line x1="277.400000" y1="94.000000" x2="277.400000" y2="106.000000"  style="stroke:black; stroke-linecap:round; stroke-width:0.25;"/>
<line x1="277.400000" y1="106.000000" x2="277.400000" y2="106.000000"  style="stroke:black; stroke-linecap:round; stroke-width:0.25;"/>
<line x1="277.400000" y1="106.000000" x2="281.400000" y2="106.000000"  style="stroke:black; stroke-linecap:round; stroke-width:0.25;"/>
<line x1="277.400000" y1="114.000000" x2="281.400000" y2="114.000000"  style="stroke:black; stroke-linecap:round; stroke-width:0.25;"/>
<line x1="277.400000" y1="154.000000" x2="277.400000" y2="166.000000"  style="stroke:black; stroke-linecap:round; stroke-width:0.25;"/>
<line x1="277.400000" y1="166.000000" x2="277.400000" y2="166.000000"  style="stroke:black; stroke-linecap:round; stroke-width:0.25;"/>
<line x1="277.400000" y1="166.000000" x2="281.400000" y2="166.000000"  style="stroke:black; stroke-linecap:round; stroke-width:0.25;"/>
<line x1="277.400000" y1="174.000000" x2="281.400000" y2="174.000000"  style="stroke:black; stroke-linecap:round; stroke-width:0.25;"/>
<line x1="282.200000" y1="24.000000" x2="360.700000" y2="24.000000"  style="stroke:black; stroke-linecap:round; stroke-width:0.25;"/>
<line x1="282.200000" y1="204.000000" x2="360.700000" y2="204.000000"  style="stroke:black; stroke-linecap:round; stroke-width:0.25;"/>
<line x1="305.400000" y1="110.000000" x2="309.400000" y2="110.000000"  style="stroke:black; stroke-linecap:round; stroke-width:0.25;"/>
<line x1="305.400000" y1="170.000000" x2="309.400000" y2="170.000000"  style="stroke:black; stroke-linecap:round; stroke-width:0.25;"/>
<line x1="309.400000" y1="84.000000" x2="317.400000" y2="84.000000"  style="stroke:black; stroke-linecap:round; stroke-width:0.25;"/>
<line x1="309.400000" y1="110.000000" x2="309.400000" y2="84.000000"  style="stroke:black; stroke-linecap:round; stroke-width:0.25;"/>
<line x1="309.400000" y1="110.000000" x2="309.400000" y2="110.000000"  style="stroke:black; stroke-linecap:round; stroke-width:0.25;"/>
<line x1="309.400000" y1="144.000000" x2="317.400000" y2="144.000000"  style="stroke:black; stroke-linecap:round; stroke-width:0.25;"/>
<line x1="309.400000" y1="170.000000" x2="309.400000" y2="144.000000"  style="stroke:black; stroke-linecap:round; stroke-width:0.25;"/>
<line x1="309.400000" y1="170.000000" x2="309.400000" y2="170.000000"  style="stroke:black; stroke-linecap:round; stroke-width:0.25;"/>
<line x1="317.400000" y1="84.000000" x2="395.900000" y2="84.000000"  style="stroke:black; stroke-linecap:round; stroke-width:0.25;"/>
<line x1="317.400000" y1="144.000000" x2="395.900000" y2="144.000000"  style="stroke:black; stroke-linecap:round; stroke-width:0.25;"/>
<line x1="346.700000" y1="54.000000" x2="350.700000" y2="54.000000"  style="stroke:black; stroke-linecap:round; stroke-width:0.25;"/>
<line x1="346.700000" y1="234.000000" x2="350.700000" y2="234.000000"  style="stroke:black; stroke-linecap:round; stroke-width:0.25;"/>
<line x1="350.700000" y1="54.000000" x2="360.700000" y2="54.000000"  style="stroke:black; stroke-linecap:round; stroke-width:0.25;"/>
<line x1="350.700000" y1="234.000000" x2="360.700000" y2="234.000000"  style="stroke:black; stroke-linecap:round; stroke-width:0.25;"/>
<line x1="360.700000" y1="24.000000" x2="368.700000" y2="24.000000"  style="stroke:black; stroke-linecap:round; stroke-width:0.25;"/>
<line x1="360.700000" y1="54.000000" x2="368.700000" y2="54.000000"  style="stroke:black; stroke-linecap:round; stroke-width:0.25;"/>
<line x1="360.700000" y1="204.000000" x2="368.700000" y2="204.000000"  style="stroke:black; stroke-linecap:round; stroke-width:0.25;"/>
<line x1="360.700000" y1="234.000000" x2="368.700000" y2="234.000000"  style="stroke:black; stroke-linecap:round; stroke-width:0.25;"/>
<line x1="368.700000" y1="24.000000" x2="368.700000" y2="46.000000"  style="stroke:black; stroke-linecap:round; stroke-width:0.25;"/>
<line x1="368.700000" y1="46.000000" x2="368.700000" y2="46.000000"  style="stroke:black; stroke-linecap:round; stroke-width:0.25;"/>
<line x1="368.700000" y1="46.000000" x2="372.700000" y2="46.000000"  style="stroke:black; stroke-linecap:round; stroke-width:0.25;"/>
<line x1="368.700000" y1="54.000000" x2="372.700000" y2="54.000000"  style="stroke:black; stroke-linecap:round; stroke-width:0.25;"/>
<line x1="368.700000" y1="204.000000" x2="368.700000" y2="226.000000"  style="stroke:black; stroke-linecap:round; stroke-width:0.25;"/>
<line x1="368.700000" y1="226.000000" x2="368.700000" y2="226.000000"  style="stroke:black; stroke-linecap:round; stroke-width:0.25;"/>
<line x1="368.700000" y1="226.000000" x2="372.700000" y2="226.000000"  style="stroke:black; stroke-linecap:round; stroke-width:0.25;"/>
<line x1="368.700000" y1="234.000000" x2="372.700000" y2="234.000000"  style="stroke:black; stroke-linecap:round; stroke-width:0.25;"/>
<line x1="395.900000" y1="84.000000" x2="474.400000" y2="84.000000"  style="stroke:black; stroke-linecap:round; stroke-width:0.25;"/>
<line x1="395.900000" y1="144.000000" x2="474.400000" y2="144.000000"  style="stroke:black; stroke-linecap:round; stroke-width:0.25;"/>
<line x1="396.700000" y1="50.000000" x2="400.700000" y2="50.000000"  style="stroke:black; stroke-linecap:round; stroke-width:0.25;"/>
<line x1="396.700000" y1="230.000000" x2="400.700000" y2="230.000000"  style="stroke:black; stroke-linecap:round; stroke-width:0.25;"/>
<line x1="400.700000" y1="50.000000" x2="514.400000" y2="50.000000"  style="stroke:black; stroke-linecap:round; stroke-width:0.25;"/>
<line x1="400.700000" y1="230.000000" x2="514.400000" y2="230.000000"  style="stroke:black; stroke-linecap:round; stroke-width:0.25;"/>
<line x1="460.400000" y1="114.000000" x2="464.400000" y2="114.000000"  style="stroke:black; stroke-linecap:round; stroke-width:0.25;"/>
<line x1="460.400000" y1="174.000000" x2="464.400000" y2="174.000000"  style="stroke:black; stroke-linecap:round; stroke-width:0.25;"/>
<line x1="464.400000" y1="114.000000" x2="474.400000" y2="114.000000"  style="stroke:black; stroke-linecap:round; stroke-width:0.25;"/>
<line x1="464.400000" y1="174.000000" x2="474.400000" y2="174.000000"  style="stroke:black; stroke-linecap:round; stroke-width:0.25;"/>
<line x1="474.400000" y1="84.000000" x2="482.400000" y2="84.000000"  style="stroke:black; stroke-linecap:round; stroke-width:0.25;"/>
<line x1="474.400000" y1="114.000000" x2="482.400000" y2="114.000000"  style="stroke:black; stroke-linecap:round; stroke-width:0.25;"/>
<line x1="474.400000" y1="144.000000" x2="482.400000" y2="144.000000"  style="stroke:black; stroke-linecap:round; stroke-width:0.25;"/>
<line x1="474.400000" y1="174.000000" x2="482.400000" y2="174.000000"  style="stroke:black; stroke-linecap:round; stroke-width:0.25;"/>
<line x1="482.400000" y1="84.000000" x2="482.400000" y2="106.000000"  style="stroke:black; stroke-linecap:round; stroke-width:0.25;"/>
<line x1="482.400000" y1="106.000000" x2="482.400000" y2="106.000000"  style="stroke:black; stroke-linecap:round; stroke-width:0.25;"/>
<line x1="482.400000" y1="106.000000" x2="486.400000" y2="106.000000"  style="stroke:black; stroke-linecap:round; stroke-width:0.25;"/>
<line x1="482.400000" y1="114.000000" x2="486.400000" y2="114.000000"  style="stroke:black; stroke-linecap:round; stroke-width:0.25;"/>
<line x1="482.400000" y1="144.000000" x2="482.400000" y2="166.000000"  style="stroke:black; stroke-linecap:round; stroke-width:0.25;"/>
<line x1="482.400000" y1="166.000000" x2="482.400000" y2="166.000000"  style="stroke:black; stroke-linecap:round; stroke-width:0.25;"/>
<line x1="482.400000" y1="166.000000" x2="486.400000" y2="166.000000"  style="stroke:black; stroke-linecap:round; stroke-width:0.25;"/>
<line x1="482.400000" y1="174.000000" x2="486.400000" y2="174.000000"  style="stroke:black; stroke-linecap:round; stroke-width:0.25;"/>
<line x1="510.400000" y1="110.000000" x2="514.400000" y2="110.000000"  style="stroke:black; stroke-linecap:round; stroke-width:0.25;"/>
<line x1="510.400000" y1="170.000000" x2="514.400000" y2="170.000000"  style="stroke:black; stroke-linecap:round; stroke-width:0.25;"/>
<line x1="514.400000" y1="50.000000" x2="530.400000" y2="50.000000"  style="stroke:black; stroke-linecap:round; stroke-width:0.25;"/>
<line x1="514.400000" y1="110.000000" x2="522.400000" y2="110.000000"  style="stroke:black; stroke-linecap:round; stroke-width:0.25;"/>
<line x1="514.400000" y1="152.000000" x2="530.400000" y2="152.000000"  style="stroke:black; stroke-linecap:round; stroke-width:0.25;"/>
<line x1="514.400000" y1="170.000000" x2="514.400000" y2="152.000000"  style="stroke:black; stroke-linecap:round; stroke-width:0.25;"/>
<line x1="514.400000" y1="170.000000" x2="514.400000" y2="170.000000"  style="stroke:black; stroke-linecap:round; stroke-width:0.25;"/>
<line x1="514.400000" y1="230.000000" x2="522.400000" y2="230.000000"  style="stroke:black; stroke-linecap:round; stroke-width:0.25;"/>
<line x1="522.400000" y1="110.000000" x2="522.400000" y2="128.000000"  style="stroke:black; stroke-linecap:round; stroke-width:0.25;"/>
<line x1="522.400000" y1="128.000000" x2="530.400000" y2="128.000000"  style="stroke:black; stroke-linecap:round; stroke-width:0.25;"/>
<line x1="522.400000" y1="160.000000" x2="530.400000" y2="160.000000"  style="stroke:black; stroke-linecap:round; stroke-width:0.25;"/>
<line x1="522.400000" y1="230.000000" x2="522.400000" y2="160.000000"  style="stroke:black; stroke-linecap:round; stroke-width:0.25;"/>
<line x1="530.400000" y1="50.000000" x2="530.400000" y2="120.000000"  style="stroke:black; stroke-linecap:round; stroke-width:0.25;"/>
<line x1="530.400000" y1="120.000000" x2="530.400000" y2="120.000000"  style="stroke:black; stroke-linecap:round; stroke-width:0.25;"/>
<line x1="530.400000" y1="120.000000" x2="534.400000" y2="120.000000"  style="stroke:black; stroke-linecap:round; stroke-width:0.25;"/>
<line x1="530.400000" y1="128.000000" x2="530.400000" y2="128.000000"  style="stroke:black; stroke-linecap:round; stroke-width:0.25;"/>
<line x1="530.400000" y1="128.000000" x2="534.400000" y2="128.000000"  style="stroke:black; stroke-linecap:round; stroke-width:0.25;"/>
<line x1="530.400000" y1="152.000000" x2="530.400000" y2="152.000000"  style="stroke:black; stroke-linecap:round; stroke-width:0.25;"/>
<line x1="530.400000" y1="152.000000" x2="534.400000" y2="152.000000"  style="stroke:black; stroke-linecap:round; stroke-width:0.25;"/>
<line x1="530.400000" y1="160.000000" x2="530.400000" y2="160.000000"  style="stroke:black; stroke-linecap:round; stroke-width:0.25;"/>
<line x1="530.400000" y1="160.000000" x2="534.400000" y2="160.000000"  style="stroke:black; stroke-linecap:round; stroke-width:0.25;"/>
<line x1="558.400000" y1="124.000000" x2="562.400000" y2="124.000000"  style="stroke:black; stroke-linecap:round; stroke-width:0.25;"/>
<line x1="558.400000" y1="156.000000" x2="562.400000" y2="156.000000"  style="stroke:black; stroke-linecap:round; stroke-width:0.25;"/>
<line x1="562.400000" y1="124.000000" x2="572.400000" y2="124.000000"  style="stroke:black; stroke-linecap:round; stroke-width:0.25;"/>
<line x1="562.400000" y1="156.000000" x2="572.400000" y2="156.000000"  style="stroke:black; stroke-linecap:round; stroke-width:0.25;"/>
</svg>
