<?xml version="1.0"?>
<svg xmlns="http://www.w3.org/2000/svg" xmlns:xlink="http://www.w3.org/1999/xlink" viewBox="0 0 651.400000 296.000000" width="325.700000mm" height="148.000000mm" version="1.1">
<rect x="1.000000" y="1.000000" width="650.400000" height="295.000000" rx="0" ry="0" style="stroke:none;fill:#cccccc;"/>
<rect x="0.000000" y="0.000000" width="650.400000" height="295.000000" rx="0" ry="0" style="stroke:none;fill:#ffffff;"/>
<text x="10.000000" y="7.000000" font-family="Arial" font-size="7"></text>
<rect x="130.000000" y="113.000000" width="180.600000" height="24.000000" rx="0" ry="0" style="stroke:none;fill:#cccccc;"/>
<rect x="129.000000" y="112.000000" width="180.600000" height="24.000000" rx="0" ry="0" style="stroke:none;fill:#477881;"/>
<text x="219.300000" y="126.000000" font-family="Arial" font-size="7" text-anchor="middle" fill="#FFFFFF">hslider(time(x), 1.0f, 0.0f, 1e+01f, 0.1f)</text>
<circle cx="131.000000" cy="114.000000" r="1"/>
<line x1="120.000000" y1="103.000000" x2="120.000000" y2="145.000000"  style="stroke: black; stroke-linecap:round; stroke-width:0.25; stroke-dasharray:3,3;"/>
<line x1="120.000000" y1="145.000000" x2="318.600000" y2="145.000000"  style="stroke: black; stroke-linecap:round; stroke-width:0.25; stroke-dasharray:3,3;"/>
<line x1="318.600000" y1="145.000000" x2="318.600000" y2="103.000000"  style="stroke: black; stroke-linecap:round; stroke-width:0.25; stroke-dasharray:3,3;"/>
<line x1="120.000000" y1="103.000000" x2="125.000000" y2="103.000000"  style="stroke: black; stroke-linecap:round; stroke-width:0.25; stroke-dasharray:3,3;"/>
<line x1="147.575000" y1="103.000000" x2="318.600000" y2="103.000000"  style="stroke: black; stroke-linecap:round; stroke-width:0.25; stroke-dasharray:3,3;"/>
<text x="125.000000" y="105.000000" font-family="Arial" font-size="7">Delay</text>
<rect x="187.400000" y="165.000000" width="25.800000" height="24.000000" rx="0" ry="0" style="stroke:none;fill:#cccccc;"/>
<rect x="186.400000" y="164.000000" width="25.800000" height="24.000000" rx="0" ry="0" style="stroke:none;fill:#f44800;"/>
<text x="199.300000" y="178.000000" font-family="Arial" font-size="7" text-anchor="middle" fill="#FFFFFF">192000</text>
<circle cx="188.400000" cy="166.000000" r="1"/>
<rect x="168.300000" y="197.000000" width="24.000000" height="24.000000" rx="0" ry="0" style="stroke:none;fill:#cccccc;"/>
<rect x="167.300000" y="196.000000" width="24.000000" height="24.000000" rx="0" ry="0" style="stroke:none;fill:#f44800;"/>
<text x="179.300000" y="210.000000" font-family="Arial" font-size="7" text-anchor="middle" fill="#FFFFFF">1</text>
<circle cx="169.300000" cy="198.000000" r="1"/>
<rect x="148.050000" y="229.000000" width="64.500000" height="24.000000" rx="0" ry="0" style="stroke:none;fill:#cccccc;"/>
<rect x="147.050000" y="228.000000" width="64.500000" height="24.000000" rx="0" ry="0" style="stroke:none;fill:#4B71A1;"/>
<text x="179.300000" y="242.000000" font-family="Arial" font-size="7" text-anchor="middle" fill="#FFFFFF">fSamplingFreq</text>
<circle cx="149.050000" cy="230.000000" r="1"/>
<rect x="228.550000" y="213.000000" width="24.000000" height="24.000000" rx="0" ry="0" style="stroke:none;fill:#cccccc;"/>
<rect x="227.550000" y="212.000000" width="24.000000" height="24.000000" rx="0" ry="0" style="stroke:none;fill:#4B71A1;"/>
<text x="239.550000" y="226.000000" font-family="Arial" font-size="7" text-anchor="middle" fill="#FFFFFF">max</text>
<circle cx="229.550000" cy="214.000000" r="1"/>
<line x1="224.550000" y1="219.000000" x2="227.550000" y2="220.000000"  transform="rotate(0.000000,227.550000,220.000000)" style="stroke: black; stroke-width:0.25;"/>
<line x1="224.550000" y1="221.000000" x2="227.550000" y2="220.000000"  transform="rotate(0.000000,227.550000,220.000000)" style="stroke: black; stroke-width:0.25;"/>
<line x1="224.550000" y1="227.000000" x2="227.550000" y2="228.000000"  transform="rotate(0.000000,227.550000,228.000000)" style="stroke: black; stroke-width:0.25;"/>
<line x1="224.550000" y1="229.000000" x2="227.550000" y2="228.000000"  transform="rotate(0.000000,227.550000,228.000000)" style="stroke: black; stroke-width:0.25;"/>
<rect x="268.550000" y="197.000000" width="24.000000" height="24.000000" rx="0" ry="0" style="stroke:none;fill:#cccccc;"/>
<rect x="267.550000" y="196.000000" width="24.000000" height="24.000000" rx="0" ry="0" style="stroke:none;fill:#4B71A1;"/>
<text x="279.550000" y="210.000000" font-family="Arial" font-size="7" text-anchor="middle" fill="#FFFFFF">min</text>
<circle cx="269.550000" cy="198.000000" r="1"/>
<line x1="264.550000" y1="203.000000" x2="267.550000" y2="204.000000"  transform="rotate(0.000000,267.550000,204.000000)" style="stroke: black; stroke-width:0.25;"/>
<line x1="264.550000" y1="205.000000" x2="267.550000" y2="204.000000"  transform="rotate(0.000000,267.550000,204.000000)" style="stroke: black; stroke-width:0.25;"/>
<line x1="264.550000" y1="211.000000" x2="267.550000" y2="212.000000"  transform="rotate(0.000000,267.550000,212.000000)" style="stroke: black; stroke-width:0.25;"/>
<line x1="264.550000" y1="213.000000" x2="267.550000" y2="212.000000"  transform="rotate(0.000000,267.550000,212.000000)" style="stroke: black; stroke-width:0.25;"/>
<line x1="138.050000" y1="155.000000" x2="138.050000" y2="261.000000"  style="stroke: black; stroke-linecap:round; stroke-width:0.25; stroke-dasharray:3,3;"/>
<line x1="138.050000" y1="261.000000" x2="300.550000" y2="261.000000"  style="stroke: black; stroke-linecap:round; stroke-width:0.25; stroke-dasharray:3,3;"/>
<line x1="300.550000" y1="261.000000" x2="300.550000" y2="155.000000"  style="stroke: black; stroke-linecap:round; stroke-width:0.25; stroke-dasharray:3,3;"/>
<line x1="138.050000" y1="155.000000" x2="143.050000" y2="155.000000"  style="stroke: black; stroke-linecap:round; stroke-width:0.25; stroke-dasharray:3,3;"/>
<line x1="155.950000" y1="155.000000" x2="300.550000" y2="155.000000"  style="stroke: black; stroke-linecap:round; stroke-width:0.25; stroke-dasharray:3,3;"/>
<text x="143.050000" y="157.000000" font-family="Arial" font-size="7">SR</text>
<rect x="336.600000" y="171.000000" width="24.000000" height="24.000000" rx="0" ry="0" style="stroke:none;fill:#cccccc;"/>
<rect x="335.600000" y="170.000000" width="24.000000" height="24.000000" rx="0" ry="0" style="stroke:none;fill:#4B71A1;"/>
<text x="347.600000" y="184.000000" font-family="Arial" font-size="7" text-anchor="middle" fill="#FFFFFF">*</text>
<circle cx="337.600000" cy="172.000000" r="1"/>
<line x1="332.600000" y1="177.000000" x2="335.600000" y2="178.000000"  transform="rotate(0.000000,335.600000,178.000000)" style="stroke: black; stroke-width:0.25;"/>
<line x1="332.600000" y1="179.000000" x2="335.600000" y2="178.000000"  transform="rotate(0.000000,335.600000,178.000000)" style="stroke: black; stroke-width:0.25;"/>
<line x1="332.600000" y1="185.000000" x2="335.600000" y2="186.000000"  transform="rotate(0.000000,335.600000,186.000000)" style="stroke: black; stroke-width:0.25;"/>
<line x1="332.600000" y1="187.000000" x2="335.600000" y2="186.000000"  transform="rotate(0.000000,335.600000,186.000000)" style="stroke: black; stroke-width:0.25;"/>
<rect x="368.600000" y="171.000000" width="24.000000" height="24.000000" rx="0" ry="0" style="stroke:none;fill:#cccccc;"/>
<rect x="367.600000" y="170.000000" width="24.000000" height="24.000000" rx="0" ry="0" style="stroke:none;fill:#4B71A1;"/>
<text x="379.600000" y="184.000000" font-family="Arial" font-size="7" text-anchor="middle" fill="#FFFFFF">int</text>
<circle cx="369.600000" cy="172.000000" r="1"/>
<line x1="364.600000" y1="181.000000" x2="367.600000" y2="182.000000"  transform="rotate(0.000000,367.600000,182.000000)" style="stroke: black; stroke-width:0.25;"/>
<line x1="364.600000" y1="183.000000" x2="367.600000" y2="182.000000"  transform="rotate(0.000000,367.600000,182.000000)" style="stroke: black; stroke-width:0.25;"/>
<rect x="408.600000" y="167.000000" width="24.000000" height="24.000000" rx="0" ry="0" style="stroke:none;fill:#cccccc;"/>
<rect x="407.600000" y="166.000000" width="24.000000" height="24.000000" rx="0" ry="0" style="stroke:none;fill:#f44800;"/>
<text x="419.600000" y="180.000000" font-family="Arial" font-size="7" text-anchor="middle" fill="#FFFFFF">0</text>
<circle cx="409.600000" cy="168.000000" r="1"/>
<rect x="448.600000" y="171.000000" width="24.000000" height="24.000000" rx="0" ry="0" style="stroke:none;fill:#cccccc;"/>
<rect x="447.600000" y="170.000000" width="24.000000" height="24.000000" rx="0" ry="0" style="stroke:none;fill:#4B71A1;"/>
<text x="459.600000" y="184.000000" font-family="Arial" font-size="7" text-anchor="middle" fill="#FFFFFF">max</text>
<circle cx="449.600000" cy="172.000000" r="1"/>
<line x1="444.600000" y1="177.000000" x2="447.600000" y2="178.000000"  transform="rotate(0.000000,447.600000,178.000000)" style="stroke: black; stroke-width:0.25;"/>
<line x1="444.600000" y1="179.000000" x2="447.600000" y2="178.000000"  transform="rotate(0.000000,447.600000,178.000000)" style="stroke: black; stroke-width:0.25;"/>
<line x1="444.600000" y1="185.000000" x2="447.600000" y2="186.000000"  transform="rotate(0.000000,447.600000,186.000000)" style="stroke: black; stroke-width:0.25;"/>
<line x1="444.600000" y1="187.000000" x2="447.600000" y2="186.000000"  transform="rotate(0.000000,447.600000,186.000000)" style="stroke: black; stroke-width:0.25;"/>
<rect x="488.600000" y="167.000000" width="25.800000" height="24.000000" rx="0" ry="0" style="stroke:none;fill:#cccccc;"/>
<rect x="487.600000" y="166.000000" width="25.800000" height="24.000000" rx="0" ry="0" style="stroke:none;fill:#f44800;"/>
<text x="500.500000" y="180.000000" font-family="Arial" font-size="7" text-anchor="middle" fill="#FFFFFF">10000</text>
<circle cx="489.600000" cy="168.000000" r="1"/>
<rect x="530.400000" y="171.000000" width="24.000000" height="24.000000" rx="0" ry="0" style="stroke:none;fill:#cccccc;"/>
<rect x="529.400000" y="170.000000" width="24.000000" height="24.000000" rx="0" ry="0" style="stroke:none;fill:#4B71A1;"/>
<text x="541.400000" y="184.000000" font-family="Arial" font-size="7" text-anchor="middle" fill="#FFFFFF">min</text>
<circle cx="531.400000" cy="172.000000" r="1"/>
<line x1="526.400000" y1="177.000000" x2="529.400000" y2="178.000000"  transform="rotate(0.000000,529.400000,178.000000)" style="stroke: black; stroke-width:0.25;"/>
<line x1="526.400000" y1="179.000000" x2="529.400000" y2="178.000000"  transform="rotate(0.000000,529.400000,178.000000)" style="stroke: black; stroke-width:0.25;"/>
<line x1="526.400000" y1="185.000000" x2="529.400000" y2="186.000000"  transform="rotate(0.000000,529.400000,186.000000)" style="stroke: black; stroke-width:0.25;"/>
<line x1="526.400000" y1="187.000000" x2="529.400000" y2="186.000000"  transform="rotate(0.000000,529.400000,186.000000)" style="stroke: black; stroke-width:0.25;"/>
<rect x="570.400000" y="167.000000" width="24.000000" height="24.000000" rx="0" ry="0" style="stroke:none;fill:#cccccc;"/>
<rect x="569.400000" y="166.000000" width="24.000000" height="24.000000" rx="0" ry="0" style="stroke:none;fill:#4B71A1;"/>
<text x="581.400000" y="180.000000" font-family="Arial" font-size="7" text-anchor="middle" fill="#FFFFFF">@</text>
<circle cx="571.400000" cy="168.000000" r="1"/>
<line x1="566.400000" y1="173.000000" x2="569.400000" y2="174.000000"  transform="rotate(0.000000,569.400000,174.000000)" style="stroke: black; stroke-width:0.25;"/>
<line x1="566.400000" y1="175.000000" x2="569.400000" y2="174.000000"  transform="rotate(0.000000,569.400000,174.000000)" style="stroke: black; stroke-width:0.25;"/>
<line x1="566.400000" y1="181.000000" x2="569.400000" y2="182.000000"  transform="rotate(0.000000,569.400000,182.000000)" style="stroke: black; stroke-width:0.25;"/>
<line x1="566.400000" y1="183.000000" x2="569.400000" y2="182.000000"  transform="rotate(0.000000,569.400000,182.000000)" style="stroke: black; stroke-width:0.25;"/>
<line x1="110.000000" y1="85.000000" x2="110.000000" y2="271.000000"  style="stroke: black; stroke-linecap:round; stroke-width:0.25; stroke-dasharray:3,3;"/>
<line x1="110.000000" y1="271.000000" x2="602.400000" y2="271.000000"  style="stroke: black; stroke-linecap:round; stroke-width:0.25; stroke-dasharray:3,3;"/>
<line x1="602.400000" y1="271.000000" x2="602.400000" y2="85.000000"  style="stroke: black; stroke-linecap:round; stroke-width:0.25; stroke-dasharray:3,3;"/>
<line x1="110.000000" y1="85.000000" x2="115.000000" y2="85.000000"  style="stroke: black; stroke-linecap:round; stroke-width:0.25; stroke-dasharray:3,3;"/>
<line x1="147.250000" y1="85.000000" x2="602.400000" y2="85.000000"  style="stroke: black; stroke-linecap:round; stroke-width:0.25; stroke-dasharray:3,3;"/>
<text x="115.000000" y="87.000000" font-family="Arial" font-size="7">vertraag</text>
<rect x="249.950000" y="35.000000" width="193.500000" height="24.000000" rx="0" ry="0" style="stroke:none;fill:#cccccc;"/>
<rect x="248.950000" y="34.000000" width="193.500000" height="24.000000" rx="0" ry="0" style="stroke:none;fill:#477881;"/>
<text x="345.700000" y="48.000000" font-family="Arial" font-size="7" text-anchor="middle" fill="#FFFFFF">hslider(feedback, 0.0f, 0.5f, 2.0f, 0.001f)</text>
<circle cx="440.450000" cy="56.000000" r="1"/>
<line x1="239.950000" y1="25.000000" x2="239.950000" y2="67.000000"  style="stroke: black; stroke-linecap:round; stroke-width:0.25; stroke-dasharray:3,3;"/>
<line x1="239.950000" y1="67.000000" x2="451.450000" y2="67.000000"  style="stroke: black; stroke-linecap:round; stroke-width:0.25; stroke-dasharray:3,3;"/>
<line x1="451.450000" y1="67.000000" x2="451.450000" y2="25.000000"  style="stroke: black; stroke-linecap:round; stroke-width:0.25; stroke-dasharray:3,3;"/>
<line x1="239.950000" y1="25.000000" x2="244.950000" y2="25.000000"  style="stroke: black; stroke-linecap:round; stroke-width:0.25; stroke-dasharray:3,3;"/>
<line x1="277.200000" y1="25.000000" x2="451.450000" y2="25.000000"  style="stroke: black; stroke-linecap:round; stroke-width:0.25; stroke-dasharray:3,3;"/>
<text x="244.950000" y="27.000000" font-family="Arial" font-size="7">Feedback</text>
<rect x="199.950000" y="39.000000" width="24.000000" height="24.000000" rx="0" ry="0" style="stroke:none;fill:#cccccc;"/>
<rect x="198.950000" y="38.000000" width="24.000000" height="24.000000" rx="0" ry="0" style="stroke:none;fill:#4B71A1;"/>
<text x="210.950000" y="52.000000" font-family="Arial" font-size="7" text-anchor="middle" fill="#FFFFFF">*</text>
<circle cx="220.950000" cy="60.000000" r="1"/>
<line x1="225.950000" y1="53.000000" x2="222.950000" y2="54.000000"  transform="rotate(0.000000,222.950000,54.000000)" style="stroke: black; stroke-width:0.25;"/>
<line x1="225.950000" y1="55.000000" x2="222.950000" y2="54.000000"  transform="rotate(0.000000,222.950000,54.000000)" style="stroke: black; stroke-width:0.25;"/>
<line x1="225.950000" y1="45.000000" x2="222.950000" y2="46.000000"  transform="rotate(0.000000,222.950000,46.000000)" style="stroke: black; stroke-width:0.25;"/>
<line x1="225.950000" y1="47.000000" x2="222.950000" y2="46.000000"  transform="rotate(0.000000,222.950000,46.000000)" style="stroke: black; stroke-width:0.25;"/>
<line x1="605.400000" y1="178.000000" x2="605.400000" y2="174.000000"  style="stroke:black; stroke-linecap:round; stroke-width:0.25;"/>
<line x1="605.400000" y1="174.000000" x2="609.400000" y2="174.000000"  style="stroke:black; stroke-linecap:round; stroke-width:0.25;"/>
<line x1="609.400000" y1="174.000000" x2="609.400000" y2="178.000000"  style="stroke:black; stroke-linecap:round; stroke-width:0.25;"/>
<line x1="15.000000" y1="15.000000" x2="15.000000" y2="281.000000"  style="stroke: black; stroke-linecap:round; stroke-width:0.25; stroke-dasharray:3,3;"/>
<line x1="15.000000" y1="281.000000" x2="636.400000" y2="281.000000"  style="stroke: black; stroke-linecap:round; stroke-width:0.25; stroke-dasharray:3,3;"/>
<line x1="636.400000" y1="281.000000" x2="636.400000" y2="15.000000"  style="stroke: black; stroke-linecap:round; stroke-width:0.25; stroke-dasharray:3,3;"/>
<line x1="15.000000" y1="15.000000" x2="20.000000" y2="15.000000"  style="stroke: black; stroke-linecap:round; stroke-width:0.25; stroke-dasharray:3,3;"/>
<line x1="49.025000" y1="15.000000" x2="636.400000" y2="15.000000"  style="stroke: black; stroke-linecap:round; stroke-width:0.25; stroke-dasharray:3,3;"/>
<text x="20.000000" y="17.000000" font-family="Arial" font-size="7">process</text>
<line x1="638.400000" y1="147.000000" x2="641.400000" y2="148.000000"  transform="rotate(0.000000,641.400000,148.000000)" style="stroke: black; stroke-width:0.25;"/>
<line x1="638.400000" y1="149.000000" x2="641.400000" y2="148.000000"  transform="rotate(0.000000,641.400000,148.000000)" style="stroke: black; stroke-width:0.25;"/>
<line x1="10.000000" y1="148.000000" x2="20.000000" y2="148.000000"  style="stroke:black; stroke-linecap:round; stroke-width:0.25;"/>
<line x1="20.000000" y1="148.000000" x2="24.000000" y2="148.000000"  style="stroke:black; stroke-linecap:round; stroke-width:0.25;"/>
<line x1="24.000000" y1="148.000000" x2="28.000000" y2="148.000000"  style="stroke:black; stroke-linecap:round; stroke-width:0.25;"/>
<line x1="28.000000" y1="148.000000" x2="36.000000" y2="148.000000"  style="stroke:black; stroke-linecap:round; stroke-width:0.25;"/>
<line x1="36.000000" y1="148.000000" x2="36.000000" y2="182.000000"  style="stroke:black; stroke-linecap:round; stroke-width:0.25;"/>
<line x1="36.000000" y1="182.000000" x2="36.000000" y2="182.000000"  style="stroke:black; stroke-linecap:round; stroke-width:0.25;"/>
<line x1="36.000000" y1="182.000000" x2="44.000000" y2="182.000000"  style="stroke:black; stroke-linecap:round; stroke-width:0.25;"/>
<line x1="44.000000" y1="50.000000" x2="44.000000" y2="50.000000"  style="stroke:black; stroke-linecap:round; stroke-width:0.25;"/>
<line x1="44.000000" y1="50.000000" x2="44.000000" y2="174.000000"  style="stroke:black; stroke-linecap:round; stroke-width:0.25;"/>
<line x1="44.000000" y1="174.000000" x2="44.000000" y2="174.000000"  style="stroke:black; stroke-linecap:round; stroke-width:0.25;"/>
<line x1="44.000000" y1="174.000000" x2="48.000000" y2="174.000000"  style="stroke:black; stroke-linecap:round; stroke-width:0.25;"/>
<line x1="44.000000" y1="182.000000" x2="48.000000" y2="182.000000"  style="stroke:black; stroke-linecap:round; stroke-width:0.25;"/>
<line x1="48.000000" y1="174.000000" x2="52.000000" y2="174.000000"  style="stroke:black; stroke-linecap:round; stroke-width:0.25;"/>
<line x1="48.000000" y1="182.000000" x2="52.000000" y2="182.000000"  style="stroke:black; stroke-linecap:round; stroke-width:0.25;"/>
<line x1="52.000000" y1="174.000000" x2="105.000000" y2="94.000000"  style="stroke:black; stroke-linecap:round; stroke-width:0.25;"/>
<line x1="52.000000" y1="182.000000" x2="105.000000" y2="94.000000"  style="stroke:black; stroke-linecap:round; stroke-width:0.25;"/>
<line x1="105.000000" y1="94.000000" x2="115.000000" y2="94.000000"  style="stroke:black; stroke-linecap:round; stroke-width:0.25;"/>
<line x1="115.000000" y1="94.000000" x2="336.200000" y2="94.000000"  style="stroke:black; stroke-linecap:round; stroke-width:0.25;"/>
<line x1="191.300000" y1="208.000000" x2="195.300000" y2="208.000000"  style="stroke:black; stroke-linecap:round; stroke-width:0.25;"/>
<line x1="194.950000" y1="50.000000" x2="44.000000" y2="50.000000"  style="stroke:black; stroke-linecap:round; stroke-width:0.25;"/>
<line x1="195.300000" y1="208.000000" x2="215.550000" y2="208.000000"  style="stroke:black; stroke-linecap:round; stroke-width:0.25;"/>
<line x1="198.950000" y1="50.000000" x2="194.950000" y2="50.000000"  style="stroke:black; stroke-linecap:round; stroke-width:0.25;"/>
<line x1="211.550000" y1="240.000000" x2="215.550000" y2="240.000000"  style="stroke:black; stroke-linecap:round; stroke-width:0.25;"/>
<line x1="212.200000" y1="176.000000" x2="216.200000" y2="176.000000"  style="stroke:black; stroke-linecap:round; stroke-width:0.25;"/>
<line x1="215.550000" y1="208.000000" x2="223.550000" y2="208.000000"  style="stroke:black; stroke-linecap:round; stroke-width:0.25;"/>
<line x1="215.550000" y1="228.000000" x2="223.550000" y2="228.000000"  style="stroke:black; stroke-linecap:round; stroke-width:0.25;"/>
<line x1="215.550000" y1="240.000000" x2="215.550000" y2="228.000000"  style="stroke:black; stroke-linecap:round; stroke-width:0.25;"/>
<line x1="215.550000" y1="240.000000" x2="215.550000" y2="240.000000"  style="stroke:black; stroke-linecap:round; stroke-width:0.25;"/>
<line x1="216.200000" y1="176.000000" x2="255.550000" y2="176.000000"  style="stroke:black; stroke-linecap:round; stroke-width:0.25;"/>
<line x1="223.550000" y1="208.000000" x2="223.550000" y2="220.000000"  style="stroke:black; stroke-linecap:round; stroke-width:0.25;"/>
<line x1="223.550000" y1="220.000000" x2="223.550000" y2="220.000000"  style="stroke:black; stroke-linecap:round; stroke-width:0.25;"/>
<line x1="223.550000" y1="220.000000" x2="227.550000" y2="220.000000"  style="stroke:black; stroke-linecap:round; stroke-width:0.25;"/>
<line x1="223.550000" y1="228.000000" x2="227.550000" y2="228.000000"  style="stroke:black; stroke-linecap:round; stroke-width:0.25;"/>
<line x1="226.950000" y1="46.000000" x2="222.950000" y2="46.000000"  style="stroke:black; stroke-linecap:round; stroke-width:0.25;"/>
<line x1="226.950000" y1="54.000000" x2="222.950000" y2="54.000000"  style="stroke:black; stroke-linecap:round; stroke-width:0.25;"/>
<line x1="226.950000" y1="54.000000" x2="226.950000" y2="54.000000"  style="stroke:black; stroke-linecap:round; stroke-width:0.25;"/>
<line x1="226.950000" y1="76.000000" x2="226.950000" y2="54.000000"  style="stroke:black; stroke-linecap:round; stroke-width:0.25;"/>
<line x1="234.950000" y1="46.000000" x2="226.950000" y2="46.000000"  style="stroke:black; stroke-linecap:round; stroke-width:0.25;"/>
<line x1="234.950000" y1="76.000000" x2="226.950000" y2="76.000000"  style="stroke:black; stroke-linecap:round; stroke-width:0.25;"/>
<line x1="244.950000" y1="46.000000" x2="234.950000" y2="46.000000"  style="stroke:black; stroke-linecap:round; stroke-width:0.25;"/>
<line x1="248.950000" y1="46.000000" x2="244.950000" y2="46.000000"  style="stroke:black; stroke-linecap:round; stroke-width:0.25;"/>
<line x1="251.550000" y1="224.000000" x2="255.550000" y2="224.000000"  style="stroke:black; stroke-linecap:round; stroke-width:0.25;"/>
<line x1="255.550000" y1="176.000000" x2="263.550000" y2="176.000000"  style="stroke:black; stroke-linecap:round; stroke-width:0.25;"/>
<line x1="255.550000" y1="212.000000" x2="263.550000" y2="212.000000"  style="stroke:black; stroke-linecap:round; stroke-width:0.25;"/>
<line x1="255.550000" y1="224.000000" x2="255.550000" y2="212.000000"  style="stroke:black; stroke-linecap:round; stroke-width:0.25;"/>
<line x1="255.550000" y1="224.000000" x2="255.550000" y2="224.000000"  style="stroke:black; stroke-linecap:round; stroke-width:0.25;"/>
<line x1="263.550000" y1="176.000000" x2="263.550000" y2="204.000000"  style="stroke:black; stroke-linecap:round; stroke-width:0.25;"/>
<line x1="263.550000" y1="204.000000" x2="263.550000" y2="204.000000"  style="stroke:black; stroke-linecap:round; stroke-width:0.25;"/>
<line x1="263.550000" y1="204.000000" x2="267.550000" y2="204.000000"  style="stroke:black; stroke-linecap:round; stroke-width:0.25;"/>
<line x1="263.550000" y1="212.000000" x2="267.550000" y2="212.000000"  style="stroke:black; stroke-linecap:round; stroke-width:0.25;"/>
<line x1="291.550000" y1="208.000000" x2="295.550000" y2="208.000000"  style="stroke:black; stroke-linecap:round; stroke-width:0.25;"/>
<line x1="295.550000" y1="208.000000" x2="305.550000" y2="208.000000"  style="stroke:black; stroke-linecap:round; stroke-width:0.25;"/>
<line x1="305.550000" y1="208.000000" x2="323.600000" y2="208.000000"  style="stroke:black; stroke-linecap:round; stroke-width:0.25;"/>
<line x1="309.600000" y1="124.000000" x2="313.600000" y2="124.000000"  style="stroke:black; stroke-linecap:round; stroke-width:0.25;"/>
<line x1="313.600000" y1="124.000000" x2="323.600000" y2="124.000000"  style="stroke:black; stroke-linecap:round; stroke-width:0.25;"/>
<line x1="323.600000" y1="124.000000" x2="331.600000" y2="124.000000"  style="stroke:black; stroke-linecap:round; stroke-width:0.25;"/>
<line x1="323.600000" y1="186.000000" x2="331.600000" y2="186.000000"  style="stroke:black; stroke-linecap:round; stroke-width:0.25;"/>
<line x1="323.600000" y1="208.000000" x2="323.600000" y2="186.000000"  style="stroke:black; stroke-linecap:round; stroke-width:0.25;"/>
<line x1="323.600000" y1="208.000000" x2="323.600000" y2="208.000000"  style="stroke:black; stroke-linecap:round; stroke-width:0.25;"/>
<line x1="331.600000" y1="124.000000" x2="331.600000" y2="178.000000"  style="stroke:black; stroke-linecap:round; stroke-width:0.25;"/>
<line x1="331.600000" y1="178.000000" x2="331.600000" y2="178.000000"  style="stroke:black; stroke-linecap:round; stroke-width:0.25;"/>
<line x1="331.600000" y1="178.000000" x2="335.600000" y2="178.000000"  style="stroke:black; stroke-linecap:round; stroke-width:0.25;"/>
<line x1="331.600000" y1="186.000000" x2="335.600000" y2="186.000000"  style="stroke:black; stroke-linecap:round; stroke-width:0.25;"/>
<line x1="336.200000" y1="94.000000" x2="557.400000" y2="94.000000"  style="stroke:black; stroke-linecap:round; stroke-width:0.25;"/>
<line x1="345.700000" y1="76.000000" x2="234.950000" y2="76.000000"  style="stroke:black; stroke-linecap:round; stroke-width:0.25;"/>
<line x1="359.600000" y1="182.000000" x2="363.600000" y2="182.000000"  style="stroke:black; stroke-linecap:round; stroke-width:0.25;"/>
<line x1="363.600000" y1="182.000000" x2="363.600000" y2="182.000000"  style="stroke:black; stroke-linecap:round; stroke-width:0.25;"/>
<line x1="363.600000" y1="182.000000" x2="367.600000" y2="182.000000"  style="stroke:black; stroke-linecap:round; stroke-width:0.25;"/>
<line x1="391.600000" y1="182.000000" x2="395.600000" y2="182.000000"  style="stroke:black; stroke-linecap:round; stroke-width:0.25;"/>
<line x1="395.600000" y1="182.000000" x2="403.600000" y2="182.000000"  style="stroke:black; stroke-linecap:round; stroke-width:0.25;"/>
<line x1="403.600000" y1="182.000000" x2="403.600000" y2="198.000000"  style="stroke:black; stroke-linecap:round; stroke-width:0.25;"/>
<line x1="403.600000" y1="198.000000" x2="403.600000" y2="198.000000"  style="stroke:black; stroke-linecap:round; stroke-width:0.25;"/>
<line x1="403.600000" y1="198.000000" x2="419.600000" y2="198.000000"  style="stroke:black; stroke-linecap:round; stroke-width:0.25;"/>
<line x1="419.600000" y1="198.000000" x2="435.600000" y2="198.000000"  style="stroke:black; stroke-linecap:round; stroke-width:0.25;"/>
<line x1="431.600000" y1="178.000000" x2="435.600000" y2="178.000000"  style="stroke:black; stroke-linecap:round; stroke-width:0.25;"/>
<line x1="435.600000" y1="178.000000" x2="443.600000" y2="178.000000"  style="stroke:black; stroke-linecap:round; stroke-width:0.25;"/>
<line x1="435.600000" y1="186.000000" x2="443.600000" y2="186.000000"  style="stroke:black; stroke-linecap:round; stroke-width:0.25;"/>
<line x1="435.600000" y1="198.000000" x2="435.600000" y2="186.000000"  style="stroke:black; stroke-linecap:round; stroke-width:0.25;"/>
<line x1="435.600000" y1="198.000000" x2="435.600000" y2="198.000000"  style="stroke:black; stroke-linecap:round; stroke-width:0.25;"/>
<line x1="443.600000" y1="178.000000" x2="447.600000" y2="178.000000"  style="stroke:black; stroke-linecap:round; stroke-width:0.25;"/>
<line x1="443.600000" y1="186.000000" x2="447.600000" y2="186.000000"  style="stroke:black; stroke-linecap:round; stroke-width:0.25;"/>
<line x1="456.450000" y1="76.000000" x2="345.700000" y2="76.000000"  style="stroke:black; stroke-linecap:round; stroke-width:0.25;"/>
<line x1="471.600000" y1="182.000000" x2="475.600000" y2="182.000000"  style="stroke:black; stroke-linecap:round; stroke-width:0.25;"/>
<line x1="475.600000" y1="182.000000" x2="483.600000" y2="182.000000"  style="stroke:black; stroke-linecap:round; stroke-width:0.25;"/>
<line x1="483.600000" y1="182.000000" x2="483.600000" y2="198.000000"  style="stroke:black; stroke-linecap:round; stroke-width:0.25;"/>
<line x1="483.600000" y1="198.000000" x2="483.600000" y2="198.000000"  style="stroke:black; stroke-linecap:round; stroke-width:0.25;"/>
<line x1="483.600000" y1="198.000000" x2="500.500000" y2="198.000000"  style="stroke:black; stroke-linecap:round; stroke-width:0.25;"/>
<line x1="500.500000" y1="198.000000" x2="517.400000" y2="198.000000"  style="stroke:black; stroke-linecap:round; stroke-width:0.25;"/>
<line x1="513.400000" y1="178.000000" x2="517.400000" y2="178.000000"  style="stroke:black; stroke-linecap:round; stroke-width:0.25;"/>
<line x1="517.400000" y1="178.000000" x2="525.400000" y2="178.000000"  style="stroke:black; stroke-linecap:round; stroke-width:0.25;"/>
<line x1="517.400000" y1="186.000000" x2="525.400000" y2="186.000000"  style="stroke:black; stroke-linecap:round; stroke-width:0.25;"/>
<line x1="517.400000" y1="198.000000" x2="517.400000" y2="186.000000"  style="stroke:black; stroke-linecap:round; stroke-width:0.25;"/>
<line x1="517.400000" y1="198.000000" x2="517.400000" y2="198.000000"  style="stroke:black; stroke-linecap:round; stroke-width:0.25;"/>
<line x1="525.400000" y1="178.000000" x2="529.400000" y2="178.000000"  style="stroke:black; stroke-linecap:round; stroke-width:0.25;"/>
<line x1="525.400000" y1="186.000000" x2="529.400000" y2="186.000000"  style="stroke:black; stroke-linecap:round; stroke-width:0.25;"/>
<line x1="553.400000" y1="182.000000" x2="557.400000" y2="182.000000"  style="stroke:black; stroke-linecap:round; stroke-width:0.25;"/>
<line x1="557.400000" y1="94.000000" x2="565.400000" y2="94.000000"  style="stroke:black; stroke-linecap:round; stroke-width:0.25;"/>
<line x1="557.400000" y1="182.000000" x2="565.400000" y2="182.000000"  style="stroke:black; stroke-linecap:round; stroke-width:0.25;"/>
<line x1="565.400000" y1="94.000000" x2="565.400000" y2="174.000000"  style="stroke:black; stroke-linecap:round; stroke-width:0.25;"/>
<line x1="565.400000" y1="174.000000" x2="565.400000" y2="174.000000"  style="stroke:black; stroke-linecap:round; stroke-width:0.25;"/>
<line x1="565.400000" y1="174.000000" x2="569.400000" y2="174.000000"  style="stroke:black; stroke-linecap:round; stroke-width:0.25;"/>
<line x1="565.400000" y1="182.000000" x2="569.400000" y2="182.000000"  style="stroke:black; stroke-linecap:round; stroke-width:0.25;"/>
<line x1="593.400000" y1="178.000000" x2="597.400000" y2="178.000000"  style="stroke:black; stroke-linecap:round; stroke-width:0.25;"/>
<line x1="597.400000" y1="178.000000" x2="607.400000" y2="178.000000"  style="stroke:black; stroke-linecap:round; stroke-width:0.25;"/>
<line x1="607.400000" y1="76.000000" x2="456.450000" y2="76.000000"  style="stroke:black; stroke-linecap:round; stroke-width:0.25;"/>
<line x1="607.400000" y1="76.000000" x2="607.400000" y2="76.000000"  style="stroke:black; stroke-linecap:round; stroke-width:0.25;"/>
<line x1="607.400000" y1="174.000000" x2="607.400000" y2="76.000000"  style="stroke:black; stroke-linecap:round; stroke-width:0.25;"/>
<line x1="607.400000" y1="178.000000" x2="609.400000" y2="178.000000"  style="stroke:black; stroke-linecap:round; stroke-width:0.25;"/>
<line x1="609.400000" y1="178.000000" x2="615.400000" y2="178.000000"  style="stroke:black; stroke-linecap:round; stroke-width:0.25;"/>
<line x1="615.400000" y1="148.000000" x2="623.400000" y2="148.000000"  style="stroke:black; stroke-linecap:round; stroke-width:0.25;"/>
<line x1="615.400000" y1="178.000000" x2="615.400000" y2="148.000000"  style="stroke:black; stroke-linecap:round; stroke-width:0.25;"/>
<line x1="615.400000" y1="178.000000" x2="615.400000" y2="178.000000"  style="stroke:black; stroke-linecap:round; stroke-width:0.25;"/>
<line x1="623.400000" y1="148.000000" x2="627.400000" y2="148.000000"  style="stroke:black; stroke-linecap:round; stroke-width:0.25;"/>
<line x1="627.400000" y1="148.000000" x2="631.400000" y2="148.000000"  style="stroke:black; stroke-linecap:round; stroke-width:0.25;"/>
<line x1="631.400000" y1="148.000000" x2="641.400000" y2="148.000000"  style="stroke:black; stroke-linecap:round; stroke-width:0.25;"/>
</svg>
