<?xml version="1.0"?>
<svg xmlns="http://www.w3.org/2000/svg" xmlns:xlink="http://www.w3.org/1999/xlink" viewBox="0 0 284.100000 284.000000" width="142.050000mm" height="142.000000mm" version="1.1">
<a xlink:href="process.svg">
<rect x="1.000000" y="1.000000" width="283.100000" height="283.000000" rx="0" ry="0" style="stroke:none;fill:#cccccc;"/>
<rect x="0.000000" y="0.000000" width="283.100000" height="283.000000" rx="0" ry="0" style="stroke:none;fill:#ffffff;"/>
</a>
<text x="10.000000" y="7.000000" font-family="Arial" font-size="7"></text>
<rect x="33.000000" y="131.000000" width="24.000000" height="24.000000" rx="0" ry="0" style="stroke:none;fill:#cccccc;"/>
<rect x="32.000000" y="130.000000" width="24.000000" height="24.000000" rx="0" ry="0" style="stroke:none;fill:#47945E;"/>
<text x="44.000000" y="144.000000" font-family="Arial" font-size="7" text-anchor="middle" fill="#FFFFFF">x</text>
<circle cx="34.000000" cy="132.000000" r="1"/>
<line x1="29.000000" y1="141.000000" x2="32.000000" y2="142.000000"  transform="rotate(0.000000,32.000000,142.000000)" style="stroke: black; stroke-width:0.25;"/>
<line x1="29.000000" y1="143.000000" x2="32.000000" y2="142.000000"  transform="rotate(0.000000,32.000000,142.000000)" style="stroke: black; stroke-width:0.25;"/>
<rect x="110.800000" y="35.000000" width="25.800000" height="24.000000" rx="0" ry="0" style="stroke:none;fill:#cccccc;"/>
<rect x="109.800000" y="34.000000" width="25.800000" height="24.000000" rx="0" ry="0" style="stroke:none;fill:#f44800;"/>
<text x="122.700000" y="48.000000" font-family="Arial" font-size="7" text-anchor="middle" fill="#FFFFFF">480000</text>
<circle cx="111.800000" cy="36.000000" r="1"/>
<line x1="100.800000" y1="25.000000" x2="100.800000" y2="67.000000"  style="stroke: black; stroke-linecap:round; stroke-width:0.25; stroke-dasharray:3,3;"/>
<line x1="100.800000" y1="67.000000" x2="144.600000" y2="67.000000"  style="stroke: black; stroke-linecap:round; stroke-width:0.25; stroke-dasharray:3,3;"/>
<line x1="144.600000" y1="67.000000" x2="144.600000" y2="25.000000"  style="stroke: black; stroke-linecap:round; stroke-width:0.25; stroke-dasharray:3,3;"/>
<line x1="100.800000" y1="25.000000" x2="105.800000" y2="25.000000"  style="stroke: black; stroke-linecap:round; stroke-width:0.25; stroke-dasharray:3,3;"/>
<line x1="144.600000" y1="25.000000" x2="144.600000" y2="25.000000"  style="stroke: black; stroke-linecap:round; stroke-width:0.25; stroke-dasharray:3,3;"/>
<text x="105.800000" y="27.000000" font-family="Arial" font-size="7">delayBufferSize</text>
<rect x="111.700000" y="77.000000" width="24.000000" height="24.000000" rx="0" ry="0" style="stroke:none;fill:#cccccc;"/>
<rect x="110.700000" y="76.000000" width="24.000000" height="24.000000" rx="0" ry="0" style="stroke:none;fill:#f44800;"/>
<text x="122.700000" y="90.000000" font-family="Arial" font-size="7" text-anchor="middle" fill="#FFFFFF">0</text>
<circle cx="112.700000" cy="78.000000" r="1"/>
<a xlink:href="counter-0x2198e10.svg">
<rect x="84.350000" y="109.000000" width="38.700000" height="24.000000" rx="0" ry="0" style="stroke:none;fill:#cccccc;"/>
<rect x="83.350000" y="108.000000" width="38.700000" height="24.000000" rx="0" ry="0" style="stroke:none;fill:#003366;"/>
</a>
<a xlink:href="counter-0x2198e10.svg">
<text x="102.700000" y="122.000000" font-family="Arial" font-size="7" text-anchor="middle" fill="#FFFFFF">counter</text>
</a>
<circle cx="85.350000" cy="110.000000" r="1"/>
<a xlink:href="delayLength-0x212e0d0.svg">
<rect x="77.900000" y="141.000000" width="51.600000" height="24.000000" rx="0" ry="0" style="stroke:none;fill:#cccccc;"/>
<rect x="76.900000" y="140.000000" width="51.600000" height="24.000000" rx="0" ry="0" style="stroke:none;fill:#003366;"/>
</a>
<a xlink:href="delayLength-0x212e0d0.svg">
<text x="102.700000" y="154.000000" font-family="Arial" font-size="7" text-anchor="middle" fill="#FFFFFF">delayLength</text>
</a>
<circle cx="78.900000" cy="142.000000" r="1"/>
<rect x="145.500000" y="125.000000" width="24.000000" height="24.000000" rx="0" ry="0" style="stroke:none;fill:#cccccc;"/>
<rect x="144.500000" y="124.000000" width="24.000000" height="24.000000" rx="0" ry="0" style="stroke:none;fill:#4B71A1;"/>
<text x="156.500000" y="138.000000" font-family="Arial" font-size="7" text-anchor="middle" fill="#FFFFFF">%</text>
<circle cx="146.500000" cy="126.000000" r="1"/>
<line x1="141.500000" y1="131.000000" x2="144.500000" y2="132.000000"  transform="rotate(0.000000,144.500000,132.000000)" style="stroke: black; stroke-width:0.25;"/>
<line x1="141.500000" y1="133.000000" x2="144.500000" y2="132.000000"  transform="rotate(0.000000,144.500000,132.000000)" style="stroke: black; stroke-width:0.25;"/>
<line x1="141.500000" y1="139.000000" x2="144.500000" y2="140.000000"  transform="rotate(0.000000,144.500000,140.000000)" style="stroke: black; stroke-width:0.25;"/>
<line x1="141.500000" y1="141.000000" x2="144.500000" y2="140.000000"  transform="rotate(0.000000,144.500000,140.000000)" style="stroke: black; stroke-width:0.25;"/>
<rect x="111.700000" y="173.000000" width="24.000000" height="24.000000" rx="0" ry="0" style="stroke:none;fill:#cccccc;"/>
<rect x="110.700000" y="172.000000" width="24.000000" height="24.000000" rx="0" ry="0" style="stroke:none;fill:#47945E;"/>
<text x="122.700000" y="186.000000" font-family="Arial" font-size="7" text-anchor="middle" fill="#FFFFFF">x</text>
<circle cx="112.700000" cy="174.000000" r="1"/>
<a xlink:href="grainPosition-0x244d7d0.svg">
<rect x="65.000000" y="205.000000" width="77.400000" height="24.000000" rx="0" ry="0" style="stroke:none;fill:#cccccc;"/>
<rect x="64.000000" y="204.000000" width="77.400000" height="24.000000" rx="0" ry="0" style="stroke:none;fill:#003366;"/>
</a>
<a xlink:href="grainPosition-0x244d7d0.svg">
<text x="102.700000" y="218.000000" font-family="Arial" font-size="7" text-anchor="middle" fill="#FFFFFF">grainPosition(2)</text>
</a>
<circle cx="66.000000" cy="206.000000" r="1"/>
<a xlink:href="delayLength-0x212e0d0.svg">
<rect x="77.900000" y="237.000000" width="51.600000" height="24.000000" rx="0" ry="0" style="stroke:none;fill:#cccccc;"/>
<rect x="76.900000" y="236.000000" width="51.600000" height="24.000000" rx="0" ry="0" style="stroke:none;fill:#003366;"/>
</a>
<a xlink:href="delayLength-0x212e0d0.svg">
<text x="102.700000" y="250.000000" font-family="Arial" font-size="7" text-anchor="middle" fill="#FFFFFF">delayLength</text>
</a>
<circle cx="78.900000" cy="238.000000" r="1"/>
<rect x="158.400000" y="221.000000" width="24.000000" height="24.000000" rx="0" ry="0" style="stroke:none;fill:#cccccc;"/>
<rect x="157.400000" y="220.000000" width="24.000000" height="24.000000" rx="0" ry="0" style="stroke:none;fill:#4B71A1;"/>
<text x="169.400000" y="234.000000" font-family="Arial" font-size="7" text-anchor="middle" fill="#FFFFFF">%</text>
<circle cx="159.400000" cy="222.000000" r="1"/>
<line x1="154.400000" y1="227.000000" x2="157.400000" y2="228.000000"  transform="rotate(0.000000,157.400000,228.000000)" style="stroke: black; stroke-width:0.25;"/>
<line x1="154.400000" y1="229.000000" x2="157.400000" y2="228.000000"  transform="rotate(0.000000,157.400000,228.000000)" style="stroke: black; stroke-width:0.25;"/>
<line x1="154.400000" y1="235.000000" x2="157.400000" y2="236.000000"  transform="rotate(0.000000,157.400000,236.000000)" style="stroke: black; stroke-width:0.25;"/>
<line x1="154.400000" y1="237.000000" x2="157.400000" y2="236.000000"  transform="rotate(0.000000,157.400000,236.000000)" style="stroke: black; stroke-width:0.25;"/>
<rect x="214.400000" y="123.000000" width="38.700000" height="40.000000" rx="0" ry="0" style="stroke:none;fill:#cccccc;"/>
<rect x="213.400000" y="122.000000" width="38.700000" height="40.000000" rx="0" ry="0" style="stroke:none;fill:#4B71A1;"/>
<text x="232.750000" y="144.000000" font-family="Arial" font-size="7" text-anchor="middle" fill="#FFFFFF">rwtable</text>
<circle cx="215.400000" cy="124.000000" r="1"/>
<line x1="210.400000" y1="125.000000" x2="213.400000" y2="126.000000"  transform="rotate(0.000000,213.400000,126.000000)" style="stroke: black; stroke-width:0.25;"/>
<line x1="210.400000" y1="127.000000" x2="213.400000" y2="126.000000"  transform="rotate(0.000000,213.400000,126.000000)" style="stroke: black; stroke-width:0.25;"/>
<line x1="210.400000" y1="133.000000" x2="213.400000" y2="134.000000"  transform="rotate(0.000000,213.400000,134.000000)" style="stroke: black; stroke-width:0.25;"/>
<line x1="210.400000" y1="135.000000" x2="213.400000" y2="134.000000"  transform="rotate(0.000000,213.400000,134.000000)" style="stroke: black; stroke-width:0.25;"/>
<line x1="210.400000" y1="141.000000" x2="213.400000" y2="142.000000"  transform="rotate(0.000000,213.400000,142.000000)" style="stroke: black; stroke-width:0.25;"/>
<line x1="210.400000" y1="143.000000" x2="213.400000" y2="142.000000"  transform="rotate(0.000000,213.400000,142.000000)" style="stroke: black; stroke-width:0.25;"/>
<line x1="210.400000" y1="149.000000" x2="213.400000" y2="150.000000"  transform="rotate(0.000000,213.400000,150.000000)" style="stroke: black; stroke-width:0.25;"/>
<line x1="210.400000" y1="151.000000" x2="213.400000" y2="150.000000"  transform="rotate(0.000000,213.400000,150.000000)" style="stroke: black; stroke-width:0.25;"/>
<line x1="210.400000" y1="157.000000" x2="213.400000" y2="158.000000"  transform="rotate(0.000000,213.400000,158.000000)" style="stroke: black; stroke-width:0.25;"/>
<line x1="210.400000" y1="159.000000" x2="213.400000" y2="158.000000"  transform="rotate(0.000000,213.400000,158.000000)" style="stroke: black; stroke-width:0.25;"/>
<line x1="15.000000" y1="15.000000" x2="15.000000" y2="269.000000"  style="stroke: black; stroke-linecap:round; stroke-width:0.25; stroke-dasharray:3,3;"/>
<line x1="15.000000" y1="269.000000" x2="269.100000" y2="269.000000"  style="stroke: black; stroke-linecap:round; stroke-width:0.25; stroke-dasharray:3,3;"/>
<line x1="269.100000" y1="269.000000" x2="269.100000" y2="15.000000"  style="stroke: black; stroke-linecap:round; stroke-width:0.25; stroke-dasharray:3,3;"/>
<line x1="15.000000" y1="15.000000" x2="20.000000" y2="15.000000"  style="stroke: black; stroke-linecap:round; stroke-width:0.25; stroke-dasharray:3,3;"/>
<line x1="119.975000" y1="15.000000" x2="269.100000" y2="15.000000"  style="stroke: black; stroke-linecap:round; stroke-width:0.25; stroke-dasharray:3,3;"/>
<text x="20.000000" y="17.000000" font-family="Arial" font-size="7">buffer(((_,1 ..._ : int) : +)</text>
<line x1="271.100000" y1="141.000000" x2="274.100000" y2="142.000000"  transform="rotate(0.000000,274.100000,142.000000)" style="stroke: black; stroke-width:0.25;"/>
<line x1="271.100000" y1="143.000000" x2="274.100000" y2="142.000000"  transform="rotate(0.000000,274.100000,142.000000)" style="stroke: black; stroke-width:0.25;"/>
<line x1="10.000000" y1="142.000000" x2="20.000000" y2="142.000000"  style="stroke:black; stroke-linecap:round; stroke-width:0.25;"/>
<line x1="20.000000" y1="142.000000" x2="24.000000" y2="142.000000"  style="stroke:black; stroke-linecap:round; stroke-width:0.25;"/>
<line x1="24.000000" y1="142.000000" x2="28.000000" y2="142.000000"  style="stroke:black; stroke-linecap:round; stroke-width:0.25;"/>
<line x1="28.000000" y1="142.000000" x2="28.000000" y2="142.000000"  style="stroke:black; stroke-linecap:round; stroke-width:0.25;"/>
<line x1="28.000000" y1="142.000000" x2="32.000000" y2="142.000000"  style="stroke:black; stroke-linecap:round; stroke-width:0.25;"/>
<line x1="122.050000" y1="120.000000" x2="126.050000" y2="120.000000"  style="stroke:black; stroke-linecap:round; stroke-width:0.25;"/>
<line x1="126.050000" y1="120.000000" x2="132.500000" y2="120.000000"  style="stroke:black; stroke-linecap:round; stroke-width:0.25;"/>
<line x1="128.500000" y1="152.000000" x2="132.500000" y2="152.000000"  style="stroke:black; stroke-linecap:round; stroke-width:0.25;"/>
<line x1="128.500000" y1="248.000000" x2="132.500000" y2="248.000000"  style="stroke:black; stroke-linecap:round; stroke-width:0.25;"/>
<line x1="132.500000" y1="120.000000" x2="140.500000" y2="120.000000"  style="stroke:black; stroke-linecap:round; stroke-width:0.25;"/>
<line x1="132.500000" y1="140.000000" x2="140.500000" y2="140.000000"  style="stroke:black; stroke-linecap:round; stroke-width:0.25;"/>
<line x1="132.500000" y1="152.000000" x2="132.500000" y2="140.000000"  style="stroke:black; stroke-linecap:round; stroke-width:0.25;"/>
<line x1="132.500000" y1="152.000000" x2="132.500000" y2="152.000000"  style="stroke:black; stroke-linecap:round; stroke-width:0.25;"/>
<line x1="132.500000" y1="248.000000" x2="145.400000" y2="248.000000"  style="stroke:black; stroke-linecap:round; stroke-width:0.25;"/>
<line x1="134.700000" y1="88.000000" x2="138.700000" y2="88.000000"  style="stroke:black; stroke-linecap:round; stroke-width:0.25;"/>
<line x1="134.700000" y1="184.000000" x2="138.700000" y2="184.000000"  style="stroke:black; stroke-linecap:round; stroke-width:0.25;"/>
<line x1="135.600000" y1="46.000000" x2="139.600000" y2="46.000000"  style="stroke:black; stroke-linecap:round; stroke-width:0.25;"/>
<line x1="138.700000" y1="88.000000" x2="185.400000" y2="88.000000"  style="stroke:black; stroke-linecap:round; stroke-width:0.25;"/>
<line x1="138.700000" y1="184.000000" x2="185.400000" y2="184.000000"  style="stroke:black; stroke-linecap:round; stroke-width:0.25;"/>
<line x1="139.600000" y1="46.000000" x2="149.600000" y2="46.000000"  style="stroke:black; stroke-linecap:round; stroke-width:0.25;"/>
<line x1="140.500000" y1="120.000000" x2="140.500000" y2="132.000000"  style="stroke:black; stroke-linecap:round; stroke-width:0.25;"/>
<line x1="140.500000" y1="132.000000" x2="140.500000" y2="132.000000"  style="stroke:black; stroke-linecap:round; stroke-width:0.25;"/>
<line x1="140.500000" y1="132.000000" x2="144.500000" y2="132.000000"  style="stroke:black; stroke-linecap:round; stroke-width:0.25;"/>
<line x1="140.500000" y1="140.000000" x2="144.500000" y2="140.000000"  style="stroke:black; stroke-linecap:round; stroke-width:0.25;"/>
<line x1="141.400000" y1="216.000000" x2="145.400000" y2="216.000000"  style="stroke:black; stroke-linecap:round; stroke-width:0.25;"/>
<line x1="145.400000" y1="216.000000" x2="153.400000" y2="216.000000"  style="stroke:black; stroke-linecap:round; stroke-width:0.25;"/>
<line x1="145.400000" y1="236.000000" x2="153.400000" y2="236.000000"  style="stroke:black; stroke-linecap:round; stroke-width:0.25;"/>
<line x1="145.400000" y1="248.000000" x2="145.400000" y2="236.000000"  style="stroke:black; stroke-linecap:round; stroke-width:0.25;"/>
<line x1="145.400000" y1="248.000000" x2="145.400000" y2="248.000000"  style="stroke:black; stroke-linecap:round; stroke-width:0.25;"/>
<line x1="149.600000" y1="46.000000" x2="185.400000" y2="46.000000"  style="stroke:black; stroke-linecap:round; stroke-width:0.25;"/>
<line x1="153.400000" y1="216.000000" x2="153.400000" y2="228.000000"  style="stroke:black; stroke-linecap:round; stroke-width:0.25;"/>
<line x1="153.400000" y1="228.000000" x2="153.400000" y2="228.000000"  style="stroke:black; stroke-linecap:round; stroke-width:0.25;"/>
<line x1="153.400000" y1="228.000000" x2="157.400000" y2="228.000000"  style="stroke:black; stroke-linecap:round; stroke-width:0.25;"/>
<line x1="153.400000" y1="236.000000" x2="157.400000" y2="236.000000"  style="stroke:black; stroke-linecap:round; stroke-width:0.25;"/>
<line x1="168.500000" y1="136.000000" x2="172.500000" y2="136.000000"  style="stroke:black; stroke-linecap:round; stroke-width:0.25;"/>
<line x1="172.500000" y1="136.000000" x2="185.400000" y2="136.000000"  style="stroke:black; stroke-linecap:round; stroke-width:0.25;"/>
<line x1="181.400000" y1="232.000000" x2="185.400000" y2="232.000000"  style="stroke:black; stroke-linecap:round; stroke-width:0.25;"/>
<line x1="185.400000" y1="46.000000" x2="209.400000" y2="46.000000"  style="stroke:black; stroke-linecap:round; stroke-width:0.25;"/>
<line x1="185.400000" y1="88.000000" x2="201.400000" y2="88.000000"  style="stroke:black; stroke-linecap:round; stroke-width:0.25;"/>
<line x1="185.400000" y1="150.000000" x2="209.400000" y2="150.000000"  style="stroke:black; stroke-linecap:round; stroke-width:0.25;"/>
<line x1="185.400000" y1="184.000000" x2="185.400000" y2="150.000000"  style="stroke:black; stroke-linecap:round; stroke-width:0.25;"/>
<line x1="185.400000" y1="184.000000" x2="185.400000" y2="184.000000"  style="stroke:black; stroke-linecap:round; stroke-width:0.25;"/>
<line x1="185.400000" y1="232.000000" x2="193.400000" y2="232.000000"  style="stroke:black; stroke-linecap:round; stroke-width:0.25;"/>
<line x1="185.400000" y1="136.000000" x2="193.400000" y2="136.000000"  style="stroke:black; stroke-linecap:round; stroke-width:0.25;"/>
<line x1="193.400000" y1="158.000000" x2="209.400000" y2="158.000000"  style="stroke:black; stroke-linecap:round; stroke-width:0.25;"/>
<line x1="193.400000" y1="232.000000" x2="193.400000" y2="158.000000"  style="stroke:black; stroke-linecap:round; stroke-width:0.25;"/>
<line x1="193.400000" y1="136.000000" x2="193.400000" y2="142.000000"  style="stroke:black; stroke-linecap:round; stroke-width:0.25;"/>
<line x1="193.400000" y1="142.000000" x2="209.400000" y2="142.000000"  style="stroke:black; stroke-linecap:round; stroke-width:0.25;"/>
<line x1="201.400000" y1="88.000000" x2="201.400000" y2="134.000000"  style="stroke:black; stroke-linecap:round; stroke-width:0.25;"/>
<line x1="201.400000" y1="134.000000" x2="209.400000" y2="134.000000"  style="stroke:black; stroke-linecap:round; stroke-width:0.25;"/>
<line x1="209.400000" y1="46.000000" x2="209.400000" y2="126.000000"  style="stroke:black; stroke-linecap:round; stroke-width:0.25;"/>
<line x1="209.400000" y1="126.000000" x2="209.400000" y2="126.000000"  style="stroke:black; stroke-linecap:round; stroke-width:0.25;"/>
<line x1="209.400000" y1="126.000000" x2="213.400000" y2="126.000000"  style="stroke:black; stroke-linecap:round; stroke-width:0.25;"/>
<line x1="209.400000" y1="134.000000" x2="213.400000" y2="134.000000"  style="stroke:black; stroke-linecap:round; stroke-width:0.25;"/>
<line x1="209.400000" y1="142.000000" x2="213.400000" y2="142.000000"  style="stroke:black; stroke-linecap:round; stroke-width:0.25;"/>
<line x1="209.400000" y1="150.000000" x2="213.400000" y2="150.000000"  style="stroke:black; stroke-linecap:round; stroke-width:0.25;"/>
<line x1="209.400000" y1="158.000000" x2="213.400000" y2="158.000000"  style="stroke:black; stroke-linecap:round; stroke-width:0.25;"/>
<line x1="252.100000" y1="142.000000" x2="256.100000" y2="142.000000"  style="stroke:black; stroke-linecap:round; stroke-width:0.25;"/>
<line x1="256.100000" y1="142.000000" x2="256.100000" y2="142.000000"  style="stroke:black; stroke-linecap:round; stroke-width:0.25;"/>
<line x1="256.100000" y1="142.000000" x2="260.100000" y2="142.000000"  style="stroke:black; stroke-linecap:round; stroke-width:0.25;"/>
<line x1="260.100000" y1="142.000000" x2="264.100000" y2="142.000000"  style="stroke:black; stroke-linecap:round; stroke-width:0.25;"/>
<line x1="264.100000" y1="142.000000" x2="274.100000" y2="142.000000"  style="stroke:black; stroke-linecap:round; stroke-width:0.25;"/>
</svg>
