<?xml version="1.0"?>
<svg xmlns="http://www.w3.org/2000/svg" xmlns:xlink="http://www.w3.org/1999/xlink" viewBox="0 0 955.400000 176.000000" width="477.700000mm" height="88.000000mm" version="1.1">
<a xlink:href="noiser-0x212bdb0.svg">
<rect x="1.000000" y="1.000000" width="954.400000" height="175.000000" rx="0" ry="0" style="stroke:none;fill:#cccccc;"/>
<rect x="0.000000" y="0.000000" width="954.400000" height="175.000000" rx="0" ry="0" style="stroke:none;fill:#ffffff;"/>
</a>
<text x="10.000000" y="7.000000" font-family="Arial" font-size="7"></text>
<a xlink:href="random-0x2113940.svg">
<rect x="33.000000" y="81.000000" width="25.800000" height="24.000000" rx="0" ry="0" style="stroke:none;fill:#cccccc;"/>
<rect x="32.000000" y="80.000000" width="25.800000" height="24.000000" rx="0" ry="0" style="stroke:none;fill:#003366;"/>
</a>
<a xlink:href="random-0x2113940.svg">
<text x="44.900000" y="94.000000" font-family="Arial" font-size="7" text-anchor="middle" fill="#FFFFFF">random</text>
</a>
<circle cx="34.000000" cy="82.000000" r="1"/>
<line x1="29.000000" y1="91.000000" x2="32.000000" y2="92.000000"  transform="rotate(0.000000,32.000000,92.000000)" style="stroke: black; stroke-width:0.25;"/>
<line x1="29.000000" y1="93.000000" x2="32.000000" y2="92.000000"  transform="rotate(0.000000,32.000000,92.000000)" style="stroke: black; stroke-width:0.25;"/>
<a xlink:href="random-0x2113940.svg">
<rect x="106.800000" y="77.000000" width="25.800000" height="24.000000" rx="0" ry="0" style="stroke:none;fill:#cccccc;"/>
<rect x="105.800000" y="76.000000" width="25.800000" height="24.000000" rx="0" ry="0" style="stroke:none;fill:#003366;"/>
</a>
<a xlink:href="random-0x2113940.svg">
<text x="118.700000" y="90.000000" font-family="Arial" font-size="7" text-anchor="middle" fill="#FFFFFF">random</text>
</a>
<circle cx="107.800000" cy="78.000000" r="1"/>
<line x1="102.800000" y1="87.000000" x2="105.800000" y2="88.000000"  transform="rotate(0.000000,105.800000,88.000000)" style="stroke: black; stroke-width:0.25;"/>
<line x1="102.800000" y1="89.000000" x2="105.800000" y2="88.000000"  transform="rotate(0.000000,105.800000,88.000000)" style="stroke: black; stroke-width:0.25;"/>
<a xlink:href="random-0x2113940.svg">
<rect x="178.600000" y="73.000000" width="25.800000" height="24.000000" rx="0" ry="0" style="stroke:none;fill:#cccccc;"/>
<rect x="177.600000" y="72.000000" width="25.800000" height="24.000000" rx="0" ry="0" style="stroke:none;fill:#003366;"/>
</a>
<a xlink:href="random-0x2113940.svg">
<text x="190.500000" y="86.000000" font-family="Arial" font-size="7" text-anchor="middle" fill="#FFFFFF">random</text>
</a>
<circle cx="179.600000" cy="74.000000" r="1"/>
<line x1="174.600000" y1="83.000000" x2="177.600000" y2="84.000000"  transform="rotate(0.000000,177.600000,84.000000)" style="stroke: black; stroke-width:0.25;"/>
<line x1="174.600000" y1="85.000000" x2="177.600000" y2="84.000000"  transform="rotate(0.000000,177.600000,84.000000)" style="stroke: black; stroke-width:0.25;"/>
<a xlink:href="random-0x2113940.svg">
<rect x="248.400000" y="69.000000" width="25.800000" height="24.000000" rx="0" ry="0" style="stroke:none;fill:#cccccc;"/>
<rect x="247.400000" y="68.000000" width="25.800000" height="24.000000" rx="0" ry="0" style="stroke:none;fill:#003366;"/>
</a>
<a xlink:href="random-0x2113940.svg">
<text x="260.300000" y="82.000000" font-family="Arial" font-size="7" text-anchor="middle" fill="#FFFFFF">random</text>
</a>
<circle cx="249.400000" cy="70.000000" r="1"/>
<line x1="244.400000" y1="79.000000" x2="247.400000" y2="80.000000"  transform="rotate(0.000000,247.400000,80.000000)" style="stroke: black; stroke-width:0.25;"/>
<line x1="244.400000" y1="81.000000" x2="247.400000" y2="80.000000"  transform="rotate(0.000000,247.400000,80.000000)" style="stroke: black; stroke-width:0.25;"/>
<a xlink:href="random-0x2113940.svg">
<rect x="316.200000" y="65.000000" width="25.800000" height="24.000000" rx="0" ry="0" style="stroke:none;fill:#cccccc;"/>
<rect x="315.200000" y="64.000000" width="25.800000" height="24.000000" rx="0" ry="0" style="stroke:none;fill:#003366;"/>
</a>
<a xlink:href="random-0x2113940.svg">
<text x="328.100000" y="78.000000" font-family="Arial" font-size="7" text-anchor="middle" fill="#FFFFFF">random</text>
</a>
<circle cx="317.200000" cy="66.000000" r="1"/>
<line x1="312.200000" y1="75.000000" x2="315.200000" y2="76.000000"  transform="rotate(0.000000,315.200000,76.000000)" style="stroke: black; stroke-width:0.25;"/>
<line x1="312.200000" y1="77.000000" x2="315.200000" y2="76.000000"  transform="rotate(0.000000,315.200000,76.000000)" style="stroke: black; stroke-width:0.25;"/>
<a xlink:href="random-0x2113940.svg">
<rect x="382.000000" y="61.000000" width="25.800000" height="24.000000" rx="0" ry="0" style="stroke:none;fill:#cccccc;"/>
<rect x="381.000000" y="60.000000" width="25.800000" height="24.000000" rx="0" ry="0" style="stroke:none;fill:#003366;"/>
</a>
<a xlink:href="random-0x2113940.svg">
<text x="393.900000" y="74.000000" font-family="Arial" font-size="7" text-anchor="middle" fill="#FFFFFF">random</text>
</a>
<circle cx="383.000000" cy="62.000000" r="1"/>
<line x1="378.000000" y1="71.000000" x2="381.000000" y2="72.000000"  transform="rotate(0.000000,381.000000,72.000000)" style="stroke: black; stroke-width:0.25;"/>
<line x1="378.000000" y1="73.000000" x2="381.000000" y2="72.000000"  transform="rotate(0.000000,381.000000,72.000000)" style="stroke: black; stroke-width:0.25;"/>
<a xlink:href="random-0x2113940.svg">
<rect x="445.800000" y="57.000000" width="25.800000" height="24.000000" rx="0" ry="0" style="stroke:none;fill:#cccccc;"/>
<rect x="444.800000" y="56.000000" width="25.800000" height="24.000000" rx="0" ry="0" style="stroke:none;fill:#003366;"/>
</a>
<a xlink:href="random-0x2113940.svg">
<text x="457.700000" y="70.000000" font-family="Arial" font-size="7" text-anchor="middle" fill="#FFFFFF">random</text>
</a>
<circle cx="446.800000" cy="58.000000" r="1"/>
<line x1="441.800000" y1="67.000000" x2="444.800000" y2="68.000000"  transform="rotate(0.000000,444.800000,68.000000)" style="stroke: black; stroke-width:0.25;"/>
<line x1="441.800000" y1="69.000000" x2="444.800000" y2="68.000000"  transform="rotate(0.000000,444.800000,68.000000)" style="stroke: black; stroke-width:0.25;"/>
<a xlink:href="random-0x2113940.svg">
<rect x="507.600000" y="53.000000" width="25.800000" height="24.000000" rx="0" ry="0" style="stroke:none;fill:#cccccc;"/>
<rect x="506.600000" y="52.000000" width="25.800000" height="24.000000" rx="0" ry="0" style="stroke:none;fill:#003366;"/>
</a>
<a xlink:href="random-0x2113940.svg">
<text x="519.500000" y="66.000000" font-family="Arial" font-size="7" text-anchor="middle" fill="#FFFFFF">random</text>
</a>
<circle cx="508.600000" cy="54.000000" r="1"/>
<line x1="503.600000" y1="63.000000" x2="506.600000" y2="64.000000"  transform="rotate(0.000000,506.600000,64.000000)" style="stroke: black; stroke-width:0.25;"/>
<line x1="503.600000" y1="65.000000" x2="506.600000" y2="64.000000"  transform="rotate(0.000000,506.600000,64.000000)" style="stroke: black; stroke-width:0.25;"/>
<a xlink:href="random-0x2113940.svg">
<rect x="567.400000" y="49.000000" width="25.800000" height="24.000000" rx="0" ry="0" style="stroke:none;fill:#cccccc;"/>
<rect x="566.400000" y="48.000000" width="25.800000" height="24.000000" rx="0" ry="0" style="stroke:none;fill:#003366;"/>
</a>
<a xlink:href="random-0x2113940.svg">
<text x="579.300000" y="62.000000" font-family="Arial" font-size="7" text-anchor="middle" fill="#FFFFFF">random</text>
</a>
<circle cx="568.400000" cy="50.000000" r="1"/>
<line x1="563.400000" y1="59.000000" x2="566.400000" y2="60.000000"  transform="rotate(0.000000,566.400000,60.000000)" style="stroke: black; stroke-width:0.25;"/>
<line x1="563.400000" y1="61.000000" x2="566.400000" y2="60.000000"  transform="rotate(0.000000,566.400000,60.000000)" style="stroke: black; stroke-width:0.25;"/>
<a xlink:href="random-0x2113940.svg">
<rect x="625.200000" y="45.000000" width="25.800000" height="24.000000" rx="0" ry="0" style="stroke:none;fill:#cccccc;"/>
<rect x="624.200000" y="44.000000" width="25.800000" height="24.000000" rx="0" ry="0" style="stroke:none;fill:#003366;"/>
</a>
<a xlink:href="random-0x2113940.svg">
<text x="637.100000" y="58.000000" font-family="Arial" font-size="7" text-anchor="middle" fill="#FFFFFF">random</text>
</a>
<circle cx="626.200000" cy="46.000000" r="1"/>
<line x1="621.200000" y1="55.000000" x2="624.200000" y2="56.000000"  transform="rotate(0.000000,624.200000,56.000000)" style="stroke: black; stroke-width:0.25;"/>
<line x1="621.200000" y1="57.000000" x2="624.200000" y2="56.000000"  transform="rotate(0.000000,624.200000,56.000000)" style="stroke: black; stroke-width:0.25;"/>
<a xlink:href="random-0x2113940.svg">
<rect x="681.000000" y="41.000000" width="25.800000" height="24.000000" rx="0" ry="0" style="stroke:none;fill:#cccccc;"/>
<rect x="680.000000" y="40.000000" width="25.800000" height="24.000000" rx="0" ry="0" style="stroke:none;fill:#003366;"/>
</a>
<a xlink:href="random-0x2113940.svg">
<text x="692.900000" y="54.000000" font-family="Arial" font-size="7" text-anchor="middle" fill="#FFFFFF">random</text>
</a>
<circle cx="682.000000" cy="42.000000" r="1"/>
<line x1="677.000000" y1="51.000000" x2="680.000000" y2="52.000000"  transform="rotate(0.000000,680.000000,52.000000)" style="stroke: black; stroke-width:0.25;"/>
<line x1="677.000000" y1="53.000000" x2="680.000000" y2="52.000000"  transform="rotate(0.000000,680.000000,52.000000)" style="stroke: black; stroke-width:0.25;"/>
<a xlink:href="random-0x2113940.svg">
<rect x="734.800000" y="37.000000" width="25.800000" height="24.000000" rx="0" ry="0" style="stroke:none;fill:#cccccc;"/>
<rect x="733.800000" y="36.000000" width="25.800000" height="24.000000" rx="0" ry="0" style="stroke:none;fill:#003366;"/>
</a>
<a xlink:href="random-0x2113940.svg">
<text x="746.700000" y="50.000000" font-family="Arial" font-size="7" text-anchor="middle" fill="#FFFFFF">random</text>
</a>
<circle cx="735.800000" cy="38.000000" r="1"/>
<line x1="730.800000" y1="47.000000" x2="733.800000" y2="48.000000"  transform="rotate(0.000000,733.800000,48.000000)" style="stroke: black; stroke-width:0.25;"/>
<line x1="730.800000" y1="49.000000" x2="733.800000" y2="48.000000"  transform="rotate(0.000000,733.800000,48.000000)" style="stroke: black; stroke-width:0.25;"/>
<a xlink:href="random-0x2113940.svg">
<rect x="786.600000" y="33.000000" width="25.800000" height="24.000000" rx="0" ry="0" style="stroke:none;fill:#cccccc;"/>
<rect x="785.600000" y="32.000000" width="25.800000" height="24.000000" rx="0" ry="0" style="stroke:none;fill:#003366;"/>
</a>
<a xlink:href="random-0x2113940.svg">
<text x="798.500000" y="46.000000" font-family="Arial" font-size="7" text-anchor="middle" fill="#FFFFFF">random</text>
</a>
<circle cx="787.600000" cy="34.000000" r="1"/>
<line x1="782.600000" y1="43.000000" x2="785.600000" y2="44.000000"  transform="rotate(0.000000,785.600000,44.000000)" style="stroke: black; stroke-width:0.25;"/>
<line x1="782.600000" y1="45.000000" x2="785.600000" y2="44.000000"  transform="rotate(0.000000,785.600000,44.000000)" style="stroke: black; stroke-width:0.25;"/>
<line x1="813.400000" y1="44.000000" x2="813.400000" y2="40.000000"  style="stroke:black; stroke-linecap:round; stroke-width:0.25;"/>
<line x1="813.400000" y1="40.000000" x2="817.400000" y2="40.000000"  style="stroke:black; stroke-linecap:round; stroke-width:0.25;"/>
<line x1="817.400000" y1="40.000000" x2="817.400000" y2="44.000000"  style="stroke:black; stroke-linecap:round; stroke-width:0.25;"/>
<line x1="15.000000" y1="15.000000" x2="15.000000" y2="161.000000"  style="stroke: black; stroke-linecap:round; stroke-width:0.25; stroke-dasharray:3,3;"/>
<line x1="15.000000" y1="161.000000" x2="940.400000" y2="161.000000"  style="stroke: black; stroke-linecap:round; stroke-width:0.25; stroke-dasharray:3,3;"/>
<line x1="940.400000" y1="161.000000" x2="940.400000" y2="15.000000"  style="stroke: black; stroke-linecap:round; stroke-width:0.25; stroke-dasharray:3,3;"/>
<line x1="15.000000" y1="15.000000" x2="20.000000" y2="15.000000"  style="stroke: black; stroke-linecap:round; stroke-width:0.25; stroke-dasharray:3,3;"/>
<line x1="55.475000" y1="15.000000" x2="940.400000" y2="15.000000"  style="stroke: black; stroke-linecap:round; stroke-width:0.25; stroke-dasharray:3,3;"/>
<text x="20.000000" y="17.000000" font-family="Arial" font-size="7">chain(13)</text>
<line x1="942.400000" y1="39.000000" x2="945.400000" y2="40.000000"  transform="rotate(0.000000,945.400000,40.000000)" style="stroke: black; stroke-width:0.25;"/>
<line x1="942.400000" y1="41.000000" x2="945.400000" y2="40.000000"  transform="rotate(0.000000,945.400000,40.000000)" style="stroke: black; stroke-width:0.25;"/>
<line x1="942.400000" y1="47.000000" x2="945.400000" y2="48.000000"  transform="rotate(0.000000,945.400000,48.000000)" style="stroke: black; stroke-width:0.25;"/>
<line x1="942.400000" y1="49.000000" x2="945.400000" y2="48.000000"  transform="rotate(0.000000,945.400000,48.000000)" style="stroke: black; stroke-width:0.25;"/>
<line x1="942.400000" y1="55.000000" x2="945.400000" y2="56.000000"  transform="rotate(0.000000,945.400000,56.000000)" style="stroke: black; stroke-width:0.25;"/>
<line x1="942.400000" y1="57.000000" x2="945.400000" y2="56.000000"  transform="rotate(0.000000,945.400000,56.000000)" style="stroke: black; stroke-width:0.25;"/>
<line x1="942.400000" y1="63.000000" x2="945.400000" y2="64.000000"  transform="rotate(0.000000,945.400000,64.000000)" style="stroke: black; stroke-width:0.25;"/>
<line x1="942.400000" y1="65.000000" x2="945.400000" y2="64.000000"  transform="rotate(0.000000,945.400000,64.000000)" style="stroke: black; stroke-width:0.25;"/>
<line x1="942.400000" y1="71.000000" x2="945.400000" y2="72.000000"  transform="rotate(0.000000,945.400000,72.000000)" style="stroke: black; stroke-width:0.25;"/>
<line x1="942.400000" y1="73.000000" x2="945.400000" y2="72.000000"  transform="rotate(0.000000,945.400000,72.000000)" style="stroke: black; stroke-width:0.25;"/>
<line x1="942.400000" y1="79.000000" x2="945.400000" y2="80.000000"  transform="rotate(0.000000,945.400000,80.000000)" style="stroke: black; stroke-width:0.25;"/>
<line x1="942.400000" y1="81.000000" x2="945.400000" y2="80.000000"  transform="rotate(0.000000,945.400000,80.000000)" style="stroke: black; stroke-width:0.25;"/>
<line x1="942.400000" y1="87.000000" x2="945.400000" y2="88.000000"  transform="rotate(0.000000,945.400000,88.000000)" style="stroke: black; stroke-width:0.25;"/>
<line x1="942.400000" y1="89.000000" x2="945.400000" y2="88.000000"  transform="rotate(0.000000,945.400000,88.000000)" style="stroke: black; stroke-width:0.25;"/>
<line x1="942.400000" y1="95.000000" x2="945.400000" y2="96.000000"  transform="rotate(0.000000,945.400000,96.000000)" style="stroke: black; stroke-width:0.25;"/>
<line x1="942.400000" y1="97.000000" x2="945.400000" y2="96.000000"  transform="rotate(0.000000,945.400000,96.000000)" style="stroke: black; stroke-width:0.25;"/>
<line x1="942.400000" y1="103.000000" x2="945.400000" y2="104.000000"  transform="rotate(0.000000,945.400000,104.000000)" style="stroke: black; stroke-width:0.25;"/>
<line x1="942.400000" y1="105.000000" x2="945.400000" y2="104.000000"  transform="rotate(0.000000,945.400000,104.000000)" style="stroke: black; stroke-width:0.25;"/>
<line x1="942.400000" y1="111.000000" x2="945.400000" y2="112.000000"  transform="rotate(0.000000,945.400000,112.000000)" style="stroke: black; stroke-width:0.25;"/>
<line x1="942.400000" y1="113.000000" x2="945.400000" y2="112.000000"  transform="rotate(0.000000,945.400000,112.000000)" style="stroke: black; stroke-width:0.25;"/>
<line x1="942.400000" y1="119.000000" x2="945.400000" y2="120.000000"  transform="rotate(0.000000,945.400000,120.000000)" style="stroke: black; stroke-width:0.25;"/>
<line x1="942.400000" y1="121.000000" x2="945.400000" y2="120.000000"  transform="rotate(0.000000,945.400000,120.000000)" style="stroke: black; stroke-width:0.25;"/>
<line x1="942.400000" y1="127.000000" x2="945.400000" y2="128.000000"  transform="rotate(0.000000,945.400000,128.000000)" style="stroke: black; stroke-width:0.25;"/>
<line x1="942.400000" y1="129.000000" x2="945.400000" y2="128.000000"  transform="rotate(0.000000,945.400000,128.000000)" style="stroke: black; stroke-width:0.25;"/>
<line x1="942.400000" y1="135.000000" x2="945.400000" y2="136.000000"  transform="rotate(0.000000,945.400000,136.000000)" style="stroke: black; stroke-width:0.25;"/>
<line x1="942.400000" y1="137.000000" x2="945.400000" y2="136.000000"  transform="rotate(0.000000,945.400000,136.000000)" style="stroke: black; stroke-width:0.25;"/>
<line x1="28.000000" y1="24.000000" x2="28.000000" y2="24.000000"  style="stroke:black; stroke-linecap:round; stroke-width:0.25;"/>
<line x1="28.000000" y1="24.000000" x2="28.000000" y2="92.000000"  style="stroke:black; stroke-linecap:round; stroke-width:0.25;"/>
<line x1="28.000000" y1="92.000000" x2="28.000000" y2="92.000000"  style="stroke:black; stroke-linecap:round; stroke-width:0.25;"/>
<line x1="28.000000" y1="92.000000" x2="32.000000" y2="92.000000"  style="stroke:black; stroke-linecap:round; stroke-width:0.25;"/>
<line x1="57.800000" y1="92.000000" x2="61.800000" y2="92.000000"  style="stroke:black; stroke-linecap:round; stroke-width:0.25;"/>
<line x1="61.800000" y1="92.000000" x2="101.800000" y2="88.000000"  style="stroke:black; stroke-linecap:round; stroke-width:0.25;"/>
<line x1="61.800000" y1="92.000000" x2="101.800000" y2="152.000000"  style="stroke:black; stroke-linecap:round; stroke-width:0.25;"/>
<line x1="101.800000" y1="88.000000" x2="105.800000" y2="88.000000"  style="stroke:black; stroke-linecap:round; stroke-width:0.25;"/>
<line x1="101.800000" y1="152.000000" x2="458.600000" y2="152.000000"  style="stroke:black; stroke-linecap:round; stroke-width:0.25;"/>
<line x1="131.600000" y1="88.000000" x2="135.600000" y2="88.000000"  style="stroke:black; stroke-linecap:round; stroke-width:0.25;"/>
<line x1="135.600000" y1="88.000000" x2="173.600000" y2="84.000000"  style="stroke:black; stroke-linecap:round; stroke-width:0.25;"/>
<line x1="135.600000" y1="88.000000" x2="173.600000" y2="144.000000"  style="stroke:black; stroke-linecap:round; stroke-width:0.25;"/>
<line x1="173.600000" y1="84.000000" x2="177.600000" y2="84.000000"  style="stroke:black; stroke-linecap:round; stroke-width:0.25;"/>
<line x1="173.600000" y1="144.000000" x2="494.500000" y2="144.000000"  style="stroke:black; stroke-linecap:round; stroke-width:0.25;"/>
<line x1="203.400000" y1="84.000000" x2="207.400000" y2="84.000000"  style="stroke:black; stroke-linecap:round; stroke-width:0.25;"/>
<line x1="207.400000" y1="84.000000" x2="243.400000" y2="80.000000"  style="stroke:black; stroke-linecap:round; stroke-width:0.25;"/>
<line x1="207.400000" y1="84.000000" x2="243.400000" y2="136.000000"  style="stroke:black; stroke-linecap:round; stroke-width:0.25;"/>
<line x1="243.400000" y1="80.000000" x2="247.400000" y2="80.000000"  style="stroke:black; stroke-linecap:round; stroke-width:0.25;"/>
<line x1="243.400000" y1="136.000000" x2="529.400000" y2="136.000000"  style="stroke:black; stroke-linecap:round; stroke-width:0.25;"/>
<line x1="273.200000" y1="80.000000" x2="277.200000" y2="80.000000"  style="stroke:black; stroke-linecap:round; stroke-width:0.25;"/>
<line x1="277.200000" y1="80.000000" x2="311.200000" y2="128.000000"  style="stroke:black; stroke-linecap:round; stroke-width:0.25;"/>
<line x1="277.200000" y1="80.000000" x2="311.200000" y2="76.000000"  style="stroke:black; stroke-linecap:round; stroke-width:0.25;"/>
<line x1="311.200000" y1="128.000000" x2="563.300000" y2="128.000000"  style="stroke:black; stroke-linecap:round; stroke-width:0.25;"/>
<line x1="311.200000" y1="76.000000" x2="315.200000" y2="76.000000"  style="stroke:black; stroke-linecap:round; stroke-width:0.25;"/>
<line x1="341.000000" y1="76.000000" x2="345.000000" y2="76.000000"  style="stroke:black; stroke-linecap:round; stroke-width:0.25;"/>
<line x1="345.000000" y1="76.000000" x2="377.000000" y2="72.000000"  style="stroke:black; stroke-linecap:round; stroke-width:0.25;"/>
<line x1="345.000000" y1="76.000000" x2="377.000000" y2="120.000000"  style="stroke:black; stroke-linecap:round; stroke-width:0.25;"/>
<line x1="377.000000" y1="72.000000" x2="381.000000" y2="72.000000"  style="stroke:black; stroke-linecap:round; stroke-width:0.25;"/>
<line x1="377.000000" y1="120.000000" x2="596.200000" y2="120.000000"  style="stroke:black; stroke-linecap:round; stroke-width:0.25;"/>
<line x1="406.800000" y1="72.000000" x2="410.800000" y2="72.000000"  style="stroke:black; stroke-linecap:round; stroke-width:0.25;"/>
<line x1="410.800000" y1="72.000000" x2="440.800000" y2="68.000000"  style="stroke:black; stroke-linecap:round; stroke-width:0.25;"/>
<line x1="410.800000" y1="72.000000" x2="440.800000" y2="112.000000"  style="stroke:black; stroke-linecap:round; stroke-width:0.25;"/>
<line x1="421.700000" y1="24.000000" x2="28.000000" y2="24.000000"  style="stroke:black; stroke-linecap:round; stroke-width:0.25;"/>
<line x1="440.800000" y1="68.000000" x2="444.800000" y2="68.000000"  style="stroke:black; stroke-linecap:round; stroke-width:0.25;"/>
<line x1="440.800000" y1="112.000000" x2="628.100000" y2="112.000000"  style="stroke:black; stroke-linecap:round; stroke-width:0.25;"/>
<line x1="458.600000" y1="152.000000" x2="815.400000" y2="152.000000"  style="stroke:black; stroke-linecap:round; stroke-width:0.25;"/>
<line x1="470.600000" y1="68.000000" x2="474.600000" y2="68.000000"  style="stroke:black; stroke-linecap:round; stroke-width:0.25;"/>
<line x1="474.600000" y1="68.000000" x2="502.600000" y2="64.000000"  style="stroke:black; stroke-linecap:round; stroke-width:0.25;"/>
<line x1="474.600000" y1="68.000000" x2="502.600000" y2="104.000000"  style="stroke:black; stroke-linecap:round; stroke-width:0.25;"/>
<line x1="494.500000" y1="144.000000" x2="815.400000" y2="144.000000"  style="stroke:black; stroke-linecap:round; stroke-width:0.25;"/>
<line x1="502.600000" y1="64.000000" x2="506.600000" y2="64.000000"  style="stroke:black; stroke-linecap:round; stroke-width:0.25;"/>
<line x1="502.600000" y1="104.000000" x2="659.000000" y2="104.000000"  style="stroke:black; stroke-linecap:round; stroke-width:0.25;"/>
<line x1="529.400000" y1="136.000000" x2="815.400000" y2="136.000000"  style="stroke:black; stroke-linecap:round; stroke-width:0.25;"/>
<line x1="532.400000" y1="64.000000" x2="536.400000" y2="64.000000"  style="stroke:black; stroke-linecap:round; stroke-width:0.25;"/>
<line x1="536.400000" y1="64.000000" x2="562.400000" y2="60.000000"  style="stroke:black; stroke-linecap:round; stroke-width:0.25;"/>
<line x1="536.400000" y1="64.000000" x2="562.400000" y2="96.000000"  style="stroke:black; stroke-linecap:round; stroke-width:0.25;"/>
<line x1="562.400000" y1="60.000000" x2="566.400000" y2="60.000000"  style="stroke:black; stroke-linecap:round; stroke-width:0.25;"/>
<line x1="562.400000" y1="96.000000" x2="688.900000" y2="96.000000"  style="stroke:black; stroke-linecap:round; stroke-width:0.25;"/>
<line x1="563.300000" y1="128.000000" x2="815.400000" y2="128.000000"  style="stroke:black; stroke-linecap:round; stroke-width:0.25;"/>
<line x1="592.200000" y1="60.000000" x2="596.200000" y2="60.000000"  style="stroke:black; stroke-linecap:round; stroke-width:0.25;"/>
<line x1="596.200000" y1="60.000000" x2="620.200000" y2="56.000000"  style="stroke:black; stroke-linecap:round; stroke-width:0.25;"/>
<line x1="596.200000" y1="60.000000" x2="620.200000" y2="88.000000"  style="stroke:black; stroke-linecap:round; stroke-width:0.25;"/>
<line x1="596.200000" y1="120.000000" x2="815.400000" y2="120.000000"  style="stroke:black; stroke-linecap:round; stroke-width:0.25;"/>
<line x1="620.200000" y1="56.000000" x2="624.200000" y2="56.000000"  style="stroke:black; stroke-linecap:round; stroke-width:0.25;"/>
<line x1="620.200000" y1="88.000000" x2="717.800000" y2="88.000000"  style="stroke:black; stroke-linecap:round; stroke-width:0.25;"/>
<line x1="628.100000" y1="112.000000" x2="815.400000" y2="112.000000"  style="stroke:black; stroke-linecap:round; stroke-width:0.25;"/>
<line x1="650.000000" y1="56.000000" x2="654.000000" y2="56.000000"  style="stroke:black; stroke-linecap:round; stroke-width:0.25;"/>
<line x1="654.000000" y1="56.000000" x2="676.000000" y2="80.000000"  style="stroke:black; stroke-linecap:round; stroke-width:0.25;"/>
<line x1="654.000000" y1="56.000000" x2="676.000000" y2="52.000000"  style="stroke:black; stroke-linecap:round; stroke-width:0.25;"/>
<line x1="659.000000" y1="104.000000" x2="815.400000" y2="104.000000"  style="stroke:black; stroke-linecap:round; stroke-width:0.25;"/>
<line x1="676.000000" y1="80.000000" x2="745.700000" y2="80.000000"  style="stroke:black; stroke-linecap:round; stroke-width:0.25;"/>
<line x1="676.000000" y1="52.000000" x2="680.000000" y2="52.000000"  style="stroke:black; stroke-linecap:round; stroke-width:0.25;"/>
<line x1="688.900000" y1="96.000000" x2="815.400000" y2="96.000000"  style="stroke:black; stroke-linecap:round; stroke-width:0.25;"/>
<line x1="705.800000" y1="52.000000" x2="709.800000" y2="52.000000"  style="stroke:black; stroke-linecap:round; stroke-width:0.25;"/>
<line x1="709.800000" y1="52.000000" x2="729.800000" y2="48.000000"  style="stroke:black; stroke-linecap:round; stroke-width:0.25;"/>
<line x1="709.800000" y1="52.000000" x2="729.800000" y2="72.000000"  style="stroke:black; stroke-linecap:round; stroke-width:0.25;"/>
<line x1="717.800000" y1="88.000000" x2="815.400000" y2="88.000000"  style="stroke:black; stroke-linecap:round; stroke-width:0.25;"/>
<line x1="729.800000" y1="48.000000" x2="733.800000" y2="48.000000"  style="stroke:black; stroke-linecap:round; stroke-width:0.25;"/>
<line x1="729.800000" y1="72.000000" x2="772.600000" y2="72.000000"  style="stroke:black; stroke-linecap:round; stroke-width:0.25;"/>
<line x1="745.700000" y1="80.000000" x2="815.400000" y2="80.000000"  style="stroke:black; stroke-linecap:round; stroke-width:0.25;"/>
<line x1="759.600000" y1="48.000000" x2="763.600000" y2="48.000000"  style="stroke:black; stroke-linecap:round; stroke-width:0.25;"/>
<line x1="763.600000" y1="48.000000" x2="781.600000" y2="44.000000"  style="stroke:black; stroke-linecap:round; stroke-width:0.25;"/>
<line x1="763.600000" y1="48.000000" x2="781.600000" y2="64.000000"  style="stroke:black; stroke-linecap:round; stroke-width:0.25;"/>
<line x1="772.600000" y1="72.000000" x2="815.400000" y2="72.000000"  style="stroke:black; stroke-linecap:round; stroke-width:0.25;"/>
<line x1="781.600000" y1="44.000000" x2="785.600000" y2="44.000000"  style="stroke:black; stroke-linecap:round; stroke-width:0.25;"/>
<line x1="781.600000" y1="64.000000" x2="798.500000" y2="64.000000"  style="stroke:black; stroke-linecap:round; stroke-width:0.25;"/>
<line x1="798.500000" y1="64.000000" x2="815.400000" y2="64.000000"  style="stroke:black; stroke-linecap:round; stroke-width:0.25;"/>
<line x1="811.400000" y1="44.000000" x2="815.400000" y2="44.000000"  style="stroke:black; stroke-linecap:round; stroke-width:0.25;"/>
<line x1="815.400000" y1="24.000000" x2="815.400000" y2="24.000000"  style="stroke:black; stroke-linecap:round; stroke-width:0.25;"/>
<line x1="815.400000" y1="40.000000" x2="815.400000" y2="24.000000"  style="stroke:black; stroke-linecap:round; stroke-width:0.25;"/>
<line x1="815.400000" y1="44.000000" x2="817.400000" y2="44.000000"  style="stroke:black; stroke-linecap:round; stroke-width:0.25;"/>
<line x1="815.400000" y1="64.000000" x2="823.400000" y2="64.000000"  style="stroke:black; stroke-linecap:round; stroke-width:0.25;"/>
<line x1="815.400000" y1="72.000000" x2="823.400000" y2="72.000000"  style="stroke:black; stroke-linecap:round; stroke-width:0.25;"/>
<line x1="815.400000" y1="24.000000" x2="421.700000" y2="24.000000"  style="stroke:black; stroke-linecap:round; stroke-width:0.25;"/>
<line x1="815.400000" y1="80.000000" x2="823.400000" y2="80.000000"  style="stroke:black; stroke-linecap:round; stroke-width:0.25;"/>
<line x1="815.400000" y1="152.000000" x2="823.400000" y2="152.000000"  style="stroke:black; stroke-linecap:round; stroke-width:0.25;"/>
<line x1="815.400000" y1="88.000000" x2="823.400000" y2="88.000000"  style="stroke:black; stroke-linecap:round; stroke-width:0.25;"/>
<line x1="815.400000" y1="96.000000" x2="823.400000" y2="96.000000"  style="stroke:black; stroke-linecap:round; stroke-width:0.25;"/>
<line x1="815.400000" y1="104.000000" x2="823.400000" y2="104.000000"  style="stroke:black; stroke-linecap:round; stroke-width:0.25;"/>
<line x1="815.400000" y1="128.000000" x2="823.400000" y2="128.000000"  style="stroke:black; stroke-linecap:round; stroke-width:0.25;"/>
<line x1="815.400000" y1="136.000000" x2="823.400000" y2="136.000000"  style="stroke:black; stroke-linecap:round; stroke-width:0.25;"/>
<line x1="815.400000" y1="144.000000" x2="823.400000" y2="144.000000"  style="stroke:black; stroke-linecap:round; stroke-width:0.25;"/>
<line x1="815.400000" y1="112.000000" x2="823.400000" y2="112.000000"  style="stroke:black; stroke-linecap:round; stroke-width:0.25;"/>
<line x1="815.400000" y1="120.000000" x2="823.400000" y2="120.000000"  style="stroke:black; stroke-linecap:round; stroke-width:0.25;"/>
<line x1="817.400000" y1="44.000000" x2="823.400000" y2="44.000000"  style="stroke:black; stroke-linecap:round; stroke-width:0.25;"/>
<line x1="823.400000" y1="40.000000" x2="927.400000" y2="40.000000"  style="stroke:black; stroke-linecap:round; stroke-width:0.25;"/>
<line x1="823.400000" y1="44.000000" x2="823.400000" y2="40.000000"  style="stroke:black; stroke-linecap:round; stroke-width:0.25;"/>
<line x1="823.400000" y1="44.000000" x2="823.400000" y2="44.000000"  style="stroke:black; stroke-linecap:round; stroke-width:0.25;"/>
<line x1="823.400000" y1="64.000000" x2="831.400000" y2="64.000000"  style="stroke:black; stroke-linecap:round; stroke-width:0.25;"/>
<line x1="823.400000" y1="72.000000" x2="839.400000" y2="72.000000"  style="stroke:black; stroke-linecap:round; stroke-width:0.25;"/>
<line x1="823.400000" y1="80.000000" x2="847.400000" y2="80.000000"  style="stroke:black; stroke-linecap:round; stroke-width:0.25;"/>
<line x1="823.400000" y1="152.000000" x2="919.400000" y2="152.000000"  style="stroke:black; stroke-linecap:round; stroke-width:0.25;"/>
<line x1="823.400000" y1="88.000000" x2="855.400000" y2="88.000000"  style="stroke:black; stroke-linecap:round; stroke-width:0.25;"/>
<line x1="823.400000" y1="96.000000" x2="863.400000" y2="96.000000"  style="stroke:black; stroke-linecap:round; stroke-width:0.25;"/>
<line x1="823.400000" y1="104.000000" x2="871.400000" y2="104.000000"  style="stroke:black; stroke-linecap:round; stroke-width:0.25;"/>
<line x1="823.400000" y1="128.000000" x2="895.400000" y2="128.000000"  style="stroke:black; stroke-linecap:round; stroke-width:0.25;"/>
<line x1="823.400000" y1="136.000000" x2="903.400000" y2="136.000000"  style="stroke:black; stroke-linecap:round; stroke-width:0.25;"/>
<line x1="823.400000" y1="144.000000" x2="911.400000" y2="144.000000"  style="stroke:black; stroke-linecap:round; stroke-width:0.25;"/>
<line x1="823.400000" y1="112.000000" x2="879.400000" y2="112.000000"  style="stroke:black; stroke-linecap:round; stroke-width:0.25;"/>
<line x1="823.400000" y1="120.000000" x2="887.400000" y2="120.000000"  style="stroke:black; stroke-linecap:round; stroke-width:0.25;"/>
<line x1="831.400000" y1="48.000000" x2="927.400000" y2="48.000000"  style="stroke:black; stroke-linecap:round; stroke-width:0.25;"/>
<line x1="831.400000" y1="64.000000" x2="831.400000" y2="48.000000"  style="stroke:black; stroke-linecap:round; stroke-width:0.25;"/>
<line x1="839.400000" y1="56.000000" x2="927.400000" y2="56.000000"  style="stroke:black; stroke-linecap:round; stroke-width:0.25;"/>
<line x1="839.400000" y1="72.000000" x2="839.400000" y2="56.000000"  style="stroke:black; stroke-linecap:round; stroke-width:0.25;"/>
<line x1="847.400000" y1="64.000000" x2="927.400000" y2="64.000000"  style="stroke:black; stroke-linecap:round; stroke-width:0.25;"/>
<line x1="847.400000" y1="80.000000" x2="847.400000" y2="64.000000"  style="stroke:black; stroke-linecap:round; stroke-width:0.25;"/>
<line x1="855.400000" y1="72.000000" x2="927.400000" y2="72.000000"  style="stroke:black; stroke-linecap:round; stroke-width:0.25;"/>
<line x1="855.400000" y1="88.000000" x2="855.400000" y2="72.000000"  style="stroke:black; stroke-linecap:round; stroke-width:0.25;"/>
<line x1="863.400000" y1="80.000000" x2="927.400000" y2="80.000000"  style="stroke:black; stroke-linecap:round; stroke-width:0.25;"/>
<line x1="863.400000" y1="96.000000" x2="863.400000" y2="80.000000"  style="stroke:black; stroke-linecap:round; stroke-width:0.25;"/>
<line x1="871.400000" y1="88.000000" x2="927.400000" y2="88.000000"  style="stroke:black; stroke-linecap:round; stroke-width:0.25;"/>
<line x1="871.400000" y1="104.000000" x2="871.400000" y2="88.000000"  style="stroke:black; stroke-linecap:round; stroke-width:0.25;"/>
<line x1="879.400000" y1="96.000000" x2="927.400000" y2="96.000000"  style="stroke:black; stroke-linecap:round; stroke-width:0.25;"/>
<line x1="879.400000" y1="112.000000" x2="879.400000" y2="96.000000"  style="stroke:black; stroke-linecap:round; stroke-width:0.25;"/>
<line x1="887.400000" y1="104.000000" x2="927.400000" y2="104.000000"  style="stroke:black; stroke-linecap:round; stroke-width:0.25;"/>
<line x1="887.400000" y1="120.000000" x2="887.400000" y2="104.000000"  style="stroke:black; stroke-linecap:round; stroke-width:0.25;"/>
<line x1="895.400000" y1="112.000000" x2="927.400000" y2="112.000000"  style="stroke:black; stroke-linecap:round; stroke-width:0.25;"/>
<line x1="895.400000" y1="128.000000" x2="895.400000" y2="112.000000"  style="stroke:black; stroke-linecap:round; stroke-width:0.25;"/>
<line x1="903.400000" y1="120.000000" x2="927.400000" y2="120.000000"  style="stroke:black; stroke-linecap:round; stroke-width:0.25;"/>
<line x1="903.400000" y1="136.000000" x2="903.400000" y2="120.000000"  style="stroke:black; stroke-linecap:round; stroke-width:0.25;"/>
<line x1="911.400000" y1="128.000000" x2="927.400000" y2="128.000000"  style="stroke:black; stroke-linecap:round; stroke-width:0.25;"/>
<line x1="911.400000" y1="144.000000" x2="911.400000" y2="128.000000"  style="stroke:black; stroke-linecap:round; stroke-width:0.25;"/>
<line x1="919.400000" y1="136.000000" x2="927.400000" y2="136.000000"  style="stroke:black; stroke-linecap:round; stroke-width:0.25;"/>
<line x1="919.400000" y1="152.000000" x2="919.400000" y2="136.000000"  style="stroke:black; stroke-linecap:round; stroke-width:0.25;"/>
<line x1="927.400000" y1="40.000000" x2="931.400000" y2="40.000000"  style="stroke:black; stroke-linecap:round; stroke-width:0.25;"/>
<line x1="927.400000" y1="48.000000" x2="931.400000" y2="48.000000"  style="stroke:black; stroke-linecap:round; stroke-width:0.25;"/>
<line x1="927.400000" y1="56.000000" x2="931.400000" y2="56.000000"  style="stroke:black; stroke-linecap:round; stroke-width:0.25;"/>
<line x1="927.400000" y1="64.000000" x2="931.400000" y2="64.000000"  style="stroke:black; stroke-linecap:round; stroke-width:0.25;"/>
<line x1="927.400000" y1="72.000000" x2="931.400000" y2="72.000000"  style="stroke:black; stroke-linecap:round; stroke-width:0.25;"/>
<line x1="927.400000" y1="80.000000" x2="931.400000" y2="80.000000"  style="stroke:black; stroke-linecap:round; stroke-width:0.25;"/>
<line x1="927.400000" y1="88.000000" x2="931.400000" y2="88.000000"  style="stroke:black; stroke-linecap:round; stroke-width:0.25;"/>
<line x1="927.400000" y1="96.000000" x2="931.400000" y2="96.000000"  style="stroke:black; stroke-linecap:round; stroke-width:0.25;"/>
<line x1="927.400000" y1="104.000000" x2="931.400000" y2="104.000000"  style="stroke:black; stroke-linecap:round; stroke-width:0.25;"/>
<line x1="927.400000" y1="112.000000" x2="931.400000" y2="112.000000"  style="stroke:black; stroke-linecap:round; stroke-width:0.25;"/>
<line x1="927.400000" y1="120.000000" x2="931.400000" y2="120.000000"  style="stroke:black; stroke-linecap:round; stroke-width:0.25;"/>
<line x1="927.400000" y1="128.000000" x2="931.400000" y2="128.000000"  style="stroke:black; stroke-linecap:round; stroke-width:0.25;"/>
<line x1="927.400000" y1="136.000000" x2="931.400000" y2="136.000000"  style="stroke:black; stroke-linecap:round; stroke-width:0.25;"/>
<line x1="931.400000" y1="40.000000" x2="935.400000" y2="40.000000"  style="stroke:black; stroke-linecap:round; stroke-width:0.25;"/>
<line x1="931.400000" y1="48.000000" x2="935.400000" y2="48.000000"  style="stroke:black; stroke-linecap:round; stroke-width:0.25;"/>
<line x1="931.400000" y1="56.000000" x2="935.400000" y2="56.000000"  style="stroke:black; stroke-linecap:round; stroke-width:0.25;"/>
<line x1="931.400000" y1="64.000000" x2="935.400000" y2="64.000000"  style="stroke:black; stroke-linecap:round; stroke-width:0.25;"/>
<line x1="931.400000" y1="72.000000" x2="935.400000" y2="72.000000"  style="stroke:black; stroke-linecap:round; stroke-width:0.25;"/>
<line x1="931.400000" y1="80.000000" x2="935.400000" y2="80.000000"  style="stroke:black; stroke-linecap:round; stroke-width:0.25;"/>
<line x1="931.400000" y1="88.000000" x2="935.400000" y2="88.000000"  style="stroke:black; stroke-linecap:round; stroke-width:0.25;"/>
<line x1="931.400000" y1="96.000000" x2="935.400000" y2="96.000000"  style="stroke:black; stroke-linecap:round; stroke-width:0.25;"/>
<line x1="931.400000" y1="104.000000" x2="935.400000" y2="104.000000"  style="stroke:black; stroke-linecap:round; stroke-width:0.25;"/>
<line x1="931.400000" y1="112.000000" x2="935.400000" y2="112.000000"  style="stroke:black; stroke-linecap:round; stroke-width:0.25;"/>
<line x1="931.400000" y1="120.000000" x2="935.400000" y2="120.000000"  style="stroke:black; stroke-linecap:round; stroke-width:0.25;"/>
<line x1="931.400000" y1="128.000000" x2="935.400000" y2="128.000000"  style="stroke:black; stroke-linecap:round; stroke-width:0.25;"/>
<line x1="931.400000" y1="136.000000" x2="935.400000" y2="136.000000"  style="stroke:black; stroke-linecap:round; stroke-width:0.25;"/>
<line x1="935.400000" y1="40.000000" x2="945.400000" y2="40.000000"  style="stroke:black; stroke-linecap:round; stroke-width:0.25;"/>
<line x1="935.400000" y1="48.000000" x2="945.400000" y2="48.000000"  style="stroke:black; stroke-linecap:round; stroke-width:0.25;"/>
<line x1="935.400000" y1="56.000000" x2="945.400000" y2="56.000000"  style="stroke:black; stroke-linecap:round; stroke-width:0.25;"/>
<line x1="935.400000" y1="64.000000" x2="945.400000" y2="64.000000"  style="stroke:black; stroke-linecap:round; stroke-width:0.25;"/>
<line x1="935.400000" y1="72.000000" x2="945.400000" y2="72.000000"  style="stroke:black; stroke-linecap:round; stroke-width:0.25;"/>
<line x1="935.400000" y1="80.000000" x2="945.400000" y2="80.000000"  style="stroke:black; stroke-linecap:round; stroke-width:0.25;"/>
<line x1="935.400000" y1="88.000000" x2="945.400000" y2="88.000000"  style="stroke:black; stroke-linecap:round; stroke-width:0.25;"/>
<line x1="935.400000" y1="96.000000" x2="945.400000" y2="96.000000"  style="stroke:black; stroke-linecap:round; stroke-width:0.25;"/>
<line x1="935.400000" y1="104.000000" x2="945.400000" y2="104.000000"  style="stroke:black; stroke-linecap:round; stroke-width:0.25;"/>
<line x1="935.400000" y1="112.000000" x2="945.400000" y2="112.000000"  style="stroke:black; stroke-linecap:round; stroke-width:0.25;"/>
<line x1="935.400000" y1="120.000000" x2="945.400000" y2="120.000000"  style="stroke:black; stroke-linecap:round; stroke-width:0.25;"/>
<line x1="935.400000" y1="128.000000" x2="945.400000" y2="128.000000"  style="stroke:black; stroke-linecap:round; stroke-width:0.25;"/>
<line x1="935.400000" y1="136.000000" x2="945.400000" y2="136.000000"  style="stroke:black; stroke-linecap:round; stroke-width:0.25;"/>
</svg>
