<?xml version="1.0"?>
<svg xmlns="http://www.w3.org/2000/svg" xmlns:xlink="http://www.w3.org/1999/xlink" viewBox="0 0 218.800000 152.000000" width="109.400000mm" height="76.000000mm" version="1.1">
<a xlink:href="noise-0x24ad100.svg">
<rect x="1.000000" y="1.000000" width="217.800000" height="151.000000" rx="0" ry="0" style="stroke:none;fill:#cccccc;"/>
<rect x="0.000000" y="0.000000" width="217.800000" height="151.000000" rx="0" ry="0" style="stroke:none;fill:#ffffff;"/>
</a>
<text x="10.000000" y="7.000000" font-family="Arial" font-size="7"></text>
<a xlink:href="chain-0x212bcb0.svg">
<rect x="25.000000" y="25.000000" width="38.700000" height="104.000000" rx="0" ry="0" style="stroke:none;fill:#cccccc;"/>
<rect x="24.000000" y="24.000000" width="38.700000" height="104.000000" rx="0" ry="0" style="stroke:none;fill:#003366;"/>
</a>
<a xlink:href="chain-0x212bcb0.svg">
<text x="43.350000" y="78.000000" font-family="Arial" font-size="7" text-anchor="middle" fill="#FFFFFF">chain(13)</text>
</a>
<circle cx="26.000000" cy="26.000000" r="1"/>
<a xlink:href="Divide-0x2111ff0.svg">
<rect x="71.700000" y="25.000000" width="116.100000" height="104.000000" rx="0" ry="0" style="stroke:none;fill:#cccccc;"/>
<rect x="70.700000" y="24.000000" width="116.100000" height="104.000000" rx="0" ry="0" style="stroke:none;fill:#003366;"/>
</a>
<a xlink:href="Divide-0x2111ff0.svg">
<text x="128.750000" y="78.000000" font-family="Arial" font-size="7" text-anchor="middle" fill="#FFFFFF">Divide(13)(4294967295.0f)</text>
</a>
<circle cx="72.700000" cy="26.000000" r="1"/>
<line x1="67.700000" y1="27.000000" x2="70.700000" y2="28.000000"  transform="rotate(0.000000,70.700000,28.000000)" style="stroke: black; stroke-width:0.25;"/>
<line x1="67.700000" y1="29.000000" x2="70.700000" y2="28.000000"  transform="rotate(0.000000,70.700000,28.000000)" style="stroke: black; stroke-width:0.25;"/>
<line x1="67.700000" y1="35.000000" x2="70.700000" y2="36.000000"  transform="rotate(0.000000,70.700000,36.000000)" style="stroke: black; stroke-width:0.25;"/>
<line x1="67.700000" y1="37.000000" x2="70.700000" y2="36.000000"  transform="rotate(0.000000,70.700000,36.000000)" style="stroke: black; stroke-width:0.25;"/>
<line x1="67.700000" y1="43.000000" x2="70.700000" y2="44.000000"  transform="rotate(0.000000,70.700000,44.000000)" style="stroke: black; stroke-width:0.25;"/>
<line x1="67.700000" y1="45.000000" x2="70.700000" y2="44.000000"  transform="rotate(0.000000,70.700000,44.000000)" style="stroke: black; stroke-width:0.25;"/>
<line x1="67.700000" y1="51.000000" x2="70.700000" y2="52.000000"  transform="rotate(0.000000,70.700000,52.000000)" style="stroke: black; stroke-width:0.25;"/>
<line x1="67.700000" y1="53.000000" x2="70.700000" y2="52.000000"  transform="rotate(0.000000,70.700000,52.000000)" style="stroke: black; stroke-width:0.25;"/>
<line x1="67.700000" y1="59.000000" x2="70.700000" y2="60.000000"  transform="rotate(0.000000,70.700000,60.000000)" style="stroke: black; stroke-width:0.25;"/>
<line x1="67.700000" y1="61.000000" x2="70.700000" y2="60.000000"  transform="rotate(0.000000,70.700000,60.000000)" style="stroke: black; stroke-width:0.25;"/>
<line x1="67.700000" y1="67.000000" x2="70.700000" y2="68.000000"  transform="rotate(0.000000,70.700000,68.000000)" style="stroke: black; stroke-width:0.25;"/>
<line x1="67.700000" y1="69.000000" x2="70.700000" y2="68.000000"  transform="rotate(0.000000,70.700000,68.000000)" style="stroke: black; stroke-width:0.25;"/>
<line x1="67.700000" y1="75.000000" x2="70.700000" y2="76.000000"  transform="rotate(0.000000,70.700000,76.000000)" style="stroke: black; stroke-width:0.25;"/>
<line x1="67.700000" y1="77.000000" x2="70.700000" y2="76.000000"  transform="rotate(0.000000,70.700000,76.000000)" style="stroke: black; stroke-width:0.25;"/>
<line x1="67.700000" y1="83.000000" x2="70.700000" y2="84.000000"  transform="rotate(0.000000,70.700000,84.000000)" style="stroke: black; stroke-width:0.25;"/>
<line x1="67.700000" y1="85.000000" x2="70.700000" y2="84.000000"  transform="rotate(0.000000,70.700000,84.000000)" style="stroke: black; stroke-width:0.25;"/>
<line x1="67.700000" y1="91.000000" x2="70.700000" y2="92.000000"  transform="rotate(0.000000,70.700000,92.000000)" style="stroke: black; stroke-width:0.25;"/>
<line x1="67.700000" y1="93.000000" x2="70.700000" y2="92.000000"  transform="rotate(0.000000,70.700000,92.000000)" style="stroke: black; stroke-width:0.25;"/>
<line x1="67.700000" y1="99.000000" x2="70.700000" y2="100.000000"  transform="rotate(0.000000,70.700000,100.000000)" style="stroke: black; stroke-width:0.25;"/>
<line x1="67.700000" y1="101.000000" x2="70.700000" y2="100.000000"  transform="rotate(0.000000,70.700000,100.000000)" style="stroke: black; stroke-width:0.25;"/>
<line x1="67.700000" y1="107.000000" x2="70.700000" y2="108.000000"  transform="rotate(0.000000,70.700000,108.000000)" style="stroke: black; stroke-width:0.25;"/>
<line x1="67.700000" y1="109.000000" x2="70.700000" y2="108.000000"  transform="rotate(0.000000,70.700000,108.000000)" style="stroke: black; stroke-width:0.25;"/>
<line x1="67.700000" y1="115.000000" x2="70.700000" y2="116.000000"  transform="rotate(0.000000,70.700000,116.000000)" style="stroke: black; stroke-width:0.25;"/>
<line x1="67.700000" y1="117.000000" x2="70.700000" y2="116.000000"  transform="rotate(0.000000,70.700000,116.000000)" style="stroke: black; stroke-width:0.25;"/>
<line x1="67.700000" y1="123.000000" x2="70.700000" y2="124.000000"  transform="rotate(0.000000,70.700000,124.000000)" style="stroke: black; stroke-width:0.25;"/>
<line x1="67.700000" y1="125.000000" x2="70.700000" y2="124.000000"  transform="rotate(0.000000,70.700000,124.000000)" style="stroke: black; stroke-width:0.25;"/>
<line x1="15.000000" y1="15.000000" x2="15.000000" y2="137.000000"  style="stroke: black; stroke-linecap:round; stroke-width:0.25; stroke-dasharray:3,3;"/>
<line x1="15.000000" y1="137.000000" x2="203.800000" y2="137.000000"  style="stroke: black; stroke-linecap:round; stroke-width:0.25; stroke-dasharray:3,3;"/>
<line x1="203.800000" y1="137.000000" x2="203.800000" y2="15.000000"  style="stroke: black; stroke-linecap:round; stroke-width:0.25; stroke-dasharray:3,3;"/>
<line x1="15.000000" y1="15.000000" x2="20.000000" y2="15.000000"  style="stroke: black; stroke-linecap:round; stroke-width:0.25; stroke-dasharray:3,3;"/>
<line x1="45.800000" y1="15.000000" x2="203.800000" y2="15.000000"  style="stroke: black; stroke-linecap:round; stroke-width:0.25; stroke-dasharray:3,3;"/>
<text x="20.000000" y="17.000000" font-family="Arial" font-size="7">noiser</text>
<line x1="205.800000" y1="27.000000" x2="208.800000" y2="28.000000"  transform="rotate(0.000000,208.800000,28.000000)" style="stroke: black; stroke-width:0.25;"/>
<line x1="205.800000" y1="29.000000" x2="208.800000" y2="28.000000"  transform="rotate(0.000000,208.800000,28.000000)" style="stroke: black; stroke-width:0.25;"/>
<line x1="205.800000" y1="35.000000" x2="208.800000" y2="36.000000"  transform="rotate(0.000000,208.800000,36.000000)" style="stroke: black; stroke-width:0.25;"/>
<line x1="205.800000" y1="37.000000" x2="208.800000" y2="36.000000"  transform="rotate(0.000000,208.800000,36.000000)" style="stroke: black; stroke-width:0.25;"/>
<line x1="205.800000" y1="43.000000" x2="208.800000" y2="44.000000"  transform="rotate(0.000000,208.800000,44.000000)" style="stroke: black; stroke-width:0.25;"/>
<line x1="205.800000" y1="45.000000" x2="208.800000" y2="44.000000"  transform="rotate(0.000000,208.800000,44.000000)" style="stroke: black; stroke-width:0.25;"/>
<line x1="205.800000" y1="51.000000" x2="208.800000" y2="52.000000"  transform="rotate(0.000000,208.800000,52.000000)" style="stroke: black; stroke-width:0.25;"/>
<line x1="205.800000" y1="53.000000" x2="208.800000" y2="52.000000"  transform="rotate(0.000000,208.800000,52.000000)" style="stroke: black; stroke-width:0.25;"/>
<line x1="205.800000" y1="59.000000" x2="208.800000" y2="60.000000"  transform="rotate(0.000000,208.800000,60.000000)" style="stroke: black; stroke-width:0.25;"/>
<line x1="205.800000" y1="61.000000" x2="208.800000" y2="60.000000"  transform="rotate(0.000000,208.800000,60.000000)" style="stroke: black; stroke-width:0.25;"/>
<line x1="205.800000" y1="67.000000" x2="208.800000" y2="68.000000"  transform="rotate(0.000000,208.800000,68.000000)" style="stroke: black; stroke-width:0.25;"/>
<line x1="205.800000" y1="69.000000" x2="208.800000" y2="68.000000"  transform="rotate(0.000000,208.800000,68.000000)" style="stroke: black; stroke-width:0.25;"/>
<line x1="205.800000" y1="75.000000" x2="208.800000" y2="76.000000"  transform="rotate(0.000000,208.800000,76.000000)" style="stroke: black; stroke-width:0.25;"/>
<line x1="205.800000" y1="77.000000" x2="208.800000" y2="76.000000"  transform="rotate(0.000000,208.800000,76.000000)" style="stroke: black; stroke-width:0.25;"/>
<line x1="205.800000" y1="83.000000" x2="208.800000" y2="84.000000"  transform="rotate(0.000000,208.800000,84.000000)" style="stroke: black; stroke-width:0.25;"/>
<line x1="205.800000" y1="85.000000" x2="208.800000" y2="84.000000"  transform="rotate(0.000000,208.800000,84.000000)" style="stroke: black; stroke-width:0.25;"/>
<line x1="205.800000" y1="91.000000" x2="208.800000" y2="92.000000"  transform="rotate(0.000000,208.800000,92.000000)" style="stroke: black; stroke-width:0.25;"/>
<line x1="205.800000" y1="93.000000" x2="208.800000" y2="92.000000"  transform="rotate(0.000000,208.800000,92.000000)" style="stroke: black; stroke-width:0.25;"/>
<line x1="205.800000" y1="99.000000" x2="208.800000" y2="100.000000"  transform="rotate(0.000000,208.800000,100.000000)" style="stroke: black; stroke-width:0.25;"/>
<line x1="205.800000" y1="101.000000" x2="208.800000" y2="100.000000"  transform="rotate(0.000000,208.800000,100.000000)" style="stroke: black; stroke-width:0.25;"/>
<line x1="205.800000" y1="107.000000" x2="208.800000" y2="108.000000"  transform="rotate(0.000000,208.800000,108.000000)" style="stroke: black; stroke-width:0.25;"/>
<line x1="205.800000" y1="109.000000" x2="208.800000" y2="108.000000"  transform="rotate(0.000000,208.800000,108.000000)" style="stroke: black; stroke-width:0.25;"/>
<line x1="205.800000" y1="115.000000" x2="208.800000" y2="116.000000"  transform="rotate(0.000000,208.800000,116.000000)" style="stroke: black; stroke-width:0.25;"/>
<line x1="205.800000" y1="117.000000" x2="208.800000" y2="116.000000"  transform="rotate(0.000000,208.800000,116.000000)" style="stroke: black; stroke-width:0.25;"/>
<line x1="205.800000" y1="123.000000" x2="208.800000" y2="124.000000"  transform="rotate(0.000000,208.800000,124.000000)" style="stroke: black; stroke-width:0.25;"/>
<line x1="205.800000" y1="125.000000" x2="208.800000" y2="124.000000"  transform="rotate(0.000000,208.800000,124.000000)" style="stroke: black; stroke-width:0.25;"/>
<line x1="62.700000" y1="28.000000" x2="66.700000" y2="28.000000"  style="stroke:black; stroke-linecap:round; stroke-width:0.25;"/>
<line x1="62.700000" y1="36.000000" x2="66.700000" y2="36.000000"  style="stroke:black; stroke-linecap:round; stroke-width:0.25;"/>
<line x1="62.700000" y1="44.000000" x2="66.700000" y2="44.000000"  style="stroke:black; stroke-linecap:round; stroke-width:0.25;"/>
<line x1="62.700000" y1="52.000000" x2="66.700000" y2="52.000000"  style="stroke:black; stroke-linecap:round; stroke-width:0.25;"/>
<line x1="62.700000" y1="60.000000" x2="66.700000" y2="60.000000"  style="stroke:black; stroke-linecap:round; stroke-width:0.25;"/>
<line x1="62.700000" y1="68.000000" x2="66.700000" y2="68.000000"  style="stroke:black; stroke-linecap:round; stroke-width:0.25;"/>
<line x1="62.700000" y1="76.000000" x2="66.700000" y2="76.000000"  style="stroke:black; stroke-linecap:round; stroke-width:0.25;"/>
<line x1="62.700000" y1="84.000000" x2="66.700000" y2="84.000000"  style="stroke:black; stroke-linecap:round; stroke-width:0.25;"/>
<line x1="62.700000" y1="92.000000" x2="66.700000" y2="92.000000"  style="stroke:black; stroke-linecap:round; stroke-width:0.25;"/>
<line x1="62.700000" y1="100.000000" x2="66.700000" y2="100.000000"  style="stroke:black; stroke-linecap:round; stroke-width:0.25;"/>
<line x1="62.700000" y1="108.000000" x2="66.700000" y2="108.000000"  style="stroke:black; stroke-linecap:round; stroke-width:0.25;"/>
<line x1="62.700000" y1="116.000000" x2="66.700000" y2="116.000000"  style="stroke:black; stroke-linecap:round; stroke-width:0.25;"/>
<line x1="62.700000" y1="124.000000" x2="66.700000" y2="124.000000"  style="stroke:black; stroke-linecap:round; stroke-width:0.25;"/>
<line x1="66.700000" y1="28.000000" x2="66.700000" y2="28.000000"  style="stroke:black; stroke-linecap:round; stroke-width:0.25;"/>
<line x1="66.700000" y1="28.000000" x2="70.700000" y2="28.000000"  style="stroke:black; stroke-linecap:round; stroke-width:0.25;"/>
<line x1="66.700000" y1="36.000000" x2="66.700000" y2="36.000000"  style="stroke:black; stroke-linecap:round; stroke-width:0.25;"/>
<line x1="66.700000" y1="36.000000" x2="70.700000" y2="36.000000"  style="stroke:black; stroke-linecap:round; stroke-width:0.25;"/>
<line x1="66.700000" y1="44.000000" x2="66.700000" y2="44.000000"  style="stroke:black; stroke-linecap:round; stroke-width:0.25;"/>
<line x1="66.700000" y1="44.000000" x2="70.700000" y2="44.000000"  style="stroke:black; stroke-linecap:round; stroke-width:0.25;"/>
<line x1="66.700000" y1="52.000000" x2="66.700000" y2="52.000000"  style="stroke:black; stroke-linecap:round; stroke-width:0.25;"/>
<line x1="66.700000" y1="52.000000" x2="70.700000" y2="52.000000"  style="stroke:black; stroke-linecap:round; stroke-width:0.25;"/>
<line x1="66.700000" y1="60.000000" x2="66.700000" y2="60.000000"  style="stroke:black; stroke-linecap:round; stroke-width:0.25;"/>
<line x1="66.700000" y1="60.000000" x2="70.700000" y2="60.000000"  style="stroke:black; stroke-linecap:round; stroke-width:0.25;"/>
<line x1="66.700000" y1="68.000000" x2="66.700000" y2="68.000000"  style="stroke:black; stroke-linecap:round; stroke-width:0.25;"/>
<line x1="66.700000" y1="68.000000" x2="70.700000" y2="68.000000"  style="stroke:black; stroke-linecap:round; stroke-width:0.25;"/>
<line x1="66.700000" y1="76.000000" x2="66.700000" y2="76.000000"  style="stroke:black; stroke-linecap:round; stroke-width:0.25;"/>
<line x1="66.700000" y1="76.000000" x2="70.700000" y2="76.000000"  style="stroke:black; stroke-linecap:round; stroke-width:0.25;"/>
<line x1="66.700000" y1="84.000000" x2="66.700000" y2="84.000000"  style="stroke:black; stroke-linecap:round; stroke-width:0.25;"/>
<line x1="66.700000" y1="84.000000" x2="70.700000" y2="84.000000"  style="stroke:black; stroke-linecap:round; stroke-width:0.25;"/>
<line x1="66.700000" y1="92.000000" x2="66.700000" y2="92.000000"  style="stroke:black; stroke-linecap:round; stroke-width:0.25;"/>
<line x1="66.700000" y1="92.000000" x2="70.700000" y2="92.000000"  style="stroke:black; stroke-linecap:round; stroke-width:0.25;"/>
<line x1="66.700000" y1="100.000000" x2="66.700000" y2="100.000000"  style="stroke:black; stroke-linecap:round; stroke-width:0.25;"/>
<line x1="66.700000" y1="100.000000" x2="70.700000" y2="100.000000"  style="stroke:black; stroke-linecap:round; stroke-width:0.25;"/>
<line x1="66.700000" y1="108.000000" x2="66.700000" y2="108.000000"  style="stroke:black; stroke-linecap:round; stroke-width:0.25;"/>
<line x1="66.700000" y1="108.000000" x2="70.700000" y2="108.000000"  style="stroke:black; stroke-linecap:round; stroke-width:0.25;"/>
<line x1="66.700000" y1="116.000000" x2="66.700000" y2="116.000000"  style="stroke:black; stroke-linecap:round; stroke-width:0.25;"/>
<line x1="66.700000" y1="116.000000" x2="70.700000" y2="116.000000"  style="stroke:black; stroke-linecap:round; stroke-width:0.25;"/>
<line x1="66.700000" y1="124.000000" x2="66.700000" y2="124.000000"  style="stroke:black; stroke-linecap:round; stroke-width:0.25;"/>
<line x1="66.700000" y1="124.000000" x2="70.700000" y2="124.000000"  style="stroke:black; stroke-linecap:round; stroke-width:0.25;"/>
<line x1="186.800000" y1="28.000000" x2="190.800000" y2="28.000000"  style="stroke:black; stroke-linecap:round; stroke-width:0.25;"/>
<line x1="186.800000" y1="36.000000" x2="190.800000" y2="36.000000"  style="stroke:black; stroke-linecap:round; stroke-width:0.25;"/>
<line x1="186.800000" y1="44.000000" x2="190.800000" y2="44.000000"  style="stroke:black; stroke-linecap:round; stroke-width:0.25;"/>
<line x1="186.800000" y1="52.000000" x2="190.800000" y2="52.000000"  style="stroke:black; stroke-linecap:round; stroke-width:0.25;"/>
<line x1="186.800000" y1="60.000000" x2="190.800000" y2="60.000000"  style="stroke:black; stroke-linecap:round; stroke-width:0.25;"/>
<line x1="186.800000" y1="68.000000" x2="190.800000" y2="68.000000"  style="stroke:black; stroke-linecap:round; stroke-width:0.25;"/>
<line x1="186.800000" y1="76.000000" x2="190.800000" y2="76.000000"  style="stroke:black; stroke-linecap:round; stroke-width:0.25;"/>
<line x1="186.800000" y1="84.000000" x2="190.800000" y2="84.000000"  style="stroke:black; stroke-linecap:round; stroke-width:0.25;"/>
<line x1="186.800000" y1="92.000000" x2="190.800000" y2="92.000000"  style="stroke:black; stroke-linecap:round; stroke-width:0.25;"/>
<line x1="186.800000" y1="100.000000" x2="190.800000" y2="100.000000"  style="stroke:black; stroke-linecap:round; stroke-width:0.25;"/>
<line x1="186.800000" y1="108.000000" x2="190.800000" y2="108.000000"  style="stroke:black; stroke-linecap:round; stroke-width:0.25;"/>
<line x1="186.800000" y1="116.000000" x2="190.800000" y2="116.000000"  style="stroke:black; stroke-linecap:round; stroke-width:0.25;"/>
<line x1="186.800000" y1="124.000000" x2="190.800000" y2="124.000000"  style="stroke:black; stroke-linecap:round; stroke-width:0.25;"/>
<line x1="190.800000" y1="28.000000" x2="190.800000" y2="28.000000"  style="stroke:black; stroke-linecap:round; stroke-width:0.25;"/>
<line x1="190.800000" y1="28.000000" x2="194.800000" y2="28.000000"  style="stroke:black; stroke-linecap:round; stroke-width:0.25;"/>
<line x1="190.800000" y1="36.000000" x2="190.800000" y2="36.000000"  style="stroke:black; stroke-linecap:round; stroke-width:0.25;"/>
<line x1="190.800000" y1="36.000000" x2="194.800000" y2="36.000000"  style="stroke:black; stroke-linecap:round; stroke-width:0.25;"/>
<line x1="190.800000" y1="44.000000" x2="190.800000" y2="44.000000"  style="stroke:black; stroke-linecap:round; stroke-width:0.25;"/>
<line x1="190.800000" y1="44.000000" x2="194.800000" y2="44.000000"  style="stroke:black; stroke-linecap:round; stroke-width:0.25;"/>
<line x1="190.800000" y1="52.000000" x2="190.800000" y2="52.000000"  style="stroke:black; stroke-linecap:round; stroke-width:0.25;"/>
<line x1="190.800000" y1="52.000000" x2="194.800000" y2="52.000000"  style="stroke:black; stroke-linecap:round; stroke-width:0.25;"/>
<line x1="190.800000" y1="60.000000" x2="190.800000" y2="60.000000"  style="stroke:black; stroke-linecap:round; stroke-width:0.25;"/>
<line x1="190.800000" y1="60.000000" x2="194.800000" y2="60.000000"  style="stroke:black; stroke-linecap:round; stroke-width:0.25;"/>
<line x1="190.800000" y1="68.000000" x2="190.800000" y2="68.000000"  style="stroke:black; stroke-linecap:round; stroke-width:0.25;"/>
<line x1="190.800000" y1="68.000000" x2="194.800000" y2="68.000000"  style="stroke:black; stroke-linecap:round; stroke-width:0.25;"/>
<line x1="190.800000" y1="76.000000" x2="190.800000" y2="76.000000"  style="stroke:black; stroke-linecap:round; stroke-width:0.25;"/>
<line x1="190.800000" y1="76.000000" x2="194.800000" y2="76.000000"  style="stroke:black; stroke-linecap:round; stroke-width:0.25;"/>
<line x1="190.800000" y1="84.000000" x2="190.800000" y2="84.000000"  style="stroke:black; stroke-linecap:round; stroke-width:0.25;"/>
<line x1="190.800000" y1="84.000000" x2="194.800000" y2="84.000000"  style="stroke:black; stroke-linecap:round; stroke-width:0.25;"/>
<line x1="190.800000" y1="92.000000" x2="190.800000" y2="92.000000"  style="stroke:black; stroke-linecap:round; stroke-width:0.25;"/>
<line x1="190.800000" y1="92.000000" x2="194.800000" y2="92.000000"  style="stroke:black; stroke-linecap:round; stroke-width:0.25;"/>
<line x1="190.800000" y1="100.000000" x2="190.800000" y2="100.000000"  style="stroke:black; stroke-linecap:round; stroke-width:0.25;"/>
<line x1="190.800000" y1="100.000000" x2="194.800000" y2="100.000000"  style="stroke:black; stroke-linecap:round; stroke-width:0.25;"/>
<line x1="190.800000" y1="108.000000" x2="190.800000" y2="108.000000"  style="stroke:black; stroke-linecap:round; stroke-width:0.25;"/>
<line x1="190.800000" y1="108.000000" x2="194.800000" y2="108.000000"  style="stroke:black; stroke-linecap:round; stroke-width:0.25;"/>
<line x1="190.800000" y1="116.000000" x2="190.800000" y2="116.000000"  style="stroke:black; stroke-linecap:round; stroke-width:0.25;"/>
<line x1="190.800000" y1="116.000000" x2="194.800000" y2="116.000000"  style="stroke:black; stroke-linecap:round; stroke-width:0.25;"/>
<line x1="190.800000" y1="124.000000" x2="190.800000" y2="124.000000"  style="stroke:black; stroke-linecap:round; stroke-width:0.25;"/>
<line x1="190.800000" y1="124.000000" x2="194.800000" y2="124.000000"  style="stroke:black; stroke-linecap:round; stroke-width:0.25;"/>
<line x1="194.800000" y1="28.000000" x2="198.800000" y2="28.000000"  style="stroke:black; stroke-linecap:round; stroke-width:0.25;"/>
<line x1="194.800000" y1="36.000000" x2="198.800000" y2="36.000000"  style="stroke:black; stroke-linecap:round; stroke-width:0.25;"/>
<line x1="194.800000" y1="44.000000" x2="198.800000" y2="44.000000"  style="stroke:black; stroke-linecap:round; stroke-width:0.25;"/>
<line x1="194.800000" y1="52.000000" x2="198.800000" y2="52.000000"  style="stroke:black; stroke-linecap:round; stroke-width:0.25;"/>
<line x1="194.800000" y1="60.000000" x2="198.800000" y2="60.000000"  style="stroke:black; stroke-linecap:round; stroke-width:0.25;"/>
<line x1="194.800000" y1="68.000000" x2="198.800000" y2="68.000000"  style="stroke:black; stroke-linecap:round; stroke-width:0.25;"/>
<line x1="194.800000" y1="76.000000" x2="198.800000" y2="76.000000"  style="stroke:black; stroke-linecap:round; stroke-width:0.25;"/>
<line x1="194.800000" y1="84.000000" x2="198.800000" y2="84.000000"  style="stroke:black; stroke-linecap:round; stroke-width:0.25;"/>
<line x1="194.800000" y1="92.000000" x2="198.800000" y2="92.000000"  style="stroke:black; stroke-linecap:round; stroke-width:0.25;"/>
<line x1="194.800000" y1="100.000000" x2="198.800000" y2="100.000000"  style="stroke:black; stroke-linecap:round; stroke-width:0.25;"/>
<line x1="194.800000" y1="108.000000" x2="198.800000" y2="108.000000"  style="stroke:black; stroke-linecap:round; stroke-width:0.25;"/>
<line x1="194.800000" y1="116.000000" x2="198.800000" y2="116.000000"  style="stroke:black; stroke-linecap:round; stroke-width:0.25;"/>
<line x1="194.800000" y1="124.000000" x2="198.800000" y2="124.000000"  style="stroke:black; stroke-linecap:round; stroke-width:0.25;"/>
<line x1="198.800000" y1="28.000000" x2="208.800000" y2="28.000000"  style="stroke:black; stroke-linecap:round; stroke-width:0.25;"/>
<line x1="198.800000" y1="36.000000" x2="208.800000" y2="36.000000"  style="stroke:black; stroke-linecap:round; stroke-width:0.25;"/>
<line x1="198.800000" y1="44.000000" x2="208.800000" y2="44.000000"  style="stroke:black; stroke-linecap:round; stroke-width:0.25;"/>
<line x1="198.800000" y1="52.000000" x2="208.800000" y2="52.000000"  style="stroke:black; stroke-linecap:round; stroke-width:0.25;"/>
<line x1="198.800000" y1="60.000000" x2="208.800000" y2="60.000000"  style="stroke:black; stroke-linecap:round; stroke-width:0.25;"/>
<line x1="198.800000" y1="68.000000" x2="208.800000" y2="68.000000"  style="stroke:black; stroke-linecap:round; stroke-width:0.25;"/>
<line x1="198.800000" y1="76.000000" x2="208.800000" y2="76.000000"  style="stroke:black; stroke-linecap:round; stroke-width:0.25;"/>
<line x1="198.800000" y1="84.000000" x2="208.800000" y2="84.000000"  style="stroke:black; stroke-linecap:round; stroke-width:0.25;"/>
<line x1="198.800000" y1="92.000000" x2="208.800000" y2="92.000000"  style="stroke:black; stroke-linecap:round; stroke-width:0.25;"/>
<line x1="198.800000" y1="100.000000" x2="208.800000" y2="100.000000"  style="stroke:black; stroke-linecap:round; stroke-width:0.25;"/>
<line x1="198.800000" y1="108.000000" x2="208.800000" y2="108.000000"  style="stroke:black; stroke-linecap:round; stroke-width:0.25;"/>
<line x1="198.800000" y1="116.000000" x2="208.800000" y2="116.000000"  style="stroke:black; stroke-linecap:round; stroke-width:0.25;"/>
<line x1="198.800000" y1="124.000000" x2="208.800000" y2="124.000000"  style="stroke:black; stroke-linecap:round; stroke-width:0.25;"/>
</svg>
