<?xml version="1.0"?>
<svg xmlns="http://www.w3.org/2000/svg" xmlns:xlink="http://www.w3.org/1999/xlink" viewBox="0 0 200.040000 216.000000" width="100.020000mm" height="108.000000mm" version="1.1">
<a xlink:href="SH-0x2254190.svg">
<rect x="1.000000" y="1.000000" width="199.040000" height="215.000000" rx="0" ry="0" style="stroke:none;fill:#cccccc;"/>
<rect x="0.000000" y="0.000000" width="199.040000" height="215.000000" rx="0" ry="0" style="stroke:none;fill:#ffffff;"/>
</a>
<text x="10.000000" y="7.000000" font-family="Arial" font-size="7"></text>
<a xlink:href="noiser-0x212bdb0.svg">
<rect x="25.000000" y="25.000000" width="25.800000" height="104.000000" rx="0" ry="0" style="stroke:none;fill:#cccccc;"/>
<rect x="24.000000" y="24.000000" width="25.800000" height="104.000000" rx="0" ry="0" style="stroke:none;fill:#003366;"/>
</a>
<a xlink:href="noiser-0x212bdb0.svg">
<text x="36.900000" y="78.000000" font-family="Arial" font-size="7" text-anchor="middle" fill="#FFFFFF">noiser</text>
</a>
<circle cx="26.000000" cy="26.000000" r="1"/>
<rect x="45.020000" y="137.000000" width="24.000000" height="24.000000" rx="0" ry="0" style="stroke:none;fill:#cccccc;"/>
<rect x="44.020000" y="136.000000" width="24.000000" height="24.000000" rx="0" ry="0" style="stroke:none;fill:#f44800;"/>
<text x="56.020000" y="150.000000" font-family="Arial" font-size="7" text-anchor="middle" fill="#FFFFFF">1</text>
<circle cx="46.020000" cy="138.000000" r="1"/>
<rect x="105.040000" y="81.000000" width="24.000000" height="24.000000" rx="0" ry="0" style="stroke:none;fill:#cccccc;"/>
<rect x="104.040000" y="80.000000" width="24.000000" height="24.000000" rx="0" ry="0" style="stroke:none;fill:#4B71A1;"/>
<text x="116.040000" y="94.000000" font-family="Arial" font-size="7" text-anchor="middle" fill="#FFFFFF">+</text>
<circle cx="106.040000" cy="82.000000" r="1"/>
<line x1="101.040000" y1="87.000000" x2="104.040000" y2="88.000000"  transform="rotate(0.000000,104.040000,88.000000)" style="stroke: black; stroke-width:0.25;"/>
<line x1="101.040000" y1="89.000000" x2="104.040000" y2="88.000000"  transform="rotate(0.000000,104.040000,88.000000)" style="stroke: black; stroke-width:0.25;"/>
<line x1="101.040000" y1="95.000000" x2="104.040000" y2="96.000000"  transform="rotate(0.000000,104.040000,96.000000)" style="stroke: black; stroke-width:0.25;"/>
<line x1="101.040000" y1="97.000000" x2="104.040000" y2="96.000000"  transform="rotate(0.000000,104.040000,96.000000)" style="stroke: black; stroke-width:0.25;"/>
<rect x="65.020000" y="169.000000" width="24.000000" height="24.000000" rx="0" ry="0" style="stroke:none;fill:#cccccc;"/>
<rect x="64.020000" y="168.000000" width="24.000000" height="24.000000" rx="0" ry="0" style="stroke:none;fill:#f44800;"/>
<text x="76.020000" y="182.000000" font-family="Arial" font-size="7" text-anchor="middle" fill="#FFFFFF">2</text>
<circle cx="66.020000" cy="170.000000" r="1"/>
<rect x="145.040000" y="97.000000" width="24.000000" height="24.000000" rx="0" ry="0" style="stroke:none;fill:#cccccc;"/>
<rect x="144.040000" y="96.000000" width="24.000000" height="24.000000" rx="0" ry="0" style="stroke:none;fill:#4B71A1;"/>
<text x="156.040000" y="110.000000" font-family="Arial" font-size="7" text-anchor="middle" fill="#FFFFFF">/</text>
<circle cx="146.040000" cy="98.000000" r="1"/>
<line x1="141.040000" y1="103.000000" x2="144.040000" y2="104.000000"  transform="rotate(0.000000,144.040000,104.000000)" style="stroke: black; stroke-width:0.25;"/>
<line x1="141.040000" y1="105.000000" x2="144.040000" y2="104.000000"  transform="rotate(0.000000,144.040000,104.000000)" style="stroke: black; stroke-width:0.25;"/>
<line x1="141.040000" y1="111.000000" x2="144.040000" y2="112.000000"  transform="rotate(0.000000,144.040000,112.000000)" style="stroke: black; stroke-width:0.25;"/>
<line x1="141.040000" y1="113.000000" x2="144.040000" y2="112.000000"  transform="rotate(0.000000,144.040000,112.000000)" style="stroke: black; stroke-width:0.25;"/>
<line x1="15.000000" y1="15.000000" x2="15.000000" y2="201.000000"  style="stroke: black; stroke-linecap:round; stroke-width:0.25; stroke-dasharray:3,3;"/>
<line x1="15.000000" y1="201.000000" x2="185.040000" y2="201.000000"  style="stroke: black; stroke-linecap:round; stroke-width:0.25; stroke-dasharray:3,3;"/>
<line x1="185.040000" y1="201.000000" x2="185.040000" y2="15.000000"  style="stroke: black; stroke-linecap:round; stroke-width:0.25; stroke-dasharray:3,3;"/>
<line x1="15.000000" y1="15.000000" x2="20.000000" y2="15.000000"  style="stroke: black; stroke-linecap:round; stroke-width:0.25; stroke-dasharray:3,3;"/>
<line x1="52.250000" y1="15.000000" x2="185.040000" y2="15.000000"  style="stroke: black; stroke-linecap:round; stroke-width:0.25; stroke-dasharray:3,3;"/>
<text x="20.000000" y="17.000000" font-family="Arial" font-size="7">noise(8)</text>
<line x1="187.040000" y1="107.000000" x2="190.040000" y2="108.000000"  transform="rotate(0.000000,190.040000,108.000000)" style="stroke: black; stroke-width:0.25;"/>
<line x1="187.040000" y1="109.000000" x2="190.040000" y2="108.000000"  transform="rotate(0.000000,190.040000,108.000000)" style="stroke: black; stroke-width:0.25;"/>
<line x1="49.800000" y1="92.000000" x2="53.800000" y2="92.000000"  style="stroke:black; stroke-linecap:round; stroke-width:0.25;"/>
<line x1="53.800000" y1="92.000000" x2="84.040000" y2="76.160000"  style="stroke:black; stroke-linecap:round; stroke-width:0.25;"/>
<line x1="68.020000" y1="148.000000" x2="72.020000" y2="148.000000"  style="stroke:black; stroke-linecap:round; stroke-width:0.25;"/>
<line x1="72.020000" y1="148.000000" x2="92.040000" y2="148.000000"  style="stroke:black; stroke-linecap:round; stroke-width:0.25;"/>
<line x1="84.040000" y1="76.160000" x2="88.040000" y2="76.160000"  style="stroke:black; stroke-linecap:round; stroke-width:0.25;"/>
<line x1="88.020000" y1="180.000000" x2="92.020000" y2="180.000000"  style="stroke:black; stroke-linecap:round; stroke-width:0.25;"/>
<line x1="88.040000" y1="76.160000" x2="92.040000" y2="76.160000"  style="stroke:black; stroke-linecap:round; stroke-width:0.25;"/>
<line x1="92.020000" y1="180.000000" x2="132.040000" y2="180.000000"  style="stroke:black; stroke-linecap:round; stroke-width:0.25;"/>
<line x1="92.040000" y1="76.160000" x2="100.040000" y2="76.160000"  style="stroke:black; stroke-linecap:round; stroke-width:0.25;"/>
<line x1="92.040000" y1="96.000000" x2="100.040000" y2="96.000000"  style="stroke:black; stroke-linecap:round; stroke-width:0.25;"/>
<line x1="92.040000" y1="148.000000" x2="92.040000" y2="96.000000"  style="stroke:black; stroke-linecap:round; stroke-width:0.25;"/>
<line x1="92.040000" y1="148.000000" x2="92.040000" y2="148.000000"  style="stroke:black; stroke-linecap:round; stroke-width:0.25;"/>
<line x1="100.040000" y1="76.160000" x2="100.040000" y2="88.000000"  style="stroke:black; stroke-linecap:round; stroke-width:0.25;"/>
<line x1="100.040000" y1="88.000000" x2="100.040000" y2="88.000000"  style="stroke:black; stroke-linecap:round; stroke-width:0.25;"/>
<line x1="100.040000" y1="88.000000" x2="104.040000" y2="88.000000"  style="stroke:black; stroke-linecap:round; stroke-width:0.25;"/>
<line x1="100.040000" y1="96.000000" x2="104.040000" y2="96.000000"  style="stroke:black; stroke-linecap:round; stroke-width:0.25;"/>
<line x1="128.040000" y1="92.000000" x2="132.040000" y2="92.000000"  style="stroke:black; stroke-linecap:round; stroke-width:0.25;"/>
<line x1="132.040000" y1="92.000000" x2="140.040000" y2="92.000000"  style="stroke:black; stroke-linecap:round; stroke-width:0.25;"/>
<line x1="132.040000" y1="112.000000" x2="140.040000" y2="112.000000"  style="stroke:black; stroke-linecap:round; stroke-width:0.25;"/>
<line x1="132.040000" y1="180.000000" x2="132.040000" y2="112.000000"  style="stroke:black; stroke-linecap:round; stroke-width:0.25;"/>
<line x1="132.040000" y1="180.000000" x2="132.040000" y2="180.000000"  style="stroke:black; stroke-linecap:round; stroke-width:0.25;"/>
<line x1="140.040000" y1="92.000000" x2="140.040000" y2="104.000000"  style="stroke:black; stroke-linecap:round; stroke-width:0.25;"/>
<line x1="140.040000" y1="104.000000" x2="140.040000" y2="104.000000"  style="stroke:black; stroke-linecap:round; stroke-width:0.25;"/>
<line x1="140.040000" y1="104.000000" x2="144.040000" y2="104.000000"  style="stroke:black; stroke-linecap:round; stroke-width:0.25;"/>
<line x1="140.040000" y1="112.000000" x2="144.040000" y2="112.000000"  style="stroke:black; stroke-linecap:round; stroke-width:0.25;"/>
<line x1="168.040000" y1="108.000000" x2="172.040000" y2="108.000000"  style="stroke:black; stroke-linecap:round; stroke-width:0.25;"/>
<line x1="172.040000" y1="108.000000" x2="172.040000" y2="108.000000"  style="stroke:black; stroke-linecap:round; stroke-width:0.25;"/>
<line x1="172.040000" y1="108.000000" x2="176.040000" y2="108.000000"  style="stroke:black; stroke-linecap:round; stroke-width:0.25;"/>
<line x1="176.040000" y1="108.000000" x2="180.040000" y2="108.000000"  style="stroke:black; stroke-linecap:round; stroke-width:0.25;"/>
<line x1="180.040000" y1="108.000000" x2="190.040000" y2="108.000000"  style="stroke:black; stroke-linecap:round; stroke-width:0.25;"/>
</svg>
