<?xml version="1.0"?>
<svg xmlns="http://www.w3.org/2000/svg" xmlns:xlink="http://www.w3.org/1999/xlink" viewBox="0 0 245.400000 80.000000" width="122.700000mm" height="40.000000mm" version="1.1">
<a xlink:href="chain-0x212bcb0.svg">
<rect x="1.000000" y="1.000000" width="244.400000" height="79.000000" rx="0" ry="0" style="stroke:none;fill:#cccccc;"/>
<rect x="0.000000" y="0.000000" width="244.400000" height="79.000000" rx="0" ry="0" style="stroke:none;fill:#ffffff;"/>
</a>
<text x="10.000000" y="7.000000" font-family="Arial" font-size="7"></text>
<rect x="41.000000" y="33.000000" width="25.800000" height="24.000000" rx="0" ry="0" style="stroke:none;fill:#cccccc;"/>
<rect x="40.000000" y="32.000000" width="25.800000" height="24.000000" rx="0" ry="0" style="stroke:none;fill:#f44800;"/>
<text x="52.900000" y="46.000000" font-family="Arial" font-size="7" text-anchor="middle" fill="#FFFFFF">12345</text>
<circle cx="42.000000" cy="34.000000" r="1"/>
<rect x="82.800000" y="29.000000" width="24.000000" height="24.000000" rx="0" ry="0" style="stroke:none;fill:#cccccc;"/>
<rect x="81.800000" y="28.000000" width="24.000000" height="24.000000" rx="0" ry="0" style="stroke:none;fill:#4B71A1;"/>
<text x="93.800000" y="42.000000" font-family="Arial" font-size="7" text-anchor="middle" fill="#FFFFFF">+</text>
<circle cx="83.800000" cy="30.000000" r="1"/>
<line x1="78.800000" y1="35.000000" x2="81.800000" y2="36.000000"  transform="rotate(0.000000,81.800000,36.000000)" style="stroke: black; stroke-width:0.25;"/>
<line x1="78.800000" y1="37.000000" x2="81.800000" y2="36.000000"  transform="rotate(0.000000,81.800000,36.000000)" style="stroke: black; stroke-width:0.25;"/>
<line x1="78.800000" y1="43.000000" x2="81.800000" y2="44.000000"  transform="rotate(0.000000,81.800000,44.000000)" style="stroke: black; stroke-width:0.25;"/>
<line x1="78.800000" y1="45.000000" x2="81.800000" y2="44.000000"  transform="rotate(0.000000,81.800000,44.000000)" style="stroke: black; stroke-width:0.25;"/>
<rect x="122.800000" y="33.000000" width="51.600000" height="24.000000" rx="0" ry="0" style="stroke:none;fill:#cccccc;"/>
<rect x="121.800000" y="32.000000" width="51.600000" height="24.000000" rx="0" ry="0" style="stroke:none;fill:#f44800;"/>
<text x="147.600000" y="46.000000" font-family="Arial" font-size="7" text-anchor="middle" fill="#FFFFFF">1103515245</text>
<circle cx="123.800000" cy="34.000000" r="1"/>
<rect x="190.400000" y="29.000000" width="24.000000" height="24.000000" rx="0" ry="0" style="stroke:none;fill:#cccccc;"/>
<rect x="189.400000" y="28.000000" width="24.000000" height="24.000000" rx="0" ry="0" style="stroke:none;fill:#4B71A1;"/>
<text x="201.400000" y="42.000000" font-family="Arial" font-size="7" text-anchor="middle" fill="#FFFFFF">*</text>
<circle cx="191.400000" cy="30.000000" r="1"/>
<line x1="186.400000" y1="35.000000" x2="189.400000" y2="36.000000"  transform="rotate(0.000000,189.400000,36.000000)" style="stroke: black; stroke-width:0.25;"/>
<line x1="186.400000" y1="37.000000" x2="189.400000" y2="36.000000"  transform="rotate(0.000000,189.400000,36.000000)" style="stroke: black; stroke-width:0.25;"/>
<line x1="186.400000" y1="43.000000" x2="189.400000" y2="44.000000"  transform="rotate(0.000000,189.400000,44.000000)" style="stroke: black; stroke-width:0.25;"/>
<line x1="186.400000" y1="45.000000" x2="189.400000" y2="44.000000"  transform="rotate(0.000000,189.400000,44.000000)" style="stroke: black; stroke-width:0.25;"/>
<line x1="15.000000" y1="15.000000" x2="15.000000" y2="65.000000"  style="stroke: black; stroke-linecap:round; stroke-width:0.25; stroke-dasharray:3,3;"/>
<line x1="15.000000" y1="65.000000" x2="230.400000" y2="65.000000"  style="stroke: black; stroke-linecap:round; stroke-width:0.25; stroke-dasharray:3,3;"/>
<line x1="230.400000" y1="65.000000" x2="230.400000" y2="15.000000"  style="stroke: black; stroke-linecap:round; stroke-width:0.25; stroke-dasharray:3,3;"/>
<line x1="15.000000" y1="15.000000" x2="20.000000" y2="15.000000"  style="stroke: black; stroke-linecap:round; stroke-width:0.25; stroke-dasharray:3,3;"/>
<line x1="45.800000" y1="15.000000" x2="230.400000" y2="15.000000"  style="stroke: black; stroke-linecap:round; stroke-width:0.25; stroke-dasharray:3,3;"/>
<text x="20.000000" y="17.000000" font-family="Arial" font-size="7">random</text>
<line x1="232.400000" y1="39.000000" x2="235.400000" y2="40.000000"  transform="rotate(0.000000,235.400000,40.000000)" style="stroke: black; stroke-width:0.25;"/>
<line x1="232.400000" y1="41.000000" x2="235.400000" y2="40.000000"  transform="rotate(0.000000,235.400000,40.000000)" style="stroke: black; stroke-width:0.25;"/>
<line x1="10.000000" y1="40.000000" x2="20.000000" y2="40.000000"  style="stroke:black; stroke-linecap:round; stroke-width:0.25;"/>
<line x1="20.000000" y1="40.000000" x2="24.000000" y2="40.000000"  style="stroke:black; stroke-linecap:round; stroke-width:0.25;"/>
<line x1="24.000000" y1="40.000000" x2="28.000000" y2="40.000000"  style="stroke:black; stroke-linecap:round; stroke-width:0.25;"/>
<line x1="28.000000" y1="24.000000" x2="36.000000" y2="24.000000"  style="stroke:black; stroke-linecap:round; stroke-width:0.25;"/>
<line x1="28.000000" y1="40.000000" x2="28.000000" y2="24.000000"  style="stroke:black; stroke-linecap:round; stroke-width:0.25;"/>
<line x1="28.000000" y1="40.000000" x2="28.000000" y2="40.000000"  style="stroke:black; stroke-linecap:round; stroke-width:0.25;"/>
<line x1="36.000000" y1="24.000000" x2="52.900000" y2="24.000000"  style="stroke:black; stroke-linecap:round; stroke-width:0.25;"/>
<line x1="52.900000" y1="24.000000" x2="69.800000" y2="24.000000"  style="stroke:black; stroke-linecap:round; stroke-width:0.25;"/>
<line x1="65.800000" y1="44.000000" x2="69.800000" y2="44.000000"  style="stroke:black; stroke-linecap:round; stroke-width:0.25;"/>
<line x1="69.800000" y1="24.000000" x2="77.800000" y2="24.000000"  style="stroke:black; stroke-linecap:round; stroke-width:0.25;"/>
<line x1="69.800000" y1="44.000000" x2="77.800000" y2="44.000000"  style="stroke:black; stroke-linecap:round; stroke-width:0.25;"/>
<line x1="77.800000" y1="24.000000" x2="77.800000" y2="36.000000"  style="stroke:black; stroke-linecap:round; stroke-width:0.25;"/>
<line x1="77.800000" y1="36.000000" x2="77.800000" y2="36.000000"  style="stroke:black; stroke-linecap:round; stroke-width:0.25;"/>
<line x1="77.800000" y1="36.000000" x2="81.800000" y2="36.000000"  style="stroke:black; stroke-linecap:round; stroke-width:0.25;"/>
<line x1="77.800000" y1="44.000000" x2="81.800000" y2="44.000000"  style="stroke:black; stroke-linecap:round; stroke-width:0.25;"/>
<line x1="105.800000" y1="40.000000" x2="109.800000" y2="40.000000"  style="stroke:black; stroke-linecap:round; stroke-width:0.25;"/>
<line x1="109.800000" y1="24.000000" x2="117.800000" y2="24.000000"  style="stroke:black; stroke-linecap:round; stroke-width:0.25;"/>
<line x1="109.800000" y1="40.000000" x2="109.800000" y2="24.000000"  style="stroke:black; stroke-linecap:round; stroke-width:0.25;"/>
<line x1="109.800000" y1="40.000000" x2="109.800000" y2="40.000000"  style="stroke:black; stroke-linecap:round; stroke-width:0.25;"/>
<line x1="117.800000" y1="24.000000" x2="147.600000" y2="24.000000"  style="stroke:black; stroke-linecap:round; stroke-width:0.25;"/>
<line x1="147.600000" y1="24.000000" x2="177.400000" y2="24.000000"  style="stroke:black; stroke-linecap:round; stroke-width:0.25;"/>
<line x1="173.400000" y1="44.000000" x2="177.400000" y2="44.000000"  style="stroke:black; stroke-linecap:round; stroke-width:0.25;"/>
<line x1="177.400000" y1="24.000000" x2="185.400000" y2="24.000000"  style="stroke:black; stroke-linecap:round; stroke-width:0.25;"/>
<line x1="177.400000" y1="44.000000" x2="185.400000" y2="44.000000"  style="stroke:black; stroke-linecap:round; stroke-width:0.25;"/>
<line x1="185.400000" y1="24.000000" x2="185.400000" y2="36.000000"  style="stroke:black; stroke-linecap:round; stroke-width:0.25;"/>
<line x1="185.400000" y1="36.000000" x2="185.400000" y2="36.000000"  style="stroke:black; stroke-linecap:round; stroke-width:0.25;"/>
<line x1="185.400000" y1="36.000000" x2="189.400000" y2="36.000000"  style="stroke:black; stroke-linecap:round; stroke-width:0.25;"/>
<line x1="185.400000" y1="44.000000" x2="189.400000" y2="44.000000"  style="stroke:black; stroke-linecap:round; stroke-width:0.25;"/>
<line x1="213.400000" y1="40.000000" x2="217.400000" y2="40.000000"  style="stroke:black; stroke-linecap:round; stroke-width:0.25;"/>
<line x1="217.400000" y1="40.000000" x2="217.400000" y2="40.000000"  style="stroke:black; stroke-linecap:round; stroke-width:0.25;"/>
<line x1="217.400000" y1="40.000000" x2="221.400000" y2="40.000000"  style="stroke:black; stroke-linecap:round; stroke-width:0.25;"/>
<line x1="221.400000" y1="40.000000" x2="225.400000" y2="40.000000"  style="stroke:black; stroke-linecap:round; stroke-width:0.25;"/>
<line x1="225.400000" y1="40.000000" x2="235.400000" y2="40.000000"  style="stroke:black; stroke-linecap:round; stroke-width:0.25;"/>
</svg>
