<?xml version="1.0"?>
<svg xmlns="http://www.w3.org/2000/svg" xmlns:xlink="http://www.w3.org/1999/xlink" viewBox="0 0 363.600000 344.000000" width="181.800000mm" height="172.000000mm" version="1.1">
<a xlink:href="grainRandomStart-0x22c1e40.svg">
<rect x="1.000000" y="1.000000" width="362.600000" height="343.000000" rx="0" ry="0" style="stroke:none;fill:#cccccc;"/>
<rect x="0.000000" y="0.000000" width="362.600000" height="343.000000" rx="0" ry="0" style="stroke:none;fill:#ffffff;"/>
</a>
<text x="10.000000" y="7.000000" font-family="Arial" font-size="7"></text>
<rect x="102.800000" y="41.000000" width="24.000000" height="24.000000" rx="0" ry="0" style="stroke:none;fill:#cccccc;"/>
<rect x="101.800000" y="40.000000" width="24.000000" height="24.000000" rx="0" ry="0" style="stroke:none;fill:#f44800;"/>
<text x="113.800000" y="54.000000" font-family="Arial" font-size="7" text-anchor="middle" fill="#FFFFFF">1</text>
<circle cx="103.800000" cy="42.000000" r="1"/>
<a xlink:href="grainCounter-0x22a1860.svg">
<rect x="46.550000" y="73.000000" width="64.500000" height="24.000000" rx="0" ry="0" style="stroke:none;fill:#cccccc;"/>
<rect x="45.550000" y="72.000000" width="64.500000" height="24.000000" rx="0" ry="0" style="stroke:none;fill:#003366;"/>
</a>
<a xlink:href="grainCounter-0x22a1860.svg">
<text x="77.800000" y="86.000000" font-family="Arial" font-size="7" text-anchor="middle" fill="#FFFFFF">grainCounter(7)</text>
</a>
<circle cx="47.550000" cy="74.000000" r="1"/>
<a xlink:href="grainLength-0x20fd2a0.svg">
<rect x="33.000000" y="105.000000" width="51.600000" height="24.000000" rx="0" ry="0" style="stroke:none;fill:#cccccc;"/>
<rect x="32.000000" y="104.000000" width="51.600000" height="24.000000" rx="0" ry="0" style="stroke:none;fill:#003366;"/>
</a>
<a xlink:href="grainLength-0x20fd2a0.svg">
<text x="57.800000" y="118.000000" font-family="Arial" font-size="7" text-anchor="middle" fill="#FFFFFF">grainLength</text>
</a>
<circle cx="34.000000" cy="106.000000" r="1"/>
<rect x="46.800000" y="137.000000" width="24.000000" height="24.000000" rx="0" ry="0" style="stroke:none;fill:#cccccc;"/>
<rect x="45.800000" y="136.000000" width="24.000000" height="24.000000" rx="0" ry="0" style="stroke:none;fill:#f44800;"/>
<text x="57.800000" y="150.000000" font-family="Arial" font-size="7" text-anchor="middle" fill="#FFFFFF">1</text>
<circle cx="47.800000" cy="138.000000" r="1"/>
<rect x="100.600000" y="121.000000" width="24.000000" height="24.000000" rx="0" ry="0" style="stroke:none;fill:#cccccc;"/>
<rect x="99.600000" y="120.000000" width="24.000000" height="24.000000" rx="0" ry="0" style="stroke:none;fill:#4B71A1;"/>
<text x="111.600000" y="134.000000" font-family="Arial" font-size="7" text-anchor="middle" fill="#FFFFFF">-</text>
<circle cx="101.600000" cy="122.000000" r="1"/>
<line x1="96.600000" y1="127.000000" x2="99.600000" y2="128.000000"  transform="rotate(0.000000,99.600000,128.000000)" style="stroke: black; stroke-width:0.25;"/>
<line x1="96.600000" y1="129.000000" x2="99.600000" y2="128.000000"  transform="rotate(0.000000,99.600000,128.000000)" style="stroke: black; stroke-width:0.25;"/>
<line x1="96.600000" y1="135.000000" x2="99.600000" y2="136.000000"  transform="rotate(0.000000,99.600000,136.000000)" style="stroke: black; stroke-width:0.25;"/>
<line x1="96.600000" y1="137.000000" x2="99.600000" y2="136.000000"  transform="rotate(0.000000,99.600000,136.000000)" style="stroke: black; stroke-width:0.25;"/>
<rect x="140.600000" y="105.000000" width="24.000000" height="24.000000" rx="0" ry="0" style="stroke:none;fill:#cccccc;"/>
<rect x="139.600000" y="104.000000" width="24.000000" height="24.000000" rx="0" ry="0" style="stroke:none;fill:#4B71A1;"/>
<text x="151.600000" y="118.000000" font-family="Arial" font-size="7" text-anchor="middle" fill="#FFFFFF">/</text>
<circle cx="141.600000" cy="106.000000" r="1"/>
<line x1="136.600000" y1="111.000000" x2="139.600000" y2="112.000000"  transform="rotate(0.000000,139.600000,112.000000)" style="stroke: black; stroke-width:0.25;"/>
<line x1="136.600000" y1="113.000000" x2="139.600000" y2="112.000000"  transform="rotate(0.000000,139.600000,112.000000)" style="stroke: black; stroke-width:0.25;"/>
<line x1="136.600000" y1="119.000000" x2="139.600000" y2="120.000000"  transform="rotate(0.000000,139.600000,120.000000)" style="stroke: black; stroke-width:0.25;"/>
<line x1="136.600000" y1="121.000000" x2="139.600000" y2="120.000000"  transform="rotate(0.000000,139.600000,120.000000)" style="stroke: black; stroke-width:0.25;"/>
<rect x="172.600000" y="105.000000" width="24.000000" height="24.000000" rx="0" ry="0" style="stroke:none;fill:#cccccc;"/>
<rect x="171.600000" y="104.000000" width="24.000000" height="24.000000" rx="0" ry="0" style="stroke:none;fill:#4B71A1;"/>
<text x="183.600000" y="118.000000" font-family="Arial" font-size="7" text-anchor="middle" fill="#FFFFFF">int</text>
<circle cx="173.600000" cy="106.000000" r="1"/>
<line x1="168.600000" y1="115.000000" x2="171.600000" y2="116.000000"  transform="rotate(0.000000,171.600000,116.000000)" style="stroke: black; stroke-width:0.25;"/>
<line x1="168.600000" y1="117.000000" x2="171.600000" y2="116.000000"  transform="rotate(0.000000,171.600000,116.000000)" style="stroke: black; stroke-width:0.25;"/>
<rect x="212.600000" y="89.000000" width="24.000000" height="24.000000" rx="0" ry="0" style="stroke:none;fill:#cccccc;"/>
<rect x="211.600000" y="88.000000" width="24.000000" height="24.000000" rx="0" ry="0" style="stroke:none;fill:#4B71A1;"/>
<text x="223.600000" y="102.000000" font-family="Arial" font-size="7" text-anchor="middle" fill="#FFFFFF">-</text>
<circle cx="213.600000" cy="90.000000" r="1"/>
<line x1="208.600000" y1="95.000000" x2="211.600000" y2="96.000000"  transform="rotate(0.000000,211.600000,96.000000)" style="stroke: black; stroke-width:0.25;"/>
<line x1="208.600000" y1="97.000000" x2="211.600000" y2="96.000000"  transform="rotate(0.000000,211.600000,96.000000)" style="stroke: black; stroke-width:0.25;"/>
<line x1="208.600000" y1="103.000000" x2="211.600000" y2="104.000000"  transform="rotate(0.000000,211.600000,104.000000)" style="stroke: black; stroke-width:0.25;"/>
<line x1="208.600000" y1="105.000000" x2="211.600000" y2="104.000000"  transform="rotate(0.000000,211.600000,104.000000)" style="stroke: black; stroke-width:0.25;"/>
<rect x="252.600000" y="85.000000" width="24.000000" height="24.000000" rx="0" ry="0" style="stroke:none;fill:#cccccc;"/>
<rect x="251.600000" y="84.000000" width="24.000000" height="24.000000" rx="0" ry="0" style="stroke:none;fill:#4B71A1;"/>
<text x="263.600000" y="98.000000" font-family="Arial" font-size="7" text-anchor="middle" fill="#FFFFFF">*</text>
<circle cx="253.600000" cy="86.000000" r="1"/>
<line x1="248.600000" y1="91.000000" x2="251.600000" y2="92.000000"  transform="rotate(0.000000,251.600000,92.000000)" style="stroke: black; stroke-width:0.25;"/>
<line x1="248.600000" y1="93.000000" x2="251.600000" y2="92.000000"  transform="rotate(0.000000,251.600000,92.000000)" style="stroke: black; stroke-width:0.25;"/>
<line x1="248.600000" y1="99.000000" x2="251.600000" y2="100.000000"  transform="rotate(0.000000,251.600000,100.000000)" style="stroke: black; stroke-width:0.25;"/>
<line x1="248.600000" y1="101.000000" x2="251.600000" y2="100.000000"  transform="rotate(0.000000,251.600000,100.000000)" style="stroke: black; stroke-width:0.25;"/>
<a xlink:href="delayLength-0x212e0d0.svg">
<rect x="73.000000" y="169.000000" width="51.600000" height="24.000000" rx="0" ry="0" style="stroke:none;fill:#cccccc;"/>
<rect x="72.000000" y="168.000000" width="51.600000" height="24.000000" rx="0" ry="0" style="stroke:none;fill:#003366;"/>
</a>
<a xlink:href="delayLength-0x212e0d0.svg">
<text x="97.800000" y="182.000000" font-family="Arial" font-size="7" text-anchor="middle" fill="#FFFFFF">delayLength</text>
</a>
<circle cx="74.000000" cy="170.000000" r="1"/>
<a xlink:href="noise-0x2296500.svg">
<rect x="79.450000" y="201.000000" width="38.700000" height="24.000000" rx="0" ry="0" style="stroke:none;fill:#cccccc;"/>
<rect x="78.450000" y="200.000000" width="38.700000" height="24.000000" rx="0" ry="0" style="stroke:none;fill:#003366;"/>
</a>
<a xlink:href="noise-0x2296500.svg">
<text x="97.800000" y="214.000000" font-family="Arial" font-size="7" text-anchor="middle" fill="#FFFFFF">noise(7)</text>
</a>
<circle cx="80.450000" cy="202.000000" r="1"/>
<rect x="140.600000" y="185.000000" width="24.000000" height="24.000000" rx="0" ry="0" style="stroke:none;fill:#cccccc;"/>
<rect x="139.600000" y="184.000000" width="24.000000" height="24.000000" rx="0" ry="0" style="stroke:none;fill:#4B71A1;"/>
<text x="151.600000" y="198.000000" font-family="Arial" font-size="7" text-anchor="middle" fill="#FFFFFF">*</text>
<circle cx="141.600000" cy="186.000000" r="1"/>
<line x1="136.600000" y1="191.000000" x2="139.600000" y2="192.000000"  transform="rotate(0.000000,139.600000,192.000000)" style="stroke: black; stroke-width:0.25;"/>
<line x1="136.600000" y1="193.000000" x2="139.600000" y2="192.000000"  transform="rotate(0.000000,139.600000,192.000000)" style="stroke: black; stroke-width:0.25;"/>
<line x1="136.600000" y1="199.000000" x2="139.600000" y2="200.000000"  transform="rotate(0.000000,139.600000,200.000000)" style="stroke: black; stroke-width:0.25;"/>
<line x1="136.600000" y1="201.000000" x2="139.600000" y2="200.000000"  transform="rotate(0.000000,139.600000,200.000000)" style="stroke: black; stroke-width:0.25;"/>
<rect x="172.600000" y="185.000000" width="24.000000" height="24.000000" rx="0" ry="0" style="stroke:none;fill:#cccccc;"/>
<rect x="171.600000" y="184.000000" width="24.000000" height="24.000000" rx="0" ry="0" style="stroke:none;fill:#4B71A1;"/>
<text x="183.600000" y="198.000000" font-family="Arial" font-size="7" text-anchor="middle" fill="#FFFFFF">int</text>
<circle cx="173.600000" cy="186.000000" r="1"/>
<line x1="168.600000" y1="195.000000" x2="171.600000" y2="196.000000"  transform="rotate(0.000000,171.600000,196.000000)" style="stroke: black; stroke-width:0.25;"/>
<line x1="168.600000" y1="197.000000" x2="171.600000" y2="196.000000"  transform="rotate(0.000000,171.600000,196.000000)" style="stroke: black; stroke-width:0.25;"/>
<a xlink:href="grainCounter-0x22a1860.svg">
<rect x="66.550000" y="233.000000" width="64.500000" height="24.000000" rx="0" ry="0" style="stroke:none;fill:#cccccc;"/>
<rect x="65.550000" y="232.000000" width="64.500000" height="24.000000" rx="0" ry="0" style="stroke:none;fill:#003366;"/>
</a>
<a xlink:href="grainCounter-0x22a1860.svg">
<text x="97.800000" y="246.000000" font-family="Arial" font-size="7" text-anchor="middle" fill="#FFFFFF">grainCounter(7)</text>
</a>
<circle cx="67.550000" cy="234.000000" r="1"/>
<a xlink:href="grainLength-0x20fd2a0.svg">
<rect x="53.000000" y="265.000000" width="51.600000" height="24.000000" rx="0" ry="0" style="stroke:none;fill:#cccccc;"/>
<rect x="52.000000" y="264.000000" width="51.600000" height="24.000000" rx="0" ry="0" style="stroke:none;fill:#003366;"/>
</a>
<a xlink:href="grainLength-0x20fd2a0.svg">
<text x="77.800000" y="278.000000" font-family="Arial" font-size="7" text-anchor="middle" fill="#FFFFFF">grainLength</text>
</a>
<circle cx="54.000000" cy="266.000000" r="1"/>
<rect x="66.800000" y="297.000000" width="24.000000" height="24.000000" rx="0" ry="0" style="stroke:none;fill:#cccccc;"/>
<rect x="65.800000" y="296.000000" width="24.000000" height="24.000000" rx="0" ry="0" style="stroke:none;fill:#f44800;"/>
<text x="77.800000" y="310.000000" font-family="Arial" font-size="7" text-anchor="middle" fill="#FFFFFF">1</text>
<circle cx="67.800000" cy="298.000000" r="1"/>
<rect x="120.600000" y="281.000000" width="24.000000" height="24.000000" rx="0" ry="0" style="stroke:none;fill:#cccccc;"/>
<rect x="119.600000" y="280.000000" width="24.000000" height="24.000000" rx="0" ry="0" style="stroke:none;fill:#4B71A1;"/>
<text x="131.600000" y="294.000000" font-family="Arial" font-size="7" text-anchor="middle" fill="#FFFFFF">-</text>
<circle cx="121.600000" cy="282.000000" r="1"/>
<line x1="116.600000" y1="287.000000" x2="119.600000" y2="288.000000"  transform="rotate(0.000000,119.600000,288.000000)" style="stroke: black; stroke-width:0.25;"/>
<line x1="116.600000" y1="289.000000" x2="119.600000" y2="288.000000"  transform="rotate(0.000000,119.600000,288.000000)" style="stroke: black; stroke-width:0.25;"/>
<line x1="116.600000" y1="295.000000" x2="119.600000" y2="296.000000"  transform="rotate(0.000000,119.600000,296.000000)" style="stroke: black; stroke-width:0.25;"/>
<line x1="116.600000" y1="297.000000" x2="119.600000" y2="296.000000"  transform="rotate(0.000000,119.600000,296.000000)" style="stroke: black; stroke-width:0.25;"/>
<rect x="160.600000" y="265.000000" width="24.000000" height="24.000000" rx="0" ry="0" style="stroke:none;fill:#cccccc;"/>
<rect x="159.600000" y="264.000000" width="24.000000" height="24.000000" rx="0" ry="0" style="stroke:none;fill:#4B71A1;"/>
<text x="171.600000" y="278.000000" font-family="Arial" font-size="7" text-anchor="middle" fill="#FFFFFF">/</text>
<circle cx="161.600000" cy="266.000000" r="1"/>
<line x1="156.600000" y1="271.000000" x2="159.600000" y2="272.000000"  transform="rotate(0.000000,159.600000,272.000000)" style="stroke: black; stroke-width:0.25;"/>
<line x1="156.600000" y1="273.000000" x2="159.600000" y2="272.000000"  transform="rotate(0.000000,159.600000,272.000000)" style="stroke: black; stroke-width:0.25;"/>
<line x1="156.600000" y1="279.000000" x2="159.600000" y2="280.000000"  transform="rotate(0.000000,159.600000,280.000000)" style="stroke: black; stroke-width:0.25;"/>
<line x1="156.600000" y1="281.000000" x2="159.600000" y2="280.000000"  transform="rotate(0.000000,159.600000,280.000000)" style="stroke: black; stroke-width:0.25;"/>
<rect x="192.600000" y="265.000000" width="24.000000" height="24.000000" rx="0" ry="0" style="stroke:none;fill:#cccccc;"/>
<rect x="191.600000" y="264.000000" width="24.000000" height="24.000000" rx="0" ry="0" style="stroke:none;fill:#4B71A1;"/>
<text x="203.600000" y="278.000000" font-family="Arial" font-size="7" text-anchor="middle" fill="#FFFFFF">int</text>
<circle cx="193.600000" cy="266.000000" r="1"/>
<line x1="188.600000" y1="275.000000" x2="191.600000" y2="276.000000"  transform="rotate(0.000000,191.600000,276.000000)" style="stroke: black; stroke-width:0.25;"/>
<line x1="188.600000" y1="277.000000" x2="191.600000" y2="276.000000"  transform="rotate(0.000000,191.600000,276.000000)" style="stroke: black; stroke-width:0.25;"/>
<rect x="232.600000" y="233.000000" width="24.000000" height="24.000000" rx="0" ry="0" style="stroke:none;fill:#cccccc;"/>
<rect x="231.600000" y="232.000000" width="24.000000" height="24.000000" rx="0" ry="0" style="stroke:none;fill:#4B71A1;"/>
<text x="243.600000" y="246.000000" font-family="Arial" font-size="7" text-anchor="middle" fill="#FFFFFF">*</text>
<circle cx="233.600000" cy="234.000000" r="1"/>
<line x1="228.600000" y1="239.000000" x2="231.600000" y2="240.000000"  transform="rotate(0.000000,231.600000,240.000000)" style="stroke: black; stroke-width:0.25;"/>
<line x1="228.600000" y1="241.000000" x2="231.600000" y2="240.000000"  transform="rotate(0.000000,231.600000,240.000000)" style="stroke: black; stroke-width:0.25;"/>
<line x1="228.600000" y1="247.000000" x2="231.600000" y2="248.000000"  transform="rotate(0.000000,231.600000,248.000000)" style="stroke: black; stroke-width:0.25;"/>
<line x1="228.600000" y1="249.000000" x2="231.600000" y2="248.000000"  transform="rotate(0.000000,231.600000,248.000000)" style="stroke: black; stroke-width:0.25;"/>
<rect x="292.600000" y="165.000000" width="24.000000" height="24.000000" rx="0" ry="0" style="stroke:none;fill:#cccccc;"/>
<rect x="291.600000" y="164.000000" width="24.000000" height="24.000000" rx="0" ry="0" style="stroke:none;fill:#4B71A1;"/>
<text x="303.600000" y="178.000000" font-family="Arial" font-size="7" text-anchor="middle" fill="#FFFFFF">+</text>
<circle cx="293.600000" cy="166.000000" r="1"/>
<line x1="288.600000" y1="171.000000" x2="291.600000" y2="172.000000"  transform="rotate(0.000000,291.600000,172.000000)" style="stroke: black; stroke-width:0.25;"/>
<line x1="288.600000" y1="173.000000" x2="291.600000" y2="172.000000"  transform="rotate(0.000000,291.600000,172.000000)" style="stroke: black; stroke-width:0.25;"/>
<line x1="288.600000" y1="179.000000" x2="291.600000" y2="180.000000"  transform="rotate(0.000000,291.600000,180.000000)" style="stroke: black; stroke-width:0.25;"/>
<line x1="288.600000" y1="181.000000" x2="291.600000" y2="180.000000"  transform="rotate(0.000000,291.600000,180.000000)" style="stroke: black; stroke-width:0.25;"/>
<line x1="317.600000" y1="176.000000" x2="317.600000" y2="172.000000"  style="stroke:black; stroke-linecap:round; stroke-width:0.25;"/>
<line x1="317.600000" y1="172.000000" x2="321.600000" y2="172.000000"  style="stroke:black; stroke-linecap:round; stroke-width:0.25;"/>
<line x1="321.600000" y1="172.000000" x2="321.600000" y2="176.000000"  style="stroke:black; stroke-linecap:round; stroke-width:0.25;"/>
<line x1="15.000000" y1="15.000000" x2="15.000000" y2="329.000000"  style="stroke: black; stroke-linecap:round; stroke-width:0.25; stroke-dasharray:3,3;"/>
<line x1="15.000000" y1="329.000000" x2="348.600000" y2="329.000000"  style="stroke: black; stroke-linecap:round; stroke-width:0.25; stroke-dasharray:3,3;"/>
<line x1="348.600000" y1="329.000000" x2="348.600000" y2="15.000000"  style="stroke: black; stroke-linecap:round; stroke-width:0.25; stroke-dasharray:3,3;"/>
<line x1="15.000000" y1="15.000000" x2="20.000000" y2="15.000000"  style="stroke: black; stroke-linecap:round; stroke-width:0.25; stroke-dasharray:3,3;"/>
<line x1="119.975000" y1="15.000000" x2="348.600000" y2="15.000000"  style="stroke: black; stroke-linecap:round; stroke-width:0.25; stroke-dasharray:3,3;"/>
<text x="20.000000" y="17.000000" font-family="Arial" font-size="7">SH(((((_,1 : .../) : * : int)</text>
<line x1="350.600000" y1="171.000000" x2="353.600000" y2="172.000000"  transform="rotate(0.000000,353.600000,172.000000)" style="stroke: black; stroke-width:0.25;"/>
<line x1="350.600000" y1="173.000000" x2="353.600000" y2="172.000000"  transform="rotate(0.000000,353.600000,172.000000)" style="stroke: black; stroke-width:0.25;"/>
<line x1="28.000000" y1="24.000000" x2="28.000000" y2="24.000000"  style="stroke:black; stroke-linecap:round; stroke-width:0.25;"/>
<line x1="28.000000" y1="24.000000" x2="28.000000" y2="32.000000"  style="stroke:black; stroke-linecap:round; stroke-width:0.25;"/>
<line x1="28.000000" y1="32.000000" x2="28.000000" y2="32.000000"  style="stroke:black; stroke-linecap:round; stroke-width:0.25;"/>
<line x1="28.000000" y1="32.000000" x2="133.800000" y2="32.000000"  style="stroke:black; stroke-linecap:round; stroke-width:0.25;"/>
<line x1="69.800000" y1="148.000000" x2="73.800000" y2="148.000000"  style="stroke:black; stroke-linecap:round; stroke-width:0.25;"/>
<line x1="73.800000" y1="148.000000" x2="87.600000" y2="148.000000"  style="stroke:black; stroke-linecap:round; stroke-width:0.25;"/>
<line x1="83.600000" y1="116.000000" x2="87.600000" y2="116.000000"  style="stroke:black; stroke-linecap:round; stroke-width:0.25;"/>
<line x1="87.600000" y1="116.000000" x2="95.600000" y2="116.000000"  style="stroke:black; stroke-linecap:round; stroke-width:0.25;"/>
<line x1="87.600000" y1="136.000000" x2="95.600000" y2="136.000000"  style="stroke:black; stroke-linecap:round; stroke-width:0.25;"/>
<line x1="87.600000" y1="148.000000" x2="87.600000" y2="136.000000"  style="stroke:black; stroke-linecap:round; stroke-width:0.25;"/>
<line x1="87.600000" y1="148.000000" x2="87.600000" y2="148.000000"  style="stroke:black; stroke-linecap:round; stroke-width:0.25;"/>
<line x1="89.800000" y1="308.000000" x2="93.800000" y2="308.000000"  style="stroke:black; stroke-linecap:round; stroke-width:0.25;"/>
<line x1="93.800000" y1="308.000000" x2="107.600000" y2="308.000000"  style="stroke:black; stroke-linecap:round; stroke-width:0.25;"/>
<line x1="95.600000" y1="116.000000" x2="95.600000" y2="128.000000"  style="stroke:black; stroke-linecap:round; stroke-width:0.25;"/>
<line x1="95.600000" y1="128.000000" x2="95.600000" y2="128.000000"  style="stroke:black; stroke-linecap:round; stroke-width:0.25;"/>
<line x1="95.600000" y1="128.000000" x2="99.600000" y2="128.000000"  style="stroke:black; stroke-linecap:round; stroke-width:0.25;"/>
<line x1="95.600000" y1="136.000000" x2="99.600000" y2="136.000000"  style="stroke:black; stroke-linecap:round; stroke-width:0.25;"/>
<line x1="103.600000" y1="276.000000" x2="107.600000" y2="276.000000"  style="stroke:black; stroke-linecap:round; stroke-width:0.25;"/>
<line x1="107.600000" y1="276.000000" x2="115.600000" y2="276.000000"  style="stroke:black; stroke-linecap:round; stroke-width:0.25;"/>
<line x1="107.600000" y1="296.000000" x2="115.600000" y2="296.000000"  style="stroke:black; stroke-linecap:round; stroke-width:0.25;"/>
<line x1="107.600000" y1="308.000000" x2="107.600000" y2="296.000000"  style="stroke:black; stroke-linecap:round; stroke-width:0.25;"/>
<line x1="107.600000" y1="308.000000" x2="107.600000" y2="308.000000"  style="stroke:black; stroke-linecap:round; stroke-width:0.25;"/>
<line x1="110.050000" y1="84.000000" x2="114.050000" y2="84.000000"  style="stroke:black; stroke-linecap:round; stroke-width:0.25;"/>
<line x1="114.050000" y1="84.000000" x2="127.600000" y2="84.000000"  style="stroke:black; stroke-linecap:round; stroke-width:0.25;"/>
<line x1="115.600000" y1="276.000000" x2="115.600000" y2="288.000000"  style="stroke:black; stroke-linecap:round; stroke-width:0.25;"/>
<line x1="115.600000" y1="288.000000" x2="115.600000" y2="288.000000"  style="stroke:black; stroke-linecap:round; stroke-width:0.25;"/>
<line x1="115.600000" y1="288.000000" x2="119.600000" y2="288.000000"  style="stroke:black; stroke-linecap:round; stroke-width:0.25;"/>
<line x1="115.600000" y1="296.000000" x2="119.600000" y2="296.000000"  style="stroke:black; stroke-linecap:round; stroke-width:0.25;"/>
<line x1="117.150000" y1="212.000000" x2="121.150000" y2="212.000000"  style="stroke:black; stroke-linecap:round; stroke-width:0.25;"/>
<line x1="121.150000" y1="212.000000" x2="127.600000" y2="212.000000"  style="stroke:black; stroke-linecap:round; stroke-width:0.25;"/>
<line x1="123.600000" y1="132.000000" x2="127.600000" y2="132.000000"  style="stroke:black; stroke-linecap:round; stroke-width:0.25;"/>
<line x1="123.600000" y1="180.000000" x2="127.600000" y2="180.000000"  style="stroke:black; stroke-linecap:round; stroke-width:0.25;"/>
<line x1="125.800000" y1="52.000000" x2="129.800000" y2="52.000000"  style="stroke:black; stroke-linecap:round; stroke-width:0.25;"/>
<line x1="127.600000" y1="84.000000" x2="135.600000" y2="84.000000"  style="stroke:black; stroke-linecap:round; stroke-width:0.25;"/>
<line x1="127.600000" y1="120.000000" x2="135.600000" y2="120.000000"  style="stroke:black; stroke-linecap:round; stroke-width:0.25;"/>
<line x1="127.600000" y1="132.000000" x2="127.600000" y2="120.000000"  style="stroke:black; stroke-linecap:round; stroke-width:0.25;"/>
<line x1="127.600000" y1="132.000000" x2="127.600000" y2="132.000000"  style="stroke:black; stroke-linecap:round; stroke-width:0.25;"/>
<line x1="127.600000" y1="180.000000" x2="135.600000" y2="180.000000"  style="stroke:black; stroke-linecap:round; stroke-width:0.25;"/>
<line x1="127.600000" y1="200.000000" x2="135.600000" y2="200.000000"  style="stroke:black; stroke-linecap:round; stroke-width:0.25;"/>
<line x1="127.600000" y1="212.000000" x2="127.600000" y2="200.000000"  style="stroke:black; stroke-linecap:round; stroke-width:0.25;"/>
<line x1="127.600000" y1="212.000000" x2="127.600000" y2="212.000000"  style="stroke:black; stroke-linecap:round; stroke-width:0.25;"/>
<line x1="129.800000" y1="52.000000" x2="199.600000" y2="52.000000"  style="stroke:black; stroke-linecap:round; stroke-width:0.25;"/>
<line x1="130.050000" y1="244.000000" x2="134.050000" y2="244.000000"  style="stroke:black; stroke-linecap:round; stroke-width:0.25;"/>
<line x1="133.800000" y1="32.000000" x2="239.600000" y2="32.000000"  style="stroke:black; stroke-linecap:round; stroke-width:0.25;"/>
<line x1="134.050000" y1="244.000000" x2="147.600000" y2="244.000000"  style="stroke:black; stroke-linecap:round; stroke-width:0.25;"/>
<line x1="135.600000" y1="84.000000" x2="135.600000" y2="112.000000"  style="stroke:black; stroke-linecap:round; stroke-width:0.25;"/>
<line x1="135.600000" y1="112.000000" x2="135.600000" y2="112.000000"  style="stroke:black; stroke-linecap:round; stroke-width:0.25;"/>
<line x1="135.600000" y1="112.000000" x2="139.600000" y2="112.000000"  style="stroke:black; stroke-linecap:round; stroke-width:0.25;"/>
<line x1="135.600000" y1="120.000000" x2="139.600000" y2="120.000000"  style="stroke:black; stroke-linecap:round; stroke-width:0.25;"/>
<line x1="135.600000" y1="180.000000" x2="135.600000" y2="192.000000"  style="stroke:black; stroke-linecap:round; stroke-width:0.25;"/>
<line x1="135.600000" y1="192.000000" x2="135.600000" y2="192.000000"  style="stroke:black; stroke-linecap:round; stroke-width:0.25;"/>
<line x1="135.600000" y1="192.000000" x2="139.600000" y2="192.000000"  style="stroke:black; stroke-linecap:round; stroke-width:0.25;"/>
<line x1="135.600000" y1="200.000000" x2="139.600000" y2="200.000000"  style="stroke:black; stroke-linecap:round; stroke-width:0.25;"/>
<line x1="143.600000" y1="292.000000" x2="147.600000" y2="292.000000"  style="stroke:black; stroke-linecap:round; stroke-width:0.25;"/>
<line x1="147.600000" y1="280.000000" x2="155.600000" y2="280.000000"  style="stroke:black; stroke-linecap:round; stroke-width:0.25;"/>
<line x1="147.600000" y1="292.000000" x2="147.600000" y2="280.000000"  style="stroke:black; stroke-linecap:round; stroke-width:0.25;"/>
<line x1="147.600000" y1="292.000000" x2="147.600000" y2="292.000000"  style="stroke:black; stroke-linecap:round; stroke-width:0.25;"/>
<line x1="147.600000" y1="244.000000" x2="155.600000" y2="244.000000"  style="stroke:black; stroke-linecap:round; stroke-width:0.25;"/>
<line x1="155.600000" y1="272.000000" x2="159.600000" y2="272.000000"  style="stroke:black; stroke-linecap:round; stroke-width:0.25;"/>
<line x1="155.600000" y1="280.000000" x2="159.600000" y2="280.000000"  style="stroke:black; stroke-linecap:round; stroke-width:0.25;"/>
<line x1="155.600000" y1="244.000000" x2="155.600000" y2="272.000000"  style="stroke:black; stroke-linecap:round; stroke-width:0.25;"/>
<line x1="155.600000" y1="272.000000" x2="155.600000" y2="272.000000"  style="stroke:black; stroke-linecap:round; stroke-width:0.25;"/>
<line x1="163.600000" y1="116.000000" x2="167.600000" y2="116.000000"  style="stroke:black; stroke-linecap:round; stroke-width:0.25;"/>
<line x1="163.600000" y1="196.000000" x2="167.600000" y2="196.000000"  style="stroke:black; stroke-linecap:round; stroke-width:0.25;"/>
<line x1="167.600000" y1="116.000000" x2="167.600000" y2="116.000000"  style="stroke:black; stroke-linecap:round; stroke-width:0.25;"/>
<line x1="167.600000" y1="116.000000" x2="171.600000" y2="116.000000"  style="stroke:black; stroke-linecap:round; stroke-width:0.25;"/>
<line x1="167.600000" y1="196.000000" x2="167.600000" y2="196.000000"  style="stroke:black; stroke-linecap:round; stroke-width:0.25;"/>
<line x1="167.600000" y1="196.000000" x2="171.600000" y2="196.000000"  style="stroke:black; stroke-linecap:round; stroke-width:0.25;"/>
<line x1="173.800000" y1="24.000000" x2="28.000000" y2="24.000000"  style="stroke:black; stroke-linecap:round; stroke-width:0.25;"/>
<line x1="183.600000" y1="276.000000" x2="187.600000" y2="276.000000"  style="stroke:black; stroke-linecap:round; stroke-width:0.25;"/>
<line x1="187.600000" y1="276.000000" x2="187.600000" y2="276.000000"  style="stroke:black; stroke-linecap:round; stroke-width:0.25;"/>
<line x1="187.600000" y1="276.000000" x2="191.600000" y2="276.000000"  style="stroke:black; stroke-linecap:round; stroke-width:0.25;"/>
<line x1="195.600000" y1="116.000000" x2="199.600000" y2="116.000000"  style="stroke:black; stroke-linecap:round; stroke-width:0.25;"/>
<line x1="195.600000" y1="196.000000" x2="199.600000" y2="196.000000"  style="stroke:black; stroke-linecap:round; stroke-width:0.25;"/>
<line x1="199.600000" y1="104.000000" x2="207.600000" y2="104.000000"  style="stroke:black; stroke-linecap:round; stroke-width:0.25;"/>
<line x1="199.600000" y1="116.000000" x2="199.600000" y2="104.000000"  style="stroke:black; stroke-linecap:round; stroke-width:0.25;"/>
<line x1="199.600000" y1="116.000000" x2="199.600000" y2="116.000000"  style="stroke:black; stroke-linecap:round; stroke-width:0.25;"/>
<line x1="199.600000" y1="196.000000" x2="219.600000" y2="196.000000"  style="stroke:black; stroke-linecap:round; stroke-width:0.25;"/>
<line x1="199.600000" y1="52.000000" x2="207.600000" y2="52.000000"  style="stroke:black; stroke-linecap:round; stroke-width:0.25;"/>
<line x1="207.600000" y1="96.000000" x2="211.600000" y2="96.000000"  style="stroke:black; stroke-linecap:round; stroke-width:0.25;"/>
<line x1="207.600000" y1="104.000000" x2="211.600000" y2="104.000000"  style="stroke:black; stroke-linecap:round; stroke-width:0.25;"/>
<line x1="207.600000" y1="52.000000" x2="207.600000" y2="96.000000"  style="stroke:black; stroke-linecap:round; stroke-width:0.25;"/>
<line x1="207.600000" y1="96.000000" x2="207.600000" y2="96.000000"  style="stroke:black; stroke-linecap:round; stroke-width:0.25;"/>
<line x1="215.600000" y1="276.000000" x2="219.600000" y2="276.000000"  style="stroke:black; stroke-linecap:round; stroke-width:0.25;"/>
<line x1="219.600000" y1="196.000000" x2="227.600000" y2="196.000000"  style="stroke:black; stroke-linecap:round; stroke-width:0.25;"/>
<line x1="219.600000" y1="248.000000" x2="227.600000" y2="248.000000"  style="stroke:black; stroke-linecap:round; stroke-width:0.25;"/>
<line x1="219.600000" y1="276.000000" x2="219.600000" y2="248.000000"  style="stroke:black; stroke-linecap:round; stroke-width:0.25;"/>
<line x1="219.600000" y1="276.000000" x2="219.600000" y2="276.000000"  style="stroke:black; stroke-linecap:round; stroke-width:0.25;"/>
<line x1="227.600000" y1="196.000000" x2="227.600000" y2="240.000000"  style="stroke:black; stroke-linecap:round; stroke-width:0.25;"/>
<line x1="227.600000" y1="240.000000" x2="227.600000" y2="240.000000"  style="stroke:black; stroke-linecap:round; stroke-width:0.25;"/>
<line x1="227.600000" y1="240.000000" x2="231.600000" y2="240.000000"  style="stroke:black; stroke-linecap:round; stroke-width:0.25;"/>
<line x1="227.600000" y1="248.000000" x2="231.600000" y2="248.000000"  style="stroke:black; stroke-linecap:round; stroke-width:0.25;"/>
<line x1="235.600000" y1="100.000000" x2="239.600000" y2="100.000000"  style="stroke:black; stroke-linecap:round; stroke-width:0.25;"/>
<line x1="239.600000" y1="100.000000" x2="247.600000" y2="100.000000"  style="stroke:black; stroke-linecap:round; stroke-width:0.25;"/>
<line x1="239.600000" y1="32.000000" x2="247.600000" y2="32.000000"  style="stroke:black; stroke-linecap:round; stroke-width:0.25;"/>
<line x1="247.600000" y1="92.000000" x2="251.600000" y2="92.000000"  style="stroke:black; stroke-linecap:round; stroke-width:0.25;"/>
<line x1="247.600000" y1="100.000000" x2="251.600000" y2="100.000000"  style="stroke:black; stroke-linecap:round; stroke-width:0.25;"/>
<line x1="247.600000" y1="32.000000" x2="247.600000" y2="92.000000"  style="stroke:black; stroke-linecap:round; stroke-width:0.25;"/>
<line x1="247.600000" y1="92.000000" x2="247.600000" y2="92.000000"  style="stroke:black; stroke-linecap:round; stroke-width:0.25;"/>
<line x1="255.600000" y1="244.000000" x2="259.600000" y2="244.000000"  style="stroke:black; stroke-linecap:round; stroke-width:0.25;"/>
<line x1="259.600000" y1="244.000000" x2="279.600000" y2="244.000000"  style="stroke:black; stroke-linecap:round; stroke-width:0.25;"/>
<line x1="275.600000" y1="96.000000" x2="279.600000" y2="96.000000"  style="stroke:black; stroke-linecap:round; stroke-width:0.25;"/>
<line x1="279.600000" y1="96.000000" x2="287.600000" y2="96.000000"  style="stroke:black; stroke-linecap:round; stroke-width:0.25;"/>
<line x1="279.600000" y1="180.000000" x2="287.600000" y2="180.000000"  style="stroke:black; stroke-linecap:round; stroke-width:0.25;"/>
<line x1="279.600000" y1="244.000000" x2="279.600000" y2="180.000000"  style="stroke:black; stroke-linecap:round; stroke-width:0.25;"/>
<line x1="279.600000" y1="244.000000" x2="279.600000" y2="244.000000"  style="stroke:black; stroke-linecap:round; stroke-width:0.25;"/>
<line x1="287.600000" y1="96.000000" x2="287.600000" y2="172.000000"  style="stroke:black; stroke-linecap:round; stroke-width:0.25;"/>
<line x1="287.600000" y1="172.000000" x2="287.600000" y2="172.000000"  style="stroke:black; stroke-linecap:round; stroke-width:0.25;"/>
<line x1="287.600000" y1="172.000000" x2="291.600000" y2="172.000000"  style="stroke:black; stroke-linecap:round; stroke-width:0.25;"/>
<line x1="287.600000" y1="180.000000" x2="291.600000" y2="180.000000"  style="stroke:black; stroke-linecap:round; stroke-width:0.25;"/>
<line x1="315.600000" y1="176.000000" x2="319.600000" y2="176.000000"  style="stroke:black; stroke-linecap:round; stroke-width:0.25;"/>
<line x1="319.600000" y1="24.000000" x2="173.800000" y2="24.000000"  style="stroke:black; stroke-linecap:round; stroke-width:0.25;"/>
<line x1="319.600000" y1="24.000000" x2="319.600000" y2="24.000000"  style="stroke:black; stroke-linecap:round; stroke-width:0.25;"/>
<line x1="319.600000" y1="172.000000" x2="319.600000" y2="24.000000"  style="stroke:black; stroke-linecap:round; stroke-width:0.25;"/>
<line x1="319.600000" y1="176.000000" x2="321.600000" y2="176.000000"  style="stroke:black; stroke-linecap:round; stroke-width:0.25;"/>
<line x1="321.600000" y1="176.000000" x2="327.600000" y2="176.000000"  style="stroke:black; stroke-linecap:round; stroke-width:0.25;"/>
<line x1="327.600000" y1="172.000000" x2="335.600000" y2="172.000000"  style="stroke:black; stroke-linecap:round; stroke-width:0.25;"/>
<line x1="327.600000" y1="176.000000" x2="327.600000" y2="172.000000"  style="stroke:black; stroke-linecap:round; stroke-width:0.25;"/>
<line x1="327.600000" y1="176.000000" x2="327.600000" y2="176.000000"  style="stroke:black; stroke-linecap:round; stroke-width:0.25;"/>
<line x1="335.600000" y1="172.000000" x2="339.600000" y2="172.000000"  style="stroke:black; stroke-linecap:round; stroke-width:0.25;"/>
<line x1="339.600000" y1="172.000000" x2="343.600000" y2="172.000000"  style="stroke:black; stroke-linecap:round; stroke-width:0.25;"/>
<line x1="343.600000" y1="172.000000" x2="353.600000" y2="172.000000"  style="stroke:black; stroke-linecap:round; stroke-width:0.25;"/>
</svg>
