<?xml version="1.0"?>
<svg xmlns="http://www.w3.org/2000/svg" xmlns:xlink="http://www.w3.org/1999/xlink" viewBox="0 0 772.900000 100.000000" width="386.450000mm" height="50.000000mm" version="1.1">
<defs>
   <filter id="filter" filterRes="18" x="0" y="0">
     <feGaussianBlur in="SourceGraphic" stdDeviation="1.55" result="blur"/>
     <feOffset in="blur" dx="3" dy="3"/>
   </filter>
</defs>
<a xlink:href="Febaroute2-0x3318980.svg">
<rect x="1.000000" y="1.000000" width="771.900000" height="99.000000" rx="0.1" ry="0.1" style="stroke:none;fill:#aaaaaa;;filter:url(#filter);"/>
<rect x="0.000000" y="0.000000" width="771.900000" height="99.000000" rx="0" ry="0" style="stroke:none;fill:#ffffff;"/>
</a>
<text x="10.000000" y="7.000000" font-family="Arial" font-size="7"></text>
<rect x="51.000000" y="43.000000" width="24.000000" height="24.000000" rx="0.1" ry="0.1" style="stroke:none;fill:#aaaaaa;;filter:url(#filter);"/>
<rect x="50.000000" y="42.000000" width="24.000000" height="24.000000" rx="0" ry="0" style="stroke:none;fill:#f44800;"/>
<text x="62.000000" y="56.000000" font-family="Arial" font-size="7" text-anchor="middle" fill="#FFFFFF">0</text>
<circle cx="52.000000" cy="44.000000" r="1"/>
<line x1="41.000000" y1="33.000000" x2="41.000000" y2="75.000000"  style="stroke: black; stroke-linecap:round; stroke-width:0.25; stroke-dasharray:3,3;"/>
<line x1="41.000000" y1="75.000000" x2="83.000000" y2="75.000000"  style="stroke: black; stroke-linecap:round; stroke-width:0.25; stroke-dasharray:3,3;"/>
<line x1="83.000000" y1="75.000000" x2="83.000000" y2="33.000000"  style="stroke: black; stroke-linecap:round; stroke-width:0.25; stroke-dasharray:3,3;"/>
<line x1="41.000000" y1="33.000000" x2="46.000000" y2="33.000000"  style="stroke: black; stroke-linecap:round; stroke-width:0.25; stroke-dasharray:3,3;"/>
<line x1="55.675000" y1="33.000000" x2="83.000000" y2="33.000000"  style="stroke: black; stroke-linecap:round; stroke-width:0.25; stroke-dasharray:3,3;"/>
<text x="46.000000" y="35.000000" font-family="Arial" font-size="7">A</text>
<a xlink:href="Del-0x3317e90.svg">
<rect x="101.000000" y="39.000000" width="25.800000" height="24.000000" rx="0.1" ry="0.1" style="stroke:none;fill:#aaaaaa;;filter:url(#filter);"/>
<rect x="100.000000" y="38.000000" width="25.800000" height="24.000000" rx="0" ry="0" style="stroke:none;fill:#003366;"/>
</a>
<a xlink:href="Del-0x3317e90.svg">
<text x="112.900000" y="52.000000" font-family="Arial" font-size="7" text-anchor="middle" fill="#FFFFFF">Del(1)</text>
</a>
<circle cx="102.000000" cy="40.000000" r="1"/>
<line x1="97.000000" y1="45.000000" x2="100.000000" y2="46.000000"  transform="rotate(0.000000,100.000000,46.000000)" style="stroke: black; stroke-width:0.25;"/>
<line x1="97.000000" y1="47.000000" x2="100.000000" y2="46.000000"  transform="rotate(0.000000,100.000000,46.000000)" style="stroke: black; stroke-width:0.25;"/>
<line x1="97.000000" y1="53.000000" x2="100.000000" y2="54.000000"  transform="rotate(0.000000,100.000000,54.000000)" style="stroke: black; stroke-width:0.25;"/>
<line x1="97.000000" y1="55.000000" x2="100.000000" y2="54.000000"  transform="rotate(0.000000,100.000000,54.000000)" style="stroke: black; stroke-width:0.25;"/>
<a xlink:href="Del-0x3315e40.svg">
<rect x="134.800000" y="39.000000" width="25.800000" height="24.000000" rx="0.1" ry="0.1" style="stroke:none;fill:#aaaaaa;;filter:url(#filter);"/>
<rect x="133.800000" y="38.000000" width="25.800000" height="24.000000" rx="0" ry="0" style="stroke:none;fill:#003366;"/>
</a>
<a xlink:href="Del-0x3315e40.svg">
<text x="146.700000" y="52.000000" font-family="Arial" font-size="7" text-anchor="middle" fill="#FFFFFF">Del(2)</text>
</a>
<circle cx="135.800000" cy="40.000000" r="1"/>
<line x1="130.800000" y1="45.000000" x2="133.800000" y2="46.000000"  transform="rotate(0.000000,133.800000,46.000000)" style="stroke: black; stroke-width:0.25;"/>
<line x1="130.800000" y1="47.000000" x2="133.800000" y2="46.000000"  transform="rotate(0.000000,133.800000,46.000000)" style="stroke: black; stroke-width:0.25;"/>
<line x1="130.800000" y1="53.000000" x2="133.800000" y2="54.000000"  transform="rotate(0.000000,133.800000,54.000000)" style="stroke: black; stroke-width:0.25;"/>
<line x1="130.800000" y1="55.000000" x2="133.800000" y2="54.000000"  transform="rotate(0.000000,133.800000,54.000000)" style="stroke: black; stroke-width:0.25;"/>
<a xlink:href="Del-0x3313d10.svg">
<rect x="168.600000" y="39.000000" width="25.800000" height="24.000000" rx="0.1" ry="0.1" style="stroke:none;fill:#aaaaaa;;filter:url(#filter);"/>
<rect x="167.600000" y="38.000000" width="25.800000" height="24.000000" rx="0" ry="0" style="stroke:none;fill:#003366;"/>
</a>
<a xlink:href="Del-0x3313d10.svg">
<text x="180.500000" y="52.000000" font-family="Arial" font-size="7" text-anchor="middle" fill="#FFFFFF">Del(5)</text>
</a>
<circle cx="169.600000" cy="40.000000" r="1"/>
<line x1="164.600000" y1="45.000000" x2="167.600000" y2="46.000000"  transform="rotate(0.000000,167.600000,46.000000)" style="stroke: black; stroke-width:0.25;"/>
<line x1="164.600000" y1="47.000000" x2="167.600000" y2="46.000000"  transform="rotate(0.000000,167.600000,46.000000)" style="stroke: black; stroke-width:0.25;"/>
<line x1="164.600000" y1="53.000000" x2="167.600000" y2="54.000000"  transform="rotate(0.000000,167.600000,54.000000)" style="stroke: black; stroke-width:0.25;"/>
<line x1="164.600000" y1="55.000000" x2="167.600000" y2="54.000000"  transform="rotate(0.000000,167.600000,54.000000)" style="stroke: black; stroke-width:0.25;"/>
<a xlink:href="Del-0x3311cc0.svg">
<rect x="202.400000" y="39.000000" width="25.800000" height="24.000000" rx="0.1" ry="0.1" style="stroke:none;fill:#aaaaaa;;filter:url(#filter);"/>
<rect x="201.400000" y="38.000000" width="25.800000" height="24.000000" rx="0" ry="0" style="stroke:none;fill:#003366;"/>
</a>
<a xlink:href="Del-0x3311cc0.svg">
<text x="214.300000" y="52.000000" font-family="Arial" font-size="7" text-anchor="middle" fill="#FFFFFF">Del(7)</text>
</a>
<circle cx="203.400000" cy="40.000000" r="1"/>
<line x1="198.400000" y1="45.000000" x2="201.400000" y2="46.000000"  transform="rotate(0.000000,201.400000,46.000000)" style="stroke: black; stroke-width:0.25;"/>
<line x1="198.400000" y1="47.000000" x2="201.400000" y2="46.000000"  transform="rotate(0.000000,201.400000,46.000000)" style="stroke: black; stroke-width:0.25;"/>
<line x1="198.400000" y1="53.000000" x2="201.400000" y2="54.000000"  transform="rotate(0.000000,201.400000,54.000000)" style="stroke: black; stroke-width:0.25;"/>
<line x1="198.400000" y1="55.000000" x2="201.400000" y2="54.000000"  transform="rotate(0.000000,201.400000,54.000000)" style="stroke: black; stroke-width:0.25;"/>
<a xlink:href="Del-0x330fb90.svg">
<rect x="236.200000" y="39.000000" width="38.700000" height="24.000000" rx="0.1" ry="0.1" style="stroke:none;fill:#aaaaaa;;filter:url(#filter);"/>
<rect x="235.200000" y="38.000000" width="38.700000" height="24.000000" rx="0" ry="0" style="stroke:none;fill:#003366;"/>
</a>
<a xlink:href="Del-0x330fb90.svg">
<text x="254.550000" y="52.000000" font-family="Arial" font-size="7" text-anchor="middle" fill="#FFFFFF">Del(23)</text>
</a>
<circle cx="237.200000" cy="40.000000" r="1"/>
<line x1="232.200000" y1="45.000000" x2="235.200000" y2="46.000000"  transform="rotate(0.000000,235.200000,46.000000)" style="stroke: black; stroke-width:0.25;"/>
<line x1="232.200000" y1="47.000000" x2="235.200000" y2="46.000000"  transform="rotate(0.000000,235.200000,46.000000)" style="stroke: black; stroke-width:0.25;"/>
<line x1="232.200000" y1="53.000000" x2="235.200000" y2="54.000000"  transform="rotate(0.000000,235.200000,54.000000)" style="stroke: black; stroke-width:0.25;"/>
<line x1="232.200000" y1="55.000000" x2="235.200000" y2="54.000000"  transform="rotate(0.000000,235.200000,54.000000)" style="stroke: black; stroke-width:0.25;"/>
<a xlink:href="Del-0x330da60.svg">
<rect x="282.900000" y="39.000000" width="38.700000" height="24.000000" rx="0.1" ry="0.1" style="stroke:none;fill:#aaaaaa;;filter:url(#filter);"/>
<rect x="281.900000" y="38.000000" width="38.700000" height="24.000000" rx="0" ry="0" style="stroke:none;fill:#003366;"/>
</a>
<a xlink:href="Del-0x330da60.svg">
<text x="301.250000" y="52.000000" font-family="Arial" font-size="7" text-anchor="middle" fill="#FFFFFF">Del(54)</text>
</a>
<circle cx="283.900000" cy="40.000000" r="1"/>
<line x1="278.900000" y1="45.000000" x2="281.900000" y2="46.000000"  transform="rotate(0.000000,281.900000,46.000000)" style="stroke: black; stroke-width:0.25;"/>
<line x1="278.900000" y1="47.000000" x2="281.900000" y2="46.000000"  transform="rotate(0.000000,281.900000,46.000000)" style="stroke: black; stroke-width:0.25;"/>
<line x1="278.900000" y1="53.000000" x2="281.900000" y2="54.000000"  transform="rotate(0.000000,281.900000,54.000000)" style="stroke: black; stroke-width:0.25;"/>
<line x1="278.900000" y1="55.000000" x2="281.900000" y2="54.000000"  transform="rotate(0.000000,281.900000,54.000000)" style="stroke: black; stroke-width:0.25;"/>
<a xlink:href="Del-0x330b930.svg">
<rect x="329.600000" y="39.000000" width="38.700000" height="24.000000" rx="0.1" ry="0.1" style="stroke:none;fill:#aaaaaa;;filter:url(#filter);"/>
<rect x="328.600000" y="38.000000" width="38.700000" height="24.000000" rx="0" ry="0" style="stroke:none;fill:#003366;"/>
</a>
<a xlink:href="Del-0x330b930.svg">
<text x="347.950000" y="52.000000" font-family="Arial" font-size="7" text-anchor="middle" fill="#FFFFFF">Del(79)</text>
</a>
<circle cx="330.600000" cy="40.000000" r="1"/>
<line x1="325.600000" y1="45.000000" x2="328.600000" y2="46.000000"  transform="rotate(0.000000,328.600000,46.000000)" style="stroke: black; stroke-width:0.25;"/>
<line x1="325.600000" y1="47.000000" x2="328.600000" y2="46.000000"  transform="rotate(0.000000,328.600000,46.000000)" style="stroke: black; stroke-width:0.25;"/>
<line x1="325.600000" y1="53.000000" x2="328.600000" y2="54.000000"  transform="rotate(0.000000,328.600000,54.000000)" style="stroke: black; stroke-width:0.25;"/>
<line x1="325.600000" y1="55.000000" x2="328.600000" y2="54.000000"  transform="rotate(0.000000,328.600000,54.000000)" style="stroke: black; stroke-width:0.25;"/>
<a xlink:href="Del-0x3309830.svg">
<rect x="376.300000" y="39.000000" width="38.700000" height="24.000000" rx="0.1" ry="0.1" style="stroke:none;fill:#aaaaaa;;filter:url(#filter);"/>
<rect x="375.300000" y="38.000000" width="38.700000" height="24.000000" rx="0" ry="0" style="stroke:none;fill:#003366;"/>
</a>
<a xlink:href="Del-0x3309830.svg">
<text x="394.650000" y="52.000000" font-family="Arial" font-size="7" text-anchor="middle" fill="#FFFFFF">Del(220)</text>
</a>
<circle cx="377.300000" cy="40.000000" r="1"/>
<line x1="372.300000" y1="45.000000" x2="375.300000" y2="46.000000"  transform="rotate(0.000000,375.300000,46.000000)" style="stroke: black; stroke-width:0.25;"/>
<line x1="372.300000" y1="47.000000" x2="375.300000" y2="46.000000"  transform="rotate(0.000000,375.300000,46.000000)" style="stroke: black; stroke-width:0.25;"/>
<line x1="372.300000" y1="53.000000" x2="375.300000" y2="54.000000"  transform="rotate(0.000000,375.300000,54.000000)" style="stroke: black; stroke-width:0.25;"/>
<line x1="372.300000" y1="55.000000" x2="375.300000" y2="54.000000"  transform="rotate(0.000000,375.300000,54.000000)" style="stroke: black; stroke-width:0.25;"/>
<a xlink:href="Del-0x3307710.svg">
<rect x="423.000000" y="39.000000" width="38.700000" height="24.000000" rx="0.1" ry="0.1" style="stroke:none;fill:#aaaaaa;;filter:url(#filter);"/>
<rect x="422.000000" y="38.000000" width="38.700000" height="24.000000" rx="0" ry="0" style="stroke:none;fill:#003366;"/>
</a>
<a xlink:href="Del-0x3307710.svg">
<text x="441.350000" y="52.000000" font-family="Arial" font-size="7" text-anchor="middle" fill="#FFFFFF">Del(340)</text>
</a>
<circle cx="424.000000" cy="40.000000" r="1"/>
<line x1="419.000000" y1="45.000000" x2="422.000000" y2="46.000000"  transform="rotate(0.000000,422.000000,46.000000)" style="stroke: black; stroke-width:0.25;"/>
<line x1="419.000000" y1="47.000000" x2="422.000000" y2="46.000000"  transform="rotate(0.000000,422.000000,46.000000)" style="stroke: black; stroke-width:0.25;"/>
<line x1="419.000000" y1="53.000000" x2="422.000000" y2="54.000000"  transform="rotate(0.000000,422.000000,54.000000)" style="stroke: black; stroke-width:0.25;"/>
<line x1="419.000000" y1="55.000000" x2="422.000000" y2="54.000000"  transform="rotate(0.000000,422.000000,54.000000)" style="stroke: black; stroke-width:0.25;"/>
<a xlink:href="Del-0x33055f0.svg">
<rect x="469.700000" y="39.000000" width="38.700000" height="24.000000" rx="0.1" ry="0.1" style="stroke:none;fill:#aaaaaa;;filter:url(#filter);"/>
<rect x="468.700000" y="38.000000" width="38.700000" height="24.000000" rx="0" ry="0" style="stroke:none;fill:#003366;"/>
</a>
<a xlink:href="Del-0x33055f0.svg">
<text x="488.050000" y="52.000000" font-family="Arial" font-size="7" text-anchor="middle" fill="#FFFFFF">Del(454)</text>
</a>
<circle cx="470.700000" cy="40.000000" r="1"/>
<line x1="465.700000" y1="45.000000" x2="468.700000" y2="46.000000"  transform="rotate(0.000000,468.700000,46.000000)" style="stroke: black; stroke-width:0.25;"/>
<line x1="465.700000" y1="47.000000" x2="468.700000" y2="46.000000"  transform="rotate(0.000000,468.700000,46.000000)" style="stroke: black; stroke-width:0.25;"/>
<line x1="465.700000" y1="53.000000" x2="468.700000" y2="54.000000"  transform="rotate(0.000000,468.700000,54.000000)" style="stroke: black; stroke-width:0.25;"/>
<line x1="465.700000" y1="55.000000" x2="468.700000" y2="54.000000"  transform="rotate(0.000000,468.700000,54.000000)" style="stroke: black; stroke-width:0.25;"/>
<a xlink:href="Del-0x33034d0.svg">
<rect x="516.400000" y="39.000000" width="38.700000" height="24.000000" rx="0.1" ry="0.1" style="stroke:none;fill:#aaaaaa;;filter:url(#filter);"/>
<rect x="515.400000" y="38.000000" width="38.700000" height="24.000000" rx="0" ry="0" style="stroke:none;fill:#003366;"/>
</a>
<a xlink:href="Del-0x33034d0.svg">
<text x="534.750000" y="52.000000" font-family="Arial" font-size="7" text-anchor="middle" fill="#FFFFFF">Del(623)</text>
</a>
<circle cx="517.400000" cy="40.000000" r="1"/>
<line x1="512.400000" y1="45.000000" x2="515.400000" y2="46.000000"  transform="rotate(0.000000,515.400000,46.000000)" style="stroke: black; stroke-width:0.25;"/>
<line x1="512.400000" y1="47.000000" x2="515.400000" y2="46.000000"  transform="rotate(0.000000,515.400000,46.000000)" style="stroke: black; stroke-width:0.25;"/>
<line x1="512.400000" y1="53.000000" x2="515.400000" y2="54.000000"  transform="rotate(0.000000,515.400000,54.000000)" style="stroke: black; stroke-width:0.25;"/>
<line x1="512.400000" y1="55.000000" x2="515.400000" y2="54.000000"  transform="rotate(0.000000,515.400000,54.000000)" style="stroke: black; stroke-width:0.25;"/>
<a xlink:href="Del-0x33013b0.svg">
<rect x="563.100000" y="39.000000" width="38.700000" height="24.000000" rx="0.1" ry="0.1" style="stroke:none;fill:#aaaaaa;;filter:url(#filter);"/>
<rect x="562.100000" y="38.000000" width="38.700000" height="24.000000" rx="0" ry="0" style="stroke:none;fill:#003366;"/>
</a>
<a xlink:href="Del-0x33013b0.svg">
<text x="581.450000" y="52.000000" font-family="Arial" font-size="7" text-anchor="middle" fill="#FFFFFF">Del(845)</text>
</a>
<circle cx="564.100000" cy="40.000000" r="1"/>
<line x1="559.100000" y1="45.000000" x2="562.100000" y2="46.000000"  transform="rotate(0.000000,562.100000,46.000000)" style="stroke: black; stroke-width:0.25;"/>
<line x1="559.100000" y1="47.000000" x2="562.100000" y2="46.000000"  transform="rotate(0.000000,562.100000,46.000000)" style="stroke: black; stroke-width:0.25;"/>
<line x1="559.100000" y1="53.000000" x2="562.100000" y2="54.000000"  transform="rotate(0.000000,562.100000,54.000000)" style="stroke: black; stroke-width:0.25;"/>
<line x1="559.100000" y1="55.000000" x2="562.100000" y2="54.000000"  transform="rotate(0.000000,562.100000,54.000000)" style="stroke: black; stroke-width:0.25;"/>
<a xlink:href="Del-0x32ff290.svg">
<rect x="609.800000" y="39.000000" width="38.700000" height="24.000000" rx="0.1" ry="0.1" style="stroke:none;fill:#aaaaaa;;filter:url(#filter);"/>
<rect x="608.800000" y="38.000000" width="38.700000" height="24.000000" rx="0" ry="0" style="stroke:none;fill:#003366;"/>
</a>
<a xlink:href="Del-0x32ff290.svg">
<text x="628.150000" y="52.000000" font-family="Arial" font-size="7" text-anchor="middle" fill="#FFFFFF">Del(1304)</text>
</a>
<circle cx="610.800000" cy="40.000000" r="1"/>
<line x1="605.800000" y1="45.000000" x2="608.800000" y2="46.000000"  transform="rotate(0.000000,608.800000,46.000000)" style="stroke: black; stroke-width:0.25;"/>
<line x1="605.800000" y1="47.000000" x2="608.800000" y2="46.000000"  transform="rotate(0.000000,608.800000,46.000000)" style="stroke: black; stroke-width:0.25;"/>
<line x1="605.800000" y1="53.000000" x2="608.800000" y2="54.000000"  transform="rotate(0.000000,608.800000,54.000000)" style="stroke: black; stroke-width:0.25;"/>
<line x1="605.800000" y1="55.000000" x2="608.800000" y2="54.000000"  transform="rotate(0.000000,608.800000,54.000000)" style="stroke: black; stroke-width:0.25;"/>
<a xlink:href="Del-0x32fd140.svg">
<rect x="656.500000" y="39.000000" width="38.700000" height="24.000000" rx="0.1" ry="0.1" style="stroke:none;fill:#aaaaaa;;filter:url(#filter);"/>
<rect x="655.500000" y="38.000000" width="38.700000" height="24.000000" rx="0" ry="0" style="stroke:none;fill:#003366;"/>
</a>
<a xlink:href="Del-0x32fd140.svg">
<text x="674.850000" y="52.000000" font-family="Arial" font-size="7" text-anchor="middle" fill="#FFFFFF">Del(1532)</text>
</a>
<circle cx="657.500000" cy="40.000000" r="1"/>
<line x1="652.500000" y1="45.000000" x2="655.500000" y2="46.000000"  transform="rotate(0.000000,655.500000,46.000000)" style="stroke: black; stroke-width:0.25;"/>
<line x1="652.500000" y1="47.000000" x2="655.500000" y2="46.000000"  transform="rotate(0.000000,655.500000,46.000000)" style="stroke: black; stroke-width:0.25;"/>
<line x1="652.500000" y1="53.000000" x2="655.500000" y2="54.000000"  transform="rotate(0.000000,655.500000,54.000000)" style="stroke: black; stroke-width:0.25;"/>
<line x1="652.500000" y1="55.000000" x2="655.500000" y2="54.000000"  transform="rotate(0.000000,655.500000,54.000000)" style="stroke: black; stroke-width:0.25;"/>
<a xlink:href="Del-0x32fb0f0.svg">
<rect x="703.200000" y="39.000000" width="38.700000" height="24.000000" rx="0.1" ry="0.1" style="stroke:none;fill:#aaaaaa;;filter:url(#filter);"/>
<rect x="702.200000" y="38.000000" width="38.700000" height="24.000000" rx="0" ry="0" style="stroke:none;fill:#003366;"/>
</a>
<a xlink:href="Del-0x32fb0f0.svg">
<text x="721.550000" y="52.000000" font-family="Arial" font-size="7" text-anchor="middle" fill="#FFFFFF">Del(2204)</text>
</a>
<circle cx="704.200000" cy="40.000000" r="1"/>
<line x1="699.200000" y1="45.000000" x2="702.200000" y2="46.000000"  transform="rotate(0.000000,702.200000,46.000000)" style="stroke: black; stroke-width:0.25;"/>
<line x1="699.200000" y1="47.000000" x2="702.200000" y2="46.000000"  transform="rotate(0.000000,702.200000,46.000000)" style="stroke: black; stroke-width:0.25;"/>
<line x1="699.200000" y1="53.000000" x2="702.200000" y2="54.000000"  transform="rotate(0.000000,702.200000,54.000000)" style="stroke: black; stroke-width:0.25;"/>
<line x1="699.200000" y1="55.000000" x2="702.200000" y2="54.000000"  transform="rotate(0.000000,702.200000,54.000000)" style="stroke: black; stroke-width:0.25;"/>
<line x1="15.000000" y1="15.000000" x2="15.000000" y2="85.000000"  style="stroke: black; stroke-linecap:round; stroke-width:0.25; stroke-dasharray:3,3;"/>
<line x1="15.000000" y1="85.000000" x2="757.900000" y2="85.000000"  style="stroke: black; stroke-linecap:round; stroke-width:0.25; stroke-dasharray:3,3;"/>
<line x1="757.900000" y1="85.000000" x2="757.900000" y2="15.000000"  style="stroke: black; stroke-linecap:round; stroke-width:0.25; stroke-dasharray:3,3;"/>
<line x1="15.000000" y1="15.000000" x2="20.000000" y2="15.000000"  style="stroke: black; stroke-linecap:round; stroke-width:0.25; stroke-dasharray:3,3;"/>
<line x1="42.575000" y1="15.000000" x2="757.900000" y2="15.000000"  style="stroke: black; stroke-linecap:round; stroke-width:0.25; stroke-dasharray:3,3;"/>
<text x="20.000000" y="17.000000" font-family="Arial" font-size="7">Early</text>
<line x1="759.900000" y1="45.000000" x2="762.900000" y2="46.000000"  transform="rotate(0.000000,762.900000,46.000000)" style="stroke: black; stroke-width:0.25;"/>
<line x1="759.900000" y1="47.000000" x2="762.900000" y2="46.000000"  transform="rotate(0.000000,762.900000,46.000000)" style="stroke: black; stroke-width:0.25;"/>
<line x1="759.900000" y1="53.000000" x2="762.900000" y2="54.000000"  transform="rotate(0.000000,762.900000,54.000000)" style="stroke: black; stroke-width:0.25;"/>
<line x1="759.900000" y1="55.000000" x2="762.900000" y2="54.000000"  transform="rotate(0.000000,762.900000,54.000000)" style="stroke: black; stroke-width:0.25;"/>
<line x1="10.000000" y1="50.000000" x2="20.000000" y2="50.000000"  style="stroke:black; stroke-linecap:round; stroke-width:0.25;"/>
<line x1="20.000000" y1="50.000000" x2="24.000000" y2="50.000000"  style="stroke:black; stroke-linecap:round; stroke-width:0.25;"/>
<line x1="24.000000" y1="50.000000" x2="28.000000" y2="50.000000"  style="stroke:black; stroke-linecap:round; stroke-width:0.25;"/>
<line x1="28.000000" y1="24.000000" x2="36.000000" y2="24.000000"  style="stroke:black; stroke-linecap:round; stroke-width:0.25;"/>
<line x1="28.000000" y1="50.000000" x2="28.000000" y2="24.000000"  style="stroke:black; stroke-linecap:round; stroke-width:0.25;"/>
<line x1="28.000000" y1="50.000000" x2="28.000000" y2="50.000000"  style="stroke:black; stroke-linecap:round; stroke-width:0.25;"/>
<line x1="36.000000" y1="24.000000" x2="62.000000" y2="24.000000"  style="stroke:black; stroke-linecap:round; stroke-width:0.25;"/>
<line x1="62.000000" y1="24.000000" x2="88.000000" y2="24.000000"  style="stroke:black; stroke-linecap:round; stroke-width:0.25;"/>
<line x1="74.000000" y1="54.000000" x2="78.000000" y2="54.000000"  style="stroke:black; stroke-linecap:round; stroke-width:0.25;"/>
<line x1="78.000000" y1="54.000000" x2="88.000000" y2="54.000000"  style="stroke:black; stroke-linecap:round; stroke-width:0.25;"/>
<line x1="88.000000" y1="24.000000" x2="96.000000" y2="24.000000"  style="stroke:black; stroke-linecap:round; stroke-width:0.25;"/>
<line x1="88.000000" y1="54.000000" x2="96.000000" y2="54.000000"  style="stroke:black; stroke-linecap:round; stroke-width:0.25;"/>
<line x1="96.000000" y1="24.000000" x2="96.000000" y2="46.000000"  style="stroke:black; stroke-linecap:round; stroke-width:0.25;"/>
<line x1="96.000000" y1="46.000000" x2="96.000000" y2="46.000000"  style="stroke:black; stroke-linecap:round; stroke-width:0.25;"/>
<line x1="96.000000" y1="46.000000" x2="100.000000" y2="46.000000"  style="stroke:black; stroke-linecap:round; stroke-width:0.25;"/>
<line x1="96.000000" y1="54.000000" x2="100.000000" y2="54.000000"  style="stroke:black; stroke-linecap:round; stroke-width:0.25;"/>
<line x1="125.800000" y1="46.000000" x2="129.800000" y2="46.000000"  style="stroke:black; stroke-linecap:round; stroke-width:0.25;"/>
<line x1="125.800000" y1="54.000000" x2="129.800000" y2="54.000000"  style="stroke:black; stroke-linecap:round; stroke-width:0.25;"/>
<line x1="129.800000" y1="46.000000" x2="129.800000" y2="46.000000"  style="stroke:black; stroke-linecap:round; stroke-width:0.25;"/>
<line x1="129.800000" y1="46.000000" x2="133.800000" y2="46.000000"  style="stroke:black; stroke-linecap:round; stroke-width:0.25;"/>
<line x1="129.800000" y1="54.000000" x2="129.800000" y2="54.000000"  style="stroke:black; stroke-linecap:round; stroke-width:0.25;"/>
<line x1="129.800000" y1="54.000000" x2="133.800000" y2="54.000000"  style="stroke:black; stroke-linecap:round; stroke-width:0.25;"/>
<line x1="159.600000" y1="46.000000" x2="163.600000" y2="46.000000"  style="stroke:black; stroke-linecap:round; stroke-width:0.25;"/>
<line x1="159.600000" y1="54.000000" x2="163.600000" y2="54.000000"  style="stroke:black; stroke-linecap:round; stroke-width:0.25;"/>
<line x1="163.600000" y1="46.000000" x2="163.600000" y2="46.000000"  style="stroke:black; stroke-linecap:round; stroke-width:0.25;"/>
<line x1="163.600000" y1="46.000000" x2="167.600000" y2="46.000000"  style="stroke:black; stroke-linecap:round; stroke-width:0.25;"/>
<line x1="163.600000" y1="54.000000" x2="163.600000" y2="54.000000"  style="stroke:black; stroke-linecap:round; stroke-width:0.25;"/>
<line x1="163.600000" y1="54.000000" x2="167.600000" y2="54.000000"  style="stroke:black; stroke-linecap:round; stroke-width:0.25;"/>
<line x1="193.400000" y1="46.000000" x2="197.400000" y2="46.000000"  style="stroke:black; stroke-linecap:round; stroke-width:0.25;"/>
<line x1="193.400000" y1="54.000000" x2="197.400000" y2="54.000000"  style="stroke:black; stroke-linecap:round; stroke-width:0.25;"/>
<line x1="197.400000" y1="46.000000" x2="197.400000" y2="46.000000"  style="stroke:black; stroke-linecap:round; stroke-width:0.25;"/>
<line x1="197.400000" y1="46.000000" x2="201.400000" y2="46.000000"  style="stroke:black; stroke-linecap:round; stroke-width:0.25;"/>
<line x1="197.400000" y1="54.000000" x2="197.400000" y2="54.000000"  style="stroke:black; stroke-linecap:round; stroke-width:0.25;"/>
<line x1="197.400000" y1="54.000000" x2="201.400000" y2="54.000000"  style="stroke:black; stroke-linecap:round; stroke-width:0.25;"/>
<line x1="227.200000" y1="46.000000" x2="231.200000" y2="46.000000"  style="stroke:black; stroke-linecap:round; stroke-width:0.25;"/>
<line x1="227.200000" y1="54.000000" x2="231.200000" y2="54.000000"  style="stroke:black; stroke-linecap:round; stroke-width:0.25;"/>
<line x1="231.200000" y1="46.000000" x2="231.200000" y2="46.000000"  style="stroke:black; stroke-linecap:round; stroke-width:0.25;"/>
<line x1="231.200000" y1="46.000000" x2="235.200000" y2="46.000000"  style="stroke:black; stroke-linecap:round; stroke-width:0.25;"/>
<line x1="231.200000" y1="54.000000" x2="231.200000" y2="54.000000"  style="stroke:black; stroke-linecap:round; stroke-width:0.25;"/>
<line x1="231.200000" y1="54.000000" x2="235.200000" y2="54.000000"  style="stroke:black; stroke-linecap:round; stroke-width:0.25;"/>
<line x1="273.900000" y1="46.000000" x2="277.900000" y2="46.000000"  style="stroke:black; stroke-linecap:round; stroke-width:0.25;"/>
<line x1="273.900000" y1="54.000000" x2="277.900000" y2="54.000000"  style="stroke:black; stroke-linecap:round; stroke-width:0.25;"/>
<line x1="277.900000" y1="46.000000" x2="277.900000" y2="46.000000"  style="stroke:black; stroke-linecap:round; stroke-width:0.25;"/>
<line x1="277.900000" y1="46.000000" x2="281.900000" y2="46.000000"  style="stroke:black; stroke-linecap:round; stroke-width:0.25;"/>
<line x1="277.900000" y1="54.000000" x2="277.900000" y2="54.000000"  style="stroke:black; stroke-linecap:round; stroke-width:0.25;"/>
<line x1="277.900000" y1="54.000000" x2="281.900000" y2="54.000000"  style="stroke:black; stroke-linecap:round; stroke-width:0.25;"/>
<line x1="320.600000" y1="46.000000" x2="324.600000" y2="46.000000"  style="stroke:black; stroke-linecap:round; stroke-width:0.25;"/>
<line x1="320.600000" y1="54.000000" x2="324.600000" y2="54.000000"  style="stroke:black; stroke-linecap:round; stroke-width:0.25;"/>
<line x1="324.600000" y1="46.000000" x2="324.600000" y2="46.000000"  style="stroke:black; stroke-linecap:round; stroke-width:0.25;"/>
<line x1="324.600000" y1="46.000000" x2="328.600000" y2="46.000000"  style="stroke:black; stroke-linecap:round; stroke-width:0.25;"/>
<line x1="324.600000" y1="54.000000" x2="324.600000" y2="54.000000"  style="stroke:black; stroke-linecap:round; stroke-width:0.25;"/>
<line x1="324.600000" y1="54.000000" x2="328.600000" y2="54.000000"  style="stroke:black; stroke-linecap:round; stroke-width:0.25;"/>
<line x1="367.300000" y1="46.000000" x2="371.300000" y2="46.000000"  style="stroke:black; stroke-linecap:round; stroke-width:0.25;"/>
<line x1="367.300000" y1="54.000000" x2="371.300000" y2="54.000000"  style="stroke:black; stroke-linecap:round; stroke-width:0.25;"/>
<line x1="371.300000" y1="46.000000" x2="371.300000" y2="46.000000"  style="stroke:black; stroke-linecap:round; stroke-width:0.25;"/>
<line x1="371.300000" y1="46.000000" x2="375.300000" y2="46.000000"  style="stroke:black; stroke-linecap:round; stroke-width:0.25;"/>
<line x1="371.300000" y1="54.000000" x2="371.300000" y2="54.000000"  style="stroke:black; stroke-linecap:round; stroke-width:0.25;"/>
<line x1="371.300000" y1="54.000000" x2="375.300000" y2="54.000000"  style="stroke:black; stroke-linecap:round; stroke-width:0.25;"/>
<line x1="414.000000" y1="46.000000" x2="418.000000" y2="46.000000"  style="stroke:black; stroke-linecap:round; stroke-width:0.25;"/>
<line x1="414.000000" y1="54.000000" x2="418.000000" y2="54.000000"  style="stroke:black; stroke-linecap:round; stroke-width:0.25;"/>
<line x1="418.000000" y1="46.000000" x2="418.000000" y2="46.000000"  style="stroke:black; stroke-linecap:round; stroke-width:0.25;"/>
<line x1="418.000000" y1="46.000000" x2="422.000000" y2="46.000000"  style="stroke:black; stroke-linecap:round; stroke-width:0.25;"/>
<line x1="418.000000" y1="54.000000" x2="418.000000" y2="54.000000"  style="stroke:black; stroke-linecap:round; stroke-width:0.25;"/>
<line x1="418.000000" y1="54.000000" x2="422.000000" y2="54.000000"  style="stroke:black; stroke-linecap:round; stroke-width:0.25;"/>
<line x1="460.700000" y1="46.000000" x2="464.700000" y2="46.000000"  style="stroke:black; stroke-linecap:round; stroke-width:0.25;"/>
<line x1="460.700000" y1="54.000000" x2="464.700000" y2="54.000000"  style="stroke:black; stroke-linecap:round; stroke-width:0.25;"/>
<line x1="464.700000" y1="46.000000" x2="464.700000" y2="46.000000"  style="stroke:black; stroke-linecap:round; stroke-width:0.25;"/>
<line x1="464.700000" y1="46.000000" x2="468.700000" y2="46.000000"  style="stroke:black; stroke-linecap:round; stroke-width:0.25;"/>
<line x1="464.700000" y1="54.000000" x2="464.700000" y2="54.000000"  style="stroke:black; stroke-linecap:round; stroke-width:0.25;"/>
<line x1="464.700000" y1="54.000000" x2="468.700000" y2="54.000000"  style="stroke:black; stroke-linecap:round; stroke-width:0.25;"/>
<line x1="507.400000" y1="46.000000" x2="511.400000" y2="46.000000"  style="stroke:black; stroke-linecap:round; stroke-width:0.25;"/>
<line x1="507.400000" y1="54.000000" x2="511.400000" y2="54.000000"  style="stroke:black; stroke-linecap:round; stroke-width:0.25;"/>
<line x1="511.400000" y1="46.000000" x2="511.400000" y2="46.000000"  style="stroke:black; stroke-linecap:round; stroke-width:0.25;"/>
<line x1="511.400000" y1="46.000000" x2="515.400000" y2="46.000000"  style="stroke:black; stroke-linecap:round; stroke-width:0.25;"/>
<line x1="511.400000" y1="54.000000" x2="511.400000" y2="54.000000"  style="stroke:black; stroke-linecap:round; stroke-width:0.25;"/>
<line x1="511.400000" y1="54.000000" x2="515.400000" y2="54.000000"  style="stroke:black; stroke-linecap:round; stroke-width:0.25;"/>
<line x1="554.100000" y1="46.000000" x2="558.100000" y2="46.000000"  style="stroke:black; stroke-linecap:round; stroke-width:0.25;"/>
<line x1="554.100000" y1="54.000000" x2="558.100000" y2="54.000000"  style="stroke:black; stroke-linecap:round; stroke-width:0.25;"/>
<line x1="558.100000" y1="46.000000" x2="558.100000" y2="46.000000"  style="stroke:black; stroke-linecap:round; stroke-width:0.25;"/>
<line x1="558.100000" y1="46.000000" x2="562.100000" y2="46.000000"  style="stroke:black; stroke-linecap:round; stroke-width:0.25;"/>
<line x1="558.100000" y1="54.000000" x2="558.100000" y2="54.000000"  style="stroke:black; stroke-linecap:round; stroke-width:0.25;"/>
<line x1="558.100000" y1="54.000000" x2="562.100000" y2="54.000000"  style="stroke:black; stroke-linecap:round; stroke-width:0.25;"/>
<line x1="600.800000" y1="46.000000" x2="604.800000" y2="46.000000"  style="stroke:black; stroke-linecap:round; stroke-width:0.25;"/>
<line x1="600.800000" y1="54.000000" x2="604.800000" y2="54.000000"  style="stroke:black; stroke-linecap:round; stroke-width:0.25;"/>
<line x1="604.800000" y1="46.000000" x2="604.800000" y2="46.000000"  style="stroke:black; stroke-linecap:round; stroke-width:0.25;"/>
<line x1="604.800000" y1="46.000000" x2="608.800000" y2="46.000000"  style="stroke:black; stroke-linecap:round; stroke-width:0.25;"/>
<line x1="604.800000" y1="54.000000" x2="604.800000" y2="54.000000"  style="stroke:black; stroke-linecap:round; stroke-width:0.25;"/>
<line x1="604.800000" y1="54.000000" x2="608.800000" y2="54.000000"  style="stroke:black; stroke-linecap:round; stroke-width:0.25;"/>
<line x1="647.500000" y1="46.000000" x2="651.500000" y2="46.000000"  style="stroke:black; stroke-linecap:round; stroke-width:0.25;"/>
<line x1="647.500000" y1="54.000000" x2="651.500000" y2="54.000000"  style="stroke:black; stroke-linecap:round; stroke-width:0.25;"/>
<line x1="651.500000" y1="46.000000" x2="651.500000" y2="46.000000"  style="stroke:black; stroke-linecap:round; stroke-width:0.25;"/>
<line x1="651.500000" y1="46.000000" x2="655.500000" y2="46.000000"  style="stroke:black; stroke-linecap:round; stroke-width:0.25;"/>
<line x1="651.500000" y1="54.000000" x2="651.500000" y2="54.000000"  style="stroke:black; stroke-linecap:round; stroke-width:0.25;"/>
<line x1="651.500000" y1="54.000000" x2="655.500000" y2="54.000000"  style="stroke:black; stroke-linecap:round; stroke-width:0.25;"/>
<line x1="694.200000" y1="46.000000" x2="698.200000" y2="46.000000"  style="stroke:black; stroke-linecap:round; stroke-width:0.25;"/>
<line x1="694.200000" y1="54.000000" x2="698.200000" y2="54.000000"  style="stroke:black; stroke-linecap:round; stroke-width:0.25;"/>
<line x1="698.200000" y1="46.000000" x2="698.200000" y2="46.000000"  style="stroke:black; stroke-linecap:round; stroke-width:0.25;"/>
<line x1="698.200000" y1="46.000000" x2="702.200000" y2="46.000000"  style="stroke:black; stroke-linecap:round; stroke-width:0.25;"/>
<line x1="698.200000" y1="54.000000" x2="698.200000" y2="54.000000"  style="stroke:black; stroke-linecap:round; stroke-width:0.25;"/>
<line x1="698.200000" y1="54.000000" x2="702.200000" y2="54.000000"  style="stroke:black; stroke-linecap:round; stroke-width:0.25;"/>
<line x1="740.900000" y1="46.000000" x2="744.900000" y2="46.000000"  style="stroke:black; stroke-linecap:round; stroke-width:0.25;"/>
<line x1="740.900000" y1="54.000000" x2="744.900000" y2="54.000000"  style="stroke:black; stroke-linecap:round; stroke-width:0.25;"/>
<line x1="744.900000" y1="46.000000" x2="748.900000" y2="46.000000"  style="stroke:black; stroke-linecap:round; stroke-width:0.25;"/>
<line x1="744.900000" y1="54.000000" x2="748.900000" y2="54.000000"  style="stroke:black; stroke-linecap:round; stroke-width:0.25;"/>
<line x1="744.900000" y1="46.000000" x2="744.900000" y2="46.000000"  style="stroke:black; stroke-linecap:round; stroke-width:0.25;"/>
<line x1="744.900000" y1="54.000000" x2="744.900000" y2="54.000000"  style="stroke:black; stroke-linecap:round; stroke-width:0.25;"/>
<line x1="748.900000" y1="46.000000" x2="752.900000" y2="46.000000"  style="stroke:black; stroke-linecap:round; stroke-width:0.25;"/>
<line x1="748.900000" y1="54.000000" x2="752.900000" y2="54.000000"  style="stroke:black; stroke-linecap:round; stroke-width:0.25;"/>
<line x1="752.900000" y1="46.000000" x2="762.900000" y2="46.000000"  style="stroke:black; stroke-linecap:round; stroke-width:0.25;"/>
<line x1="752.900000" y1="54.000000" x2="762.900000" y2="54.000000"  style="stroke:black; stroke-linecap:round; stroke-width:0.25;"/>
</svg>
