<?xml version="1.0"?>
<svg xmlns="http://www.w3.org/2000/svg" xmlns:xlink="http://www.w3.org/1999/xlink" viewBox="0 0 467.900000 200.000000" width="233.950000mm" height="100.000000mm" version="1.1">
<defs>
   <filter id="filter" filterRes="18" x="0" y="0">
     <feGaussianBlur in="SourceGraphic" stdDeviation="1.55" result="blur"/>
     <feOffset in="blur" dx="3" dy="3"/>
   </filter>
</defs>
<rect x="1.000000" y="1.000000" width="466.900000" height="199.000000" rx="0.1" ry="0.1" style="stroke:none;fill:#aaaaaa;;filter:url(#filter);"/>
<rect x="0.000000" y="0.000000" width="466.900000" height="199.000000" rx="0" ry="0" style="stroke:none;fill:#ffffff;"/>
<text x="10.000000" y="7.000000" font-family="Arial" font-size="7"></text>
<a xlink:href="Volumeinputdry-0x180cf90.svg">
<rect x="183.700000" y="33.000000" width="64.500000" height="24.000000" rx="0.1" ry="0.1" style="stroke:none;fill:#aaaaaa;;filter:url(#filter);"/>
<rect x="182.700000" y="32.000000" width="64.500000" height="24.000000" rx="0" ry="0" style="stroke:none;fill:#003366;"/>
</a>
<a xlink:href="Volumeinputdry-0x180cf90.svg">
<text x="214.950000" y="46.000000" font-family="Arial" font-size="7" text-anchor="middle" fill="#FFFFFF">Volumeinputdry</text>
</a>
<circle cx="184.700000" cy="34.000000" r="1"/>
<rect x="264.200000" y="29.000000" width="24.000000" height="24.000000" rx="0.1" ry="0.1" style="stroke:none;fill:#aaaaaa;;filter:url(#filter);"/>
<rect x="263.200000" y="28.000000" width="24.000000" height="24.000000" rx="0" ry="0" style="stroke:none;fill:#4B71A1;"/>
<text x="275.200000" y="42.000000" font-family="Arial" font-size="7" text-anchor="middle" fill="#FFFFFF">*</text>
<circle cx="265.200000" cy="30.000000" r="1"/>
<line x1="260.200000" y1="35.000000" x2="263.200000" y2="36.000000"  transform="rotate(0.000000,263.200000,36.000000)" style="stroke: black; stroke-width:0.25;"/>
<line x1="260.200000" y1="37.000000" x2="263.200000" y2="36.000000"  transform="rotate(0.000000,263.200000,36.000000)" style="stroke: black; stroke-width:0.25;"/>
<line x1="260.200000" y1="43.000000" x2="263.200000" y2="44.000000"  transform="rotate(0.000000,263.200000,44.000000)" style="stroke: black; stroke-width:0.25;"/>
<line x1="260.200000" y1="45.000000" x2="263.200000" y2="44.000000"  transform="rotate(0.000000,263.200000,44.000000)" style="stroke: black; stroke-width:0.25;"/>
<a xlink:href="Febaroute2-0x1842c50.svg">
<rect x="75.000000" y="89.000000" width="51.600000" height="24.000000" rx="0.1" ry="0.1" style="stroke:none;fill:#aaaaaa;;filter:url(#filter);"/>
<rect x="74.000000" y="88.000000" width="51.600000" height="24.000000" rx="0" ry="0" style="stroke:none;fill:#003366;"/>
</a>
<a xlink:href="Febaroute2-0x1842c50.svg">
<text x="99.800000" y="102.000000" font-family="Arial" font-size="7" text-anchor="middle" fill="#FFFFFF">Febaroute2</text>
</a>
<circle cx="76.000000" cy="90.000000" r="1"/>
<line x1="71.000000" y1="99.000000" x2="74.000000" y2="100.000000"  transform="rotate(0.000000,74.000000,100.000000)" style="stroke: black; stroke-width:0.25;"/>
<line x1="71.000000" y1="101.000000" x2="74.000000" y2="100.000000"  transform="rotate(0.000000,74.000000,100.000000)" style="stroke: black; stroke-width:0.25;"/>
<rect x="162.600000" y="73.000000" width="24.000000" height="24.000000" rx="0.1" ry="0.1" style="stroke:none;fill:#aaaaaa;;filter:url(#filter);"/>
<rect x="161.600000" y="72.000000" width="24.000000" height="24.000000" rx="0" ry="0" style="stroke:none;fill:#4B71A1;"/>
<text x="173.600000" y="86.000000" font-family="Arial" font-size="7" text-anchor="middle" fill="#FFFFFF">+</text>
<circle cx="163.600000" cy="74.000000" r="1"/>
<line x1="158.600000" y1="79.000000" x2="161.600000" y2="80.000000"  transform="rotate(0.000000,161.600000,80.000000)" style="stroke: black; stroke-width:0.25;"/>
<line x1="158.600000" y1="81.000000" x2="161.600000" y2="80.000000"  transform="rotate(0.000000,161.600000,80.000000)" style="stroke: black; stroke-width:0.25;"/>
<line x1="158.600000" y1="87.000000" x2="161.600000" y2="88.000000"  transform="rotate(0.000000,161.600000,88.000000)" style="stroke: black; stroke-width:0.25;"/>
<line x1="158.600000" y1="89.000000" x2="161.600000" y2="88.000000"  transform="rotate(0.000000,161.600000,88.000000)" style="stroke: black; stroke-width:0.25;"/>
<rect x="162.600000" y="105.000000" width="24.000000" height="24.000000" rx="0.1" ry="0.1" style="stroke:none;fill:#aaaaaa;;filter:url(#filter);"/>
<rect x="161.600000" y="104.000000" width="24.000000" height="24.000000" rx="0" ry="0" style="stroke:none;fill:#4B71A1;"/>
<text x="173.600000" y="118.000000" font-family="Arial" font-size="7" text-anchor="middle" fill="#FFFFFF">-</text>
<circle cx="163.600000" cy="106.000000" r="1"/>
<line x1="158.600000" y1="111.000000" x2="161.600000" y2="112.000000"  transform="rotate(0.000000,161.600000,112.000000)" style="stroke: black; stroke-width:0.25;"/>
<line x1="158.600000" y1="113.000000" x2="161.600000" y2="112.000000"  transform="rotate(0.000000,161.600000,112.000000)" style="stroke: black; stroke-width:0.25;"/>
<line x1="158.600000" y1="119.000000" x2="161.600000" y2="120.000000"  transform="rotate(0.000000,161.600000,120.000000)" style="stroke: black; stroke-width:0.25;"/>
<line x1="158.600000" y1="121.000000" x2="161.600000" y2="120.000000"  transform="rotate(0.000000,161.600000,120.000000)" style="stroke: black; stroke-width:0.25;"/>
<rect x="210.600000" y="73.000000" width="25.800000" height="24.000000" rx="0.1" ry="0.1" style="stroke:none;fill:#aaaaaa;;filter:url(#filter);"/>
<rect x="209.600000" y="72.000000" width="25.800000" height="24.000000" rx="0" ry="0" style="stroke:none;fill:#f44800;"/>
<text x="222.500000" y="86.000000" font-family="Arial" font-size="7" text-anchor="middle" fill="#FFFFFF">1000</text>
<circle cx="211.600000" cy="74.000000" r="1"/>
<rect x="252.400000" y="69.000000" width="24.000000" height="24.000000" rx="0.1" ry="0.1" style="stroke:none;fill:#aaaaaa;;filter:url(#filter);"/>
<rect x="251.400000" y="68.000000" width="24.000000" height="24.000000" rx="0" ry="0" style="stroke:none;fill:#4B71A1;"/>
<text x="263.400000" y="82.000000" font-family="Arial" font-size="7" text-anchor="middle" fill="#FFFFFF">/</text>
<circle cx="253.400000" cy="70.000000" r="1"/>
<line x1="248.400000" y1="75.000000" x2="251.400000" y2="76.000000"  transform="rotate(0.000000,251.400000,76.000000)" style="stroke: black; stroke-width:0.25;"/>
<line x1="248.400000" y1="77.000000" x2="251.400000" y2="76.000000"  transform="rotate(0.000000,251.400000,76.000000)" style="stroke: black; stroke-width:0.25;"/>
<line x1="248.400000" y1="83.000000" x2="251.400000" y2="84.000000"  transform="rotate(0.000000,251.400000,84.000000)" style="stroke: black; stroke-width:0.25;"/>
<line x1="248.400000" y1="85.000000" x2="251.400000" y2="84.000000"  transform="rotate(0.000000,251.400000,84.000000)" style="stroke: black; stroke-width:0.25;"/>
<a xlink:href="Volumeinputwet-0x180de10.svg">
<rect x="292.400000" y="73.000000" width="64.500000" height="24.000000" rx="0.1" ry="0.1" style="stroke:none;fill:#aaaaaa;;filter:url(#filter);"/>
<rect x="291.400000" y="72.000000" width="64.500000" height="24.000000" rx="0" ry="0" style="stroke:none;fill:#003366;"/>
</a>
<a xlink:href="Volumeinputwet-0x180de10.svg">
<text x="323.650000" y="86.000000" font-family="Arial" font-size="7" text-anchor="middle" fill="#FFFFFF">Volumeinputwet</text>
</a>
<circle cx="293.400000" cy="74.000000" r="1"/>
<rect x="372.900000" y="69.000000" width="24.000000" height="24.000000" rx="0.1" ry="0.1" style="stroke:none;fill:#aaaaaa;;filter:url(#filter);"/>
<rect x="371.900000" y="68.000000" width="24.000000" height="24.000000" rx="0" ry="0" style="stroke:none;fill:#4B71A1;"/>
<text x="383.900000" y="82.000000" font-family="Arial" font-size="7" text-anchor="middle" fill="#FFFFFF">*</text>
<circle cx="373.900000" cy="70.000000" r="1"/>
<line x1="368.900000" y1="75.000000" x2="371.900000" y2="76.000000"  transform="rotate(0.000000,371.900000,76.000000)" style="stroke: black; stroke-width:0.25;"/>
<line x1="368.900000" y1="77.000000" x2="371.900000" y2="76.000000"  transform="rotate(0.000000,371.900000,76.000000)" style="stroke: black; stroke-width:0.25;"/>
<line x1="368.900000" y1="83.000000" x2="371.900000" y2="84.000000"  transform="rotate(0.000000,371.900000,84.000000)" style="stroke: black; stroke-width:0.25;"/>
<line x1="368.900000" y1="85.000000" x2="371.900000" y2="84.000000"  transform="rotate(0.000000,371.900000,84.000000)" style="stroke: black; stroke-width:0.25;"/>
<rect x="210.600000" y="113.000000" width="25.800000" height="24.000000" rx="0.1" ry="0.1" style="stroke:none;fill:#aaaaaa;;filter:url(#filter);"/>
<rect x="209.600000" y="112.000000" width="25.800000" height="24.000000" rx="0" ry="0" style="stroke:none;fill:#f44800;"/>
<text x="222.500000" y="126.000000" font-family="Arial" font-size="7" text-anchor="middle" fill="#FFFFFF">1000</text>
<circle cx="211.600000" cy="114.000000" r="1"/>
<rect x="252.400000" y="109.000000" width="24.000000" height="24.000000" rx="0.1" ry="0.1" style="stroke:none;fill:#aaaaaa;;filter:url(#filter);"/>
<rect x="251.400000" y="108.000000" width="24.000000" height="24.000000" rx="0" ry="0" style="stroke:none;fill:#4B71A1;"/>
<text x="263.400000" y="122.000000" font-family="Arial" font-size="7" text-anchor="middle" fill="#FFFFFF">/</text>
<circle cx="253.400000" cy="110.000000" r="1"/>
<line x1="248.400000" y1="115.000000" x2="251.400000" y2="116.000000"  transform="rotate(0.000000,251.400000,116.000000)" style="stroke: black; stroke-width:0.25;"/>
<line x1="248.400000" y1="117.000000" x2="251.400000" y2="116.000000"  transform="rotate(0.000000,251.400000,116.000000)" style="stroke: black; stroke-width:0.25;"/>
<line x1="248.400000" y1="123.000000" x2="251.400000" y2="124.000000"  transform="rotate(0.000000,251.400000,124.000000)" style="stroke: black; stroke-width:0.25;"/>
<line x1="248.400000" y1="125.000000" x2="251.400000" y2="124.000000"  transform="rotate(0.000000,251.400000,124.000000)" style="stroke: black; stroke-width:0.25;"/>
<a xlink:href="Volumeinputwet-0x180de10.svg">
<rect x="292.400000" y="113.000000" width="64.500000" height="24.000000" rx="0.1" ry="0.1" style="stroke:none;fill:#aaaaaa;;filter:url(#filter);"/>
<rect x="291.400000" y="112.000000" width="64.500000" height="24.000000" rx="0" ry="0" style="stroke:none;fill:#003366;"/>
</a>
<a xlink:href="Volumeinputwet-0x180de10.svg">
<text x="323.650000" y="126.000000" font-family="Arial" font-size="7" text-anchor="middle" fill="#FFFFFF">Volumeinputwet</text>
</a>
<circle cx="293.400000" cy="114.000000" r="1"/>
<rect x="372.900000" y="109.000000" width="24.000000" height="24.000000" rx="0.1" ry="0.1" style="stroke:none;fill:#aaaaaa;;filter:url(#filter);"/>
<rect x="371.900000" y="108.000000" width="24.000000" height="24.000000" rx="0" ry="0" style="stroke:none;fill:#4B71A1;"/>
<text x="383.900000" y="122.000000" font-family="Arial" font-size="7" text-anchor="middle" fill="#FFFFFF">*</text>
<circle cx="373.900000" cy="110.000000" r="1"/>
<line x1="368.900000" y1="115.000000" x2="371.900000" y2="116.000000"  transform="rotate(0.000000,371.900000,116.000000)" style="stroke: black; stroke-width:0.25;"/>
<line x1="368.900000" y1="117.000000" x2="371.900000" y2="116.000000"  transform="rotate(0.000000,371.900000,116.000000)" style="stroke: black; stroke-width:0.25;"/>
<line x1="368.900000" y1="123.000000" x2="371.900000" y2="124.000000"  transform="rotate(0.000000,371.900000,124.000000)" style="stroke: black; stroke-width:0.25;"/>
<line x1="368.900000" y1="125.000000" x2="371.900000" y2="124.000000"  transform="rotate(0.000000,371.900000,124.000000)" style="stroke: black; stroke-width:0.25;"/>
<a xlink:href="Volumeinputdry-0x180cf90.svg">
<rect x="183.700000" y="153.000000" width="64.500000" height="24.000000" rx="0.1" ry="0.1" style="stroke:none;fill:#aaaaaa;;filter:url(#filter);"/>
<rect x="182.700000" y="152.000000" width="64.500000" height="24.000000" rx="0" ry="0" style="stroke:none;fill:#003366;"/>
</a>
<a xlink:href="Volumeinputdry-0x180cf90.svg">
<text x="214.950000" y="166.000000" font-family="Arial" font-size="7" text-anchor="middle" fill="#FFFFFF">Volumeinputdry</text>
</a>
<circle cx="184.700000" cy="154.000000" r="1"/>
<rect x="264.200000" y="149.000000" width="24.000000" height="24.000000" rx="0.1" ry="0.1" style="stroke:none;fill:#aaaaaa;;filter:url(#filter);"/>
<rect x="263.200000" y="148.000000" width="24.000000" height="24.000000" rx="0" ry="0" style="stroke:none;fill:#4B71A1;"/>
<text x="275.200000" y="162.000000" font-family="Arial" font-size="7" text-anchor="middle" fill="#FFFFFF">*</text>
<circle cx="265.200000" cy="150.000000" r="1"/>
<line x1="260.200000" y1="155.000000" x2="263.200000" y2="156.000000"  transform="rotate(0.000000,263.200000,156.000000)" style="stroke: black; stroke-width:0.25;"/>
<line x1="260.200000" y1="157.000000" x2="263.200000" y2="156.000000"  transform="rotate(0.000000,263.200000,156.000000)" style="stroke: black; stroke-width:0.25;"/>
<line x1="260.200000" y1="163.000000" x2="263.200000" y2="164.000000"  transform="rotate(0.000000,263.200000,164.000000)" style="stroke: black; stroke-width:0.25;"/>
<line x1="260.200000" y1="165.000000" x2="263.200000" y2="164.000000"  transform="rotate(0.000000,263.200000,164.000000)" style="stroke: black; stroke-width:0.25;"/>
<rect x="420.900000" y="73.000000" width="24.000000" height="24.000000" rx="0.1" ry="0.1" style="stroke:none;fill:#aaaaaa;;filter:url(#filter);"/>
<rect x="419.900000" y="72.000000" width="24.000000" height="24.000000" rx="0" ry="0" style="stroke:none;fill:#4B71A1;"/>
<text x="431.900000" y="86.000000" font-family="Arial" font-size="7" text-anchor="middle" fill="#FFFFFF">+</text>
<circle cx="421.900000" cy="74.000000" r="1"/>
<line x1="416.900000" y1="79.000000" x2="419.900000" y2="80.000000"  transform="rotate(0.000000,419.900000,80.000000)" style="stroke: black; stroke-width:0.25;"/>
<line x1="416.900000" y1="81.000000" x2="419.900000" y2="80.000000"  transform="rotate(0.000000,419.900000,80.000000)" style="stroke: black; stroke-width:0.25;"/>
<line x1="416.900000" y1="87.000000" x2="419.900000" y2="88.000000"  transform="rotate(0.000000,419.900000,88.000000)" style="stroke: black; stroke-width:0.25;"/>
<line x1="416.900000" y1="89.000000" x2="419.900000" y2="88.000000"  transform="rotate(0.000000,419.900000,88.000000)" style="stroke: black; stroke-width:0.25;"/>
<rect x="420.900000" y="105.000000" width="24.000000" height="24.000000" rx="0.1" ry="0.1" style="stroke:none;fill:#aaaaaa;;filter:url(#filter);"/>
<rect x="419.900000" y="104.000000" width="24.000000" height="24.000000" rx="0" ry="0" style="stroke:none;fill:#4B71A1;"/>
<text x="431.900000" y="118.000000" font-family="Arial" font-size="7" text-anchor="middle" fill="#FFFFFF">+</text>
<circle cx="421.900000" cy="106.000000" r="1"/>
<line x1="416.900000" y1="111.000000" x2="419.900000" y2="112.000000"  transform="rotate(0.000000,419.900000,112.000000)" style="stroke: black; stroke-width:0.25;"/>
<line x1="416.900000" y1="113.000000" x2="419.900000" y2="112.000000"  transform="rotate(0.000000,419.900000,112.000000)" style="stroke: black; stroke-width:0.25;"/>
<line x1="416.900000" y1="119.000000" x2="419.900000" y2="120.000000"  transform="rotate(0.000000,419.900000,120.000000)" style="stroke: black; stroke-width:0.25;"/>
<line x1="416.900000" y1="121.000000" x2="419.900000" y2="120.000000"  transform="rotate(0.000000,419.900000,120.000000)" style="stroke: black; stroke-width:0.25;"/>
<line x1="15.000000" y1="15.000000" x2="15.000000" y2="185.000000"  style="stroke: black; stroke-linecap:round; stroke-width:0.25; stroke-dasharray:3,3;"/>
<line x1="15.000000" y1="185.000000" x2="452.900000" y2="185.000000"  style="stroke: black; stroke-linecap:round; stroke-width:0.25; stroke-dasharray:3,3;"/>
<line x1="452.900000" y1="185.000000" x2="452.900000" y2="15.000000"  style="stroke: black; stroke-linecap:round; stroke-width:0.25; stroke-dasharray:3,3;"/>
<line x1="15.000000" y1="15.000000" x2="20.000000" y2="15.000000"  style="stroke: black; stroke-linecap:round; stroke-width:0.25; stroke-dasharray:3,3;"/>
<line x1="49.025000" y1="15.000000" x2="452.900000" y2="15.000000"  style="stroke: black; stroke-linecap:round; stroke-width:0.25; stroke-dasharray:3,3;"/>
<text x="20.000000" y="17.000000" font-family="Arial" font-size="7">process</text>
<line x1="454.900000" y1="83.000000" x2="457.900000" y2="84.000000"  transform="rotate(0.000000,457.900000,84.000000)" style="stroke: black; stroke-width:0.25;"/>
<line x1="454.900000" y1="85.000000" x2="457.900000" y2="84.000000"  transform="rotate(0.000000,457.900000,84.000000)" style="stroke: black; stroke-width:0.25;"/>
<line x1="454.900000" y1="115.000000" x2="457.900000" y2="116.000000"  transform="rotate(0.000000,457.900000,116.000000)" style="stroke: black; stroke-width:0.25;"/>
<line x1="454.900000" y1="117.000000" x2="457.900000" y2="116.000000"  transform="rotate(0.000000,457.900000,116.000000)" style="stroke: black; stroke-width:0.25;"/>
<line x1="10.000000" y1="100.000000" x2="20.000000" y2="100.000000"  style="stroke:black; stroke-linecap:round; stroke-width:0.25;"/>
<line x1="20.000000" y1="100.000000" x2="24.000000" y2="100.000000"  style="stroke:black; stroke-linecap:round; stroke-width:0.25;"/>
<line x1="24.000000" y1="100.000000" x2="28.000000" y2="100.000000"  style="stroke:black; stroke-linecap:round; stroke-width:0.25;"/>
<line x1="28.000000" y1="100.000000" x2="70.000000" y2="24.000000"  style="stroke:black; stroke-linecap:round; stroke-width:0.25;"/>
<line x1="28.000000" y1="100.000000" x2="70.000000" y2="100.000000"  style="stroke:black; stroke-linecap:round; stroke-width:0.25;"/>
<line x1="28.000000" y1="100.000000" x2="70.000000" y2="144.000000"  style="stroke:black; stroke-linecap:round; stroke-width:0.25;"/>
<line x1="70.000000" y1="24.000000" x2="178.700000" y2="24.000000"  style="stroke:black; stroke-linecap:round; stroke-width:0.25;"/>
<line x1="70.000000" y1="100.000000" x2="74.000000" y2="100.000000"  style="stroke:black; stroke-linecap:round; stroke-width:0.25;"/>
<line x1="70.000000" y1="144.000000" x2="178.700000" y2="144.000000"  style="stroke:black; stroke-linecap:round; stroke-width:0.25;"/>
<line x1="125.600000" y1="96.000000" x2="129.600000" y2="96.000000"  style="stroke:black; stroke-linecap:round; stroke-width:0.25;"/>
<line x1="125.600000" y1="104.000000" x2="129.600000" y2="104.000000"  style="stroke:black; stroke-linecap:round; stroke-width:0.25;"/>
<line x1="129.600000" y1="96.000000" x2="157.600000" y2="80.000000"  style="stroke:black; stroke-linecap:round; stroke-width:0.25;"/>
<line x1="129.600000" y1="96.000000" x2="157.600000" y2="112.000000"  style="stroke:black; stroke-linecap:round; stroke-width:0.25;"/>
<line x1="129.600000" y1="104.000000" x2="157.600000" y2="88.000000"  style="stroke:black; stroke-linecap:round; stroke-width:0.25;"/>
<line x1="129.600000" y1="104.000000" x2="157.600000" y2="120.000000"  style="stroke:black; stroke-linecap:round; stroke-width:0.25;"/>
<line x1="157.600000" y1="80.000000" x2="157.600000" y2="80.000000"  style="stroke:black; stroke-linecap:round; stroke-width:0.25;"/>
<line x1="157.600000" y1="80.000000" x2="161.600000" y2="80.000000"  style="stroke:black; stroke-linecap:round; stroke-width:0.25;"/>
<line x1="157.600000" y1="88.000000" x2="157.600000" y2="88.000000"  style="stroke:black; stroke-linecap:round; stroke-width:0.25;"/>
<line x1="157.600000" y1="88.000000" x2="161.600000" y2="88.000000"  style="stroke:black; stroke-linecap:round; stroke-width:0.25;"/>
<line x1="157.600000" y1="112.000000" x2="157.600000" y2="112.000000"  style="stroke:black; stroke-linecap:round; stroke-width:0.25;"/>
<line x1="157.600000" y1="112.000000" x2="161.600000" y2="112.000000"  style="stroke:black; stroke-linecap:round; stroke-width:0.25;"/>
<line x1="157.600000" y1="120.000000" x2="157.600000" y2="120.000000"  style="stroke:black; stroke-linecap:round; stroke-width:0.25;"/>
<line x1="157.600000" y1="120.000000" x2="161.600000" y2="120.000000"  style="stroke:black; stroke-linecap:round; stroke-width:0.25;"/>
<line x1="178.700000" y1="24.000000" x2="214.950000" y2="24.000000"  style="stroke:black; stroke-linecap:round; stroke-width:0.25;"/>
<line x1="178.700000" y1="144.000000" x2="214.950000" y2="144.000000"  style="stroke:black; stroke-linecap:round; stroke-width:0.25;"/>
<line x1="185.600000" y1="84.000000" x2="189.600000" y2="84.000000"  style="stroke:black; stroke-linecap:round; stroke-width:0.25;"/>
<line x1="185.600000" y1="116.000000" x2="189.600000" y2="116.000000"  style="stroke:black; stroke-linecap:round; stroke-width:0.25;"/>
<line x1="189.600000" y1="64.000000" x2="205.600000" y2="64.000000"  style="stroke:black; stroke-linecap:round; stroke-width:0.25;"/>
<line x1="189.600000" y1="84.000000" x2="189.600000" y2="64.000000"  style="stroke:black; stroke-linecap:round; stroke-width:0.25;"/>
<line x1="189.600000" y1="84.000000" x2="189.600000" y2="84.000000"  style="stroke:black; stroke-linecap:round; stroke-width:0.25;"/>
<line x1="189.600000" y1="116.000000" x2="197.600000" y2="116.000000"  style="stroke:black; stroke-linecap:round; stroke-width:0.25;"/>
<line x1="197.600000" y1="104.000000" x2="205.600000" y2="104.000000"  style="stroke:black; stroke-linecap:round; stroke-width:0.25;"/>
<line x1="197.600000" y1="116.000000" x2="197.600000" y2="104.000000"  style="stroke:black; stroke-linecap:round; stroke-width:0.25;"/>
<line x1="205.600000" y1="64.000000" x2="222.500000" y2="64.000000"  style="stroke:black; stroke-linecap:round; stroke-width:0.25;"/>
<line x1="205.600000" y1="104.000000" x2="222.500000" y2="104.000000"  style="stroke:black; stroke-linecap:round; stroke-width:0.25;"/>
<line x1="214.950000" y1="24.000000" x2="251.200000" y2="24.000000"  style="stroke:black; stroke-linecap:round; stroke-width:0.25;"/>
<line x1="214.950000" y1="144.000000" x2="251.200000" y2="144.000000"  style="stroke:black; stroke-linecap:round; stroke-width:0.25;"/>
<line x1="222.500000" y1="64.000000" x2="239.400000" y2="64.000000"  style="stroke:black; stroke-linecap:round; stroke-width:0.25;"/>
<line x1="222.500000" y1="104.000000" x2="239.400000" y2="104.000000"  style="stroke:black; stroke-linecap:round; stroke-width:0.25;"/>
<line x1="235.400000" y1="84.000000" x2="239.400000" y2="84.000000"  style="stroke:black; stroke-linecap:round; stroke-width:0.25;"/>
<line x1="235.400000" y1="124.000000" x2="239.400000" y2="124.000000"  style="stroke:black; stroke-linecap:round; stroke-width:0.25;"/>
<line x1="239.400000" y1="84.000000" x2="247.400000" y2="84.000000"  style="stroke:black; stroke-linecap:round; stroke-width:0.25;"/>
<line x1="239.400000" y1="124.000000" x2="247.400000" y2="124.000000"  style="stroke:black; stroke-linecap:round; stroke-width:0.25;"/>
<line x1="239.400000" y1="64.000000" x2="247.400000" y2="64.000000"  style="stroke:black; stroke-linecap:round; stroke-width:0.25;"/>
<line x1="239.400000" y1="104.000000" x2="247.400000" y2="104.000000"  style="stroke:black; stroke-linecap:round; stroke-width:0.25;"/>
<line x1="247.200000" y1="44.000000" x2="251.200000" y2="44.000000"  style="stroke:black; stroke-linecap:round; stroke-width:0.25;"/>
<line x1="247.200000" y1="164.000000" x2="251.200000" y2="164.000000"  style="stroke:black; stroke-linecap:round; stroke-width:0.25;"/>
<line x1="247.400000" y1="76.000000" x2="251.400000" y2="76.000000"  style="stroke:black; stroke-linecap:round; stroke-width:0.25;"/>
<line x1="247.400000" y1="84.000000" x2="251.400000" y2="84.000000"  style="stroke:black; stroke-linecap:round; stroke-width:0.25;"/>
<line x1="247.400000" y1="116.000000" x2="251.400000" y2="116.000000"  style="stroke:black; stroke-linecap:round; stroke-width:0.25;"/>
<line x1="247.400000" y1="124.000000" x2="251.400000" y2="124.000000"  style="stroke:black; stroke-linecap:round; stroke-width:0.25;"/>
<line x1="247.400000" y1="64.000000" x2="247.400000" y2="76.000000"  style="stroke:black; stroke-linecap:round; stroke-width:0.25;"/>
<line x1="247.400000" y1="76.000000" x2="247.400000" y2="76.000000"  style="stroke:black; stroke-linecap:round; stroke-width:0.25;"/>
<line x1="247.400000" y1="104.000000" x2="247.400000" y2="116.000000"  style="stroke:black; stroke-linecap:round; stroke-width:0.25;"/>
<line x1="247.400000" y1="116.000000" x2="247.400000" y2="116.000000"  style="stroke:black; stroke-linecap:round; stroke-width:0.25;"/>
<line x1="251.200000" y1="24.000000" x2="259.200000" y2="24.000000"  style="stroke:black; stroke-linecap:round; stroke-width:0.25;"/>
<line x1="251.200000" y1="44.000000" x2="259.200000" y2="44.000000"  style="stroke:black; stroke-linecap:round; stroke-width:0.25;"/>
<line x1="251.200000" y1="144.000000" x2="259.200000" y2="144.000000"  style="stroke:black; stroke-linecap:round; stroke-width:0.25;"/>
<line x1="251.200000" y1="164.000000" x2="259.200000" y2="164.000000"  style="stroke:black; stroke-linecap:round; stroke-width:0.25;"/>
<line x1="259.200000" y1="24.000000" x2="259.200000" y2="36.000000"  style="stroke:black; stroke-linecap:round; stroke-width:0.25;"/>
<line x1="259.200000" y1="36.000000" x2="259.200000" y2="36.000000"  style="stroke:black; stroke-linecap:round; stroke-width:0.25;"/>
<line x1="259.200000" y1="36.000000" x2="263.200000" y2="36.000000"  style="stroke:black; stroke-linecap:round; stroke-width:0.25;"/>
<line x1="259.200000" y1="44.000000" x2="263.200000" y2="44.000000"  style="stroke:black; stroke-linecap:round; stroke-width:0.25;"/>
<line x1="259.200000" y1="144.000000" x2="259.200000" y2="156.000000"  style="stroke:black; stroke-linecap:round; stroke-width:0.25;"/>
<line x1="259.200000" y1="156.000000" x2="259.200000" y2="156.000000"  style="stroke:black; stroke-linecap:round; stroke-width:0.25;"/>
<line x1="259.200000" y1="156.000000" x2="263.200000" y2="156.000000"  style="stroke:black; stroke-linecap:round; stroke-width:0.25;"/>
<line x1="259.200000" y1="164.000000" x2="263.200000" y2="164.000000"  style="stroke:black; stroke-linecap:round; stroke-width:0.25;"/>
<line x1="275.400000" y1="80.000000" x2="279.400000" y2="80.000000"  style="stroke:black; stroke-linecap:round; stroke-width:0.25;"/>
<line x1="275.400000" y1="120.000000" x2="279.400000" y2="120.000000"  style="stroke:black; stroke-linecap:round; stroke-width:0.25;"/>
<line x1="279.400000" y1="64.000000" x2="287.400000" y2="64.000000"  style="stroke:black; stroke-linecap:round; stroke-width:0.25;"/>
<line x1="279.400000" y1="80.000000" x2="279.400000" y2="64.000000"  style="stroke:black; stroke-linecap:round; stroke-width:0.25;"/>
<line x1="279.400000" y1="80.000000" x2="279.400000" y2="80.000000"  style="stroke:black; stroke-linecap:round; stroke-width:0.25;"/>
<line x1="279.400000" y1="104.000000" x2="287.400000" y2="104.000000"  style="stroke:black; stroke-linecap:round; stroke-width:0.25;"/>
<line x1="279.400000" y1="120.000000" x2="279.400000" y2="104.000000"  style="stroke:black; stroke-linecap:round; stroke-width:0.25;"/>
<line x1="279.400000" y1="120.000000" x2="279.400000" y2="120.000000"  style="stroke:black; stroke-linecap:round; stroke-width:0.25;"/>
<line x1="287.200000" y1="40.000000" x2="291.200000" y2="40.000000"  style="stroke:black; stroke-linecap:round; stroke-width:0.25;"/>
<line x1="287.200000" y1="160.000000" x2="291.200000" y2="160.000000"  style="stroke:black; stroke-linecap:round; stroke-width:0.25;"/>
<line x1="287.400000" y1="64.000000" x2="323.650000" y2="64.000000"  style="stroke:black; stroke-linecap:round; stroke-width:0.25;"/>
<line x1="287.400000" y1="104.000000" x2="323.650000" y2="104.000000"  style="stroke:black; stroke-linecap:round; stroke-width:0.25;"/>
<line x1="291.200000" y1="40.000000" x2="399.900000" y2="40.000000"  style="stroke:black; stroke-linecap:round; stroke-width:0.25;"/>
<line x1="291.200000" y1="160.000000" x2="399.900000" y2="160.000000"  style="stroke:black; stroke-linecap:round; stroke-width:0.25;"/>
<line x1="323.650000" y1="64.000000" x2="359.900000" y2="64.000000"  style="stroke:black; stroke-linecap:round; stroke-width:0.25;"/>
<line x1="323.650000" y1="104.000000" x2="359.900000" y2="104.000000"  style="stroke:black; stroke-linecap:round; stroke-width:0.25;"/>
<line x1="355.900000" y1="84.000000" x2="359.900000" y2="84.000000"  style="stroke:black; stroke-linecap:round; stroke-width:0.25;"/>
<line x1="355.900000" y1="124.000000" x2="359.900000" y2="124.000000"  style="stroke:black; stroke-linecap:round; stroke-width:0.25;"/>
<line x1="359.900000" y1="64.000000" x2="367.900000" y2="64.000000"  style="stroke:black; stroke-linecap:round; stroke-width:0.25;"/>
<line x1="359.900000" y1="84.000000" x2="367.900000" y2="84.000000"  style="stroke:black; stroke-linecap:round; stroke-width:0.25;"/>
<line x1="359.900000" y1="104.000000" x2="367.900000" y2="104.000000"  style="stroke:black; stroke-linecap:round; stroke-width:0.25;"/>
<line x1="359.900000" y1="124.000000" x2="367.900000" y2="124.000000"  style="stroke:black; stroke-linecap:round; stroke-width:0.25;"/>
<line x1="367.900000" y1="64.000000" x2="367.900000" y2="76.000000"  style="stroke:black; stroke-linecap:round; stroke-width:0.25;"/>
<line x1="367.900000" y1="76.000000" x2="367.900000" y2="76.000000"  style="stroke:black; stroke-linecap:round; stroke-width:0.25;"/>
<line x1="367.900000" y1="76.000000" x2="371.900000" y2="76.000000"  style="stroke:black; stroke-linecap:round; stroke-width:0.25;"/>
<line x1="367.900000" y1="84.000000" x2="371.900000" y2="84.000000"  style="stroke:black; stroke-linecap:round; stroke-width:0.25;"/>
<line x1="367.900000" y1="104.000000" x2="367.900000" y2="116.000000"  style="stroke:black; stroke-linecap:round; stroke-width:0.25;"/>
<line x1="367.900000" y1="116.000000" x2="367.900000" y2="116.000000"  style="stroke:black; stroke-linecap:round; stroke-width:0.25;"/>
<line x1="367.900000" y1="116.000000" x2="371.900000" y2="116.000000"  style="stroke:black; stroke-linecap:round; stroke-width:0.25;"/>
<line x1="367.900000" y1="124.000000" x2="371.900000" y2="124.000000"  style="stroke:black; stroke-linecap:round; stroke-width:0.25;"/>
<line x1="395.900000" y1="80.000000" x2="399.900000" y2="80.000000"  style="stroke:black; stroke-linecap:round; stroke-width:0.25;"/>
<line x1="395.900000" y1="120.000000" x2="399.900000" y2="120.000000"  style="stroke:black; stroke-linecap:round; stroke-width:0.25;"/>
<line x1="399.900000" y1="40.000000" x2="415.900000" y2="40.000000"  style="stroke:black; stroke-linecap:round; stroke-width:0.25;"/>
<line x1="399.900000" y1="80.000000" x2="407.900000" y2="80.000000"  style="stroke:black; stroke-linecap:round; stroke-width:0.25;"/>
<line x1="399.900000" y1="112.000000" x2="415.900000" y2="112.000000"  style="stroke:black; stroke-linecap:round; stroke-width:0.25;"/>
<line x1="399.900000" y1="120.000000" x2="399.900000" y2="112.000000"  style="stroke:black; stroke-linecap:round; stroke-width:0.25;"/>
<line x1="399.900000" y1="120.000000" x2="399.900000" y2="120.000000"  style="stroke:black; stroke-linecap:round; stroke-width:0.25;"/>
<line x1="399.900000" y1="160.000000" x2="407.900000" y2="160.000000"  style="stroke:black; stroke-linecap:round; stroke-width:0.25;"/>
<line x1="407.900000" y1="80.000000" x2="407.900000" y2="88.000000"  style="stroke:black; stroke-linecap:round; stroke-width:0.25;"/>
<line x1="407.900000" y1="88.000000" x2="415.900000" y2="88.000000"  style="stroke:black; stroke-linecap:round; stroke-width:0.25;"/>
<line x1="407.900000" y1="120.000000" x2="415.900000" y2="120.000000"  style="stroke:black; stroke-linecap:round; stroke-width:0.25;"/>
<line x1="407.900000" y1="160.000000" x2="407.900000" y2="120.000000"  style="stroke:black; stroke-linecap:round; stroke-width:0.25;"/>
<line x1="415.900000" y1="40.000000" x2="415.900000" y2="80.000000"  style="stroke:black; stroke-linecap:round; stroke-width:0.25;"/>
<line x1="415.900000" y1="80.000000" x2="415.900000" y2="80.000000"  style="stroke:black; stroke-linecap:round; stroke-width:0.25;"/>
<line x1="415.900000" y1="80.000000" x2="419.900000" y2="80.000000"  style="stroke:black; stroke-linecap:round; stroke-width:0.25;"/>
<line x1="415.900000" y1="88.000000" x2="415.900000" y2="88.000000"  style="stroke:black; stroke-linecap:round; stroke-width:0.25;"/>
<line x1="415.900000" y1="88.000000" x2="419.900000" y2="88.000000"  style="stroke:black; stroke-linecap:round; stroke-width:0.25;"/>
<line x1="415.900000" y1="112.000000" x2="415.900000" y2="112.000000"  style="stroke:black; stroke-linecap:round; stroke-width:0.25;"/>
<line x1="415.900000" y1="112.000000" x2="419.900000" y2="112.000000"  style="stroke:black; stroke-linecap:round; stroke-width:0.25;"/>
<line x1="415.900000" y1="120.000000" x2="415.900000" y2="120.000000"  style="stroke:black; stroke-linecap:round; stroke-width:0.25;"/>
<line x1="415.900000" y1="120.000000" x2="419.900000" y2="120.000000"  style="stroke:black; stroke-linecap:round; stroke-width:0.25;"/>
<line x1="443.900000" y1="84.000000" x2="447.900000" y2="84.000000"  style="stroke:black; stroke-linecap:round; stroke-width:0.25;"/>
<line x1="443.900000" y1="116.000000" x2="447.900000" y2="116.000000"  style="stroke:black; stroke-linecap:round; stroke-width:0.25;"/>
<line x1="447.900000" y1="84.000000" x2="457.900000" y2="84.000000"  style="stroke:black; stroke-linecap:round; stroke-width:0.25;"/>
<line x1="447.900000" y1="116.000000" x2="457.900000" y2="116.000000"  style="stroke:black; stroke-linecap:round; stroke-width:0.25;"/>
</svg>
