<?xml version="1.0"?>
<svg xmlns="http://www.w3.org/2000/svg" xmlns:xlink="http://www.w3.org/1999/xlink" viewBox="0 0 592.500000 164.000000" width="296.250000mm" height="82.000000mm" version="1.1">
<defs>
   <filter id="filter" filterRes="18" x="0" y="0">
     <feGaussianBlur in="SourceGraphic" stdDeviation="1.55" result="blur"/>
     <feOffset in="blur" dx="3" dy="3"/>
   </filter>
</defs>
<a xlink:href="Early-0x1888ba0.svg">
<rect x="1.000000" y="1.000000" width="591.500000" height="163.000000" rx="0.1" ry="0.1" style="stroke:none;fill:#aaaaaa;;filter:url(#filter);"/>
<rect x="0.000000" y="0.000000" width="591.500000" height="163.000000" rx="0" ry="0" style="stroke:none;fill:#ffffff;"/>
</a>
<text x="10.000000" y="7.000000" font-family="Arial" font-size="7"></text>
<rect x="68.000000" y="55.000000" width="24.000000" height="24.000000" rx="0.1" ry="0.1" style="stroke:none;fill:#aaaaaa;;filter:url(#filter);"/>
<rect x="67.000000" y="54.000000" width="24.000000" height="24.000000" rx="0" ry="0" style="stroke:none;fill:#4B71A1;"/>
<text x="79.000000" y="68.000000" font-family="Arial" font-size="7" text-anchor="middle" fill="#FFFFFF">-</text>
<circle cx="69.000000" cy="56.000000" r="1"/>
<line x1="64.000000" y1="61.000000" x2="67.000000" y2="62.000000"  transform="rotate(0.000000,67.000000,62.000000)" style="stroke: black; stroke-width:0.25;"/>
<line x1="64.000000" y1="63.000000" x2="67.000000" y2="62.000000"  transform="rotate(0.000000,67.000000,62.000000)" style="stroke: black; stroke-width:0.25;"/>
<line x1="64.000000" y1="69.000000" x2="67.000000" y2="70.000000"  transform="rotate(0.000000,67.000000,70.000000)" style="stroke: black; stroke-width:0.25;"/>
<line x1="64.000000" y1="71.000000" x2="67.000000" y2="70.000000"  transform="rotate(0.000000,67.000000,70.000000)" style="stroke: black; stroke-width:0.25;"/>
<rect x="118.000000" y="43.000000" width="167.700000" height="24.000000" rx="0.1" ry="0.1" style="stroke:none;fill:#aaaaaa;;filter:url(#filter);"/>
<rect x="117.000000" y="42.000000" width="167.700000" height="24.000000" rx="0" ry="0" style="stroke:none;fill:#477881;"/>
<text x="200.850000" y="56.000000" font-family="Arial" font-size="7" text-anchor="middle" fill="#FFFFFF">hslider(freezeleng, 0.6, 0.1, 15, 0.1)</text>
<circle cx="119.000000" cy="44.000000" r="1"/>
<line x1="108.000000" y1="33.000000" x2="108.000000" y2="75.000000"  style="stroke: black; stroke-linecap:round; stroke-width:0.25; stroke-dasharray:3,3;"/>
<line x1="108.000000" y1="75.000000" x2="293.700000" y2="75.000000"  style="stroke: black; stroke-linecap:round; stroke-width:0.25; stroke-dasharray:3,3;"/>
<line x1="293.700000" y1="75.000000" x2="293.700000" y2="33.000000"  style="stroke: black; stroke-linecap:round; stroke-width:0.25; stroke-dasharray:3,3;"/>
<line x1="108.000000" y1="33.000000" x2="113.000000" y2="33.000000"  style="stroke: black; stroke-linecap:round; stroke-width:0.25; stroke-dasharray:3,3;"/>
<line x1="142.025000" y1="33.000000" x2="293.700000" y2="33.000000"  style="stroke: black; stroke-linecap:round; stroke-width:0.25; stroke-dasharray:3,3;"/>
<text x="113.000000" y="35.000000" font-family="Arial" font-size="7">DelTime</text>
<rect x="189.850000" y="85.000000" width="24.000000" height="24.000000" rx="0.1" ry="0.1" style="stroke:none;fill:#aaaaaa;;filter:url(#filter);"/>
<rect x="188.850000" y="84.000000" width="24.000000" height="24.000000" rx="0" ry="0" style="stroke:none;fill:#f44800;"/>
<text x="200.850000" y="98.000000" font-family="Arial" font-size="7" text-anchor="middle" fill="#FFFFFF">454</text>
<circle cx="190.850000" cy="86.000000" r="1"/>
<rect x="311.700000" y="59.000000" width="24.000000" height="24.000000" rx="0.1" ry="0.1" style="stroke:none;fill:#aaaaaa;;filter:url(#filter);"/>
<rect x="310.700000" y="58.000000" width="24.000000" height="24.000000" rx="0" ry="0" style="stroke:none;fill:#4B71A1;"/>
<text x="322.700000" y="72.000000" font-family="Arial" font-size="7" text-anchor="middle" fill="#FFFFFF">*</text>
<circle cx="312.700000" cy="60.000000" r="1"/>
<line x1="307.700000" y1="65.000000" x2="310.700000" y2="66.000000"  transform="rotate(0.000000,310.700000,66.000000)" style="stroke: black; stroke-width:0.25;"/>
<line x1="307.700000" y1="67.000000" x2="310.700000" y2="66.000000"  transform="rotate(0.000000,310.700000,66.000000)" style="stroke: black; stroke-width:0.25;"/>
<line x1="307.700000" y1="73.000000" x2="310.700000" y2="74.000000"  transform="rotate(0.000000,310.700000,74.000000)" style="stroke: black; stroke-width:0.25;"/>
<line x1="307.700000" y1="75.000000" x2="310.700000" y2="74.000000"  transform="rotate(0.000000,310.700000,74.000000)" style="stroke: black; stroke-width:0.25;"/>
<rect x="343.700000" y="59.000000" width="24.000000" height="24.000000" rx="0.1" ry="0.1" style="stroke:none;fill:#aaaaaa;;filter:url(#filter);"/>
<rect x="342.700000" y="58.000000" width="24.000000" height="24.000000" rx="0" ry="0" style="stroke:none;fill:#4B71A1;"/>
<text x="354.700000" y="72.000000" font-family="Arial" font-size="7" text-anchor="middle" fill="#FFFFFF">int</text>
<circle cx="344.700000" cy="60.000000" r="1"/>
<line x1="339.700000" y1="69.000000" x2="342.700000" y2="70.000000"  transform="rotate(0.000000,342.700000,70.000000)" style="stroke: black; stroke-width:0.25;"/>
<line x1="339.700000" y1="71.000000" x2="342.700000" y2="70.000000"  transform="rotate(0.000000,342.700000,70.000000)" style="stroke: black; stroke-width:0.25;"/>
<rect x="383.700000" y="55.000000" width="24.000000" height="24.000000" rx="0.1" ry="0.1" style="stroke:none;fill:#aaaaaa;;filter:url(#filter);"/>
<rect x="382.700000" y="54.000000" width="24.000000" height="24.000000" rx="0" ry="0" style="stroke:none;fill:#f44800;"/>
<text x="394.700000" y="68.000000" font-family="Arial" font-size="7" text-anchor="middle" fill="#FFFFFF">1</text>
<circle cx="384.700000" cy="56.000000" r="1"/>
<rect x="423.700000" y="59.000000" width="24.000000" height="24.000000" rx="0.1" ry="0.1" style="stroke:none;fill:#aaaaaa;;filter:url(#filter);"/>
<rect x="422.700000" y="58.000000" width="24.000000" height="24.000000" rx="0" ry="0" style="stroke:none;fill:#4B71A1;"/>
<text x="434.700000" y="72.000000" font-family="Arial" font-size="7" text-anchor="middle" fill="#FFFFFF">max</text>
<circle cx="424.700000" cy="60.000000" r="1"/>
<line x1="419.700000" y1="65.000000" x2="422.700000" y2="66.000000"  transform="rotate(0.000000,422.700000,66.000000)" style="stroke: black; stroke-width:0.25;"/>
<line x1="419.700000" y1="67.000000" x2="422.700000" y2="66.000000"  transform="rotate(0.000000,422.700000,66.000000)" style="stroke: black; stroke-width:0.25;"/>
<line x1="419.700000" y1="73.000000" x2="422.700000" y2="74.000000"  transform="rotate(0.000000,422.700000,74.000000)" style="stroke: black; stroke-width:0.25;"/>
<line x1="419.700000" y1="75.000000" x2="422.700000" y2="74.000000"  transform="rotate(0.000000,422.700000,74.000000)" style="stroke: black; stroke-width:0.25;"/>
<rect x="463.700000" y="55.000000" width="25.800000" height="24.000000" rx="0.1" ry="0.1" style="stroke:none;fill:#aaaaaa;;filter:url(#filter);"/>
<rect x="462.700000" y="54.000000" width="25.800000" height="24.000000" rx="0" ry="0" style="stroke:none;fill:#f44800;"/>
<text x="475.600000" y="68.000000" font-family="Arial" font-size="7" text-anchor="middle" fill="#FFFFFF">33060</text>
<circle cx="464.700000" cy="56.000000" r="1"/>
<rect x="505.500000" y="59.000000" width="24.000000" height="24.000000" rx="0.1" ry="0.1" style="stroke:none;fill:#aaaaaa;;filter:url(#filter);"/>
<rect x="504.500000" y="58.000000" width="24.000000" height="24.000000" rx="0" ry="0" style="stroke:none;fill:#4B71A1;"/>
<text x="516.500000" y="72.000000" font-family="Arial" font-size="7" text-anchor="middle" fill="#FFFFFF">min</text>
<circle cx="506.500000" cy="60.000000" r="1"/>
<line x1="501.500000" y1="65.000000" x2="504.500000" y2="66.000000"  transform="rotate(0.000000,504.500000,66.000000)" style="stroke: black; stroke-width:0.25;"/>
<line x1="501.500000" y1="67.000000" x2="504.500000" y2="66.000000"  transform="rotate(0.000000,504.500000,66.000000)" style="stroke: black; stroke-width:0.25;"/>
<line x1="501.500000" y1="73.000000" x2="504.500000" y2="74.000000"  transform="rotate(0.000000,504.500000,74.000000)" style="stroke: black; stroke-width:0.25;"/>
<line x1="501.500000" y1="75.000000" x2="504.500000" y2="74.000000"  transform="rotate(0.000000,504.500000,74.000000)" style="stroke: black; stroke-width:0.25;"/>
<rect x="545.500000" y="55.000000" width="24.000000" height="24.000000" rx="0.1" ry="0.1" style="stroke:none;fill:#aaaaaa;;filter:url(#filter);"/>
<rect x="544.500000" y="54.000000" width="24.000000" height="24.000000" rx="0" ry="0" style="stroke:none;fill:#4B71A1;"/>
<text x="556.500000" y="68.000000" font-family="Arial" font-size="7" text-anchor="middle" fill="#FFFFFF">@</text>
<circle cx="546.500000" cy="56.000000" r="1"/>
<line x1="541.500000" y1="61.000000" x2="544.500000" y2="62.000000"  transform="rotate(0.000000,544.500000,62.000000)" style="stroke: black; stroke-width:0.25;"/>
<line x1="541.500000" y1="63.000000" x2="544.500000" y2="62.000000"  transform="rotate(0.000000,544.500000,62.000000)" style="stroke: black; stroke-width:0.25;"/>
<line x1="541.500000" y1="69.000000" x2="544.500000" y2="70.000000"  transform="rotate(0.000000,544.500000,70.000000)" style="stroke: black; stroke-width:0.25;"/>
<line x1="541.500000" y1="71.000000" x2="544.500000" y2="70.000000"  transform="rotate(0.000000,544.500000,70.000000)" style="stroke: black; stroke-width:0.25;"/>
<rect x="306.750000" y="117.000000" width="24.000000" height="24.000000" rx="0.1" ry="0.1" style="stroke:none;fill:#aaaaaa;;filter:url(#filter);"/>
<rect x="305.750000" y="116.000000" width="24.000000" height="24.000000" rx="0" ry="0" style="stroke:none;fill:#4B71A1;"/>
<text x="317.750000" y="130.000000" font-family="Arial" font-size="7" text-anchor="middle" fill="#FFFFFF">+</text>
<circle cx="307.750000" cy="118.000000" r="1"/>
<line x1="302.750000" y1="123.000000" x2="305.750000" y2="124.000000"  transform="rotate(0.000000,305.750000,124.000000)" style="stroke: black; stroke-width:0.25;"/>
<line x1="302.750000" y1="125.000000" x2="305.750000" y2="124.000000"  transform="rotate(0.000000,305.750000,124.000000)" style="stroke: black; stroke-width:0.25;"/>
<line x1="302.750000" y1="131.000000" x2="305.750000" y2="132.000000"  transform="rotate(0.000000,305.750000,132.000000)" style="stroke: black; stroke-width:0.25;"/>
<line x1="302.750000" y1="133.000000" x2="305.750000" y2="132.000000"  transform="rotate(0.000000,305.750000,132.000000)" style="stroke: black; stroke-width:0.25;"/>
<line x1="15.000000" y1="15.000000" x2="15.000000" y2="149.000000"  style="stroke: black; stroke-linecap:round; stroke-width:0.25; stroke-dasharray:3,3;"/>
<line x1="15.000000" y1="149.000000" x2="577.500000" y2="149.000000"  style="stroke: black; stroke-linecap:round; stroke-width:0.25; stroke-dasharray:3,3;"/>
<line x1="577.500000" y1="149.000000" x2="577.500000" y2="15.000000"  style="stroke: black; stroke-linecap:round; stroke-width:0.25; stroke-dasharray:3,3;"/>
<line x1="15.000000" y1="15.000000" x2="20.000000" y2="15.000000"  style="stroke: black; stroke-linecap:round; stroke-width:0.25; stroke-dasharray:3,3;"/>
<line x1="52.250000" y1="15.000000" x2="577.500000" y2="15.000000"  style="stroke: black; stroke-linecap:round; stroke-width:0.25; stroke-dasharray:3,3;"/>
<text x="20.000000" y="17.000000" font-family="Arial" font-size="7">Del(454)</text>
<line x1="579.500000" y1="65.000000" x2="582.500000" y2="66.000000"  transform="rotate(0.000000,582.500000,66.000000)" style="stroke: black; stroke-width:0.25;"/>
<line x1="579.500000" y1="67.000000" x2="582.500000" y2="66.000000"  transform="rotate(0.000000,582.500000,66.000000)" style="stroke: black; stroke-width:0.25;"/>
<line x1="579.500000" y1="127.000000" x2="582.500000" y2="128.000000"  transform="rotate(0.000000,582.500000,128.000000)" style="stroke: black; stroke-width:0.25;"/>
<line x1="579.500000" y1="129.000000" x2="582.500000" y2="128.000000"  transform="rotate(0.000000,582.500000,128.000000)" style="stroke: black; stroke-width:0.25;"/>
<line x1="10.000000" y1="78.000000" x2="20.000000" y2="78.000000"  style="stroke:black; stroke-linecap:round; stroke-width:0.25;"/>
<line x1="10.000000" y1="86.000000" x2="20.000000" y2="86.000000"  style="stroke:black; stroke-linecap:round; stroke-width:0.25;"/>
<line x1="20.000000" y1="78.000000" x2="24.000000" y2="78.000000"  style="stroke:black; stroke-linecap:round; stroke-width:0.25;"/>
<line x1="20.000000" y1="86.000000" x2="24.000000" y2="86.000000"  style="stroke:black; stroke-linecap:round; stroke-width:0.25;"/>
<line x1="24.000000" y1="78.000000" x2="28.000000" y2="78.000000"  style="stroke:black; stroke-linecap:round; stroke-width:0.25;"/>
<line x1="24.000000" y1="86.000000" x2="28.000000" y2="86.000000"  style="stroke:black; stroke-linecap:round; stroke-width:0.25;"/>
<line x1="28.000000" y1="78.000000" x2="63.000000" y2="62.000000"  style="stroke:black; stroke-linecap:round; stroke-width:0.25;"/>
<line x1="28.000000" y1="78.000000" x2="63.000000" y2="124.000000"  style="stroke:black; stroke-linecap:round; stroke-width:0.25;"/>
<line x1="28.000000" y1="86.000000" x2="63.000000" y2="70.000000"  style="stroke:black; stroke-linecap:round; stroke-width:0.25;"/>
<line x1="28.000000" y1="86.000000" x2="63.000000" y2="132.000000"  style="stroke:black; stroke-linecap:round; stroke-width:0.25;"/>
<line x1="63.000000" y1="62.000000" x2="63.000000" y2="62.000000"  style="stroke:black; stroke-linecap:round; stroke-width:0.25;"/>
<line x1="63.000000" y1="62.000000" x2="67.000000" y2="62.000000"  style="stroke:black; stroke-linecap:round; stroke-width:0.25;"/>
<line x1="63.000000" y1="70.000000" x2="63.000000" y2="70.000000"  style="stroke:black; stroke-linecap:round; stroke-width:0.25;"/>
<line x1="63.000000" y1="70.000000" x2="67.000000" y2="70.000000"  style="stroke:black; stroke-linecap:round; stroke-width:0.25;"/>
<line x1="63.000000" y1="124.000000" x2="301.750000" y2="124.000000"  style="stroke:black; stroke-linecap:round; stroke-width:0.25;"/>
<line x1="63.000000" y1="132.000000" x2="301.750000" y2="132.000000"  style="stroke:black; stroke-linecap:round; stroke-width:0.25;"/>
<line x1="91.000000" y1="66.000000" x2="95.000000" y2="66.000000"  style="stroke:black; stroke-linecap:round; stroke-width:0.25;"/>
<line x1="95.000000" y1="24.000000" x2="103.000000" y2="24.000000"  style="stroke:black; stroke-linecap:round; stroke-width:0.25;"/>
<line x1="95.000000" y1="66.000000" x2="95.000000" y2="24.000000"  style="stroke:black; stroke-linecap:round; stroke-width:0.25;"/>
<line x1="95.000000" y1="66.000000" x2="95.000000" y2="66.000000"  style="stroke:black; stroke-linecap:round; stroke-width:0.25;"/>
<line x1="103.000000" y1="24.000000" x2="317.750000" y2="24.000000"  style="stroke:black; stroke-linecap:round; stroke-width:0.25;"/>
<line x1="212.850000" y1="96.000000" x2="216.850000" y2="96.000000"  style="stroke:black; stroke-linecap:round; stroke-width:0.25;"/>
<line x1="216.850000" y1="96.000000" x2="298.700000" y2="96.000000"  style="stroke:black; stroke-linecap:round; stroke-width:0.25;"/>
<line x1="284.700000" y1="54.000000" x2="288.700000" y2="54.000000"  style="stroke:black; stroke-linecap:round; stroke-width:0.25;"/>
<line x1="288.700000" y1="54.000000" x2="298.700000" y2="54.000000"  style="stroke:black; stroke-linecap:round; stroke-width:0.25;"/>
<line x1="298.700000" y1="54.000000" x2="306.700000" y2="54.000000"  style="stroke:black; stroke-linecap:round; stroke-width:0.25;"/>
<line x1="298.700000" y1="74.000000" x2="306.700000" y2="74.000000"  style="stroke:black; stroke-linecap:round; stroke-width:0.25;"/>
<line x1="298.700000" y1="96.000000" x2="298.700000" y2="74.000000"  style="stroke:black; stroke-linecap:round; stroke-width:0.25;"/>
<line x1="298.700000" y1="96.000000" x2="298.700000" y2="96.000000"  style="stroke:black; stroke-linecap:round; stroke-width:0.25;"/>
<line x1="301.750000" y1="124.000000" x2="301.750000" y2="124.000000"  style="stroke:black; stroke-linecap:round; stroke-width:0.25;"/>
<line x1="301.750000" y1="124.000000" x2="305.750000" y2="124.000000"  style="stroke:black; stroke-linecap:round; stroke-width:0.25;"/>
<line x1="301.750000" y1="132.000000" x2="301.750000" y2="132.000000"  style="stroke:black; stroke-linecap:round; stroke-width:0.25;"/>
<line x1="301.750000" y1="132.000000" x2="305.750000" y2="132.000000"  style="stroke:black; stroke-linecap:round; stroke-width:0.25;"/>
<line x1="306.700000" y1="54.000000" x2="306.700000" y2="66.000000"  style="stroke:black; stroke-linecap:round; stroke-width:0.25;"/>
<line x1="306.700000" y1="66.000000" x2="306.700000" y2="66.000000"  style="stroke:black; stroke-linecap:round; stroke-width:0.25;"/>
<line x1="306.700000" y1="66.000000" x2="310.700000" y2="66.000000"  style="stroke:black; stroke-linecap:round; stroke-width:0.25;"/>
<line x1="306.700000" y1="74.000000" x2="310.700000" y2="74.000000"  style="stroke:black; stroke-linecap:round; stroke-width:0.25;"/>
<line x1="317.750000" y1="24.000000" x2="532.500000" y2="24.000000"  style="stroke:black; stroke-linecap:round; stroke-width:0.25;"/>
<line x1="329.750000" y1="128.000000" x2="333.750000" y2="128.000000"  style="stroke:black; stroke-linecap:round; stroke-width:0.25;"/>
<line x1="333.750000" y1="128.000000" x2="572.500000" y2="128.000000"  style="stroke:black; stroke-linecap:round; stroke-width:0.25;"/>
<line x1="334.700000" y1="70.000000" x2="338.700000" y2="70.000000"  style="stroke:black; stroke-linecap:round; stroke-width:0.25;"/>
<line x1="338.700000" y1="70.000000" x2="338.700000" y2="70.000000"  style="stroke:black; stroke-linecap:round; stroke-width:0.25;"/>
<line x1="338.700000" y1="70.000000" x2="342.700000" y2="70.000000"  style="stroke:black; stroke-linecap:round; stroke-width:0.25;"/>
<line x1="366.700000" y1="70.000000" x2="370.700000" y2="70.000000"  style="stroke:black; stroke-linecap:round; stroke-width:0.25;"/>
<line x1="370.700000" y1="70.000000" x2="378.700000" y2="70.000000"  style="stroke:black; stroke-linecap:round; stroke-width:0.25;"/>
<line x1="378.700000" y1="70.000000" x2="378.700000" y2="86.000000"  style="stroke:black; stroke-linecap:round; stroke-width:0.25;"/>
<line x1="378.700000" y1="86.000000" x2="378.700000" y2="86.000000"  style="stroke:black; stroke-linecap:round; stroke-width:0.25;"/>
<line x1="378.700000" y1="86.000000" x2="394.700000" y2="86.000000"  style="stroke:black; stroke-linecap:round; stroke-width:0.25;"/>
<line x1="394.700000" y1="86.000000" x2="410.700000" y2="86.000000"  style="stroke:black; stroke-linecap:round; stroke-width:0.25;"/>
<line x1="406.700000" y1="66.000000" x2="410.700000" y2="66.000000"  style="stroke:black; stroke-linecap:round; stroke-width:0.25;"/>
<line x1="410.700000" y1="66.000000" x2="418.700000" y2="66.000000"  style="stroke:black; stroke-linecap:round; stroke-width:0.25;"/>
<line x1="410.700000" y1="74.000000" x2="418.700000" y2="74.000000"  style="stroke:black; stroke-linecap:round; stroke-width:0.25;"/>
<line x1="410.700000" y1="86.000000" x2="410.700000" y2="74.000000"  style="stroke:black; stroke-linecap:round; stroke-width:0.25;"/>
<line x1="410.700000" y1="86.000000" x2="410.700000" y2="86.000000"  style="stroke:black; stroke-linecap:round; stroke-width:0.25;"/>
<line x1="418.700000" y1="66.000000" x2="422.700000" y2="66.000000"  style="stroke:black; stroke-linecap:round; stroke-width:0.25;"/>
<line x1="418.700000" y1="74.000000" x2="422.700000" y2="74.000000"  style="stroke:black; stroke-linecap:round; stroke-width:0.25;"/>
<line x1="446.700000" y1="70.000000" x2="450.700000" y2="70.000000"  style="stroke:black; stroke-linecap:round; stroke-width:0.25;"/>
<line x1="450.700000" y1="70.000000" x2="458.700000" y2="70.000000"  style="stroke:black; stroke-linecap:round; stroke-width:0.25;"/>
<line x1="458.700000" y1="70.000000" x2="458.700000" y2="86.000000"  style="stroke:black; stroke-linecap:round; stroke-width:0.25;"/>
<line x1="458.700000" y1="86.000000" x2="458.700000" y2="86.000000"  style="stroke:black; stroke-linecap:round; stroke-width:0.25;"/>
<line x1="458.700000" y1="86.000000" x2="475.600000" y2="86.000000"  style="stroke:black; stroke-linecap:round; stroke-width:0.25;"/>
<line x1="475.600000" y1="86.000000" x2="492.500000" y2="86.000000"  style="stroke:black; stroke-linecap:round; stroke-width:0.25;"/>
<line x1="488.500000" y1="66.000000" x2="492.500000" y2="66.000000"  style="stroke:black; stroke-linecap:round; stroke-width:0.25;"/>
<line x1="492.500000" y1="74.000000" x2="500.500000" y2="74.000000"  style="stroke:black; stroke-linecap:round; stroke-width:0.25;"/>
<line x1="492.500000" y1="86.000000" x2="492.500000" y2="74.000000"  style="stroke:black; stroke-linecap:round; stroke-width:0.25;"/>
<line x1="492.500000" y1="86.000000" x2="492.500000" y2="86.000000"  style="stroke:black; stroke-linecap:round; stroke-width:0.25;"/>
<line x1="492.500000" y1="66.000000" x2="500.500000" y2="66.000000"  style="stroke:black; stroke-linecap:round; stroke-width:0.25;"/>
<line x1="500.500000" y1="66.000000" x2="504.500000" y2="66.000000"  style="stroke:black; stroke-linecap:round; stroke-width:0.25;"/>
<line x1="500.500000" y1="74.000000" x2="504.500000" y2="74.000000"  style="stroke:black; stroke-linecap:round; stroke-width:0.25;"/>
<line x1="528.500000" y1="70.000000" x2="532.500000" y2="70.000000"  style="stroke:black; stroke-linecap:round; stroke-width:0.25;"/>
<line x1="532.500000" y1="24.000000" x2="540.500000" y2="24.000000"  style="stroke:black; stroke-linecap:round; stroke-width:0.25;"/>
<line x1="532.500000" y1="70.000000" x2="540.500000" y2="70.000000"  style="stroke:black; stroke-linecap:round; stroke-width:0.25;"/>
<line x1="540.500000" y1="24.000000" x2="540.500000" y2="62.000000"  style="stroke:black; stroke-linecap:round; stroke-width:0.25;"/>
<line x1="540.500000" y1="62.000000" x2="540.500000" y2="62.000000"  style="stroke:black; stroke-linecap:round; stroke-width:0.25;"/>
<line x1="540.500000" y1="62.000000" x2="544.500000" y2="62.000000"  style="stroke:black; stroke-linecap:round; stroke-width:0.25;"/>
<line x1="540.500000" y1="70.000000" x2="544.500000" y2="70.000000"  style="stroke:black; stroke-linecap:round; stroke-width:0.25;"/>
<line x1="568.500000" y1="66.000000" x2="572.500000" y2="66.000000"  style="stroke:black; stroke-linecap:round; stroke-width:0.25;"/>
<line x1="572.500000" y1="66.000000" x2="582.500000" y2="66.000000"  style="stroke:black; stroke-linecap:round; stroke-width:0.25;"/>
<line x1="572.500000" y1="128.000000" x2="582.500000" y2="128.000000"  style="stroke:black; stroke-linecap:round; stroke-width:0.25;"/>
</svg>
