<?xml version="1.0"?>
<svg xmlns="http://www.w3.org/2000/svg" xmlns:xlink="http://www.w3.org/1999/xlink" viewBox="0 0 553.800000 164.000000" width="276.900000mm" height="82.000000mm" version="1.1">
<defs>
   <filter id="filter" filterRes="18" x="0" y="0">
     <feGaussianBlur in="SourceGraphic" stdDeviation="1.55" result="blur"/>
     <feOffset in="blur" dx="3" dy="3"/>
   </filter>
</defs>
<a xlink:href="Early-0x2773ba0.svg">
<rect x="1.000000" y="1.000000" width="552.800000" height="163.000000" rx="0.1" ry="0.1" style="stroke:none;fill:#aaaaaa;;filter:url(#filter);"/>
<rect x="0.000000" y="0.000000" width="552.800000" height="163.000000" rx="0" ry="0" style="stroke:none;fill:#ffffff;"/>
</a>
<text x="10.000000" y="7.000000" font-family="Arial" font-size="7"></text>
<rect x="68.000000" y="55.000000" width="24.000000" height="24.000000" rx="0.1" ry="0.1" style="stroke:none;fill:#aaaaaa;;filter:url(#filter);"/>
<rect x="67.000000" y="54.000000" width="24.000000" height="24.000000" rx="0" ry="0" style="stroke:none;fill:#4B71A1;"/>
<text x="79.000000" y="68.000000" font-family="Arial" font-size="7" text-anchor="middle" fill="#FFFFFF">-</text>
<circle cx="69.000000" cy="56.000000" r="1"/>
<line x1="64.000000" y1="61.000000" x2="67.000000" y2="62.000000"  transform="rotate(0.000000,67.000000,62.000000)" style="stroke: black; stroke-width:0.25;"/>
<line x1="64.000000" y1="63.000000" x2="67.000000" y2="62.000000"  transform="rotate(0.000000,67.000000,62.000000)" style="stroke: black; stroke-width:0.25;"/>
<line x1="64.000000" y1="69.000000" x2="67.000000" y2="70.000000"  transform="rotate(0.000000,67.000000,70.000000)" style="stroke: black; stroke-width:0.25;"/>
<line x1="64.000000" y1="71.000000" x2="67.000000" y2="70.000000"  transform="rotate(0.000000,67.000000,70.000000)" style="stroke: black; stroke-width:0.25;"/>
<rect x="118.000000" y="43.000000" width="129.000000" height="24.000000" rx="0.1" ry="0.1" style="stroke:none;fill:#aaaaaa;;filter:url(#filter);"/>
<rect x="117.000000" y="42.000000" width="129.000000" height="24.000000" rx="0" ry="0" style="stroke:none;fill:#477881;"/>
<text x="181.500000" y="56.000000" font-family="Arial" font-size="7" text-anchor="middle" fill="#FFFFFF">hslider(, 0.6, 0.1, 15, 0.1)</text>
<circle cx="119.000000" cy="44.000000" r="1"/>
<line x1="108.000000" y1="33.000000" x2="108.000000" y2="75.000000"  style="stroke: black; stroke-linecap:round; stroke-width:0.25; stroke-dasharray:3,3;"/>
<line x1="108.000000" y1="75.000000" x2="255.000000" y2="75.000000"  style="stroke: black; stroke-linecap:round; stroke-width:0.25; stroke-dasharray:3,3;"/>
<line x1="255.000000" y1="75.000000" x2="255.000000" y2="33.000000"  style="stroke: black; stroke-linecap:round; stroke-width:0.25; stroke-dasharray:3,3;"/>
<line x1="108.000000" y1="33.000000" x2="113.000000" y2="33.000000"  style="stroke: black; stroke-linecap:round; stroke-width:0.25; stroke-dasharray:3,3;"/>
<line x1="142.025000" y1="33.000000" x2="255.000000" y2="33.000000"  style="stroke: black; stroke-linecap:round; stroke-width:0.25; stroke-dasharray:3,3;"/>
<text x="113.000000" y="35.000000" font-family="Arial" font-size="7">DelTime</text>
<rect x="170.500000" y="85.000000" width="24.000000" height="24.000000" rx="0.1" ry="0.1" style="stroke:none;fill:#aaaaaa;;filter:url(#filter);"/>
<rect x="169.500000" y="84.000000" width="24.000000" height="24.000000" rx="0" ry="0" style="stroke:none;fill:#f44800;"/>
<text x="181.500000" y="98.000000" font-family="Arial" font-size="7" text-anchor="middle" fill="#FFFFFF">1</text>
<circle cx="171.500000" cy="86.000000" r="1"/>
<rect x="273.000000" y="59.000000" width="24.000000" height="24.000000" rx="0.1" ry="0.1" style="stroke:none;fill:#aaaaaa;;filter:url(#filter);"/>
<rect x="272.000000" y="58.000000" width="24.000000" height="24.000000" rx="0" ry="0" style="stroke:none;fill:#4B71A1;"/>
<text x="284.000000" y="72.000000" font-family="Arial" font-size="7" text-anchor="middle" fill="#FFFFFF">*</text>
<circle cx="274.000000" cy="60.000000" r="1"/>
<line x1="269.000000" y1="65.000000" x2="272.000000" y2="66.000000"  transform="rotate(0.000000,272.000000,66.000000)" style="stroke: black; stroke-width:0.25;"/>
<line x1="269.000000" y1="67.000000" x2="272.000000" y2="66.000000"  transform="rotate(0.000000,272.000000,66.000000)" style="stroke: black; stroke-width:0.25;"/>
<line x1="269.000000" y1="73.000000" x2="272.000000" y2="74.000000"  transform="rotate(0.000000,272.000000,74.000000)" style="stroke: black; stroke-width:0.25;"/>
<line x1="269.000000" y1="75.000000" x2="272.000000" y2="74.000000"  transform="rotate(0.000000,272.000000,74.000000)" style="stroke: black; stroke-width:0.25;"/>
<rect x="305.000000" y="59.000000" width="24.000000" height="24.000000" rx="0.1" ry="0.1" style="stroke:none;fill:#aaaaaa;;filter:url(#filter);"/>
<rect x="304.000000" y="58.000000" width="24.000000" height="24.000000" rx="0" ry="0" style="stroke:none;fill:#4B71A1;"/>
<text x="316.000000" y="72.000000" font-family="Arial" font-size="7" text-anchor="middle" fill="#FFFFFF">int</text>
<circle cx="306.000000" cy="60.000000" r="1"/>
<line x1="301.000000" y1="69.000000" x2="304.000000" y2="70.000000"  transform="rotate(0.000000,304.000000,70.000000)" style="stroke: black; stroke-width:0.25;"/>
<line x1="301.000000" y1="71.000000" x2="304.000000" y2="70.000000"  transform="rotate(0.000000,304.000000,70.000000)" style="stroke: black; stroke-width:0.25;"/>
<rect x="345.000000" y="55.000000" width="24.000000" height="24.000000" rx="0.1" ry="0.1" style="stroke:none;fill:#aaaaaa;;filter:url(#filter);"/>
<rect x="344.000000" y="54.000000" width="24.000000" height="24.000000" rx="0" ry="0" style="stroke:none;fill:#f44800;"/>
<text x="356.000000" y="68.000000" font-family="Arial" font-size="7" text-anchor="middle" fill="#FFFFFF">1</text>
<circle cx="346.000000" cy="56.000000" r="1"/>
<rect x="385.000000" y="59.000000" width="24.000000" height="24.000000" rx="0.1" ry="0.1" style="stroke:none;fill:#aaaaaa;;filter:url(#filter);"/>
<rect x="384.000000" y="58.000000" width="24.000000" height="24.000000" rx="0" ry="0" style="stroke:none;fill:#4B71A1;"/>
<text x="396.000000" y="72.000000" font-family="Arial" font-size="7" text-anchor="middle" fill="#FFFFFF">max</text>
<circle cx="386.000000" cy="60.000000" r="1"/>
<line x1="381.000000" y1="65.000000" x2="384.000000" y2="66.000000"  transform="rotate(0.000000,384.000000,66.000000)" style="stroke: black; stroke-width:0.25;"/>
<line x1="381.000000" y1="67.000000" x2="384.000000" y2="66.000000"  transform="rotate(0.000000,384.000000,66.000000)" style="stroke: black; stroke-width:0.25;"/>
<line x1="381.000000" y1="73.000000" x2="384.000000" y2="74.000000"  transform="rotate(0.000000,384.000000,74.000000)" style="stroke: black; stroke-width:0.25;"/>
<line x1="381.000000" y1="75.000000" x2="384.000000" y2="74.000000"  transform="rotate(0.000000,384.000000,74.000000)" style="stroke: black; stroke-width:0.25;"/>
<rect x="425.000000" y="55.000000" width="25.800000" height="24.000000" rx="0.1" ry="0.1" style="stroke:none;fill:#aaaaaa;;filter:url(#filter);"/>
<rect x="424.000000" y="54.000000" width="25.800000" height="24.000000" rx="0" ry="0" style="stroke:none;fill:#f44800;"/>
<text x="436.900000" y="68.000000" font-family="Arial" font-size="7" text-anchor="middle" fill="#FFFFFF">33060</text>
<circle cx="426.000000" cy="56.000000" r="1"/>
<rect x="466.800000" y="59.000000" width="24.000000" height="24.000000" rx="0.1" ry="0.1" style="stroke:none;fill:#aaaaaa;;filter:url(#filter);"/>
<rect x="465.800000" y="58.000000" width="24.000000" height="24.000000" rx="0" ry="0" style="stroke:none;fill:#4B71A1;"/>
<text x="477.800000" y="72.000000" font-family="Arial" font-size="7" text-anchor="middle" fill="#FFFFFF">min</text>
<circle cx="467.800000" cy="60.000000" r="1"/>
<line x1="462.800000" y1="65.000000" x2="465.800000" y2="66.000000"  transform="rotate(0.000000,465.800000,66.000000)" style="stroke: black; stroke-width:0.25;"/>
<line x1="462.800000" y1="67.000000" x2="465.800000" y2="66.000000"  transform="rotate(0.000000,465.800000,66.000000)" style="stroke: black; stroke-width:0.25;"/>
<line x1="462.800000" y1="73.000000" x2="465.800000" y2="74.000000"  transform="rotate(0.000000,465.800000,74.000000)" style="stroke: black; stroke-width:0.25;"/>
<line x1="462.800000" y1="75.000000" x2="465.800000" y2="74.000000"  transform="rotate(0.000000,465.800000,74.000000)" style="stroke: black; stroke-width:0.25;"/>
<rect x="506.800000" y="55.000000" width="24.000000" height="24.000000" rx="0.1" ry="0.1" style="stroke:none;fill:#aaaaaa;;filter:url(#filter);"/>
<rect x="505.800000" y="54.000000" width="24.000000" height="24.000000" rx="0" ry="0" style="stroke:none;fill:#4B71A1;"/>
<text x="517.800000" y="68.000000" font-family="Arial" font-size="7" text-anchor="middle" fill="#FFFFFF">@</text>
<circle cx="507.800000" cy="56.000000" r="1"/>
<line x1="502.800000" y1="61.000000" x2="505.800000" y2="62.000000"  transform="rotate(0.000000,505.800000,62.000000)" style="stroke: black; stroke-width:0.25;"/>
<line x1="502.800000" y1="63.000000" x2="505.800000" y2="62.000000"  transform="rotate(0.000000,505.800000,62.000000)" style="stroke: black; stroke-width:0.25;"/>
<line x1="502.800000" y1="69.000000" x2="505.800000" y2="70.000000"  transform="rotate(0.000000,505.800000,70.000000)" style="stroke: black; stroke-width:0.25;"/>
<line x1="502.800000" y1="71.000000" x2="505.800000" y2="70.000000"  transform="rotate(0.000000,505.800000,70.000000)" style="stroke: black; stroke-width:0.25;"/>
<rect x="287.400000" y="117.000000" width="24.000000" height="24.000000" rx="0.1" ry="0.1" style="stroke:none;fill:#aaaaaa;;filter:url(#filter);"/>
<rect x="286.400000" y="116.000000" width="24.000000" height="24.000000" rx="0" ry="0" style="stroke:none;fill:#4B71A1;"/>
<text x="298.400000" y="130.000000" font-family="Arial" font-size="7" text-anchor="middle" fill="#FFFFFF">+</text>
<circle cx="288.400000" cy="118.000000" r="1"/>
<line x1="283.400000" y1="123.000000" x2="286.400000" y2="124.000000"  transform="rotate(0.000000,286.400000,124.000000)" style="stroke: black; stroke-width:0.25;"/>
<line x1="283.400000" y1="125.000000" x2="286.400000" y2="124.000000"  transform="rotate(0.000000,286.400000,124.000000)" style="stroke: black; stroke-width:0.25;"/>
<line x1="283.400000" y1="131.000000" x2="286.400000" y2="132.000000"  transform="rotate(0.000000,286.400000,132.000000)" style="stroke: black; stroke-width:0.25;"/>
<line x1="283.400000" y1="133.000000" x2="286.400000" y2="132.000000"  transform="rotate(0.000000,286.400000,132.000000)" style="stroke: black; stroke-width:0.25;"/>
<line x1="15.000000" y1="15.000000" x2="15.000000" y2="149.000000"  style="stroke: black; stroke-linecap:round; stroke-width:0.25; stroke-dasharray:3,3;"/>
<line x1="15.000000" y1="149.000000" x2="538.800000" y2="149.000000"  style="stroke: black; stroke-linecap:round; stroke-width:0.25; stroke-dasharray:3,3;"/>
<line x1="538.800000" y1="149.000000" x2="538.800000" y2="15.000000"  style="stroke: black; stroke-linecap:round; stroke-width:0.25; stroke-dasharray:3,3;"/>
<line x1="15.000000" y1="15.000000" x2="20.000000" y2="15.000000"  style="stroke: black; stroke-linecap:round; stroke-width:0.25; stroke-dasharray:3,3;"/>
<line x1="45.800000" y1="15.000000" x2="538.800000" y2="15.000000"  style="stroke: black; stroke-linecap:round; stroke-width:0.25; stroke-dasharray:3,3;"/>
<text x="20.000000" y="17.000000" font-family="Arial" font-size="7">Del(1)</text>
<line x1="540.800000" y1="65.000000" x2="543.800000" y2="66.000000"  transform="rotate(0.000000,543.800000,66.000000)" style="stroke: black; stroke-width:0.25;"/>
<line x1="540.800000" y1="67.000000" x2="543.800000" y2="66.000000"  transform="rotate(0.000000,543.800000,66.000000)" style="stroke: black; stroke-width:0.25;"/>
<line x1="540.800000" y1="127.000000" x2="543.800000" y2="128.000000"  transform="rotate(0.000000,543.800000,128.000000)" style="stroke: black; stroke-width:0.25;"/>
<line x1="540.800000" y1="129.000000" x2="543.800000" y2="128.000000"  transform="rotate(0.000000,543.800000,128.000000)" style="stroke: black; stroke-width:0.25;"/>
<line x1="10.000000" y1="78.000000" x2="20.000000" y2="78.000000"  style="stroke:black; stroke-linecap:round; stroke-width:0.25;"/>
<line x1="10.000000" y1="86.000000" x2="20.000000" y2="86.000000"  style="stroke:black; stroke-linecap:round; stroke-width:0.25;"/>
<line x1="20.000000" y1="78.000000" x2="24.000000" y2="78.000000"  style="stroke:black; stroke-linecap:round; stroke-width:0.25;"/>
<line x1="20.000000" y1="86.000000" x2="24.000000" y2="86.000000"  style="stroke:black; stroke-linecap:round; stroke-width:0.25;"/>
<line x1="24.000000" y1="78.000000" x2="28.000000" y2="78.000000"  style="stroke:black; stroke-linecap:round; stroke-width:0.25;"/>
<line x1="24.000000" y1="86.000000" x2="28.000000" y2="86.000000"  style="stroke:black; stroke-linecap:round; stroke-width:0.25;"/>
<line x1="28.000000" y1="78.000000" x2="63.000000" y2="124.000000"  style="stroke:black; stroke-linecap:round; stroke-width:0.25;"/>
<line x1="28.000000" y1="78.000000" x2="63.000000" y2="62.000000"  style="stroke:black; stroke-linecap:round; stroke-width:0.25;"/>
<line x1="28.000000" y1="86.000000" x2="63.000000" y2="132.000000"  style="stroke:black; stroke-linecap:round; stroke-width:0.25;"/>
<line x1="28.000000" y1="86.000000" x2="63.000000" y2="70.000000"  style="stroke:black; stroke-linecap:round; stroke-width:0.25;"/>
<line x1="63.000000" y1="124.000000" x2="282.400000" y2="124.000000"  style="stroke:black; stroke-linecap:round; stroke-width:0.25;"/>
<line x1="63.000000" y1="132.000000" x2="282.400000" y2="132.000000"  style="stroke:black; stroke-linecap:round; stroke-width:0.25;"/>
<line x1="63.000000" y1="62.000000" x2="63.000000" y2="62.000000"  style="stroke:black; stroke-linecap:round; stroke-width:0.25;"/>
<line x1="63.000000" y1="62.000000" x2="67.000000" y2="62.000000"  style="stroke:black; stroke-linecap:round; stroke-width:0.25;"/>
<line x1="63.000000" y1="70.000000" x2="63.000000" y2="70.000000"  style="stroke:black; stroke-linecap:round; stroke-width:0.25;"/>
<line x1="63.000000" y1="70.000000" x2="67.000000" y2="70.000000"  style="stroke:black; stroke-linecap:round; stroke-width:0.25;"/>
<line x1="91.000000" y1="66.000000" x2="95.000000" y2="66.000000"  style="stroke:black; stroke-linecap:round; stroke-width:0.25;"/>
<line x1="95.000000" y1="24.000000" x2="103.000000" y2="24.000000"  style="stroke:black; stroke-linecap:round; stroke-width:0.25;"/>
<line x1="95.000000" y1="66.000000" x2="95.000000" y2="24.000000"  style="stroke:black; stroke-linecap:round; stroke-width:0.25;"/>
<line x1="95.000000" y1="66.000000" x2="95.000000" y2="66.000000"  style="stroke:black; stroke-linecap:round; stroke-width:0.25;"/>
<line x1="103.000000" y1="24.000000" x2="298.400000" y2="24.000000"  style="stroke:black; stroke-linecap:round; stroke-width:0.25;"/>
<line x1="193.500000" y1="96.000000" x2="197.500000" y2="96.000000"  style="stroke:black; stroke-linecap:round; stroke-width:0.25;"/>
<line x1="197.500000" y1="96.000000" x2="260.000000" y2="96.000000"  style="stroke:black; stroke-linecap:round; stroke-width:0.25;"/>
<line x1="246.000000" y1="54.000000" x2="250.000000" y2="54.000000"  style="stroke:black; stroke-linecap:round; stroke-width:0.25;"/>
<line x1="250.000000" y1="54.000000" x2="260.000000" y2="54.000000"  style="stroke:black; stroke-linecap:round; stroke-width:0.25;"/>
<line x1="260.000000" y1="54.000000" x2="268.000000" y2="54.000000"  style="stroke:black; stroke-linecap:round; stroke-width:0.25;"/>
<line x1="260.000000" y1="74.000000" x2="268.000000" y2="74.000000"  style="stroke:black; stroke-linecap:round; stroke-width:0.25;"/>
<line x1="260.000000" y1="96.000000" x2="260.000000" y2="74.000000"  style="stroke:black; stroke-linecap:round; stroke-width:0.25;"/>
<line x1="260.000000" y1="96.000000" x2="260.000000" y2="96.000000"  style="stroke:black; stroke-linecap:round; stroke-width:0.25;"/>
<line x1="268.000000" y1="54.000000" x2="268.000000" y2="66.000000"  style="stroke:black; stroke-linecap:round; stroke-width:0.25;"/>
<line x1="268.000000" y1="66.000000" x2="268.000000" y2="66.000000"  style="stroke:black; stroke-linecap:round; stroke-width:0.25;"/>
<line x1="268.000000" y1="66.000000" x2="272.000000" y2="66.000000"  style="stroke:black; stroke-linecap:round; stroke-width:0.25;"/>
<line x1="268.000000" y1="74.000000" x2="272.000000" y2="74.000000"  style="stroke:black; stroke-linecap:round; stroke-width:0.25;"/>
<line x1="282.400000" y1="124.000000" x2="282.400000" y2="124.000000"  style="stroke:black; stroke-linecap:round; stroke-width:0.25;"/>
<line x1="282.400000" y1="124.000000" x2="286.400000" y2="124.000000"  style="stroke:black; stroke-linecap:round; stroke-width:0.25;"/>
<line x1="282.400000" y1="132.000000" x2="282.400000" y2="132.000000"  style="stroke:black; stroke-linecap:round; stroke-width:0.25;"/>
<line x1="282.400000" y1="132.000000" x2="286.400000" y2="132.000000"  style="stroke:black; stroke-linecap:round; stroke-width:0.25;"/>
<line x1="296.000000" y1="70.000000" x2="300.000000" y2="70.000000"  style="stroke:black; stroke-linecap:round; stroke-width:0.25;"/>
<line x1="298.400000" y1="24.000000" x2="493.800000" y2="24.000000"  style="stroke:black; stroke-linecap:round; stroke-width:0.25;"/>
<line x1="300.000000" y1="70.000000" x2="300.000000" y2="70.000000"  style="stroke:black; stroke-linecap:round; stroke-width:0.25;"/>
<line x1="300.000000" y1="70.000000" x2="304.000000" y2="70.000000"  style="stroke:black; stroke-linecap:round; stroke-width:0.25;"/>
<line x1="310.400000" y1="128.000000" x2="314.400000" y2="128.000000"  style="stroke:black; stroke-linecap:round; stroke-width:0.25;"/>
<line x1="314.400000" y1="128.000000" x2="533.800000" y2="128.000000"  style="stroke:black; stroke-linecap:round; stroke-width:0.25;"/>
<line x1="328.000000" y1="70.000000" x2="332.000000" y2="70.000000"  style="stroke:black; stroke-linecap:round; stroke-width:0.25;"/>
<line x1="332.000000" y1="70.000000" x2="340.000000" y2="70.000000"  style="stroke:black; stroke-linecap:round; stroke-width:0.25;"/>
<line x1="340.000000" y1="70.000000" x2="340.000000" y2="86.000000"  style="stroke:black; stroke-linecap:round; stroke-width:0.25;"/>
<line x1="340.000000" y1="86.000000" x2="340.000000" y2="86.000000"  style="stroke:black; stroke-linecap:round; stroke-width:0.25;"/>
<line x1="340.000000" y1="86.000000" x2="356.000000" y2="86.000000"  style="stroke:black; stroke-linecap:round; stroke-width:0.25;"/>
<line x1="356.000000" y1="86.000000" x2="372.000000" y2="86.000000"  style="stroke:black; stroke-linecap:round; stroke-width:0.25;"/>
<line x1="368.000000" y1="66.000000" x2="372.000000" y2="66.000000"  style="stroke:black; stroke-linecap:round; stroke-width:0.25;"/>
<line x1="372.000000" y1="66.000000" x2="380.000000" y2="66.000000"  style="stroke:black; stroke-linecap:round; stroke-width:0.25;"/>
<line x1="372.000000" y1="74.000000" x2="380.000000" y2="74.000000"  style="stroke:black; stroke-linecap:round; stroke-width:0.25;"/>
<line x1="372.000000" y1="86.000000" x2="372.000000" y2="74.000000"  style="stroke:black; stroke-linecap:round; stroke-width:0.25;"/>
<line x1="372.000000" y1="86.000000" x2="372.000000" y2="86.000000"  style="stroke:black; stroke-linecap:round; stroke-width:0.25;"/>
<line x1="380.000000" y1="66.000000" x2="384.000000" y2="66.000000"  style="stroke:black; stroke-linecap:round; stroke-width:0.25;"/>
<line x1="380.000000" y1="74.000000" x2="384.000000" y2="74.000000"  style="stroke:black; stroke-linecap:round; stroke-width:0.25;"/>
<line x1="408.000000" y1="70.000000" x2="412.000000" y2="70.000000"  style="stroke:black; stroke-linecap:round; stroke-width:0.25;"/>
<line x1="412.000000" y1="70.000000" x2="420.000000" y2="70.000000"  style="stroke:black; stroke-linecap:round; stroke-width:0.25;"/>
<line x1="420.000000" y1="70.000000" x2="420.000000" y2="86.000000"  style="stroke:black; stroke-linecap:round; stroke-width:0.25;"/>
<line x1="420.000000" y1="86.000000" x2="420.000000" y2="86.000000"  style="stroke:black; stroke-linecap:round; stroke-width:0.25;"/>
<line x1="420.000000" y1="86.000000" x2="436.900000" y2="86.000000"  style="stroke:black; stroke-linecap:round; stroke-width:0.25;"/>
<line x1="436.900000" y1="86.000000" x2="453.800000" y2="86.000000"  style="stroke:black; stroke-linecap:round; stroke-width:0.25;"/>
<line x1="449.800000" y1="66.000000" x2="453.800000" y2="66.000000"  style="stroke:black; stroke-linecap:round; stroke-width:0.25;"/>
<line x1="453.800000" y1="74.000000" x2="461.800000" y2="74.000000"  style="stroke:black; stroke-linecap:round; stroke-width:0.25;"/>
<line x1="453.800000" y1="86.000000" x2="453.800000" y2="74.000000"  style="stroke:black; stroke-linecap:round; stroke-width:0.25;"/>
<line x1="453.800000" y1="86.000000" x2="453.800000" y2="86.000000"  style="stroke:black; stroke-linecap:round; stroke-width:0.25;"/>
<line x1="453.800000" y1="66.000000" x2="461.800000" y2="66.000000"  style="stroke:black; stroke-linecap:round; stroke-width:0.25;"/>
<line x1="461.800000" y1="66.000000" x2="465.800000" y2="66.000000"  style="stroke:black; stroke-linecap:round; stroke-width:0.25;"/>
<line x1="461.800000" y1="74.000000" x2="465.800000" y2="74.000000"  style="stroke:black; stroke-linecap:round; stroke-width:0.25;"/>
<line x1="489.800000" y1="70.000000" x2="493.800000" y2="70.000000"  style="stroke:black; stroke-linecap:round; stroke-width:0.25;"/>
<line x1="493.800000" y1="24.000000" x2="501.800000" y2="24.000000"  style="stroke:black; stroke-linecap:round; stroke-width:0.25;"/>
<line x1="493.800000" y1="70.000000" x2="501.800000" y2="70.000000"  style="stroke:black; stroke-linecap:round; stroke-width:0.25;"/>
<line x1="501.800000" y1="24.000000" x2="501.800000" y2="62.000000"  style="stroke:black; stroke-linecap:round; stroke-width:0.25;"/>
<line x1="501.800000" y1="62.000000" x2="501.800000" y2="62.000000"  style="stroke:black; stroke-linecap:round; stroke-width:0.25;"/>
<line x1="501.800000" y1="62.000000" x2="505.800000" y2="62.000000"  style="stroke:black; stroke-linecap:round; stroke-width:0.25;"/>
<line x1="501.800000" y1="70.000000" x2="505.800000" y2="70.000000"  style="stroke:black; stroke-linecap:round; stroke-width:0.25;"/>
<line x1="529.800000" y1="66.000000" x2="533.800000" y2="66.000000"  style="stroke:black; stroke-linecap:round; stroke-width:0.25;"/>
<line x1="533.800000" y1="66.000000" x2="543.800000" y2="66.000000"  style="stroke:black; stroke-linecap:round; stroke-width:0.25;"/>
<line x1="533.800000" y1="128.000000" x2="543.800000" y2="128.000000"  style="stroke:black; stroke-linecap:round; stroke-width:0.25;"/>
</svg>
