<?xml version="1.0"?>
<svg xmlns="http://www.w3.org/2000/svg" xmlns:xlink="http://www.w3.org/1999/xlink" viewBox="0 0 292.500000 224.000000" width="146.250000mm" height="112.000000mm" version="1.1">
<defs>
   <filter id="filter" filterRes="18" x="0" y="0">
     <feGaussianBlur in="SourceGraphic" stdDeviation="1.55" result="blur"/>
     <feOffset in="blur" dx="3" dy="3"/>
   </filter>
</defs>
<rect x="1.000000" y="1.000000" width="291.500000" height="223.000000" rx="0.1" ry="0.1" style="stroke:none;fill:#aaaaaa;;filter:url(#filter);"/>
<rect x="0.000000" y="0.000000" width="291.500000" height="223.000000" rx="0" ry="0" style="stroke:none;fill:#ffffff;"/>
<text x="10.000000" y="7.000000" font-family="Arial" font-size="7"></text>
<a xlink:href="Early-0x312fd80.svg">
<rect x="134.350000" y="85.000000" width="25.800000" height="24.000000" rx="0.1" ry="0.1" style="stroke:none;fill:#aaaaaa;;filter:url(#filter);"/>
<rect x="133.350000" y="84.000000" width="25.800000" height="24.000000" rx="0" ry="0" style="stroke:none;fill:#003366;"/>
</a>
<a xlink:href="Early-0x312fd80.svg">
<text x="146.250000" y="98.000000" font-family="Arial" font-size="7" text-anchor="middle" fill="#FFFFFF">Early</text>
</a>
<circle cx="135.350000" cy="86.000000" r="1"/>
<line x1="130.350000" y1="91.000000" x2="133.350000" y2="92.000000"  transform="rotate(0.000000,133.350000,92.000000)" style="stroke: black; stroke-width:0.25;"/>
<line x1="130.350000" y1="93.000000" x2="133.350000" y2="92.000000"  transform="rotate(0.000000,133.350000,92.000000)" style="stroke: black; stroke-width:0.25;"/>
<line x1="130.350000" y1="99.000000" x2="133.350000" y2="100.000000"  transform="rotate(0.000000,133.350000,100.000000)" style="stroke: black; stroke-width:0.25;"/>
<line x1="130.350000" y1="101.000000" x2="133.350000" y2="100.000000"  transform="rotate(0.000000,133.350000,100.000000)" style="stroke: black; stroke-width:0.25;"/>
<rect x="135.000000" y="35.000000" width="64.500000" height="24.000000" rx="0.1" ry="0.1" style="stroke:none;fill:#aaaaaa;;filter:url(#filter);"/>
<rect x="134.000000" y="34.000000" width="64.500000" height="24.000000" rx="0" ry="0" style="stroke:none;fill:#477881;"/>
<text x="166.250000" y="48.000000" font-family="Arial" font-size="7" text-anchor="middle" fill="#FFFFFF">button(freeze)</text>
<circle cx="196.500000" cy="56.000000" r="1"/>
<line x1="125.000000" y1="25.000000" x2="125.000000" y2="67.000000"  style="stroke: black; stroke-linecap:round; stroke-width:0.25; stroke-dasharray:3,3;"/>
<line x1="125.000000" y1="67.000000" x2="207.500000" y2="67.000000"  style="stroke: black; stroke-linecap:round; stroke-width:0.25; stroke-dasharray:3,3;"/>
<line x1="207.500000" y1="67.000000" x2="207.500000" y2="25.000000"  style="stroke: black; stroke-linecap:round; stroke-width:0.25; stroke-dasharray:3,3;"/>
<line x1="125.000000" y1="25.000000" x2="130.000000" y2="25.000000"  style="stroke: black; stroke-linecap:round; stroke-width:0.25; stroke-dasharray:3,3;"/>
<line x1="155.800000" y1="25.000000" x2="207.500000" y2="25.000000"  style="stroke: black; stroke-linecap:round; stroke-width:0.25; stroke-dasharray:3,3;"/>
<text x="130.000000" y="27.000000" font-family="Arial" font-size="7">Button</text>
<rect x="85.000000" y="39.000000" width="24.000000" height="24.000000" rx="0.1" ry="0.1" style="stroke:none;fill:#aaaaaa;;filter:url(#filter);"/>
<rect x="84.000000" y="38.000000" width="24.000000" height="24.000000" rx="0" ry="0" style="stroke:none;fill:#4B71A1;"/>
<text x="96.000000" y="52.000000" font-family="Arial" font-size="7" text-anchor="middle" fill="#FFFFFF">*</text>
<circle cx="106.000000" cy="60.000000" r="1"/>
<line x1="111.000000" y1="53.000000" x2="108.000000" y2="54.000000"  transform="rotate(0.000000,108.000000,54.000000)" style="stroke: black; stroke-width:0.25;"/>
<line x1="111.000000" y1="55.000000" x2="108.000000" y2="54.000000"  transform="rotate(0.000000,108.000000,54.000000)" style="stroke: black; stroke-width:0.25;"/>
<line x1="111.000000" y1="45.000000" x2="108.000000" y2="46.000000"  transform="rotate(0.000000,108.000000,46.000000)" style="stroke: black; stroke-width:0.25;"/>
<line x1="111.000000" y1="47.000000" x2="108.000000" y2="46.000000"  transform="rotate(0.000000,108.000000,46.000000)" style="stroke: black; stroke-width:0.25;"/>
<line x1="210.500000" y1="92.000000" x2="210.500000" y2="88.000000"  style="stroke:black; stroke-linecap:round; stroke-width:0.25;"/>
<line x1="210.500000" y1="88.000000" x2="214.500000" y2="88.000000"  style="stroke:black; stroke-linecap:round; stroke-width:0.25;"/>
<line x1="214.500000" y1="88.000000" x2="214.500000" y2="92.000000"  style="stroke:black; stroke-linecap:round; stroke-width:0.25;"/>
<rect x="35.000000" y="135.000000" width="64.500000" height="24.000000" rx="0.1" ry="0.1" style="stroke:none;fill:#aaaaaa;;filter:url(#filter);"/>
<rect x="34.000000" y="134.000000" width="64.500000" height="24.000000" rx="0" ry="0" style="stroke:none;fill:#477881;"/>
<text x="66.250000" y="148.000000" font-family="Arial" font-size="7" text-anchor="middle" fill="#FFFFFF">button(freeze)</text>
<circle cx="36.000000" cy="136.000000" r="1"/>
<line x1="25.000000" y1="125.000000" x2="25.000000" y2="167.000000"  style="stroke: black; stroke-linecap:round; stroke-width:0.25; stroke-dasharray:3,3;"/>
<line x1="25.000000" y1="167.000000" x2="107.500000" y2="167.000000"  style="stroke: black; stroke-linecap:round; stroke-width:0.25; stroke-dasharray:3,3;"/>
<line x1="107.500000" y1="167.000000" x2="107.500000" y2="125.000000"  style="stroke: black; stroke-linecap:round; stroke-width:0.25; stroke-dasharray:3,3;"/>
<line x1="25.000000" y1="125.000000" x2="30.000000" y2="125.000000"  style="stroke: black; stroke-linecap:round; stroke-width:0.25; stroke-dasharray:3,3;"/>
<line x1="55.800000" y1="125.000000" x2="107.500000" y2="125.000000"  style="stroke: black; stroke-linecap:round; stroke-width:0.25; stroke-dasharray:3,3;"/>
<text x="30.000000" y="127.000000" font-family="Arial" font-size="7">Button</text>
<rect x="55.250000" y="177.000000" width="24.000000" height="24.000000" rx="0.1" ry="0.1" style="stroke:none;fill:#aaaaaa;;filter:url(#filter);"/>
<rect x="54.250000" y="176.000000" width="24.000000" height="24.000000" rx="0" ry="0" style="stroke:none;fill:#f44800;"/>
<text x="66.250000" y="190.000000" font-family="Arial" font-size="7" text-anchor="middle" fill="#FFFFFF">-1</text>
<circle cx="56.250000" cy="178.000000" r="1"/>
<rect x="125.500000" y="151.000000" width="24.000000" height="24.000000" rx="0.1" ry="0.1" style="stroke:none;fill:#aaaaaa;;filter:url(#filter);"/>
<rect x="124.500000" y="150.000000" width="24.000000" height="24.000000" rx="0" ry="0" style="stroke:none;fill:#4B71A1;"/>
<text x="136.500000" y="164.000000" font-family="Arial" font-size="7" text-anchor="middle" fill="#FFFFFF">*</text>
<circle cx="126.500000" cy="152.000000" r="1"/>
<line x1="121.500000" y1="157.000000" x2="124.500000" y2="158.000000"  transform="rotate(0.000000,124.500000,158.000000)" style="stroke: black; stroke-width:0.25;"/>
<line x1="121.500000" y1="159.000000" x2="124.500000" y2="158.000000"  transform="rotate(0.000000,124.500000,158.000000)" style="stroke: black; stroke-width:0.25;"/>
<line x1="121.500000" y1="165.000000" x2="124.500000" y2="166.000000"  transform="rotate(0.000000,124.500000,166.000000)" style="stroke: black; stroke-width:0.25;"/>
<line x1="121.500000" y1="167.000000" x2="124.500000" y2="166.000000"  transform="rotate(0.000000,124.500000,166.000000)" style="stroke: black; stroke-width:0.25;"/>
<rect x="165.500000" y="155.000000" width="24.000000" height="24.000000" rx="0.1" ry="0.1" style="stroke:none;fill:#aaaaaa;;filter:url(#filter);"/>
<rect x="164.500000" y="154.000000" width="24.000000" height="24.000000" rx="0" ry="0" style="stroke:none;fill:#f44800;"/>
<text x="176.500000" y="168.000000" font-family="Arial" font-size="7" text-anchor="middle" fill="#FFFFFF">1</text>
<circle cx="166.500000" cy="156.000000" r="1"/>
<rect x="205.500000" y="151.000000" width="24.000000" height="24.000000" rx="0.1" ry="0.1" style="stroke:none;fill:#aaaaaa;;filter:url(#filter);"/>
<rect x="204.500000" y="150.000000" width="24.000000" height="24.000000" rx="0" ry="0" style="stroke:none;fill:#4B71A1;"/>
<text x="216.500000" y="164.000000" font-family="Arial" font-size="7" text-anchor="middle" fill="#FFFFFF">+</text>
<circle cx="206.500000" cy="152.000000" r="1"/>
<line x1="201.500000" y1="157.000000" x2="204.500000" y2="158.000000"  transform="rotate(0.000000,204.500000,158.000000)" style="stroke: black; stroke-width:0.25;"/>
<line x1="201.500000" y1="159.000000" x2="204.500000" y2="158.000000"  transform="rotate(0.000000,204.500000,158.000000)" style="stroke: black; stroke-width:0.25;"/>
<line x1="201.500000" y1="165.000000" x2="204.500000" y2="166.000000"  transform="rotate(0.000000,204.500000,166.000000)" style="stroke: black; stroke-width:0.25;"/>
<line x1="201.500000" y1="167.000000" x2="204.500000" y2="166.000000"  transform="rotate(0.000000,204.500000,166.000000)" style="stroke: black; stroke-width:0.25;"/>
<rect x="245.500000" y="147.000000" width="24.000000" height="24.000000" rx="0.1" ry="0.1" style="stroke:none;fill:#aaaaaa;;filter:url(#filter);"/>
<rect x="244.500000" y="146.000000" width="24.000000" height="24.000000" rx="0" ry="0" style="stroke:none;fill:#4B71A1;"/>
<text x="256.500000" y="160.000000" font-family="Arial" font-size="7" text-anchor="middle" fill="#FFFFFF">*</text>
<circle cx="246.500000" cy="148.000000" r="1"/>
<line x1="241.500000" y1="153.000000" x2="244.500000" y2="154.000000"  transform="rotate(0.000000,244.500000,154.000000)" style="stroke: black; stroke-width:0.25;"/>
<line x1="241.500000" y1="155.000000" x2="244.500000" y2="154.000000"  transform="rotate(0.000000,244.500000,154.000000)" style="stroke: black; stroke-width:0.25;"/>
<line x1="241.500000" y1="161.000000" x2="244.500000" y2="162.000000"  transform="rotate(0.000000,244.500000,162.000000)" style="stroke: black; stroke-width:0.25;"/>
<line x1="241.500000" y1="163.000000" x2="244.500000" y2="162.000000"  transform="rotate(0.000000,244.500000,162.000000)" style="stroke: black; stroke-width:0.25;"/>
<line x1="15.000000" y1="15.000000" x2="15.000000" y2="209.000000"  style="stroke: black; stroke-linecap:round; stroke-width:0.25; stroke-dasharray:3,3;"/>
<line x1="15.000000" y1="209.000000" x2="277.500000" y2="209.000000"  style="stroke: black; stroke-linecap:round; stroke-width:0.25; stroke-dasharray:3,3;"/>
<line x1="277.500000" y1="209.000000" x2="277.500000" y2="15.000000"  style="stroke: black; stroke-linecap:round; stroke-width:0.25; stroke-dasharray:3,3;"/>
<line x1="15.000000" y1="15.000000" x2="20.000000" y2="15.000000"  style="stroke: black; stroke-linecap:round; stroke-width:0.25; stroke-dasharray:3,3;"/>
<line x1="49.025000" y1="15.000000" x2="277.500000" y2="15.000000"  style="stroke: black; stroke-linecap:round; stroke-width:0.25; stroke-dasharray:3,3;"/>
<text x="20.000000" y="17.000000" font-family="Arial" font-size="7">process</text>
<line x1="279.500000" y1="91.000000" x2="282.500000" y2="92.000000"  transform="rotate(0.000000,282.500000,92.000000)" style="stroke: black; stroke-width:0.25;"/>
<line x1="279.500000" y1="93.000000" x2="282.500000" y2="92.000000"  transform="rotate(0.000000,282.500000,92.000000)" style="stroke: black; stroke-width:0.25;"/>
<line x1="279.500000" y1="99.000000" x2="282.500000" y2="100.000000"  transform="rotate(0.000000,282.500000,100.000000)" style="stroke: black; stroke-width:0.25;"/>
<line x1="279.500000" y1="101.000000" x2="282.500000" y2="100.000000"  transform="rotate(0.000000,282.500000,100.000000)" style="stroke: black; stroke-width:0.25;"/>
<line x1="279.500000" y1="157.000000" x2="282.500000" y2="158.000000"  transform="rotate(0.000000,282.500000,158.000000)" style="stroke: black; stroke-width:0.25;"/>
<line x1="279.500000" y1="159.000000" x2="282.500000" y2="158.000000"  transform="rotate(0.000000,282.500000,158.000000)" style="stroke: black; stroke-width:0.25;"/>
<line x1="10.000000" y1="100.000000" x2="20.000000" y2="100.000000"  style="stroke:black; stroke-linecap:round; stroke-width:0.25;"/>
<line x1="10.000000" y1="116.000000" x2="20.000000" y2="116.000000"  style="stroke:black; stroke-linecap:round; stroke-width:0.25;"/>
<line x1="20.000000" y1="100.000000" x2="72.000000" y2="100.000000"  style="stroke:black; stroke-linecap:round; stroke-width:0.25;"/>
<line x1="20.000000" y1="116.000000" x2="126.250000" y2="116.000000"  style="stroke:black; stroke-linecap:round; stroke-width:0.25;"/>
<line x1="72.000000" y1="100.000000" x2="80.000000" y2="100.000000"  style="stroke:black; stroke-linecap:round; stroke-width:0.25;"/>
<line x1="78.250000" y1="188.000000" x2="82.250000" y2="188.000000"  style="stroke:black; stroke-linecap:round; stroke-width:0.25;"/>
<line x1="80.000000" y1="50.000000" x2="80.000000" y2="50.000000"  style="stroke:black; stroke-linecap:round; stroke-width:0.25;"/>
<line x1="80.000000" y1="50.000000" x2="80.000000" y2="92.000000"  style="stroke:black; stroke-linecap:round; stroke-width:0.25;"/>
<line x1="80.000000" y1="92.000000" x2="80.000000" y2="92.000000"  style="stroke:black; stroke-linecap:round; stroke-width:0.25;"/>
<line x1="80.000000" y1="92.000000" x2="129.350000" y2="92.000000"  style="stroke:black; stroke-linecap:round; stroke-width:0.25;"/>
<line x1="80.000000" y1="100.000000" x2="129.350000" y2="100.000000"  style="stroke:black; stroke-linecap:round; stroke-width:0.25;"/>
<line x1="82.250000" y1="188.000000" x2="112.500000" y2="188.000000"  style="stroke:black; stroke-linecap:round; stroke-width:0.25;"/>
<line x1="84.000000" y1="50.000000" x2="80.000000" y2="50.000000"  style="stroke:black; stroke-linecap:round; stroke-width:0.25;"/>
<line x1="98.500000" y1="146.000000" x2="102.500000" y2="146.000000"  style="stroke:black; stroke-linecap:round; stroke-width:0.25;"/>
<line x1="102.500000" y1="146.000000" x2="112.500000" y2="146.000000"  style="stroke:black; stroke-linecap:round; stroke-width:0.25;"/>
<line x1="112.000000" y1="46.000000" x2="108.000000" y2="46.000000"  style="stroke:black; stroke-linecap:round; stroke-width:0.25;"/>
<line x1="112.000000" y1="54.000000" x2="108.000000" y2="54.000000"  style="stroke:black; stroke-linecap:round; stroke-width:0.25;"/>
<line x1="112.000000" y1="54.000000" x2="112.000000" y2="54.000000"  style="stroke:black; stroke-linecap:round; stroke-width:0.25;"/>
<line x1="112.000000" y1="76.000000" x2="112.000000" y2="54.000000"  style="stroke:black; stroke-linecap:round; stroke-width:0.25;"/>
<line x1="112.500000" y1="146.000000" x2="120.500000" y2="146.000000"  style="stroke:black; stroke-linecap:round; stroke-width:0.25;"/>
<line x1="112.500000" y1="166.000000" x2="120.500000" y2="166.000000"  style="stroke:black; stroke-linecap:round; stroke-width:0.25;"/>
<line x1="112.500000" y1="188.000000" x2="112.500000" y2="166.000000"  style="stroke:black; stroke-linecap:round; stroke-width:0.25;"/>
<line x1="112.500000" y1="188.000000" x2="112.500000" y2="188.000000"  style="stroke:black; stroke-linecap:round; stroke-width:0.25;"/>
<line x1="120.000000" y1="46.000000" x2="112.000000" y2="46.000000"  style="stroke:black; stroke-linecap:round; stroke-width:0.25;"/>
<line x1="120.000000" y1="76.000000" x2="112.000000" y2="76.000000"  style="stroke:black; stroke-linecap:round; stroke-width:0.25;"/>
<line x1="120.500000" y1="146.000000" x2="120.500000" y2="158.000000"  style="stroke:black; stroke-linecap:round; stroke-width:0.25;"/>
<line x1="120.500000" y1="158.000000" x2="120.500000" y2="158.000000"  style="stroke:black; stroke-linecap:round; stroke-width:0.25;"/>
<line x1="120.500000" y1="158.000000" x2="124.500000" y2="158.000000"  style="stroke:black; stroke-linecap:round; stroke-width:0.25;"/>
<line x1="120.500000" y1="166.000000" x2="124.500000" y2="166.000000"  style="stroke:black; stroke-linecap:round; stroke-width:0.25;"/>
<line x1="126.250000" y1="116.000000" x2="232.500000" y2="116.000000"  style="stroke:black; stroke-linecap:round; stroke-width:0.25;"/>
<line x1="129.350000" y1="92.000000" x2="133.350000" y2="92.000000"  style="stroke:black; stroke-linecap:round; stroke-width:0.25;"/>
<line x1="129.350000" y1="100.000000" x2="133.350000" y2="100.000000"  style="stroke:black; stroke-linecap:round; stroke-width:0.25;"/>
<line x1="130.000000" y1="46.000000" x2="120.000000" y2="46.000000"  style="stroke:black; stroke-linecap:round; stroke-width:0.25;"/>
<line x1="134.000000" y1="46.000000" x2="130.000000" y2="46.000000"  style="stroke:black; stroke-linecap:round; stroke-width:0.25;"/>
<line x1="148.500000" y1="162.000000" x2="152.500000" y2="162.000000"  style="stroke:black; stroke-linecap:round; stroke-width:0.25;"/>
<line x1="152.500000" y1="146.000000" x2="160.500000" y2="146.000000"  style="stroke:black; stroke-linecap:round; stroke-width:0.25;"/>
<line x1="152.500000" y1="162.000000" x2="152.500000" y2="146.000000"  style="stroke:black; stroke-linecap:round; stroke-width:0.25;"/>
<line x1="152.500000" y1="162.000000" x2="152.500000" y2="162.000000"  style="stroke:black; stroke-linecap:round; stroke-width:0.25;"/>
<line x1="159.150000" y1="92.000000" x2="163.150000" y2="92.000000"  style="stroke:black; stroke-linecap:round; stroke-width:0.25;"/>
<line x1="159.150000" y1="100.000000" x2="163.150000" y2="100.000000"  style="stroke:black; stroke-linecap:round; stroke-width:0.25;"/>
<line x1="160.500000" y1="146.000000" x2="176.500000" y2="146.000000"  style="stroke:black; stroke-linecap:round; stroke-width:0.25;"/>
<line x1="163.150000" y1="92.000000" x2="212.500000" y2="92.000000"  style="stroke:black; stroke-linecap:round; stroke-width:0.25;"/>
<line x1="163.150000" y1="100.000000" x2="212.500000" y2="100.000000"  style="stroke:black; stroke-linecap:round; stroke-width:0.25;"/>
<line x1="166.250000" y1="76.000000" x2="120.000000" y2="76.000000"  style="stroke:black; stroke-linecap:round; stroke-width:0.25;"/>
<line x1="176.500000" y1="146.000000" x2="192.500000" y2="146.000000"  style="stroke:black; stroke-linecap:round; stroke-width:0.25;"/>
<line x1="188.500000" y1="166.000000" x2="192.500000" y2="166.000000"  style="stroke:black; stroke-linecap:round; stroke-width:0.25;"/>
<line x1="192.500000" y1="146.000000" x2="200.500000" y2="146.000000"  style="stroke:black; stroke-linecap:round; stroke-width:0.25;"/>
<line x1="192.500000" y1="166.000000" x2="200.500000" y2="166.000000"  style="stroke:black; stroke-linecap:round; stroke-width:0.25;"/>
<line x1="200.500000" y1="146.000000" x2="200.500000" y2="158.000000"  style="stroke:black; stroke-linecap:round; stroke-width:0.25;"/>
<line x1="200.500000" y1="158.000000" x2="200.500000" y2="158.000000"  style="stroke:black; stroke-linecap:round; stroke-width:0.25;"/>
<line x1="200.500000" y1="158.000000" x2="204.500000" y2="158.000000"  style="stroke:black; stroke-linecap:round; stroke-width:0.25;"/>
<line x1="200.500000" y1="166.000000" x2="204.500000" y2="166.000000"  style="stroke:black; stroke-linecap:round; stroke-width:0.25;"/>
<line x1="212.500000" y1="76.000000" x2="212.500000" y2="76.000000"  style="stroke:black; stroke-linecap:round; stroke-width:0.25;"/>
<line x1="212.500000" y1="88.000000" x2="212.500000" y2="76.000000"  style="stroke:black; stroke-linecap:round; stroke-width:0.25;"/>
<line x1="212.500000" y1="92.000000" x2="214.500000" y2="92.000000"  style="stroke:black; stroke-linecap:round; stroke-width:0.25;"/>
<line x1="212.500000" y1="100.000000" x2="220.500000" y2="100.000000"  style="stroke:black; stroke-linecap:round; stroke-width:0.25;"/>
<line x1="212.500000" y1="76.000000" x2="166.250000" y2="76.000000"  style="stroke:black; stroke-linecap:round; stroke-width:0.25;"/>
<line x1="214.500000" y1="92.000000" x2="220.500000" y2="92.000000"  style="stroke:black; stroke-linecap:round; stroke-width:0.25;"/>
<line x1="220.500000" y1="92.000000" x2="272.500000" y2="92.000000"  style="stroke:black; stroke-linecap:round; stroke-width:0.25;"/>
<line x1="220.500000" y1="100.000000" x2="272.500000" y2="100.000000"  style="stroke:black; stroke-linecap:round; stroke-width:0.25;"/>
<line x1="228.500000" y1="162.000000" x2="232.500000" y2="162.000000"  style="stroke:black; stroke-linecap:round; stroke-width:0.25;"/>
<line x1="232.500000" y1="116.000000" x2="240.500000" y2="116.000000"  style="stroke:black; stroke-linecap:round; stroke-width:0.25;"/>
<line x1="232.500000" y1="162.000000" x2="240.500000" y2="162.000000"  style="stroke:black; stroke-linecap:round; stroke-width:0.25;"/>
<line x1="240.500000" y1="116.000000" x2="240.500000" y2="154.000000"  style="stroke:black; stroke-linecap:round; stroke-width:0.25;"/>
<line x1="240.500000" y1="154.000000" x2="240.500000" y2="154.000000"  style="stroke:black; stroke-linecap:round; stroke-width:0.25;"/>
<line x1="240.500000" y1="154.000000" x2="244.500000" y2="154.000000"  style="stroke:black; stroke-linecap:round; stroke-width:0.25;"/>
<line x1="240.500000" y1="162.000000" x2="244.500000" y2="162.000000"  style="stroke:black; stroke-linecap:round; stroke-width:0.25;"/>
<line x1="268.500000" y1="158.000000" x2="272.500000" y2="158.000000"  style="stroke:black; stroke-linecap:round; stroke-width:0.25;"/>
<line x1="272.500000" y1="92.000000" x2="282.500000" y2="92.000000"  style="stroke:black; stroke-linecap:round; stroke-width:0.25;"/>
<line x1="272.500000" y1="100.000000" x2="282.500000" y2="100.000000"  style="stroke:black; stroke-linecap:round; stroke-width:0.25;"/>
<line x1="272.500000" y1="158.000000" x2="282.500000" y2="158.000000"  style="stroke:black; stroke-linecap:round; stroke-width:0.25;"/>
</svg>
