<?xml version="1.0"?>
<svg xmlns="http://www.w3.org/2000/svg" xmlns:xlink="http://www.w3.org/1999/xlink" viewBox="0 0 300.700000 144.000000" width="150.350000mm" height="72.000000mm" version="1.1">
<defs>
   <filter id="filter" filterRes="18" x="0" y="0">
     <feGaussianBlur in="SourceGraphic" stdDeviation="1.55" result="blur"/>
     <feOffset in="blur" dx="3" dy="3"/>
   </filter>
</defs>
<a xlink:href="Early-0x2ed40f0.svg">
<rect x="1.000000" y="1.000000" width="299.700000" height="143.000000" rx="0.1" ry="0.1" style="stroke:none;fill:#aaaaaa;;filter:url(#filter);"/>
<rect x="0.000000" y="0.000000" width="299.700000" height="143.000000" rx="0" ry="0" style="stroke:none;fill:#ffffff;"/>
</a>
<text x="10.000000" y="7.000000" font-family="Arial" font-size="7"></text>
<rect x="71.000000" y="45.000000" width="24.000000" height="24.000000" rx="0.1" ry="0.1" style="stroke:none;fill:#aaaaaa;;filter:url(#filter);"/>
<rect x="70.000000" y="44.000000" width="24.000000" height="24.000000" rx="0" ry="0" style="stroke:none;fill:#4B71A1;"/>
<text x="82.000000" y="58.000000" font-family="Arial" font-size="7" text-anchor="middle" fill="#FFFFFF">-</text>
<circle cx="72.000000" cy="46.000000" r="1"/>
<line x1="67.000000" y1="51.000000" x2="70.000000" y2="52.000000"  transform="rotate(0.000000,70.000000,52.000000)" style="stroke: black; stroke-width:0.25;"/>
<line x1="67.000000" y1="53.000000" x2="70.000000" y2="52.000000"  transform="rotate(0.000000,70.000000,52.000000)" style="stroke: black; stroke-width:0.25;"/>
<line x1="67.000000" y1="59.000000" x2="70.000000" y2="60.000000"  transform="rotate(0.000000,70.000000,60.000000)" style="stroke: black; stroke-width:0.25;"/>
<line x1="67.000000" y1="61.000000" x2="70.000000" y2="60.000000"  transform="rotate(0.000000,70.000000,60.000000)" style="stroke: black; stroke-width:0.25;"/>
<a xlink:href="DelTime-0x2eb5510.svg">
<rect x="111.000000" y="33.000000" width="38.700000" height="24.000000" rx="0.1" ry="0.1" style="stroke:none;fill:#aaaaaa;;filter:url(#filter);"/>
<rect x="110.000000" y="32.000000" width="38.700000" height="24.000000" rx="0" ry="0" style="stroke:none;fill:#003366;"/>
</a>
<a xlink:href="DelTime-0x2eb5510.svg">
<text x="129.350000" y="46.000000" font-family="Arial" font-size="7" text-anchor="middle" fill="#FFFFFF">DelTime</text>
</a>
<circle cx="112.000000" cy="34.000000" r="1"/>
<rect x="117.450000" y="65.000000" width="25.800000" height="24.000000" rx="0.1" ry="0.1" style="stroke:none;fill:#aaaaaa;;filter:url(#filter);"/>
<rect x="116.450000" y="64.000000" width="25.800000" height="24.000000" rx="0" ry="0" style="stroke:none;fill:#f44800;"/>
<text x="129.350000" y="78.000000" font-family="Arial" font-size="7" text-anchor="middle" fill="#FFFFFF">1304</text>
<circle cx="118.450000" cy="66.000000" r="1"/>
<rect x="165.700000" y="49.000000" width="24.000000" height="24.000000" rx="0.1" ry="0.1" style="stroke:none;fill:#aaaaaa;;filter:url(#filter);"/>
<rect x="164.700000" y="48.000000" width="24.000000" height="24.000000" rx="0" ry="0" style="stroke:none;fill:#4B71A1;"/>
<text x="176.700000" y="62.000000" font-family="Arial" font-size="7" text-anchor="middle" fill="#FFFFFF">*</text>
<circle cx="166.700000" cy="50.000000" r="1"/>
<line x1="161.700000" y1="55.000000" x2="164.700000" y2="56.000000"  transform="rotate(0.000000,164.700000,56.000000)" style="stroke: black; stroke-width:0.25;"/>
<line x1="161.700000" y1="57.000000" x2="164.700000" y2="56.000000"  transform="rotate(0.000000,164.700000,56.000000)" style="stroke: black; stroke-width:0.25;"/>
<line x1="161.700000" y1="63.000000" x2="164.700000" y2="64.000000"  transform="rotate(0.000000,164.700000,64.000000)" style="stroke: black; stroke-width:0.25;"/>
<line x1="161.700000" y1="65.000000" x2="164.700000" y2="64.000000"  transform="rotate(0.000000,164.700000,64.000000)" style="stroke: black; stroke-width:0.25;"/>
<rect x="197.700000" y="49.000000" width="24.000000" height="24.000000" rx="0.1" ry="0.1" style="stroke:none;fill:#aaaaaa;;filter:url(#filter);"/>
<rect x="196.700000" y="48.000000" width="24.000000" height="24.000000" rx="0" ry="0" style="stroke:none;fill:#4B71A1;"/>
<text x="208.700000" y="62.000000" font-family="Arial" font-size="7" text-anchor="middle" fill="#FFFFFF">int</text>
<circle cx="198.700000" cy="50.000000" r="1"/>
<line x1="193.700000" y1="59.000000" x2="196.700000" y2="60.000000"  transform="rotate(0.000000,196.700000,60.000000)" style="stroke: black; stroke-width:0.25;"/>
<line x1="193.700000" y1="61.000000" x2="196.700000" y2="60.000000"  transform="rotate(0.000000,196.700000,60.000000)" style="stroke: black; stroke-width:0.25;"/>
<rect x="237.700000" y="45.000000" width="24.000000" height="24.000000" rx="0.1" ry="0.1" style="stroke:none;fill:#aaaaaa;;filter:url(#filter);"/>
<rect x="236.700000" y="44.000000" width="24.000000" height="24.000000" rx="0" ry="0" style="stroke:none;fill:#4B71A1;"/>
<text x="248.700000" y="58.000000" font-family="Arial" font-size="7" text-anchor="middle" fill="#FFFFFF">@</text>
<circle cx="238.700000" cy="46.000000" r="1"/>
<line x1="233.700000" y1="51.000000" x2="236.700000" y2="52.000000"  transform="rotate(0.000000,236.700000,52.000000)" style="stroke: black; stroke-width:0.25;"/>
<line x1="233.700000" y1="53.000000" x2="236.700000" y2="52.000000"  transform="rotate(0.000000,236.700000,52.000000)" style="stroke: black; stroke-width:0.25;"/>
<line x1="233.700000" y1="59.000000" x2="236.700000" y2="60.000000"  transform="rotate(0.000000,236.700000,60.000000)" style="stroke: black; stroke-width:0.25;"/>
<line x1="233.700000" y1="61.000000" x2="236.700000" y2="60.000000"  transform="rotate(0.000000,236.700000,60.000000)" style="stroke: black; stroke-width:0.25;"/>
<rect x="154.350000" y="97.000000" width="24.000000" height="24.000000" rx="0.1" ry="0.1" style="stroke:none;fill:#aaaaaa;;filter:url(#filter);"/>
<rect x="153.350000" y="96.000000" width="24.000000" height="24.000000" rx="0" ry="0" style="stroke:none;fill:#4B71A1;"/>
<text x="165.350000" y="110.000000" font-family="Arial" font-size="7" text-anchor="middle" fill="#FFFFFF">+</text>
<circle cx="155.350000" cy="98.000000" r="1"/>
<line x1="150.350000" y1="103.000000" x2="153.350000" y2="104.000000"  transform="rotate(0.000000,153.350000,104.000000)" style="stroke: black; stroke-width:0.25;"/>
<line x1="150.350000" y1="105.000000" x2="153.350000" y2="104.000000"  transform="rotate(0.000000,153.350000,104.000000)" style="stroke: black; stroke-width:0.25;"/>
<line x1="150.350000" y1="111.000000" x2="153.350000" y2="112.000000"  transform="rotate(0.000000,153.350000,112.000000)" style="stroke: black; stroke-width:0.25;"/>
<line x1="150.350000" y1="113.000000" x2="153.350000" y2="112.000000"  transform="rotate(0.000000,153.350000,112.000000)" style="stroke: black; stroke-width:0.25;"/>
<line x1="15.000000" y1="15.000000" x2="15.000000" y2="129.000000"  style="stroke: black; stroke-linecap:round; stroke-width:0.25; stroke-dasharray:3,3;"/>
<line x1="15.000000" y1="129.000000" x2="285.700000" y2="129.000000"  style="stroke: black; stroke-linecap:round; stroke-width:0.25; stroke-dasharray:3,3;"/>
<line x1="285.700000" y1="129.000000" x2="285.700000" y2="15.000000"  style="stroke: black; stroke-linecap:round; stroke-width:0.25; stroke-dasharray:3,3;"/>
<line x1="15.000000" y1="15.000000" x2="20.000000" y2="15.000000"  style="stroke: black; stroke-linecap:round; stroke-width:0.25; stroke-dasharray:3,3;"/>
<line x1="55.475000" y1="15.000000" x2="285.700000" y2="15.000000"  style="stroke: black; stroke-linecap:round; stroke-width:0.25; stroke-dasharray:3,3;"/>
<text x="20.000000" y="17.000000" font-family="Arial" font-size="7">Del(1304)</text>
<line x1="287.700000" y1="67.000000" x2="290.700000" y2="68.000000"  transform="rotate(0.000000,290.700000,68.000000)" style="stroke: black; stroke-width:0.25;"/>
<line x1="287.700000" y1="69.000000" x2="290.700000" y2="68.000000"  transform="rotate(0.000000,290.700000,68.000000)" style="stroke: black; stroke-width:0.25;"/>
<line x1="287.700000" y1="75.000000" x2="290.700000" y2="76.000000"  transform="rotate(0.000000,290.700000,76.000000)" style="stroke: black; stroke-width:0.25;"/>
<line x1="287.700000" y1="77.000000" x2="290.700000" y2="76.000000"  transform="rotate(0.000000,290.700000,76.000000)" style="stroke: black; stroke-width:0.25;"/>
<line x1="10.000000" y1="68.000000" x2="20.000000" y2="68.000000"  style="stroke:black; stroke-linecap:round; stroke-width:0.25;"/>
<line x1="10.000000" y1="76.000000" x2="20.000000" y2="76.000000"  style="stroke:black; stroke-linecap:round; stroke-width:0.25;"/>
<line x1="20.000000" y1="68.000000" x2="24.000000" y2="68.000000"  style="stroke:black; stroke-linecap:round; stroke-width:0.25;"/>
<line x1="20.000000" y1="76.000000" x2="24.000000" y2="76.000000"  style="stroke:black; stroke-linecap:round; stroke-width:0.25;"/>
<line x1="24.000000" y1="68.000000" x2="28.000000" y2="68.000000"  style="stroke:black; stroke-linecap:round; stroke-width:0.25;"/>
<line x1="24.000000" y1="76.000000" x2="28.000000" y2="76.000000"  style="stroke:black; stroke-linecap:round; stroke-width:0.25;"/>
<line x1="28.000000" y1="68.000000" x2="28.000000" y2="68.000000"  style="stroke:black; stroke-linecap:round; stroke-width:0.25;"/>
<line x1="28.000000" y1="68.000000" x2="32.000000" y2="68.000000"  style="stroke:black; stroke-linecap:round; stroke-width:0.25;"/>
<line x1="28.000000" y1="76.000000" x2="28.000000" y2="76.000000"  style="stroke:black; stroke-linecap:round; stroke-width:0.25;"/>
<line x1="28.000000" y1="76.000000" x2="32.000000" y2="76.000000"  style="stroke:black; stroke-linecap:round; stroke-width:0.25;"/>
<line x1="32.000000" y1="68.000000" x2="36.000000" y2="68.000000"  style="stroke:black; stroke-linecap:round; stroke-width:0.25;"/>
<line x1="32.000000" y1="76.000000" x2="36.000000" y2="76.000000"  style="stroke:black; stroke-linecap:round; stroke-width:0.25;"/>
<line x1="36.000000" y1="68.000000" x2="66.000000" y2="52.000000"  style="stroke:black; stroke-linecap:round; stroke-width:0.25;"/>
<line x1="36.000000" y1="68.000000" x2="66.000000" y2="104.000000"  style="stroke:black; stroke-linecap:round; stroke-width:0.25;"/>
<line x1="36.000000" y1="76.000000" x2="66.000000" y2="60.000000"  style="stroke:black; stroke-linecap:round; stroke-width:0.25;"/>
<line x1="36.000000" y1="76.000000" x2="66.000000" y2="112.000000"  style="stroke:black; stroke-linecap:round; stroke-width:0.25;"/>
<line x1="66.000000" y1="52.000000" x2="66.000000" y2="52.000000"  style="stroke:black; stroke-linecap:round; stroke-width:0.25;"/>
<line x1="66.000000" y1="52.000000" x2="70.000000" y2="52.000000"  style="stroke:black; stroke-linecap:round; stroke-width:0.25;"/>
<line x1="66.000000" y1="60.000000" x2="66.000000" y2="60.000000"  style="stroke:black; stroke-linecap:round; stroke-width:0.25;"/>
<line x1="66.000000" y1="60.000000" x2="70.000000" y2="60.000000"  style="stroke:black; stroke-linecap:round; stroke-width:0.25;"/>
<line x1="66.000000" y1="104.000000" x2="149.350000" y2="104.000000"  style="stroke:black; stroke-linecap:round; stroke-width:0.25;"/>
<line x1="66.000000" y1="112.000000" x2="149.350000" y2="112.000000"  style="stroke:black; stroke-linecap:round; stroke-width:0.25;"/>
<line x1="94.000000" y1="56.000000" x2="98.000000" y2="56.000000"  style="stroke:black; stroke-linecap:round; stroke-width:0.25;"/>
<line x1="98.000000" y1="24.000000" x2="106.000000" y2="24.000000"  style="stroke:black; stroke-linecap:round; stroke-width:0.25;"/>
<line x1="98.000000" y1="56.000000" x2="98.000000" y2="24.000000"  style="stroke:black; stroke-linecap:round; stroke-width:0.25;"/>
<line x1="98.000000" y1="56.000000" x2="98.000000" y2="56.000000"  style="stroke:black; stroke-linecap:round; stroke-width:0.25;"/>
<line x1="106.000000" y1="24.000000" x2="165.350000" y2="24.000000"  style="stroke:black; stroke-linecap:round; stroke-width:0.25;"/>
<line x1="142.250000" y1="76.000000" x2="146.250000" y2="76.000000"  style="stroke:black; stroke-linecap:round; stroke-width:0.25;"/>
<line x1="146.250000" y1="76.000000" x2="152.700000" y2="76.000000"  style="stroke:black; stroke-linecap:round; stroke-width:0.25;"/>
<line x1="148.700000" y1="44.000000" x2="152.700000" y2="44.000000"  style="stroke:black; stroke-linecap:round; stroke-width:0.25;"/>
<line x1="149.350000" y1="104.000000" x2="149.350000" y2="104.000000"  style="stroke:black; stroke-linecap:round; stroke-width:0.25;"/>
<line x1="149.350000" y1="104.000000" x2="153.350000" y2="104.000000"  style="stroke:black; stroke-linecap:round; stroke-width:0.25;"/>
<line x1="149.350000" y1="112.000000" x2="149.350000" y2="112.000000"  style="stroke:black; stroke-linecap:round; stroke-width:0.25;"/>
<line x1="149.350000" y1="112.000000" x2="153.350000" y2="112.000000"  style="stroke:black; stroke-linecap:round; stroke-width:0.25;"/>
<line x1="152.700000" y1="44.000000" x2="160.700000" y2="44.000000"  style="stroke:black; stroke-linecap:round; stroke-width:0.25;"/>
<line x1="152.700000" y1="64.000000" x2="160.700000" y2="64.000000"  style="stroke:black; stroke-linecap:round; stroke-width:0.25;"/>
<line x1="152.700000" y1="76.000000" x2="152.700000" y2="64.000000"  style="stroke:black; stroke-linecap:round; stroke-width:0.25;"/>
<line x1="152.700000" y1="76.000000" x2="152.700000" y2="76.000000"  style="stroke:black; stroke-linecap:round; stroke-width:0.25;"/>
<line x1="160.700000" y1="44.000000" x2="160.700000" y2="56.000000"  style="stroke:black; stroke-linecap:round; stroke-width:0.25;"/>
<line x1="160.700000" y1="56.000000" x2="160.700000" y2="56.000000"  style="stroke:black; stroke-linecap:round; stroke-width:0.25;"/>
<line x1="160.700000" y1="56.000000" x2="164.700000" y2="56.000000"  style="stroke:black; stroke-linecap:round; stroke-width:0.25;"/>
<line x1="160.700000" y1="64.000000" x2="164.700000" y2="64.000000"  style="stroke:black; stroke-linecap:round; stroke-width:0.25;"/>
<line x1="165.350000" y1="24.000000" x2="224.700000" y2="24.000000"  style="stroke:black; stroke-linecap:round; stroke-width:0.25;"/>
<line x1="177.350000" y1="108.000000" x2="181.350000" y2="108.000000"  style="stroke:black; stroke-linecap:round; stroke-width:0.25;"/>
<line x1="181.350000" y1="108.000000" x2="264.700000" y2="108.000000"  style="stroke:black; stroke-linecap:round; stroke-width:0.25;"/>
<line x1="188.700000" y1="60.000000" x2="192.700000" y2="60.000000"  style="stroke:black; stroke-linecap:round; stroke-width:0.25;"/>
<line x1="192.700000" y1="60.000000" x2="192.700000" y2="60.000000"  style="stroke:black; stroke-linecap:round; stroke-width:0.25;"/>
<line x1="192.700000" y1="60.000000" x2="196.700000" y2="60.000000"  style="stroke:black; stroke-linecap:round; stroke-width:0.25;"/>
<line x1="220.700000" y1="60.000000" x2="224.700000" y2="60.000000"  style="stroke:black; stroke-linecap:round; stroke-width:0.25;"/>
<line x1="224.700000" y1="24.000000" x2="232.700000" y2="24.000000"  style="stroke:black; stroke-linecap:round; stroke-width:0.25;"/>
<line x1="224.700000" y1="60.000000" x2="232.700000" y2="60.000000"  style="stroke:black; stroke-linecap:round; stroke-width:0.25;"/>
<line x1="232.700000" y1="24.000000" x2="232.700000" y2="52.000000"  style="stroke:black; stroke-linecap:round; stroke-width:0.25;"/>
<line x1="232.700000" y1="52.000000" x2="232.700000" y2="52.000000"  style="stroke:black; stroke-linecap:round; stroke-width:0.25;"/>
<line x1="232.700000" y1="52.000000" x2="236.700000" y2="52.000000"  style="stroke:black; stroke-linecap:round; stroke-width:0.25;"/>
<line x1="232.700000" y1="60.000000" x2="236.700000" y2="60.000000"  style="stroke:black; stroke-linecap:round; stroke-width:0.25;"/>
<line x1="260.700000" y1="56.000000" x2="264.700000" y2="56.000000"  style="stroke:black; stroke-linecap:round; stroke-width:0.25;"/>
<line x1="264.700000" y1="56.000000" x2="272.700000" y2="56.000000"  style="stroke:black; stroke-linecap:round; stroke-width:0.25;"/>
<line x1="264.700000" y1="76.000000" x2="272.700000" y2="76.000000"  style="stroke:black; stroke-linecap:round; stroke-width:0.25;"/>
<line x1="264.700000" y1="108.000000" x2="264.700000" y2="76.000000"  style="stroke:black; stroke-linecap:round; stroke-width:0.25;"/>
<line x1="264.700000" y1="108.000000" x2="264.700000" y2="108.000000"  style="stroke:black; stroke-linecap:round; stroke-width:0.25;"/>
<line x1="272.700000" y1="56.000000" x2="272.700000" y2="68.000000"  style="stroke:black; stroke-linecap:round; stroke-width:0.25;"/>
<line x1="272.700000" y1="68.000000" x2="272.700000" y2="68.000000"  style="stroke:black; stroke-linecap:round; stroke-width:0.25;"/>
<line x1="272.700000" y1="68.000000" x2="276.700000" y2="68.000000"  style="stroke:black; stroke-linecap:round; stroke-width:0.25;"/>
<line x1="272.700000" y1="76.000000" x2="276.700000" y2="76.000000"  style="stroke:black; stroke-linecap:round; stroke-width:0.25;"/>
<line x1="276.700000" y1="68.000000" x2="280.700000" y2="68.000000"  style="stroke:black; stroke-linecap:round; stroke-width:0.25;"/>
<line x1="276.700000" y1="76.000000" x2="280.700000" y2="76.000000"  style="stroke:black; stroke-linecap:round; stroke-width:0.25;"/>
<line x1="280.700000" y1="68.000000" x2="290.700000" y2="68.000000"  style="stroke:black; stroke-linecap:round; stroke-width:0.25;"/>
<line x1="280.700000" y1="76.000000" x2="290.700000" y2="76.000000"  style="stroke:black; stroke-linecap:round; stroke-width:0.25;"/>
</svg>
