<?xml version="1.0"?>
<svg xmlns="http://www.w3.org/2000/svg" xmlns:xlink="http://www.w3.org/1999/xlink" viewBox="0 0 454.700000 164.000000" width="227.350000mm" height="82.000000mm" version="1.1">
<defs>
   <filter id="filter" filterRes="18" x="0" y="0">
     <feGaussianBlur in="SourceGraphic" stdDeviation="1.55" result="blur"/>
     <feOffset in="blur" dx="3" dy="3"/>
   </filter>
</defs>
<a xlink:href="Early-0x31307e0.svg">
<rect x="1.000000" y="1.000000" width="453.700000" height="163.000000" rx="0.1" ry="0.1" style="stroke:none;fill:#aaaaaa;;filter:url(#filter);"/>
<rect x="0.000000" y="0.000000" width="453.700000" height="163.000000" rx="0" ry="0" style="stroke:none;fill:#ffffff;"/>
</a>
<text x="10.000000" y="7.000000" font-family="Arial" font-size="7"></text>
<rect x="76.000000" y="55.000000" width="24.000000" height="24.000000" rx="0.1" ry="0.1" style="stroke:none;fill:#aaaaaa;;filter:url(#filter);"/>
<rect x="75.000000" y="54.000000" width="24.000000" height="24.000000" rx="0" ry="0" style="stroke:none;fill:#4B71A1;"/>
<text x="87.000000" y="68.000000" font-family="Arial" font-size="7" text-anchor="middle" fill="#FFFFFF">-</text>
<circle cx="77.000000" cy="56.000000" r="1"/>
<line x1="72.000000" y1="61.000000" x2="75.000000" y2="62.000000"  transform="rotate(0.000000,75.000000,62.000000)" style="stroke: black; stroke-width:0.25;"/>
<line x1="72.000000" y1="63.000000" x2="75.000000" y2="62.000000"  transform="rotate(0.000000,75.000000,62.000000)" style="stroke: black; stroke-width:0.25;"/>
<line x1="72.000000" y1="69.000000" x2="75.000000" y2="70.000000"  transform="rotate(0.000000,75.000000,70.000000)" style="stroke: black; stroke-width:0.25;"/>
<line x1="72.000000" y1="71.000000" x2="75.000000" y2="70.000000"  transform="rotate(0.000000,75.000000,70.000000)" style="stroke: black; stroke-width:0.25;"/>
<rect x="126.000000" y="43.000000" width="167.700000" height="24.000000" rx="0.1" ry="0.1" style="stroke:none;fill:#aaaaaa;;filter:url(#filter);"/>
<rect x="125.000000" y="42.000000" width="167.700000" height="24.000000" rx="0" ry="0" style="stroke:none;fill:#477881;"/>
<text x="208.850000" y="56.000000" font-family="Arial" font-size="7" text-anchor="middle" fill="#FFFFFF">hslider(Pre-DelTime&apos;s, 0.6, 0, 15, 0.1)</text>
<circle cx="127.000000" cy="44.000000" r="1"/>
<line x1="116.000000" y1="33.000000" x2="116.000000" y2="75.000000"  style="stroke: black; stroke-linecap:round; stroke-width:0.25; stroke-dasharray:3,3;"/>
<line x1="116.000000" y1="75.000000" x2="301.700000" y2="75.000000"  style="stroke: black; stroke-linecap:round; stroke-width:0.25; stroke-dasharray:3,3;"/>
<line x1="301.700000" y1="75.000000" x2="301.700000" y2="33.000000"  style="stroke: black; stroke-linecap:round; stroke-width:0.25; stroke-dasharray:3,3;"/>
<line x1="116.000000" y1="33.000000" x2="121.000000" y2="33.000000"  style="stroke: black; stroke-linecap:round; stroke-width:0.25; stroke-dasharray:3,3;"/>
<line x1="150.025000" y1="33.000000" x2="301.700000" y2="33.000000"  style="stroke: black; stroke-linecap:round; stroke-width:0.25; stroke-dasharray:3,3;"/>
<text x="121.000000" y="35.000000" font-family="Arial" font-size="7">DelTime</text>
<rect x="197.850000" y="85.000000" width="24.000000" height="24.000000" rx="0.1" ry="0.1" style="stroke:none;fill:#aaaaaa;;filter:url(#filter);"/>
<rect x="196.850000" y="84.000000" width="24.000000" height="24.000000" rx="0" ry="0" style="stroke:none;fill:#f44800;"/>
<text x="208.850000" y="98.000000" font-family="Arial" font-size="7" text-anchor="middle" fill="#FFFFFF">79</text>
<circle cx="198.850000" cy="86.000000" r="1"/>
<rect x="319.700000" y="59.000000" width="24.000000" height="24.000000" rx="0.1" ry="0.1" style="stroke:none;fill:#aaaaaa;;filter:url(#filter);"/>
<rect x="318.700000" y="58.000000" width="24.000000" height="24.000000" rx="0" ry="0" style="stroke:none;fill:#4B71A1;"/>
<text x="330.700000" y="72.000000" font-family="Arial" font-size="7" text-anchor="middle" fill="#FFFFFF">*</text>
<circle cx="320.700000" cy="60.000000" r="1"/>
<line x1="315.700000" y1="65.000000" x2="318.700000" y2="66.000000"  transform="rotate(0.000000,318.700000,66.000000)" style="stroke: black; stroke-width:0.25;"/>
<line x1="315.700000" y1="67.000000" x2="318.700000" y2="66.000000"  transform="rotate(0.000000,318.700000,66.000000)" style="stroke: black; stroke-width:0.25;"/>
<line x1="315.700000" y1="73.000000" x2="318.700000" y2="74.000000"  transform="rotate(0.000000,318.700000,74.000000)" style="stroke: black; stroke-width:0.25;"/>
<line x1="315.700000" y1="75.000000" x2="318.700000" y2="74.000000"  transform="rotate(0.000000,318.700000,74.000000)" style="stroke: black; stroke-width:0.25;"/>
<rect x="351.700000" y="59.000000" width="24.000000" height="24.000000" rx="0.1" ry="0.1" style="stroke:none;fill:#aaaaaa;;filter:url(#filter);"/>
<rect x="350.700000" y="58.000000" width="24.000000" height="24.000000" rx="0" ry="0" style="stroke:none;fill:#4B71A1;"/>
<text x="362.700000" y="72.000000" font-family="Arial" font-size="7" text-anchor="middle" fill="#FFFFFF">int</text>
<circle cx="352.700000" cy="60.000000" r="1"/>
<line x1="347.700000" y1="69.000000" x2="350.700000" y2="70.000000"  transform="rotate(0.000000,350.700000,70.000000)" style="stroke: black; stroke-width:0.25;"/>
<line x1="347.700000" y1="71.000000" x2="350.700000" y2="70.000000"  transform="rotate(0.000000,350.700000,70.000000)" style="stroke: black; stroke-width:0.25;"/>
<rect x="391.700000" y="55.000000" width="24.000000" height="24.000000" rx="0.1" ry="0.1" style="stroke:none;fill:#aaaaaa;;filter:url(#filter);"/>
<rect x="390.700000" y="54.000000" width="24.000000" height="24.000000" rx="0" ry="0" style="stroke:none;fill:#4B71A1;"/>
<text x="402.700000" y="68.000000" font-family="Arial" font-size="7" text-anchor="middle" fill="#FFFFFF">@</text>
<circle cx="392.700000" cy="56.000000" r="1"/>
<line x1="387.700000" y1="61.000000" x2="390.700000" y2="62.000000"  transform="rotate(0.000000,390.700000,62.000000)" style="stroke: black; stroke-width:0.25;"/>
<line x1="387.700000" y1="63.000000" x2="390.700000" y2="62.000000"  transform="rotate(0.000000,390.700000,62.000000)" style="stroke: black; stroke-width:0.25;"/>
<line x1="387.700000" y1="69.000000" x2="390.700000" y2="70.000000"  transform="rotate(0.000000,390.700000,70.000000)" style="stroke: black; stroke-width:0.25;"/>
<line x1="387.700000" y1="71.000000" x2="390.700000" y2="70.000000"  transform="rotate(0.000000,390.700000,70.000000)" style="stroke: black; stroke-width:0.25;"/>
<rect x="233.850000" y="117.000000" width="24.000000" height="24.000000" rx="0.1" ry="0.1" style="stroke:none;fill:#aaaaaa;;filter:url(#filter);"/>
<rect x="232.850000" y="116.000000" width="24.000000" height="24.000000" rx="0" ry="0" style="stroke:none;fill:#4B71A1;"/>
<text x="244.850000" y="130.000000" font-family="Arial" font-size="7" text-anchor="middle" fill="#FFFFFF">+</text>
<circle cx="234.850000" cy="118.000000" r="1"/>
<line x1="229.850000" y1="123.000000" x2="232.850000" y2="124.000000"  transform="rotate(0.000000,232.850000,124.000000)" style="stroke: black; stroke-width:0.25;"/>
<line x1="229.850000" y1="125.000000" x2="232.850000" y2="124.000000"  transform="rotate(0.000000,232.850000,124.000000)" style="stroke: black; stroke-width:0.25;"/>
<line x1="229.850000" y1="131.000000" x2="232.850000" y2="132.000000"  transform="rotate(0.000000,232.850000,132.000000)" style="stroke: black; stroke-width:0.25;"/>
<line x1="229.850000" y1="133.000000" x2="232.850000" y2="132.000000"  transform="rotate(0.000000,232.850000,132.000000)" style="stroke: black; stroke-width:0.25;"/>
<line x1="15.000000" y1="15.000000" x2="15.000000" y2="149.000000"  style="stroke: black; stroke-linecap:round; stroke-width:0.25; stroke-dasharray:3,3;"/>
<line x1="15.000000" y1="149.000000" x2="439.700000" y2="149.000000"  style="stroke: black; stroke-linecap:round; stroke-width:0.25; stroke-dasharray:3,3;"/>
<line x1="439.700000" y1="149.000000" x2="439.700000" y2="15.000000"  style="stroke: black; stroke-linecap:round; stroke-width:0.25; stroke-dasharray:3,3;"/>
<line x1="15.000000" y1="15.000000" x2="20.000000" y2="15.000000"  style="stroke: black; stroke-linecap:round; stroke-width:0.25; stroke-dasharray:3,3;"/>
<line x1="49.025000" y1="15.000000" x2="439.700000" y2="15.000000"  style="stroke: black; stroke-linecap:round; stroke-width:0.25; stroke-dasharray:3,3;"/>
<text x="20.000000" y="17.000000" font-family="Arial" font-size="7">Del(79)</text>
<line x1="441.700000" y1="77.000000" x2="444.700000" y2="78.000000"  transform="rotate(0.000000,444.700000,78.000000)" style="stroke: black; stroke-width:0.25;"/>
<line x1="441.700000" y1="79.000000" x2="444.700000" y2="78.000000"  transform="rotate(0.000000,444.700000,78.000000)" style="stroke: black; stroke-width:0.25;"/>
<line x1="441.700000" y1="85.000000" x2="444.700000" y2="86.000000"  transform="rotate(0.000000,444.700000,86.000000)" style="stroke: black; stroke-width:0.25;"/>
<line x1="441.700000" y1="87.000000" x2="444.700000" y2="86.000000"  transform="rotate(0.000000,444.700000,86.000000)" style="stroke: black; stroke-width:0.25;"/>
<line x1="10.000000" y1="78.000000" x2="20.000000" y2="78.000000"  style="stroke:black; stroke-linecap:round; stroke-width:0.25;"/>
<line x1="10.000000" y1="86.000000" x2="20.000000" y2="86.000000"  style="stroke:black; stroke-linecap:round; stroke-width:0.25;"/>
<line x1="20.000000" y1="78.000000" x2="24.000000" y2="78.000000"  style="stroke:black; stroke-linecap:round; stroke-width:0.25;"/>
<line x1="20.000000" y1="86.000000" x2="24.000000" y2="86.000000"  style="stroke:black; stroke-linecap:round; stroke-width:0.25;"/>
<line x1="24.000000" y1="78.000000" x2="28.000000" y2="78.000000"  style="stroke:black; stroke-linecap:round; stroke-width:0.25;"/>
<line x1="24.000000" y1="86.000000" x2="28.000000" y2="86.000000"  style="stroke:black; stroke-linecap:round; stroke-width:0.25;"/>
<line x1="28.000000" y1="78.000000" x2="28.000000" y2="78.000000"  style="stroke:black; stroke-linecap:round; stroke-width:0.25;"/>
<line x1="28.000000" y1="78.000000" x2="32.000000" y2="78.000000"  style="stroke:black; stroke-linecap:round; stroke-width:0.25;"/>
<line x1="28.000000" y1="86.000000" x2="28.000000" y2="86.000000"  style="stroke:black; stroke-linecap:round; stroke-width:0.25;"/>
<line x1="28.000000" y1="86.000000" x2="32.000000" y2="86.000000"  style="stroke:black; stroke-linecap:round; stroke-width:0.25;"/>
<line x1="32.000000" y1="78.000000" x2="36.000000" y2="78.000000"  style="stroke:black; stroke-linecap:round; stroke-width:0.25;"/>
<line x1="32.000000" y1="86.000000" x2="36.000000" y2="86.000000"  style="stroke:black; stroke-linecap:round; stroke-width:0.25;"/>
<line x1="36.000000" y1="78.000000" x2="71.000000" y2="62.000000"  style="stroke:black; stroke-linecap:round; stroke-width:0.25;"/>
<line x1="36.000000" y1="78.000000" x2="71.000000" y2="124.000000"  style="stroke:black; stroke-linecap:round; stroke-width:0.25;"/>
<line x1="36.000000" y1="86.000000" x2="71.000000" y2="70.000000"  style="stroke:black; stroke-linecap:round; stroke-width:0.25;"/>
<line x1="36.000000" y1="86.000000" x2="71.000000" y2="132.000000"  style="stroke:black; stroke-linecap:round; stroke-width:0.25;"/>
<line x1="71.000000" y1="62.000000" x2="71.000000" y2="62.000000"  style="stroke:black; stroke-linecap:round; stroke-width:0.25;"/>
<line x1="71.000000" y1="62.000000" x2="75.000000" y2="62.000000"  style="stroke:black; stroke-linecap:round; stroke-width:0.25;"/>
<line x1="71.000000" y1="70.000000" x2="71.000000" y2="70.000000"  style="stroke:black; stroke-linecap:round; stroke-width:0.25;"/>
<line x1="71.000000" y1="70.000000" x2="75.000000" y2="70.000000"  style="stroke:black; stroke-linecap:round; stroke-width:0.25;"/>
<line x1="71.000000" y1="124.000000" x2="228.850000" y2="124.000000"  style="stroke:black; stroke-linecap:round; stroke-width:0.25;"/>
<line x1="71.000000" y1="132.000000" x2="228.850000" y2="132.000000"  style="stroke:black; stroke-linecap:round; stroke-width:0.25;"/>
<line x1="99.000000" y1="66.000000" x2="103.000000" y2="66.000000"  style="stroke:black; stroke-linecap:round; stroke-width:0.25;"/>
<line x1="103.000000" y1="24.000000" x2="111.000000" y2="24.000000"  style="stroke:black; stroke-linecap:round; stroke-width:0.25;"/>
<line x1="103.000000" y1="66.000000" x2="103.000000" y2="24.000000"  style="stroke:black; stroke-linecap:round; stroke-width:0.25;"/>
<line x1="103.000000" y1="66.000000" x2="103.000000" y2="66.000000"  style="stroke:black; stroke-linecap:round; stroke-width:0.25;"/>
<line x1="111.000000" y1="24.000000" x2="244.850000" y2="24.000000"  style="stroke:black; stroke-linecap:round; stroke-width:0.25;"/>
<line x1="220.850000" y1="96.000000" x2="224.850000" y2="96.000000"  style="stroke:black; stroke-linecap:round; stroke-width:0.25;"/>
<line x1="224.850000" y1="96.000000" x2="306.700000" y2="96.000000"  style="stroke:black; stroke-linecap:round; stroke-width:0.25;"/>
<line x1="228.850000" y1="124.000000" x2="228.850000" y2="124.000000"  style="stroke:black; stroke-linecap:round; stroke-width:0.25;"/>
<line x1="228.850000" y1="124.000000" x2="232.850000" y2="124.000000"  style="stroke:black; stroke-linecap:round; stroke-width:0.25;"/>
<line x1="228.850000" y1="132.000000" x2="228.850000" y2="132.000000"  style="stroke:black; stroke-linecap:round; stroke-width:0.25;"/>
<line x1="228.850000" y1="132.000000" x2="232.850000" y2="132.000000"  style="stroke:black; stroke-linecap:round; stroke-width:0.25;"/>
<line x1="244.850000" y1="24.000000" x2="378.700000" y2="24.000000"  style="stroke:black; stroke-linecap:round; stroke-width:0.25;"/>
<line x1="256.850000" y1="128.000000" x2="260.850000" y2="128.000000"  style="stroke:black; stroke-linecap:round; stroke-width:0.25;"/>
<line x1="260.850000" y1="128.000000" x2="418.700000" y2="128.000000"  style="stroke:black; stroke-linecap:round; stroke-width:0.25;"/>
<line x1="292.700000" y1="54.000000" x2="296.700000" y2="54.000000"  style="stroke:black; stroke-linecap:round; stroke-width:0.25;"/>
<line x1="296.700000" y1="54.000000" x2="306.700000" y2="54.000000"  style="stroke:black; stroke-linecap:round; stroke-width:0.25;"/>
<line x1="306.700000" y1="54.000000" x2="314.700000" y2="54.000000"  style="stroke:black; stroke-linecap:round; stroke-width:0.25;"/>
<line x1="306.700000" y1="74.000000" x2="314.700000" y2="74.000000"  style="stroke:black; stroke-linecap:round; stroke-width:0.25;"/>
<line x1="306.700000" y1="96.000000" x2="306.700000" y2="74.000000"  style="stroke:black; stroke-linecap:round; stroke-width:0.25;"/>
<line x1="306.700000" y1="96.000000" x2="306.700000" y2="96.000000"  style="stroke:black; stroke-linecap:round; stroke-width:0.25;"/>
<line x1="314.700000" y1="54.000000" x2="314.700000" y2="66.000000"  style="stroke:black; stroke-linecap:round; stroke-width:0.25;"/>
<line x1="314.700000" y1="66.000000" x2="314.700000" y2="66.000000"  style="stroke:black; stroke-linecap:round; stroke-width:0.25;"/>
<line x1="314.700000" y1="66.000000" x2="318.700000" y2="66.000000"  style="stroke:black; stroke-linecap:round; stroke-width:0.25;"/>
<line x1="314.700000" y1="74.000000" x2="318.700000" y2="74.000000"  style="stroke:black; stroke-linecap:round; stroke-width:0.25;"/>
<line x1="342.700000" y1="70.000000" x2="346.700000" y2="70.000000"  style="stroke:black; stroke-linecap:round; stroke-width:0.25;"/>
<line x1="346.700000" y1="70.000000" x2="346.700000" y2="70.000000"  style="stroke:black; stroke-linecap:round; stroke-width:0.25;"/>
<line x1="346.700000" y1="70.000000" x2="350.700000" y2="70.000000"  style="stroke:black; stroke-linecap:round; stroke-width:0.25;"/>
<line x1="374.700000" y1="70.000000" x2="378.700000" y2="70.000000"  style="stroke:black; stroke-linecap:round; stroke-width:0.25;"/>
<line x1="378.700000" y1="24.000000" x2="386.700000" y2="24.000000"  style="stroke:black; stroke-linecap:round; stroke-width:0.25;"/>
<line x1="378.700000" y1="70.000000" x2="386.700000" y2="70.000000"  style="stroke:black; stroke-linecap:round; stroke-width:0.25;"/>
<line x1="386.700000" y1="24.000000" x2="386.700000" y2="62.000000"  style="stroke:black; stroke-linecap:round; stroke-width:0.25;"/>
<line x1="386.700000" y1="62.000000" x2="386.700000" y2="62.000000"  style="stroke:black; stroke-linecap:round; stroke-width:0.25;"/>
<line x1="386.700000" y1="62.000000" x2="390.700000" y2="62.000000"  style="stroke:black; stroke-linecap:round; stroke-width:0.25;"/>
<line x1="386.700000" y1="70.000000" x2="390.700000" y2="70.000000"  style="stroke:black; stroke-linecap:round; stroke-width:0.25;"/>
<line x1="414.700000" y1="66.000000" x2="418.700000" y2="66.000000"  style="stroke:black; stroke-linecap:round; stroke-width:0.25;"/>
<line x1="418.700000" y1="66.000000" x2="426.700000" y2="66.000000"  style="stroke:black; stroke-linecap:round; stroke-width:0.25;"/>
<line x1="418.700000" y1="86.000000" x2="426.700000" y2="86.000000"  style="stroke:black; stroke-linecap:round; stroke-width:0.25;"/>
<line x1="418.700000" y1="128.000000" x2="418.700000" y2="86.000000"  style="stroke:black; stroke-linecap:round; stroke-width:0.25;"/>
<line x1="418.700000" y1="128.000000" x2="418.700000" y2="128.000000"  style="stroke:black; stroke-linecap:round; stroke-width:0.25;"/>
<line x1="426.700000" y1="66.000000" x2="426.700000" y2="78.000000"  style="stroke:black; stroke-linecap:round; stroke-width:0.25;"/>
<line x1="426.700000" y1="78.000000" x2="426.700000" y2="78.000000"  style="stroke:black; stroke-linecap:round; stroke-width:0.25;"/>
<line x1="426.700000" y1="78.000000" x2="430.700000" y2="78.000000"  style="stroke:black; stroke-linecap:round; stroke-width:0.25;"/>
<line x1="426.700000" y1="86.000000" x2="430.700000" y2="86.000000"  style="stroke:black; stroke-linecap:round; stroke-width:0.25;"/>
<line x1="430.700000" y1="78.000000" x2="434.700000" y2="78.000000"  style="stroke:black; stroke-linecap:round; stroke-width:0.25;"/>
<line x1="430.700000" y1="86.000000" x2="434.700000" y2="86.000000"  style="stroke:black; stroke-linecap:round; stroke-width:0.25;"/>
<line x1="434.700000" y1="78.000000" x2="444.700000" y2="78.000000"  style="stroke:black; stroke-linecap:round; stroke-width:0.25;"/>
<line x1="434.700000" y1="86.000000" x2="444.700000" y2="86.000000"  style="stroke:black; stroke-linecap:round; stroke-width:0.25;"/>
</svg>
