<?xml version="1.0"?>
<svg xmlns="http://www.w3.org/2000/svg" xmlns:xlink="http://www.w3.org/1999/xlink" viewBox="0 0 303.700000 80.000000" width="151.850000mm" height="40.000000mm" version="1.1">
<defs>
   <filter id="filter" filterRes="18" x="0" y="0">
     <feGaussianBlur in="SourceGraphic" stdDeviation="1.55" result="blur"/>
     <feOffset in="blur" dx="3" dy="3"/>
   </filter>
</defs>
<a xlink:href="Del-0x2e06940.svg">
<rect x="1.000000" y="1.000000" width="302.700000" height="79.000000" rx="0.1" ry="0.1" style="stroke:none;fill:#aaaaaa;;filter:url(#filter);"/>
<rect x="0.000000" y="0.000000" width="302.700000" height="79.000000" rx="0" ry="0" style="stroke:none;fill:#ffffff;"/>
</a>
<text x="10.000000" y="7.000000" font-family="Arial" font-size="7"></text>
<rect x="25.000000" y="29.000000" width="167.700000" height="24.000000" rx="0.1" ry="0.1" style="stroke:none;fill:#aaaaaa;;filter:url(#filter);"/>
<rect x="24.000000" y="28.000000" width="167.700000" height="24.000000" rx="0" ry="0" style="stroke:none;fill:#477881;"/>
<text x="107.850000" y="42.000000" font-family="Arial" font-size="7" text-anchor="middle" fill="#FFFFFF">hslider(Pre-DelTime&apos;s, 0.6, 0, 15, 0.1)</text>
<circle cx="26.000000" cy="30.000000" r="1"/>
<rect x="208.700000" y="25.000000" width="24.000000" height="24.000000" rx="0.1" ry="0.1" style="stroke:none;fill:#aaaaaa;;filter:url(#filter);"/>
<rect x="207.700000" y="24.000000" width="24.000000" height="24.000000" rx="0" ry="0" style="stroke:none;fill:#f44800;"/>
<text x="219.700000" y="38.000000" font-family="Arial" font-size="7" text-anchor="middle" fill="#FFFFFF">10</text>
<circle cx="209.700000" cy="26.000000" r="1"/>
<rect x="248.700000" y="29.000000" width="24.000000" height="24.000000" rx="0.1" ry="0.1" style="stroke:none;fill:#aaaaaa;;filter:url(#filter);"/>
<rect x="247.700000" y="28.000000" width="24.000000" height="24.000000" rx="0" ry="0" style="stroke:none;fill:#4B71A1;"/>
<text x="259.700000" y="42.000000" font-family="Arial" font-size="7" text-anchor="middle" fill="#FFFFFF">max</text>
<circle cx="249.700000" cy="30.000000" r="1"/>
<line x1="244.700000" y1="35.000000" x2="247.700000" y2="36.000000"  transform="rotate(0.000000,247.700000,36.000000)" style="stroke: black; stroke-width:0.25;"/>
<line x1="244.700000" y1="37.000000" x2="247.700000" y2="36.000000"  transform="rotate(0.000000,247.700000,36.000000)" style="stroke: black; stroke-width:0.25;"/>
<line x1="244.700000" y1="43.000000" x2="247.700000" y2="44.000000"  transform="rotate(0.000000,247.700000,44.000000)" style="stroke: black; stroke-width:0.25;"/>
<line x1="244.700000" y1="45.000000" x2="247.700000" y2="44.000000"  transform="rotate(0.000000,247.700000,44.000000)" style="stroke: black; stroke-width:0.25;"/>
<line x1="15.000000" y1="15.000000" x2="15.000000" y2="65.000000"  style="stroke: black; stroke-linecap:round; stroke-width:0.25; stroke-dasharray:3,3;"/>
<line x1="15.000000" y1="65.000000" x2="288.700000" y2="65.000000"  style="stroke: black; stroke-linecap:round; stroke-width:0.25; stroke-dasharray:3,3;"/>
<line x1="288.700000" y1="65.000000" x2="288.700000" y2="15.000000"  style="stroke: black; stroke-linecap:round; stroke-width:0.25; stroke-dasharray:3,3;"/>
<line x1="15.000000" y1="15.000000" x2="20.000000" y2="15.000000"  style="stroke: black; stroke-linecap:round; stroke-width:0.25; stroke-dasharray:3,3;"/>
<line x1="49.025000" y1="15.000000" x2="288.700000" y2="15.000000"  style="stroke: black; stroke-linecap:round; stroke-width:0.25; stroke-dasharray:3,3;"/>
<text x="20.000000" y="17.000000" font-family="Arial" font-size="7">DelTime</text>
<line x1="290.700000" y1="39.000000" x2="293.700000" y2="40.000000"  transform="rotate(0.000000,293.700000,40.000000)" style="stroke: black; stroke-width:0.25;"/>
<line x1="290.700000" y1="41.000000" x2="293.700000" y2="40.000000"  transform="rotate(0.000000,293.700000,40.000000)" style="stroke: black; stroke-width:0.25;"/>
<line x1="191.700000" y1="40.000000" x2="195.700000" y2="40.000000"  style="stroke:black; stroke-linecap:round; stroke-width:0.25;"/>
<line x1="195.700000" y1="40.000000" x2="203.700000" y2="40.000000"  style="stroke:black; stroke-linecap:round; stroke-width:0.25;"/>
<line x1="203.700000" y1="40.000000" x2="203.700000" y2="56.000000"  style="stroke:black; stroke-linecap:round; stroke-width:0.25;"/>
<line x1="203.700000" y1="56.000000" x2="203.700000" y2="56.000000"  style="stroke:black; stroke-linecap:round; stroke-width:0.25;"/>
<line x1="203.700000" y1="56.000000" x2="219.700000" y2="56.000000"  style="stroke:black; stroke-linecap:round; stroke-width:0.25;"/>
<line x1="219.700000" y1="56.000000" x2="235.700000" y2="56.000000"  style="stroke:black; stroke-linecap:round; stroke-width:0.25;"/>
<line x1="231.700000" y1="36.000000" x2="235.700000" y2="36.000000"  style="stroke:black; stroke-linecap:round; stroke-width:0.25;"/>
<line x1="235.700000" y1="36.000000" x2="243.700000" y2="36.000000"  style="stroke:black; stroke-linecap:round; stroke-width:0.25;"/>
<line x1="235.700000" y1="44.000000" x2="243.700000" y2="44.000000"  style="stroke:black; stroke-linecap:round; stroke-width:0.25;"/>
<line x1="235.700000" y1="56.000000" x2="235.700000" y2="44.000000"  style="stroke:black; stroke-linecap:round; stroke-width:0.25;"/>
<line x1="235.700000" y1="56.000000" x2="235.700000" y2="56.000000"  style="stroke:black; stroke-linecap:round; stroke-width:0.25;"/>
<line x1="243.700000" y1="36.000000" x2="247.700000" y2="36.000000"  style="stroke:black; stroke-linecap:round; stroke-width:0.25;"/>
<line x1="243.700000" y1="44.000000" x2="247.700000" y2="44.000000"  style="stroke:black; stroke-linecap:round; stroke-width:0.25;"/>
<line x1="271.700000" y1="40.000000" x2="275.700000" y2="40.000000"  style="stroke:black; stroke-linecap:round; stroke-width:0.25;"/>
<line x1="275.700000" y1="40.000000" x2="275.700000" y2="40.000000"  style="stroke:black; stroke-linecap:round; stroke-width:0.25;"/>
<line x1="275.700000" y1="40.000000" x2="279.700000" y2="40.000000"  style="stroke:black; stroke-linecap:round; stroke-width:0.25;"/>
<line x1="279.700000" y1="40.000000" x2="283.700000" y2="40.000000"  style="stroke:black; stroke-linecap:round; stroke-width:0.25;"/>
<line x1="283.700000" y1="40.000000" x2="293.700000" y2="40.000000"  style="stroke:black; stroke-linecap:round; stroke-width:0.25;"/>
</svg>
