<?xml version="1.0"?>
<svg xmlns="http://www.w3.org/2000/svg" xmlns:xlink="http://www.w3.org/1999/xlink" viewBox="0 0 403.700000 100.000000" width="201.850000mm" height="50.000000mm" version="1.1">
<defs>
   <filter id="filter" filterRes="18" x="0" y="0">
     <feGaussianBlur in="SourceGraphic" stdDeviation="1.55" result="blur"/>
     <feOffset in="blur" dx="3" dy="3"/>
   </filter>
</defs>
<a xlink:href="Del-0x2ed37a0.svg">
<rect x="1.000000" y="1.000000" width="402.700000" height="99.000000" rx="0.1" ry="0.1" style="stroke:none;fill:#aaaaaa;;filter:url(#filter);"/>
<rect x="0.000000" y="0.000000" width="402.700000" height="99.000000" rx="0" ry="0" style="stroke:none;fill:#ffffff;"/>
</a>
<text x="10.000000" y="7.000000" font-family="Arial" font-size="7"></text>
<rect x="25.000000" y="39.000000" width="167.700000" height="24.000000" rx="0.1" ry="0.1" style="stroke:none;fill:#aaaaaa;;filter:url(#filter);"/>
<rect x="24.000000" y="38.000000" width="167.700000" height="24.000000" rx="0" ry="0" style="stroke:none;fill:#477881;"/>
<text x="107.850000" y="52.000000" font-family="Arial" font-size="7" text-anchor="middle" fill="#FFFFFF">hslider(Pre-DelTime&apos;s, 0.6, 0, 15, 0.1)</text>
<circle cx="26.000000" cy="40.000000" r="1"/>
<rect x="218.700000" y="35.000000" width="24.000000" height="24.000000" rx="0.1" ry="0.1" style="stroke:none;fill:#aaaaaa;;filter:url(#filter);"/>
<rect x="217.700000" y="34.000000" width="24.000000" height="24.000000" rx="0" ry="0" style="stroke:none;fill:#f44800;"/>
<text x="229.700000" y="48.000000" font-family="Arial" font-size="7" text-anchor="middle" fill="#FFFFFF">0</text>
<circle cx="219.700000" cy="36.000000" r="1"/>
<line x1="208.700000" y1="25.000000" x2="208.700000" y2="67.000000"  style="stroke: black; stroke-linecap:round; stroke-width:0.25; stroke-dasharray:3,3;"/>
<line x1="208.700000" y1="67.000000" x2="250.700000" y2="67.000000"  style="stroke: black; stroke-linecap:round; stroke-width:0.25; stroke-dasharray:3,3;"/>
<line x1="250.700000" y1="67.000000" x2="250.700000" y2="25.000000"  style="stroke: black; stroke-linecap:round; stroke-width:0.25; stroke-dasharray:3,3;"/>
<line x1="208.700000" y1="25.000000" x2="213.700000" y2="25.000000"  style="stroke: black; stroke-linecap:round; stroke-width:0.25; stroke-dasharray:3,3;"/>
<line x1="223.375000" y1="25.000000" x2="250.700000" y2="25.000000"  style="stroke: black; stroke-linecap:round; stroke-width:0.25; stroke-dasharray:3,3;"/>
<text x="213.700000" y="27.000000" font-family="Arial" font-size="7">A</text>
<rect x="268.700000" y="39.000000" width="24.000000" height="24.000000" rx="0.1" ry="0.1" style="stroke:none;fill:#aaaaaa;;filter:url(#filter);"/>
<rect x="267.700000" y="38.000000" width="24.000000" height="24.000000" rx="0" ry="0" style="stroke:none;fill:#4B71A1;"/>
<text x="279.700000" y="52.000000" font-family="Arial" font-size="7" text-anchor="middle" fill="#FFFFFF">max</text>
<circle cx="269.700000" cy="40.000000" r="1"/>
<line x1="264.700000" y1="45.000000" x2="267.700000" y2="46.000000"  transform="rotate(0.000000,267.700000,46.000000)" style="stroke: black; stroke-width:0.25;"/>
<line x1="264.700000" y1="47.000000" x2="267.700000" y2="46.000000"  transform="rotate(0.000000,267.700000,46.000000)" style="stroke: black; stroke-width:0.25;"/>
<line x1="264.700000" y1="53.000000" x2="267.700000" y2="54.000000"  transform="rotate(0.000000,267.700000,54.000000)" style="stroke: black; stroke-width:0.25;"/>
<line x1="264.700000" y1="55.000000" x2="267.700000" y2="54.000000"  transform="rotate(0.000000,267.700000,54.000000)" style="stroke: black; stroke-width:0.25;"/>
<rect x="308.700000" y="35.000000" width="24.000000" height="24.000000" rx="0.1" ry="0.1" style="stroke:none;fill:#aaaaaa;;filter:url(#filter);"/>
<rect x="307.700000" y="34.000000" width="24.000000" height="24.000000" rx="0" ry="0" style="stroke:none;fill:#f44800;"/>
<text x="319.700000" y="48.000000" font-family="Arial" font-size="7" text-anchor="middle" fill="#FFFFFF">15</text>
<circle cx="309.700000" cy="36.000000" r="1"/>
<rect x="348.700000" y="39.000000" width="24.000000" height="24.000000" rx="0.1" ry="0.1" style="stroke:none;fill:#aaaaaa;;filter:url(#filter);"/>
<rect x="347.700000" y="38.000000" width="24.000000" height="24.000000" rx="0" ry="0" style="stroke:none;fill:#4B71A1;"/>
<text x="359.700000" y="52.000000" font-family="Arial" font-size="7" text-anchor="middle" fill="#FFFFFF">min</text>
<circle cx="349.700000" cy="40.000000" r="1"/>
<line x1="344.700000" y1="45.000000" x2="347.700000" y2="46.000000"  transform="rotate(0.000000,347.700000,46.000000)" style="stroke: black; stroke-width:0.25;"/>
<line x1="344.700000" y1="47.000000" x2="347.700000" y2="46.000000"  transform="rotate(0.000000,347.700000,46.000000)" style="stroke: black; stroke-width:0.25;"/>
<line x1="344.700000" y1="53.000000" x2="347.700000" y2="54.000000"  transform="rotate(0.000000,347.700000,54.000000)" style="stroke: black; stroke-width:0.25;"/>
<line x1="344.700000" y1="55.000000" x2="347.700000" y2="54.000000"  transform="rotate(0.000000,347.700000,54.000000)" style="stroke: black; stroke-width:0.25;"/>
<line x1="15.000000" y1="15.000000" x2="15.000000" y2="85.000000"  style="stroke: black; stroke-linecap:round; stroke-width:0.25; stroke-dasharray:3,3;"/>
<line x1="15.000000" y1="85.000000" x2="388.700000" y2="85.000000"  style="stroke: black; stroke-linecap:round; stroke-width:0.25; stroke-dasharray:3,3;"/>
<line x1="388.700000" y1="85.000000" x2="388.700000" y2="15.000000"  style="stroke: black; stroke-linecap:round; stroke-width:0.25; stroke-dasharray:3,3;"/>
<line x1="15.000000" y1="15.000000" x2="20.000000" y2="15.000000"  style="stroke: black; stroke-linecap:round; stroke-width:0.25; stroke-dasharray:3,3;"/>
<line x1="49.025000" y1="15.000000" x2="388.700000" y2="15.000000"  style="stroke: black; stroke-linecap:round; stroke-width:0.25; stroke-dasharray:3,3;"/>
<text x="20.000000" y="17.000000" font-family="Arial" font-size="7">DelTime</text>
<line x1="390.700000" y1="49.000000" x2="393.700000" y2="50.000000"  transform="rotate(0.000000,393.700000,50.000000)" style="stroke: black; stroke-width:0.25;"/>
<line x1="390.700000" y1="51.000000" x2="393.700000" y2="50.000000"  transform="rotate(0.000000,393.700000,50.000000)" style="stroke: black; stroke-width:0.25;"/>
<line x1="191.700000" y1="50.000000" x2="195.700000" y2="50.000000"  style="stroke:black; stroke-linecap:round; stroke-width:0.25;"/>
<line x1="195.700000" y1="50.000000" x2="203.700000" y2="50.000000"  style="stroke:black; stroke-linecap:round; stroke-width:0.25;"/>
<line x1="203.700000" y1="50.000000" x2="203.700000" y2="76.000000"  style="stroke:black; stroke-linecap:round; stroke-width:0.25;"/>
<line x1="203.700000" y1="76.000000" x2="203.700000" y2="76.000000"  style="stroke:black; stroke-linecap:round; stroke-width:0.25;"/>
<line x1="203.700000" y1="76.000000" x2="229.700000" y2="76.000000"  style="stroke:black; stroke-linecap:round; stroke-width:0.25;"/>
<line x1="229.700000" y1="76.000000" x2="255.700000" y2="76.000000"  style="stroke:black; stroke-linecap:round; stroke-width:0.25;"/>
<line x1="241.700000" y1="46.000000" x2="245.700000" y2="46.000000"  style="stroke:black; stroke-linecap:round; stroke-width:0.25;"/>
<line x1="245.700000" y1="46.000000" x2="255.700000" y2="46.000000"  style="stroke:black; stroke-linecap:round; stroke-width:0.25;"/>
<line x1="255.700000" y1="46.000000" x2="263.700000" y2="46.000000"  style="stroke:black; stroke-linecap:round; stroke-width:0.25;"/>
<line x1="255.700000" y1="54.000000" x2="263.700000" y2="54.000000"  style="stroke:black; stroke-linecap:round; stroke-width:0.25;"/>
<line x1="255.700000" y1="76.000000" x2="255.700000" y2="54.000000"  style="stroke:black; stroke-linecap:round; stroke-width:0.25;"/>
<line x1="255.700000" y1="76.000000" x2="255.700000" y2="76.000000"  style="stroke:black; stroke-linecap:round; stroke-width:0.25;"/>
<line x1="263.700000" y1="46.000000" x2="267.700000" y2="46.000000"  style="stroke:black; stroke-linecap:round; stroke-width:0.25;"/>
<line x1="263.700000" y1="54.000000" x2="267.700000" y2="54.000000"  style="stroke:black; stroke-linecap:round; stroke-width:0.25;"/>
<line x1="291.700000" y1="50.000000" x2="295.700000" y2="50.000000"  style="stroke:black; stroke-linecap:round; stroke-width:0.25;"/>
<line x1="295.700000" y1="50.000000" x2="303.700000" y2="50.000000"  style="stroke:black; stroke-linecap:round; stroke-width:0.25;"/>
<line x1="303.700000" y1="50.000000" x2="303.700000" y2="66.000000"  style="stroke:black; stroke-linecap:round; stroke-width:0.25;"/>
<line x1="303.700000" y1="66.000000" x2="303.700000" y2="66.000000"  style="stroke:black; stroke-linecap:round; stroke-width:0.25;"/>
<line x1="303.700000" y1="66.000000" x2="319.700000" y2="66.000000"  style="stroke:black; stroke-linecap:round; stroke-width:0.25;"/>
<line x1="319.700000" y1="66.000000" x2="335.700000" y2="66.000000"  style="stroke:black; stroke-linecap:round; stroke-width:0.25;"/>
<line x1="331.700000" y1="46.000000" x2="335.700000" y2="46.000000"  style="stroke:black; stroke-linecap:round; stroke-width:0.25;"/>
<line x1="335.700000" y1="46.000000" x2="343.700000" y2="46.000000"  style="stroke:black; stroke-linecap:round; stroke-width:0.25;"/>
<line x1="335.700000" y1="54.000000" x2="343.700000" y2="54.000000"  style="stroke:black; stroke-linecap:round; stroke-width:0.25;"/>
<line x1="335.700000" y1="66.000000" x2="335.700000" y2="54.000000"  style="stroke:black; stroke-linecap:round; stroke-width:0.25;"/>
<line x1="335.700000" y1="66.000000" x2="335.700000" y2="66.000000"  style="stroke:black; stroke-linecap:round; stroke-width:0.25;"/>
<line x1="343.700000" y1="46.000000" x2="347.700000" y2="46.000000"  style="stroke:black; stroke-linecap:round; stroke-width:0.25;"/>
<line x1="343.700000" y1="54.000000" x2="347.700000" y2="54.000000"  style="stroke:black; stroke-linecap:round; stroke-width:0.25;"/>
<line x1="371.700000" y1="50.000000" x2="375.700000" y2="50.000000"  style="stroke:black; stroke-linecap:round; stroke-width:0.25;"/>
<line x1="375.700000" y1="50.000000" x2="375.700000" y2="50.000000"  style="stroke:black; stroke-linecap:round; stroke-width:0.25;"/>
<line x1="375.700000" y1="50.000000" x2="379.700000" y2="50.000000"  style="stroke:black; stroke-linecap:round; stroke-width:0.25;"/>
<line x1="379.700000" y1="50.000000" x2="383.700000" y2="50.000000"  style="stroke:black; stroke-linecap:round; stroke-width:0.25;"/>
<line x1="383.700000" y1="50.000000" x2="393.700000" y2="50.000000"  style="stroke:black; stroke-linecap:round; stroke-width:0.25;"/>
</svg>
