<?xml version="1.0"?>
<svg xmlns="http://www.w3.org/2000/svg" xmlns:xlink="http://www.w3.org/1999/xlink" viewBox="0 0 309.900000 120.000000" width="154.950000mm" height="60.000000mm" version="1.1">
<defs>
   <filter id="filter" filterRes="18" x="0" y="0">
     <feGaussianBlur in="SourceGraphic" stdDeviation="1.55" result="blur"/>
     <feOffset in="blur" dx="3" dy="3"/>
   </filter>
</defs>
<rect x="1.000000" y="1.000000" width="308.900000" height="119.000000" rx="0.1" ry="0.1" style="stroke:none;fill:#aaaaaa;;filter:url(#filter);"/>
<rect x="0.000000" y="0.000000" width="308.900000" height="119.000000" rx="0" ry="0" style="stroke:none;fill:#ffffff;"/>
<text x="10.000000" y="7.000000" font-family="Arial" font-size="7"></text>
<rect x="25.000000" y="33.000000" width="141.900000" height="24.000000" rx="0.1" ry="0.1" style="stroke:none;fill:#aaaaaa;;filter:url(#filter);"/>
<rect x="24.000000" y="32.000000" width="141.900000" height="24.000000" rx="0" ry="0" style="stroke:none;fill:#477881;"/>
<text x="94.950000" y="46.000000" font-family="Arial" font-size="7" text-anchor="middle" fill="#FFFFFF">hslider(sDel, 60, 1, 2206, 0.1)</text>
<circle cx="26.000000" cy="34.000000" r="1"/>
<rect x="182.900000" y="29.000000" width="24.000000" height="24.000000" rx="0.1" ry="0.1" style="stroke:none;fill:#aaaaaa;;filter:url(#filter);"/>
<rect x="181.900000" y="28.000000" width="24.000000" height="24.000000" rx="0" ry="0" style="stroke:none;fill:#4B71A1;"/>
<text x="193.900000" y="42.000000" font-family="Arial" font-size="7" text-anchor="middle" fill="#FFFFFF">@</text>
<circle cx="183.900000" cy="30.000000" r="1"/>
<line x1="178.900000" y1="35.000000" x2="181.900000" y2="36.000000"  transform="rotate(0.000000,181.900000,36.000000)" style="stroke: black; stroke-width:0.25;"/>
<line x1="178.900000" y1="37.000000" x2="181.900000" y2="36.000000"  transform="rotate(0.000000,181.900000,36.000000)" style="stroke: black; stroke-width:0.25;"/>
<line x1="178.900000" y1="43.000000" x2="181.900000" y2="44.000000"  transform="rotate(0.000000,181.900000,44.000000)" style="stroke: black; stroke-width:0.25;"/>
<line x1="178.900000" y1="45.000000" x2="181.900000" y2="44.000000"  transform="rotate(0.000000,181.900000,44.000000)" style="stroke: black; stroke-width:0.25;"/>
<rect x="222.900000" y="33.000000" width="24.000000" height="24.000000" rx="0.1" ry="0.1" style="stroke:none;fill:#aaaaaa;;filter:url(#filter);"/>
<rect x="221.900000" y="32.000000" width="24.000000" height="24.000000" rx="0" ry="0" style="stroke:none;fill:#f44800;"/>
<text x="233.900000" y="46.000000" font-family="Arial" font-size="7" text-anchor="middle" fill="#FFFFFF">0.1</text>
<circle cx="223.900000" cy="34.000000" r="1"/>
<rect x="262.900000" y="29.000000" width="24.000000" height="24.000000" rx="0.1" ry="0.1" style="stroke:none;fill:#aaaaaa;;filter:url(#filter);"/>
<rect x="261.900000" y="28.000000" width="24.000000" height="24.000000" rx="0" ry="0" style="stroke:none;fill:#4B71A1;"/>
<text x="273.900000" y="42.000000" font-family="Arial" font-size="7" text-anchor="middle" fill="#FFFFFF">*</text>
<circle cx="263.900000" cy="30.000000" r="1"/>
<line x1="258.900000" y1="35.000000" x2="261.900000" y2="36.000000"  transform="rotate(0.000000,261.900000,36.000000)" style="stroke: black; stroke-width:0.25;"/>
<line x1="258.900000" y1="37.000000" x2="261.900000" y2="36.000000"  transform="rotate(0.000000,261.900000,36.000000)" style="stroke: black; stroke-width:0.25;"/>
<line x1="258.900000" y1="43.000000" x2="261.900000" y2="44.000000"  transform="rotate(0.000000,261.900000,44.000000)" style="stroke: black; stroke-width:0.25;"/>
<line x1="258.900000" y1="45.000000" x2="261.900000" y2="44.000000"  transform="rotate(0.000000,261.900000,44.000000)" style="stroke: black; stroke-width:0.25;"/>
<rect x="25.000000" y="73.000000" width="141.900000" height="24.000000" rx="0.1" ry="0.1" style="stroke:none;fill:#aaaaaa;;filter:url(#filter);"/>
<rect x="24.000000" y="72.000000" width="141.900000" height="24.000000" rx="0" ry="0" style="stroke:none;fill:#477881;"/>
<text x="94.950000" y="86.000000" font-family="Arial" font-size="7" text-anchor="middle" fill="#FFFFFF">hslider(sDel, 60, 1, 2206, 0.1)</text>
<circle cx="26.000000" cy="74.000000" r="1"/>
<rect x="182.900000" y="69.000000" width="24.000000" height="24.000000" rx="0.1" ry="0.1" style="stroke:none;fill:#aaaaaa;;filter:url(#filter);"/>
<rect x="181.900000" y="68.000000" width="24.000000" height="24.000000" rx="0" ry="0" style="stroke:none;fill:#4B71A1;"/>
<text x="193.900000" y="82.000000" font-family="Arial" font-size="7" text-anchor="middle" fill="#FFFFFF">@</text>
<circle cx="183.900000" cy="70.000000" r="1"/>
<line x1="178.900000" y1="75.000000" x2="181.900000" y2="76.000000"  transform="rotate(0.000000,181.900000,76.000000)" style="stroke: black; stroke-width:0.25;"/>
<line x1="178.900000" y1="77.000000" x2="181.900000" y2="76.000000"  transform="rotate(0.000000,181.900000,76.000000)" style="stroke: black; stroke-width:0.25;"/>
<line x1="178.900000" y1="83.000000" x2="181.900000" y2="84.000000"  transform="rotate(0.000000,181.900000,84.000000)" style="stroke: black; stroke-width:0.25;"/>
<line x1="178.900000" y1="85.000000" x2="181.900000" y2="84.000000"  transform="rotate(0.000000,181.900000,84.000000)" style="stroke: black; stroke-width:0.25;"/>
<rect x="222.900000" y="73.000000" width="24.000000" height="24.000000" rx="0.1" ry="0.1" style="stroke:none;fill:#aaaaaa;;filter:url(#filter);"/>
<rect x="221.900000" y="72.000000" width="24.000000" height="24.000000" rx="0" ry="0" style="stroke:none;fill:#f44800;"/>
<text x="233.900000" y="86.000000" font-family="Arial" font-size="7" text-anchor="middle" fill="#FFFFFF">0.1</text>
<circle cx="223.900000" cy="74.000000" r="1"/>
<rect x="262.900000" y="69.000000" width="24.000000" height="24.000000" rx="0.1" ry="0.1" style="stroke:none;fill:#aaaaaa;;filter:url(#filter);"/>
<rect x="261.900000" y="68.000000" width="24.000000" height="24.000000" rx="0" ry="0" style="stroke:none;fill:#4B71A1;"/>
<text x="273.900000" y="82.000000" font-family="Arial" font-size="7" text-anchor="middle" fill="#FFFFFF">*</text>
<circle cx="263.900000" cy="70.000000" r="1"/>
<line x1="258.900000" y1="75.000000" x2="261.900000" y2="76.000000"  transform="rotate(0.000000,261.900000,76.000000)" style="stroke: black; stroke-width:0.25;"/>
<line x1="258.900000" y1="77.000000" x2="261.900000" y2="76.000000"  transform="rotate(0.000000,261.900000,76.000000)" style="stroke: black; stroke-width:0.25;"/>
<line x1="258.900000" y1="83.000000" x2="261.900000" y2="84.000000"  transform="rotate(0.000000,261.900000,84.000000)" style="stroke: black; stroke-width:0.25;"/>
<line x1="258.900000" y1="85.000000" x2="261.900000" y2="84.000000"  transform="rotate(0.000000,261.900000,84.000000)" style="stroke: black; stroke-width:0.25;"/>
<line x1="15.000000" y1="15.000000" x2="15.000000" y2="105.000000"  style="stroke: black; stroke-linecap:round; stroke-width:0.25; stroke-dasharray:3,3;"/>
<line x1="15.000000" y1="105.000000" x2="294.900000" y2="105.000000"  style="stroke: black; stroke-linecap:round; stroke-width:0.25; stroke-dasharray:3,3;"/>
<line x1="294.900000" y1="105.000000" x2="294.900000" y2="15.000000"  style="stroke: black; stroke-linecap:round; stroke-width:0.25; stroke-dasharray:3,3;"/>
<line x1="15.000000" y1="15.000000" x2="20.000000" y2="15.000000"  style="stroke: black; stroke-linecap:round; stroke-width:0.25; stroke-dasharray:3,3;"/>
<line x1="49.025000" y1="15.000000" x2="294.900000" y2="15.000000"  style="stroke: black; stroke-linecap:round; stroke-width:0.25; stroke-dasharray:3,3;"/>
<text x="20.000000" y="17.000000" font-family="Arial" font-size="7">process</text>
<line x1="296.900000" y1="39.000000" x2="299.900000" y2="40.000000"  transform="rotate(0.000000,299.900000,40.000000)" style="stroke: black; stroke-width:0.25;"/>
<line x1="296.900000" y1="41.000000" x2="299.900000" y2="40.000000"  transform="rotate(0.000000,299.900000,40.000000)" style="stroke: black; stroke-width:0.25;"/>
<line x1="296.900000" y1="79.000000" x2="299.900000" y2="80.000000"  transform="rotate(0.000000,299.900000,80.000000)" style="stroke: black; stroke-width:0.25;"/>
<line x1="296.900000" y1="81.000000" x2="299.900000" y2="80.000000"  transform="rotate(0.000000,299.900000,80.000000)" style="stroke: black; stroke-width:0.25;"/>
<line x1="10.000000" y1="24.000000" x2="20.000000" y2="24.000000"  style="stroke:black; stroke-linecap:round; stroke-width:0.25;"/>
<line x1="10.000000" y1="64.000000" x2="20.000000" y2="64.000000"  style="stroke:black; stroke-linecap:round; stroke-width:0.25;"/>
<line x1="20.000000" y1="24.000000" x2="94.950000" y2="24.000000"  style="stroke:black; stroke-linecap:round; stroke-width:0.25;"/>
<line x1="20.000000" y1="64.000000" x2="94.950000" y2="64.000000"  style="stroke:black; stroke-linecap:round; stroke-width:0.25;"/>
<line x1="94.950000" y1="24.000000" x2="169.900000" y2="24.000000"  style="stroke:black; stroke-linecap:round; stroke-width:0.25;"/>
<line x1="94.950000" y1="64.000000" x2="169.900000" y2="64.000000"  style="stroke:black; stroke-linecap:round; stroke-width:0.25;"/>
<line x1="165.900000" y1="44.000000" x2="169.900000" y2="44.000000"  style="stroke:black; stroke-linecap:round; stroke-width:0.25;"/>
<line x1="165.900000" y1="84.000000" x2="169.900000" y2="84.000000"  style="stroke:black; stroke-linecap:round; stroke-width:0.25;"/>
<line x1="169.900000" y1="24.000000" x2="177.900000" y2="24.000000"  style="stroke:black; stroke-linecap:round; stroke-width:0.25;"/>
<line x1="169.900000" y1="44.000000" x2="177.900000" y2="44.000000"  style="stroke:black; stroke-linecap:round; stroke-width:0.25;"/>
<line x1="169.900000" y1="64.000000" x2="177.900000" y2="64.000000"  style="stroke:black; stroke-linecap:round; stroke-width:0.25;"/>
<line x1="169.900000" y1="84.000000" x2="177.900000" y2="84.000000"  style="stroke:black; stroke-linecap:round; stroke-width:0.25;"/>
<line x1="177.900000" y1="24.000000" x2="177.900000" y2="36.000000"  style="stroke:black; stroke-linecap:round; stroke-width:0.25;"/>
<line x1="177.900000" y1="36.000000" x2="177.900000" y2="36.000000"  style="stroke:black; stroke-linecap:round; stroke-width:0.25;"/>
<line x1="177.900000" y1="36.000000" x2="181.900000" y2="36.000000"  style="stroke:black; stroke-linecap:round; stroke-width:0.25;"/>
<line x1="177.900000" y1="44.000000" x2="181.900000" y2="44.000000"  style="stroke:black; stroke-linecap:round; stroke-width:0.25;"/>
<line x1="177.900000" y1="64.000000" x2="177.900000" y2="76.000000"  style="stroke:black; stroke-linecap:round; stroke-width:0.25;"/>
<line x1="177.900000" y1="76.000000" x2="177.900000" y2="76.000000"  style="stroke:black; stroke-linecap:round; stroke-width:0.25;"/>
<line x1="177.900000" y1="76.000000" x2="181.900000" y2="76.000000"  style="stroke:black; stroke-linecap:round; stroke-width:0.25;"/>
<line x1="177.900000" y1="84.000000" x2="181.900000" y2="84.000000"  style="stroke:black; stroke-linecap:round; stroke-width:0.25;"/>
<line x1="205.900000" y1="40.000000" x2="209.900000" y2="40.000000"  style="stroke:black; stroke-linecap:round; stroke-width:0.25;"/>
<line x1="205.900000" y1="80.000000" x2="209.900000" y2="80.000000"  style="stroke:black; stroke-linecap:round; stroke-width:0.25;"/>
<line x1="209.900000" y1="24.000000" x2="217.900000" y2="24.000000"  style="stroke:black; stroke-linecap:round; stroke-width:0.25;"/>
<line x1="209.900000" y1="40.000000" x2="209.900000" y2="24.000000"  style="stroke:black; stroke-linecap:round; stroke-width:0.25;"/>
<line x1="209.900000" y1="40.000000" x2="209.900000" y2="40.000000"  style="stroke:black; stroke-linecap:round; stroke-width:0.25;"/>
<line x1="209.900000" y1="64.000000" x2="217.900000" y2="64.000000"  style="stroke:black; stroke-linecap:round; stroke-width:0.25;"/>
<line x1="209.900000" y1="80.000000" x2="209.900000" y2="64.000000"  style="stroke:black; stroke-linecap:round; stroke-width:0.25;"/>
<line x1="209.900000" y1="80.000000" x2="209.900000" y2="80.000000"  style="stroke:black; stroke-linecap:round; stroke-width:0.25;"/>
<line x1="217.900000" y1="24.000000" x2="233.900000" y2="24.000000"  style="stroke:black; stroke-linecap:round; stroke-width:0.25;"/>
<line x1="217.900000" y1="64.000000" x2="233.900000" y2="64.000000"  style="stroke:black; stroke-linecap:round; stroke-width:0.25;"/>
<line x1="233.900000" y1="24.000000" x2="249.900000" y2="24.000000"  style="stroke:black; stroke-linecap:round; stroke-width:0.25;"/>
<line x1="233.900000" y1="64.000000" x2="249.900000" y2="64.000000"  style="stroke:black; stroke-linecap:round; stroke-width:0.25;"/>
<line x1="245.900000" y1="44.000000" x2="249.900000" y2="44.000000"  style="stroke:black; stroke-linecap:round; stroke-width:0.25;"/>
<line x1="245.900000" y1="84.000000" x2="249.900000" y2="84.000000"  style="stroke:black; stroke-linecap:round; stroke-width:0.25;"/>
<line x1="249.900000" y1="24.000000" x2="257.900000" y2="24.000000"  style="stroke:black; stroke-linecap:round; stroke-width:0.25;"/>
<line x1="249.900000" y1="44.000000" x2="257.900000" y2="44.000000"  style="stroke:black; stroke-linecap:round; stroke-width:0.25;"/>
<line x1="249.900000" y1="64.000000" x2="257.900000" y2="64.000000"  style="stroke:black; stroke-linecap:round; stroke-width:0.25;"/>
<line x1="249.900000" y1="84.000000" x2="257.900000" y2="84.000000"  style="stroke:black; stroke-linecap:round; stroke-width:0.25;"/>
<line x1="257.900000" y1="24.000000" x2="257.900000" y2="36.000000"  style="stroke:black; stroke-linecap:round; stroke-width:0.25;"/>
<line x1="257.900000" y1="36.000000" x2="257.900000" y2="36.000000"  style="stroke:black; stroke-linecap:round; stroke-width:0.25;"/>
<line x1="257.900000" y1="36.000000" x2="261.900000" y2="36.000000"  style="stroke:black; stroke-linecap:round; stroke-width:0.25;"/>
<line x1="257.900000" y1="44.000000" x2="261.900000" y2="44.000000"  style="stroke:black; stroke-linecap:round; stroke-width:0.25;"/>
<line x1="257.900000" y1="64.000000" x2="257.900000" y2="76.000000"  style="stroke:black; stroke-linecap:round; stroke-width:0.25;"/>
<line x1="257.900000" y1="76.000000" x2="257.900000" y2="76.000000"  style="stroke:black; stroke-linecap:round; stroke-width:0.25;"/>
<line x1="257.900000" y1="76.000000" x2="261.900000" y2="76.000000"  style="stroke:black; stroke-linecap:round; stroke-width:0.25;"/>
<line x1="257.900000" y1="84.000000" x2="261.900000" y2="84.000000"  style="stroke:black; stroke-linecap:round; stroke-width:0.25;"/>
<line x1="285.900000" y1="40.000000" x2="289.900000" y2="40.000000"  style="stroke:black; stroke-linecap:round; stroke-width:0.25;"/>
<line x1="285.900000" y1="80.000000" x2="289.900000" y2="80.000000"  style="stroke:black; stroke-linecap:round; stroke-width:0.25;"/>
<line x1="289.900000" y1="40.000000" x2="299.900000" y2="40.000000"  style="stroke:black; stroke-linecap:round; stroke-width:0.25;"/>
<line x1="289.900000" y1="80.000000" x2="299.900000" y2="80.000000"  style="stroke:black; stroke-linecap:round; stroke-width:0.25;"/>
</svg>
