<?xml version="1.0"?>
<svg xmlns="http://www.w3.org/2000/svg" xmlns:xlink="http://www.w3.org/1999/xlink" viewBox="0 0 593.000000 392.000000" width="296.500000mm" height="196.000000mm" version="1.1">
<defs>
   <filter id="filter" filterRes="18" x="0" y="0">
     <feGaussianBlur in="SourceGraphic" stdDeviation="1.55" result="blur"/>
     <feOffset in="blur" dx="3" dy="3"/>
   </filter>
</defs>
<rect x="1.000000" y="1.000000" width="592.000000" height="391.000000" rx="0.1" ry="0.1" style="stroke:none;fill:#aaaaaa;;filter:url(#filter);"/>
<rect x="0.000000" y="0.000000" width="592.000000" height="391.000000" rx="0" ry="0" style="stroke:none;fill:#ffffff;"/>
<text x="10.000000" y="7.000000" font-family="Arial" font-size="7"></text>
<rect x="35.000000" y="169.000000" width="38.700000" height="24.000000" rx="0.1" ry="0.1" style="stroke:none;fill:#aaaaaa;;filter:url(#filter);"/>
<rect x="34.000000" y="168.000000" width="38.700000" height="24.000000" rx="0" ry="0" style="stroke:none;fill:#f44800;"/>
<text x="53.350000" y="182.000000" font-family="Arial" font-size="7" text-anchor="middle" fill="#FFFFFF">6.28319</text>
<circle cx="36.000000" cy="170.000000" r="1"/>
<rect x="42.350000" y="201.000000" width="24.000000" height="24.000000" rx="0.1" ry="0.1" style="stroke:none;fill:#aaaaaa;;filter:url(#filter);"/>
<rect x="41.350000" y="200.000000" width="24.000000" height="24.000000" rx="0" ry="0" style="stroke:none;fill:#f44800;"/>
<text x="53.350000" y="214.000000" font-family="Arial" font-size="7" text-anchor="middle" fill="#FFFFFF">0</text>
<circle cx="43.350000" cy="202.000000" r="1"/>
<rect x="89.700000" y="185.000000" width="24.000000" height="24.000000" rx="0.1" ry="0.1" style="stroke:none;fill:#aaaaaa;;filter:url(#filter);"/>
<rect x="88.700000" y="184.000000" width="24.000000" height="24.000000" rx="0" ry="0" style="stroke:none;fill:#4B71A1;"/>
<text x="100.700000" y="198.000000" font-family="Arial" font-size="7" text-anchor="middle" fill="#FFFFFF">-</text>
<circle cx="90.700000" cy="186.000000" r="1"/>
<line x1="85.700000" y1="191.000000" x2="88.700000" y2="192.000000"  transform="rotate(0.000000,88.700000,192.000000)" style="stroke: black; stroke-width:0.25;"/>
<line x1="85.700000" y1="193.000000" x2="88.700000" y2="192.000000"  transform="rotate(0.000000,88.700000,192.000000)" style="stroke: black; stroke-width:0.25;"/>
<line x1="85.700000" y1="199.000000" x2="88.700000" y2="200.000000"  transform="rotate(0.000000,88.700000,200.000000)" style="stroke: black; stroke-width:0.25;"/>
<line x1="85.700000" y1="201.000000" x2="88.700000" y2="200.000000"  transform="rotate(0.000000,88.700000,200.000000)" style="stroke: black; stroke-width:0.25;"/>
<rect x="207.950000" y="83.000000" width="24.000000" height="24.000000" rx="0.1" ry="0.1" style="stroke:none;fill:#aaaaaa;;filter:url(#filter);"/>
<rect x="206.950000" y="82.000000" width="24.000000" height="24.000000" rx="0" ry="0" style="stroke:none;fill:#f44800;"/>
<text x="218.950000" y="96.000000" font-family="Arial" font-size="7" text-anchor="middle" fill="#FFFFFF">0</text>
<circle cx="208.950000" cy="84.000000" r="1"/>
<rect x="247.950000" y="79.000000" width="24.000000" height="24.000000" rx="0.1" ry="0.1" style="stroke:none;fill:#aaaaaa;;filter:url(#filter);"/>
<rect x="246.950000" y="78.000000" width="24.000000" height="24.000000" rx="0" ry="0" style="stroke:none;fill:#4B71A1;"/>
<text x="258.950000" y="92.000000" font-family="Arial" font-size="7" text-anchor="middle" fill="#FFFFFF">-</text>
<circle cx="248.950000" cy="80.000000" r="1"/>
<line x1="243.950000" y1="85.000000" x2="246.950000" y2="86.000000"  transform="rotate(0.000000,246.950000,86.000000)" style="stroke: black; stroke-width:0.25;"/>
<line x1="243.950000" y1="87.000000" x2="246.950000" y2="86.000000"  transform="rotate(0.000000,246.950000,86.000000)" style="stroke: black; stroke-width:0.25;"/>
<line x1="243.950000" y1="93.000000" x2="246.950000" y2="94.000000"  transform="rotate(0.000000,246.950000,94.000000)" style="stroke: black; stroke-width:0.25;"/>
<line x1="243.950000" y1="95.000000" x2="246.950000" y2="94.000000"  transform="rotate(0.000000,246.950000,94.000000)" style="stroke: black; stroke-width:0.25;"/>
<rect x="160.600000" y="115.000000" width="38.700000" height="24.000000" rx="0.1" ry="0.1" style="stroke:none;fill:#aaaaaa;;filter:url(#filter);"/>
<rect x="159.600000" y="114.000000" width="38.700000" height="24.000000" rx="0" ry="0" style="stroke:none;fill:#f44800;"/>
<text x="178.950000" y="128.000000" font-family="Arial" font-size="7" text-anchor="middle" fill="#FFFFFF">6.28319</text>
<circle cx="161.600000" cy="116.000000" r="1"/>
<rect x="167.950000" y="147.000000" width="24.000000" height="24.000000" rx="0.1" ry="0.1" style="stroke:none;fill:#aaaaaa;;filter:url(#filter);"/>
<rect x="166.950000" y="146.000000" width="24.000000" height="24.000000" rx="0" ry="0" style="stroke:none;fill:#f44800;"/>
<text x="178.950000" y="160.000000" font-family="Arial" font-size="7" text-anchor="middle" fill="#FFFFFF">0</text>
<circle cx="168.950000" cy="148.000000" r="1"/>
<rect x="215.300000" y="131.000000" width="24.000000" height="24.000000" rx="0.1" ry="0.1" style="stroke:none;fill:#aaaaaa;;filter:url(#filter);"/>
<rect x="214.300000" y="130.000000" width="24.000000" height="24.000000" rx="0" ry="0" style="stroke:none;fill:#4B71A1;"/>
<text x="226.300000" y="144.000000" font-family="Arial" font-size="7" text-anchor="middle" fill="#FFFFFF">-</text>
<circle cx="216.300000" cy="132.000000" r="1"/>
<line x1="211.300000" y1="137.000000" x2="214.300000" y2="138.000000"  transform="rotate(0.000000,214.300000,138.000000)" style="stroke: black; stroke-width:0.25;"/>
<line x1="211.300000" y1="139.000000" x2="214.300000" y2="138.000000"  transform="rotate(0.000000,214.300000,138.000000)" style="stroke: black; stroke-width:0.25;"/>
<line x1="211.300000" y1="145.000000" x2="214.300000" y2="146.000000"  transform="rotate(0.000000,214.300000,146.000000)" style="stroke: black; stroke-width:0.25;"/>
<line x1="211.300000" y1="147.000000" x2="214.300000" y2="146.000000"  transform="rotate(0.000000,214.300000,146.000000)" style="stroke: black; stroke-width:0.25;"/>
<rect x="187.950000" y="179.000000" width="24.000000" height="24.000000" rx="0.1" ry="0.1" style="stroke:none;fill:#aaaaaa;;filter:url(#filter);"/>
<rect x="186.950000" y="178.000000" width="24.000000" height="24.000000" rx="0" ry="0" style="stroke:none;fill:#f44800;"/>
<text x="198.950000" y="192.000000" font-family="Arial" font-size="7" text-anchor="middle" fill="#FFFFFF">100</text>
<circle cx="188.950000" cy="180.000000" r="1"/>
<rect x="255.300000" y="147.000000" width="24.000000" height="24.000000" rx="0.1" ry="0.1" style="stroke:none;fill:#aaaaaa;;filter:url(#filter);"/>
<rect x="254.300000" y="146.000000" width="24.000000" height="24.000000" rx="0" ry="0" style="stroke:none;fill:#4B71A1;"/>
<text x="266.300000" y="160.000000" font-family="Arial" font-size="7" text-anchor="middle" fill="#FFFFFF">*</text>
<circle cx="256.300000" cy="148.000000" r="1"/>
<line x1="251.300000" y1="153.000000" x2="254.300000" y2="154.000000"  transform="rotate(0.000000,254.300000,154.000000)" style="stroke: black; stroke-width:0.25;"/>
<line x1="251.300000" y1="155.000000" x2="254.300000" y2="154.000000"  transform="rotate(0.000000,254.300000,154.000000)" style="stroke: black; stroke-width:0.25;"/>
<line x1="251.300000" y1="161.000000" x2="254.300000" y2="162.000000"  transform="rotate(0.000000,254.300000,162.000000)" style="stroke: black; stroke-width:0.25;"/>
<line x1="251.300000" y1="163.000000" x2="254.300000" y2="162.000000"  transform="rotate(0.000000,254.300000,162.000000)" style="stroke: black; stroke-width:0.25;"/>
<rect x="187.050000" y="221.000000" width="25.800000" height="24.000000" rx="0.1" ry="0.1" style="stroke:none;fill:#aaaaaa;;filter:url(#filter);"/>
<rect x="186.050000" y="220.000000" width="25.800000" height="24.000000" rx="0" ry="0" style="stroke:none;fill:#f44800;"/>
<text x="198.950000" y="234.000000" font-family="Arial" font-size="7" text-anchor="middle" fill="#FFFFFF">192000</text>
<circle cx="188.050000" cy="222.000000" r="1"/>
<rect x="167.950000" y="253.000000" width="24.000000" height="24.000000" rx="0.1" ry="0.1" style="stroke:none;fill:#aaaaaa;;filter:url(#filter);"/>
<rect x="166.950000" y="252.000000" width="24.000000" height="24.000000" rx="0" ry="0" style="stroke:none;fill:#f44800;"/>
<text x="178.950000" y="266.000000" font-family="Arial" font-size="7" text-anchor="middle" fill="#FFFFFF">1</text>
<circle cx="168.950000" cy="254.000000" r="1"/>
<rect x="147.700000" y="285.000000" width="64.500000" height="24.000000" rx="0.1" ry="0.1" style="stroke:none;fill:#aaaaaa;;filter:url(#filter);"/>
<rect x="146.700000" y="284.000000" width="64.500000" height="24.000000" rx="0" ry="0" style="stroke:none;fill:#4B71A1;"/>
<text x="178.950000" y="298.000000" font-family="Arial" font-size="7" text-anchor="middle" fill="#FFFFFF">fSamplingFreq</text>
<circle cx="148.700000" cy="286.000000" r="1"/>
<rect x="228.200000" y="269.000000" width="24.000000" height="24.000000" rx="0.1" ry="0.1" style="stroke:none;fill:#aaaaaa;;filter:url(#filter);"/>
<rect x="227.200000" y="268.000000" width="24.000000" height="24.000000" rx="0" ry="0" style="stroke:none;fill:#4B71A1;"/>
<text x="239.200000" y="282.000000" font-family="Arial" font-size="7" text-anchor="middle" fill="#FFFFFF">max</text>
<circle cx="229.200000" cy="270.000000" r="1"/>
<line x1="224.200000" y1="275.000000" x2="227.200000" y2="276.000000"  transform="rotate(0.000000,227.200000,276.000000)" style="stroke: black; stroke-width:0.25;"/>
<line x1="224.200000" y1="277.000000" x2="227.200000" y2="276.000000"  transform="rotate(0.000000,227.200000,276.000000)" style="stroke: black; stroke-width:0.25;"/>
<line x1="224.200000" y1="283.000000" x2="227.200000" y2="284.000000"  transform="rotate(0.000000,227.200000,284.000000)" style="stroke: black; stroke-width:0.25;"/>
<line x1="224.200000" y1="285.000000" x2="227.200000" y2="284.000000"  transform="rotate(0.000000,227.200000,284.000000)" style="stroke: black; stroke-width:0.25;"/>
<rect x="268.200000" y="253.000000" width="24.000000" height="24.000000" rx="0.1" ry="0.1" style="stroke:none;fill:#aaaaaa;;filter:url(#filter);"/>
<rect x="267.200000" y="252.000000" width="24.000000" height="24.000000" rx="0" ry="0" style="stroke:none;fill:#4B71A1;"/>
<text x="279.200000" y="266.000000" font-family="Arial" font-size="7" text-anchor="middle" fill="#FFFFFF">min</text>
<circle cx="269.200000" cy="254.000000" r="1"/>
<line x1="264.200000" y1="259.000000" x2="267.200000" y2="260.000000"  transform="rotate(0.000000,267.200000,260.000000)" style="stroke: black; stroke-width:0.25;"/>
<line x1="264.200000" y1="261.000000" x2="267.200000" y2="260.000000"  transform="rotate(0.000000,267.200000,260.000000)" style="stroke: black; stroke-width:0.25;"/>
<line x1="264.200000" y1="267.000000" x2="267.200000" y2="268.000000"  transform="rotate(0.000000,267.200000,268.000000)" style="stroke: black; stroke-width:0.25;"/>
<line x1="264.200000" y1="269.000000" x2="267.200000" y2="268.000000"  transform="rotate(0.000000,267.200000,268.000000)" style="stroke: black; stroke-width:0.25;"/>
<line x1="137.700000" y1="211.000000" x2="137.700000" y2="317.000000"  style="stroke: black; stroke-linecap:round; stroke-width:0.25; stroke-dasharray:3,3;"/>
<line x1="137.700000" y1="317.000000" x2="300.200000" y2="317.000000"  style="stroke: black; stroke-linecap:round; stroke-width:0.25; stroke-dasharray:3,3;"/>
<line x1="300.200000" y1="317.000000" x2="300.200000" y2="211.000000"  style="stroke: black; stroke-linecap:round; stroke-width:0.25; stroke-dasharray:3,3;"/>
<line x1="137.700000" y1="211.000000" x2="142.700000" y2="211.000000"  style="stroke: black; stroke-linecap:round; stroke-width:0.25; stroke-dasharray:3,3;"/>
<line x1="155.600000" y1="211.000000" x2="300.200000" y2="211.000000"  style="stroke: black; stroke-linecap:round; stroke-width:0.25; stroke-dasharray:3,3;"/>
<text x="142.700000" y="213.000000" font-family="Arial" font-size="7">SR</text>
<rect x="318.200000" y="205.000000" width="24.000000" height="24.000000" rx="0.1" ry="0.1" style="stroke:none;fill:#aaaaaa;;filter:url(#filter);"/>
<rect x="317.200000" y="204.000000" width="24.000000" height="24.000000" rx="0" ry="0" style="stroke:none;fill:#4B71A1;"/>
<text x="329.200000" y="218.000000" font-family="Arial" font-size="7" text-anchor="middle" fill="#FFFFFF">/</text>
<circle cx="319.200000" cy="206.000000" r="1"/>
<line x1="314.200000" y1="211.000000" x2="317.200000" y2="212.000000"  transform="rotate(0.000000,317.200000,212.000000)" style="stroke: black; stroke-width:0.25;"/>
<line x1="314.200000" y1="213.000000" x2="317.200000" y2="212.000000"  transform="rotate(0.000000,317.200000,212.000000)" style="stroke: black; stroke-width:0.25;"/>
<line x1="314.200000" y1="219.000000" x2="317.200000" y2="220.000000"  transform="rotate(0.000000,317.200000,220.000000)" style="stroke: black; stroke-width:0.25;"/>
<line x1="314.200000" y1="221.000000" x2="317.200000" y2="220.000000"  transform="rotate(0.000000,317.200000,220.000000)" style="stroke: black; stroke-width:0.25;"/>
<rect x="358.200000" y="185.000000" width="24.000000" height="24.000000" rx="0.1" ry="0.1" style="stroke:none;fill:#aaaaaa;;filter:url(#filter);"/>
<rect x="357.200000" y="184.000000" width="24.000000" height="24.000000" rx="0" ry="0" style="stroke:none;fill:#4B71A1;"/>
<text x="369.200000" y="198.000000" font-family="Arial" font-size="7" text-anchor="middle" fill="#FFFFFF">+</text>
<circle cx="359.200000" cy="186.000000" r="1"/>
<line x1="354.200000" y1="191.000000" x2="357.200000" y2="192.000000"  transform="rotate(0.000000,357.200000,192.000000)" style="stroke: black; stroke-width:0.25;"/>
<line x1="354.200000" y1="193.000000" x2="357.200000" y2="192.000000"  transform="rotate(0.000000,357.200000,192.000000)" style="stroke: black; stroke-width:0.25;"/>
<line x1="354.200000" y1="199.000000" x2="357.200000" y2="200.000000"  transform="rotate(0.000000,357.200000,200.000000)" style="stroke: black; stroke-width:0.25;"/>
<line x1="354.200000" y1="201.000000" x2="357.200000" y2="200.000000"  transform="rotate(0.000000,357.200000,200.000000)" style="stroke: black; stroke-width:0.25;"/>
<rect x="398.200000" y="189.000000" width="25.800000" height="24.000000" rx="0.1" ry="0.1" style="stroke:none;fill:#aaaaaa;;filter:url(#filter);"/>
<rect x="397.200000" y="188.000000" width="25.800000" height="24.000000" rx="0" ry="0" style="stroke:none;fill:#4B71A1;"/>
<text x="410.100000" y="202.000000" font-family="Arial" font-size="7" text-anchor="middle" fill="#FFFFFF">fmodf</text>
<circle cx="399.200000" cy="190.000000" r="1"/>
<line x1="394.200000" y1="195.000000" x2="397.200000" y2="196.000000"  transform="rotate(0.000000,397.200000,196.000000)" style="stroke: black; stroke-width:0.25;"/>
<line x1="394.200000" y1="197.000000" x2="397.200000" y2="196.000000"  transform="rotate(0.000000,397.200000,196.000000)" style="stroke: black; stroke-width:0.25;"/>
<line x1="394.200000" y1="203.000000" x2="397.200000" y2="204.000000"  transform="rotate(0.000000,397.200000,204.000000)" style="stroke: black; stroke-width:0.25;"/>
<line x1="394.200000" y1="205.000000" x2="397.200000" y2="204.000000"  transform="rotate(0.000000,397.200000,204.000000)" style="stroke: black; stroke-width:0.25;"/>
<rect x="268.850000" y="335.000000" width="24.000000" height="24.000000" rx="0.1" ry="0.1" style="stroke:none;fill:#aaaaaa;;filter:url(#filter);"/>
<rect x="267.850000" y="334.000000" width="24.000000" height="24.000000" rx="0" ry="0" style="stroke:none;fill:#f44800;"/>
<text x="279.850000" y="348.000000" font-family="Arial" font-size="7" text-anchor="middle" fill="#FFFFFF">0</text>
<circle cx="269.850000" cy="336.000000" r="1"/>
<rect x="440.000000" y="205.000000" width="24.000000" height="24.000000" rx="0.1" ry="0.1" style="stroke:none;fill:#aaaaaa;;filter:url(#filter);"/>
<rect x="439.000000" y="204.000000" width="24.000000" height="24.000000" rx="0" ry="0" style="stroke:none;fill:#4B71A1;"/>
<text x="451.000000" y="218.000000" font-family="Arial" font-size="7" text-anchor="middle" fill="#FFFFFF">+</text>
<circle cx="441.000000" cy="206.000000" r="1"/>
<line x1="436.000000" y1="211.000000" x2="439.000000" y2="212.000000"  transform="rotate(0.000000,439.000000,212.000000)" style="stroke: black; stroke-width:0.25;"/>
<line x1="436.000000" y1="213.000000" x2="439.000000" y2="212.000000"  transform="rotate(0.000000,439.000000,212.000000)" style="stroke: black; stroke-width:0.25;"/>
<line x1="436.000000" y1="219.000000" x2="439.000000" y2="220.000000"  transform="rotate(0.000000,439.000000,220.000000)" style="stroke: black; stroke-width:0.25;"/>
<line x1="436.000000" y1="221.000000" x2="439.000000" y2="220.000000"  transform="rotate(0.000000,439.000000,220.000000)" style="stroke: black; stroke-width:0.25;"/>
<rect x="308.850000" y="35.000000" width="24.000000" height="24.000000" rx="0.1" ry="0.1" style="stroke:none;fill:#aaaaaa;;filter:url(#filter);"/>
<rect x="307.850000" y="34.000000" width="24.000000" height="24.000000" rx="0" ry="0" style="stroke:none;fill:#f44800;"/>
<text x="319.850000" y="48.000000" font-family="Arial" font-size="7" text-anchor="middle" fill="#FFFFFF">1</text>
<circle cx="329.850000" cy="56.000000" r="1"/>
<rect x="268.850000" y="39.000000" width="24.000000" height="24.000000" rx="0.1" ry="0.1" style="stroke:none;fill:#aaaaaa;;filter:url(#filter);"/>
<rect x="267.850000" y="38.000000" width="24.000000" height="24.000000" rx="0" ry="0" style="stroke:none;fill:#4B71A1;"/>
<text x="279.850000" y="52.000000" font-family="Arial" font-size="7" text-anchor="middle" fill="#FFFFFF">@</text>
<circle cx="289.850000" cy="60.000000" r="1"/>
<line x1="294.850000" y1="53.000000" x2="291.850000" y2="54.000000"  transform="rotate(0.000000,291.850000,54.000000)" style="stroke: black; stroke-width:0.25;"/>
<line x1="294.850000" y1="55.000000" x2="291.850000" y2="54.000000"  transform="rotate(0.000000,291.850000,54.000000)" style="stroke: black; stroke-width:0.25;"/>
<line x1="294.850000" y1="45.000000" x2="291.850000" y2="46.000000"  transform="rotate(0.000000,291.850000,46.000000)" style="stroke: black; stroke-width:0.25;"/>
<line x1="294.850000" y1="47.000000" x2="291.850000" y2="46.000000"  transform="rotate(0.000000,291.850000,46.000000)" style="stroke: black; stroke-width:0.25;"/>
<line x1="465.000000" y1="216.000000" x2="465.000000" y2="212.000000"  style="stroke:black; stroke-linecap:round; stroke-width:0.25;"/>
<line x1="465.000000" y1="212.000000" x2="469.000000" y2="212.000000"  style="stroke:black; stroke-linecap:round; stroke-width:0.25;"/>
<line x1="469.000000" y1="212.000000" x2="469.000000" y2="216.000000"  style="stroke:black; stroke-linecap:round; stroke-width:0.25;"/>
<line x1="25.000000" y1="25.000000" x2="25.000000" y2="367.000000"  style="stroke: black; stroke-linecap:round; stroke-width:0.25; stroke-dasharray:3,3;"/>
<line x1="25.000000" y1="367.000000" x2="488.000000" y2="367.000000"  style="stroke: black; stroke-linecap:round; stroke-width:0.25; stroke-dasharray:3,3;"/>
<line x1="488.000000" y1="367.000000" x2="488.000000" y2="25.000000"  style="stroke: black; stroke-linecap:round; stroke-width:0.25; stroke-dasharray:3,3;"/>
<line x1="25.000000" y1="25.000000" x2="30.000000" y2="25.000000"  style="stroke: black; stroke-linecap:round; stroke-width:0.25; stroke-dasharray:3,3;"/>
<line x1="104.175000" y1="25.000000" x2="488.000000" y2="25.000000"  style="stroke: black; stroke-linecap:round; stroke-width:0.25; stroke-dasharray:3,3;"/>
<text x="30.000000" y="27.000000" font-family="Arial" font-size="7">loop(0)(6.28319)(100)</text>
<rect x="506.000000" y="169.000000" width="24.000000" height="24.000000" rx="0.1" ry="0.1" style="stroke:none;fill:#aaaaaa;;filter:url(#filter);"/>
<rect x="505.000000" y="168.000000" width="24.000000" height="24.000000" rx="0" ry="0" style="stroke:none;fill:#4B71A1;"/>
<text x="517.000000" y="182.000000" font-family="Arial" font-size="7" text-anchor="middle" fill="#FFFFFF">sin</text>
<circle cx="507.000000" cy="170.000000" r="1"/>
<line x1="502.000000" y1="179.000000" x2="505.000000" y2="180.000000"  transform="rotate(0.000000,505.000000,180.000000)" style="stroke: black; stroke-width:0.25;"/>
<line x1="502.000000" y1="181.000000" x2="505.000000" y2="180.000000"  transform="rotate(0.000000,505.000000,180.000000)" style="stroke: black; stroke-width:0.25;"/>
<rect x="506.000000" y="201.000000" width="24.000000" height="24.000000" rx="0.1" ry="0.1" style="stroke:none;fill:#aaaaaa;;filter:url(#filter);"/>
<rect x="505.000000" y="200.000000" width="24.000000" height="24.000000" rx="0" ry="0" style="stroke:none;fill:#f44800;"/>
<text x="517.000000" y="214.000000" font-family="Arial" font-size="7" text-anchor="middle" fill="#FFFFFF">0.5</text>
<circle cx="507.000000" cy="202.000000" r="1"/>
<rect x="546.000000" y="185.000000" width="24.000000" height="24.000000" rx="0.1" ry="0.1" style="stroke:none;fill:#aaaaaa;;filter:url(#filter);"/>
<rect x="545.000000" y="184.000000" width="24.000000" height="24.000000" rx="0" ry="0" style="stroke:none;fill:#4B71A1;"/>
<text x="557.000000" y="198.000000" font-family="Arial" font-size="7" text-anchor="middle" fill="#FFFFFF">*</text>
<circle cx="547.000000" cy="186.000000" r="1"/>
<line x1="542.000000" y1="191.000000" x2="545.000000" y2="192.000000"  transform="rotate(0.000000,545.000000,192.000000)" style="stroke: black; stroke-width:0.25;"/>
<line x1="542.000000" y1="193.000000" x2="545.000000" y2="192.000000"  transform="rotate(0.000000,545.000000,192.000000)" style="stroke: black; stroke-width:0.25;"/>
<line x1="542.000000" y1="199.000000" x2="545.000000" y2="200.000000"  transform="rotate(0.000000,545.000000,200.000000)" style="stroke: black; stroke-width:0.25;"/>
<line x1="542.000000" y1="201.000000" x2="545.000000" y2="200.000000"  transform="rotate(0.000000,545.000000,200.000000)" style="stroke: black; stroke-width:0.25;"/>
<line x1="15.000000" y1="15.000000" x2="15.000000" y2="377.000000"  style="stroke: black; stroke-linecap:round; stroke-width:0.25; stroke-dasharray:3,3;"/>
<line x1="15.000000" y1="377.000000" x2="578.000000" y2="377.000000"  style="stroke: black; stroke-linecap:round; stroke-width:0.25; stroke-dasharray:3,3;"/>
<line x1="578.000000" y1="377.000000" x2="578.000000" y2="15.000000"  style="stroke: black; stroke-linecap:round; stroke-width:0.25; stroke-dasharray:3,3;"/>
<line x1="15.000000" y1="15.000000" x2="20.000000" y2="15.000000"  style="stroke: black; stroke-linecap:round; stroke-width:0.25; stroke-dasharray:3,3;"/>
<line x1="49.025000" y1="15.000000" x2="578.000000" y2="15.000000"  style="stroke: black; stroke-linecap:round; stroke-width:0.25; stroke-dasharray:3,3;"/>
<text x="20.000000" y="17.000000" font-family="Arial" font-size="7">process</text>
<line x1="580.000000" y1="195.000000" x2="583.000000" y2="196.000000"  transform="rotate(0.000000,583.000000,196.000000)" style="stroke: black; stroke-width:0.25;"/>
<line x1="580.000000" y1="197.000000" x2="583.000000" y2="196.000000"  transform="rotate(0.000000,583.000000,196.000000)" style="stroke: black; stroke-width:0.25;"/>
<line x1="65.350000" y1="212.000000" x2="69.350000" y2="212.000000"  style="stroke:black; stroke-linecap:round; stroke-width:0.25;"/>
<line x1="69.350000" y1="212.000000" x2="76.700000" y2="212.000000"  style="stroke:black; stroke-linecap:round; stroke-width:0.25;"/>
<line x1="72.700000" y1="180.000000" x2="76.700000" y2="180.000000"  style="stroke:black; stroke-linecap:round; stroke-width:0.25;"/>
<line x1="76.700000" y1="180.000000" x2="84.700000" y2="180.000000"  style="stroke:black; stroke-linecap:round; stroke-width:0.25;"/>
<line x1="76.700000" y1="200.000000" x2="84.700000" y2="200.000000"  style="stroke:black; stroke-linecap:round; stroke-width:0.25;"/>
<line x1="76.700000" y1="212.000000" x2="76.700000" y2="200.000000"  style="stroke:black; stroke-linecap:round; stroke-width:0.25;"/>
<line x1="76.700000" y1="212.000000" x2="76.700000" y2="212.000000"  style="stroke:black; stroke-linecap:round; stroke-width:0.25;"/>
<line x1="84.700000" y1="180.000000" x2="84.700000" y2="192.000000"  style="stroke:black; stroke-linecap:round; stroke-width:0.25;"/>
<line x1="84.700000" y1="192.000000" x2="84.700000" y2="192.000000"  style="stroke:black; stroke-linecap:round; stroke-width:0.25;"/>
<line x1="84.700000" y1="192.000000" x2="88.700000" y2="192.000000"  style="stroke:black; stroke-linecap:round; stroke-width:0.25;"/>
<line x1="84.700000" y1="200.000000" x2="88.700000" y2="200.000000"  style="stroke:black; stroke-linecap:round; stroke-width:0.25;"/>
<line x1="112.700000" y1="196.000000" x2="116.700000" y2="196.000000"  style="stroke:black; stroke-linecap:round; stroke-width:0.25;"/>
<line x1="116.700000" y1="196.000000" x2="124.700000" y2="196.000000"  style="stroke:black; stroke-linecap:round; stroke-width:0.25;"/>
<line x1="124.700000" y1="196.000000" x2="124.700000" y2="326.000000"  style="stroke:black; stroke-linecap:round; stroke-width:0.25;"/>
<line x1="124.700000" y1="326.000000" x2="124.700000" y2="326.000000"  style="stroke:black; stroke-linecap:round; stroke-width:0.25;"/>
<line x1="124.700000" y1="326.000000" x2="132.700000" y2="326.000000"  style="stroke:black; stroke-linecap:round; stroke-width:0.25;"/>
<line x1="132.700000" y1="74.000000" x2="202.950000" y2="74.000000"  style="stroke:black; stroke-linecap:round; stroke-width:0.25;"/>
<line x1="132.700000" y1="326.000000" x2="258.950000" y2="326.000000"  style="stroke:black; stroke-linecap:round; stroke-width:0.25;"/>
<line x1="132.700000" y1="50.000000" x2="132.700000" y2="50.000000"  style="stroke:black; stroke-linecap:round; stroke-width:0.25;"/>
<line x1="132.700000" y1="50.000000" x2="132.700000" y2="74.000000"  style="stroke:black; stroke-linecap:round; stroke-width:0.25;"/>
<line x1="132.700000" y1="74.000000" x2="132.700000" y2="74.000000"  style="stroke:black; stroke-linecap:round; stroke-width:0.25;"/>
<line x1="190.950000" y1="158.000000" x2="194.950000" y2="158.000000"  style="stroke:black; stroke-linecap:round; stroke-width:0.25;"/>
<line x1="190.950000" y1="264.000000" x2="194.950000" y2="264.000000"  style="stroke:black; stroke-linecap:round; stroke-width:0.25;"/>
<line x1="194.950000" y1="158.000000" x2="202.300000" y2="158.000000"  style="stroke:black; stroke-linecap:round; stroke-width:0.25;"/>
<line x1="194.950000" y1="264.000000" x2="215.200000" y2="264.000000"  style="stroke:black; stroke-linecap:round; stroke-width:0.25;"/>
<line x1="198.300000" y1="126.000000" x2="202.300000" y2="126.000000"  style="stroke:black; stroke-linecap:round; stroke-width:0.25;"/>
<line x1="202.300000" y1="126.000000" x2="210.300000" y2="126.000000"  style="stroke:black; stroke-linecap:round; stroke-width:0.25;"/>
<line x1="202.300000" y1="146.000000" x2="210.300000" y2="146.000000"  style="stroke:black; stroke-linecap:round; stroke-width:0.25;"/>
<line x1="202.300000" y1="158.000000" x2="202.300000" y2="146.000000"  style="stroke:black; stroke-linecap:round; stroke-width:0.25;"/>
<line x1="202.300000" y1="158.000000" x2="202.300000" y2="158.000000"  style="stroke:black; stroke-linecap:round; stroke-width:0.25;"/>
<line x1="202.950000" y1="74.000000" x2="218.950000" y2="74.000000"  style="stroke:black; stroke-linecap:round; stroke-width:0.25;"/>
<line x1="210.300000" y1="126.000000" x2="210.300000" y2="138.000000"  style="stroke:black; stroke-linecap:round; stroke-width:0.25;"/>
<line x1="210.300000" y1="138.000000" x2="210.300000" y2="138.000000"  style="stroke:black; stroke-linecap:round; stroke-width:0.25;"/>
<line x1="210.300000" y1="138.000000" x2="214.300000" y2="138.000000"  style="stroke:black; stroke-linecap:round; stroke-width:0.25;"/>
<line x1="210.300000" y1="146.000000" x2="214.300000" y2="146.000000"  style="stroke:black; stroke-linecap:round; stroke-width:0.25;"/>
<line x1="210.950000" y1="190.000000" x2="214.950000" y2="190.000000"  style="stroke:black; stroke-linecap:round; stroke-width:0.25;"/>
<line x1="211.200000" y1="296.000000" x2="215.200000" y2="296.000000"  style="stroke:black; stroke-linecap:round; stroke-width:0.25;"/>
<line x1="211.850000" y1="232.000000" x2="215.850000" y2="232.000000"  style="stroke:black; stroke-linecap:round; stroke-width:0.25;"/>
<line x1="214.950000" y1="190.000000" x2="242.300000" y2="190.000000"  style="stroke:black; stroke-linecap:round; stroke-width:0.25;"/>
<line x1="215.200000" y1="264.000000" x2="223.200000" y2="264.000000"  style="stroke:black; stroke-linecap:round; stroke-width:0.25;"/>
<line x1="215.200000" y1="284.000000" x2="223.200000" y2="284.000000"  style="stroke:black; stroke-linecap:round; stroke-width:0.25;"/>
<line x1="215.200000" y1="296.000000" x2="215.200000" y2="284.000000"  style="stroke:black; stroke-linecap:round; stroke-width:0.25;"/>
<line x1="215.200000" y1="296.000000" x2="215.200000" y2="296.000000"  style="stroke:black; stroke-linecap:round; stroke-width:0.25;"/>
<line x1="215.850000" y1="232.000000" x2="255.200000" y2="232.000000"  style="stroke:black; stroke-linecap:round; stroke-width:0.25;"/>
<line x1="218.950000" y1="74.000000" x2="234.950000" y2="74.000000"  style="stroke:black; stroke-linecap:round; stroke-width:0.25;"/>
<line x1="223.200000" y1="264.000000" x2="223.200000" y2="276.000000"  style="stroke:black; stroke-linecap:round; stroke-width:0.25;"/>
<line x1="223.200000" y1="276.000000" x2="223.200000" y2="276.000000"  style="stroke:black; stroke-linecap:round; stroke-width:0.25;"/>
<line x1="223.200000" y1="276.000000" x2="227.200000" y2="276.000000"  style="stroke:black; stroke-linecap:round; stroke-width:0.25;"/>
<line x1="223.200000" y1="284.000000" x2="227.200000" y2="284.000000"  style="stroke:black; stroke-linecap:round; stroke-width:0.25;"/>
<line x1="230.950000" y1="94.000000" x2="234.950000" y2="94.000000"  style="stroke:black; stroke-linecap:round; stroke-width:0.25;"/>
<line x1="234.950000" y1="74.000000" x2="242.950000" y2="74.000000"  style="stroke:black; stroke-linecap:round; stroke-width:0.25;"/>
<line x1="234.950000" y1="94.000000" x2="242.950000" y2="94.000000"  style="stroke:black; stroke-linecap:round; stroke-width:0.25;"/>
<line x1="238.300000" y1="142.000000" x2="242.300000" y2="142.000000"  style="stroke:black; stroke-linecap:round; stroke-width:0.25;"/>
<line x1="242.300000" y1="142.000000" x2="250.300000" y2="142.000000"  style="stroke:black; stroke-linecap:round; stroke-width:0.25;"/>
<line x1="242.300000" y1="162.000000" x2="250.300000" y2="162.000000"  style="stroke:black; stroke-linecap:round; stroke-width:0.25;"/>
<line x1="242.300000" y1="190.000000" x2="242.300000" y2="162.000000"  style="stroke:black; stroke-linecap:round; stroke-width:0.25;"/>
<line x1="242.300000" y1="190.000000" x2="242.300000" y2="190.000000"  style="stroke:black; stroke-linecap:round; stroke-width:0.25;"/>
<line x1="242.950000" y1="74.000000" x2="242.950000" y2="86.000000"  style="stroke:black; stroke-linecap:round; stroke-width:0.25;"/>
<line x1="242.950000" y1="86.000000" x2="242.950000" y2="86.000000"  style="stroke:black; stroke-linecap:round; stroke-width:0.25;"/>
<line x1="242.950000" y1="86.000000" x2="246.950000" y2="86.000000"  style="stroke:black; stroke-linecap:round; stroke-width:0.25;"/>
<line x1="242.950000" y1="94.000000" x2="246.950000" y2="94.000000"  style="stroke:black; stroke-linecap:round; stroke-width:0.25;"/>
<line x1="250.300000" y1="142.000000" x2="250.300000" y2="154.000000"  style="stroke:black; stroke-linecap:round; stroke-width:0.25;"/>
<line x1="250.300000" y1="154.000000" x2="250.300000" y2="154.000000"  style="stroke:black; stroke-linecap:round; stroke-width:0.25;"/>
<line x1="250.300000" y1="154.000000" x2="254.300000" y2="154.000000"  style="stroke:black; stroke-linecap:round; stroke-width:0.25;"/>
<line x1="250.300000" y1="162.000000" x2="254.300000" y2="162.000000"  style="stroke:black; stroke-linecap:round; stroke-width:0.25;"/>
<line x1="251.200000" y1="280.000000" x2="255.200000" y2="280.000000"  style="stroke:black; stroke-linecap:round; stroke-width:0.25;"/>
<line x1="255.200000" y1="232.000000" x2="263.200000" y2="232.000000"  style="stroke:black; stroke-linecap:round; stroke-width:0.25;"/>
<line x1="255.200000" y1="268.000000" x2="263.200000" y2="268.000000"  style="stroke:black; stroke-linecap:round; stroke-width:0.25;"/>
<line x1="255.200000" y1="280.000000" x2="255.200000" y2="268.000000"  style="stroke:black; stroke-linecap:round; stroke-width:0.25;"/>
<line x1="255.200000" y1="280.000000" x2="255.200000" y2="280.000000"  style="stroke:black; stroke-linecap:round; stroke-width:0.25;"/>
<line x1="258.950000" y1="326.000000" x2="385.200000" y2="326.000000"  style="stroke:black; stroke-linecap:round; stroke-width:0.25;"/>
<line x1="263.200000" y1="232.000000" x2="263.200000" y2="260.000000"  style="stroke:black; stroke-linecap:round; stroke-width:0.25;"/>
<line x1="263.200000" y1="260.000000" x2="263.200000" y2="260.000000"  style="stroke:black; stroke-linecap:round; stroke-width:0.25;"/>
<line x1="263.200000" y1="260.000000" x2="267.200000" y2="260.000000"  style="stroke:black; stroke-linecap:round; stroke-width:0.25;"/>
<line x1="263.200000" y1="268.000000" x2="267.200000" y2="268.000000"  style="stroke:black; stroke-linecap:round; stroke-width:0.25;"/>
<line x1="263.850000" y1="50.000000" x2="132.700000" y2="50.000000"  style="stroke:black; stroke-linecap:round; stroke-width:0.25;"/>
<line x1="267.850000" y1="50.000000" x2="263.850000" y2="50.000000"  style="stroke:black; stroke-linecap:round; stroke-width:0.25;"/>
<line x1="270.950000" y1="90.000000" x2="274.950000" y2="90.000000"  style="stroke:black; stroke-linecap:round; stroke-width:0.25;"/>
<line x1="274.950000" y1="90.000000" x2="345.200000" y2="90.000000"  style="stroke:black; stroke-linecap:round; stroke-width:0.25;"/>
<line x1="278.300000" y1="158.000000" x2="282.300000" y2="158.000000"  style="stroke:black; stroke-linecap:round; stroke-width:0.25;"/>
<line x1="282.300000" y1="158.000000" x2="305.200000" y2="158.000000"  style="stroke:black; stroke-linecap:round; stroke-width:0.25;"/>
<line x1="291.200000" y1="264.000000" x2="295.200000" y2="264.000000"  style="stroke:black; stroke-linecap:round; stroke-width:0.25;"/>
<line x1="291.850000" y1="346.000000" x2="295.850000" y2="346.000000"  style="stroke:black; stroke-linecap:round; stroke-width:0.25;"/>
<line x1="295.200000" y1="264.000000" x2="305.200000" y2="264.000000"  style="stroke:black; stroke-linecap:round; stroke-width:0.25;"/>
<line x1="295.850000" y1="46.000000" x2="291.850000" y2="46.000000"  style="stroke:black; stroke-linecap:round; stroke-width:0.25;"/>
<line x1="295.850000" y1="54.000000" x2="291.850000" y2="54.000000"  style="stroke:black; stroke-linecap:round; stroke-width:0.25;"/>
<line x1="295.850000" y1="54.000000" x2="295.850000" y2="54.000000"  style="stroke:black; stroke-linecap:round; stroke-width:0.25;"/>
<line x1="295.850000" y1="66.000000" x2="295.850000" y2="54.000000"  style="stroke:black; stroke-linecap:round; stroke-width:0.25;"/>
<line x1="295.850000" y1="346.000000" x2="427.000000" y2="346.000000"  style="stroke:black; stroke-linecap:round; stroke-width:0.25;"/>
<line x1="303.850000" y1="46.000000" x2="295.850000" y2="46.000000"  style="stroke:black; stroke-linecap:round; stroke-width:0.25;"/>
<line x1="303.850000" y1="66.000000" x2="295.850000" y2="66.000000"  style="stroke:black; stroke-linecap:round; stroke-width:0.25;"/>
<line x1="305.200000" y1="158.000000" x2="313.200000" y2="158.000000"  style="stroke:black; stroke-linecap:round; stroke-width:0.25;"/>
<line x1="305.200000" y1="220.000000" x2="313.200000" y2="220.000000"  style="stroke:black; stroke-linecap:round; stroke-width:0.25;"/>
<line x1="305.200000" y1="264.000000" x2="305.200000" y2="220.000000"  style="stroke:black; stroke-linecap:round; stroke-width:0.25;"/>
<line x1="305.200000" y1="264.000000" x2="305.200000" y2="264.000000"  style="stroke:black; stroke-linecap:round; stroke-width:0.25;"/>
<line x1="307.850000" y1="46.000000" x2="303.850000" y2="46.000000"  style="stroke:black; stroke-linecap:round; stroke-width:0.25;"/>
<line x1="313.200000" y1="158.000000" x2="313.200000" y2="212.000000"  style="stroke:black; stroke-linecap:round; stroke-width:0.25;"/>
<line x1="313.200000" y1="212.000000" x2="313.200000" y2="212.000000"  style="stroke:black; stroke-linecap:round; stroke-width:0.25;"/>
<line x1="313.200000" y1="212.000000" x2="317.200000" y2="212.000000"  style="stroke:black; stroke-linecap:round; stroke-width:0.25;"/>
<line x1="313.200000" y1="220.000000" x2="317.200000" y2="220.000000"  style="stroke:black; stroke-linecap:round; stroke-width:0.25;"/>
<line x1="319.850000" y1="66.000000" x2="303.850000" y2="66.000000"  style="stroke:black; stroke-linecap:round; stroke-width:0.25;"/>
<line x1="335.850000" y1="66.000000" x2="319.850000" y2="66.000000"  style="stroke:black; stroke-linecap:round; stroke-width:0.25;"/>
<line x1="341.200000" y1="216.000000" x2="345.200000" y2="216.000000"  style="stroke:black; stroke-linecap:round; stroke-width:0.25;"/>
<line x1="345.200000" y1="90.000000" x2="353.200000" y2="90.000000"  style="stroke:black; stroke-linecap:round; stroke-width:0.25;"/>
<line x1="345.200000" y1="200.000000" x2="353.200000" y2="200.000000"  style="stroke:black; stroke-linecap:round; stroke-width:0.25;"/>
<line x1="345.200000" y1="216.000000" x2="345.200000" y2="200.000000"  style="stroke:black; stroke-linecap:round; stroke-width:0.25;"/>
<line x1="345.200000" y1="216.000000" x2="345.200000" y2="216.000000"  style="stroke:black; stroke-linecap:round; stroke-width:0.25;"/>
<line x1="353.200000" y1="90.000000" x2="353.200000" y2="192.000000"  style="stroke:black; stroke-linecap:round; stroke-width:0.25;"/>
<line x1="353.200000" y1="192.000000" x2="353.200000" y2="192.000000"  style="stroke:black; stroke-linecap:round; stroke-width:0.25;"/>
<line x1="353.200000" y1="192.000000" x2="357.200000" y2="192.000000"  style="stroke:black; stroke-linecap:round; stroke-width:0.25;"/>
<line x1="353.200000" y1="200.000000" x2="357.200000" y2="200.000000"  style="stroke:black; stroke-linecap:round; stroke-width:0.25;"/>
<line x1="381.200000" y1="196.000000" x2="385.200000" y2="196.000000"  style="stroke:black; stroke-linecap:round; stroke-width:0.25;"/>
<line x1="385.200000" y1="196.000000" x2="393.200000" y2="196.000000"  style="stroke:black; stroke-linecap:round; stroke-width:0.25;"/>
<line x1="385.200000" y1="204.000000" x2="393.200000" y2="204.000000"  style="stroke:black; stroke-linecap:round; stroke-width:0.25;"/>
<line x1="385.200000" y1="326.000000" x2="385.200000" y2="204.000000"  style="stroke:black; stroke-linecap:round; stroke-width:0.25;"/>
<line x1="385.200000" y1="326.000000" x2="385.200000" y2="326.000000"  style="stroke:black; stroke-linecap:round; stroke-width:0.25;"/>
<line x1="393.200000" y1="196.000000" x2="397.200000" y2="196.000000"  style="stroke:black; stroke-linecap:round; stroke-width:0.25;"/>
<line x1="393.200000" y1="204.000000" x2="397.200000" y2="204.000000"  style="stroke:black; stroke-linecap:round; stroke-width:0.25;"/>
<line x1="423.000000" y1="200.000000" x2="427.000000" y2="200.000000"  style="stroke:black; stroke-linecap:round; stroke-width:0.25;"/>
<line x1="427.000000" y1="200.000000" x2="435.000000" y2="200.000000"  style="stroke:black; stroke-linecap:round; stroke-width:0.25;"/>
<line x1="427.000000" y1="220.000000" x2="435.000000" y2="220.000000"  style="stroke:black; stroke-linecap:round; stroke-width:0.25;"/>
<line x1="427.000000" y1="346.000000" x2="427.000000" y2="220.000000"  style="stroke:black; stroke-linecap:round; stroke-width:0.25;"/>
<line x1="427.000000" y1="346.000000" x2="427.000000" y2="346.000000"  style="stroke:black; stroke-linecap:round; stroke-width:0.25;"/>
<line x1="435.000000" y1="200.000000" x2="435.000000" y2="212.000000"  style="stroke:black; stroke-linecap:round; stroke-width:0.25;"/>
<line x1="435.000000" y1="212.000000" x2="435.000000" y2="212.000000"  style="stroke:black; stroke-linecap:round; stroke-width:0.25;"/>
<line x1="435.000000" y1="212.000000" x2="439.000000" y2="212.000000"  style="stroke:black; stroke-linecap:round; stroke-width:0.25;"/>
<line x1="435.000000" y1="220.000000" x2="439.000000" y2="220.000000"  style="stroke:black; stroke-linecap:round; stroke-width:0.25;"/>
<line x1="463.000000" y1="216.000000" x2="467.000000" y2="216.000000"  style="stroke:black; stroke-linecap:round; stroke-width:0.25;"/>
<line x1="467.000000" y1="66.000000" x2="335.850000" y2="66.000000"  style="stroke:black; stroke-linecap:round; stroke-width:0.25;"/>
<line x1="467.000000" y1="66.000000" x2="467.000000" y2="66.000000"  style="stroke:black; stroke-linecap:round; stroke-width:0.25;"/>
<line x1="467.000000" y1="212.000000" x2="467.000000" y2="66.000000"  style="stroke:black; stroke-linecap:round; stroke-width:0.25;"/>
<line x1="467.000000" y1="216.000000" x2="469.000000" y2="216.000000"  style="stroke:black; stroke-linecap:round; stroke-width:0.25;"/>
<line x1="469.000000" y1="216.000000" x2="475.000000" y2="216.000000"  style="stroke:black; stroke-linecap:round; stroke-width:0.25;"/>
<line x1="475.000000" y1="196.000000" x2="483.000000" y2="196.000000"  style="stroke:black; stroke-linecap:round; stroke-width:0.25;"/>
<line x1="475.000000" y1="216.000000" x2="475.000000" y2="196.000000"  style="stroke:black; stroke-linecap:round; stroke-width:0.25;"/>
<line x1="475.000000" y1="216.000000" x2="475.000000" y2="216.000000"  style="stroke:black; stroke-linecap:round; stroke-width:0.25;"/>
<line x1="483.000000" y1="196.000000" x2="493.000000" y2="196.000000"  style="stroke:black; stroke-linecap:round; stroke-width:0.25;"/>
<line x1="493.000000" y1="180.000000" x2="501.000000" y2="180.000000"  style="stroke:black; stroke-linecap:round; stroke-width:0.25;"/>
<line x1="493.000000" y1="196.000000" x2="493.000000" y2="180.000000"  style="stroke:black; stroke-linecap:round; stroke-width:0.25;"/>
<line x1="493.000000" y1="196.000000" x2="493.000000" y2="196.000000"  style="stroke:black; stroke-linecap:round; stroke-width:0.25;"/>
<line x1="501.000000" y1="180.000000" x2="505.000000" y2="180.000000"  style="stroke:black; stroke-linecap:round; stroke-width:0.25;"/>
<line x1="529.000000" y1="180.000000" x2="533.000000" y2="180.000000"  style="stroke:black; stroke-linecap:round; stroke-width:0.25;"/>
<line x1="529.000000" y1="212.000000" x2="533.000000" y2="212.000000"  style="stroke:black; stroke-linecap:round; stroke-width:0.25;"/>
<line x1="533.000000" y1="180.000000" x2="541.000000" y2="180.000000"  style="stroke:black; stroke-linecap:round; stroke-width:0.25;"/>
<line x1="533.000000" y1="200.000000" x2="541.000000" y2="200.000000"  style="stroke:black; stroke-linecap:round; stroke-width:0.25;"/>
<line x1="533.000000" y1="212.000000" x2="533.000000" y2="200.000000"  style="stroke:black; stroke-linecap:round; stroke-width:0.25;"/>
<line x1="533.000000" y1="212.000000" x2="533.000000" y2="212.000000"  style="stroke:black; stroke-linecap:round; stroke-width:0.25;"/>
<line x1="541.000000" y1="180.000000" x2="541.000000" y2="192.000000"  style="stroke:black; stroke-linecap:round; stroke-width:0.25;"/>
<line x1="541.000000" y1="192.000000" x2="541.000000" y2="192.000000"  style="stroke:black; stroke-linecap:round; stroke-width:0.25;"/>
<line x1="541.000000" y1="192.000000" x2="545.000000" y2="192.000000"  style="stroke:black; stroke-linecap:round; stroke-width:0.25;"/>
<line x1="541.000000" y1="200.000000" x2="545.000000" y2="200.000000"  style="stroke:black; stroke-linecap:round; stroke-width:0.25;"/>
<line x1="569.000000" y1="196.000000" x2="573.000000" y2="196.000000"  style="stroke:black; stroke-linecap:round; stroke-width:0.25;"/>
<line x1="573.000000" y1="196.000000" x2="583.000000" y2="196.000000"  style="stroke:black; stroke-linecap:round; stroke-width:0.25;"/>
</svg>
