<?xml version="1.0"?>
<svg xmlns="http://www.w3.org/2000/svg" xmlns:xlink="http://www.w3.org/1999/xlink" viewBox="0 0 631.700000 136.000000" width="315.850000mm" height="68.000000mm" version="1.1">
<defs>
   <filter id="filter" filterRes="18" x="0" y="0">
     <feGaussianBlur in="SourceGraphic" stdDeviation="1.55" result="blur"/>
     <feOffset in="blur" dx="3" dy="3"/>
   </filter>
</defs>
<a xlink:href="process.svg">
<rect x="1.000000" y="1.000000" width="630.700000" height="135.000000" rx="0.1" ry="0.1" style="stroke:none;fill:#aaaaaa;;filter:url(#filter);"/>
<rect x="0.000000" y="0.000000" width="630.700000" height="135.000000" rx="0" ry="0" style="stroke:none;fill:#ffffff;"/>
</a>
<text x="10.000000" y="7.000000" font-family="Arial" font-size="7"></text>
<a xlink:href="random-0x2174b00.svg">
<rect x="33.000000" y="85.000000" width="141.900000" height="24.000000" rx="0.1" ry="0.1" style="stroke:none;fill:#aaaaaa;;filter:url(#filter);"/>
<rect x="32.000000" y="84.000000" width="141.900000" height="24.000000" rx="0" ry="0" style="stroke:none;fill:#003366;"/>
</a>
<a xlink:href="random-0x2174b00.svg">
<text x="102.950000" y="98.000000" font-family="Arial" font-size="7" text-anchor="middle" fill="#FFFFFF">random((19200..., 0.1):/:int)(7)</text>
</a>
<circle cx="34.000000" cy="86.000000" r="1"/>
<rect x="190.900000" y="81.000000" width="24.000000" height="24.000000" rx="0.1" ry="0.1" style="stroke:none;fill:#aaaaaa;;filter:url(#filter);"/>
<rect x="189.900000" y="80.000000" width="24.000000" height="24.000000" rx="0" ry="0" style="stroke:none;fill:#f44800;"/>
<text x="201.900000" y="94.000000" font-family="Arial" font-size="7" text-anchor="middle" fill="#FFFFFF">1</text>
<circle cx="191.900000" cy="82.000000" r="1"/>
<rect x="230.900000" y="85.000000" width="24.000000" height="24.000000" rx="0.1" ry="0.1" style="stroke:none;fill:#aaaaaa;;filter:url(#filter);"/>
<rect x="229.900000" y="84.000000" width="24.000000" height="24.000000" rx="0" ry="0" style="stroke:none;fill:#4B71A1;"/>
<text x="241.900000" y="98.000000" font-family="Arial" font-size="7" text-anchor="middle" fill="#FFFFFF">max</text>
<circle cx="231.900000" cy="86.000000" r="1"/>
<line x1="226.900000" y1="91.000000" x2="229.900000" y2="92.000000"  transform="rotate(0.000000,229.900000,92.000000)" style="stroke: black; stroke-width:0.25;"/>
<line x1="226.900000" y1="93.000000" x2="229.900000" y2="92.000000"  transform="rotate(0.000000,229.900000,92.000000)" style="stroke: black; stroke-width:0.25;"/>
<line x1="226.900000" y1="99.000000" x2="229.900000" y2="100.000000"  transform="rotate(0.000000,229.900000,100.000000)" style="stroke: black; stroke-width:0.25;"/>
<line x1="226.900000" y1="101.000000" x2="229.900000" y2="100.000000"  transform="rotate(0.000000,229.900000,100.000000)" style="stroke: black; stroke-width:0.25;"/>
<rect x="270.900000" y="81.000000" width="25.800000" height="24.000000" rx="0.1" ry="0.1" style="stroke:none;fill:#aaaaaa;;filter:url(#filter);"/>
<rect x="269.900000" y="80.000000" width="25.800000" height="24.000000" rx="0" ry="0" style="stroke:none;fill:#f44800;"/>
<text x="282.800000" y="94.000000" font-family="Arial" font-size="7" text-anchor="middle" fill="#FFFFFF">192000</text>
<circle cx="271.900000" cy="82.000000" r="1"/>
<rect x="312.700000" y="85.000000" width="24.000000" height="24.000000" rx="0.1" ry="0.1" style="stroke:none;fill:#aaaaaa;;filter:url(#filter);"/>
<rect x="311.700000" y="84.000000" width="24.000000" height="24.000000" rx="0" ry="0" style="stroke:none;fill:#4B71A1;"/>
<text x="323.700000" y="98.000000" font-family="Arial" font-size="7" text-anchor="middle" fill="#FFFFFF">min</text>
<circle cx="313.700000" cy="86.000000" r="1"/>
<line x1="308.700000" y1="91.000000" x2="311.700000" y2="92.000000"  transform="rotate(0.000000,311.700000,92.000000)" style="stroke: black; stroke-width:0.25;"/>
<line x1="308.700000" y1="93.000000" x2="311.700000" y2="92.000000"  transform="rotate(0.000000,311.700000,92.000000)" style="stroke: black; stroke-width:0.25;"/>
<line x1="308.700000" y1="99.000000" x2="311.700000" y2="100.000000"  transform="rotate(0.000000,311.700000,100.000000)" style="stroke: black; stroke-width:0.25;"/>
<line x1="308.700000" y1="101.000000" x2="311.700000" y2="100.000000"  transform="rotate(0.000000,311.700000,100.000000)" style="stroke: black; stroke-width:0.25;"/>
<rect x="344.700000" y="85.000000" width="24.000000" height="24.000000" rx="0.1" ry="0.1" style="stroke:none;fill:#aaaaaa;;filter:url(#filter);"/>
<rect x="343.700000" y="84.000000" width="24.000000" height="24.000000" rx="0" ry="0" style="stroke:none;fill:#4B71A1;"/>
<text x="355.700000" y="98.000000" font-family="Arial" font-size="7" text-anchor="middle" fill="#FFFFFF">int</text>
<circle cx="345.700000" cy="86.000000" r="1"/>
<line x1="340.700000" y1="95.000000" x2="343.700000" y2="96.000000"  transform="rotate(0.000000,343.700000,96.000000)" style="stroke: black; stroke-width:0.25;"/>
<line x1="340.700000" y1="97.000000" x2="343.700000" y2="96.000000"  transform="rotate(0.000000,343.700000,96.000000)" style="stroke: black; stroke-width:0.25;"/>
<rect x="376.700000" y="85.000000" width="24.000000" height="24.000000" rx="0.1" ry="0.1" style="stroke:none;fill:#aaaaaa;;filter:url(#filter);"/>
<rect x="375.700000" y="84.000000" width="24.000000" height="24.000000" rx="0" ry="0" style="stroke:none;fill:#4B71A1;"/>
<text x="387.700000" y="98.000000" font-family="Arial" font-size="7" text-anchor="middle" fill="#FFFFFF">abs</text>
<circle cx="377.700000" cy="86.000000" r="1"/>
<line x1="372.700000" y1="95.000000" x2="375.700000" y2="96.000000"  transform="rotate(0.000000,375.700000,96.000000)" style="stroke: black; stroke-width:0.25;"/>
<line x1="372.700000" y1="97.000000" x2="375.700000" y2="96.000000"  transform="rotate(0.000000,375.700000,96.000000)" style="stroke: black; stroke-width:0.25;"/>
<rect x="416.700000" y="81.000000" width="24.000000" height="24.000000" rx="0.1" ry="0.1" style="stroke:none;fill:#aaaaaa;;filter:url(#filter);"/>
<rect x="415.700000" y="80.000000" width="24.000000" height="24.000000" rx="0" ry="0" style="stroke:none;fill:#4B71A1;"/>
<text x="427.700000" y="94.000000" font-family="Arial" font-size="7" text-anchor="middle" fill="#FFFFFF">@</text>
<circle cx="417.700000" cy="82.000000" r="1"/>
<line x1="412.700000" y1="87.000000" x2="415.700000" y2="88.000000"  transform="rotate(0.000000,415.700000,88.000000)" style="stroke: black; stroke-width:0.25;"/>
<line x1="412.700000" y1="89.000000" x2="415.700000" y2="88.000000"  transform="rotate(0.000000,415.700000,88.000000)" style="stroke: black; stroke-width:0.25;"/>
<line x1="412.700000" y1="95.000000" x2="415.700000" y2="96.000000"  transform="rotate(0.000000,415.700000,96.000000)" style="stroke: black; stroke-width:0.25;"/>
<line x1="412.700000" y1="97.000000" x2="415.700000" y2="96.000000"  transform="rotate(0.000000,415.700000,96.000000)" style="stroke: black; stroke-width:0.25;"/>
<rect x="456.700000" y="85.000000" width="24.000000" height="24.000000" rx="0.1" ry="0.1" style="stroke:none;fill:#aaaaaa;;filter:url(#filter);"/>
<rect x="455.700000" y="84.000000" width="24.000000" height="24.000000" rx="0" ry="0" style="stroke:none;fill:#f44800;"/>
<text x="467.700000" y="98.000000" font-family="Arial" font-size="7" text-anchor="middle" fill="#FFFFFF">1</text>
<circle cx="457.700000" cy="86.000000" r="1"/>
<rect x="496.700000" y="81.000000" width="24.000000" height="24.000000" rx="0.1" ry="0.1" style="stroke:none;fill:#aaaaaa;;filter:url(#filter);"/>
<rect x="495.700000" y="80.000000" width="24.000000" height="24.000000" rx="0" ry="0" style="stroke:none;fill:#4B71A1;"/>
<text x="507.700000" y="94.000000" font-family="Arial" font-size="7" text-anchor="middle" fill="#FFFFFF">+</text>
<circle cx="497.700000" cy="82.000000" r="1"/>
<line x1="492.700000" y1="87.000000" x2="495.700000" y2="88.000000"  transform="rotate(0.000000,495.700000,88.000000)" style="stroke: black; stroke-width:0.25;"/>
<line x1="492.700000" y1="89.000000" x2="495.700000" y2="88.000000"  transform="rotate(0.000000,495.700000,88.000000)" style="stroke: black; stroke-width:0.25;"/>
<line x1="492.700000" y1="95.000000" x2="495.700000" y2="96.000000"  transform="rotate(0.000000,495.700000,96.000000)" style="stroke: black; stroke-width:0.25;"/>
<line x1="492.700000" y1="97.000000" x2="495.700000" y2="96.000000"  transform="rotate(0.000000,495.700000,96.000000)" style="stroke: black; stroke-width:0.25;"/>
<a xlink:href="random-0x2174b00.svg">
<rect x="338.800000" y="29.000000" width="141.900000" height="24.000000" rx="0.1" ry="0.1" style="stroke:none;fill:#aaaaaa;;filter:url(#filter);"/>
<rect x="337.800000" y="28.000000" width="141.900000" height="24.000000" rx="0" ry="0" style="stroke:none;fill:#003366;"/>
</a>
<a xlink:href="random-0x2174b00.svg">
<text x="408.750000" y="42.000000" font-family="Arial" font-size="7" text-anchor="middle" fill="#FFFFFF">random((19200..., 0.1):/:int)(7)</text>
</a>
<circle cx="477.700000" cy="50.000000" r="1"/>
<rect x="298.800000" y="33.000000" width="24.000000" height="24.000000" rx="0.1" ry="0.1" style="stroke:none;fill:#aaaaaa;;filter:url(#filter);"/>
<rect x="297.800000" y="32.000000" width="24.000000" height="24.000000" rx="0" ry="0" style="stroke:none;fill:#f44800;"/>
<text x="309.800000" y="46.000000" font-family="Arial" font-size="7" text-anchor="middle" fill="#FFFFFF">1</text>
<circle cx="319.800000" cy="54.000000" r="1"/>
<rect x="258.800000" y="29.000000" width="24.000000" height="24.000000" rx="0.1" ry="0.1" style="stroke:none;fill:#aaaaaa;;filter:url(#filter);"/>
<rect x="257.800000" y="28.000000" width="24.000000" height="24.000000" rx="0" ry="0" style="stroke:none;fill:#4B71A1;"/>
<text x="269.800000" y="42.000000" font-family="Arial" font-size="7" text-anchor="middle" fill="#FFFFFF">max</text>
<circle cx="279.800000" cy="50.000000" r="1"/>
<line x1="284.800000" y1="43.000000" x2="281.800000" y2="44.000000"  transform="rotate(0.000000,281.800000,44.000000)" style="stroke: black; stroke-width:0.25;"/>
<line x1="284.800000" y1="45.000000" x2="281.800000" y2="44.000000"  transform="rotate(0.000000,281.800000,44.000000)" style="stroke: black; stroke-width:0.25;"/>
<line x1="284.800000" y1="35.000000" x2="281.800000" y2="36.000000"  transform="rotate(0.000000,281.800000,36.000000)" style="stroke: black; stroke-width:0.25;"/>
<line x1="284.800000" y1="37.000000" x2="281.800000" y2="36.000000"  transform="rotate(0.000000,281.800000,36.000000)" style="stroke: black; stroke-width:0.25;"/>
<rect x="217.000000" y="33.000000" width="25.800000" height="24.000000" rx="0.1" ry="0.1" style="stroke:none;fill:#aaaaaa;;filter:url(#filter);"/>
<rect x="216.000000" y="32.000000" width="25.800000" height="24.000000" rx="0" ry="0" style="stroke:none;fill:#f44800;"/>
<text x="228.900000" y="46.000000" font-family="Arial" font-size="7" text-anchor="middle" fill="#FFFFFF">192000</text>
<circle cx="239.800000" cy="54.000000" r="1"/>
<rect x="177.000000" y="29.000000" width="24.000000" height="24.000000" rx="0.1" ry="0.1" style="stroke:none;fill:#aaaaaa;;filter:url(#filter);"/>
<rect x="176.000000" y="28.000000" width="24.000000" height="24.000000" rx="0" ry="0" style="stroke:none;fill:#4B71A1;"/>
<text x="188.000000" y="42.000000" font-family="Arial" font-size="7" text-anchor="middle" fill="#FFFFFF">min</text>
<circle cx="198.000000" cy="50.000000" r="1"/>
<line x1="203.000000" y1="43.000000" x2="200.000000" y2="44.000000"  transform="rotate(0.000000,200.000000,44.000000)" style="stroke: black; stroke-width:0.25;"/>
<line x1="203.000000" y1="45.000000" x2="200.000000" y2="44.000000"  transform="rotate(0.000000,200.000000,44.000000)" style="stroke: black; stroke-width:0.25;"/>
<line x1="203.000000" y1="35.000000" x2="200.000000" y2="36.000000"  transform="rotate(0.000000,200.000000,36.000000)" style="stroke: black; stroke-width:0.25;"/>
<line x1="203.000000" y1="37.000000" x2="200.000000" y2="36.000000"  transform="rotate(0.000000,200.000000,36.000000)" style="stroke: black; stroke-width:0.25;"/>
<rect x="145.000000" y="29.000000" width="24.000000" height="24.000000" rx="0.1" ry="0.1" style="stroke:none;fill:#aaaaaa;;filter:url(#filter);"/>
<rect x="144.000000" y="28.000000" width="24.000000" height="24.000000" rx="0" ry="0" style="stroke:none;fill:#4B71A1;"/>
<text x="156.000000" y="42.000000" font-family="Arial" font-size="7" text-anchor="middle" fill="#FFFFFF">int</text>
<circle cx="166.000000" cy="50.000000" r="1"/>
<line x1="171.000000" y1="39.000000" x2="168.000000" y2="40.000000"  transform="rotate(0.000000,168.000000,40.000000)" style="stroke: black; stroke-width:0.25;"/>
<line x1="171.000000" y1="41.000000" x2="168.000000" y2="40.000000"  transform="rotate(0.000000,168.000000,40.000000)" style="stroke: black; stroke-width:0.25;"/>
<rect x="113.000000" y="29.000000" width="24.000000" height="24.000000" rx="0.1" ry="0.1" style="stroke:none;fill:#aaaaaa;;filter:url(#filter);"/>
<rect x="112.000000" y="28.000000" width="24.000000" height="24.000000" rx="0" ry="0" style="stroke:none;fill:#4B71A1;"/>
<text x="124.000000" y="42.000000" font-family="Arial" font-size="7" text-anchor="middle" fill="#FFFFFF">abs</text>
<circle cx="134.000000" cy="50.000000" r="1"/>
<line x1="139.000000" y1="39.000000" x2="136.000000" y2="40.000000"  transform="rotate(0.000000,136.000000,40.000000)" style="stroke: black; stroke-width:0.25;"/>
<line x1="139.000000" y1="41.000000" x2="136.000000" y2="40.000000"  transform="rotate(0.000000,136.000000,40.000000)" style="stroke: black; stroke-width:0.25;"/>
<rect x="73.000000" y="33.000000" width="24.000000" height="24.000000" rx="0.1" ry="0.1" style="stroke:none;fill:#aaaaaa;;filter:url(#filter);"/>
<rect x="72.000000" y="32.000000" width="24.000000" height="24.000000" rx="0" ry="0" style="stroke:none;fill:#4B71A1;"/>
<text x="84.000000" y="46.000000" font-family="Arial" font-size="7" text-anchor="middle" fill="#FFFFFF">@</text>
<circle cx="94.000000" cy="54.000000" r="1"/>
<line x1="99.000000" y1="47.000000" x2="96.000000" y2="48.000000"  transform="rotate(0.000000,96.000000,48.000000)" style="stroke: black; stroke-width:0.25;"/>
<line x1="99.000000" y1="49.000000" x2="96.000000" y2="48.000000"  transform="rotate(0.000000,96.000000,48.000000)" style="stroke: black; stroke-width:0.25;"/>
<line x1="99.000000" y1="39.000000" x2="96.000000" y2="40.000000"  transform="rotate(0.000000,96.000000,40.000000)" style="stroke: black; stroke-width:0.25;"/>
<line x1="99.000000" y1="41.000000" x2="96.000000" y2="40.000000"  transform="rotate(0.000000,96.000000,40.000000)" style="stroke: black; stroke-width:0.25;"/>
<line x1="521.700000" y1="92.000000" x2="521.700000" y2="88.000000"  style="stroke:black; stroke-linecap:round; stroke-width:0.25;"/>
<line x1="521.700000" y1="88.000000" x2="525.700000" y2="88.000000"  style="stroke:black; stroke-linecap:round; stroke-width:0.25;"/>
<line x1="525.700000" y1="88.000000" x2="525.700000" y2="92.000000"  style="stroke:black; stroke-linecap:round; stroke-width:0.25;"/>
<rect x="544.700000" y="61.000000" width="24.000000" height="24.000000" rx="0.1" ry="0.1" style="stroke:none;fill:#aaaaaa;;filter:url(#filter);"/>
<rect x="543.700000" y="60.000000" width="24.000000" height="24.000000" rx="0" ry="0" style="stroke:none;fill:#f44800;"/>
<text x="555.700000" y="74.000000" font-family="Arial" font-size="7" text-anchor="middle" fill="#FFFFFF">1</text>
<circle cx="545.700000" cy="62.000000" r="1"/>
<rect x="584.700000" y="57.000000" width="24.000000" height="24.000000" rx="0.1" ry="0.1" style="stroke:none;fill:#aaaaaa;;filter:url(#filter);"/>
<rect x="583.700000" y="56.000000" width="24.000000" height="24.000000" rx="0" ry="0" style="stroke:none;fill:#4B71A1;"/>
<text x="595.700000" y="70.000000" font-family="Arial" font-size="7" text-anchor="middle" fill="#FFFFFF">-</text>
<circle cx="585.700000" cy="58.000000" r="1"/>
<line x1="580.700000" y1="63.000000" x2="583.700000" y2="64.000000"  transform="rotate(0.000000,583.700000,64.000000)" style="stroke: black; stroke-width:0.25;"/>
<line x1="580.700000" y1="65.000000" x2="583.700000" y2="64.000000"  transform="rotate(0.000000,583.700000,64.000000)" style="stroke: black; stroke-width:0.25;"/>
<line x1="580.700000" y1="71.000000" x2="583.700000" y2="72.000000"  transform="rotate(0.000000,583.700000,72.000000)" style="stroke: black; stroke-width:0.25;"/>
<line x1="580.700000" y1="73.000000" x2="583.700000" y2="72.000000"  transform="rotate(0.000000,583.700000,72.000000)" style="stroke: black; stroke-width:0.25;"/>
<line x1="15.000000" y1="15.000000" x2="15.000000" y2="121.000000"  style="stroke: black; stroke-linecap:round; stroke-width:0.25; stroke-dasharray:3,3;"/>
<line x1="15.000000" y1="121.000000" x2="616.700000" y2="121.000000"  style="stroke: black; stroke-linecap:round; stroke-width:0.25; stroke-dasharray:3,3;"/>
<line x1="616.700000" y1="121.000000" x2="616.700000" y2="15.000000"  style="stroke: black; stroke-linecap:round; stroke-width:0.25; stroke-dasharray:3,3;"/>
<line x1="15.000000" y1="15.000000" x2="20.000000" y2="15.000000"  style="stroke: black; stroke-linecap:round; stroke-width:0.25; stroke-dasharray:3,3;"/>
<line x1="119.975000" y1="15.000000" x2="616.700000" y2="15.000000"  style="stroke: black; stroke-linecap:round; stroke-width:0.25; stroke-dasharray:3,3;"/>
<text x="20.000000" y="17.000000" font-family="Arial" font-size="7">trigger(((_,7...%:_,192000:%)</text>
<line x1="618.700000" y1="67.000000" x2="621.700000" y2="68.000000"  transform="rotate(0.000000,621.700000,68.000000)" style="stroke: black; stroke-width:0.25;"/>
<line x1="618.700000" y1="69.000000" x2="621.700000" y2="68.000000"  transform="rotate(0.000000,621.700000,68.000000)" style="stroke: black; stroke-width:0.25;"/>
<line x1="28.000000" y1="44.000000" x2="28.000000" y2="44.000000"  style="stroke:black; stroke-linecap:round; stroke-width:0.25;"/>
<line x1="28.000000" y1="44.000000" x2="28.000000" y2="72.000000"  style="stroke:black; stroke-linecap:round; stroke-width:0.25;"/>
<line x1="28.000000" y1="72.000000" x2="28.000000" y2="72.000000"  style="stroke:black; stroke-linecap:round; stroke-width:0.25;"/>
<line x1="28.000000" y1="72.000000" x2="215.850000" y2="72.000000"  style="stroke:black; stroke-linecap:round; stroke-width:0.25;"/>
<line x1="68.000000" y1="44.000000" x2="28.000000" y2="44.000000"  style="stroke:black; stroke-linecap:round; stroke-width:0.25;"/>
<line x1="72.000000" y1="44.000000" x2="68.000000" y2="44.000000"  style="stroke:black; stroke-linecap:round; stroke-width:0.25;"/>
<line x1="100.000000" y1="40.000000" x2="96.000000" y2="40.000000"  style="stroke:black; stroke-linecap:round; stroke-width:0.25;"/>
<line x1="100.000000" y1="48.000000" x2="96.000000" y2="48.000000"  style="stroke:black; stroke-linecap:round; stroke-width:0.25;"/>
<line x1="100.000000" y1="48.000000" x2="100.000000" y2="48.000000"  style="stroke:black; stroke-linecap:round; stroke-width:0.25;"/>
<line x1="100.000000" y1="64.000000" x2="100.000000" y2="48.000000"  style="stroke:black; stroke-linecap:round; stroke-width:0.25;"/>
<line x1="108.000000" y1="40.000000" x2="100.000000" y2="40.000000"  style="stroke:black; stroke-linecap:round; stroke-width:0.25;"/>
<line x1="108.000000" y1="64.000000" x2="100.000000" y2="64.000000"  style="stroke:black; stroke-linecap:round; stroke-width:0.25;"/>
<line x1="112.000000" y1="40.000000" x2="108.000000" y2="40.000000"  style="stroke:black; stroke-linecap:round; stroke-width:0.25;"/>
<line x1="140.000000" y1="40.000000" x2="136.000000" y2="40.000000"  style="stroke:black; stroke-linecap:round; stroke-width:0.25;"/>
<line x1="140.000000" y1="40.000000" x2="140.000000" y2="40.000000"  style="stroke:black; stroke-linecap:round; stroke-width:0.25;"/>
<line x1="144.000000" y1="40.000000" x2="140.000000" y2="40.000000"  style="stroke:black; stroke-linecap:round; stroke-width:0.25;"/>
<line x1="172.000000" y1="40.000000" x2="168.000000" y2="40.000000"  style="stroke:black; stroke-linecap:round; stroke-width:0.25;"/>
<line x1="172.000000" y1="40.000000" x2="172.000000" y2="40.000000"  style="stroke:black; stroke-linecap:round; stroke-width:0.25;"/>
<line x1="173.900000" y1="96.000000" x2="177.900000" y2="96.000000"  style="stroke:black; stroke-linecap:round; stroke-width:0.25;"/>
<line x1="176.000000" y1="40.000000" x2="172.000000" y2="40.000000"  style="stroke:black; stroke-linecap:round; stroke-width:0.25;"/>
<line x1="177.900000" y1="96.000000" x2="185.900000" y2="96.000000"  style="stroke:black; stroke-linecap:round; stroke-width:0.25;"/>
<line x1="185.900000" y1="96.000000" x2="185.900000" y2="112.000000"  style="stroke:black; stroke-linecap:round; stroke-width:0.25;"/>
<line x1="185.900000" y1="112.000000" x2="185.900000" y2="112.000000"  style="stroke:black; stroke-linecap:round; stroke-width:0.25;"/>
<line x1="185.900000" y1="112.000000" x2="201.900000" y2="112.000000"  style="stroke:black; stroke-linecap:round; stroke-width:0.25;"/>
<line x1="201.900000" y1="112.000000" x2="217.900000" y2="112.000000"  style="stroke:black; stroke-linecap:round; stroke-width:0.25;"/>
<line x1="204.000000" y1="36.000000" x2="200.000000" y2="36.000000"  style="stroke:black; stroke-linecap:round; stroke-width:0.25;"/>
<line x1="204.000000" y1="44.000000" x2="200.000000" y2="44.000000"  style="stroke:black; stroke-linecap:round; stroke-width:0.25;"/>
<line x1="212.000000" y1="24.000000" x2="212.000000" y2="24.000000"  style="stroke:black; stroke-linecap:round; stroke-width:0.25;"/>
<line x1="212.000000" y1="24.000000" x2="212.000000" y2="36.000000"  style="stroke:black; stroke-linecap:round; stroke-width:0.25;"/>
<line x1="212.000000" y1="36.000000" x2="204.000000" y2="36.000000"  style="stroke:black; stroke-linecap:round; stroke-width:0.25;"/>
<line x1="212.000000" y1="44.000000" x2="204.000000" y2="44.000000"  style="stroke:black; stroke-linecap:round; stroke-width:0.25;"/>
<line x1="213.900000" y1="92.000000" x2="217.900000" y2="92.000000"  style="stroke:black; stroke-linecap:round; stroke-width:0.25;"/>
<line x1="215.850000" y1="72.000000" x2="403.700000" y2="72.000000"  style="stroke:black; stroke-linecap:round; stroke-width:0.25;"/>
<line x1="216.000000" y1="44.000000" x2="212.000000" y2="44.000000"  style="stroke:black; stroke-linecap:round; stroke-width:0.25;"/>
<line x1="217.900000" y1="92.000000" x2="225.900000" y2="92.000000"  style="stroke:black; stroke-linecap:round; stroke-width:0.25;"/>
<line x1="217.900000" y1="100.000000" x2="225.900000" y2="100.000000"  style="stroke:black; stroke-linecap:round; stroke-width:0.25;"/>
<line x1="217.900000" y1="112.000000" x2="217.900000" y2="100.000000"  style="stroke:black; stroke-linecap:round; stroke-width:0.25;"/>
<line x1="217.900000" y1="112.000000" x2="217.900000" y2="112.000000"  style="stroke:black; stroke-linecap:round; stroke-width:0.25;"/>
<line x1="225.900000" y1="92.000000" x2="229.900000" y2="92.000000"  style="stroke:black; stroke-linecap:round; stroke-width:0.25;"/>
<line x1="225.900000" y1="100.000000" x2="229.900000" y2="100.000000"  style="stroke:black; stroke-linecap:round; stroke-width:0.25;"/>
<line x1="228.900000" y1="24.000000" x2="212.000000" y2="24.000000"  style="stroke:black; stroke-linecap:round; stroke-width:0.25;"/>
<line x1="245.800000" y1="24.000000" x2="228.900000" y2="24.000000"  style="stroke:black; stroke-linecap:round; stroke-width:0.25;"/>
<line x1="245.800000" y1="24.000000" x2="245.800000" y2="24.000000"  style="stroke:black; stroke-linecap:round; stroke-width:0.25;"/>
<line x1="245.800000" y1="40.000000" x2="245.800000" y2="24.000000"  style="stroke:black; stroke-linecap:round; stroke-width:0.25;"/>
<line x1="253.800000" y1="40.000000" x2="245.800000" y2="40.000000"  style="stroke:black; stroke-linecap:round; stroke-width:0.25;"/>
<line x1="253.900000" y1="96.000000" x2="257.900000" y2="96.000000"  style="stroke:black; stroke-linecap:round; stroke-width:0.25;"/>
<line x1="257.800000" y1="40.000000" x2="253.800000" y2="40.000000"  style="stroke:black; stroke-linecap:round; stroke-width:0.25;"/>
<line x1="257.900000" y1="96.000000" x2="265.900000" y2="96.000000"  style="stroke:black; stroke-linecap:round; stroke-width:0.25;"/>
<line x1="265.900000" y1="96.000000" x2="265.900000" y2="112.000000"  style="stroke:black; stroke-linecap:round; stroke-width:0.25;"/>
<line x1="265.900000" y1="112.000000" x2="265.900000" y2="112.000000"  style="stroke:black; stroke-linecap:round; stroke-width:0.25;"/>
<line x1="265.900000" y1="112.000000" x2="282.800000" y2="112.000000"  style="stroke:black; stroke-linecap:round; stroke-width:0.25;"/>
<line x1="282.800000" y1="112.000000" x2="299.700000" y2="112.000000"  style="stroke:black; stroke-linecap:round; stroke-width:0.25;"/>
<line x1="285.800000" y1="36.000000" x2="281.800000" y2="36.000000"  style="stroke:black; stroke-linecap:round; stroke-width:0.25;"/>
<line x1="285.800000" y1="44.000000" x2="281.800000" y2="44.000000"  style="stroke:black; stroke-linecap:round; stroke-width:0.25;"/>
<line x1="293.800000" y1="24.000000" x2="293.800000" y2="24.000000"  style="stroke:black; stroke-linecap:round; stroke-width:0.25;"/>
<line x1="293.800000" y1="24.000000" x2="293.800000" y2="36.000000"  style="stroke:black; stroke-linecap:round; stroke-width:0.25;"/>
<line x1="293.800000" y1="36.000000" x2="285.800000" y2="36.000000"  style="stroke:black; stroke-linecap:round; stroke-width:0.25;"/>
<line x1="293.800000" y1="44.000000" x2="285.800000" y2="44.000000"  style="stroke:black; stroke-linecap:round; stroke-width:0.25;"/>
<line x1="295.700000" y1="92.000000" x2="299.700000" y2="92.000000"  style="stroke:black; stroke-linecap:round; stroke-width:0.25;"/>
<line x1="295.850000" y1="64.000000" x2="108.000000" y2="64.000000"  style="stroke:black; stroke-linecap:round; stroke-width:0.25;"/>
<line x1="297.800000" y1="44.000000" x2="293.800000" y2="44.000000"  style="stroke:black; stroke-linecap:round; stroke-width:0.25;"/>
<line x1="299.700000" y1="100.000000" x2="307.700000" y2="100.000000"  style="stroke:black; stroke-linecap:round; stroke-width:0.25;"/>
<line x1="299.700000" y1="112.000000" x2="299.700000" y2="100.000000"  style="stroke:black; stroke-linecap:round; stroke-width:0.25;"/>
<line x1="299.700000" y1="112.000000" x2="299.700000" y2="112.000000"  style="stroke:black; stroke-linecap:round; stroke-width:0.25;"/>
<line x1="299.700000" y1="92.000000" x2="307.700000" y2="92.000000"  style="stroke:black; stroke-linecap:round; stroke-width:0.25;"/>
<line x1="307.700000" y1="92.000000" x2="311.700000" y2="92.000000"  style="stroke:black; stroke-linecap:round; stroke-width:0.25;"/>
<line x1="307.700000" y1="100.000000" x2="311.700000" y2="100.000000"  style="stroke:black; stroke-linecap:round; stroke-width:0.25;"/>
<line x1="309.800000" y1="24.000000" x2="293.800000" y2="24.000000"  style="stroke:black; stroke-linecap:round; stroke-width:0.25;"/>
<line x1="325.800000" y1="24.000000" x2="309.800000" y2="24.000000"  style="stroke:black; stroke-linecap:round; stroke-width:0.25;"/>
<line x1="325.800000" y1="24.000000" x2="325.800000" y2="24.000000"  style="stroke:black; stroke-linecap:round; stroke-width:0.25;"/>
<line x1="325.800000" y1="40.000000" x2="325.800000" y2="24.000000"  style="stroke:black; stroke-linecap:round; stroke-width:0.25;"/>
<line x1="333.800000" y1="40.000000" x2="325.800000" y2="40.000000"  style="stroke:black; stroke-linecap:round; stroke-width:0.25;"/>
<line x1="335.700000" y1="96.000000" x2="339.700000" y2="96.000000"  style="stroke:black; stroke-linecap:round; stroke-width:0.25;"/>
<line x1="337.800000" y1="40.000000" x2="333.800000" y2="40.000000"  style="stroke:black; stroke-linecap:round; stroke-width:0.25;"/>
<line x1="339.700000" y1="96.000000" x2="339.700000" y2="96.000000"  style="stroke:black; stroke-linecap:round; stroke-width:0.25;"/>
<line x1="339.700000" y1="96.000000" x2="343.700000" y2="96.000000"  style="stroke:black; stroke-linecap:round; stroke-width:0.25;"/>
<line x1="367.700000" y1="96.000000" x2="371.700000" y2="96.000000"  style="stroke:black; stroke-linecap:round; stroke-width:0.25;"/>
<line x1="371.700000" y1="96.000000" x2="371.700000" y2="96.000000"  style="stroke:black; stroke-linecap:round; stroke-width:0.25;"/>
<line x1="371.700000" y1="96.000000" x2="375.700000" y2="96.000000"  style="stroke:black; stroke-linecap:round; stroke-width:0.25;"/>
<line x1="399.700000" y1="96.000000" x2="403.700000" y2="96.000000"  style="stroke:black; stroke-linecap:round; stroke-width:0.25;"/>
<line x1="403.700000" y1="96.000000" x2="411.700000" y2="96.000000"  style="stroke:black; stroke-linecap:round; stroke-width:0.25;"/>
<line x1="403.700000" y1="72.000000" x2="411.700000" y2="72.000000"  style="stroke:black; stroke-linecap:round; stroke-width:0.25;"/>
<line x1="411.700000" y1="72.000000" x2="411.700000" y2="88.000000"  style="stroke:black; stroke-linecap:round; stroke-width:0.25;"/>
<line x1="411.700000" y1="88.000000" x2="411.700000" y2="88.000000"  style="stroke:black; stroke-linecap:round; stroke-width:0.25;"/>
<line x1="411.700000" y1="88.000000" x2="415.700000" y2="88.000000"  style="stroke:black; stroke-linecap:round; stroke-width:0.25;"/>
<line x1="411.700000" y1="96.000000" x2="415.700000" y2="96.000000"  style="stroke:black; stroke-linecap:round; stroke-width:0.25;"/>
<line x1="439.700000" y1="92.000000" x2="443.700000" y2="92.000000"  style="stroke:black; stroke-linecap:round; stroke-width:0.25;"/>
<line x1="443.700000" y1="76.000000" x2="451.700000" y2="76.000000"  style="stroke:black; stroke-linecap:round; stroke-width:0.25;"/>
<line x1="443.700000" y1="92.000000" x2="443.700000" y2="76.000000"  style="stroke:black; stroke-linecap:round; stroke-width:0.25;"/>
<line x1="443.700000" y1="92.000000" x2="443.700000" y2="92.000000"  style="stroke:black; stroke-linecap:round; stroke-width:0.25;"/>
<line x1="451.700000" y1="76.000000" x2="467.700000" y2="76.000000"  style="stroke:black; stroke-linecap:round; stroke-width:0.25;"/>
<line x1="467.700000" y1="76.000000" x2="483.700000" y2="76.000000"  style="stroke:black; stroke-linecap:round; stroke-width:0.25;"/>
<line x1="479.700000" y1="96.000000" x2="483.700000" y2="96.000000"  style="stroke:black; stroke-linecap:round; stroke-width:0.25;"/>
<line x1="483.700000" y1="64.000000" x2="295.850000" y2="64.000000"  style="stroke:black; stroke-linecap:round; stroke-width:0.25;"/>
<line x1="483.700000" y1="76.000000" x2="491.700000" y2="76.000000"  style="stroke:black; stroke-linecap:round; stroke-width:0.25;"/>
<line x1="483.700000" y1="96.000000" x2="491.700000" y2="96.000000"  style="stroke:black; stroke-linecap:round; stroke-width:0.25;"/>
<line x1="491.700000" y1="76.000000" x2="491.700000" y2="88.000000"  style="stroke:black; stroke-linecap:round; stroke-width:0.25;"/>
<line x1="491.700000" y1="88.000000" x2="491.700000" y2="88.000000"  style="stroke:black; stroke-linecap:round; stroke-width:0.25;"/>
<line x1="491.700000" y1="88.000000" x2="495.700000" y2="88.000000"  style="stroke:black; stroke-linecap:round; stroke-width:0.25;"/>
<line x1="491.700000" y1="96.000000" x2="495.700000" y2="96.000000"  style="stroke:black; stroke-linecap:round; stroke-width:0.25;"/>
<line x1="519.700000" y1="92.000000" x2="523.700000" y2="92.000000"  style="stroke:black; stroke-linecap:round; stroke-width:0.25;"/>
<line x1="523.700000" y1="64.000000" x2="483.700000" y2="64.000000"  style="stroke:black; stroke-linecap:round; stroke-width:0.25;"/>
<line x1="523.700000" y1="64.000000" x2="523.700000" y2="64.000000"  style="stroke:black; stroke-linecap:round; stroke-width:0.25;"/>
<line x1="523.700000" y1="88.000000" x2="523.700000" y2="64.000000"  style="stroke:black; stroke-linecap:round; stroke-width:0.25;"/>
<line x1="523.700000" y1="92.000000" x2="525.700000" y2="92.000000"  style="stroke:black; stroke-linecap:round; stroke-width:0.25;"/>
<line x1="525.700000" y1="92.000000" x2="531.700000" y2="92.000000"  style="stroke:black; stroke-linecap:round; stroke-width:0.25;"/>
<line x1="531.700000" y1="52.000000" x2="539.700000" y2="52.000000"  style="stroke:black; stroke-linecap:round; stroke-width:0.25;"/>
<line x1="531.700000" y1="92.000000" x2="531.700000" y2="52.000000"  style="stroke:black; stroke-linecap:round; stroke-width:0.25;"/>
<line x1="531.700000" y1="92.000000" x2="531.700000" y2="92.000000"  style="stroke:black; stroke-linecap:round; stroke-width:0.25;"/>
<line x1="539.700000" y1="52.000000" x2="555.700000" y2="52.000000"  style="stroke:black; stroke-linecap:round; stroke-width:0.25;"/>
<line x1="555.700000" y1="52.000000" x2="571.700000" y2="52.000000"  style="stroke:black; stroke-linecap:round; stroke-width:0.25;"/>
<line x1="567.700000" y1="72.000000" x2="571.700000" y2="72.000000"  style="stroke:black; stroke-linecap:round; stroke-width:0.25;"/>
<line x1="571.700000" y1="52.000000" x2="579.700000" y2="52.000000"  style="stroke:black; stroke-linecap:round; stroke-width:0.25;"/>
<line x1="571.700000" y1="72.000000" x2="579.700000" y2="72.000000"  style="stroke:black; stroke-linecap:round; stroke-width:0.25;"/>
<line x1="579.700000" y1="52.000000" x2="579.700000" y2="64.000000"  style="stroke:black; stroke-linecap:round; stroke-width:0.25;"/>
<line x1="579.700000" y1="64.000000" x2="579.700000" y2="64.000000"  style="stroke:black; stroke-linecap:round; stroke-width:0.25;"/>
<line x1="579.700000" y1="64.000000" x2="583.700000" y2="64.000000"  style="stroke:black; stroke-linecap:round; stroke-width:0.25;"/>
<line x1="579.700000" y1="72.000000" x2="583.700000" y2="72.000000"  style="stroke:black; stroke-linecap:round; stroke-width:0.25;"/>
<line x1="607.700000" y1="68.000000" x2="611.700000" y2="68.000000"  style="stroke:black; stroke-linecap:round; stroke-width:0.25;"/>
<line x1="611.700000" y1="68.000000" x2="621.700000" y2="68.000000"  style="stroke:black; stroke-linecap:round; stroke-width:0.25;"/>
</svg>
