<?xml version="1.0"?>
<svg xmlns="http://www.w3.org/2000/svg" xmlns:xlink="http://www.w3.org/1999/xlink" viewBox="0 0 492.600000 152.000000" width="246.300000mm" height="76.000000mm" version="1.1">
<defs>
   <filter id="filter" filterRes="18" x="0" y="0">
     <feGaussianBlur in="SourceGraphic" stdDeviation="1.55" result="blur"/>
     <feOffset in="blur" dx="3" dy="3"/>
   </filter>
</defs>
<a xlink:href="process.svg">
<rect x="1.000000" y="1.000000" width="491.600000" height="151.000000" rx="0.1" ry="0.1" style="stroke:none;fill:#aaaaaa;;filter:url(#filter);"/>
<rect x="0.000000" y="0.000000" width="491.600000" height="151.000000" rx="0" ry="0" style="stroke:none;fill:#ffffff;"/>
</a>
<text x="10.000000" y="7.000000" font-family="Arial" font-size="7"></text>
<a xlink:href="random-0x193c9d0.svg">
<rect x="39.450000" y="73.000000" width="141.900000" height="24.000000" rx="0.1" ry="0.1" style="stroke:none;fill:#aaaaaa;;filter:url(#filter);"/>
<rect x="38.450000" y="72.000000" width="141.900000" height="24.000000" rx="0" ry="0" style="stroke:none;fill:#003366;"/>
</a>
<a xlink:href="random-0x193c9d0.svg">
<text x="109.400000" y="86.000000" font-family="Arial" font-size="7" text-anchor="middle" fill="#FFFFFF">random((19200..., 0.1):/:int)(7)</text>
</a>
<circle cx="40.450000" cy="74.000000" r="1"/>
<rect x="33.000000" y="105.000000" width="154.800000" height="24.000000" rx="0.1" ry="0.1" style="stroke:none;fill:#aaaaaa;;filter:url(#filter);"/>
<rect x="32.000000" y="104.000000" width="154.800000" height="24.000000" rx="0" ry="0" style="stroke:none;fill:#477881;"/>
<text x="109.400000" y="118.000000" font-family="Arial" font-size="7" text-anchor="middle" fill="#FFFFFF">hslider(pulsewidth, 1, 1, 1000, 0.1)</text>
<circle cx="34.000000" cy="106.000000" r="1"/>
<rect x="203.800000" y="89.000000" width="24.000000" height="24.000000" rx="0.1" ry="0.1" style="stroke:none;fill:#aaaaaa;;filter:url(#filter);"/>
<rect x="202.800000" y="88.000000" width="24.000000" height="24.000000" rx="0" ry="0" style="stroke:none;fill:#4B71A1;"/>
<text x="214.800000" y="102.000000" font-family="Arial" font-size="7" text-anchor="middle" fill="#FFFFFF">*</text>
<circle cx="204.800000" cy="90.000000" r="1"/>
<line x1="199.800000" y1="95.000000" x2="202.800000" y2="96.000000"  transform="rotate(0.000000,202.800000,96.000000)" style="stroke: black; stroke-width:0.25;"/>
<line x1="199.800000" y1="97.000000" x2="202.800000" y2="96.000000"  transform="rotate(0.000000,202.800000,96.000000)" style="stroke: black; stroke-width:0.25;"/>
<line x1="199.800000" y1="103.000000" x2="202.800000" y2="104.000000"  transform="rotate(0.000000,202.800000,104.000000)" style="stroke: black; stroke-width:0.25;"/>
<line x1="199.800000" y1="105.000000" x2="202.800000" y2="104.000000"  transform="rotate(0.000000,202.800000,104.000000)" style="stroke: black; stroke-width:0.25;"/>
<a xlink:href="safer-0x1943eb0.svg">
<rect x="235.800000" y="89.000000" width="25.800000" height="24.000000" rx="0.1" ry="0.1" style="stroke:none;fill:#aaaaaa;;filter:url(#filter);"/>
<rect x="234.800000" y="88.000000" width="25.800000" height="24.000000" rx="0" ry="0" style="stroke:none;fill:#003366;"/>
</a>
<a xlink:href="safer-0x1943eb0.svg">
<text x="247.700000" y="102.000000" font-family="Arial" font-size="7" text-anchor="middle" fill="#FFFFFF">safer</text>
</a>
<circle cx="236.800000" cy="90.000000" r="1"/>
<line x1="231.800000" y1="99.000000" x2="234.800000" y2="100.000000"  transform="rotate(0.000000,234.800000,100.000000)" style="stroke: black; stroke-width:0.25;"/>
<line x1="231.800000" y1="101.000000" x2="234.800000" y2="100.000000"  transform="rotate(0.000000,234.800000,100.000000)" style="stroke: black; stroke-width:0.25;"/>
<rect x="277.600000" y="85.000000" width="24.000000" height="24.000000" rx="0.1" ry="0.1" style="stroke:none;fill:#aaaaaa;;filter:url(#filter);"/>
<rect x="276.600000" y="84.000000" width="24.000000" height="24.000000" rx="0" ry="0" style="stroke:none;fill:#4B71A1;"/>
<text x="288.600000" y="98.000000" font-family="Arial" font-size="7" text-anchor="middle" fill="#FFFFFF">@</text>
<circle cx="278.600000" cy="86.000000" r="1"/>
<line x1="273.600000" y1="91.000000" x2="276.600000" y2="92.000000"  transform="rotate(0.000000,276.600000,92.000000)" style="stroke: black; stroke-width:0.25;"/>
<line x1="273.600000" y1="93.000000" x2="276.600000" y2="92.000000"  transform="rotate(0.000000,276.600000,92.000000)" style="stroke: black; stroke-width:0.25;"/>
<line x1="273.600000" y1="99.000000" x2="276.600000" y2="100.000000"  transform="rotate(0.000000,276.600000,100.000000)" style="stroke: black; stroke-width:0.25;"/>
<line x1="273.600000" y1="101.000000" x2="276.600000" y2="100.000000"  transform="rotate(0.000000,276.600000,100.000000)" style="stroke: black; stroke-width:0.25;"/>
<rect x="317.600000" y="89.000000" width="24.000000" height="24.000000" rx="0.1" ry="0.1" style="stroke:none;fill:#aaaaaa;;filter:url(#filter);"/>
<rect x="316.600000" y="88.000000" width="24.000000" height="24.000000" rx="0" ry="0" style="stroke:none;fill:#f44800;"/>
<text x="328.600000" y="102.000000" font-family="Arial" font-size="7" text-anchor="middle" fill="#FFFFFF">1</text>
<circle cx="318.600000" cy="90.000000" r="1"/>
<rect x="357.600000" y="85.000000" width="24.000000" height="24.000000" rx="0.1" ry="0.1" style="stroke:none;fill:#aaaaaa;;filter:url(#filter);"/>
<rect x="356.600000" y="84.000000" width="24.000000" height="24.000000" rx="0" ry="0" style="stroke:none;fill:#4B71A1;"/>
<text x="368.600000" y="98.000000" font-family="Arial" font-size="7" text-anchor="middle" fill="#FFFFFF">+</text>
<circle cx="358.600000" cy="86.000000" r="1"/>
<line x1="353.600000" y1="91.000000" x2="356.600000" y2="92.000000"  transform="rotate(0.000000,356.600000,92.000000)" style="stroke: black; stroke-width:0.25;"/>
<line x1="353.600000" y1="93.000000" x2="356.600000" y2="92.000000"  transform="rotate(0.000000,356.600000,92.000000)" style="stroke: black; stroke-width:0.25;"/>
<line x1="353.600000" y1="99.000000" x2="356.600000" y2="100.000000"  transform="rotate(0.000000,356.600000,100.000000)" style="stroke: black; stroke-width:0.25;"/>
<line x1="353.600000" y1="101.000000" x2="356.600000" y2="100.000000"  transform="rotate(0.000000,356.600000,100.000000)" style="stroke: black; stroke-width:0.25;"/>
<a xlink:href="random-0x193c9d0.svg">
<rect x="173.250000" y="25.000000" width="141.900000" height="24.000000" rx="0.1" ry="0.1" style="stroke:none;fill:#aaaaaa;;filter:url(#filter);"/>
<rect x="172.250000" y="24.000000" width="141.900000" height="24.000000" rx="0" ry="0" style="stroke:none;fill:#003366;"/>
</a>
<a xlink:href="random-0x193c9d0.svg">
<text x="243.200000" y="38.000000" font-family="Arial" font-size="7" text-anchor="middle" fill="#FFFFFF">random((19200..., 0.1):/:int)(7)</text>
</a>
<circle cx="312.150000" cy="46.000000" r="1"/>
<a xlink:href="safer-0x1943eb0.svg">
<rect x="139.450000" y="25.000000" width="25.800000" height="24.000000" rx="0.1" ry="0.1" style="stroke:none;fill:#aaaaaa;;filter:url(#filter);"/>
<rect x="138.450000" y="24.000000" width="25.800000" height="24.000000" rx="0" ry="0" style="stroke:none;fill:#003366;"/>
</a>
<a xlink:href="safer-0x1943eb0.svg">
<text x="151.350000" y="38.000000" font-family="Arial" font-size="7" text-anchor="middle" fill="#FFFFFF">safer</text>
</a>
<circle cx="162.250000" cy="46.000000" r="1"/>
<line x1="167.250000" y1="35.000000" x2="164.250000" y2="36.000000"  transform="rotate(0.000000,164.250000,36.000000)" style="stroke: black; stroke-width:0.25;"/>
<line x1="167.250000" y1="37.000000" x2="164.250000" y2="36.000000"  transform="rotate(0.000000,164.250000,36.000000)" style="stroke: black; stroke-width:0.25;"/>
<rect x="99.450000" y="29.000000" width="24.000000" height="24.000000" rx="0.1" ry="0.1" style="stroke:none;fill:#aaaaaa;;filter:url(#filter);"/>
<rect x="98.450000" y="28.000000" width="24.000000" height="24.000000" rx="0" ry="0" style="stroke:none;fill:#4B71A1;"/>
<text x="110.450000" y="42.000000" font-family="Arial" font-size="7" text-anchor="middle" fill="#FFFFFF">@</text>
<circle cx="120.450000" cy="50.000000" r="1"/>
<line x1="125.450000" y1="43.000000" x2="122.450000" y2="44.000000"  transform="rotate(0.000000,122.450000,44.000000)" style="stroke: black; stroke-width:0.25;"/>
<line x1="125.450000" y1="45.000000" x2="122.450000" y2="44.000000"  transform="rotate(0.000000,122.450000,44.000000)" style="stroke: black; stroke-width:0.25;"/>
<line x1="125.450000" y1="35.000000" x2="122.450000" y2="36.000000"  transform="rotate(0.000000,122.450000,36.000000)" style="stroke: black; stroke-width:0.25;"/>
<line x1="125.450000" y1="37.000000" x2="122.450000" y2="36.000000"  transform="rotate(0.000000,122.450000,36.000000)" style="stroke: black; stroke-width:0.25;"/>
<line x1="382.600000" y1="96.000000" x2="382.600000" y2="92.000000"  style="stroke:black; stroke-linecap:round; stroke-width:0.25;"/>
<line x1="382.600000" y1="92.000000" x2="386.600000" y2="92.000000"  style="stroke:black; stroke-linecap:round; stroke-width:0.25;"/>
<line x1="386.600000" y1="92.000000" x2="386.600000" y2="96.000000"  style="stroke:black; stroke-linecap:round; stroke-width:0.25;"/>
<rect x="405.600000" y="69.000000" width="24.000000" height="24.000000" rx="0.1" ry="0.1" style="stroke:none;fill:#aaaaaa;;filter:url(#filter);"/>
<rect x="404.600000" y="68.000000" width="24.000000" height="24.000000" rx="0" ry="0" style="stroke:none;fill:#f44800;"/>
<text x="416.600000" y="82.000000" font-family="Arial" font-size="7" text-anchor="middle" fill="#FFFFFF">1</text>
<circle cx="406.600000" cy="70.000000" r="1"/>
<rect x="445.600000" y="65.000000" width="24.000000" height="24.000000" rx="0.1" ry="0.1" style="stroke:none;fill:#aaaaaa;;filter:url(#filter);"/>
<rect x="444.600000" y="64.000000" width="24.000000" height="24.000000" rx="0" ry="0" style="stroke:none;fill:#4B71A1;"/>
<text x="456.600000" y="78.000000" font-family="Arial" font-size="7" text-anchor="middle" fill="#FFFFFF">-</text>
<circle cx="446.600000" cy="66.000000" r="1"/>
<line x1="441.600000" y1="71.000000" x2="444.600000" y2="72.000000"  transform="rotate(0.000000,444.600000,72.000000)" style="stroke: black; stroke-width:0.25;"/>
<line x1="441.600000" y1="73.000000" x2="444.600000" y2="72.000000"  transform="rotate(0.000000,444.600000,72.000000)" style="stroke: black; stroke-width:0.25;"/>
<line x1="441.600000" y1="79.000000" x2="444.600000" y2="80.000000"  transform="rotate(0.000000,444.600000,80.000000)" style="stroke: black; stroke-width:0.25;"/>
<line x1="441.600000" y1="81.000000" x2="444.600000" y2="80.000000"  transform="rotate(0.000000,444.600000,80.000000)" style="stroke: black; stroke-width:0.25;"/>
<line x1="15.000000" y1="15.000000" x2="15.000000" y2="137.000000"  style="stroke: black; stroke-linecap:round; stroke-width:0.25; stroke-dasharray:3,3;"/>
<line x1="15.000000" y1="137.000000" x2="477.600000" y2="137.000000"  style="stroke: black; stroke-linecap:round; stroke-width:0.25; stroke-dasharray:3,3;"/>
<line x1="477.600000" y1="137.000000" x2="477.600000" y2="15.000000"  style="stroke: black; stroke-linecap:round; stroke-width:0.25; stroke-dasharray:3,3;"/>
<line x1="15.000000" y1="15.000000" x2="20.000000" y2="15.000000"  style="stroke: black; stroke-linecap:round; stroke-width:0.25; stroke-dasharray:3,3;"/>
<line x1="119.975000" y1="15.000000" x2="477.600000" y2="15.000000"  style="stroke: black; stroke-linecap:round; stroke-width:0.25; stroke-dasharray:3,3;"/>
<text x="20.000000" y="17.000000" font-family="Arial" font-size="7">trigger(((_,7...%:_,192000:%)</text>
<line x1="479.600000" y1="75.000000" x2="482.600000" y2="76.000000"  transform="rotate(0.000000,482.600000,76.000000)" style="stroke: black; stroke-width:0.25;"/>
<line x1="479.600000" y1="77.000000" x2="482.600000" y2="76.000000"  transform="rotate(0.000000,482.600000,76.000000)" style="stroke: black; stroke-width:0.25;"/>
<line x1="28.000000" y1="40.000000" x2="28.000000" y2="40.000000"  style="stroke:black; stroke-linecap:round; stroke-width:0.25;"/>
<line x1="28.000000" y1="40.000000" x2="28.000000" y2="64.000000"  style="stroke:black; stroke-linecap:round; stroke-width:0.25;"/>
<line x1="28.000000" y1="64.000000" x2="28.000000" y2="64.000000"  style="stroke:black; stroke-linecap:round; stroke-width:0.25;"/>
<line x1="28.000000" y1="64.000000" x2="146.300000" y2="64.000000"  style="stroke:black; stroke-linecap:round; stroke-width:0.25;"/>
<line x1="94.450000" y1="40.000000" x2="28.000000" y2="40.000000"  style="stroke:black; stroke-linecap:round; stroke-width:0.25;"/>
<line x1="98.450000" y1="40.000000" x2="94.450000" y2="40.000000"  style="stroke:black; stroke-linecap:round; stroke-width:0.25;"/>
<line x1="126.450000" y1="36.000000" x2="122.450000" y2="36.000000"  style="stroke:black; stroke-linecap:round; stroke-width:0.25;"/>
<line x1="126.450000" y1="44.000000" x2="122.450000" y2="44.000000"  style="stroke:black; stroke-linecap:round; stroke-width:0.25;"/>
<line x1="126.450000" y1="44.000000" x2="126.450000" y2="44.000000"  style="stroke:black; stroke-linecap:round; stroke-width:0.25;"/>
<line x1="126.450000" y1="56.000000" x2="126.450000" y2="44.000000"  style="stroke:black; stroke-linecap:round; stroke-width:0.25;"/>
<line x1="134.450000" y1="36.000000" x2="126.450000" y2="36.000000"  style="stroke:black; stroke-linecap:round; stroke-width:0.25;"/>
<line x1="134.450000" y1="56.000000" x2="126.450000" y2="56.000000"  style="stroke:black; stroke-linecap:round; stroke-width:0.25;"/>
<line x1="138.450000" y1="36.000000" x2="134.450000" y2="36.000000"  style="stroke:black; stroke-linecap:round; stroke-width:0.25;"/>
<line x1="146.300000" y1="64.000000" x2="264.600000" y2="64.000000"  style="stroke:black; stroke-linecap:round; stroke-width:0.25;"/>
<line x1="168.250000" y1="36.000000" x2="164.250000" y2="36.000000"  style="stroke:black; stroke-linecap:round; stroke-width:0.25;"/>
<line x1="168.250000" y1="36.000000" x2="168.250000" y2="36.000000"  style="stroke:black; stroke-linecap:round; stroke-width:0.25;"/>
<line x1="172.250000" y1="36.000000" x2="168.250000" y2="36.000000"  style="stroke:black; stroke-linecap:round; stroke-width:0.25;"/>
<line x1="180.350000" y1="84.000000" x2="184.350000" y2="84.000000"  style="stroke:black; stroke-linecap:round; stroke-width:0.25;"/>
<line x1="184.350000" y1="84.000000" x2="190.800000" y2="84.000000"  style="stroke:black; stroke-linecap:round; stroke-width:0.25;"/>
<line x1="186.800000" y1="116.000000" x2="190.800000" y2="116.000000"  style="stroke:black; stroke-linecap:round; stroke-width:0.25;"/>
<line x1="190.800000" y1="84.000000" x2="198.800000" y2="84.000000"  style="stroke:black; stroke-linecap:round; stroke-width:0.25;"/>
<line x1="190.800000" y1="104.000000" x2="198.800000" y2="104.000000"  style="stroke:black; stroke-linecap:round; stroke-width:0.25;"/>
<line x1="190.800000" y1="116.000000" x2="190.800000" y2="104.000000"  style="stroke:black; stroke-linecap:round; stroke-width:0.25;"/>
<line x1="190.800000" y1="116.000000" x2="190.800000" y2="116.000000"  style="stroke:black; stroke-linecap:round; stroke-width:0.25;"/>
<line x1="198.800000" y1="84.000000" x2="198.800000" y2="96.000000"  style="stroke:black; stroke-linecap:round; stroke-width:0.25;"/>
<line x1="198.800000" y1="96.000000" x2="198.800000" y2="96.000000"  style="stroke:black; stroke-linecap:round; stroke-width:0.25;"/>
<line x1="198.800000" y1="96.000000" x2="202.800000" y2="96.000000"  style="stroke:black; stroke-linecap:round; stroke-width:0.25;"/>
<line x1="198.800000" y1="104.000000" x2="202.800000" y2="104.000000"  style="stroke:black; stroke-linecap:round; stroke-width:0.25;"/>
<line x1="226.300000" y1="56.000000" x2="134.450000" y2="56.000000"  style="stroke:black; stroke-linecap:round; stroke-width:0.25;"/>
<line x1="226.800000" y1="100.000000" x2="230.800000" y2="100.000000"  style="stroke:black; stroke-linecap:round; stroke-width:0.25;"/>
<line x1="230.800000" y1="100.000000" x2="230.800000" y2="100.000000"  style="stroke:black; stroke-linecap:round; stroke-width:0.25;"/>
<line x1="230.800000" y1="100.000000" x2="234.800000" y2="100.000000"  style="stroke:black; stroke-linecap:round; stroke-width:0.25;"/>
<line x1="260.600000" y1="100.000000" x2="264.600000" y2="100.000000"  style="stroke:black; stroke-linecap:round; stroke-width:0.25;"/>
<line x1="264.600000" y1="64.000000" x2="272.600000" y2="64.000000"  style="stroke:black; stroke-linecap:round; stroke-width:0.25;"/>
<line x1="264.600000" y1="100.000000" x2="272.600000" y2="100.000000"  style="stroke:black; stroke-linecap:round; stroke-width:0.25;"/>
<line x1="272.600000" y1="64.000000" x2="272.600000" y2="92.000000"  style="stroke:black; stroke-linecap:round; stroke-width:0.25;"/>
<line x1="272.600000" y1="92.000000" x2="272.600000" y2="92.000000"  style="stroke:black; stroke-linecap:round; stroke-width:0.25;"/>
<line x1="272.600000" y1="92.000000" x2="276.600000" y2="92.000000"  style="stroke:black; stroke-linecap:round; stroke-width:0.25;"/>
<line x1="272.600000" y1="100.000000" x2="276.600000" y2="100.000000"  style="stroke:black; stroke-linecap:round; stroke-width:0.25;"/>
<line x1="300.600000" y1="96.000000" x2="304.600000" y2="96.000000"  style="stroke:black; stroke-linecap:round; stroke-width:0.25;"/>
<line x1="304.600000" y1="80.000000" x2="312.600000" y2="80.000000"  style="stroke:black; stroke-linecap:round; stroke-width:0.25;"/>
<line x1="304.600000" y1="96.000000" x2="304.600000" y2="80.000000"  style="stroke:black; stroke-linecap:round; stroke-width:0.25;"/>
<line x1="304.600000" y1="96.000000" x2="304.600000" y2="96.000000"  style="stroke:black; stroke-linecap:round; stroke-width:0.25;"/>
<line x1="312.600000" y1="80.000000" x2="328.600000" y2="80.000000"  style="stroke:black; stroke-linecap:round; stroke-width:0.25;"/>
<line x1="318.150000" y1="56.000000" x2="226.300000" y2="56.000000"  style="stroke:black; stroke-linecap:round; stroke-width:0.25;"/>
<line x1="328.600000" y1="80.000000" x2="344.600000" y2="80.000000"  style="stroke:black; stroke-linecap:round; stroke-width:0.25;"/>
<line x1="340.600000" y1="100.000000" x2="344.600000" y2="100.000000"  style="stroke:black; stroke-linecap:round; stroke-width:0.25;"/>
<line x1="344.600000" y1="80.000000" x2="352.600000" y2="80.000000"  style="stroke:black; stroke-linecap:round; stroke-width:0.25;"/>
<line x1="344.600000" y1="100.000000" x2="352.600000" y2="100.000000"  style="stroke:black; stroke-linecap:round; stroke-width:0.25;"/>
<line x1="352.600000" y1="80.000000" x2="352.600000" y2="92.000000"  style="stroke:black; stroke-linecap:round; stroke-width:0.25;"/>
<line x1="352.600000" y1="92.000000" x2="352.600000" y2="92.000000"  style="stroke:black; stroke-linecap:round; stroke-width:0.25;"/>
<line x1="352.600000" y1="92.000000" x2="356.600000" y2="92.000000"  style="stroke:black; stroke-linecap:round; stroke-width:0.25;"/>
<line x1="352.600000" y1="100.000000" x2="356.600000" y2="100.000000"  style="stroke:black; stroke-linecap:round; stroke-width:0.25;"/>
<line x1="380.600000" y1="96.000000" x2="384.600000" y2="96.000000"  style="stroke:black; stroke-linecap:round; stroke-width:0.25;"/>
<line x1="384.600000" y1="56.000000" x2="318.150000" y2="56.000000"  style="stroke:black; stroke-linecap:round; stroke-width:0.25;"/>
<line x1="384.600000" y1="56.000000" x2="384.600000" y2="56.000000"  style="stroke:black; stroke-linecap:round; stroke-width:0.25;"/>
<line x1="384.600000" y1="92.000000" x2="384.600000" y2="56.000000"  style="stroke:black; stroke-linecap:round; stroke-width:0.25;"/>
<line x1="384.600000" y1="96.000000" x2="386.600000" y2="96.000000"  style="stroke:black; stroke-linecap:round; stroke-width:0.25;"/>
<line x1="386.600000" y1="96.000000" x2="392.600000" y2="96.000000"  style="stroke:black; stroke-linecap:round; stroke-width:0.25;"/>
<line x1="392.600000" y1="60.000000" x2="400.600000" y2="60.000000"  style="stroke:black; stroke-linecap:round; stroke-width:0.25;"/>
<line x1="392.600000" y1="96.000000" x2="392.600000" y2="60.000000"  style="stroke:black; stroke-linecap:round; stroke-width:0.25;"/>
<line x1="392.600000" y1="96.000000" x2="392.600000" y2="96.000000"  style="stroke:black; stroke-linecap:round; stroke-width:0.25;"/>
<line x1="400.600000" y1="60.000000" x2="416.600000" y2="60.000000"  style="stroke:black; stroke-linecap:round; stroke-width:0.25;"/>
<line x1="416.600000" y1="60.000000" x2="432.600000" y2="60.000000"  style="stroke:black; stroke-linecap:round; stroke-width:0.25;"/>
<line x1="428.600000" y1="80.000000" x2="432.600000" y2="80.000000"  style="stroke:black; stroke-linecap:round; stroke-width:0.25;"/>
<line x1="432.600000" y1="60.000000" x2="440.600000" y2="60.000000"  style="stroke:black; stroke-linecap:round; stroke-width:0.25;"/>
<line x1="432.600000" y1="80.000000" x2="440.600000" y2="80.000000"  style="stroke:black; stroke-linecap:round; stroke-width:0.25;"/>
<line x1="440.600000" y1="60.000000" x2="440.600000" y2="72.000000"  style="stroke:black; stroke-linecap:round; stroke-width:0.25;"/>
<line x1="440.600000" y1="72.000000" x2="440.600000" y2="72.000000"  style="stroke:black; stroke-linecap:round; stroke-width:0.25;"/>
<line x1="440.600000" y1="72.000000" x2="444.600000" y2="72.000000"  style="stroke:black; stroke-linecap:round; stroke-width:0.25;"/>
<line x1="440.600000" y1="80.000000" x2="444.600000" y2="80.000000"  style="stroke:black; stroke-linecap:round; stroke-width:0.25;"/>
<line x1="468.600000" y1="76.000000" x2="472.600000" y2="76.000000"  style="stroke:black; stroke-linecap:round; stroke-width:0.25;"/>
<line x1="472.600000" y1="76.000000" x2="482.600000" y2="76.000000"  style="stroke:black; stroke-linecap:round; stroke-width:0.25;"/>
</svg>
