<?xml version="1.0"?>
<svg xmlns="http://www.w3.org/2000/svg" xmlns:xlink="http://www.w3.org/1999/xlink" viewBox="0 0 684.600000 160.000000" width="342.300000mm" height="80.000000mm" version="1.1">
<defs>
   <filter id="filter" filterRes="18" x="0" y="0">
     <feGaussianBlur in="SourceGraphic" stdDeviation="1.55" result="blur"/>
     <feOffset in="blur" dx="3" dy="3"/>
   </filter>
</defs>
<a xlink:href="process.svg">
<rect x="1.000000" y="1.000000" width="683.600000" height="159.000000" rx="0.1" ry="0.1" style="stroke:none;fill:#aaaaaa;;filter:url(#filter);"/>
<rect x="0.000000" y="0.000000" width="683.600000" height="159.000000" rx="0" ry="0" style="stroke:none;fill:#ffffff;"/>
</a>
<text x="10.000000" y="7.000000" font-family="Arial" font-size="7"></text>
<a xlink:href="random-0x191ebb0.svg">
<rect x="39.450000" y="81.000000" width="141.900000" height="24.000000" rx="0.1" ry="0.1" style="stroke:none;fill:#aaaaaa;;filter:url(#filter);"/>
<rect x="38.450000" y="80.000000" width="141.900000" height="24.000000" rx="0" ry="0" style="stroke:none;fill:#003366;"/>
</a>
<a xlink:href="random-0x191ebb0.svg">
<text x="109.400000" y="94.000000" font-family="Arial" font-size="7" text-anchor="middle" fill="#FFFFFF">random((19200..., 0.1):/:int)(7)</text>
</a>
<circle cx="40.450000" cy="82.000000" r="1"/>
<rect x="33.000000" y="113.000000" width="154.800000" height="24.000000" rx="0.1" ry="0.1" style="stroke:none;fill:#aaaaaa;;filter:url(#filter);"/>
<rect x="32.000000" y="112.000000" width="154.800000" height="24.000000" rx="0" ry="0" style="stroke:none;fill:#477881;"/>
<text x="109.400000" y="126.000000" font-family="Arial" font-size="7" text-anchor="middle" fill="#FFFFFF">hslider(pulsewidth, 1, 1, 1000, 0.1)</text>
<circle cx="34.000000" cy="114.000000" r="1"/>
<rect x="203.800000" y="97.000000" width="24.000000" height="24.000000" rx="0.1" ry="0.1" style="stroke:none;fill:#aaaaaa;;filter:url(#filter);"/>
<rect x="202.800000" y="96.000000" width="24.000000" height="24.000000" rx="0" ry="0" style="stroke:none;fill:#4B71A1;"/>
<text x="214.800000" y="110.000000" font-family="Arial" font-size="7" text-anchor="middle" fill="#FFFFFF">*</text>
<circle cx="204.800000" cy="98.000000" r="1"/>
<line x1="199.800000" y1="103.000000" x2="202.800000" y2="104.000000"  transform="rotate(0.000000,202.800000,104.000000)" style="stroke: black; stroke-width:0.25;"/>
<line x1="199.800000" y1="105.000000" x2="202.800000" y2="104.000000"  transform="rotate(0.000000,202.800000,104.000000)" style="stroke: black; stroke-width:0.25;"/>
<line x1="199.800000" y1="111.000000" x2="202.800000" y2="112.000000"  transform="rotate(0.000000,202.800000,112.000000)" style="stroke: black; stroke-width:0.25;"/>
<line x1="199.800000" y1="113.000000" x2="202.800000" y2="112.000000"  transform="rotate(0.000000,202.800000,112.000000)" style="stroke: black; stroke-width:0.25;"/>
<rect x="243.800000" y="93.000000" width="24.000000" height="24.000000" rx="0.1" ry="0.1" style="stroke:none;fill:#aaaaaa;;filter:url(#filter);"/>
<rect x="242.800000" y="92.000000" width="24.000000" height="24.000000" rx="0" ry="0" style="stroke:none;fill:#f44800;"/>
<text x="254.800000" y="106.000000" font-family="Arial" font-size="7" text-anchor="middle" fill="#FFFFFF">1</text>
<circle cx="244.800000" cy="94.000000" r="1"/>
<rect x="283.800000" y="97.000000" width="24.000000" height="24.000000" rx="0.1" ry="0.1" style="stroke:none;fill:#aaaaaa;;filter:url(#filter);"/>
<rect x="282.800000" y="96.000000" width="24.000000" height="24.000000" rx="0" ry="0" style="stroke:none;fill:#4B71A1;"/>
<text x="294.800000" y="110.000000" font-family="Arial" font-size="7" text-anchor="middle" fill="#FFFFFF">max</text>
<circle cx="284.800000" cy="98.000000" r="1"/>
<line x1="279.800000" y1="103.000000" x2="282.800000" y2="104.000000"  transform="rotate(0.000000,282.800000,104.000000)" style="stroke: black; stroke-width:0.25;"/>
<line x1="279.800000" y1="105.000000" x2="282.800000" y2="104.000000"  transform="rotate(0.000000,282.800000,104.000000)" style="stroke: black; stroke-width:0.25;"/>
<line x1="279.800000" y1="111.000000" x2="282.800000" y2="112.000000"  transform="rotate(0.000000,282.800000,112.000000)" style="stroke: black; stroke-width:0.25;"/>
<line x1="279.800000" y1="113.000000" x2="282.800000" y2="112.000000"  transform="rotate(0.000000,282.800000,112.000000)" style="stroke: black; stroke-width:0.25;"/>
<rect x="323.800000" y="93.000000" width="25.800000" height="24.000000" rx="0.1" ry="0.1" style="stroke:none;fill:#aaaaaa;;filter:url(#filter);"/>
<rect x="322.800000" y="92.000000" width="25.800000" height="24.000000" rx="0" ry="0" style="stroke:none;fill:#f44800;"/>
<text x="335.700000" y="106.000000" font-family="Arial" font-size="7" text-anchor="middle" fill="#FFFFFF">192000</text>
<circle cx="324.800000" cy="94.000000" r="1"/>
<rect x="365.600000" y="97.000000" width="24.000000" height="24.000000" rx="0.1" ry="0.1" style="stroke:none;fill:#aaaaaa;;filter:url(#filter);"/>
<rect x="364.600000" y="96.000000" width="24.000000" height="24.000000" rx="0" ry="0" style="stroke:none;fill:#4B71A1;"/>
<text x="376.600000" y="110.000000" font-family="Arial" font-size="7" text-anchor="middle" fill="#FFFFFF">min</text>
<circle cx="366.600000" cy="98.000000" r="1"/>
<line x1="361.600000" y1="103.000000" x2="364.600000" y2="104.000000"  transform="rotate(0.000000,364.600000,104.000000)" style="stroke: black; stroke-width:0.25;"/>
<line x1="361.600000" y1="105.000000" x2="364.600000" y2="104.000000"  transform="rotate(0.000000,364.600000,104.000000)" style="stroke: black; stroke-width:0.25;"/>
<line x1="361.600000" y1="111.000000" x2="364.600000" y2="112.000000"  transform="rotate(0.000000,364.600000,112.000000)" style="stroke: black; stroke-width:0.25;"/>
<line x1="361.600000" y1="113.000000" x2="364.600000" y2="112.000000"  transform="rotate(0.000000,364.600000,112.000000)" style="stroke: black; stroke-width:0.25;"/>
<rect x="397.600000" y="97.000000" width="24.000000" height="24.000000" rx="0.1" ry="0.1" style="stroke:none;fill:#aaaaaa;;filter:url(#filter);"/>
<rect x="396.600000" y="96.000000" width="24.000000" height="24.000000" rx="0" ry="0" style="stroke:none;fill:#4B71A1;"/>
<text x="408.600000" y="110.000000" font-family="Arial" font-size="7" text-anchor="middle" fill="#FFFFFF">int</text>
<circle cx="398.600000" cy="98.000000" r="1"/>
<line x1="393.600000" y1="107.000000" x2="396.600000" y2="108.000000"  transform="rotate(0.000000,396.600000,108.000000)" style="stroke: black; stroke-width:0.25;"/>
<line x1="393.600000" y1="109.000000" x2="396.600000" y2="108.000000"  transform="rotate(0.000000,396.600000,108.000000)" style="stroke: black; stroke-width:0.25;"/>
<rect x="429.600000" y="97.000000" width="24.000000" height="24.000000" rx="0.1" ry="0.1" style="stroke:none;fill:#aaaaaa;;filter:url(#filter);"/>
<rect x="428.600000" y="96.000000" width="24.000000" height="24.000000" rx="0" ry="0" style="stroke:none;fill:#4B71A1;"/>
<text x="440.600000" y="110.000000" font-family="Arial" font-size="7" text-anchor="middle" fill="#FFFFFF">abs</text>
<circle cx="430.600000" cy="98.000000" r="1"/>
<line x1="425.600000" y1="107.000000" x2="428.600000" y2="108.000000"  transform="rotate(0.000000,428.600000,108.000000)" style="stroke: black; stroke-width:0.25;"/>
<line x1="425.600000" y1="109.000000" x2="428.600000" y2="108.000000"  transform="rotate(0.000000,428.600000,108.000000)" style="stroke: black; stroke-width:0.25;"/>
<rect x="469.600000" y="93.000000" width="24.000000" height="24.000000" rx="0.1" ry="0.1" style="stroke:none;fill:#aaaaaa;;filter:url(#filter);"/>
<rect x="468.600000" y="92.000000" width="24.000000" height="24.000000" rx="0" ry="0" style="stroke:none;fill:#4B71A1;"/>
<text x="480.600000" y="106.000000" font-family="Arial" font-size="7" text-anchor="middle" fill="#FFFFFF">@</text>
<circle cx="470.600000" cy="94.000000" r="1"/>
<line x1="465.600000" y1="99.000000" x2="468.600000" y2="100.000000"  transform="rotate(0.000000,468.600000,100.000000)" style="stroke: black; stroke-width:0.25;"/>
<line x1="465.600000" y1="101.000000" x2="468.600000" y2="100.000000"  transform="rotate(0.000000,468.600000,100.000000)" style="stroke: black; stroke-width:0.25;"/>
<line x1="465.600000" y1="107.000000" x2="468.600000" y2="108.000000"  transform="rotate(0.000000,468.600000,108.000000)" style="stroke: black; stroke-width:0.25;"/>
<line x1="465.600000" y1="109.000000" x2="468.600000" y2="108.000000"  transform="rotate(0.000000,468.600000,108.000000)" style="stroke: black; stroke-width:0.25;"/>
<rect x="509.600000" y="97.000000" width="24.000000" height="24.000000" rx="0.1" ry="0.1" style="stroke:none;fill:#aaaaaa;;filter:url(#filter);"/>
<rect x="508.600000" y="96.000000" width="24.000000" height="24.000000" rx="0" ry="0" style="stroke:none;fill:#f44800;"/>
<text x="520.600000" y="110.000000" font-family="Arial" font-size="7" text-anchor="middle" fill="#FFFFFF">1</text>
<circle cx="510.600000" cy="98.000000" r="1"/>
<rect x="549.600000" y="93.000000" width="24.000000" height="24.000000" rx="0.1" ry="0.1" style="stroke:none;fill:#aaaaaa;;filter:url(#filter);"/>
<rect x="548.600000" y="92.000000" width="24.000000" height="24.000000" rx="0" ry="0" style="stroke:none;fill:#4B71A1;"/>
<text x="560.600000" y="106.000000" font-family="Arial" font-size="7" text-anchor="middle" fill="#FFFFFF">+</text>
<circle cx="550.600000" cy="94.000000" r="1"/>
<line x1="545.600000" y1="99.000000" x2="548.600000" y2="100.000000"  transform="rotate(0.000000,548.600000,100.000000)" style="stroke: black; stroke-width:0.25;"/>
<line x1="545.600000" y1="101.000000" x2="548.600000" y2="100.000000"  transform="rotate(0.000000,548.600000,100.000000)" style="stroke: black; stroke-width:0.25;"/>
<line x1="545.600000" y1="107.000000" x2="548.600000" y2="108.000000"  transform="rotate(0.000000,548.600000,108.000000)" style="stroke: black; stroke-width:0.25;"/>
<line x1="545.600000" y1="109.000000" x2="548.600000" y2="108.000000"  transform="rotate(0.000000,548.600000,108.000000)" style="stroke: black; stroke-width:0.25;"/>
<a xlink:href="random-0x191ebb0.svg">
<rect x="365.250000" y="29.000000" width="141.900000" height="24.000000" rx="0.1" ry="0.1" style="stroke:none;fill:#aaaaaa;;filter:url(#filter);"/>
<rect x="364.250000" y="28.000000" width="141.900000" height="24.000000" rx="0" ry="0" style="stroke:none;fill:#003366;"/>
</a>
<a xlink:href="random-0x191ebb0.svg">
<text x="435.200000" y="42.000000" font-family="Arial" font-size="7" text-anchor="middle" fill="#FFFFFF">random((19200..., 0.1):/:int)(7)</text>
</a>
<circle cx="504.150000" cy="50.000000" r="1"/>
<rect x="325.250000" y="33.000000" width="24.000000" height="24.000000" rx="0.1" ry="0.1" style="stroke:none;fill:#aaaaaa;;filter:url(#filter);"/>
<rect x="324.250000" y="32.000000" width="24.000000" height="24.000000" rx="0" ry="0" style="stroke:none;fill:#f44800;"/>
<text x="336.250000" y="46.000000" font-family="Arial" font-size="7" text-anchor="middle" fill="#FFFFFF">1</text>
<circle cx="346.250000" cy="54.000000" r="1"/>
<rect x="285.250000" y="29.000000" width="24.000000" height="24.000000" rx="0.1" ry="0.1" style="stroke:none;fill:#aaaaaa;;filter:url(#filter);"/>
<rect x="284.250000" y="28.000000" width="24.000000" height="24.000000" rx="0" ry="0" style="stroke:none;fill:#4B71A1;"/>
<text x="296.250000" y="42.000000" font-family="Arial" font-size="7" text-anchor="middle" fill="#FFFFFF">max</text>
<circle cx="306.250000" cy="50.000000" r="1"/>
<line x1="311.250000" y1="43.000000" x2="308.250000" y2="44.000000"  transform="rotate(0.000000,308.250000,44.000000)" style="stroke: black; stroke-width:0.25;"/>
<line x1="311.250000" y1="45.000000" x2="308.250000" y2="44.000000"  transform="rotate(0.000000,308.250000,44.000000)" style="stroke: black; stroke-width:0.25;"/>
<line x1="311.250000" y1="35.000000" x2="308.250000" y2="36.000000"  transform="rotate(0.000000,308.250000,36.000000)" style="stroke: black; stroke-width:0.25;"/>
<line x1="311.250000" y1="37.000000" x2="308.250000" y2="36.000000"  transform="rotate(0.000000,308.250000,36.000000)" style="stroke: black; stroke-width:0.25;"/>
<rect x="243.450000" y="33.000000" width="25.800000" height="24.000000" rx="0.1" ry="0.1" style="stroke:none;fill:#aaaaaa;;filter:url(#filter);"/>
<rect x="242.450000" y="32.000000" width="25.800000" height="24.000000" rx="0" ry="0" style="stroke:none;fill:#f44800;"/>
<text x="255.350000" y="46.000000" font-family="Arial" font-size="7" text-anchor="middle" fill="#FFFFFF">192000</text>
<circle cx="266.250000" cy="54.000000" r="1"/>
<rect x="203.450000" y="29.000000" width="24.000000" height="24.000000" rx="0.1" ry="0.1" style="stroke:none;fill:#aaaaaa;;filter:url(#filter);"/>
<rect x="202.450000" y="28.000000" width="24.000000" height="24.000000" rx="0" ry="0" style="stroke:none;fill:#4B71A1;"/>
<text x="214.450000" y="42.000000" font-family="Arial" font-size="7" text-anchor="middle" fill="#FFFFFF">min</text>
<circle cx="224.450000" cy="50.000000" r="1"/>
<line x1="229.450000" y1="43.000000" x2="226.450000" y2="44.000000"  transform="rotate(0.000000,226.450000,44.000000)" style="stroke: black; stroke-width:0.25;"/>
<line x1="229.450000" y1="45.000000" x2="226.450000" y2="44.000000"  transform="rotate(0.000000,226.450000,44.000000)" style="stroke: black; stroke-width:0.25;"/>
<line x1="229.450000" y1="35.000000" x2="226.450000" y2="36.000000"  transform="rotate(0.000000,226.450000,36.000000)" style="stroke: black; stroke-width:0.25;"/>
<line x1="229.450000" y1="37.000000" x2="226.450000" y2="36.000000"  transform="rotate(0.000000,226.450000,36.000000)" style="stroke: black; stroke-width:0.25;"/>
<rect x="171.450000" y="29.000000" width="24.000000" height="24.000000" rx="0.1" ry="0.1" style="stroke:none;fill:#aaaaaa;;filter:url(#filter);"/>
<rect x="170.450000" y="28.000000" width="24.000000" height="24.000000" rx="0" ry="0" style="stroke:none;fill:#4B71A1;"/>
<text x="182.450000" y="42.000000" font-family="Arial" font-size="7" text-anchor="middle" fill="#FFFFFF">int</text>
<circle cx="192.450000" cy="50.000000" r="1"/>
<line x1="197.450000" y1="39.000000" x2="194.450000" y2="40.000000"  transform="rotate(0.000000,194.450000,40.000000)" style="stroke: black; stroke-width:0.25;"/>
<line x1="197.450000" y1="41.000000" x2="194.450000" y2="40.000000"  transform="rotate(0.000000,194.450000,40.000000)" style="stroke: black; stroke-width:0.25;"/>
<rect x="139.450000" y="29.000000" width="24.000000" height="24.000000" rx="0.1" ry="0.1" style="stroke:none;fill:#aaaaaa;;filter:url(#filter);"/>
<rect x="138.450000" y="28.000000" width="24.000000" height="24.000000" rx="0" ry="0" style="stroke:none;fill:#4B71A1;"/>
<text x="150.450000" y="42.000000" font-family="Arial" font-size="7" text-anchor="middle" fill="#FFFFFF">abs</text>
<circle cx="160.450000" cy="50.000000" r="1"/>
<line x1="165.450000" y1="39.000000" x2="162.450000" y2="40.000000"  transform="rotate(0.000000,162.450000,40.000000)" style="stroke: black; stroke-width:0.25;"/>
<line x1="165.450000" y1="41.000000" x2="162.450000" y2="40.000000"  transform="rotate(0.000000,162.450000,40.000000)" style="stroke: black; stroke-width:0.25;"/>
<rect x="99.450000" y="33.000000" width="24.000000" height="24.000000" rx="0.1" ry="0.1" style="stroke:none;fill:#aaaaaa;;filter:url(#filter);"/>
<rect x="98.450000" y="32.000000" width="24.000000" height="24.000000" rx="0" ry="0" style="stroke:none;fill:#4B71A1;"/>
<text x="110.450000" y="46.000000" font-family="Arial" font-size="7" text-anchor="middle" fill="#FFFFFF">@</text>
<circle cx="120.450000" cy="54.000000" r="1"/>
<line x1="125.450000" y1="47.000000" x2="122.450000" y2="48.000000"  transform="rotate(0.000000,122.450000,48.000000)" style="stroke: black; stroke-width:0.25;"/>
<line x1="125.450000" y1="49.000000" x2="122.450000" y2="48.000000"  transform="rotate(0.000000,122.450000,48.000000)" style="stroke: black; stroke-width:0.25;"/>
<line x1="125.450000" y1="39.000000" x2="122.450000" y2="40.000000"  transform="rotate(0.000000,122.450000,40.000000)" style="stroke: black; stroke-width:0.25;"/>
<line x1="125.450000" y1="41.000000" x2="122.450000" y2="40.000000"  transform="rotate(0.000000,122.450000,40.000000)" style="stroke: black; stroke-width:0.25;"/>
<line x1="574.600000" y1="104.000000" x2="574.600000" y2="100.000000"  style="stroke:black; stroke-linecap:round; stroke-width:0.25;"/>
<line x1="574.600000" y1="100.000000" x2="578.600000" y2="100.000000"  style="stroke:black; stroke-linecap:round; stroke-width:0.25;"/>
<line x1="578.600000" y1="100.000000" x2="578.600000" y2="104.000000"  style="stroke:black; stroke-linecap:round; stroke-width:0.25;"/>
<rect x="597.600000" y="73.000000" width="24.000000" height="24.000000" rx="0.1" ry="0.1" style="stroke:none;fill:#aaaaaa;;filter:url(#filter);"/>
<rect x="596.600000" y="72.000000" width="24.000000" height="24.000000" rx="0" ry="0" style="stroke:none;fill:#f44800;"/>
<text x="608.600000" y="86.000000" font-family="Arial" font-size="7" text-anchor="middle" fill="#FFFFFF">1</text>
<circle cx="598.600000" cy="74.000000" r="1"/>
<rect x="637.600000" y="69.000000" width="24.000000" height="24.000000" rx="0.1" ry="0.1" style="stroke:none;fill:#aaaaaa;;filter:url(#filter);"/>
<rect x="636.600000" y="68.000000" width="24.000000" height="24.000000" rx="0" ry="0" style="stroke:none;fill:#4B71A1;"/>
<text x="648.600000" y="82.000000" font-family="Arial" font-size="7" text-anchor="middle" fill="#FFFFFF">-</text>
<circle cx="638.600000" cy="70.000000" r="1"/>
<line x1="633.600000" y1="75.000000" x2="636.600000" y2="76.000000"  transform="rotate(0.000000,636.600000,76.000000)" style="stroke: black; stroke-width:0.25;"/>
<line x1="633.600000" y1="77.000000" x2="636.600000" y2="76.000000"  transform="rotate(0.000000,636.600000,76.000000)" style="stroke: black; stroke-width:0.25;"/>
<line x1="633.600000" y1="83.000000" x2="636.600000" y2="84.000000"  transform="rotate(0.000000,636.600000,84.000000)" style="stroke: black; stroke-width:0.25;"/>
<line x1="633.600000" y1="85.000000" x2="636.600000" y2="84.000000"  transform="rotate(0.000000,636.600000,84.000000)" style="stroke: black; stroke-width:0.25;"/>
<line x1="15.000000" y1="15.000000" x2="15.000000" y2="145.000000"  style="stroke: black; stroke-linecap:round; stroke-width:0.25; stroke-dasharray:3,3;"/>
<line x1="15.000000" y1="145.000000" x2="669.600000" y2="145.000000"  style="stroke: black; stroke-linecap:round; stroke-width:0.25; stroke-dasharray:3,3;"/>
<line x1="669.600000" y1="145.000000" x2="669.600000" y2="15.000000"  style="stroke: black; stroke-linecap:round; stroke-width:0.25; stroke-dasharray:3,3;"/>
<line x1="15.000000" y1="15.000000" x2="20.000000" y2="15.000000"  style="stroke: black; stroke-linecap:round; stroke-width:0.25; stroke-dasharray:3,3;"/>
<line x1="119.975000" y1="15.000000" x2="669.600000" y2="15.000000"  style="stroke: black; stroke-linecap:round; stroke-width:0.25; stroke-dasharray:3,3;"/>
<text x="20.000000" y="17.000000" font-family="Arial" font-size="7">trigger(((_,7...%:_,192000:%)</text>
<line x1="671.600000" y1="79.000000" x2="674.600000" y2="80.000000"  transform="rotate(0.000000,674.600000,80.000000)" style="stroke: black; stroke-width:0.25;"/>
<line x1="671.600000" y1="81.000000" x2="674.600000" y2="80.000000"  transform="rotate(0.000000,674.600000,80.000000)" style="stroke: black; stroke-width:0.25;"/>
<line x1="28.000000" y1="44.000000" x2="28.000000" y2="44.000000"  style="stroke:black; stroke-linecap:round; stroke-width:0.25;"/>
<line x1="28.000000" y1="44.000000" x2="28.000000" y2="72.000000"  style="stroke:black; stroke-linecap:round; stroke-width:0.25;"/>
<line x1="28.000000" y1="72.000000" x2="28.000000" y2="72.000000"  style="stroke:black; stroke-linecap:round; stroke-width:0.25;"/>
<line x1="28.000000" y1="72.000000" x2="242.300000" y2="72.000000"  style="stroke:black; stroke-linecap:round; stroke-width:0.25;"/>
<line x1="94.450000" y1="44.000000" x2="28.000000" y2="44.000000"  style="stroke:black; stroke-linecap:round; stroke-width:0.25;"/>
<line x1="98.450000" y1="44.000000" x2="94.450000" y2="44.000000"  style="stroke:black; stroke-linecap:round; stroke-width:0.25;"/>
<line x1="126.450000" y1="40.000000" x2="122.450000" y2="40.000000"  style="stroke:black; stroke-linecap:round; stroke-width:0.25;"/>
<line x1="126.450000" y1="48.000000" x2="122.450000" y2="48.000000"  style="stroke:black; stroke-linecap:round; stroke-width:0.25;"/>
<line x1="126.450000" y1="48.000000" x2="126.450000" y2="48.000000"  style="stroke:black; stroke-linecap:round; stroke-width:0.25;"/>
<line x1="126.450000" y1="64.000000" x2="126.450000" y2="48.000000"  style="stroke:black; stroke-linecap:round; stroke-width:0.25;"/>
<line x1="134.450000" y1="40.000000" x2="126.450000" y2="40.000000"  style="stroke:black; stroke-linecap:round; stroke-width:0.25;"/>
<line x1="134.450000" y1="64.000000" x2="126.450000" y2="64.000000"  style="stroke:black; stroke-linecap:round; stroke-width:0.25;"/>
<line x1="138.450000" y1="40.000000" x2="134.450000" y2="40.000000"  style="stroke:black; stroke-linecap:round; stroke-width:0.25;"/>
<line x1="166.450000" y1="40.000000" x2="162.450000" y2="40.000000"  style="stroke:black; stroke-linecap:round; stroke-width:0.25;"/>
<line x1="166.450000" y1="40.000000" x2="166.450000" y2="40.000000"  style="stroke:black; stroke-linecap:round; stroke-width:0.25;"/>
<line x1="170.450000" y1="40.000000" x2="166.450000" y2="40.000000"  style="stroke:black; stroke-linecap:round; stroke-width:0.25;"/>
<line x1="180.350000" y1="92.000000" x2="184.350000" y2="92.000000"  style="stroke:black; stroke-linecap:round; stroke-width:0.25;"/>
<line x1="184.350000" y1="92.000000" x2="190.800000" y2="92.000000"  style="stroke:black; stroke-linecap:round; stroke-width:0.25;"/>
<line x1="186.800000" y1="124.000000" x2="190.800000" y2="124.000000"  style="stroke:black; stroke-linecap:round; stroke-width:0.25;"/>
<line x1="190.800000" y1="92.000000" x2="198.800000" y2="92.000000"  style="stroke:black; stroke-linecap:round; stroke-width:0.25;"/>
<line x1="190.800000" y1="112.000000" x2="198.800000" y2="112.000000"  style="stroke:black; stroke-linecap:round; stroke-width:0.25;"/>
<line x1="190.800000" y1="124.000000" x2="190.800000" y2="112.000000"  style="stroke:black; stroke-linecap:round; stroke-width:0.25;"/>
<line x1="190.800000" y1="124.000000" x2="190.800000" y2="124.000000"  style="stroke:black; stroke-linecap:round; stroke-width:0.25;"/>
<line x1="198.450000" y1="40.000000" x2="194.450000" y2="40.000000"  style="stroke:black; stroke-linecap:round; stroke-width:0.25;"/>
<line x1="198.450000" y1="40.000000" x2="198.450000" y2="40.000000"  style="stroke:black; stroke-linecap:round; stroke-width:0.25;"/>
<line x1="198.800000" y1="92.000000" x2="198.800000" y2="104.000000"  style="stroke:black; stroke-linecap:round; stroke-width:0.25;"/>
<line x1="198.800000" y1="104.000000" x2="198.800000" y2="104.000000"  style="stroke:black; stroke-linecap:round; stroke-width:0.25;"/>
<line x1="198.800000" y1="104.000000" x2="202.800000" y2="104.000000"  style="stroke:black; stroke-linecap:round; stroke-width:0.25;"/>
<line x1="198.800000" y1="112.000000" x2="202.800000" y2="112.000000"  style="stroke:black; stroke-linecap:round; stroke-width:0.25;"/>
<line x1="202.450000" y1="40.000000" x2="198.450000" y2="40.000000"  style="stroke:black; stroke-linecap:round; stroke-width:0.25;"/>
<line x1="226.800000" y1="108.000000" x2="230.800000" y2="108.000000"  style="stroke:black; stroke-linecap:round; stroke-width:0.25;"/>
<line x1="230.450000" y1="36.000000" x2="226.450000" y2="36.000000"  style="stroke:black; stroke-linecap:round; stroke-width:0.25;"/>
<line x1="230.450000" y1="44.000000" x2="226.450000" y2="44.000000"  style="stroke:black; stroke-linecap:round; stroke-width:0.25;"/>
<line x1="230.800000" y1="108.000000" x2="238.800000" y2="108.000000"  style="stroke:black; stroke-linecap:round; stroke-width:0.25;"/>
<line x1="238.450000" y1="24.000000" x2="238.450000" y2="24.000000"  style="stroke:black; stroke-linecap:round; stroke-width:0.25;"/>
<line x1="238.450000" y1="24.000000" x2="238.450000" y2="36.000000"  style="stroke:black; stroke-linecap:round; stroke-width:0.25;"/>
<line x1="238.450000" y1="36.000000" x2="230.450000" y2="36.000000"  style="stroke:black; stroke-linecap:round; stroke-width:0.25;"/>
<line x1="238.450000" y1="44.000000" x2="230.450000" y2="44.000000"  style="stroke:black; stroke-linecap:round; stroke-width:0.25;"/>
<line x1="238.800000" y1="108.000000" x2="238.800000" y2="124.000000"  style="stroke:black; stroke-linecap:round; stroke-width:0.25;"/>
<line x1="238.800000" y1="124.000000" x2="238.800000" y2="124.000000"  style="stroke:black; stroke-linecap:round; stroke-width:0.25;"/>
<line x1="238.800000" y1="124.000000" x2="254.800000" y2="124.000000"  style="stroke:black; stroke-linecap:round; stroke-width:0.25;"/>
<line x1="242.300000" y1="72.000000" x2="456.600000" y2="72.000000"  style="stroke:black; stroke-linecap:round; stroke-width:0.25;"/>
<line x1="242.450000" y1="44.000000" x2="238.450000" y2="44.000000"  style="stroke:black; stroke-linecap:round; stroke-width:0.25;"/>
<line x1="254.800000" y1="124.000000" x2="270.800000" y2="124.000000"  style="stroke:black; stroke-linecap:round; stroke-width:0.25;"/>
<line x1="255.350000" y1="24.000000" x2="238.450000" y2="24.000000"  style="stroke:black; stroke-linecap:round; stroke-width:0.25;"/>
<line x1="266.800000" y1="104.000000" x2="270.800000" y2="104.000000"  style="stroke:black; stroke-linecap:round; stroke-width:0.25;"/>
<line x1="270.800000" y1="104.000000" x2="278.800000" y2="104.000000"  style="stroke:black; stroke-linecap:round; stroke-width:0.25;"/>
<line x1="270.800000" y1="112.000000" x2="278.800000" y2="112.000000"  style="stroke:black; stroke-linecap:round; stroke-width:0.25;"/>
<line x1="270.800000" y1="124.000000" x2="270.800000" y2="112.000000"  style="stroke:black; stroke-linecap:round; stroke-width:0.25;"/>
<line x1="270.800000" y1="124.000000" x2="270.800000" y2="124.000000"  style="stroke:black; stroke-linecap:round; stroke-width:0.25;"/>
<line x1="272.250000" y1="24.000000" x2="255.350000" y2="24.000000"  style="stroke:black; stroke-linecap:round; stroke-width:0.25;"/>
<line x1="272.250000" y1="24.000000" x2="272.250000" y2="24.000000"  style="stroke:black; stroke-linecap:round; stroke-width:0.25;"/>
<line x1="272.250000" y1="40.000000" x2="272.250000" y2="24.000000"  style="stroke:black; stroke-linecap:round; stroke-width:0.25;"/>
<line x1="278.800000" y1="104.000000" x2="282.800000" y2="104.000000"  style="stroke:black; stroke-linecap:round; stroke-width:0.25;"/>
<line x1="278.800000" y1="112.000000" x2="282.800000" y2="112.000000"  style="stroke:black; stroke-linecap:round; stroke-width:0.25;"/>
<line x1="280.250000" y1="40.000000" x2="272.250000" y2="40.000000"  style="stroke:black; stroke-linecap:round; stroke-width:0.25;"/>
<line x1="284.250000" y1="40.000000" x2="280.250000" y2="40.000000"  style="stroke:black; stroke-linecap:round; stroke-width:0.25;"/>
<line x1="306.800000" y1="108.000000" x2="310.800000" y2="108.000000"  style="stroke:black; stroke-linecap:round; stroke-width:0.25;"/>
<line x1="310.800000" y1="108.000000" x2="318.800000" y2="108.000000"  style="stroke:black; stroke-linecap:round; stroke-width:0.25;"/>
<line x1="312.250000" y1="36.000000" x2="308.250000" y2="36.000000"  style="stroke:black; stroke-linecap:round; stroke-width:0.25;"/>
<line x1="312.250000" y1="44.000000" x2="308.250000" y2="44.000000"  style="stroke:black; stroke-linecap:round; stroke-width:0.25;"/>
<line x1="318.800000" y1="108.000000" x2="318.800000" y2="124.000000"  style="stroke:black; stroke-linecap:round; stroke-width:0.25;"/>
<line x1="318.800000" y1="124.000000" x2="318.800000" y2="124.000000"  style="stroke:black; stroke-linecap:round; stroke-width:0.25;"/>
<line x1="318.800000" y1="124.000000" x2="335.700000" y2="124.000000"  style="stroke:black; stroke-linecap:round; stroke-width:0.25;"/>
<line x1="320.250000" y1="24.000000" x2="320.250000" y2="24.000000"  style="stroke:black; stroke-linecap:round; stroke-width:0.25;"/>
<line x1="320.250000" y1="24.000000" x2="320.250000" y2="36.000000"  style="stroke:black; stroke-linecap:round; stroke-width:0.25;"/>
<line x1="320.250000" y1="36.000000" x2="312.250000" y2="36.000000"  style="stroke:black; stroke-linecap:round; stroke-width:0.25;"/>
<line x1="320.250000" y1="44.000000" x2="312.250000" y2="44.000000"  style="stroke:black; stroke-linecap:round; stroke-width:0.25;"/>
<line x1="322.300000" y1="64.000000" x2="134.450000" y2="64.000000"  style="stroke:black; stroke-linecap:round; stroke-width:0.25;"/>
<line x1="324.250000" y1="44.000000" x2="320.250000" y2="44.000000"  style="stroke:black; stroke-linecap:round; stroke-width:0.25;"/>
<line x1="335.700000" y1="124.000000" x2="352.600000" y2="124.000000"  style="stroke:black; stroke-linecap:round; stroke-width:0.25;"/>
<line x1="336.250000" y1="24.000000" x2="320.250000" y2="24.000000"  style="stroke:black; stroke-linecap:round; stroke-width:0.25;"/>
<line x1="348.600000" y1="104.000000" x2="352.600000" y2="104.000000"  style="stroke:black; stroke-linecap:round; stroke-width:0.25;"/>
<line x1="352.250000" y1="24.000000" x2="336.250000" y2="24.000000"  style="stroke:black; stroke-linecap:round; stroke-width:0.25;"/>
<line x1="352.250000" y1="24.000000" x2="352.250000" y2="24.000000"  style="stroke:black; stroke-linecap:round; stroke-width:0.25;"/>
<line x1="352.250000" y1="40.000000" x2="352.250000" y2="24.000000"  style="stroke:black; stroke-linecap:round; stroke-width:0.25;"/>
<line x1="352.600000" y1="112.000000" x2="360.600000" y2="112.000000"  style="stroke:black; stroke-linecap:round; stroke-width:0.25;"/>
<line x1="352.600000" y1="124.000000" x2="352.600000" y2="112.000000"  style="stroke:black; stroke-linecap:round; stroke-width:0.25;"/>
<line x1="352.600000" y1="124.000000" x2="352.600000" y2="124.000000"  style="stroke:black; stroke-linecap:round; stroke-width:0.25;"/>
<line x1="352.600000" y1="104.000000" x2="360.600000" y2="104.000000"  style="stroke:black; stroke-linecap:round; stroke-width:0.25;"/>
<line x1="360.250000" y1="40.000000" x2="352.250000" y2="40.000000"  style="stroke:black; stroke-linecap:round; stroke-width:0.25;"/>
<line x1="360.600000" y1="104.000000" x2="364.600000" y2="104.000000"  style="stroke:black; stroke-linecap:round; stroke-width:0.25;"/>
<line x1="360.600000" y1="112.000000" x2="364.600000" y2="112.000000"  style="stroke:black; stroke-linecap:round; stroke-width:0.25;"/>
<line x1="364.250000" y1="40.000000" x2="360.250000" y2="40.000000"  style="stroke:black; stroke-linecap:round; stroke-width:0.25;"/>
<line x1="388.600000" y1="108.000000" x2="392.600000" y2="108.000000"  style="stroke:black; stroke-linecap:round; stroke-width:0.25;"/>
<line x1="392.600000" y1="108.000000" x2="392.600000" y2="108.000000"  style="stroke:black; stroke-linecap:round; stroke-width:0.25;"/>
<line x1="392.600000" y1="108.000000" x2="396.600000" y2="108.000000"  style="stroke:black; stroke-linecap:round; stroke-width:0.25;"/>
<line x1="420.600000" y1="108.000000" x2="424.600000" y2="108.000000"  style="stroke:black; stroke-linecap:round; stroke-width:0.25;"/>
<line x1="424.600000" y1="108.000000" x2="424.600000" y2="108.000000"  style="stroke:black; stroke-linecap:round; stroke-width:0.25;"/>
<line x1="424.600000" y1="108.000000" x2="428.600000" y2="108.000000"  style="stroke:black; stroke-linecap:round; stroke-width:0.25;"/>
<line x1="452.600000" y1="108.000000" x2="456.600000" y2="108.000000"  style="stroke:black; stroke-linecap:round; stroke-width:0.25;"/>
<line x1="456.600000" y1="108.000000" x2="464.600000" y2="108.000000"  style="stroke:black; stroke-linecap:round; stroke-width:0.25;"/>
<line x1="456.600000" y1="72.000000" x2="464.600000" y2="72.000000"  style="stroke:black; stroke-linecap:round; stroke-width:0.25;"/>
<line x1="464.600000" y1="72.000000" x2="464.600000" y2="100.000000"  style="stroke:black; stroke-linecap:round; stroke-width:0.25;"/>
<line x1="464.600000" y1="100.000000" x2="464.600000" y2="100.000000"  style="stroke:black; stroke-linecap:round; stroke-width:0.25;"/>
<line x1="464.600000" y1="100.000000" x2="468.600000" y2="100.000000"  style="stroke:black; stroke-linecap:round; stroke-width:0.25;"/>
<line x1="464.600000" y1="108.000000" x2="468.600000" y2="108.000000"  style="stroke:black; stroke-linecap:round; stroke-width:0.25;"/>
<line x1="492.600000" y1="104.000000" x2="496.600000" y2="104.000000"  style="stroke:black; stroke-linecap:round; stroke-width:0.25;"/>
<line x1="496.600000" y1="88.000000" x2="504.600000" y2="88.000000"  style="stroke:black; stroke-linecap:round; stroke-width:0.25;"/>
<line x1="496.600000" y1="104.000000" x2="496.600000" y2="88.000000"  style="stroke:black; stroke-linecap:round; stroke-width:0.25;"/>
<line x1="496.600000" y1="104.000000" x2="496.600000" y2="104.000000"  style="stroke:black; stroke-linecap:round; stroke-width:0.25;"/>
<line x1="504.600000" y1="88.000000" x2="520.600000" y2="88.000000"  style="stroke:black; stroke-linecap:round; stroke-width:0.25;"/>
<line x1="510.150000" y1="64.000000" x2="322.300000" y2="64.000000"  style="stroke:black; stroke-linecap:round; stroke-width:0.25;"/>
<line x1="520.600000" y1="88.000000" x2="536.600000" y2="88.000000"  style="stroke:black; stroke-linecap:round; stroke-width:0.25;"/>
<line x1="532.600000" y1="108.000000" x2="536.600000" y2="108.000000"  style="stroke:black; stroke-linecap:round; stroke-width:0.25;"/>
<line x1="536.600000" y1="88.000000" x2="544.600000" y2="88.000000"  style="stroke:black; stroke-linecap:round; stroke-width:0.25;"/>
<line x1="536.600000" y1="108.000000" x2="544.600000" y2="108.000000"  style="stroke:black; stroke-linecap:round; stroke-width:0.25;"/>
<line x1="544.600000" y1="88.000000" x2="544.600000" y2="100.000000"  style="stroke:black; stroke-linecap:round; stroke-width:0.25;"/>
<line x1="544.600000" y1="100.000000" x2="544.600000" y2="100.000000"  style="stroke:black; stroke-linecap:round; stroke-width:0.25;"/>
<line x1="544.600000" y1="100.000000" x2="548.600000" y2="100.000000"  style="stroke:black; stroke-linecap:round; stroke-width:0.25;"/>
<line x1="544.600000" y1="108.000000" x2="548.600000" y2="108.000000"  style="stroke:black; stroke-linecap:round; stroke-width:0.25;"/>
<line x1="572.600000" y1="104.000000" x2="576.600000" y2="104.000000"  style="stroke:black; stroke-linecap:round; stroke-width:0.25;"/>
<line x1="576.600000" y1="64.000000" x2="510.150000" y2="64.000000"  style="stroke:black; stroke-linecap:round; stroke-width:0.25;"/>
<line x1="576.600000" y1="64.000000" x2="576.600000" y2="64.000000"  style="stroke:black; stroke-linecap:round; stroke-width:0.25;"/>
<line x1="576.600000" y1="100.000000" x2="576.600000" y2="64.000000"  style="stroke:black; stroke-linecap:round; stroke-width:0.25;"/>
<line x1="576.600000" y1="104.000000" x2="578.600000" y2="104.000000"  style="stroke:black; stroke-linecap:round; stroke-width:0.25;"/>
<line x1="578.600000" y1="104.000000" x2="584.600000" y2="104.000000"  style="stroke:black; stroke-linecap:round; stroke-width:0.25;"/>
<line x1="584.600000" y1="64.000000" x2="592.600000" y2="64.000000"  style="stroke:black; stroke-linecap:round; stroke-width:0.25;"/>
<line x1="584.600000" y1="104.000000" x2="584.600000" y2="64.000000"  style="stroke:black; stroke-linecap:round; stroke-width:0.25;"/>
<line x1="584.600000" y1="104.000000" x2="584.600000" y2="104.000000"  style="stroke:black; stroke-linecap:round; stroke-width:0.25;"/>
<line x1="592.600000" y1="64.000000" x2="608.600000" y2="64.000000"  style="stroke:black; stroke-linecap:round; stroke-width:0.25;"/>
<line x1="608.600000" y1="64.000000" x2="624.600000" y2="64.000000"  style="stroke:black; stroke-linecap:round; stroke-width:0.25;"/>
<line x1="620.600000" y1="84.000000" x2="624.600000" y2="84.000000"  style="stroke:black; stroke-linecap:round; stroke-width:0.25;"/>
<line x1="624.600000" y1="64.000000" x2="632.600000" y2="64.000000"  style="stroke:black; stroke-linecap:round; stroke-width:0.25;"/>
<line x1="624.600000" y1="84.000000" x2="632.600000" y2="84.000000"  style="stroke:black; stroke-linecap:round; stroke-width:0.25;"/>
<line x1="632.600000" y1="64.000000" x2="632.600000" y2="76.000000"  style="stroke:black; stroke-linecap:round; stroke-width:0.25;"/>
<line x1="632.600000" y1="76.000000" x2="632.600000" y2="76.000000"  style="stroke:black; stroke-linecap:round; stroke-width:0.25;"/>
<line x1="632.600000" y1="76.000000" x2="636.600000" y2="76.000000"  style="stroke:black; stroke-linecap:round; stroke-width:0.25;"/>
<line x1="632.600000" y1="84.000000" x2="636.600000" y2="84.000000"  style="stroke:black; stroke-linecap:round; stroke-width:0.25;"/>
<line x1="660.600000" y1="80.000000" x2="664.600000" y2="80.000000"  style="stroke:black; stroke-linecap:round; stroke-width:0.25;"/>
<line x1="664.600000" y1="80.000000" x2="674.600000" y2="80.000000"  style="stroke:black; stroke-linecap:round; stroke-width:0.25;"/>
</svg>
