<?xml version="1.0"?>
<svg xmlns="http://www.w3.org/2000/svg" xmlns:xlink="http://www.w3.org/1999/xlink" viewBox="0 0 430.700000 164.000000" width="215.350000mm" height="82.000000mm" version="1.1">
<defs>
   <filter id="filter" filterRes="18" x="0" y="0">
     <feGaussianBlur in="SourceGraphic" stdDeviation="1.55" result="blur"/>
     <feOffset in="blur" dx="3" dy="3"/>
   </filter>
</defs>
<a xlink:href="Early-0x195d7e0.svg">
<rect x="1.000000" y="1.000000" width="429.700000" height="163.000000" rx="0.1" ry="0.1" style="stroke:none;fill:#aaaaaa;;filter:url(#filter);"/>
<rect x="0.000000" y="0.000000" width="429.700000" height="163.000000" rx="0" ry="0" style="stroke:none;fill:#ffffff;"/>
</a>
<text x="10.000000" y="7.000000" font-family="Arial" font-size="7"></text>
<rect x="68.000000" y="55.000000" width="24.000000" height="24.000000" rx="0.1" ry="0.1" style="stroke:none;fill:#aaaaaa;;filter:url(#filter);"/>
<rect x="67.000000" y="54.000000" width="24.000000" height="24.000000" rx="0" ry="0" style="stroke:none;fill:#4B71A1;"/>
<text x="79.000000" y="68.000000" font-family="Arial" font-size="7" text-anchor="middle" fill="#FFFFFF">-</text>
<circle cx="69.000000" cy="56.000000" r="1"/>
<line x1="64.000000" y1="61.000000" x2="67.000000" y2="62.000000"  transform="rotate(0.000000,67.000000,62.000000)" style="stroke: black; stroke-width:0.25;"/>
<line x1="64.000000" y1="63.000000" x2="67.000000" y2="62.000000"  transform="rotate(0.000000,67.000000,62.000000)" style="stroke: black; stroke-width:0.25;"/>
<line x1="64.000000" y1="69.000000" x2="67.000000" y2="70.000000"  transform="rotate(0.000000,67.000000,70.000000)" style="stroke: black; stroke-width:0.25;"/>
<line x1="64.000000" y1="71.000000" x2="67.000000" y2="70.000000"  transform="rotate(0.000000,67.000000,70.000000)" style="stroke: black; stroke-width:0.25;"/>
<rect x="118.000000" y="43.000000" width="167.700000" height="24.000000" rx="0.1" ry="0.1" style="stroke:none;fill:#aaaaaa;;filter:url(#filter);"/>
<rect x="117.000000" y="42.000000" width="167.700000" height="24.000000" rx="0" ry="0" style="stroke:none;fill:#477881;"/>
<text x="200.850000" y="56.000000" font-family="Arial" font-size="7" text-anchor="middle" fill="#FFFFFF">hslider(Pre-DelTime&apos;s, 0.6, 0, 15, 0.1)</text>
<circle cx="119.000000" cy="44.000000" r="1"/>
<line x1="108.000000" y1="33.000000" x2="108.000000" y2="75.000000"  style="stroke: black; stroke-linecap:round; stroke-width:0.25; stroke-dasharray:3,3;"/>
<line x1="108.000000" y1="75.000000" x2="293.700000" y2="75.000000"  style="stroke: black; stroke-linecap:round; stroke-width:0.25; stroke-dasharray:3,3;"/>
<line x1="293.700000" y1="75.000000" x2="293.700000" y2="33.000000"  style="stroke: black; stroke-linecap:round; stroke-width:0.25; stroke-dasharray:3,3;"/>
<line x1="108.000000" y1="33.000000" x2="113.000000" y2="33.000000"  style="stroke: black; stroke-linecap:round; stroke-width:0.25; stroke-dasharray:3,3;"/>
<line x1="142.025000" y1="33.000000" x2="293.700000" y2="33.000000"  style="stroke: black; stroke-linecap:round; stroke-width:0.25; stroke-dasharray:3,3;"/>
<text x="113.000000" y="35.000000" font-family="Arial" font-size="7">DelTime</text>
<rect x="188.950000" y="85.000000" width="25.800000" height="24.000000" rx="0.1" ry="0.1" style="stroke:none;fill:#aaaaaa;;filter:url(#filter);"/>
<rect x="187.950000" y="84.000000" width="25.800000" height="24.000000" rx="0" ry="0" style="stroke:none;fill:#f44800;"/>
<text x="200.850000" y="98.000000" font-family="Arial" font-size="7" text-anchor="middle" fill="#FFFFFF">2204</text>
<circle cx="189.950000" cy="86.000000" r="1"/>
<rect x="311.700000" y="59.000000" width="24.000000" height="24.000000" rx="0.1" ry="0.1" style="stroke:none;fill:#aaaaaa;;filter:url(#filter);"/>
<rect x="310.700000" y="58.000000" width="24.000000" height="24.000000" rx="0" ry="0" style="stroke:none;fill:#4B71A1;"/>
<text x="322.700000" y="72.000000" font-family="Arial" font-size="7" text-anchor="middle" fill="#FFFFFF">*</text>
<circle cx="312.700000" cy="60.000000" r="1"/>
<line x1="307.700000" y1="65.000000" x2="310.700000" y2="66.000000"  transform="rotate(0.000000,310.700000,66.000000)" style="stroke: black; stroke-width:0.25;"/>
<line x1="307.700000" y1="67.000000" x2="310.700000" y2="66.000000"  transform="rotate(0.000000,310.700000,66.000000)" style="stroke: black; stroke-width:0.25;"/>
<line x1="307.700000" y1="73.000000" x2="310.700000" y2="74.000000"  transform="rotate(0.000000,310.700000,74.000000)" style="stroke: black; stroke-width:0.25;"/>
<line x1="307.700000" y1="75.000000" x2="310.700000" y2="74.000000"  transform="rotate(0.000000,310.700000,74.000000)" style="stroke: black; stroke-width:0.25;"/>
<rect x="343.700000" y="59.000000" width="24.000000" height="24.000000" rx="0.1" ry="0.1" style="stroke:none;fill:#aaaaaa;;filter:url(#filter);"/>
<rect x="342.700000" y="58.000000" width="24.000000" height="24.000000" rx="0" ry="0" style="stroke:none;fill:#4B71A1;"/>
<text x="354.700000" y="72.000000" font-family="Arial" font-size="7" text-anchor="middle" fill="#FFFFFF">int</text>
<circle cx="344.700000" cy="60.000000" r="1"/>
<line x1="339.700000" y1="69.000000" x2="342.700000" y2="70.000000"  transform="rotate(0.000000,342.700000,70.000000)" style="stroke: black; stroke-width:0.25;"/>
<line x1="339.700000" y1="71.000000" x2="342.700000" y2="70.000000"  transform="rotate(0.000000,342.700000,70.000000)" style="stroke: black; stroke-width:0.25;"/>
<rect x="383.700000" y="55.000000" width="24.000000" height="24.000000" rx="0.1" ry="0.1" style="stroke:none;fill:#aaaaaa;;filter:url(#filter);"/>
<rect x="382.700000" y="54.000000" width="24.000000" height="24.000000" rx="0" ry="0" style="stroke:none;fill:#4B71A1;"/>
<text x="394.700000" y="68.000000" font-family="Arial" font-size="7" text-anchor="middle" fill="#FFFFFF">@</text>
<circle cx="384.700000" cy="56.000000" r="1"/>
<line x1="379.700000" y1="61.000000" x2="382.700000" y2="62.000000"  transform="rotate(0.000000,382.700000,62.000000)" style="stroke: black; stroke-width:0.25;"/>
<line x1="379.700000" y1="63.000000" x2="382.700000" y2="62.000000"  transform="rotate(0.000000,382.700000,62.000000)" style="stroke: black; stroke-width:0.25;"/>
<line x1="379.700000" y1="69.000000" x2="382.700000" y2="70.000000"  transform="rotate(0.000000,382.700000,70.000000)" style="stroke: black; stroke-width:0.25;"/>
<line x1="379.700000" y1="71.000000" x2="382.700000" y2="70.000000"  transform="rotate(0.000000,382.700000,70.000000)" style="stroke: black; stroke-width:0.25;"/>
<rect x="225.850000" y="117.000000" width="24.000000" height="24.000000" rx="0.1" ry="0.1" style="stroke:none;fill:#aaaaaa;;filter:url(#filter);"/>
<rect x="224.850000" y="116.000000" width="24.000000" height="24.000000" rx="0" ry="0" style="stroke:none;fill:#4B71A1;"/>
<text x="236.850000" y="130.000000" font-family="Arial" font-size="7" text-anchor="middle" fill="#FFFFFF">+</text>
<circle cx="226.850000" cy="118.000000" r="1"/>
<line x1="221.850000" y1="123.000000" x2="224.850000" y2="124.000000"  transform="rotate(0.000000,224.850000,124.000000)" style="stroke: black; stroke-width:0.25;"/>
<line x1="221.850000" y1="125.000000" x2="224.850000" y2="124.000000"  transform="rotate(0.000000,224.850000,124.000000)" style="stroke: black; stroke-width:0.25;"/>
<line x1="221.850000" y1="131.000000" x2="224.850000" y2="132.000000"  transform="rotate(0.000000,224.850000,132.000000)" style="stroke: black; stroke-width:0.25;"/>
<line x1="221.850000" y1="133.000000" x2="224.850000" y2="132.000000"  transform="rotate(0.000000,224.850000,132.000000)" style="stroke: black; stroke-width:0.25;"/>
<line x1="15.000000" y1="15.000000" x2="15.000000" y2="149.000000"  style="stroke: black; stroke-linecap:round; stroke-width:0.25; stroke-dasharray:3,3;"/>
<line x1="15.000000" y1="149.000000" x2="415.700000" y2="149.000000"  style="stroke: black; stroke-linecap:round; stroke-width:0.25; stroke-dasharray:3,3;"/>
<line x1="415.700000" y1="149.000000" x2="415.700000" y2="15.000000"  style="stroke: black; stroke-linecap:round; stroke-width:0.25; stroke-dasharray:3,3;"/>
<line x1="15.000000" y1="15.000000" x2="20.000000" y2="15.000000"  style="stroke: black; stroke-linecap:round; stroke-width:0.25; stroke-dasharray:3,3;"/>
<line x1="55.475000" y1="15.000000" x2="415.700000" y2="15.000000"  style="stroke: black; stroke-linecap:round; stroke-width:0.25; stroke-dasharray:3,3;"/>
<text x="20.000000" y="17.000000" font-family="Arial" font-size="7">Del(2204)</text>
<line x1="417.700000" y1="65.000000" x2="420.700000" y2="66.000000"  transform="rotate(0.000000,420.700000,66.000000)" style="stroke: black; stroke-width:0.25;"/>
<line x1="417.700000" y1="67.000000" x2="420.700000" y2="66.000000"  transform="rotate(0.000000,420.700000,66.000000)" style="stroke: black; stroke-width:0.25;"/>
<line x1="417.700000" y1="127.000000" x2="420.700000" y2="128.000000"  transform="rotate(0.000000,420.700000,128.000000)" style="stroke: black; stroke-width:0.25;"/>
<line x1="417.700000" y1="129.000000" x2="420.700000" y2="128.000000"  transform="rotate(0.000000,420.700000,128.000000)" style="stroke: black; stroke-width:0.25;"/>
<line x1="10.000000" y1="78.000000" x2="20.000000" y2="78.000000"  style="stroke:black; stroke-linecap:round; stroke-width:0.25;"/>
<line x1="10.000000" y1="86.000000" x2="20.000000" y2="86.000000"  style="stroke:black; stroke-linecap:round; stroke-width:0.25;"/>
<line x1="20.000000" y1="78.000000" x2="24.000000" y2="78.000000"  style="stroke:black; stroke-linecap:round; stroke-width:0.25;"/>
<line x1="20.000000" y1="86.000000" x2="24.000000" y2="86.000000"  style="stroke:black; stroke-linecap:round; stroke-width:0.25;"/>
<line x1="24.000000" y1="78.000000" x2="28.000000" y2="78.000000"  style="stroke:black; stroke-linecap:round; stroke-width:0.25;"/>
<line x1="24.000000" y1="86.000000" x2="28.000000" y2="86.000000"  style="stroke:black; stroke-linecap:round; stroke-width:0.25;"/>
<line x1="28.000000" y1="78.000000" x2="63.000000" y2="62.000000"  style="stroke:black; stroke-linecap:round; stroke-width:0.25;"/>
<line x1="28.000000" y1="78.000000" x2="63.000000" y2="124.000000"  style="stroke:black; stroke-linecap:round; stroke-width:0.25;"/>
<line x1="28.000000" y1="86.000000" x2="63.000000" y2="70.000000"  style="stroke:black; stroke-linecap:round; stroke-width:0.25;"/>
<line x1="28.000000" y1="86.000000" x2="63.000000" y2="132.000000"  style="stroke:black; stroke-linecap:round; stroke-width:0.25;"/>
<line x1="63.000000" y1="62.000000" x2="63.000000" y2="62.000000"  style="stroke:black; stroke-linecap:round; stroke-width:0.25;"/>
<line x1="63.000000" y1="62.000000" x2="67.000000" y2="62.000000"  style="stroke:black; stroke-linecap:round; stroke-width:0.25;"/>
<line x1="63.000000" y1="70.000000" x2="63.000000" y2="70.000000"  style="stroke:black; stroke-linecap:round; stroke-width:0.25;"/>
<line x1="63.000000" y1="70.000000" x2="67.000000" y2="70.000000"  style="stroke:black; stroke-linecap:round; stroke-width:0.25;"/>
<line x1="63.000000" y1="124.000000" x2="220.850000" y2="124.000000"  style="stroke:black; stroke-linecap:round; stroke-width:0.25;"/>
<line x1="63.000000" y1="132.000000" x2="220.850000" y2="132.000000"  style="stroke:black; stroke-linecap:round; stroke-width:0.25;"/>
<line x1="91.000000" y1="66.000000" x2="95.000000" y2="66.000000"  style="stroke:black; stroke-linecap:round; stroke-width:0.25;"/>
<line x1="95.000000" y1="24.000000" x2="103.000000" y2="24.000000"  style="stroke:black; stroke-linecap:round; stroke-width:0.25;"/>
<line x1="95.000000" y1="66.000000" x2="95.000000" y2="24.000000"  style="stroke:black; stroke-linecap:round; stroke-width:0.25;"/>
<line x1="95.000000" y1="66.000000" x2="95.000000" y2="66.000000"  style="stroke:black; stroke-linecap:round; stroke-width:0.25;"/>
<line x1="103.000000" y1="24.000000" x2="236.850000" y2="24.000000"  style="stroke:black; stroke-linecap:round; stroke-width:0.25;"/>
<line x1="213.750000" y1="96.000000" x2="217.750000" y2="96.000000"  style="stroke:black; stroke-linecap:round; stroke-width:0.25;"/>
<line x1="217.750000" y1="96.000000" x2="298.700000" y2="96.000000"  style="stroke:black; stroke-linecap:round; stroke-width:0.25;"/>
<line x1="220.850000" y1="124.000000" x2="220.850000" y2="124.000000"  style="stroke:black; stroke-linecap:round; stroke-width:0.25;"/>
<line x1="220.850000" y1="124.000000" x2="224.850000" y2="124.000000"  style="stroke:black; stroke-linecap:round; stroke-width:0.25;"/>
<line x1="220.850000" y1="132.000000" x2="220.850000" y2="132.000000"  style="stroke:black; stroke-linecap:round; stroke-width:0.25;"/>
<line x1="220.850000" y1="132.000000" x2="224.850000" y2="132.000000"  style="stroke:black; stroke-linecap:round; stroke-width:0.25;"/>
<line x1="236.850000" y1="24.000000" x2="370.700000" y2="24.000000"  style="stroke:black; stroke-linecap:round; stroke-width:0.25;"/>
<line x1="248.850000" y1="128.000000" x2="252.850000" y2="128.000000"  style="stroke:black; stroke-linecap:round; stroke-width:0.25;"/>
<line x1="252.850000" y1="128.000000" x2="410.700000" y2="128.000000"  style="stroke:black; stroke-linecap:round; stroke-width:0.25;"/>
<line x1="284.700000" y1="54.000000" x2="288.700000" y2="54.000000"  style="stroke:black; stroke-linecap:round; stroke-width:0.25;"/>
<line x1="288.700000" y1="54.000000" x2="298.700000" y2="54.000000"  style="stroke:black; stroke-linecap:round; stroke-width:0.25;"/>
<line x1="298.700000" y1="54.000000" x2="306.700000" y2="54.000000"  style="stroke:black; stroke-linecap:round; stroke-width:0.25;"/>
<line x1="298.700000" y1="74.000000" x2="306.700000" y2="74.000000"  style="stroke:black; stroke-linecap:round; stroke-width:0.25;"/>
<line x1="298.700000" y1="96.000000" x2="298.700000" y2="74.000000"  style="stroke:black; stroke-linecap:round; stroke-width:0.25;"/>
<line x1="298.700000" y1="96.000000" x2="298.700000" y2="96.000000"  style="stroke:black; stroke-linecap:round; stroke-width:0.25;"/>
<line x1="306.700000" y1="54.000000" x2="306.700000" y2="66.000000"  style="stroke:black; stroke-linecap:round; stroke-width:0.25;"/>
<line x1="306.700000" y1="66.000000" x2="306.700000" y2="66.000000"  style="stroke:black; stroke-linecap:round; stroke-width:0.25;"/>
<line x1="306.700000" y1="66.000000" x2="310.700000" y2="66.000000"  style="stroke:black; stroke-linecap:round; stroke-width:0.25;"/>
<line x1="306.700000" y1="74.000000" x2="310.700000" y2="74.000000"  style="stroke:black; stroke-linecap:round; stroke-width:0.25;"/>
<line x1="334.700000" y1="70.000000" x2="338.700000" y2="70.000000"  style="stroke:black; stroke-linecap:round; stroke-width:0.25;"/>
<line x1="338.700000" y1="70.000000" x2="338.700000" y2="70.000000"  style="stroke:black; stroke-linecap:round; stroke-width:0.25;"/>
<line x1="338.700000" y1="70.000000" x2="342.700000" y2="70.000000"  style="stroke:black; stroke-linecap:round; stroke-width:0.25;"/>
<line x1="366.700000" y1="70.000000" x2="370.700000" y2="70.000000"  style="stroke:black; stroke-linecap:round; stroke-width:0.25;"/>
<line x1="370.700000" y1="24.000000" x2="378.700000" y2="24.000000"  style="stroke:black; stroke-linecap:round; stroke-width:0.25;"/>
<line x1="370.700000" y1="70.000000" x2="378.700000" y2="70.000000"  style="stroke:black; stroke-linecap:round; stroke-width:0.25;"/>
<line x1="378.700000" y1="24.000000" x2="378.700000" y2="62.000000"  style="stroke:black; stroke-linecap:round; stroke-width:0.25;"/>
<line x1="378.700000" y1="62.000000" x2="378.700000" y2="62.000000"  style="stroke:black; stroke-linecap:round; stroke-width:0.25;"/>
<line x1="378.700000" y1="62.000000" x2="382.700000" y2="62.000000"  style="stroke:black; stroke-linecap:round; stroke-width:0.25;"/>
<line x1="378.700000" y1="70.000000" x2="382.700000" y2="70.000000"  style="stroke:black; stroke-linecap:round; stroke-width:0.25;"/>
<line x1="406.700000" y1="66.000000" x2="410.700000" y2="66.000000"  style="stroke:black; stroke-linecap:round; stroke-width:0.25;"/>
<line x1="410.700000" y1="66.000000" x2="420.700000" y2="66.000000"  style="stroke:black; stroke-linecap:round; stroke-width:0.25;"/>
<line x1="410.700000" y1="128.000000" x2="420.700000" y2="128.000000"  style="stroke:black; stroke-linecap:round; stroke-width:0.25;"/>
</svg>
