<?xml version="1.0"?>
<svg xmlns="http://www.w3.org/2000/svg" xmlns:xlink="http://www.w3.org/1999/xlink" viewBox="0 0 412.600000 248.000000" width="206.300000mm" height="124.000000mm" version="1.1">
<defs>
   <filter id="filter" filterRes="18" x="0" y="0">
     <feGaussianBlur in="SourceGraphic" stdDeviation="1.55" result="blur"/>
     <feOffset in="blur" dx="3" dy="3"/>
   </filter>
</defs>
<a xlink:href="process.svg">
<rect x="1.000000" y="1.000000" width="411.600000" height="247.000000" rx="0.1" ry="0.1" style="stroke:none;fill:#aaaaaa;;filter:url(#filter);"/>
<rect x="0.000000" y="0.000000" width="411.600000" height="247.000000" rx="0" ry="0" style="stroke:none;fill:#ffffff;"/>
</a>
<text x="10.000000" y="7.000000" font-family="Arial" font-size="7"></text>
<a xlink:href="SR-0x23383e0.svg">
<rect x="78.400000" y="137.000000" width="24.000000" height="24.000000" rx="0.1" ry="0.1" style="stroke:none;fill:#aaaaaa;;filter:url(#filter);"/>
<rect x="77.400000" y="136.000000" width="24.000000" height="24.000000" rx="0" ry="0" style="stroke:none;fill:#003366;"/>
</a>
<a xlink:href="SR-0x23383e0.svg">
<text x="89.400000" y="150.000000" font-family="Arial" font-size="7" text-anchor="middle" fill="#FFFFFF">SR</text>
</a>
<circle cx="79.400000" cy="138.000000" r="1"/>
<rect x="77.500000" y="169.000000" width="25.800000" height="24.000000" rx="0.1" ry="0.1" style="stroke:none;fill:#aaaaaa;;filter:url(#filter);"/>
<rect x="76.500000" y="168.000000" width="25.800000" height="24.000000" rx="0" ry="0" style="stroke:none;fill:#f44800;"/>
<text x="89.400000" y="182.000000" font-family="Arial" font-size="7" text-anchor="middle" fill="#FFFFFF">1000</text>
<circle cx="78.500000" cy="170.000000" r="1"/>
<rect x="119.300000" y="153.000000" width="24.000000" height="24.000000" rx="0.1" ry="0.1" style="stroke:none;fill:#aaaaaa;;filter:url(#filter);"/>
<rect x="118.300000" y="152.000000" width="24.000000" height="24.000000" rx="0" ry="0" style="stroke:none;fill:#4B71A1;"/>
<text x="130.300000" y="166.000000" font-family="Arial" font-size="7" text-anchor="middle" fill="#FFFFFF">/</text>
<circle cx="120.300000" cy="154.000000" r="1"/>
<line x1="115.300000" y1="159.000000" x2="118.300000" y2="160.000000"  transform="rotate(0.000000,118.300000,160.000000)" style="stroke: black; stroke-width:0.25;"/>
<line x1="115.300000" y1="161.000000" x2="118.300000" y2="160.000000"  transform="rotate(0.000000,118.300000,160.000000)" style="stroke: black; stroke-width:0.25;"/>
<line x1="115.300000" y1="167.000000" x2="118.300000" y2="168.000000"  transform="rotate(0.000000,118.300000,168.000000)" style="stroke: black; stroke-width:0.25;"/>
<line x1="115.300000" y1="169.000000" x2="118.300000" y2="168.000000"  transform="rotate(0.000000,118.300000,168.000000)" style="stroke: black; stroke-width:0.25;"/>
<rect x="33.000000" y="201.000000" width="154.800000" height="24.000000" rx="0.1" ry="0.1" style="stroke:none;fill:#aaaaaa;;filter:url(#filter);"/>
<rect x="32.000000" y="200.000000" width="154.800000" height="24.000000" rx="0" ry="0" style="stroke:none;fill:#477881;"/>
<text x="109.400000" y="214.000000" font-family="Arial" font-size="7" text-anchor="middle" fill="#FFFFFF">hslider(time off, 1, 0, 1000, 0.1)</text>
<circle cx="34.000000" cy="202.000000" r="1"/>
<rect x="203.800000" y="169.000000" width="24.000000" height="24.000000" rx="0.1" ry="0.1" style="stroke:none;fill:#aaaaaa;;filter:url(#filter);"/>
<rect x="202.800000" y="168.000000" width="24.000000" height="24.000000" rx="0" ry="0" style="stroke:none;fill:#4B71A1;"/>
<text x="214.800000" y="182.000000" font-family="Arial" font-size="7" text-anchor="middle" fill="#FFFFFF">*</text>
<circle cx="204.800000" cy="170.000000" r="1"/>
<line x1="199.800000" y1="175.000000" x2="202.800000" y2="176.000000"  transform="rotate(0.000000,202.800000,176.000000)" style="stroke: black; stroke-width:0.25;"/>
<line x1="199.800000" y1="177.000000" x2="202.800000" y2="176.000000"  transform="rotate(0.000000,202.800000,176.000000)" style="stroke: black; stroke-width:0.25;"/>
<line x1="199.800000" y1="183.000000" x2="202.800000" y2="184.000000"  transform="rotate(0.000000,202.800000,184.000000)" style="stroke: black; stroke-width:0.25;"/>
<line x1="199.800000" y1="185.000000" x2="202.800000" y2="184.000000"  transform="rotate(0.000000,202.800000,184.000000)" style="stroke: black; stroke-width:0.25;"/>
<a xlink:href="safer-0x233b960.svg">
<rect x="235.800000" y="169.000000" width="25.800000" height="24.000000" rx="0.1" ry="0.1" style="stroke:none;fill:#aaaaaa;;filter:url(#filter);"/>
<rect x="234.800000" y="168.000000" width="25.800000" height="24.000000" rx="0" ry="0" style="stroke:none;fill:#003366;"/>
</a>
<a xlink:href="safer-0x233b960.svg">
<text x="247.700000" y="182.000000" font-family="Arial" font-size="7" text-anchor="middle" fill="#FFFFFF">safer</text>
</a>
<circle cx="236.800000" cy="170.000000" r="1"/>
<line x1="231.800000" y1="179.000000" x2="234.800000" y2="180.000000"  transform="rotate(0.000000,234.800000,180.000000)" style="stroke: black; stroke-width:0.25;"/>
<line x1="231.800000" y1="181.000000" x2="234.800000" y2="180.000000"  transform="rotate(0.000000,234.800000,180.000000)" style="stroke: black; stroke-width:0.25;"/>
<rect x="277.600000" y="165.000000" width="24.000000" height="24.000000" rx="0.1" ry="0.1" style="stroke:none;fill:#aaaaaa;;filter:url(#filter);"/>
<rect x="276.600000" y="164.000000" width="24.000000" height="24.000000" rx="0" ry="0" style="stroke:none;fill:#4B71A1;"/>
<text x="288.600000" y="178.000000" font-family="Arial" font-size="7" text-anchor="middle" fill="#FFFFFF">@</text>
<circle cx="278.600000" cy="166.000000" r="1"/>
<line x1="273.600000" y1="171.000000" x2="276.600000" y2="172.000000"  transform="rotate(0.000000,276.600000,172.000000)" style="stroke: black; stroke-width:0.25;"/>
<line x1="273.600000" y1="173.000000" x2="276.600000" y2="172.000000"  transform="rotate(0.000000,276.600000,172.000000)" style="stroke: black; stroke-width:0.25;"/>
<line x1="273.600000" y1="179.000000" x2="276.600000" y2="180.000000"  transform="rotate(0.000000,276.600000,180.000000)" style="stroke: black; stroke-width:0.25;"/>
<line x1="273.600000" y1="181.000000" x2="276.600000" y2="180.000000"  transform="rotate(0.000000,276.600000,180.000000)" style="stroke: black; stroke-width:0.25;"/>
<rect x="317.600000" y="169.000000" width="24.000000" height="24.000000" rx="0.1" ry="0.1" style="stroke:none;fill:#aaaaaa;;filter:url(#filter);"/>
<rect x="316.600000" y="168.000000" width="24.000000" height="24.000000" rx="0" ry="0" style="stroke:none;fill:#f44800;"/>
<text x="328.600000" y="182.000000" font-family="Arial" font-size="7" text-anchor="middle" fill="#FFFFFF">1</text>
<circle cx="318.600000" cy="170.000000" r="1"/>
<rect x="357.600000" y="165.000000" width="24.000000" height="24.000000" rx="0.1" ry="0.1" style="stroke:none;fill:#aaaaaa;;filter:url(#filter);"/>
<rect x="356.600000" y="164.000000" width="24.000000" height="24.000000" rx="0" ry="0" style="stroke:none;fill:#4B71A1;"/>
<text x="368.600000" y="178.000000" font-family="Arial" font-size="7" text-anchor="middle" fill="#FFFFFF">+</text>
<circle cx="358.600000" cy="166.000000" r="1"/>
<line x1="353.600000" y1="171.000000" x2="356.600000" y2="172.000000"  transform="rotate(0.000000,356.600000,172.000000)" style="stroke: black; stroke-width:0.25;"/>
<line x1="353.600000" y1="173.000000" x2="356.600000" y2="172.000000"  transform="rotate(0.000000,356.600000,172.000000)" style="stroke: black; stroke-width:0.25;"/>
<line x1="353.600000" y1="179.000000" x2="356.600000" y2="180.000000"  transform="rotate(0.000000,356.600000,180.000000)" style="stroke: black; stroke-width:0.25;"/>
<line x1="353.600000" y1="181.000000" x2="356.600000" y2="180.000000"  transform="rotate(0.000000,356.600000,180.000000)" style="stroke: black; stroke-width:0.25;"/>
<a xlink:href="SR-0x23383e0.svg">
<rect x="312.200000" y="89.000000" width="24.000000" height="24.000000" rx="0.1" ry="0.1" style="stroke:none;fill:#aaaaaa;;filter:url(#filter);"/>
<rect x="311.200000" y="88.000000" width="24.000000" height="24.000000" rx="0" ry="0" style="stroke:none;fill:#003366;"/>
</a>
<a xlink:href="SR-0x23383e0.svg">
<text x="323.200000" y="102.000000" font-family="Arial" font-size="7" text-anchor="middle" fill="#FFFFFF">SR</text>
</a>
<circle cx="333.200000" cy="110.000000" r="1"/>
<rect x="311.300000" y="57.000000" width="25.800000" height="24.000000" rx="0.1" ry="0.1" style="stroke:none;fill:#aaaaaa;;filter:url(#filter);"/>
<rect x="310.300000" y="56.000000" width="25.800000" height="24.000000" rx="0" ry="0" style="stroke:none;fill:#f44800;"/>
<text x="323.200000" y="70.000000" font-family="Arial" font-size="7" text-anchor="middle" fill="#FFFFFF">1000</text>
<circle cx="334.100000" cy="78.000000" r="1"/>
<rect x="271.300000" y="73.000000" width="24.000000" height="24.000000" rx="0.1" ry="0.1" style="stroke:none;fill:#aaaaaa;;filter:url(#filter);"/>
<rect x="270.300000" y="72.000000" width="24.000000" height="24.000000" rx="0" ry="0" style="stroke:none;fill:#4B71A1;"/>
<text x="282.300000" y="86.000000" font-family="Arial" font-size="7" text-anchor="middle" fill="#FFFFFF">/</text>
<circle cx="292.300000" cy="94.000000" r="1"/>
<line x1="297.300000" y1="87.000000" x2="294.300000" y2="88.000000"  transform="rotate(0.000000,294.300000,88.000000)" style="stroke: black; stroke-width:0.25;"/>
<line x1="297.300000" y1="89.000000" x2="294.300000" y2="88.000000"  transform="rotate(0.000000,294.300000,88.000000)" style="stroke: black; stroke-width:0.25;"/>
<line x1="297.300000" y1="79.000000" x2="294.300000" y2="80.000000"  transform="rotate(0.000000,294.300000,80.000000)" style="stroke: black; stroke-width:0.25;"/>
<line x1="297.300000" y1="81.000000" x2="294.300000" y2="80.000000"  transform="rotate(0.000000,294.300000,80.000000)" style="stroke: black; stroke-width:0.25;"/>
<rect x="233.250000" y="25.000000" width="141.900000" height="24.000000" rx="0.1" ry="0.1" style="stroke:none;fill:#aaaaaa;;filter:url(#filter);"/>
<rect x="232.250000" y="24.000000" width="141.900000" height="24.000000" rx="0" ry="0" style="stroke:none;fill:#477881;"/>
<text x="303.200000" y="38.000000" font-family="Arial" font-size="7" text-anchor="middle" fill="#FFFFFF">hslider(time on, 0, 0, 1000, 0.1)</text>
<circle cx="372.150000" cy="46.000000" r="1"/>
<rect x="193.250000" y="57.000000" width="24.000000" height="24.000000" rx="0.1" ry="0.1" style="stroke:none;fill:#aaaaaa;;filter:url(#filter);"/>
<rect x="192.250000" y="56.000000" width="24.000000" height="24.000000" rx="0" ry="0" style="stroke:none;fill:#4B71A1;"/>
<text x="204.250000" y="70.000000" font-family="Arial" font-size="7" text-anchor="middle" fill="#FFFFFF">*</text>
<circle cx="214.250000" cy="78.000000" r="1"/>
<line x1="219.250000" y1="71.000000" x2="216.250000" y2="72.000000"  transform="rotate(0.000000,216.250000,72.000000)" style="stroke: black; stroke-width:0.25;"/>
<line x1="219.250000" y1="73.000000" x2="216.250000" y2="72.000000"  transform="rotate(0.000000,216.250000,72.000000)" style="stroke: black; stroke-width:0.25;"/>
<line x1="219.250000" y1="63.000000" x2="216.250000" y2="64.000000"  transform="rotate(0.000000,216.250000,64.000000)" style="stroke: black; stroke-width:0.25;"/>
<line x1="219.250000" y1="65.000000" x2="216.250000" y2="64.000000"  transform="rotate(0.000000,216.250000,64.000000)" style="stroke: black; stroke-width:0.25;"/>
<a xlink:href="safer-0x233b960.svg">
<rect x="159.450000" y="57.000000" width="25.800000" height="24.000000" rx="0.1" ry="0.1" style="stroke:none;fill:#aaaaaa;;filter:url(#filter);"/>
<rect x="158.450000" y="56.000000" width="25.800000" height="24.000000" rx="0" ry="0" style="stroke:none;fill:#003366;"/>
</a>
<a xlink:href="safer-0x233b960.svg">
<text x="171.350000" y="70.000000" font-family="Arial" font-size="7" text-anchor="middle" fill="#FFFFFF">safer</text>
</a>
<circle cx="182.250000" cy="78.000000" r="1"/>
<line x1="187.250000" y1="67.000000" x2="184.250000" y2="68.000000"  transform="rotate(0.000000,184.250000,68.000000)" style="stroke: black; stroke-width:0.25;"/>
<line x1="187.250000" y1="69.000000" x2="184.250000" y2="68.000000"  transform="rotate(0.000000,184.250000,68.000000)" style="stroke: black; stroke-width:0.25;"/>
<rect x="119.450000" y="61.000000" width="24.000000" height="24.000000" rx="0.1" ry="0.1" style="stroke:none;fill:#aaaaaa;;filter:url(#filter);"/>
<rect x="118.450000" y="60.000000" width="24.000000" height="24.000000" rx="0" ry="0" style="stroke:none;fill:#4B71A1;"/>
<text x="130.450000" y="74.000000" font-family="Arial" font-size="7" text-anchor="middle" fill="#FFFFFF">@</text>
<circle cx="140.450000" cy="82.000000" r="1"/>
<line x1="145.450000" y1="75.000000" x2="142.450000" y2="76.000000"  transform="rotate(0.000000,142.450000,76.000000)" style="stroke: black; stroke-width:0.25;"/>
<line x1="145.450000" y1="77.000000" x2="142.450000" y2="76.000000"  transform="rotate(0.000000,142.450000,76.000000)" style="stroke: black; stroke-width:0.25;"/>
<line x1="145.450000" y1="67.000000" x2="142.450000" y2="68.000000"  transform="rotate(0.000000,142.450000,68.000000)" style="stroke: black; stroke-width:0.25;"/>
<line x1="145.450000" y1="69.000000" x2="142.450000" y2="68.000000"  transform="rotate(0.000000,142.450000,68.000000)" style="stroke: black; stroke-width:0.25;"/>
<rect x="79.450000" y="57.000000" width="24.000000" height="24.000000" rx="0.1" ry="0.1" style="stroke:none;fill:#aaaaaa;;filter:url(#filter);"/>
<rect x="78.450000" y="56.000000" width="24.000000" height="24.000000" rx="0" ry="0" style="stroke:none;fill:#f44800;"/>
<text x="90.450000" y="70.000000" font-family="Arial" font-size="7" text-anchor="middle" fill="#FFFFFF">1</text>
<circle cx="100.450000" cy="78.000000" r="1"/>
<rect x="39.450000" y="61.000000" width="24.000000" height="24.000000" rx="0.1" ry="0.1" style="stroke:none;fill:#aaaaaa;;filter:url(#filter);"/>
<rect x="38.450000" y="60.000000" width="24.000000" height="24.000000" rx="0" ry="0" style="stroke:none;fill:#4B71A1;"/>
<text x="50.450000" y="74.000000" font-family="Arial" font-size="7" text-anchor="middle" fill="#FFFFFF">-</text>
<circle cx="60.450000" cy="82.000000" r="1"/>
<line x1="65.450000" y1="75.000000" x2="62.450000" y2="76.000000"  transform="rotate(0.000000,62.450000,76.000000)" style="stroke: black; stroke-width:0.25;"/>
<line x1="65.450000" y1="77.000000" x2="62.450000" y2="76.000000"  transform="rotate(0.000000,62.450000,76.000000)" style="stroke: black; stroke-width:0.25;"/>
<line x1="65.450000" y1="67.000000" x2="62.450000" y2="68.000000"  transform="rotate(0.000000,62.450000,68.000000)" style="stroke: black; stroke-width:0.25;"/>
<line x1="65.450000" y1="69.000000" x2="62.450000" y2="68.000000"  transform="rotate(0.000000,62.450000,68.000000)" style="stroke: black; stroke-width:0.25;"/>
<line x1="382.600000" y1="176.000000" x2="382.600000" y2="172.000000"  style="stroke:black; stroke-linecap:round; stroke-width:0.25;"/>
<line x1="382.600000" y1="172.000000" x2="386.600000" y2="172.000000"  style="stroke:black; stroke-linecap:round; stroke-width:0.25;"/>
<line x1="386.600000" y1="172.000000" x2="386.600000" y2="176.000000"  style="stroke:black; stroke-linecap:round; stroke-width:0.25;"/>
<line x1="15.000000" y1="15.000000" x2="15.000000" y2="233.000000"  style="stroke: black; stroke-linecap:round; stroke-width:0.25; stroke-dasharray:3,3;"/>
<line x1="15.000000" y1="233.000000" x2="397.600000" y2="233.000000"  style="stroke: black; stroke-linecap:round; stroke-width:0.25; stroke-dasharray:3,3;"/>
<line x1="397.600000" y1="233.000000" x2="397.600000" y2="15.000000"  style="stroke: black; stroke-linecap:round; stroke-width:0.25; stroke-dasharray:3,3;"/>
<line x1="15.000000" y1="15.000000" x2="20.000000" y2="15.000000"  style="stroke: black; stroke-linecap:round; stroke-width:0.25; stroke-dasharray:3,3;"/>
<line x1="119.975000" y1="15.000000" x2="397.600000" y2="15.000000"  style="stroke: black; stroke-linecap:round; stroke-width:0.25; stroke-dasharray:3,3;"/>
<text x="20.000000" y="17.000000" font-family="Arial" font-size="7">trigger((1920...:min),1000:/)</text>
<line x1="399.600000" y1="175.000000" x2="402.600000" y2="176.000000"  transform="rotate(0.000000,402.600000,176.000000)" style="stroke: black; stroke-width:0.25;"/>
<line x1="399.600000" y1="177.000000" x2="402.600000" y2="176.000000"  transform="rotate(0.000000,402.600000,176.000000)" style="stroke: black; stroke-width:0.25;"/>
<line x1="28.000000" y1="72.000000" x2="28.000000" y2="72.000000"  style="stroke:black; stroke-linecap:round; stroke-width:0.25;"/>
<line x1="28.000000" y1="72.000000" x2="28.000000" y2="128.000000"  style="stroke:black; stroke-linecap:round; stroke-width:0.25;"/>
<line x1="28.000000" y1="128.000000" x2="28.000000" y2="128.000000"  style="stroke:black; stroke-linecap:round; stroke-width:0.25;"/>
<line x1="28.000000" y1="128.000000" x2="146.300000" y2="128.000000"  style="stroke:black; stroke-linecap:round; stroke-width:0.25;"/>
<line x1="34.450000" y1="72.000000" x2="28.000000" y2="72.000000"  style="stroke:black; stroke-linecap:round; stroke-width:0.25;"/>
<line x1="38.450000" y1="72.000000" x2="34.450000" y2="72.000000"  style="stroke:black; stroke-linecap:round; stroke-width:0.25;"/>
<line x1="66.450000" y1="68.000000" x2="62.450000" y2="68.000000"  style="stroke:black; stroke-linecap:round; stroke-width:0.25;"/>
<line x1="66.450000" y1="76.000000" x2="62.450000" y2="76.000000"  style="stroke:black; stroke-linecap:round; stroke-width:0.25;"/>
<line x1="66.450000" y1="76.000000" x2="66.450000" y2="76.000000"  style="stroke:black; stroke-linecap:round; stroke-width:0.25;"/>
<line x1="66.450000" y1="88.000000" x2="66.450000" y2="76.000000"  style="stroke:black; stroke-linecap:round; stroke-width:0.25;"/>
<line x1="74.450000" y1="68.000000" x2="66.450000" y2="68.000000"  style="stroke:black; stroke-linecap:round; stroke-width:0.25;"/>
<line x1="74.450000" y1="88.000000" x2="66.450000" y2="88.000000"  style="stroke:black; stroke-linecap:round; stroke-width:0.25;"/>
<line x1="78.450000" y1="68.000000" x2="74.450000" y2="68.000000"  style="stroke:black; stroke-linecap:round; stroke-width:0.25;"/>
<line x1="90.450000" y1="88.000000" x2="74.450000" y2="88.000000"  style="stroke:black; stroke-linecap:round; stroke-width:0.25;"/>
<line x1="101.400000" y1="148.000000" x2="105.400000" y2="148.000000"  style="stroke:black; stroke-linecap:round; stroke-width:0.25;"/>
<line x1="102.300000" y1="180.000000" x2="106.300000" y2="180.000000"  style="stroke:black; stroke-linecap:round; stroke-width:0.25;"/>
<line x1="105.400000" y1="148.000000" x2="106.300000" y2="148.000000"  style="stroke:black; stroke-linecap:round; stroke-width:0.25;"/>
<line x1="106.300000" y1="168.000000" x2="114.300000" y2="168.000000"  style="stroke:black; stroke-linecap:round; stroke-width:0.25;"/>
<line x1="106.300000" y1="180.000000" x2="106.300000" y2="168.000000"  style="stroke:black; stroke-linecap:round; stroke-width:0.25;"/>
<line x1="106.300000" y1="180.000000" x2="106.300000" y2="180.000000"  style="stroke:black; stroke-linecap:round; stroke-width:0.25;"/>
<line x1="106.300000" y1="148.000000" x2="114.300000" y2="148.000000"  style="stroke:black; stroke-linecap:round; stroke-width:0.25;"/>
<line x1="106.450000" y1="88.000000" x2="90.450000" y2="88.000000"  style="stroke:black; stroke-linecap:round; stroke-width:0.25;"/>
<line x1="114.300000" y1="160.000000" x2="118.300000" y2="160.000000"  style="stroke:black; stroke-linecap:round; stroke-width:0.25;"/>
<line x1="114.300000" y1="168.000000" x2="118.300000" y2="168.000000"  style="stroke:black; stroke-linecap:round; stroke-width:0.25;"/>
<line x1="114.300000" y1="148.000000" x2="114.300000" y2="160.000000"  style="stroke:black; stroke-linecap:round; stroke-width:0.25;"/>
<line x1="114.300000" y1="160.000000" x2="114.300000" y2="160.000000"  style="stroke:black; stroke-linecap:round; stroke-width:0.25;"/>
<line x1="114.450000" y1="72.000000" x2="114.450000" y2="72.000000"  style="stroke:black; stroke-linecap:round; stroke-width:0.25;"/>
<line x1="114.450000" y1="72.000000" x2="114.450000" y2="88.000000"  style="stroke:black; stroke-linecap:round; stroke-width:0.25;"/>
<line x1="114.450000" y1="88.000000" x2="106.450000" y2="88.000000"  style="stroke:black; stroke-linecap:round; stroke-width:0.25;"/>
<line x1="118.450000" y1="72.000000" x2="114.450000" y2="72.000000"  style="stroke:black; stroke-linecap:round; stroke-width:0.25;"/>
<line x1="142.300000" y1="164.000000" x2="146.300000" y2="164.000000"  style="stroke:black; stroke-linecap:round; stroke-width:0.25;"/>
<line x1="146.300000" y1="128.000000" x2="264.600000" y2="128.000000"  style="stroke:black; stroke-linecap:round; stroke-width:0.25;"/>
<line x1="146.300000" y1="164.000000" x2="190.800000" y2="164.000000"  style="stroke:black; stroke-linecap:round; stroke-width:0.25;"/>
<line x1="146.450000" y1="76.000000" x2="146.450000" y2="76.000000"  style="stroke:black; stroke-linecap:round; stroke-width:0.25;"/>
<line x1="146.450000" y1="120.000000" x2="146.450000" y2="76.000000"  style="stroke:black; stroke-linecap:round; stroke-width:0.25;"/>
<line x1="146.450000" y1="68.000000" x2="142.450000" y2="68.000000"  style="stroke:black; stroke-linecap:round; stroke-width:0.25;"/>
<line x1="146.450000" y1="76.000000" x2="142.450000" y2="76.000000"  style="stroke:black; stroke-linecap:round; stroke-width:0.25;"/>
<line x1="154.450000" y1="120.000000" x2="146.450000" y2="120.000000"  style="stroke:black; stroke-linecap:round; stroke-width:0.25;"/>
<line x1="154.450000" y1="68.000000" x2="146.450000" y2="68.000000"  style="stroke:black; stroke-linecap:round; stroke-width:0.25;"/>
<line x1="158.450000" y1="68.000000" x2="154.450000" y2="68.000000"  style="stroke:black; stroke-linecap:round; stroke-width:0.25;"/>
<line x1="186.800000" y1="212.000000" x2="190.800000" y2="212.000000"  style="stroke:black; stroke-linecap:round; stroke-width:0.25;"/>
<line x1="188.250000" y1="68.000000" x2="184.250000" y2="68.000000"  style="stroke:black; stroke-linecap:round; stroke-width:0.25;"/>
<line x1="188.250000" y1="68.000000" x2="188.250000" y2="68.000000"  style="stroke:black; stroke-linecap:round; stroke-width:0.25;"/>
<line x1="190.800000" y1="184.000000" x2="198.800000" y2="184.000000"  style="stroke:black; stroke-linecap:round; stroke-width:0.25;"/>
<line x1="190.800000" y1="212.000000" x2="190.800000" y2="184.000000"  style="stroke:black; stroke-linecap:round; stroke-width:0.25;"/>
<line x1="190.800000" y1="212.000000" x2="190.800000" y2="212.000000"  style="stroke:black; stroke-linecap:round; stroke-width:0.25;"/>
<line x1="190.800000" y1="164.000000" x2="198.800000" y2="164.000000"  style="stroke:black; stroke-linecap:round; stroke-width:0.25;"/>
<line x1="192.250000" y1="68.000000" x2="188.250000" y2="68.000000"  style="stroke:black; stroke-linecap:round; stroke-width:0.25;"/>
<line x1="198.800000" y1="176.000000" x2="202.800000" y2="176.000000"  style="stroke:black; stroke-linecap:round; stroke-width:0.25;"/>
<line x1="198.800000" y1="184.000000" x2="202.800000" y2="184.000000"  style="stroke:black; stroke-linecap:round; stroke-width:0.25;"/>
<line x1="198.800000" y1="164.000000" x2="198.800000" y2="176.000000"  style="stroke:black; stroke-linecap:round; stroke-width:0.25;"/>
<line x1="198.800000" y1="176.000000" x2="198.800000" y2="176.000000"  style="stroke:black; stroke-linecap:round; stroke-width:0.25;"/>
<line x1="220.250000" y1="64.000000" x2="216.250000" y2="64.000000"  style="stroke:black; stroke-linecap:round; stroke-width:0.25;"/>
<line x1="220.250000" y1="72.000000" x2="216.250000" y2="72.000000"  style="stroke:black; stroke-linecap:round; stroke-width:0.25;"/>
<line x1="220.250000" y1="72.000000" x2="220.250000" y2="72.000000"  style="stroke:black; stroke-linecap:round; stroke-width:0.25;"/>
<line x1="220.250000" y1="84.000000" x2="220.250000" y2="72.000000"  style="stroke:black; stroke-linecap:round; stroke-width:0.25;"/>
<line x1="226.800000" y1="180.000000" x2="230.800000" y2="180.000000"  style="stroke:black; stroke-linecap:round; stroke-width:0.25;"/>
<line x1="228.250000" y1="36.000000" x2="228.250000" y2="36.000000"  style="stroke:black; stroke-linecap:round; stroke-width:0.25;"/>
<line x1="228.250000" y1="36.000000" x2="228.250000" y2="64.000000"  style="stroke:black; stroke-linecap:round; stroke-width:0.25;"/>
<line x1="228.250000" y1="64.000000" x2="220.250000" y2="64.000000"  style="stroke:black; stroke-linecap:round; stroke-width:0.25;"/>
<line x1="228.250000" y1="84.000000" x2="220.250000" y2="84.000000"  style="stroke:black; stroke-linecap:round; stroke-width:0.25;"/>
<line x1="230.800000" y1="180.000000" x2="230.800000" y2="180.000000"  style="stroke:black; stroke-linecap:round; stroke-width:0.25;"/>
<line x1="230.800000" y1="180.000000" x2="234.800000" y2="180.000000"  style="stroke:black; stroke-linecap:round; stroke-width:0.25;"/>
<line x1="232.250000" y1="36.000000" x2="228.250000" y2="36.000000"  style="stroke:black; stroke-linecap:round; stroke-width:0.25;"/>
<line x1="260.600000" y1="180.000000" x2="264.600000" y2="180.000000"  style="stroke:black; stroke-linecap:round; stroke-width:0.25;"/>
<line x1="264.600000" y1="128.000000" x2="272.600000" y2="128.000000"  style="stroke:black; stroke-linecap:round; stroke-width:0.25;"/>
<line x1="264.600000" y1="180.000000" x2="272.600000" y2="180.000000"  style="stroke:black; stroke-linecap:round; stroke-width:0.25;"/>
<line x1="266.300000" y1="120.000000" x2="154.450000" y2="120.000000"  style="stroke:black; stroke-linecap:round; stroke-width:0.25;"/>
<line x1="266.300000" y1="84.000000" x2="228.250000" y2="84.000000"  style="stroke:black; stroke-linecap:round; stroke-width:0.25;"/>
<line x1="270.300000" y1="84.000000" x2="266.300000" y2="84.000000"  style="stroke:black; stroke-linecap:round; stroke-width:0.25;"/>
<line x1="272.600000" y1="128.000000" x2="272.600000" y2="172.000000"  style="stroke:black; stroke-linecap:round; stroke-width:0.25;"/>
<line x1="272.600000" y1="172.000000" x2="272.600000" y2="172.000000"  style="stroke:black; stroke-linecap:round; stroke-width:0.25;"/>
<line x1="272.600000" y1="172.000000" x2="276.600000" y2="172.000000"  style="stroke:black; stroke-linecap:round; stroke-width:0.25;"/>
<line x1="272.600000" y1="180.000000" x2="276.600000" y2="180.000000"  style="stroke:black; stroke-linecap:round; stroke-width:0.25;"/>
<line x1="298.300000" y1="80.000000" x2="294.300000" y2="80.000000"  style="stroke:black; stroke-linecap:round; stroke-width:0.25;"/>
<line x1="298.300000" y1="88.000000" x2="294.300000" y2="88.000000"  style="stroke:black; stroke-linecap:round; stroke-width:0.25;"/>
<line x1="298.300000" y1="88.000000" x2="298.300000" y2="88.000000"  style="stroke:black; stroke-linecap:round; stroke-width:0.25;"/>
<line x1="298.300000" y1="100.000000" x2="298.300000" y2="88.000000"  style="stroke:black; stroke-linecap:round; stroke-width:0.25;"/>
<line x1="300.600000" y1="176.000000" x2="304.600000" y2="176.000000"  style="stroke:black; stroke-linecap:round; stroke-width:0.25;"/>
<line x1="304.600000" y1="160.000000" x2="312.600000" y2="160.000000"  style="stroke:black; stroke-linecap:round; stroke-width:0.25;"/>
<line x1="304.600000" y1="176.000000" x2="304.600000" y2="160.000000"  style="stroke:black; stroke-linecap:round; stroke-width:0.25;"/>
<line x1="304.600000" y1="176.000000" x2="304.600000" y2="176.000000"  style="stroke:black; stroke-linecap:round; stroke-width:0.25;"/>
<line x1="306.300000" y1="68.000000" x2="306.300000" y2="68.000000"  style="stroke:black; stroke-linecap:round; stroke-width:0.25;"/>
<line x1="306.300000" y1="68.000000" x2="306.300000" y2="80.000000"  style="stroke:black; stroke-linecap:round; stroke-width:0.25;"/>
<line x1="306.300000" y1="80.000000" x2="298.300000" y2="80.000000"  style="stroke:black; stroke-linecap:round; stroke-width:0.25;"/>
<line x1="306.300000" y1="100.000000" x2="298.300000" y2="100.000000"  style="stroke:black; stroke-linecap:round; stroke-width:0.25;"/>
<line x1="307.200000" y1="100.000000" x2="306.300000" y2="100.000000"  style="stroke:black; stroke-linecap:round; stroke-width:0.25;"/>
<line x1="310.300000" y1="68.000000" x2="306.300000" y2="68.000000"  style="stroke:black; stroke-linecap:round; stroke-width:0.25;"/>
<line x1="311.200000" y1="100.000000" x2="307.200000" y2="100.000000"  style="stroke:black; stroke-linecap:round; stroke-width:0.25;"/>
<line x1="312.600000" y1="160.000000" x2="328.600000" y2="160.000000"  style="stroke:black; stroke-linecap:round; stroke-width:0.25;"/>
<line x1="328.600000" y1="160.000000" x2="344.600000" y2="160.000000"  style="stroke:black; stroke-linecap:round; stroke-width:0.25;"/>
<line x1="340.600000" y1="180.000000" x2="344.600000" y2="180.000000"  style="stroke:black; stroke-linecap:round; stroke-width:0.25;"/>
<line x1="344.600000" y1="160.000000" x2="352.600000" y2="160.000000"  style="stroke:black; stroke-linecap:round; stroke-width:0.25;"/>
<line x1="344.600000" y1="180.000000" x2="352.600000" y2="180.000000"  style="stroke:black; stroke-linecap:round; stroke-width:0.25;"/>
<line x1="352.600000" y1="160.000000" x2="352.600000" y2="172.000000"  style="stroke:black; stroke-linecap:round; stroke-width:0.25;"/>
<line x1="352.600000" y1="172.000000" x2="352.600000" y2="172.000000"  style="stroke:black; stroke-linecap:round; stroke-width:0.25;"/>
<line x1="352.600000" y1="172.000000" x2="356.600000" y2="172.000000"  style="stroke:black; stroke-linecap:round; stroke-width:0.25;"/>
<line x1="352.600000" y1="180.000000" x2="356.600000" y2="180.000000"  style="stroke:black; stroke-linecap:round; stroke-width:0.25;"/>
<line x1="378.150000" y1="120.000000" x2="266.300000" y2="120.000000"  style="stroke:black; stroke-linecap:round; stroke-width:0.25;"/>
<line x1="380.600000" y1="176.000000" x2="384.600000" y2="176.000000"  style="stroke:black; stroke-linecap:round; stroke-width:0.25;"/>
<line x1="384.600000" y1="120.000000" x2="378.150000" y2="120.000000"  style="stroke:black; stroke-linecap:round; stroke-width:0.25;"/>
<line x1="384.600000" y1="120.000000" x2="384.600000" y2="120.000000"  style="stroke:black; stroke-linecap:round; stroke-width:0.25;"/>
<line x1="384.600000" y1="172.000000" x2="384.600000" y2="120.000000"  style="stroke:black; stroke-linecap:round; stroke-width:0.25;"/>
<line x1="384.600000" y1="176.000000" x2="386.600000" y2="176.000000"  style="stroke:black; stroke-linecap:round; stroke-width:0.25;"/>
<line x1="386.600000" y1="176.000000" x2="392.600000" y2="176.000000"  style="stroke:black; stroke-linecap:round; stroke-width:0.25;"/>
<line x1="392.600000" y1="176.000000" x2="402.600000" y2="176.000000"  style="stroke:black; stroke-linecap:round; stroke-width:0.25;"/>
</svg>
