<?xml version="1.0"?>
<svg xmlns="http://www.w3.org/2000/svg" xmlns:xlink="http://www.w3.org/1999/xlink" viewBox="0 0 524.600000 184.000000" width="262.300000mm" height="92.000000mm" version="1.1">
<defs>
   <filter id="filter" filterRes="18" x="0" y="0">
     <feGaussianBlur in="SourceGraphic" stdDeviation="1.55" result="blur"/>
     <feOffset in="blur" dx="3" dy="3"/>
   </filter>
</defs>
<a xlink:href="process.svg">
<rect x="1.000000" y="1.000000" width="523.600000" height="183.000000" rx="0.1" ry="0.1" style="stroke:none;fill:#aaaaaa;;filter:url(#filter);"/>
<rect x="0.000000" y="0.000000" width="523.600000" height="183.000000" rx="0" ry="0" style="stroke:none;fill:#ffffff;"/>
</a>
<text x="10.000000" y="7.000000" font-family="Arial" font-size="7"></text>
<rect x="25.000000" y="81.000000" width="24.000000" height="24.000000" rx="0.1" ry="0.1" style="stroke:none;fill:#aaaaaa;;filter:url(#filter);"/>
<rect x="24.000000" y="80.000000" width="24.000000" height="24.000000" rx="0" ry="0" style="stroke:none;fill:#47945E;"/>
<text x="36.000000" y="94.000000" font-family="Arial" font-size="7" text-anchor="middle" fill="#FFFFFF">x</text>
<circle cx="26.000000" cy="82.000000" r="1"/>
<line x1="21.000000" y1="91.000000" x2="24.000000" y2="92.000000"  transform="rotate(0.000000,24.000000,92.000000)" style="stroke: black; stroke-width:0.25;"/>
<line x1="21.000000" y1="93.000000" x2="24.000000" y2="92.000000"  transform="rotate(0.000000,24.000000,92.000000)" style="stroke: black; stroke-width:0.25;"/>
<rect x="130.400000" y="105.000000" width="24.000000" height="24.000000" rx="0.1" ry="0.1" style="stroke:none;fill:#aaaaaa;;filter:url(#filter);"/>
<rect x="129.400000" y="104.000000" width="24.000000" height="24.000000" rx="0" ry="0" style="stroke:none;fill:#47945E;"/>
<text x="141.400000" y="118.000000" font-family="Arial" font-size="7" text-anchor="middle" fill="#FFFFFF">x</text>
<circle cx="131.400000" cy="106.000000" r="1"/>
<rect x="65.000000" y="137.000000" width="154.800000" height="24.000000" rx="0.1" ry="0.1" style="stroke:none;fill:#aaaaaa;;filter:url(#filter);"/>
<rect x="64.000000" y="136.000000" width="154.800000" height="24.000000" rx="0" ry="0" style="stroke:none;fill:#477881;"/>
<text x="141.400000" y="150.000000" font-family="Arial" font-size="7" text-anchor="middle" fill="#FFFFFF">hslider(time off, 1, 1, 1000, 0.1)</text>
<circle cx="66.000000" cy="138.000000" r="1"/>
<rect x="235.800000" y="121.000000" width="24.000000" height="24.000000" rx="0.1" ry="0.1" style="stroke:none;fill:#aaaaaa;;filter:url(#filter);"/>
<rect x="234.800000" y="120.000000" width="24.000000" height="24.000000" rx="0" ry="0" style="stroke:none;fill:#4B71A1;"/>
<text x="246.800000" y="134.000000" font-family="Arial" font-size="7" text-anchor="middle" fill="#FFFFFF">*</text>
<circle cx="236.800000" cy="122.000000" r="1"/>
<line x1="231.800000" y1="127.000000" x2="234.800000" y2="128.000000"  transform="rotate(0.000000,234.800000,128.000000)" style="stroke: black; stroke-width:0.25;"/>
<line x1="231.800000" y1="129.000000" x2="234.800000" y2="128.000000"  transform="rotate(0.000000,234.800000,128.000000)" style="stroke: black; stroke-width:0.25;"/>
<line x1="231.800000" y1="135.000000" x2="234.800000" y2="136.000000"  transform="rotate(0.000000,234.800000,136.000000)" style="stroke: black; stroke-width:0.25;"/>
<line x1="231.800000" y1="137.000000" x2="234.800000" y2="136.000000"  transform="rotate(0.000000,234.800000,136.000000)" style="stroke: black; stroke-width:0.25;"/>
<a xlink:href="safer-0x31113b0.svg">
<rect x="267.800000" y="121.000000" width="25.800000" height="24.000000" rx="0.1" ry="0.1" style="stroke:none;fill:#aaaaaa;;filter:url(#filter);"/>
<rect x="266.800000" y="120.000000" width="25.800000" height="24.000000" rx="0" ry="0" style="stroke:none;fill:#003366;"/>
</a>
<a xlink:href="safer-0x31113b0.svg">
<text x="279.700000" y="134.000000" font-family="Arial" font-size="7" text-anchor="middle" fill="#FFFFFF">safer</text>
</a>
<circle cx="268.800000" cy="122.000000" r="1"/>
<line x1="263.800000" y1="131.000000" x2="266.800000" y2="132.000000"  transform="rotate(0.000000,266.800000,132.000000)" style="stroke: black; stroke-width:0.25;"/>
<line x1="263.800000" y1="133.000000" x2="266.800000" y2="132.000000"  transform="rotate(0.000000,266.800000,132.000000)" style="stroke: black; stroke-width:0.25;"/>
<rect x="309.600000" y="117.000000" width="24.000000" height="24.000000" rx="0.1" ry="0.1" style="stroke:none;fill:#aaaaaa;;filter:url(#filter);"/>
<rect x="308.600000" y="116.000000" width="24.000000" height="24.000000" rx="0" ry="0" style="stroke:none;fill:#4B71A1;"/>
<text x="320.600000" y="130.000000" font-family="Arial" font-size="7" text-anchor="middle" fill="#FFFFFF">@</text>
<circle cx="310.600000" cy="118.000000" r="1"/>
<line x1="305.600000" y1="123.000000" x2="308.600000" y2="124.000000"  transform="rotate(0.000000,308.600000,124.000000)" style="stroke: black; stroke-width:0.25;"/>
<line x1="305.600000" y1="125.000000" x2="308.600000" y2="124.000000"  transform="rotate(0.000000,308.600000,124.000000)" style="stroke: black; stroke-width:0.25;"/>
<line x1="305.600000" y1="131.000000" x2="308.600000" y2="132.000000"  transform="rotate(0.000000,308.600000,132.000000)" style="stroke: black; stroke-width:0.25;"/>
<line x1="305.600000" y1="133.000000" x2="308.600000" y2="132.000000"  transform="rotate(0.000000,308.600000,132.000000)" style="stroke: black; stroke-width:0.25;"/>
<rect x="349.600000" y="121.000000" width="24.000000" height="24.000000" rx="0.1" ry="0.1" style="stroke:none;fill:#aaaaaa;;filter:url(#filter);"/>
<rect x="348.600000" y="120.000000" width="24.000000" height="24.000000" rx="0" ry="0" style="stroke:none;fill:#f44800;"/>
<text x="360.600000" y="134.000000" font-family="Arial" font-size="7" text-anchor="middle" fill="#FFFFFF">1</text>
<circle cx="350.600000" cy="122.000000" r="1"/>
<rect x="389.600000" y="117.000000" width="24.000000" height="24.000000" rx="0.1" ry="0.1" style="stroke:none;fill:#aaaaaa;;filter:url(#filter);"/>
<rect x="388.600000" y="116.000000" width="24.000000" height="24.000000" rx="0" ry="0" style="stroke:none;fill:#4B71A1;"/>
<text x="400.600000" y="130.000000" font-family="Arial" font-size="7" text-anchor="middle" fill="#FFFFFF">+</text>
<circle cx="390.600000" cy="118.000000" r="1"/>
<line x1="385.600000" y1="123.000000" x2="388.600000" y2="124.000000"  transform="rotate(0.000000,388.600000,124.000000)" style="stroke: black; stroke-width:0.25;"/>
<line x1="385.600000" y1="125.000000" x2="388.600000" y2="124.000000"  transform="rotate(0.000000,388.600000,124.000000)" style="stroke: black; stroke-width:0.25;"/>
<line x1="385.600000" y1="131.000000" x2="388.600000" y2="132.000000"  transform="rotate(0.000000,388.600000,132.000000)" style="stroke: black; stroke-width:0.25;"/>
<line x1="385.600000" y1="133.000000" x2="388.600000" y2="132.000000"  transform="rotate(0.000000,388.600000,132.000000)" style="stroke: black; stroke-width:0.25;"/>
<rect x="284.200000" y="57.000000" width="24.000000" height="24.000000" rx="0.1" ry="0.1" style="stroke:none;fill:#aaaaaa;;filter:url(#filter);"/>
<rect x="283.200000" y="56.000000" width="24.000000" height="24.000000" rx="0" ry="0" style="stroke:none;fill:#47945E;"/>
<text x="295.200000" y="70.000000" font-family="Arial" font-size="7" text-anchor="middle" fill="#FFFFFF">x</text>
<circle cx="305.200000" cy="78.000000" r="1"/>
<rect x="225.250000" y="25.000000" width="141.900000" height="24.000000" rx="0.1" ry="0.1" style="stroke:none;fill:#aaaaaa;;filter:url(#filter);"/>
<rect x="224.250000" y="24.000000" width="141.900000" height="24.000000" rx="0" ry="0" style="stroke:none;fill:#477881;"/>
<text x="295.200000" y="38.000000" font-family="Arial" font-size="7" text-anchor="middle" fill="#FFFFFF">hslider(time on, 1, 1, 1000, 0.1)</text>
<circle cx="364.150000" cy="46.000000" r="1"/>
<rect x="185.250000" y="41.000000" width="24.000000" height="24.000000" rx="0.1" ry="0.1" style="stroke:none;fill:#aaaaaa;;filter:url(#filter);"/>
<rect x="184.250000" y="40.000000" width="24.000000" height="24.000000" rx="0" ry="0" style="stroke:none;fill:#4B71A1;"/>
<text x="196.250000" y="54.000000" font-family="Arial" font-size="7" text-anchor="middle" fill="#FFFFFF">*</text>
<circle cx="206.250000" cy="62.000000" r="1"/>
<line x1="211.250000" y1="55.000000" x2="208.250000" y2="56.000000"  transform="rotate(0.000000,208.250000,56.000000)" style="stroke: black; stroke-width:0.25;"/>
<line x1="211.250000" y1="57.000000" x2="208.250000" y2="56.000000"  transform="rotate(0.000000,208.250000,56.000000)" style="stroke: black; stroke-width:0.25;"/>
<line x1="211.250000" y1="47.000000" x2="208.250000" y2="48.000000"  transform="rotate(0.000000,208.250000,48.000000)" style="stroke: black; stroke-width:0.25;"/>
<line x1="211.250000" y1="49.000000" x2="208.250000" y2="48.000000"  transform="rotate(0.000000,208.250000,48.000000)" style="stroke: black; stroke-width:0.25;"/>
<a xlink:href="safer-0x31113b0.svg">
<rect x="151.450000" y="41.000000" width="25.800000" height="24.000000" rx="0.1" ry="0.1" style="stroke:none;fill:#aaaaaa;;filter:url(#filter);"/>
<rect x="150.450000" y="40.000000" width="25.800000" height="24.000000" rx="0" ry="0" style="stroke:none;fill:#003366;"/>
</a>
<a xlink:href="safer-0x31113b0.svg">
<text x="163.350000" y="54.000000" font-family="Arial" font-size="7" text-anchor="middle" fill="#FFFFFF">safer</text>
</a>
<circle cx="174.250000" cy="62.000000" r="1"/>
<line x1="179.250000" y1="51.000000" x2="176.250000" y2="52.000000"  transform="rotate(0.000000,176.250000,52.000000)" style="stroke: black; stroke-width:0.25;"/>
<line x1="179.250000" y1="53.000000" x2="176.250000" y2="52.000000"  transform="rotate(0.000000,176.250000,52.000000)" style="stroke: black; stroke-width:0.25;"/>
<rect x="111.450000" y="45.000000" width="24.000000" height="24.000000" rx="0.1" ry="0.1" style="stroke:none;fill:#aaaaaa;;filter:url(#filter);"/>
<rect x="110.450000" y="44.000000" width="24.000000" height="24.000000" rx="0" ry="0" style="stroke:none;fill:#4B71A1;"/>
<text x="122.450000" y="58.000000" font-family="Arial" font-size="7" text-anchor="middle" fill="#FFFFFF">@</text>
<circle cx="132.450000" cy="66.000000" r="1"/>
<line x1="137.450000" y1="59.000000" x2="134.450000" y2="60.000000"  transform="rotate(0.000000,134.450000,60.000000)" style="stroke: black; stroke-width:0.25;"/>
<line x1="137.450000" y1="61.000000" x2="134.450000" y2="60.000000"  transform="rotate(0.000000,134.450000,60.000000)" style="stroke: black; stroke-width:0.25;"/>
<line x1="137.450000" y1="51.000000" x2="134.450000" y2="52.000000"  transform="rotate(0.000000,134.450000,52.000000)" style="stroke: black; stroke-width:0.25;"/>
<line x1="137.450000" y1="53.000000" x2="134.450000" y2="52.000000"  transform="rotate(0.000000,134.450000,52.000000)" style="stroke: black; stroke-width:0.25;"/>
<line x1="414.600000" y1="128.000000" x2="414.600000" y2="124.000000"  style="stroke:black; stroke-linecap:round; stroke-width:0.25;"/>
<line x1="414.600000" y1="124.000000" x2="418.600000" y2="124.000000"  style="stroke:black; stroke-linecap:round; stroke-width:0.25;"/>
<line x1="418.600000" y1="124.000000" x2="418.600000" y2="128.000000"  style="stroke:black; stroke-linecap:round; stroke-width:0.25;"/>
<rect x="437.600000" y="85.000000" width="24.000000" height="24.000000" rx="0.1" ry="0.1" style="stroke:none;fill:#aaaaaa;;filter:url(#filter);"/>
<rect x="436.600000" y="84.000000" width="24.000000" height="24.000000" rx="0" ry="0" style="stroke:none;fill:#f44800;"/>
<text x="448.600000" y="98.000000" font-family="Arial" font-size="7" text-anchor="middle" fill="#FFFFFF">1</text>
<circle cx="438.600000" cy="86.000000" r="1"/>
<rect x="477.600000" y="81.000000" width="24.000000" height="24.000000" rx="0.1" ry="0.1" style="stroke:none;fill:#aaaaaa;;filter:url(#filter);"/>
<rect x="476.600000" y="80.000000" width="24.000000" height="24.000000" rx="0" ry="0" style="stroke:none;fill:#4B71A1;"/>
<text x="488.600000" y="94.000000" font-family="Arial" font-size="7" text-anchor="middle" fill="#FFFFFF">-</text>
<circle cx="478.600000" cy="82.000000" r="1"/>
<line x1="473.600000" y1="87.000000" x2="476.600000" y2="88.000000"  transform="rotate(0.000000,476.600000,88.000000)" style="stroke: black; stroke-width:0.25;"/>
<line x1="473.600000" y1="89.000000" x2="476.600000" y2="88.000000"  transform="rotate(0.000000,476.600000,88.000000)" style="stroke: black; stroke-width:0.25;"/>
<line x1="473.600000" y1="95.000000" x2="476.600000" y2="96.000000"  transform="rotate(0.000000,476.600000,96.000000)" style="stroke: black; stroke-width:0.25;"/>
<line x1="473.600000" y1="97.000000" x2="476.600000" y2="96.000000"  transform="rotate(0.000000,476.600000,96.000000)" style="stroke: black; stroke-width:0.25;"/>
<line x1="15.000000" y1="15.000000" x2="15.000000" y2="169.000000"  style="stroke: black; stroke-linecap:round; stroke-width:0.25; stroke-dasharray:3,3;"/>
<line x1="15.000000" y1="169.000000" x2="509.600000" y2="169.000000"  style="stroke: black; stroke-linecap:round; stroke-width:0.25; stroke-dasharray:3,3;"/>
<line x1="509.600000" y1="169.000000" x2="509.600000" y2="15.000000"  style="stroke: black; stroke-linecap:round; stroke-width:0.25; stroke-dasharray:3,3;"/>
<line x1="15.000000" y1="15.000000" x2="20.000000" y2="15.000000"  style="stroke: black; stroke-linecap:round; stroke-width:0.25; stroke-dasharray:3,3;"/>
<line x1="49.025000" y1="15.000000" x2="509.600000" y2="15.000000"  style="stroke: black; stroke-linecap:round; stroke-width:0.25; stroke-dasharray:3,3;"/>
<text x="20.000000" y="17.000000" font-family="Arial" font-size="7">trigger</text>
<line x1="511.600000" y1="91.000000" x2="514.600000" y2="92.000000"  transform="rotate(0.000000,514.600000,92.000000)" style="stroke: black; stroke-width:0.25;"/>
<line x1="511.600000" y1="93.000000" x2="514.600000" y2="92.000000"  transform="rotate(0.000000,514.600000,92.000000)" style="stroke: black; stroke-width:0.25;"/>
<line x1="10.000000" y1="92.000000" x2="20.000000" y2="92.000000"  style="stroke:black; stroke-linecap:round; stroke-width:0.25;"/>
<line x1="20.000000" y1="92.000000" x2="24.000000" y2="92.000000"  style="stroke:black; stroke-linecap:round; stroke-width:0.25;"/>
<line x1="60.000000" y1="56.000000" x2="60.000000" y2="56.000000"  style="stroke:black; stroke-linecap:round; stroke-width:0.25;"/>
<line x1="60.000000" y1="56.000000" x2="60.000000" y2="96.000000"  style="stroke:black; stroke-linecap:round; stroke-width:0.25;"/>
<line x1="60.000000" y1="96.000000" x2="60.000000" y2="96.000000"  style="stroke:black; stroke-linecap:round; stroke-width:0.25;"/>
<line x1="60.000000" y1="96.000000" x2="178.300000" y2="96.000000"  style="stroke:black; stroke-linecap:round; stroke-width:0.25;"/>
<line x1="106.450000" y1="56.000000" x2="60.000000" y2="56.000000"  style="stroke:black; stroke-linecap:round; stroke-width:0.25;"/>
<line x1="110.450000" y1="56.000000" x2="106.450000" y2="56.000000"  style="stroke:black; stroke-linecap:round; stroke-width:0.25;"/>
<line x1="138.450000" y1="60.000000" x2="138.450000" y2="60.000000"  style="stroke:black; stroke-linecap:round; stroke-width:0.25;"/>
<line x1="138.450000" y1="88.000000" x2="138.450000" y2="60.000000"  style="stroke:black; stroke-linecap:round; stroke-width:0.25;"/>
<line x1="138.450000" y1="52.000000" x2="134.450000" y2="52.000000"  style="stroke:black; stroke-linecap:round; stroke-width:0.25;"/>
<line x1="138.450000" y1="60.000000" x2="134.450000" y2="60.000000"  style="stroke:black; stroke-linecap:round; stroke-width:0.25;"/>
<line x1="146.450000" y1="88.000000" x2="138.450000" y2="88.000000"  style="stroke:black; stroke-linecap:round; stroke-width:0.25;"/>
<line x1="146.450000" y1="52.000000" x2="138.450000" y2="52.000000"  style="stroke:black; stroke-linecap:round; stroke-width:0.25;"/>
<line x1="150.450000" y1="52.000000" x2="146.450000" y2="52.000000"  style="stroke:black; stroke-linecap:round; stroke-width:0.25;"/>
<line x1="153.400000" y1="116.000000" x2="157.400000" y2="116.000000"  style="stroke:black; stroke-linecap:round; stroke-width:0.25;"/>
<line x1="157.400000" y1="116.000000" x2="222.800000" y2="116.000000"  style="stroke:black; stroke-linecap:round; stroke-width:0.25;"/>
<line x1="178.300000" y1="96.000000" x2="296.600000" y2="96.000000"  style="stroke:black; stroke-linecap:round; stroke-width:0.25;"/>
<line x1="180.250000" y1="52.000000" x2="176.250000" y2="52.000000"  style="stroke:black; stroke-linecap:round; stroke-width:0.25;"/>
<line x1="180.250000" y1="52.000000" x2="180.250000" y2="52.000000"  style="stroke:black; stroke-linecap:round; stroke-width:0.25;"/>
<line x1="184.250000" y1="52.000000" x2="180.250000" y2="52.000000"  style="stroke:black; stroke-linecap:round; stroke-width:0.25;"/>
<line x1="212.250000" y1="48.000000" x2="208.250000" y2="48.000000"  style="stroke:black; stroke-linecap:round; stroke-width:0.25;"/>
<line x1="212.250000" y1="56.000000" x2="208.250000" y2="56.000000"  style="stroke:black; stroke-linecap:round; stroke-width:0.25;"/>
<line x1="212.250000" y1="56.000000" x2="212.250000" y2="56.000000"  style="stroke:black; stroke-linecap:round; stroke-width:0.25;"/>
<line x1="212.250000" y1="68.000000" x2="212.250000" y2="56.000000"  style="stroke:black; stroke-linecap:round; stroke-width:0.25;"/>
<line x1="218.800000" y1="148.000000" x2="222.800000" y2="148.000000"  style="stroke:black; stroke-linecap:round; stroke-width:0.25;"/>
<line x1="220.250000" y1="36.000000" x2="220.250000" y2="36.000000"  style="stroke:black; stroke-linecap:round; stroke-width:0.25;"/>
<line x1="220.250000" y1="36.000000" x2="220.250000" y2="48.000000"  style="stroke:black; stroke-linecap:round; stroke-width:0.25;"/>
<line x1="220.250000" y1="48.000000" x2="212.250000" y2="48.000000"  style="stroke:black; stroke-linecap:round; stroke-width:0.25;"/>
<line x1="220.250000" y1="68.000000" x2="212.250000" y2="68.000000"  style="stroke:black; stroke-linecap:round; stroke-width:0.25;"/>
<line x1="222.800000" y1="116.000000" x2="230.800000" y2="116.000000"  style="stroke:black; stroke-linecap:round; stroke-width:0.25;"/>
<line x1="222.800000" y1="136.000000" x2="230.800000" y2="136.000000"  style="stroke:black; stroke-linecap:round; stroke-width:0.25;"/>
<line x1="222.800000" y1="148.000000" x2="222.800000" y2="136.000000"  style="stroke:black; stroke-linecap:round; stroke-width:0.25;"/>
<line x1="222.800000" y1="148.000000" x2="222.800000" y2="148.000000"  style="stroke:black; stroke-linecap:round; stroke-width:0.25;"/>
<line x1="224.250000" y1="36.000000" x2="220.250000" y2="36.000000"  style="stroke:black; stroke-linecap:round; stroke-width:0.25;"/>
<line x1="230.800000" y1="116.000000" x2="230.800000" y2="128.000000"  style="stroke:black; stroke-linecap:round; stroke-width:0.25;"/>
<line x1="230.800000" y1="128.000000" x2="230.800000" y2="128.000000"  style="stroke:black; stroke-linecap:round; stroke-width:0.25;"/>
<line x1="230.800000" y1="128.000000" x2="234.800000" y2="128.000000"  style="stroke:black; stroke-linecap:round; stroke-width:0.25;"/>
<line x1="230.800000" y1="136.000000" x2="234.800000" y2="136.000000"  style="stroke:black; stroke-linecap:round; stroke-width:0.25;"/>
<line x1="258.300000" y1="88.000000" x2="146.450000" y2="88.000000"  style="stroke:black; stroke-linecap:round; stroke-width:0.25;"/>
<line x1="258.800000" y1="132.000000" x2="262.800000" y2="132.000000"  style="stroke:black; stroke-linecap:round; stroke-width:0.25;"/>
<line x1="262.800000" y1="132.000000" x2="262.800000" y2="132.000000"  style="stroke:black; stroke-linecap:round; stroke-width:0.25;"/>
<line x1="262.800000" y1="132.000000" x2="266.800000" y2="132.000000"  style="stroke:black; stroke-linecap:round; stroke-width:0.25;"/>
<line x1="279.200000" y1="68.000000" x2="220.250000" y2="68.000000"  style="stroke:black; stroke-linecap:round; stroke-width:0.25;"/>
<line x1="283.200000" y1="68.000000" x2="279.200000" y2="68.000000"  style="stroke:black; stroke-linecap:round; stroke-width:0.25;"/>
<line x1="292.600000" y1="132.000000" x2="296.600000" y2="132.000000"  style="stroke:black; stroke-linecap:round; stroke-width:0.25;"/>
<line x1="296.600000" y1="96.000000" x2="304.600000" y2="96.000000"  style="stroke:black; stroke-linecap:round; stroke-width:0.25;"/>
<line x1="296.600000" y1="132.000000" x2="304.600000" y2="132.000000"  style="stroke:black; stroke-linecap:round; stroke-width:0.25;"/>
<line x1="304.600000" y1="96.000000" x2="304.600000" y2="124.000000"  style="stroke:black; stroke-linecap:round; stroke-width:0.25;"/>
<line x1="304.600000" y1="124.000000" x2="304.600000" y2="124.000000"  style="stroke:black; stroke-linecap:round; stroke-width:0.25;"/>
<line x1="304.600000" y1="124.000000" x2="308.600000" y2="124.000000"  style="stroke:black; stroke-linecap:round; stroke-width:0.25;"/>
<line x1="304.600000" y1="132.000000" x2="308.600000" y2="132.000000"  style="stroke:black; stroke-linecap:round; stroke-width:0.25;"/>
<line x1="332.600000" y1="128.000000" x2="336.600000" y2="128.000000"  style="stroke:black; stroke-linecap:round; stroke-width:0.25;"/>
<line x1="336.600000" y1="112.000000" x2="344.600000" y2="112.000000"  style="stroke:black; stroke-linecap:round; stroke-width:0.25;"/>
<line x1="336.600000" y1="128.000000" x2="336.600000" y2="112.000000"  style="stroke:black; stroke-linecap:round; stroke-width:0.25;"/>
<line x1="336.600000" y1="128.000000" x2="336.600000" y2="128.000000"  style="stroke:black; stroke-linecap:round; stroke-width:0.25;"/>
<line x1="344.600000" y1="112.000000" x2="360.600000" y2="112.000000"  style="stroke:black; stroke-linecap:round; stroke-width:0.25;"/>
<line x1="360.600000" y1="112.000000" x2="376.600000" y2="112.000000"  style="stroke:black; stroke-linecap:round; stroke-width:0.25;"/>
<line x1="370.150000" y1="88.000000" x2="258.300000" y2="88.000000"  style="stroke:black; stroke-linecap:round; stroke-width:0.25;"/>
<line x1="372.600000" y1="132.000000" x2="376.600000" y2="132.000000"  style="stroke:black; stroke-linecap:round; stroke-width:0.25;"/>
<line x1="376.600000" y1="112.000000" x2="384.600000" y2="112.000000"  style="stroke:black; stroke-linecap:round; stroke-width:0.25;"/>
<line x1="376.600000" y1="132.000000" x2="384.600000" y2="132.000000"  style="stroke:black; stroke-linecap:round; stroke-width:0.25;"/>
<line x1="384.600000" y1="112.000000" x2="384.600000" y2="124.000000"  style="stroke:black; stroke-linecap:round; stroke-width:0.25;"/>
<line x1="384.600000" y1="124.000000" x2="384.600000" y2="124.000000"  style="stroke:black; stroke-linecap:round; stroke-width:0.25;"/>
<line x1="384.600000" y1="124.000000" x2="388.600000" y2="124.000000"  style="stroke:black; stroke-linecap:round; stroke-width:0.25;"/>
<line x1="384.600000" y1="132.000000" x2="388.600000" y2="132.000000"  style="stroke:black; stroke-linecap:round; stroke-width:0.25;"/>
<line x1="412.600000" y1="128.000000" x2="416.600000" y2="128.000000"  style="stroke:black; stroke-linecap:round; stroke-width:0.25;"/>
<line x1="416.600000" y1="88.000000" x2="370.150000" y2="88.000000"  style="stroke:black; stroke-linecap:round; stroke-width:0.25;"/>
<line x1="416.600000" y1="88.000000" x2="416.600000" y2="88.000000"  style="stroke:black; stroke-linecap:round; stroke-width:0.25;"/>
<line x1="416.600000" y1="124.000000" x2="416.600000" y2="88.000000"  style="stroke:black; stroke-linecap:round; stroke-width:0.25;"/>
<line x1="416.600000" y1="128.000000" x2="418.600000" y2="128.000000"  style="stroke:black; stroke-linecap:round; stroke-width:0.25;"/>
<line x1="418.600000" y1="128.000000" x2="424.600000" y2="128.000000"  style="stroke:black; stroke-linecap:round; stroke-width:0.25;"/>
<line x1="424.600000" y1="76.000000" x2="432.600000" y2="76.000000"  style="stroke:black; stroke-linecap:round; stroke-width:0.25;"/>
<line x1="424.600000" y1="128.000000" x2="424.600000" y2="76.000000"  style="stroke:black; stroke-linecap:round; stroke-width:0.25;"/>
<line x1="424.600000" y1="128.000000" x2="424.600000" y2="128.000000"  style="stroke:black; stroke-linecap:round; stroke-width:0.25;"/>
<line x1="432.600000" y1="76.000000" x2="448.600000" y2="76.000000"  style="stroke:black; stroke-linecap:round; stroke-width:0.25;"/>
<line x1="448.600000" y1="76.000000" x2="464.600000" y2="76.000000"  style="stroke:black; stroke-linecap:round; stroke-width:0.25;"/>
<line x1="460.600000" y1="96.000000" x2="464.600000" y2="96.000000"  style="stroke:black; stroke-linecap:round; stroke-width:0.25;"/>
<line x1="464.600000" y1="76.000000" x2="472.600000" y2="76.000000"  style="stroke:black; stroke-linecap:round; stroke-width:0.25;"/>
<line x1="464.600000" y1="96.000000" x2="472.600000" y2="96.000000"  style="stroke:black; stroke-linecap:round; stroke-width:0.25;"/>
<line x1="472.600000" y1="76.000000" x2="472.600000" y2="88.000000"  style="stroke:black; stroke-linecap:round; stroke-width:0.25;"/>
<line x1="472.600000" y1="88.000000" x2="472.600000" y2="88.000000"  style="stroke:black; stroke-linecap:round; stroke-width:0.25;"/>
<line x1="472.600000" y1="88.000000" x2="476.600000" y2="88.000000"  style="stroke:black; stroke-linecap:round; stroke-width:0.25;"/>
<line x1="472.600000" y1="96.000000" x2="476.600000" y2="96.000000"  style="stroke:black; stroke-linecap:round; stroke-width:0.25;"/>
<line x1="500.600000" y1="92.000000" x2="504.600000" y2="92.000000"  style="stroke:black; stroke-linecap:round; stroke-width:0.25;"/>
<line x1="504.600000" y1="92.000000" x2="514.600000" y2="92.000000"  style="stroke:black; stroke-linecap:round; stroke-width:0.25;"/>
</svg>
