<?xml version="1.0"?>
<svg xmlns="http://www.w3.org/2000/svg" xmlns:xlink="http://www.w3.org/1999/xlink" viewBox="0 0 139.600000 160.000000" width="69.800000mm" height="80.000000mm" version="1.1">
<defs>
   <filter id="filter" filterRes="18" x="0" y="0">
     <feGaussianBlur in="SourceGraphic" stdDeviation="1.55" result="blur"/>
     <feOffset in="blur" dx="3" dy="3"/>
   </filter>
</defs>
<a xlink:href="noiser-0x2862880.svg">
<rect x="1.000000" y="1.000000" width="138.600000" height="159.000000" rx="0.1" ry="0.1" style="stroke:none;fill:#aaaaaa;;filter:url(#filter);"/>
<rect x="0.000000" y="0.000000" width="138.600000" height="159.000000" rx="0" ry="0" style="stroke:none;fill:#ffffff;"/>
</a>
<text x="10.000000" y="7.000000" font-family="Arial" font-size="7"></text>
<rect x="25.000000" y="33.000000" width="51.600000" height="24.000000" rx="0.1" ry="0.1" style="stroke:none;fill:#aaaaaa;;filter:url(#filter);"/>
<rect x="24.000000" y="32.000000" width="51.600000" height="24.000000" rx="0" ry="0" style="stroke:none;fill:#f44800;"/>
<text x="49.800000" y="46.000000" font-family="Arial" font-size="7" text-anchor="middle" fill="#FFFFFF">4.29497e+09</text>
<circle cx="26.000000" cy="34.000000" r="1"/>
<rect x="92.600000" y="29.000000" width="24.000000" height="24.000000" rx="0.1" ry="0.1" style="stroke:none;fill:#aaaaaa;;filter:url(#filter);"/>
<rect x="91.600000" y="28.000000" width="24.000000" height="24.000000" rx="0" ry="0" style="stroke:none;fill:#4B71A1;"/>
<text x="103.600000" y="42.000000" font-family="Arial" font-size="7" text-anchor="middle" fill="#FFFFFF">/</text>
<circle cx="93.600000" cy="30.000000" r="1"/>
<line x1="88.600000" y1="35.000000" x2="91.600000" y2="36.000000"  transform="rotate(0.000000,91.600000,36.000000)" style="stroke: black; stroke-width:0.25;"/>
<line x1="88.600000" y1="37.000000" x2="91.600000" y2="36.000000"  transform="rotate(0.000000,91.600000,36.000000)" style="stroke: black; stroke-width:0.25;"/>
<line x1="88.600000" y1="43.000000" x2="91.600000" y2="44.000000"  transform="rotate(0.000000,91.600000,44.000000)" style="stroke: black; stroke-width:0.25;"/>
<line x1="88.600000" y1="45.000000" x2="91.600000" y2="44.000000"  transform="rotate(0.000000,91.600000,44.000000)" style="stroke: black; stroke-width:0.25;"/>
<rect x="25.000000" y="73.000000" width="51.600000" height="24.000000" rx="0.1" ry="0.1" style="stroke:none;fill:#aaaaaa;;filter:url(#filter);"/>
<rect x="24.000000" y="72.000000" width="51.600000" height="24.000000" rx="0" ry="0" style="stroke:none;fill:#f44800;"/>
<text x="49.800000" y="86.000000" font-family="Arial" font-size="7" text-anchor="middle" fill="#FFFFFF">4.29497e+09</text>
<circle cx="26.000000" cy="74.000000" r="1"/>
<rect x="92.600000" y="69.000000" width="24.000000" height="24.000000" rx="0.1" ry="0.1" style="stroke:none;fill:#aaaaaa;;filter:url(#filter);"/>
<rect x="91.600000" y="68.000000" width="24.000000" height="24.000000" rx="0" ry="0" style="stroke:none;fill:#4B71A1;"/>
<text x="103.600000" y="82.000000" font-family="Arial" font-size="7" text-anchor="middle" fill="#FFFFFF">/</text>
<circle cx="93.600000" cy="70.000000" r="1"/>
<line x1="88.600000" y1="75.000000" x2="91.600000" y2="76.000000"  transform="rotate(0.000000,91.600000,76.000000)" style="stroke: black; stroke-width:0.25;"/>
<line x1="88.600000" y1="77.000000" x2="91.600000" y2="76.000000"  transform="rotate(0.000000,91.600000,76.000000)" style="stroke: black; stroke-width:0.25;"/>
<line x1="88.600000" y1="83.000000" x2="91.600000" y2="84.000000"  transform="rotate(0.000000,91.600000,84.000000)" style="stroke: black; stroke-width:0.25;"/>
<line x1="88.600000" y1="85.000000" x2="91.600000" y2="84.000000"  transform="rotate(0.000000,91.600000,84.000000)" style="stroke: black; stroke-width:0.25;"/>
<rect x="25.000000" y="113.000000" width="51.600000" height="24.000000" rx="0.1" ry="0.1" style="stroke:none;fill:#aaaaaa;;filter:url(#filter);"/>
<rect x="24.000000" y="112.000000" width="51.600000" height="24.000000" rx="0" ry="0" style="stroke:none;fill:#f44800;"/>
<text x="49.800000" y="126.000000" font-family="Arial" font-size="7" text-anchor="middle" fill="#FFFFFF">4.29497e+09</text>
<circle cx="26.000000" cy="114.000000" r="1"/>
<rect x="92.600000" y="109.000000" width="24.000000" height="24.000000" rx="0.1" ry="0.1" style="stroke:none;fill:#aaaaaa;;filter:url(#filter);"/>
<rect x="91.600000" y="108.000000" width="24.000000" height="24.000000" rx="0" ry="0" style="stroke:none;fill:#4B71A1;"/>
<text x="103.600000" y="122.000000" font-family="Arial" font-size="7" text-anchor="middle" fill="#FFFFFF">/</text>
<circle cx="93.600000" cy="110.000000" r="1"/>
<line x1="88.600000" y1="115.000000" x2="91.600000" y2="116.000000"  transform="rotate(0.000000,91.600000,116.000000)" style="stroke: black; stroke-width:0.25;"/>
<line x1="88.600000" y1="117.000000" x2="91.600000" y2="116.000000"  transform="rotate(0.000000,91.600000,116.000000)" style="stroke: black; stroke-width:0.25;"/>
<line x1="88.600000" y1="123.000000" x2="91.600000" y2="124.000000"  transform="rotate(0.000000,91.600000,124.000000)" style="stroke: black; stroke-width:0.25;"/>
<line x1="88.600000" y1="125.000000" x2="91.600000" y2="124.000000"  transform="rotate(0.000000,91.600000,124.000000)" style="stroke: black; stroke-width:0.25;"/>
<line x1="15.000000" y1="15.000000" x2="15.000000" y2="145.000000"  style="stroke: black; stroke-linecap:round; stroke-width:0.25; stroke-dasharray:3,3;"/>
<line x1="15.000000" y1="145.000000" x2="124.600000" y2="145.000000"  style="stroke: black; stroke-linecap:round; stroke-width:0.25; stroke-dasharray:3,3;"/>
<line x1="124.600000" y1="145.000000" x2="124.600000" y2="15.000000"  style="stroke: black; stroke-linecap:round; stroke-width:0.25; stroke-dasharray:3,3;"/>
<line x1="15.000000" y1="15.000000" x2="20.000000" y2="15.000000"  style="stroke: black; stroke-linecap:round; stroke-width:0.25; stroke-dasharray:3,3;"/>
<line x1="97.400000" y1="15.000000" x2="124.600000" y2="15.000000"  style="stroke: black; stroke-linecap:round; stroke-width:0.25; stroke-dasharray:3,3;"/>
<text x="20.000000" y="17.000000" font-family="Arial" font-size="7">Divide(3)(4.29497e+09)</text>
<line x1="126.600000" y1="39.000000" x2="129.600000" y2="40.000000"  transform="rotate(0.000000,129.600000,40.000000)" style="stroke: black; stroke-width:0.25;"/>
<line x1="126.600000" y1="41.000000" x2="129.600000" y2="40.000000"  transform="rotate(0.000000,129.600000,40.000000)" style="stroke: black; stroke-width:0.25;"/>
<line x1="126.600000" y1="79.000000" x2="129.600000" y2="80.000000"  transform="rotate(0.000000,129.600000,80.000000)" style="stroke: black; stroke-width:0.25;"/>
<line x1="126.600000" y1="81.000000" x2="129.600000" y2="80.000000"  transform="rotate(0.000000,129.600000,80.000000)" style="stroke: black; stroke-width:0.25;"/>
<line x1="126.600000" y1="119.000000" x2="129.600000" y2="120.000000"  transform="rotate(0.000000,129.600000,120.000000)" style="stroke: black; stroke-width:0.25;"/>
<line x1="126.600000" y1="121.000000" x2="129.600000" y2="120.000000"  transform="rotate(0.000000,129.600000,120.000000)" style="stroke: black; stroke-width:0.25;"/>
<line x1="10.000000" y1="24.000000" x2="20.000000" y2="24.000000"  style="stroke:black; stroke-linecap:round; stroke-width:0.25;"/>
<line x1="10.000000" y1="64.000000" x2="20.000000" y2="64.000000"  style="stroke:black; stroke-linecap:round; stroke-width:0.25;"/>
<line x1="10.000000" y1="104.000000" x2="20.000000" y2="104.000000"  style="stroke:black; stroke-linecap:round; stroke-width:0.25;"/>
<line x1="20.000000" y1="24.000000" x2="49.800000" y2="24.000000"  style="stroke:black; stroke-linecap:round; stroke-width:0.25;"/>
<line x1="20.000000" y1="64.000000" x2="49.800000" y2="64.000000"  style="stroke:black; stroke-linecap:round; stroke-width:0.25;"/>
<line x1="20.000000" y1="104.000000" x2="49.800000" y2="104.000000"  style="stroke:black; stroke-linecap:round; stroke-width:0.25;"/>
<line x1="49.800000" y1="24.000000" x2="79.600000" y2="24.000000"  style="stroke:black; stroke-linecap:round; stroke-width:0.25;"/>
<line x1="49.800000" y1="64.000000" x2="79.600000" y2="64.000000"  style="stroke:black; stroke-linecap:round; stroke-width:0.25;"/>
<line x1="49.800000" y1="104.000000" x2="79.600000" y2="104.000000"  style="stroke:black; stroke-linecap:round; stroke-width:0.25;"/>
<line x1="75.600000" y1="44.000000" x2="79.600000" y2="44.000000"  style="stroke:black; stroke-linecap:round; stroke-width:0.25;"/>
<line x1="75.600000" y1="84.000000" x2="79.600000" y2="84.000000"  style="stroke:black; stroke-linecap:round; stroke-width:0.25;"/>
<line x1="75.600000" y1="124.000000" x2="79.600000" y2="124.000000"  style="stroke:black; stroke-linecap:round; stroke-width:0.25;"/>
<line x1="79.600000" y1="24.000000" x2="87.600000" y2="24.000000"  style="stroke:black; stroke-linecap:round; stroke-width:0.25;"/>
<line x1="79.600000" y1="44.000000" x2="87.600000" y2="44.000000"  style="stroke:black; stroke-linecap:round; stroke-width:0.25;"/>
<line x1="79.600000" y1="64.000000" x2="87.600000" y2="64.000000"  style="stroke:black; stroke-linecap:round; stroke-width:0.25;"/>
<line x1="79.600000" y1="84.000000" x2="87.600000" y2="84.000000"  style="stroke:black; stroke-linecap:round; stroke-width:0.25;"/>
<line x1="79.600000" y1="104.000000" x2="87.600000" y2="104.000000"  style="stroke:black; stroke-linecap:round; stroke-width:0.25;"/>
<line x1="79.600000" y1="124.000000" x2="87.600000" y2="124.000000"  style="stroke:black; stroke-linecap:round; stroke-width:0.25;"/>
<line x1="87.600000" y1="24.000000" x2="87.600000" y2="36.000000"  style="stroke:black; stroke-linecap:round; stroke-width:0.25;"/>
<line x1="87.600000" y1="36.000000" x2="87.600000" y2="36.000000"  style="stroke:black; stroke-linecap:round; stroke-width:0.25;"/>
<line x1="87.600000" y1="36.000000" x2="91.600000" y2="36.000000"  style="stroke:black; stroke-linecap:round; stroke-width:0.25;"/>
<line x1="87.600000" y1="44.000000" x2="91.600000" y2="44.000000"  style="stroke:black; stroke-linecap:round; stroke-width:0.25;"/>
<line x1="87.600000" y1="64.000000" x2="87.600000" y2="76.000000"  style="stroke:black; stroke-linecap:round; stroke-width:0.25;"/>
<line x1="87.600000" y1="76.000000" x2="87.600000" y2="76.000000"  style="stroke:black; stroke-linecap:round; stroke-width:0.25;"/>
<line x1="87.600000" y1="76.000000" x2="91.600000" y2="76.000000"  style="stroke:black; stroke-linecap:round; stroke-width:0.25;"/>
<line x1="87.600000" y1="84.000000" x2="91.600000" y2="84.000000"  style="stroke:black; stroke-linecap:round; stroke-width:0.25;"/>
<line x1="87.600000" y1="104.000000" x2="87.600000" y2="116.000000"  style="stroke:black; stroke-linecap:round; stroke-width:0.25;"/>
<line x1="87.600000" y1="116.000000" x2="87.600000" y2="116.000000"  style="stroke:black; stroke-linecap:round; stroke-width:0.25;"/>
<line x1="87.600000" y1="116.000000" x2="91.600000" y2="116.000000"  style="stroke:black; stroke-linecap:round; stroke-width:0.25;"/>
<line x1="87.600000" y1="124.000000" x2="91.600000" y2="124.000000"  style="stroke:black; stroke-linecap:round; stroke-width:0.25;"/>
<line x1="115.600000" y1="40.000000" x2="119.600000" y2="40.000000"  style="stroke:black; stroke-linecap:round; stroke-width:0.25;"/>
<line x1="115.600000" y1="80.000000" x2="119.600000" y2="80.000000"  style="stroke:black; stroke-linecap:round; stroke-width:0.25;"/>
<line x1="115.600000" y1="120.000000" x2="119.600000" y2="120.000000"  style="stroke:black; stroke-linecap:round; stroke-width:0.25;"/>
<line x1="119.600000" y1="40.000000" x2="129.600000" y2="40.000000"  style="stroke:black; stroke-linecap:round; stroke-width:0.25;"/>
<line x1="119.600000" y1="80.000000" x2="129.600000" y2="80.000000"  style="stroke:black; stroke-linecap:round; stroke-width:0.25;"/>
<line x1="119.600000" y1="120.000000" x2="129.600000" y2="120.000000"  style="stroke:black; stroke-linecap:round; stroke-width:0.25;"/>
</svg>
