<?xml version="1.0"?>
<svg xmlns="http://www.w3.org/2000/svg" xmlns:xlink="http://www.w3.org/1999/xlink" viewBox="0 0 171.840000 156.000000" width="85.920000mm" height="78.000000mm" version="1.1">
<defs>
   <filter id="filter" filterRes="18" x="0" y="0">
     <feGaussianBlur in="SourceGraphic" stdDeviation="1.55" result="blur"/>
     <feOffset in="blur" dx="3" dy="3"/>
   </filter>
</defs>
<a xlink:href="SH-0x28b4200.svg">
<rect x="1.000000" y="1.000000" width="170.840000" height="155.000000" rx="0.1" ry="0.1" style="stroke:none;fill:#aaaaaa;;filter:url(#filter);"/>
<rect x="0.000000" y="0.000000" width="170.840000" height="155.000000" rx="0" ry="0" style="stroke:none;fill:#ffffff;"/>
</a>
<text x="10.000000" y="7.000000" font-family="Arial" font-size="7"></text>
<a xlink:href="noiser-0x2862880.svg">
<rect x="25.000000" y="25.000000" width="25.800000" height="24.000000" rx="0.1" ry="0.1" style="stroke:none;fill:#aaaaaa;;filter:url(#filter);"/>
<rect x="24.000000" y="24.000000" width="25.800000" height="24.000000" rx="0" ry="0" style="stroke:none;fill:#003366;"/>
</a>
<a xlink:href="noiser-0x2862880.svg">
<text x="36.900000" y="38.000000" font-family="Arial" font-size="7" text-anchor="middle" fill="#FFFFFF">noiser</text>
</a>
<circle cx="26.000000" cy="26.000000" r="1"/>
<rect x="34.920000" y="57.000000" width="24.000000" height="24.000000" rx="0.1" ry="0.1" style="stroke:none;fill:#aaaaaa;;filter:url(#filter);"/>
<rect x="33.920000" y="56.000000" width="24.000000" height="24.000000" rx="0" ry="0" style="stroke:none;fill:#f44800;"/>
<text x="45.920000" y="70.000000" font-family="Arial" font-size="7" text-anchor="middle" fill="#FFFFFF">1</text>
<circle cx="35.920000" cy="58.000000" r="1"/>
<rect x="84.840000" y="41.000000" width="24.000000" height="24.000000" rx="0.1" ry="0.1" style="stroke:none;fill:#aaaaaa;;filter:url(#filter);"/>
<rect x="83.840000" y="40.000000" width="24.000000" height="24.000000" rx="0" ry="0" style="stroke:none;fill:#4B71A1;"/>
<text x="95.840000" y="54.000000" font-family="Arial" font-size="7" text-anchor="middle" fill="#FFFFFF">+</text>
<circle cx="85.840000" cy="42.000000" r="1"/>
<line x1="80.840000" y1="47.000000" x2="83.840000" y2="48.000000"  transform="rotate(0.000000,83.840000,48.000000)" style="stroke: black; stroke-width:0.25;"/>
<line x1="80.840000" y1="49.000000" x2="83.840000" y2="48.000000"  transform="rotate(0.000000,83.840000,48.000000)" style="stroke: black; stroke-width:0.25;"/>
<line x1="80.840000" y1="55.000000" x2="83.840000" y2="56.000000"  transform="rotate(0.000000,83.840000,56.000000)" style="stroke: black; stroke-width:0.25;"/>
<line x1="80.840000" y1="57.000000" x2="83.840000" y2="56.000000"  transform="rotate(0.000000,83.840000,56.000000)" style="stroke: black; stroke-width:0.25;"/>
<rect x="54.920000" y="99.000000" width="24.000000" height="24.000000" rx="0.1" ry="0.1" style="stroke:none;fill:#aaaaaa;;filter:url(#filter);"/>
<rect x="53.920000" y="98.000000" width="24.000000" height="24.000000" rx="0" ry="0" style="stroke:none;fill:#f44800;"/>
<text x="65.920000" y="112.000000" font-family="Arial" font-size="7" text-anchor="middle" fill="#FFFFFF">2</text>
<circle cx="55.920000" cy="100.000000" r="1"/>
<line x1="44.920000" y1="89.000000" x2="44.920000" y2="131.000000"  style="stroke: black; stroke-linecap:round; stroke-width:0.25; stroke-dasharray:3,3;"/>
<line x1="44.920000" y1="131.000000" x2="86.920000" y2="131.000000"  style="stroke: black; stroke-linecap:round; stroke-width:0.25; stroke-dasharray:3,3;"/>
<line x1="86.920000" y1="131.000000" x2="86.920000" y2="89.000000"  style="stroke: black; stroke-linecap:round; stroke-width:0.25; stroke-dasharray:3,3;"/>
<line x1="44.920000" y1="89.000000" x2="49.920000" y2="89.000000"  style="stroke: black; stroke-linecap:round; stroke-width:0.25; stroke-dasharray:3,3;"/>
<line x1="69.270000" y1="89.000000" x2="86.920000" y2="89.000000"  style="stroke: black; stroke-linecap:round; stroke-width:0.25; stroke-dasharray:3,3;"/>
<text x="49.920000" y="91.000000" font-family="Arial" font-size="7">maxN</text>
<rect x="124.840000" y="67.000000" width="24.000000" height="24.000000" rx="0.1" ry="0.1" style="stroke:none;fill:#aaaaaa;;filter:url(#filter);"/>
<rect x="123.840000" y="66.000000" width="24.000000" height="24.000000" rx="0" ry="0" style="stroke:none;fill:#4B71A1;"/>
<text x="135.840000" y="80.000000" font-family="Arial" font-size="7" text-anchor="middle" fill="#FFFFFF">/</text>
<circle cx="125.840000" cy="68.000000" r="1"/>
<line x1="120.840000" y1="73.000000" x2="123.840000" y2="74.000000"  transform="rotate(0.000000,123.840000,74.000000)" style="stroke: black; stroke-width:0.25;"/>
<line x1="120.840000" y1="75.000000" x2="123.840000" y2="74.000000"  transform="rotate(0.000000,123.840000,74.000000)" style="stroke: black; stroke-width:0.25;"/>
<line x1="120.840000" y1="81.000000" x2="123.840000" y2="82.000000"  transform="rotate(0.000000,123.840000,82.000000)" style="stroke: black; stroke-width:0.25;"/>
<line x1="120.840000" y1="83.000000" x2="123.840000" y2="82.000000"  transform="rotate(0.000000,123.840000,82.000000)" style="stroke: black; stroke-width:0.25;"/>
<line x1="15.000000" y1="15.000000" x2="15.000000" y2="141.000000"  style="stroke: black; stroke-linecap:round; stroke-width:0.25; stroke-dasharray:3,3;"/>
<line x1="15.000000" y1="141.000000" x2="156.840000" y2="141.000000"  style="stroke: black; stroke-linecap:round; stroke-width:0.25; stroke-dasharray:3,3;"/>
<line x1="156.840000" y1="141.000000" x2="156.840000" y2="15.000000"  style="stroke: black; stroke-linecap:round; stroke-width:0.25; stroke-dasharray:3,3;"/>
<line x1="15.000000" y1="15.000000" x2="20.000000" y2="15.000000"  style="stroke: black; stroke-linecap:round; stroke-width:0.25; stroke-dasharray:3,3;"/>
<line x1="52.250000" y1="15.000000" x2="156.840000" y2="15.000000"  style="stroke: black; stroke-linecap:round; stroke-width:0.25; stroke-dasharray:3,3;"/>
<text x="20.000000" y="17.000000" font-family="Arial" font-size="7">noise(0)</text>
<line x1="158.840000" y1="77.000000" x2="161.840000" y2="78.000000"  transform="rotate(0.000000,161.840000,78.000000)" style="stroke: black; stroke-width:0.25;"/>
<line x1="158.840000" y1="79.000000" x2="161.840000" y2="78.000000"  transform="rotate(0.000000,161.840000,78.000000)" style="stroke: black; stroke-width:0.25;"/>
<line x1="49.800000" y1="28.000000" x2="53.800000" y2="28.000000"  style="stroke:black; stroke-linecap:round; stroke-width:0.25;"/>
<line x1="53.800000" y1="28.000000" x2="63.840000" y2="35.920000"  style="stroke:black; stroke-linecap:round; stroke-width:0.25;"/>
<line x1="57.920000" y1="68.000000" x2="61.920000" y2="68.000000"  style="stroke:black; stroke-linecap:round; stroke-width:0.25;"/>
<line x1="61.920000" y1="68.000000" x2="71.840000" y2="68.000000"  style="stroke:black; stroke-linecap:round; stroke-width:0.25;"/>
<line x1="63.840000" y1="35.920000" x2="67.840000" y2="35.920000"  style="stroke:black; stroke-linecap:round; stroke-width:0.25;"/>
<line x1="67.840000" y1="35.920000" x2="71.840000" y2="35.920000"  style="stroke:black; stroke-linecap:round; stroke-width:0.25;"/>
<line x1="71.840000" y1="35.920000" x2="79.840000" y2="35.920000"  style="stroke:black; stroke-linecap:round; stroke-width:0.25;"/>
<line x1="71.840000" y1="56.000000" x2="79.840000" y2="56.000000"  style="stroke:black; stroke-linecap:round; stroke-width:0.25;"/>
<line x1="71.840000" y1="68.000000" x2="71.840000" y2="56.000000"  style="stroke:black; stroke-linecap:round; stroke-width:0.25;"/>
<line x1="71.840000" y1="68.000000" x2="71.840000" y2="68.000000"  style="stroke:black; stroke-linecap:round; stroke-width:0.25;"/>
<line x1="77.920000" y1="110.000000" x2="81.920000" y2="110.000000"  style="stroke:black; stroke-linecap:round; stroke-width:0.25;"/>
<line x1="79.840000" y1="35.920000" x2="79.840000" y2="48.000000"  style="stroke:black; stroke-linecap:round; stroke-width:0.25;"/>
<line x1="79.840000" y1="48.000000" x2="79.840000" y2="48.000000"  style="stroke:black; stroke-linecap:round; stroke-width:0.25;"/>
<line x1="79.840000" y1="48.000000" x2="83.840000" y2="48.000000"  style="stroke:black; stroke-linecap:round; stroke-width:0.25;"/>
<line x1="79.840000" y1="56.000000" x2="83.840000" y2="56.000000"  style="stroke:black; stroke-linecap:round; stroke-width:0.25;"/>
<line x1="81.920000" y1="110.000000" x2="91.920000" y2="110.000000"  style="stroke:black; stroke-linecap:round; stroke-width:0.25;"/>
<line x1="91.920000" y1="110.000000" x2="111.840000" y2="110.000000"  style="stroke:black; stroke-linecap:round; stroke-width:0.25;"/>
<line x1="107.840000" y1="52.000000" x2="111.840000" y2="52.000000"  style="stroke:black; stroke-linecap:round; stroke-width:0.25;"/>
<line x1="111.840000" y1="52.000000" x2="119.840000" y2="52.000000"  style="stroke:black; stroke-linecap:round; stroke-width:0.25;"/>
<line x1="111.840000" y1="82.000000" x2="119.840000" y2="82.000000"  style="stroke:black; stroke-linecap:round; stroke-width:0.25;"/>
<line x1="111.840000" y1="110.000000" x2="111.840000" y2="82.000000"  style="stroke:black; stroke-linecap:round; stroke-width:0.25;"/>
<line x1="111.840000" y1="110.000000" x2="111.840000" y2="110.000000"  style="stroke:black; stroke-linecap:round; stroke-width:0.25;"/>
<line x1="119.840000" y1="52.000000" x2="119.840000" y2="74.000000"  style="stroke:black; stroke-linecap:round; stroke-width:0.25;"/>
<line x1="119.840000" y1="74.000000" x2="119.840000" y2="74.000000"  style="stroke:black; stroke-linecap:round; stroke-width:0.25;"/>
<line x1="119.840000" y1="74.000000" x2="123.840000" y2="74.000000"  style="stroke:black; stroke-linecap:round; stroke-width:0.25;"/>
<line x1="119.840000" y1="82.000000" x2="123.840000" y2="82.000000"  style="stroke:black; stroke-linecap:round; stroke-width:0.25;"/>
<line x1="147.840000" y1="78.000000" x2="151.840000" y2="78.000000"  style="stroke:black; stroke-linecap:round; stroke-width:0.25;"/>
<line x1="151.840000" y1="78.000000" x2="161.840000" y2="78.000000"  style="stroke:black; stroke-linecap:round; stroke-width:0.25;"/>
</svg>
