<?xml version="1.0"?>
<svg xmlns="http://www.w3.org/2000/svg" xmlns:xlink="http://www.w3.org/1999/xlink" viewBox="0 0 422.400000 80.000000" width="211.200000mm" height="40.000000mm" version="1.1">
<a xlink:href="Del-0x2ac0540.svg">
<rect x="1.000000" y="1.000000" width="421.400000" height="79.000000" rx="0" ry="0" style="stroke:none;fill:#cccccc;"/>
<rect x="0.000000" y="0.000000" width="421.400000" height="79.000000" rx="0" ry="0" style="stroke:none;fill:#ffffff;"/>
</a>
<text x="10.000000" y="7.000000" font-family="Arial" font-size="7"></text>
<rect x="25.000000" y="29.000000" width="206.400000" height="24.000000" rx="0" ry="0" style="stroke:none;fill:#cccccc;"/>
<rect x="24.000000" y="28.000000" width="206.400000" height="24.000000" rx="0" ry="0" style="stroke:none;fill:#477881;"/>
<text x="127.200000" y="42.000000" font-family="Arial" font-size="7" text-anchor="middle" fill="#FFFFFF">hslider(Pre-DelTime&apos;s, 0.6f, 0.0f, 15.0f, 0.1f)</text>
<circle cx="26.000000" cy="30.000000" r="1"/>
<rect x="247.400000" y="25.000000" width="24.000000" height="24.000000" rx="0" ry="0" style="stroke:none;fill:#cccccc;"/>
<rect x="246.400000" y="24.000000" width="24.000000" height="24.000000" rx="0" ry="0" style="stroke:none;fill:#f44800;"/>
<text x="258.400000" y="38.000000" font-family="Arial" font-size="7" text-anchor="middle" fill="#FFFFFF">0</text>
<circle cx="248.400000" cy="26.000000" r="1"/>
<rect x="287.400000" y="29.000000" width="24.000000" height="24.000000" rx="0" ry="0" style="stroke:none;fill:#cccccc;"/>
<rect x="286.400000" y="28.000000" width="24.000000" height="24.000000" rx="0" ry="0" style="stroke:none;fill:#4B71A1;"/>
<text x="298.400000" y="42.000000" font-family="Arial" font-size="7" text-anchor="middle" fill="#FFFFFF">max</text>
<circle cx="288.400000" cy="30.000000" r="1"/>
<line x1="283.400000" y1="35.000000" x2="286.400000" y2="36.000000"  transform="rotate(0.000000,286.400000,36.000000)" style="stroke: black; stroke-width:0.25;"/>
<line x1="283.400000" y1="37.000000" x2="286.400000" y2="36.000000"  transform="rotate(0.000000,286.400000,36.000000)" style="stroke: black; stroke-width:0.25;"/>
<line x1="283.400000" y1="43.000000" x2="286.400000" y2="44.000000"  transform="rotate(0.000000,286.400000,44.000000)" style="stroke: black; stroke-width:0.25;"/>
<line x1="283.400000" y1="45.000000" x2="286.400000" y2="44.000000"  transform="rotate(0.000000,286.400000,44.000000)" style="stroke: black; stroke-width:0.25;"/>
<rect x="327.400000" y="25.000000" width="24.000000" height="24.000000" rx="0" ry="0" style="stroke:none;fill:#cccccc;"/>
<rect x="326.400000" y="24.000000" width="24.000000" height="24.000000" rx="0" ry="0" style="stroke:none;fill:#f44800;"/>
<text x="338.400000" y="38.000000" font-family="Arial" font-size="7" text-anchor="middle" fill="#FFFFFF">15</text>
<circle cx="328.400000" cy="26.000000" r="1"/>
<rect x="367.400000" y="29.000000" width="24.000000" height="24.000000" rx="0" ry="0" style="stroke:none;fill:#cccccc;"/>
<rect x="366.400000" y="28.000000" width="24.000000" height="24.000000" rx="0" ry="0" style="stroke:none;fill:#4B71A1;"/>
<text x="378.400000" y="42.000000" font-family="Arial" font-size="7" text-anchor="middle" fill="#FFFFFF">min</text>
<circle cx="368.400000" cy="30.000000" r="1"/>
<line x1="363.400000" y1="35.000000" x2="366.400000" y2="36.000000"  transform="rotate(0.000000,366.400000,36.000000)" style="stroke: black; stroke-width:0.25;"/>
<line x1="363.400000" y1="37.000000" x2="366.400000" y2="36.000000"  transform="rotate(0.000000,366.400000,36.000000)" style="stroke: black; stroke-width:0.25;"/>
<line x1="363.400000" y1="43.000000" x2="366.400000" y2="44.000000"  transform="rotate(0.000000,366.400000,44.000000)" style="stroke: black; stroke-width:0.25;"/>
<line x1="363.400000" y1="45.000000" x2="366.400000" y2="44.000000"  transform="rotate(0.000000,366.400000,44.000000)" style="stroke: black; stroke-width:0.25;"/>
<line x1="15.000000" y1="15.000000" x2="15.000000" y2="65.000000"  style="stroke: black; stroke-linecap:round; stroke-width:0.25; stroke-dasharray:3,3;"/>
<line x1="15.000000" y1="65.000000" x2="407.400000" y2="65.000000"  style="stroke: black; stroke-linecap:round; stroke-width:0.25; stroke-dasharray:3,3;"/>
<line x1="407.400000" y1="65.000000" x2="407.400000" y2="15.000000"  style="stroke: black; stroke-linecap:round; stroke-width:0.25; stroke-dasharray:3,3;"/>
<line x1="15.000000" y1="15.000000" x2="20.000000" y2="15.000000"  style="stroke: black; stroke-linecap:round; stroke-width:0.25; stroke-dasharray:3,3;"/>
<line x1="49.025000" y1="15.000000" x2="407.400000" y2="15.000000"  style="stroke: black; stroke-linecap:round; stroke-width:0.25; stroke-dasharray:3,3;"/>
<text x="20.000000" y="17.000000" font-family="Arial" font-size="7">DelTime</text>
<line x1="409.400000" y1="39.000000" x2="412.400000" y2="40.000000"  transform="rotate(0.000000,412.400000,40.000000)" style="stroke: black; stroke-width:0.25;"/>
<line x1="409.400000" y1="41.000000" x2="412.400000" y2="40.000000"  transform="rotate(0.000000,412.400000,40.000000)" style="stroke: black; stroke-width:0.25;"/>
<line x1="230.400000" y1="40.000000" x2="234.400000" y2="40.000000"  style="stroke:black; stroke-linecap:round; stroke-width:0.25;"/>
<line x1="234.400000" y1="40.000000" x2="242.400000" y2="40.000000"  style="stroke:black; stroke-linecap:round; stroke-width:0.25;"/>
<line x1="242.400000" y1="40.000000" x2="242.400000" y2="56.000000"  style="stroke:black; stroke-linecap:round; stroke-width:0.25;"/>
<line x1="242.400000" y1="56.000000" x2="242.400000" y2="56.000000"  style="stroke:black; stroke-linecap:round; stroke-width:0.25;"/>
<line x1="242.400000" y1="56.000000" x2="258.400000" y2="56.000000"  style="stroke:black; stroke-linecap:round; stroke-width:0.25;"/>
<line x1="258.400000" y1="56.000000" x2="274.400000" y2="56.000000"  style="stroke:black; stroke-linecap:round; stroke-width:0.25;"/>
<line x1="270.400000" y1="36.000000" x2="274.400000" y2="36.000000"  style="stroke:black; stroke-linecap:round; stroke-width:0.25;"/>
<line x1="274.400000" y1="36.000000" x2="282.400000" y2="36.000000"  style="stroke:black; stroke-linecap:round; stroke-width:0.25;"/>
<line x1="274.400000" y1="44.000000" x2="282.400000" y2="44.000000"  style="stroke:black; stroke-linecap:round; stroke-width:0.25;"/>
<line x1="274.400000" y1="56.000000" x2="274.400000" y2="44.000000"  style="stroke:black; stroke-linecap:round; stroke-width:0.25;"/>
<line x1="274.400000" y1="56.000000" x2="274.400000" y2="56.000000"  style="stroke:black; stroke-linecap:round; stroke-width:0.25;"/>
<line x1="282.400000" y1="36.000000" x2="286.400000" y2="36.000000"  style="stroke:black; stroke-linecap:round; stroke-width:0.25;"/>
<line x1="282.400000" y1="44.000000" x2="286.400000" y2="44.000000"  style="stroke:black; stroke-linecap:round; stroke-width:0.25;"/>
<line x1="310.400000" y1="40.000000" x2="314.400000" y2="40.000000"  style="stroke:black; stroke-linecap:round; stroke-width:0.25;"/>
<line x1="314.400000" y1="40.000000" x2="322.400000" y2="40.000000"  style="stroke:black; stroke-linecap:round; stroke-width:0.25;"/>
<line x1="322.400000" y1="40.000000" x2="322.400000" y2="56.000000"  style="stroke:black; stroke-linecap:round; stroke-width:0.25;"/>
<line x1="322.400000" y1="56.000000" x2="322.400000" y2="56.000000"  style="stroke:black; stroke-linecap:round; stroke-width:0.25;"/>
<line x1="322.400000" y1="56.000000" x2="338.400000" y2="56.000000"  style="stroke:black; stroke-linecap:round; stroke-width:0.25;"/>
<line x1="338.400000" y1="56.000000" x2="354.400000" y2="56.000000"  style="stroke:black; stroke-linecap:round; stroke-width:0.25;"/>
<line x1="350.400000" y1="36.000000" x2="354.400000" y2="36.000000"  style="stroke:black; stroke-linecap:round; stroke-width:0.25;"/>
<line x1="354.400000" y1="36.000000" x2="362.400000" y2="36.000000"  style="stroke:black; stroke-linecap:round; stroke-width:0.25;"/>
<line x1="354.400000" y1="44.000000" x2="362.400000" y2="44.000000"  style="stroke:black; stroke-linecap:round; stroke-width:0.25;"/>
<line x1="354.400000" y1="56.000000" x2="354.400000" y2="44.000000"  style="stroke:black; stroke-linecap:round; stroke-width:0.25;"/>
<line x1="354.400000" y1="56.000000" x2="354.400000" y2="56.000000"  style="stroke:black; stroke-linecap:round; stroke-width:0.25;"/>
<line x1="362.400000" y1="36.000000" x2="366.400000" y2="36.000000"  style="stroke:black; stroke-linecap:round; stroke-width:0.25;"/>
<line x1="362.400000" y1="44.000000" x2="366.400000" y2="44.000000"  style="stroke:black; stroke-linecap:round; stroke-width:0.25;"/>
<line x1="390.400000" y1="40.000000" x2="394.400000" y2="40.000000"  style="stroke:black; stroke-linecap:round; stroke-width:0.25;"/>
<line x1="394.400000" y1="40.000000" x2="394.400000" y2="40.000000"  style="stroke:black; stroke-linecap:round; stroke-width:0.25;"/>
<line x1="394.400000" y1="40.000000" x2="398.400000" y2="40.000000"  style="stroke:black; stroke-linecap:round; stroke-width:0.25;"/>
<line x1="398.400000" y1="40.000000" x2="402.400000" y2="40.000000"  style="stroke:black; stroke-linecap:round; stroke-width:0.25;"/>
<line x1="402.400000" y1="40.000000" x2="412.400000" y2="40.000000"  style="stroke:black; stroke-linecap:round; stroke-width:0.25;"/>
</svg>
