<?xml version="1.0"?>
<svg xmlns="http://www.w3.org/2000/svg" xmlns:xlink="http://www.w3.org/1999/xlink" viewBox="0 0 149.400000 112.000000" width="74.700000mm" height="56.000000mm" version="1.1">
<rect x="1.000000" y="1.000000" width="148.400000" height="111.000000" rx="0" ry="0" style="stroke:none;fill:#cccccc;"/>
<rect x="0.000000" y="0.000000" width="148.400000" height="111.000000" rx="0" ry="0" style="stroke:none;fill:#ffffff;"/>
<text x="10.000000" y="7.000000" font-family="Arial" font-size="7"></text>
<a xlink:href="Early-0x2ac0760.svg">
<rect x="33.000000" y="25.000000" width="25.800000" height="64.000000" rx="0" ry="0" style="stroke:none;fill:#cccccc;"/>
<rect x="32.000000" y="24.000000" width="25.800000" height="64.000000" rx="0" ry="0" style="stroke:none;fill:#003366;"/>
</a>
<a xlink:href="Early-0x2ac0760.svg">
<text x="44.900000" y="58.000000" font-family="Arial" font-size="7" text-anchor="middle" fill="#FFFFFF">Early</text>
</a>
<circle cx="34.000000" cy="26.000000" r="1"/>
<line x1="29.000000" y1="55.000000" x2="32.000000" y2="56.000000"  transform="rotate(0.000000,32.000000,56.000000)" style="stroke: black; stroke-width:0.25;"/>
<line x1="29.000000" y1="57.000000" x2="32.000000" y2="56.000000"  transform="rotate(0.000000,32.000000,56.000000)" style="stroke: black; stroke-width:0.25;"/>
<a xlink:href="Febaroute2-0x2b88190.svg">
<rect x="66.800000" y="25.000000" width="51.600000" height="64.000000" rx="0" ry="0" style="stroke:none;fill:#cccccc;"/>
<rect x="65.800000" y="24.000000" width="51.600000" height="64.000000" rx="0" ry="0" style="stroke:none;fill:#003366;"/>
</a>
<a xlink:href="Febaroute2-0x2b88190.svg">
<text x="91.600000" y="58.000000" font-family="Arial" font-size="7" text-anchor="middle" fill="#FFFFFF">Febaroute2</text>
</a>
<circle cx="67.800000" cy="26.000000" r="1"/>
<line x1="62.800000" y1="27.000000" x2="65.800000" y2="28.000000"  transform="rotate(0.000000,65.800000,28.000000)" style="stroke: black; stroke-width:0.25;"/>
<line x1="62.800000" y1="29.000000" x2="65.800000" y2="28.000000"  transform="rotate(0.000000,65.800000,28.000000)" style="stroke: black; stroke-width:0.25;"/>
<line x1="62.800000" y1="35.000000" x2="65.800000" y2="36.000000"  transform="rotate(0.000000,65.800000,36.000000)" style="stroke: black; stroke-width:0.25;"/>
<line x1="62.800000" y1="37.000000" x2="65.800000" y2="36.000000"  transform="rotate(0.000000,65.800000,36.000000)" style="stroke: black; stroke-width:0.25;"/>
<line x1="62.800000" y1="43.000000" x2="65.800000" y2="44.000000"  transform="rotate(0.000000,65.800000,44.000000)" style="stroke: black; stroke-width:0.25;"/>
<line x1="62.800000" y1="45.000000" x2="65.800000" y2="44.000000"  transform="rotate(0.000000,65.800000,44.000000)" style="stroke: black; stroke-width:0.25;"/>
<line x1="62.800000" y1="51.000000" x2="65.800000" y2="52.000000"  transform="rotate(0.000000,65.800000,52.000000)" style="stroke: black; stroke-width:0.25;"/>
<line x1="62.800000" y1="53.000000" x2="65.800000" y2="52.000000"  transform="rotate(0.000000,65.800000,52.000000)" style="stroke: black; stroke-width:0.25;"/>
<line x1="62.800000" y1="59.000000" x2="65.800000" y2="60.000000"  transform="rotate(0.000000,65.800000,60.000000)" style="stroke: black; stroke-width:0.25;"/>
<line x1="62.800000" y1="61.000000" x2="65.800000" y2="60.000000"  transform="rotate(0.000000,65.800000,60.000000)" style="stroke: black; stroke-width:0.25;"/>
<line x1="62.800000" y1="67.000000" x2="65.800000" y2="68.000000"  transform="rotate(0.000000,65.800000,68.000000)" style="stroke: black; stroke-width:0.25;"/>
<line x1="62.800000" y1="69.000000" x2="65.800000" y2="68.000000"  transform="rotate(0.000000,65.800000,68.000000)" style="stroke: black; stroke-width:0.25;"/>
<line x1="62.800000" y1="75.000000" x2="65.800000" y2="76.000000"  transform="rotate(0.000000,65.800000,76.000000)" style="stroke: black; stroke-width:0.25;"/>
<line x1="62.800000" y1="77.000000" x2="65.800000" y2="76.000000"  transform="rotate(0.000000,65.800000,76.000000)" style="stroke: black; stroke-width:0.25;"/>
<line x1="62.800000" y1="83.000000" x2="65.800000" y2="84.000000"  transform="rotate(0.000000,65.800000,84.000000)" style="stroke: black; stroke-width:0.25;"/>
<line x1="62.800000" y1="85.000000" x2="65.800000" y2="84.000000"  transform="rotate(0.000000,65.800000,84.000000)" style="stroke: black; stroke-width:0.25;"/>
<line x1="15.000000" y1="15.000000" x2="15.000000" y2="97.000000"  style="stroke: black; stroke-linecap:round; stroke-width:0.25; stroke-dasharray:3,3;"/>
<line x1="15.000000" y1="97.000000" x2="134.400000" y2="97.000000"  style="stroke: black; stroke-linecap:round; stroke-width:0.25; stroke-dasharray:3,3;"/>
<line x1="134.400000" y1="97.000000" x2="134.400000" y2="15.000000"  style="stroke: black; stroke-linecap:round; stroke-width:0.25; stroke-dasharray:3,3;"/>
<line x1="15.000000" y1="15.000000" x2="20.000000" y2="15.000000"  style="stroke: black; stroke-linecap:round; stroke-width:0.25; stroke-dasharray:3,3;"/>
<line x1="49.025000" y1="15.000000" x2="134.400000" y2="15.000000"  style="stroke: black; stroke-linecap:round; stroke-width:0.25; stroke-dasharray:3,3;"/>
<text x="20.000000" y="17.000000" font-family="Arial" font-size="7">process</text>
<line x1="136.400000" y1="27.000000" x2="139.400000" y2="28.000000"  transform="rotate(0.000000,139.400000,28.000000)" style="stroke: black; stroke-width:0.25;"/>
<line x1="136.400000" y1="29.000000" x2="139.400000" y2="28.000000"  transform="rotate(0.000000,139.400000,28.000000)" style="stroke: black; stroke-width:0.25;"/>
<line x1="136.400000" y1="35.000000" x2="139.400000" y2="36.000000"  transform="rotate(0.000000,139.400000,36.000000)" style="stroke: black; stroke-width:0.25;"/>
<line x1="136.400000" y1="37.000000" x2="139.400000" y2="36.000000"  transform="rotate(0.000000,139.400000,36.000000)" style="stroke: black; stroke-width:0.25;"/>
<line x1="136.400000" y1="43.000000" x2="139.400000" y2="44.000000"  transform="rotate(0.000000,139.400000,44.000000)" style="stroke: black; stroke-width:0.25;"/>
<line x1="136.400000" y1="45.000000" x2="139.400000" y2="44.000000"  transform="rotate(0.000000,139.400000,44.000000)" style="stroke: black; stroke-width:0.25;"/>
<line x1="136.400000" y1="51.000000" x2="139.400000" y2="52.000000"  transform="rotate(0.000000,139.400000,52.000000)" style="stroke: black; stroke-width:0.25;"/>
<line x1="136.400000" y1="53.000000" x2="139.400000" y2="52.000000"  transform="rotate(0.000000,139.400000,52.000000)" style="stroke: black; stroke-width:0.25;"/>
<line x1="136.400000" y1="59.000000" x2="139.400000" y2="60.000000"  transform="rotate(0.000000,139.400000,60.000000)" style="stroke: black; stroke-width:0.25;"/>
<line x1="136.400000" y1="61.000000" x2="139.400000" y2="60.000000"  transform="rotate(0.000000,139.400000,60.000000)" style="stroke: black; stroke-width:0.25;"/>
<line x1="136.400000" y1="67.000000" x2="139.400000" y2="68.000000"  transform="rotate(0.000000,139.400000,68.000000)" style="stroke: black; stroke-width:0.25;"/>
<line x1="136.400000" y1="69.000000" x2="139.400000" y2="68.000000"  transform="rotate(0.000000,139.400000,68.000000)" style="stroke: black; stroke-width:0.25;"/>
<line x1="136.400000" y1="75.000000" x2="139.400000" y2="76.000000"  transform="rotate(0.000000,139.400000,76.000000)" style="stroke: black; stroke-width:0.25;"/>
<line x1="136.400000" y1="77.000000" x2="139.400000" y2="76.000000"  transform="rotate(0.000000,139.400000,76.000000)" style="stroke: black; stroke-width:0.25;"/>
<line x1="136.400000" y1="83.000000" x2="139.400000" y2="84.000000"  transform="rotate(0.000000,139.400000,84.000000)" style="stroke: black; stroke-width:0.25;"/>
<line x1="136.400000" y1="85.000000" x2="139.400000" y2="84.000000"  transform="rotate(0.000000,139.400000,84.000000)" style="stroke: black; stroke-width:0.25;"/>
<line x1="10.000000" y1="56.000000" x2="20.000000" y2="56.000000"  style="stroke:black; stroke-linecap:round; stroke-width:0.25;"/>
<line x1="20.000000" y1="56.000000" x2="24.000000" y2="56.000000"  style="stroke:black; stroke-linecap:round; stroke-width:0.25;"/>
<line x1="24.000000" y1="56.000000" x2="28.000000" y2="56.000000"  style="stroke:black; stroke-linecap:round; stroke-width:0.25;"/>
<line x1="28.000000" y1="56.000000" x2="28.000000" y2="56.000000"  style="stroke:black; stroke-linecap:round; stroke-width:0.25;"/>
<line x1="28.000000" y1="56.000000" x2="32.000000" y2="56.000000"  style="stroke:black; stroke-linecap:round; stroke-width:0.25;"/>
<line x1="57.800000" y1="28.000000" x2="61.800000" y2="28.000000"  style="stroke:black; stroke-linecap:round; stroke-width:0.25;"/>
<line x1="57.800000" y1="36.000000" x2="61.800000" y2="36.000000"  style="stroke:black; stroke-linecap:round; stroke-width:0.25;"/>
<line x1="57.800000" y1="44.000000" x2="61.800000" y2="44.000000"  style="stroke:black; stroke-linecap:round; stroke-width:0.25;"/>
<line x1="57.800000" y1="52.000000" x2="61.800000" y2="52.000000"  style="stroke:black; stroke-linecap:round; stroke-width:0.25;"/>
<line x1="57.800000" y1="60.000000" x2="61.800000" y2="60.000000"  style="stroke:black; stroke-linecap:round; stroke-width:0.25;"/>
<line x1="57.800000" y1="68.000000" x2="61.800000" y2="68.000000"  style="stroke:black; stroke-linecap:round; stroke-width:0.25;"/>
<line x1="57.800000" y1="76.000000" x2="61.800000" y2="76.000000"  style="stroke:black; stroke-linecap:round; stroke-width:0.25;"/>
<line x1="57.800000" y1="84.000000" x2="61.800000" y2="84.000000"  style="stroke:black; stroke-linecap:round; stroke-width:0.25;"/>
<line x1="61.800000" y1="28.000000" x2="61.800000" y2="28.000000"  style="stroke:black; stroke-linecap:round; stroke-width:0.25;"/>
<line x1="61.800000" y1="28.000000" x2="65.800000" y2="28.000000"  style="stroke:black; stroke-linecap:round; stroke-width:0.25;"/>
<line x1="61.800000" y1="36.000000" x2="61.800000" y2="36.000000"  style="stroke:black; stroke-linecap:round; stroke-width:0.25;"/>
<line x1="61.800000" y1="36.000000" x2="65.800000" y2="36.000000"  style="stroke:black; stroke-linecap:round; stroke-width:0.25;"/>
<line x1="61.800000" y1="44.000000" x2="61.800000" y2="44.000000"  style="stroke:black; stroke-linecap:round; stroke-width:0.25;"/>
<line x1="61.800000" y1="44.000000" x2="65.800000" y2="44.000000"  style="stroke:black; stroke-linecap:round; stroke-width:0.25;"/>
<line x1="61.800000" y1="52.000000" x2="61.800000" y2="52.000000"  style="stroke:black; stroke-linecap:round; stroke-width:0.25;"/>
<line x1="61.800000" y1="52.000000" x2="65.800000" y2="52.000000"  style="stroke:black; stroke-linecap:round; stroke-width:0.25;"/>
<line x1="61.800000" y1="60.000000" x2="61.800000" y2="60.000000"  style="stroke:black; stroke-linecap:round; stroke-width:0.25;"/>
<line x1="61.800000" y1="60.000000" x2="65.800000" y2="60.000000"  style="stroke:black; stroke-linecap:round; stroke-width:0.25;"/>
<line x1="61.800000" y1="68.000000" x2="61.800000" y2="68.000000"  style="stroke:black; stroke-linecap:round; stroke-width:0.25;"/>
<line x1="61.800000" y1="68.000000" x2="65.800000" y2="68.000000"  style="stroke:black; stroke-linecap:round; stroke-width:0.25;"/>
<line x1="61.800000" y1="76.000000" x2="61.800000" y2="76.000000"  style="stroke:black; stroke-linecap:round; stroke-width:0.25;"/>
<line x1="61.800000" y1="76.000000" x2="65.800000" y2="76.000000"  style="stroke:black; stroke-linecap:round; stroke-width:0.25;"/>
<line x1="61.800000" y1="84.000000" x2="61.800000" y2="84.000000"  style="stroke:black; stroke-linecap:round; stroke-width:0.25;"/>
<line x1="61.800000" y1="84.000000" x2="65.800000" y2="84.000000"  style="stroke:black; stroke-linecap:round; stroke-width:0.25;"/>
<line x1="117.400000" y1="28.000000" x2="121.400000" y2="28.000000"  style="stroke:black; stroke-linecap:round; stroke-width:0.25;"/>
<line x1="117.400000" y1="36.000000" x2="121.400000" y2="36.000000"  style="stroke:black; stroke-linecap:round; stroke-width:0.25;"/>
<line x1="117.400000" y1="44.000000" x2="121.400000" y2="44.000000"  style="stroke:black; stroke-linecap:round; stroke-width:0.25;"/>
<line x1="117.400000" y1="52.000000" x2="121.400000" y2="52.000000"  style="stroke:black; stroke-linecap:round; stroke-width:0.25;"/>
<line x1="117.400000" y1="60.000000" x2="121.400000" y2="60.000000"  style="stroke:black; stroke-linecap:round; stroke-width:0.25;"/>
<line x1="117.400000" y1="68.000000" x2="121.400000" y2="68.000000"  style="stroke:black; stroke-linecap:round; stroke-width:0.25;"/>
<line x1="117.400000" y1="76.000000" x2="121.400000" y2="76.000000"  style="stroke:black; stroke-linecap:round; stroke-width:0.25;"/>
<line x1="117.400000" y1="84.000000" x2="121.400000" y2="84.000000"  style="stroke:black; stroke-linecap:round; stroke-width:0.25;"/>
<line x1="121.400000" y1="28.000000" x2="121.400000" y2="28.000000"  style="stroke:black; stroke-linecap:round; stroke-width:0.25;"/>
<line x1="121.400000" y1="28.000000" x2="125.400000" y2="28.000000"  style="stroke:black; stroke-linecap:round; stroke-width:0.25;"/>
<line x1="121.400000" y1="36.000000" x2="121.400000" y2="36.000000"  style="stroke:black; stroke-linecap:round; stroke-width:0.25;"/>
<line x1="121.400000" y1="36.000000" x2="125.400000" y2="36.000000"  style="stroke:black; stroke-linecap:round; stroke-width:0.25;"/>
<line x1="121.400000" y1="44.000000" x2="121.400000" y2="44.000000"  style="stroke:black; stroke-linecap:round; stroke-width:0.25;"/>
<line x1="121.400000" y1="44.000000" x2="125.400000" y2="44.000000"  style="stroke:black; stroke-linecap:round; stroke-width:0.25;"/>
<line x1="121.400000" y1="52.000000" x2="121.400000" y2="52.000000"  style="stroke:black; stroke-linecap:round; stroke-width:0.25;"/>
<line x1="121.400000" y1="52.000000" x2="125.400000" y2="52.000000"  style="stroke:black; stroke-linecap:round; stroke-width:0.25;"/>
<line x1="121.400000" y1="60.000000" x2="121.400000" y2="60.000000"  style="stroke:black; stroke-linecap:round; stroke-width:0.25;"/>
<line x1="121.400000" y1="60.000000" x2="125.400000" y2="60.000000"  style="stroke:black; stroke-linecap:round; stroke-width:0.25;"/>
<line x1="121.400000" y1="68.000000" x2="121.400000" y2="68.000000"  style="stroke:black; stroke-linecap:round; stroke-width:0.25;"/>
<line x1="121.400000" y1="68.000000" x2="125.400000" y2="68.000000"  style="stroke:black; stroke-linecap:round; stroke-width:0.25;"/>
<line x1="121.400000" y1="76.000000" x2="121.400000" y2="76.000000"  style="stroke:black; stroke-linecap:round; stroke-width:0.25;"/>
<line x1="121.400000" y1="76.000000" x2="125.400000" y2="76.000000"  style="stroke:black; stroke-linecap:round; stroke-width:0.25;"/>
<line x1="121.400000" y1="84.000000" x2="121.400000" y2="84.000000"  style="stroke:black; stroke-linecap:round; stroke-width:0.25;"/>
<line x1="121.400000" y1="84.000000" x2="125.400000" y2="84.000000"  style="stroke:black; stroke-linecap:round; stroke-width:0.25;"/>
<line x1="125.400000" y1="28.000000" x2="129.400000" y2="28.000000"  style="stroke:black; stroke-linecap:round; stroke-width:0.25;"/>
<line x1="125.400000" y1="36.000000" x2="129.400000" y2="36.000000"  style="stroke:black; stroke-linecap:round; stroke-width:0.25;"/>
<line x1="125.400000" y1="44.000000" x2="129.400000" y2="44.000000"  style="stroke:black; stroke-linecap:round; stroke-width:0.25;"/>
<line x1="125.400000" y1="52.000000" x2="129.400000" y2="52.000000"  style="stroke:black; stroke-linecap:round; stroke-width:0.25;"/>
<line x1="125.400000" y1="60.000000" x2="129.400000" y2="60.000000"  style="stroke:black; stroke-linecap:round; stroke-width:0.25;"/>
<line x1="125.400000" y1="68.000000" x2="129.400000" y2="68.000000"  style="stroke:black; stroke-linecap:round; stroke-width:0.25;"/>
<line x1="125.400000" y1="76.000000" x2="129.400000" y2="76.000000"  style="stroke:black; stroke-linecap:round; stroke-width:0.25;"/>
<line x1="125.400000" y1="84.000000" x2="129.400000" y2="84.000000"  style="stroke:black; stroke-linecap:round; stroke-width:0.25;"/>
<line x1="129.400000" y1="28.000000" x2="139.400000" y2="28.000000"  style="stroke:black; stroke-linecap:round; stroke-width:0.25;"/>
<line x1="129.400000" y1="36.000000" x2="139.400000" y2="36.000000"  style="stroke:black; stroke-linecap:round; stroke-width:0.25;"/>
<line x1="129.400000" y1="44.000000" x2="139.400000" y2="44.000000"  style="stroke:black; stroke-linecap:round; stroke-width:0.25;"/>
<line x1="129.400000" y1="52.000000" x2="139.400000" y2="52.000000"  style="stroke:black; stroke-linecap:round; stroke-width:0.25;"/>
<line x1="129.400000" y1="60.000000" x2="139.400000" y2="60.000000"  style="stroke:black; stroke-linecap:round; stroke-width:0.25;"/>
<line x1="129.400000" y1="68.000000" x2="139.400000" y2="68.000000"  style="stroke:black; stroke-linecap:round; stroke-width:0.25;"/>
<line x1="129.400000" y1="76.000000" x2="139.400000" y2="76.000000"  style="stroke:black; stroke-linecap:round; stroke-width:0.25;"/>
<line x1="129.400000" y1="84.000000" x2="139.400000" y2="84.000000"  style="stroke:black; stroke-linecap:round; stroke-width:0.25;"/>
</svg>
