<?xml version="1.0"?>
<svg xmlns="http://www.w3.org/2000/svg" xmlns:xlink="http://www.w3.org/1999/xlink" viewBox="0 0 605.400000 164.000000" width="302.700000mm" height="82.000000mm" version="1.1">
<defs>
   <filter id="filter" filterRes="18" x="0" y="0">
     <feGaussianBlur in="SourceGraphic" stdDeviation="1.55" result="blur"/>
     <feOffset in="blur" dx="3" dy="3"/>
   </filter>
</defs>
<a xlink:href="Early-0x24c94c0.svg">
<rect x="1.000000" y="1.000000" width="604.400000" height="163.000000" rx="0.1" ry="0.1" style="stroke:none;fill:#aaaaaa;;filter:url(#filter);"/>
<rect x="0.000000" y="0.000000" width="604.400000" height="163.000000" rx="0" ry="0" style="stroke:none;fill:#ffffff;"/>
</a>
<text x="10.000000" y="7.000000" font-family="Arial" font-size="7"></text>
<rect x="68.000000" y="55.000000" width="24.000000" height="24.000000" rx="0.1" ry="0.1" style="stroke:none;fill:#aaaaaa;;filter:url(#filter);"/>
<rect x="67.000000" y="54.000000" width="24.000000" height="24.000000" rx="0" ry="0" style="stroke:none;fill:#4B71A1;"/>
<text x="79.000000" y="68.000000" font-family="Arial" font-size="7" text-anchor="middle" fill="#FFFFFF">-</text>
<circle cx="69.000000" cy="56.000000" r="1"/>
<line x1="64.000000" y1="61.000000" x2="67.000000" y2="62.000000"  transform="rotate(0.000000,67.000000,62.000000)" style="stroke: black; stroke-width:0.25;"/>
<line x1="64.000000" y1="63.000000" x2="67.000000" y2="62.000000"  transform="rotate(0.000000,67.000000,62.000000)" style="stroke: black; stroke-width:0.25;"/>
<line x1="64.000000" y1="69.000000" x2="67.000000" y2="70.000000"  transform="rotate(0.000000,67.000000,70.000000)" style="stroke: black; stroke-width:0.25;"/>
<line x1="64.000000" y1="71.000000" x2="67.000000" y2="70.000000"  transform="rotate(0.000000,67.000000,70.000000)" style="stroke: black; stroke-width:0.25;"/>
<rect x="118.000000" y="43.000000" width="180.600000" height="24.000000" rx="0.1" ry="0.1" style="stroke:none;fill:#aaaaaa;;filter:url(#filter);"/>
<rect x="117.000000" y="42.000000" width="180.600000" height="24.000000" rx="0" ry="0" style="stroke:none;fill:#477881;"/>
<text x="207.300000" y="56.000000" font-family="Arial" font-size="7" text-anchor="middle" fill="#FFFFFF">hslider(freezelength, 0.6, 0.1, 15, 0.1)</text>
<circle cx="119.000000" cy="44.000000" r="1"/>
<line x1="108.000000" y1="33.000000" x2="108.000000" y2="75.000000"  style="stroke: black; stroke-linecap:round; stroke-width:0.25; stroke-dasharray:3,3;"/>
<line x1="108.000000" y1="75.000000" x2="306.600000" y2="75.000000"  style="stroke: black; stroke-linecap:round; stroke-width:0.25; stroke-dasharray:3,3;"/>
<line x1="306.600000" y1="75.000000" x2="306.600000" y2="33.000000"  style="stroke: black; stroke-linecap:round; stroke-width:0.25; stroke-dasharray:3,3;"/>
<line x1="108.000000" y1="33.000000" x2="113.000000" y2="33.000000"  style="stroke: black; stroke-linecap:round; stroke-width:0.25; stroke-dasharray:3,3;"/>
<line x1="142.025000" y1="33.000000" x2="306.600000" y2="33.000000"  style="stroke: black; stroke-linecap:round; stroke-width:0.25; stroke-dasharray:3,3;"/>
<text x="113.000000" y="35.000000" font-family="Arial" font-size="7">DelTime</text>
<rect x="196.300000" y="85.000000" width="24.000000" height="24.000000" rx="0.1" ry="0.1" style="stroke:none;fill:#aaaaaa;;filter:url(#filter);"/>
<rect x="195.300000" y="84.000000" width="24.000000" height="24.000000" rx="0" ry="0" style="stroke:none;fill:#f44800;"/>
<text x="207.300000" y="98.000000" font-family="Arial" font-size="7" text-anchor="middle" fill="#FFFFFF">54</text>
<circle cx="197.300000" cy="86.000000" r="1"/>
<rect x="324.600000" y="59.000000" width="24.000000" height="24.000000" rx="0.1" ry="0.1" style="stroke:none;fill:#aaaaaa;;filter:url(#filter);"/>
<rect x="323.600000" y="58.000000" width="24.000000" height="24.000000" rx="0" ry="0" style="stroke:none;fill:#4B71A1;"/>
<text x="335.600000" y="72.000000" font-family="Arial" font-size="7" text-anchor="middle" fill="#FFFFFF">*</text>
<circle cx="325.600000" cy="60.000000" r="1"/>
<line x1="320.600000" y1="65.000000" x2="323.600000" y2="66.000000"  transform="rotate(0.000000,323.600000,66.000000)" style="stroke: black; stroke-width:0.25;"/>
<line x1="320.600000" y1="67.000000" x2="323.600000" y2="66.000000"  transform="rotate(0.000000,323.600000,66.000000)" style="stroke: black; stroke-width:0.25;"/>
<line x1="320.600000" y1="73.000000" x2="323.600000" y2="74.000000"  transform="rotate(0.000000,323.600000,74.000000)" style="stroke: black; stroke-width:0.25;"/>
<line x1="320.600000" y1="75.000000" x2="323.600000" y2="74.000000"  transform="rotate(0.000000,323.600000,74.000000)" style="stroke: black; stroke-width:0.25;"/>
<rect x="356.600000" y="59.000000" width="24.000000" height="24.000000" rx="0.1" ry="0.1" style="stroke:none;fill:#aaaaaa;;filter:url(#filter);"/>
<rect x="355.600000" y="58.000000" width="24.000000" height="24.000000" rx="0" ry="0" style="stroke:none;fill:#4B71A1;"/>
<text x="367.600000" y="72.000000" font-family="Arial" font-size="7" text-anchor="middle" fill="#FFFFFF">int</text>
<circle cx="357.600000" cy="60.000000" r="1"/>
<line x1="352.600000" y1="69.000000" x2="355.600000" y2="70.000000"  transform="rotate(0.000000,355.600000,70.000000)" style="stroke: black; stroke-width:0.25;"/>
<line x1="352.600000" y1="71.000000" x2="355.600000" y2="70.000000"  transform="rotate(0.000000,355.600000,70.000000)" style="stroke: black; stroke-width:0.25;"/>
<rect x="396.600000" y="55.000000" width="24.000000" height="24.000000" rx="0.1" ry="0.1" style="stroke:none;fill:#aaaaaa;;filter:url(#filter);"/>
<rect x="395.600000" y="54.000000" width="24.000000" height="24.000000" rx="0" ry="0" style="stroke:none;fill:#f44800;"/>
<text x="407.600000" y="68.000000" font-family="Arial" font-size="7" text-anchor="middle" fill="#FFFFFF">1</text>
<circle cx="397.600000" cy="56.000000" r="1"/>
<rect x="436.600000" y="59.000000" width="24.000000" height="24.000000" rx="0.1" ry="0.1" style="stroke:none;fill:#aaaaaa;;filter:url(#filter);"/>
<rect x="435.600000" y="58.000000" width="24.000000" height="24.000000" rx="0" ry="0" style="stroke:none;fill:#4B71A1;"/>
<text x="447.600000" y="72.000000" font-family="Arial" font-size="7" text-anchor="middle" fill="#FFFFFF">max</text>
<circle cx="437.600000" cy="60.000000" r="1"/>
<line x1="432.600000" y1="65.000000" x2="435.600000" y2="66.000000"  transform="rotate(0.000000,435.600000,66.000000)" style="stroke: black; stroke-width:0.25;"/>
<line x1="432.600000" y1="67.000000" x2="435.600000" y2="66.000000"  transform="rotate(0.000000,435.600000,66.000000)" style="stroke: black; stroke-width:0.25;"/>
<line x1="432.600000" y1="73.000000" x2="435.600000" y2="74.000000"  transform="rotate(0.000000,435.600000,74.000000)" style="stroke: black; stroke-width:0.25;"/>
<line x1="432.600000" y1="75.000000" x2="435.600000" y2="74.000000"  transform="rotate(0.000000,435.600000,74.000000)" style="stroke: black; stroke-width:0.25;"/>
<rect x="476.600000" y="55.000000" width="25.800000" height="24.000000" rx="0.1" ry="0.1" style="stroke:none;fill:#aaaaaa;;filter:url(#filter);"/>
<rect x="475.600000" y="54.000000" width="25.800000" height="24.000000" rx="0" ry="0" style="stroke:none;fill:#f44800;"/>
<text x="488.500000" y="68.000000" font-family="Arial" font-size="7" text-anchor="middle" fill="#FFFFFF">33060</text>
<circle cx="477.600000" cy="56.000000" r="1"/>
<rect x="518.400000" y="59.000000" width="24.000000" height="24.000000" rx="0.1" ry="0.1" style="stroke:none;fill:#aaaaaa;;filter:url(#filter);"/>
<rect x="517.400000" y="58.000000" width="24.000000" height="24.000000" rx="0" ry="0" style="stroke:none;fill:#4B71A1;"/>
<text x="529.400000" y="72.000000" font-family="Arial" font-size="7" text-anchor="middle" fill="#FFFFFF">min</text>
<circle cx="519.400000" cy="60.000000" r="1"/>
<line x1="514.400000" y1="65.000000" x2="517.400000" y2="66.000000"  transform="rotate(0.000000,517.400000,66.000000)" style="stroke: black; stroke-width:0.25;"/>
<line x1="514.400000" y1="67.000000" x2="517.400000" y2="66.000000"  transform="rotate(0.000000,517.400000,66.000000)" style="stroke: black; stroke-width:0.25;"/>
<line x1="514.400000" y1="73.000000" x2="517.400000" y2="74.000000"  transform="rotate(0.000000,517.400000,74.000000)" style="stroke: black; stroke-width:0.25;"/>
<line x1="514.400000" y1="75.000000" x2="517.400000" y2="74.000000"  transform="rotate(0.000000,517.400000,74.000000)" style="stroke: black; stroke-width:0.25;"/>
<rect x="558.400000" y="55.000000" width="24.000000" height="24.000000" rx="0.1" ry="0.1" style="stroke:none;fill:#aaaaaa;;filter:url(#filter);"/>
<rect x="557.400000" y="54.000000" width="24.000000" height="24.000000" rx="0" ry="0" style="stroke:none;fill:#4B71A1;"/>
<text x="569.400000" y="68.000000" font-family="Arial" font-size="7" text-anchor="middle" fill="#FFFFFF">@</text>
<circle cx="559.400000" cy="56.000000" r="1"/>
<line x1="554.400000" y1="61.000000" x2="557.400000" y2="62.000000"  transform="rotate(0.000000,557.400000,62.000000)" style="stroke: black; stroke-width:0.25;"/>
<line x1="554.400000" y1="63.000000" x2="557.400000" y2="62.000000"  transform="rotate(0.000000,557.400000,62.000000)" style="stroke: black; stroke-width:0.25;"/>
<line x1="554.400000" y1="69.000000" x2="557.400000" y2="70.000000"  transform="rotate(0.000000,557.400000,70.000000)" style="stroke: black; stroke-width:0.25;"/>
<line x1="554.400000" y1="71.000000" x2="557.400000" y2="70.000000"  transform="rotate(0.000000,557.400000,70.000000)" style="stroke: black; stroke-width:0.25;"/>
<rect x="313.200000" y="117.000000" width="24.000000" height="24.000000" rx="0.1" ry="0.1" style="stroke:none;fill:#aaaaaa;;filter:url(#filter);"/>
<rect x="312.200000" y="116.000000" width="24.000000" height="24.000000" rx="0" ry="0" style="stroke:none;fill:#4B71A1;"/>
<text x="324.200000" y="130.000000" font-family="Arial" font-size="7" text-anchor="middle" fill="#FFFFFF">+</text>
<circle cx="314.200000" cy="118.000000" r="1"/>
<line x1="309.200000" y1="123.000000" x2="312.200000" y2="124.000000"  transform="rotate(0.000000,312.200000,124.000000)" style="stroke: black; stroke-width:0.25;"/>
<line x1="309.200000" y1="125.000000" x2="312.200000" y2="124.000000"  transform="rotate(0.000000,312.200000,124.000000)" style="stroke: black; stroke-width:0.25;"/>
<line x1="309.200000" y1="131.000000" x2="312.200000" y2="132.000000"  transform="rotate(0.000000,312.200000,132.000000)" style="stroke: black; stroke-width:0.25;"/>
<line x1="309.200000" y1="133.000000" x2="312.200000" y2="132.000000"  transform="rotate(0.000000,312.200000,132.000000)" style="stroke: black; stroke-width:0.25;"/>
<line x1="15.000000" y1="15.000000" x2="15.000000" y2="149.000000"  style="stroke: black; stroke-linecap:round; stroke-width:0.25; stroke-dasharray:3,3;"/>
<line x1="15.000000" y1="149.000000" x2="590.400000" y2="149.000000"  style="stroke: black; stroke-linecap:round; stroke-width:0.25; stroke-dasharray:3,3;"/>
<line x1="590.400000" y1="149.000000" x2="590.400000" y2="15.000000"  style="stroke: black; stroke-linecap:round; stroke-width:0.25; stroke-dasharray:3,3;"/>
<line x1="15.000000" y1="15.000000" x2="20.000000" y2="15.000000"  style="stroke: black; stroke-linecap:round; stroke-width:0.25; stroke-dasharray:3,3;"/>
<line x1="49.025000" y1="15.000000" x2="590.400000" y2="15.000000"  style="stroke: black; stroke-linecap:round; stroke-width:0.25; stroke-dasharray:3,3;"/>
<text x="20.000000" y="17.000000" font-family="Arial" font-size="7">Del(54)</text>
<line x1="592.400000" y1="65.000000" x2="595.400000" y2="66.000000"  transform="rotate(0.000000,595.400000,66.000000)" style="stroke: black; stroke-width:0.25;"/>
<line x1="592.400000" y1="67.000000" x2="595.400000" y2="66.000000"  transform="rotate(0.000000,595.400000,66.000000)" style="stroke: black; stroke-width:0.25;"/>
<line x1="592.400000" y1="127.000000" x2="595.400000" y2="128.000000"  transform="rotate(0.000000,595.400000,128.000000)" style="stroke: black; stroke-width:0.25;"/>
<line x1="592.400000" y1="129.000000" x2="595.400000" y2="128.000000"  transform="rotate(0.000000,595.400000,128.000000)" style="stroke: black; stroke-width:0.25;"/>
<line x1="10.000000" y1="78.000000" x2="20.000000" y2="78.000000"  style="stroke:black; stroke-linecap:round; stroke-width:0.25;"/>
<line x1="10.000000" y1="86.000000" x2="20.000000" y2="86.000000"  style="stroke:black; stroke-linecap:round; stroke-width:0.25;"/>
<line x1="20.000000" y1="78.000000" x2="24.000000" y2="78.000000"  style="stroke:black; stroke-linecap:round; stroke-width:0.25;"/>
<line x1="20.000000" y1="86.000000" x2="24.000000" y2="86.000000"  style="stroke:black; stroke-linecap:round; stroke-width:0.25;"/>
<line x1="24.000000" y1="78.000000" x2="28.000000" y2="78.000000"  style="stroke:black; stroke-linecap:round; stroke-width:0.25;"/>
<line x1="24.000000" y1="86.000000" x2="28.000000" y2="86.000000"  style="stroke:black; stroke-linecap:round; stroke-width:0.25;"/>
<line x1="28.000000" y1="78.000000" x2="63.000000" y2="62.000000"  style="stroke:black; stroke-linecap:round; stroke-width:0.25;"/>
<line x1="28.000000" y1="78.000000" x2="63.000000" y2="124.000000"  style="stroke:black; stroke-linecap:round; stroke-width:0.25;"/>
<line x1="28.000000" y1="86.000000" x2="63.000000" y2="70.000000"  style="stroke:black; stroke-linecap:round; stroke-width:0.25;"/>
<line x1="28.000000" y1="86.000000" x2="63.000000" y2="132.000000"  style="stroke:black; stroke-linecap:round; stroke-width:0.25;"/>
<line x1="63.000000" y1="62.000000" x2="63.000000" y2="62.000000"  style="stroke:black; stroke-linecap:round; stroke-width:0.25;"/>
<line x1="63.000000" y1="62.000000" x2="67.000000" y2="62.000000"  style="stroke:black; stroke-linecap:round; stroke-width:0.25;"/>
<line x1="63.000000" y1="70.000000" x2="63.000000" y2="70.000000"  style="stroke:black; stroke-linecap:round; stroke-width:0.25;"/>
<line x1="63.000000" y1="70.000000" x2="67.000000" y2="70.000000"  style="stroke:black; stroke-linecap:round; stroke-width:0.25;"/>
<line x1="63.000000" y1="124.000000" x2="308.200000" y2="124.000000"  style="stroke:black; stroke-linecap:round; stroke-width:0.25;"/>
<line x1="63.000000" y1="132.000000" x2="308.200000" y2="132.000000"  style="stroke:black; stroke-linecap:round; stroke-width:0.25;"/>
<line x1="91.000000" y1="66.000000" x2="95.000000" y2="66.000000"  style="stroke:black; stroke-linecap:round; stroke-width:0.25;"/>
<line x1="95.000000" y1="24.000000" x2="103.000000" y2="24.000000"  style="stroke:black; stroke-linecap:round; stroke-width:0.25;"/>
<line x1="95.000000" y1="66.000000" x2="95.000000" y2="24.000000"  style="stroke:black; stroke-linecap:round; stroke-width:0.25;"/>
<line x1="95.000000" y1="66.000000" x2="95.000000" y2="66.000000"  style="stroke:black; stroke-linecap:round; stroke-width:0.25;"/>
<line x1="103.000000" y1="24.000000" x2="324.200000" y2="24.000000"  style="stroke:black; stroke-linecap:round; stroke-width:0.25;"/>
<line x1="219.300000" y1="96.000000" x2="223.300000" y2="96.000000"  style="stroke:black; stroke-linecap:round; stroke-width:0.25;"/>
<line x1="223.300000" y1="96.000000" x2="311.600000" y2="96.000000"  style="stroke:black; stroke-linecap:round; stroke-width:0.25;"/>
<line x1="297.600000" y1="54.000000" x2="301.600000" y2="54.000000"  style="stroke:black; stroke-linecap:round; stroke-width:0.25;"/>
<line x1="301.600000" y1="54.000000" x2="311.600000" y2="54.000000"  style="stroke:black; stroke-linecap:round; stroke-width:0.25;"/>
<line x1="308.200000" y1="124.000000" x2="308.200000" y2="124.000000"  style="stroke:black; stroke-linecap:round; stroke-width:0.25;"/>
<line x1="308.200000" y1="124.000000" x2="312.200000" y2="124.000000"  style="stroke:black; stroke-linecap:round; stroke-width:0.25;"/>
<line x1="308.200000" y1="132.000000" x2="308.200000" y2="132.000000"  style="stroke:black; stroke-linecap:round; stroke-width:0.25;"/>
<line x1="308.200000" y1="132.000000" x2="312.200000" y2="132.000000"  style="stroke:black; stroke-linecap:round; stroke-width:0.25;"/>
<line x1="311.600000" y1="54.000000" x2="319.600000" y2="54.000000"  style="stroke:black; stroke-linecap:round; stroke-width:0.25;"/>
<line x1="311.600000" y1="74.000000" x2="319.600000" y2="74.000000"  style="stroke:black; stroke-linecap:round; stroke-width:0.25;"/>
<line x1="311.600000" y1="96.000000" x2="311.600000" y2="74.000000"  style="stroke:black; stroke-linecap:round; stroke-width:0.25;"/>
<line x1="311.600000" y1="96.000000" x2="311.600000" y2="96.000000"  style="stroke:black; stroke-linecap:round; stroke-width:0.25;"/>
<line x1="319.600000" y1="54.000000" x2="319.600000" y2="66.000000"  style="stroke:black; stroke-linecap:round; stroke-width:0.25;"/>
<line x1="319.600000" y1="66.000000" x2="319.600000" y2="66.000000"  style="stroke:black; stroke-linecap:round; stroke-width:0.25;"/>
<line x1="319.600000" y1="66.000000" x2="323.600000" y2="66.000000"  style="stroke:black; stroke-linecap:round; stroke-width:0.25;"/>
<line x1="319.600000" y1="74.000000" x2="323.600000" y2="74.000000"  style="stroke:black; stroke-linecap:round; stroke-width:0.25;"/>
<line x1="324.200000" y1="24.000000" x2="545.400000" y2="24.000000"  style="stroke:black; stroke-linecap:round; stroke-width:0.25;"/>
<line x1="336.200000" y1="128.000000" x2="340.200000" y2="128.000000"  style="stroke:black; stroke-linecap:round; stroke-width:0.25;"/>
<line x1="340.200000" y1="128.000000" x2="585.400000" y2="128.000000"  style="stroke:black; stroke-linecap:round; stroke-width:0.25;"/>
<line x1="347.600000" y1="70.000000" x2="351.600000" y2="70.000000"  style="stroke:black; stroke-linecap:round; stroke-width:0.25;"/>
<line x1="351.600000" y1="70.000000" x2="351.600000" y2="70.000000"  style="stroke:black; stroke-linecap:round; stroke-width:0.25;"/>
<line x1="351.600000" y1="70.000000" x2="355.600000" y2="70.000000"  style="stroke:black; stroke-linecap:round; stroke-width:0.25;"/>
<line x1="379.600000" y1="70.000000" x2="383.600000" y2="70.000000"  style="stroke:black; stroke-linecap:round; stroke-width:0.25;"/>
<line x1="383.600000" y1="70.000000" x2="391.600000" y2="70.000000"  style="stroke:black; stroke-linecap:round; stroke-width:0.25;"/>
<line x1="391.600000" y1="70.000000" x2="391.600000" y2="86.000000"  style="stroke:black; stroke-linecap:round; stroke-width:0.25;"/>
<line x1="391.600000" y1="86.000000" x2="391.600000" y2="86.000000"  style="stroke:black; stroke-linecap:round; stroke-width:0.25;"/>
<line x1="391.600000" y1="86.000000" x2="407.600000" y2="86.000000"  style="stroke:black; stroke-linecap:round; stroke-width:0.25;"/>
<line x1="407.600000" y1="86.000000" x2="423.600000" y2="86.000000"  style="stroke:black; stroke-linecap:round; stroke-width:0.25;"/>
<line x1="419.600000" y1="66.000000" x2="423.600000" y2="66.000000"  style="stroke:black; stroke-linecap:round; stroke-width:0.25;"/>
<line x1="423.600000" y1="66.000000" x2="431.600000" y2="66.000000"  style="stroke:black; stroke-linecap:round; stroke-width:0.25;"/>
<line x1="423.600000" y1="74.000000" x2="431.600000" y2="74.000000"  style="stroke:black; stroke-linecap:round; stroke-width:0.25;"/>
<line x1="423.600000" y1="86.000000" x2="423.600000" y2="74.000000"  style="stroke:black; stroke-linecap:round; stroke-width:0.25;"/>
<line x1="423.600000" y1="86.000000" x2="423.600000" y2="86.000000"  style="stroke:black; stroke-linecap:round; stroke-width:0.25;"/>
<line x1="431.600000" y1="66.000000" x2="435.600000" y2="66.000000"  style="stroke:black; stroke-linecap:round; stroke-width:0.25;"/>
<line x1="431.600000" y1="74.000000" x2="435.600000" y2="74.000000"  style="stroke:black; stroke-linecap:round; stroke-width:0.25;"/>
<line x1="459.600000" y1="70.000000" x2="463.600000" y2="70.000000"  style="stroke:black; stroke-linecap:round; stroke-width:0.25;"/>
<line x1="463.600000" y1="70.000000" x2="471.600000" y2="70.000000"  style="stroke:black; stroke-linecap:round; stroke-width:0.25;"/>
<line x1="471.600000" y1="70.000000" x2="471.600000" y2="86.000000"  style="stroke:black; stroke-linecap:round; stroke-width:0.25;"/>
<line x1="471.600000" y1="86.000000" x2="471.600000" y2="86.000000"  style="stroke:black; stroke-linecap:round; stroke-width:0.25;"/>
<line x1="471.600000" y1="86.000000" x2="488.500000" y2="86.000000"  style="stroke:black; stroke-linecap:round; stroke-width:0.25;"/>
<line x1="488.500000" y1="86.000000" x2="505.400000" y2="86.000000"  style="stroke:black; stroke-linecap:round; stroke-width:0.25;"/>
<line x1="501.400000" y1="66.000000" x2="505.400000" y2="66.000000"  style="stroke:black; stroke-linecap:round; stroke-width:0.25;"/>
<line x1="505.400000" y1="74.000000" x2="513.400000" y2="74.000000"  style="stroke:black; stroke-linecap:round; stroke-width:0.25;"/>
<line x1="505.400000" y1="86.000000" x2="505.400000" y2="74.000000"  style="stroke:black; stroke-linecap:round; stroke-width:0.25;"/>
<line x1="505.400000" y1="86.000000" x2="505.400000" y2="86.000000"  style="stroke:black; stroke-linecap:round; stroke-width:0.25;"/>
<line x1="505.400000" y1="66.000000" x2="513.400000" y2="66.000000"  style="stroke:black; stroke-linecap:round; stroke-width:0.25;"/>
<line x1="513.400000" y1="66.000000" x2="517.400000" y2="66.000000"  style="stroke:black; stroke-linecap:round; stroke-width:0.25;"/>
<line x1="513.400000" y1="74.000000" x2="517.400000" y2="74.000000"  style="stroke:black; stroke-linecap:round; stroke-width:0.25;"/>
<line x1="541.400000" y1="70.000000" x2="545.400000" y2="70.000000"  style="stroke:black; stroke-linecap:round; stroke-width:0.25;"/>
<line x1="545.400000" y1="24.000000" x2="553.400000" y2="24.000000"  style="stroke:black; stroke-linecap:round; stroke-width:0.25;"/>
<line x1="545.400000" y1="70.000000" x2="553.400000" y2="70.000000"  style="stroke:black; stroke-linecap:round; stroke-width:0.25;"/>
<line x1="553.400000" y1="24.000000" x2="553.400000" y2="62.000000"  style="stroke:black; stroke-linecap:round; stroke-width:0.25;"/>
<line x1="553.400000" y1="62.000000" x2="553.400000" y2="62.000000"  style="stroke:black; stroke-linecap:round; stroke-width:0.25;"/>
<line x1="553.400000" y1="62.000000" x2="557.400000" y2="62.000000"  style="stroke:black; stroke-linecap:round; stroke-width:0.25;"/>
<line x1="553.400000" y1="70.000000" x2="557.400000" y2="70.000000"  style="stroke:black; stroke-linecap:round; stroke-width:0.25;"/>
<line x1="581.400000" y1="66.000000" x2="585.400000" y2="66.000000"  style="stroke:black; stroke-linecap:round; stroke-width:0.25;"/>
<line x1="585.400000" y1="66.000000" x2="595.400000" y2="66.000000"  style="stroke:black; stroke-linecap:round; stroke-width:0.25;"/>
<line x1="585.400000" y1="128.000000" x2="595.400000" y2="128.000000"  style="stroke:black; stroke-linecap:round; stroke-width:0.25;"/>
</svg>
