<?xml version="1.0"?>
<svg xmlns="http://www.w3.org/2000/svg" xmlns:xlink="http://www.w3.org/1999/xlink" viewBox="0 0 595.500000 72.000000" width="297.750000mm" height="36.000000mm" version="1.1">
<defs>
   <filter id="filter" filterRes="18" x="0" y="0">
     <feGaussianBlur in="SourceGraphic" stdDeviation="1.55" result="blur"/>
     <feOffset in="blur" dx="3" dy="3"/>
   </filter>
</defs>
<a xlink:href="process.svg">
<rect x="1.000000" y="1.000000" width="594.500000" height="71.000000" rx="0.1" ry="0.1" style="stroke:none;fill:#aaaaaa;;filter:url(#filter);"/>
<rect x="0.000000" y="0.000000" width="594.500000" height="71.000000" rx="0" ry="0" style="stroke:none;fill:#ffffff;"/>
</a>
<text x="10.000000" y="7.000000" font-family="Arial" font-size="7"></text>
<a xlink:href="Del-0x2d30df0.svg">
<rect x="25.000000" y="25.000000" width="25.800000" height="24.000000" rx="0.1" ry="0.1" style="stroke:none;fill:#aaaaaa;;filter:url(#filter);"/>
<rect x="24.000000" y="24.000000" width="25.800000" height="24.000000" rx="0" ry="0" style="stroke:none;fill:#003366;"/>
</a>
<a xlink:href="Del-0x2d30df0.svg">
<text x="36.900000" y="38.000000" font-family="Arial" font-size="7" text-anchor="middle" fill="#FFFFFF">Del(1)</text>
</a>
<circle cx="26.000000" cy="26.000000" r="1"/>
<line x1="21.000000" y1="31.000000" x2="24.000000" y2="32.000000"  transform="rotate(0.000000,24.000000,32.000000)" style="stroke: black; stroke-width:0.25;"/>
<line x1="21.000000" y1="33.000000" x2="24.000000" y2="32.000000"  transform="rotate(0.000000,24.000000,32.000000)" style="stroke: black; stroke-width:0.25;"/>
<line x1="21.000000" y1="39.000000" x2="24.000000" y2="40.000000"  transform="rotate(0.000000,24.000000,40.000000)" style="stroke: black; stroke-width:0.25;"/>
<line x1="21.000000" y1="41.000000" x2="24.000000" y2="40.000000"  transform="rotate(0.000000,24.000000,40.000000)" style="stroke: black; stroke-width:0.25;"/>
<a xlink:href="Del-0x2d2ea10.svg">
<rect x="58.800000" y="25.000000" width="25.800000" height="24.000000" rx="0.1" ry="0.1" style="stroke:none;fill:#aaaaaa;;filter:url(#filter);"/>
<rect x="57.800000" y="24.000000" width="25.800000" height="24.000000" rx="0" ry="0" style="stroke:none;fill:#003366;"/>
</a>
<a xlink:href="Del-0x2d2ea10.svg">
<text x="70.700000" y="38.000000" font-family="Arial" font-size="7" text-anchor="middle" fill="#FFFFFF">Del(2)</text>
</a>
<circle cx="59.800000" cy="26.000000" r="1"/>
<line x1="54.800000" y1="31.000000" x2="57.800000" y2="32.000000"  transform="rotate(0.000000,57.800000,32.000000)" style="stroke: black; stroke-width:0.25;"/>
<line x1="54.800000" y1="33.000000" x2="57.800000" y2="32.000000"  transform="rotate(0.000000,57.800000,32.000000)" style="stroke: black; stroke-width:0.25;"/>
<line x1="54.800000" y1="39.000000" x2="57.800000" y2="40.000000"  transform="rotate(0.000000,57.800000,40.000000)" style="stroke: black; stroke-width:0.25;"/>
<line x1="54.800000" y1="41.000000" x2="57.800000" y2="40.000000"  transform="rotate(0.000000,57.800000,40.000000)" style="stroke: black; stroke-width:0.25;"/>
<a xlink:href="Del-0x2d2c530.svg">
<rect x="92.600000" y="25.000000" width="25.800000" height="24.000000" rx="0.1" ry="0.1" style="stroke:none;fill:#aaaaaa;;filter:url(#filter);"/>
<rect x="91.600000" y="24.000000" width="25.800000" height="24.000000" rx="0" ry="0" style="stroke:none;fill:#003366;"/>
</a>
<a xlink:href="Del-0x2d2c530.svg">
<text x="104.500000" y="38.000000" font-family="Arial" font-size="7" text-anchor="middle" fill="#FFFFFF">Del(5)</text>
</a>
<circle cx="93.600000" cy="26.000000" r="1"/>
<line x1="88.600000" y1="31.000000" x2="91.600000" y2="32.000000"  transform="rotate(0.000000,91.600000,32.000000)" style="stroke: black; stroke-width:0.25;"/>
<line x1="88.600000" y1="33.000000" x2="91.600000" y2="32.000000"  transform="rotate(0.000000,91.600000,32.000000)" style="stroke: black; stroke-width:0.25;"/>
<line x1="88.600000" y1="39.000000" x2="91.600000" y2="40.000000"  transform="rotate(0.000000,91.600000,40.000000)" style="stroke: black; stroke-width:0.25;"/>
<line x1="88.600000" y1="41.000000" x2="91.600000" y2="40.000000"  transform="rotate(0.000000,91.600000,40.000000)" style="stroke: black; stroke-width:0.25;"/>
<a xlink:href="Del-0x2d2a050.svg">
<rect x="126.400000" y="25.000000" width="25.800000" height="24.000000" rx="0.1" ry="0.1" style="stroke:none;fill:#aaaaaa;;filter:url(#filter);"/>
<rect x="125.400000" y="24.000000" width="25.800000" height="24.000000" rx="0" ry="0" style="stroke:none;fill:#003366;"/>
</a>
<a xlink:href="Del-0x2d2a050.svg">
<text x="138.300000" y="38.000000" font-family="Arial" font-size="7" text-anchor="middle" fill="#FFFFFF">Del(7)</text>
</a>
<circle cx="127.400000" cy="26.000000" r="1"/>
<line x1="122.400000" y1="31.000000" x2="125.400000" y2="32.000000"  transform="rotate(0.000000,125.400000,32.000000)" style="stroke: black; stroke-width:0.25;"/>
<line x1="122.400000" y1="33.000000" x2="125.400000" y2="32.000000"  transform="rotate(0.000000,125.400000,32.000000)" style="stroke: black; stroke-width:0.25;"/>
<line x1="122.400000" y1="39.000000" x2="125.400000" y2="40.000000"  transform="rotate(0.000000,125.400000,40.000000)" style="stroke: black; stroke-width:0.25;"/>
<line x1="122.400000" y1="41.000000" x2="125.400000" y2="40.000000"  transform="rotate(0.000000,125.400000,40.000000)" style="stroke: black; stroke-width:0.25;"/>
<a xlink:href="Del-0x2d27b70.svg">
<rect x="160.200000" y="25.000000" width="38.700000" height="24.000000" rx="0.1" ry="0.1" style="stroke:none;fill:#aaaaaa;;filter:url(#filter);"/>
<rect x="159.200000" y="24.000000" width="38.700000" height="24.000000" rx="0" ry="0" style="stroke:none;fill:#003366;"/>
</a>
<a xlink:href="Del-0x2d27b70.svg">
<text x="178.550000" y="38.000000" font-family="Arial" font-size="7" text-anchor="middle" fill="#FFFFFF">Del(23)</text>
</a>
<circle cx="161.200000" cy="26.000000" r="1"/>
<line x1="156.200000" y1="31.000000" x2="159.200000" y2="32.000000"  transform="rotate(0.000000,159.200000,32.000000)" style="stroke: black; stroke-width:0.25;"/>
<line x1="156.200000" y1="33.000000" x2="159.200000" y2="32.000000"  transform="rotate(0.000000,159.200000,32.000000)" style="stroke: black; stroke-width:0.25;"/>
<line x1="156.200000" y1="39.000000" x2="159.200000" y2="40.000000"  transform="rotate(0.000000,159.200000,40.000000)" style="stroke: black; stroke-width:0.25;"/>
<line x1="156.200000" y1="41.000000" x2="159.200000" y2="40.000000"  transform="rotate(0.000000,159.200000,40.000000)" style="stroke: black; stroke-width:0.25;"/>
<a xlink:href="Del-0x2d25660.svg">
<rect x="206.900000" y="25.000000" width="38.700000" height="24.000000" rx="0.1" ry="0.1" style="stroke:none;fill:#aaaaaa;;filter:url(#filter);"/>
<rect x="205.900000" y="24.000000" width="38.700000" height="24.000000" rx="0" ry="0" style="stroke:none;fill:#003366;"/>
</a>
<a xlink:href="Del-0x2d25660.svg">
<text x="225.250000" y="38.000000" font-family="Arial" font-size="7" text-anchor="middle" fill="#FFFFFF">Del(54)</text>
</a>
<circle cx="207.900000" cy="26.000000" r="1"/>
<line x1="202.900000" y1="31.000000" x2="205.900000" y2="32.000000"  transform="rotate(0.000000,205.900000,32.000000)" style="stroke: black; stroke-width:0.25;"/>
<line x1="202.900000" y1="33.000000" x2="205.900000" y2="32.000000"  transform="rotate(0.000000,205.900000,32.000000)" style="stroke: black; stroke-width:0.25;"/>
<line x1="202.900000" y1="39.000000" x2="205.900000" y2="40.000000"  transform="rotate(0.000000,205.900000,40.000000)" style="stroke: black; stroke-width:0.25;"/>
<line x1="202.900000" y1="41.000000" x2="205.900000" y2="40.000000"  transform="rotate(0.000000,205.900000,40.000000)" style="stroke: black; stroke-width:0.25;"/>
<a xlink:href="Del-0x2d23170.svg">
<rect x="253.600000" y="25.000000" width="38.700000" height="24.000000" rx="0.1" ry="0.1" style="stroke:none;fill:#aaaaaa;;filter:url(#filter);"/>
<rect x="252.600000" y="24.000000" width="38.700000" height="24.000000" rx="0" ry="0" style="stroke:none;fill:#003366;"/>
</a>
<a xlink:href="Del-0x2d23170.svg">
<text x="271.950000" y="38.000000" font-family="Arial" font-size="7" text-anchor="middle" fill="#FFFFFF">Del(79)</text>
</a>
<circle cx="254.600000" cy="26.000000" r="1"/>
<line x1="249.600000" y1="31.000000" x2="252.600000" y2="32.000000"  transform="rotate(0.000000,252.600000,32.000000)" style="stroke: black; stroke-width:0.25;"/>
<line x1="249.600000" y1="33.000000" x2="252.600000" y2="32.000000"  transform="rotate(0.000000,252.600000,32.000000)" style="stroke: black; stroke-width:0.25;"/>
<line x1="249.600000" y1="39.000000" x2="252.600000" y2="40.000000"  transform="rotate(0.000000,252.600000,40.000000)" style="stroke: black; stroke-width:0.25;"/>
<line x1="249.600000" y1="41.000000" x2="252.600000" y2="40.000000"  transform="rotate(0.000000,252.600000,40.000000)" style="stroke: black; stroke-width:0.25;"/>
<a xlink:href="Del-0x2d20c80.svg">
<rect x="300.300000" y="25.000000" width="38.700000" height="24.000000" rx="0.1" ry="0.1" style="stroke:none;fill:#aaaaaa;;filter:url(#filter);"/>
<rect x="299.300000" y="24.000000" width="38.700000" height="24.000000" rx="0" ry="0" style="stroke:none;fill:#003366;"/>
</a>
<a xlink:href="Del-0x2d20c80.svg">
<text x="318.650000" y="38.000000" font-family="Arial" font-size="7" text-anchor="middle" fill="#FFFFFF">Del(220)</text>
</a>
<circle cx="301.300000" cy="26.000000" r="1"/>
<line x1="296.300000" y1="31.000000" x2="299.300000" y2="32.000000"  transform="rotate(0.000000,299.300000,32.000000)" style="stroke: black; stroke-width:0.25;"/>
<line x1="296.300000" y1="33.000000" x2="299.300000" y2="32.000000"  transform="rotate(0.000000,299.300000,32.000000)" style="stroke: black; stroke-width:0.25;"/>
<line x1="296.300000" y1="39.000000" x2="299.300000" y2="40.000000"  transform="rotate(0.000000,299.300000,40.000000)" style="stroke: black; stroke-width:0.25;"/>
<line x1="296.300000" y1="41.000000" x2="299.300000" y2="40.000000"  transform="rotate(0.000000,299.300000,40.000000)" style="stroke: black; stroke-width:0.25;"/>
<a xlink:href="Del-0x2d1e790.svg">
<rect x="347.000000" y="25.000000" width="38.700000" height="24.000000" rx="0.1" ry="0.1" style="stroke:none;fill:#aaaaaa;;filter:url(#filter);"/>
<rect x="346.000000" y="24.000000" width="38.700000" height="24.000000" rx="0" ry="0" style="stroke:none;fill:#003366;"/>
</a>
<a xlink:href="Del-0x2d1e790.svg">
<text x="365.350000" y="38.000000" font-family="Arial" font-size="7" text-anchor="middle" fill="#FFFFFF">Del(340)</text>
</a>
<circle cx="348.000000" cy="26.000000" r="1"/>
<line x1="343.000000" y1="31.000000" x2="346.000000" y2="32.000000"  transform="rotate(0.000000,346.000000,32.000000)" style="stroke: black; stroke-width:0.25;"/>
<line x1="343.000000" y1="33.000000" x2="346.000000" y2="32.000000"  transform="rotate(0.000000,346.000000,32.000000)" style="stroke: black; stroke-width:0.25;"/>
<line x1="343.000000" y1="39.000000" x2="346.000000" y2="40.000000"  transform="rotate(0.000000,346.000000,40.000000)" style="stroke: black; stroke-width:0.25;"/>
<line x1="343.000000" y1="41.000000" x2="346.000000" y2="40.000000"  transform="rotate(0.000000,346.000000,40.000000)" style="stroke: black; stroke-width:0.25;"/>
<a xlink:href="Del-0x2d1c2a0.svg">
<rect x="393.700000" y="25.000000" width="38.700000" height="24.000000" rx="0.1" ry="0.1" style="stroke:none;fill:#aaaaaa;;filter:url(#filter);"/>
<rect x="392.700000" y="24.000000" width="38.700000" height="24.000000" rx="0" ry="0" style="stroke:none;fill:#003366;"/>
</a>
<a xlink:href="Del-0x2d1c2a0.svg">
<text x="412.050000" y="38.000000" font-family="Arial" font-size="7" text-anchor="middle" fill="#FFFFFF">Del(454)</text>
</a>
<circle cx="394.700000" cy="26.000000" r="1"/>
<line x1="389.700000" y1="31.000000" x2="392.700000" y2="32.000000"  transform="rotate(0.000000,392.700000,32.000000)" style="stroke: black; stroke-width:0.25;"/>
<line x1="389.700000" y1="33.000000" x2="392.700000" y2="32.000000"  transform="rotate(0.000000,392.700000,32.000000)" style="stroke: black; stroke-width:0.25;"/>
<line x1="389.700000" y1="39.000000" x2="392.700000" y2="40.000000"  transform="rotate(0.000000,392.700000,40.000000)" style="stroke: black; stroke-width:0.25;"/>
<line x1="389.700000" y1="41.000000" x2="392.700000" y2="40.000000"  transform="rotate(0.000000,392.700000,40.000000)" style="stroke: black; stroke-width:0.25;"/>
<a xlink:href="Del-0x2d19db0.svg">
<rect x="440.400000" y="25.000000" width="38.700000" height="24.000000" rx="0.1" ry="0.1" style="stroke:none;fill:#aaaaaa;;filter:url(#filter);"/>
<rect x="439.400000" y="24.000000" width="38.700000" height="24.000000" rx="0" ry="0" style="stroke:none;fill:#003366;"/>
</a>
<a xlink:href="Del-0x2d19db0.svg">
<text x="458.750000" y="38.000000" font-family="Arial" font-size="7" text-anchor="middle" fill="#FFFFFF">Del(623)</text>
</a>
<circle cx="441.400000" cy="26.000000" r="1"/>
<line x1="436.400000" y1="31.000000" x2="439.400000" y2="32.000000"  transform="rotate(0.000000,439.400000,32.000000)" style="stroke: black; stroke-width:0.25;"/>
<line x1="436.400000" y1="33.000000" x2="439.400000" y2="32.000000"  transform="rotate(0.000000,439.400000,32.000000)" style="stroke: black; stroke-width:0.25;"/>
<line x1="436.400000" y1="39.000000" x2="439.400000" y2="40.000000"  transform="rotate(0.000000,439.400000,40.000000)" style="stroke: black; stroke-width:0.25;"/>
<line x1="436.400000" y1="41.000000" x2="439.400000" y2="40.000000"  transform="rotate(0.000000,439.400000,40.000000)" style="stroke: black; stroke-width:0.25;"/>
<a xlink:href="Del-0x2d178c0.svg">
<rect x="487.100000" y="25.000000" width="38.700000" height="24.000000" rx="0.1" ry="0.1" style="stroke:none;fill:#aaaaaa;;filter:url(#filter);"/>
<rect x="486.100000" y="24.000000" width="38.700000" height="24.000000" rx="0" ry="0" style="stroke:none;fill:#003366;"/>
</a>
<a xlink:href="Del-0x2d178c0.svg">
<text x="505.450000" y="38.000000" font-family="Arial" font-size="7" text-anchor="middle" fill="#FFFFFF">Del(845)</text>
</a>
<circle cx="488.100000" cy="26.000000" r="1"/>
<line x1="483.100000" y1="31.000000" x2="486.100000" y2="32.000000"  transform="rotate(0.000000,486.100000,32.000000)" style="stroke: black; stroke-width:0.25;"/>
<line x1="483.100000" y1="33.000000" x2="486.100000" y2="32.000000"  transform="rotate(0.000000,486.100000,32.000000)" style="stroke: black; stroke-width:0.25;"/>
<line x1="483.100000" y1="39.000000" x2="486.100000" y2="40.000000"  transform="rotate(0.000000,486.100000,40.000000)" style="stroke: black; stroke-width:0.25;"/>
<line x1="483.100000" y1="41.000000" x2="486.100000" y2="40.000000"  transform="rotate(0.000000,486.100000,40.000000)" style="stroke: black; stroke-width:0.25;"/>
<a xlink:href="Del-0x2d154b0.svg">
<rect x="533.800000" y="25.000000" width="38.700000" height="24.000000" rx="0.1" ry="0.1" style="stroke:none;fill:#aaaaaa;;filter:url(#filter);"/>
<rect x="532.800000" y="24.000000" width="38.700000" height="24.000000" rx="0" ry="0" style="stroke:none;fill:#003366;"/>
</a>
<a xlink:href="Del-0x2d154b0.svg">
<text x="552.150000" y="38.000000" font-family="Arial" font-size="7" text-anchor="middle" fill="#FFFFFF">Del(1304)</text>
</a>
<circle cx="534.800000" cy="26.000000" r="1"/>
<line x1="529.800000" y1="31.000000" x2="532.800000" y2="32.000000"  transform="rotate(0.000000,532.800000,32.000000)" style="stroke: black; stroke-width:0.25;"/>
<line x1="529.800000" y1="33.000000" x2="532.800000" y2="32.000000"  transform="rotate(0.000000,532.800000,32.000000)" style="stroke: black; stroke-width:0.25;"/>
<line x1="529.800000" y1="39.000000" x2="532.800000" y2="40.000000"  transform="rotate(0.000000,532.800000,40.000000)" style="stroke: black; stroke-width:0.25;"/>
<line x1="529.800000" y1="41.000000" x2="532.800000" y2="40.000000"  transform="rotate(0.000000,532.800000,40.000000)" style="stroke: black; stroke-width:0.25;"/>
<line x1="15.000000" y1="15.000000" x2="15.000000" y2="57.000000"  style="stroke: black; stroke-linecap:round; stroke-width:0.25; stroke-dasharray:3,3;"/>
<line x1="15.000000" y1="57.000000" x2="580.500000" y2="57.000000"  style="stroke: black; stroke-linecap:round; stroke-width:0.25; stroke-dasharray:3,3;"/>
<line x1="580.500000" y1="57.000000" x2="580.500000" y2="15.000000"  style="stroke: black; stroke-linecap:round; stroke-width:0.25; stroke-dasharray:3,3;"/>
<line x1="15.000000" y1="15.000000" x2="20.000000" y2="15.000000"  style="stroke: black; stroke-linecap:round; stroke-width:0.25; stroke-dasharray:3,3;"/>
<line x1="42.575000" y1="15.000000" x2="580.500000" y2="15.000000"  style="stroke: black; stroke-linecap:round; stroke-width:0.25; stroke-dasharray:3,3;"/>
<text x="20.000000" y="17.000000" font-family="Arial" font-size="7">Early</text>
<line x1="582.500000" y1="31.000000" x2="585.500000" y2="32.000000"  transform="rotate(0.000000,585.500000,32.000000)" style="stroke: black; stroke-width:0.25;"/>
<line x1="582.500000" y1="33.000000" x2="585.500000" y2="32.000000"  transform="rotate(0.000000,585.500000,32.000000)" style="stroke: black; stroke-width:0.25;"/>
<line x1="582.500000" y1="39.000000" x2="585.500000" y2="40.000000"  transform="rotate(0.000000,585.500000,40.000000)" style="stroke: black; stroke-width:0.25;"/>
<line x1="582.500000" y1="41.000000" x2="585.500000" y2="40.000000"  transform="rotate(0.000000,585.500000,40.000000)" style="stroke: black; stroke-width:0.25;"/>
<line x1="10.000000" y1="32.000000" x2="20.000000" y2="32.000000"  style="stroke:black; stroke-linecap:round; stroke-width:0.25;"/>
<line x1="10.000000" y1="40.000000" x2="20.000000" y2="40.000000"  style="stroke:black; stroke-linecap:round; stroke-width:0.25;"/>
<line x1="20.000000" y1="32.000000" x2="20.000000" y2="32.000000"  style="stroke:black; stroke-linecap:round; stroke-width:0.25;"/>
<line x1="20.000000" y1="32.000000" x2="24.000000" y2="32.000000"  style="stroke:black; stroke-linecap:round; stroke-width:0.25;"/>
<line x1="20.000000" y1="40.000000" x2="20.000000" y2="40.000000"  style="stroke:black; stroke-linecap:round; stroke-width:0.25;"/>
<line x1="20.000000" y1="40.000000" x2="24.000000" y2="40.000000"  style="stroke:black; stroke-linecap:round; stroke-width:0.25;"/>
<line x1="49.800000" y1="32.000000" x2="53.800000" y2="32.000000"  style="stroke:black; stroke-linecap:round; stroke-width:0.25;"/>
<line x1="49.800000" y1="40.000000" x2="53.800000" y2="40.000000"  style="stroke:black; stroke-linecap:round; stroke-width:0.25;"/>
<line x1="53.800000" y1="32.000000" x2="53.800000" y2="32.000000"  style="stroke:black; stroke-linecap:round; stroke-width:0.25;"/>
<line x1="53.800000" y1="32.000000" x2="57.800000" y2="32.000000"  style="stroke:black; stroke-linecap:round; stroke-width:0.25;"/>
<line x1="53.800000" y1="40.000000" x2="53.800000" y2="40.000000"  style="stroke:black; stroke-linecap:round; stroke-width:0.25;"/>
<line x1="53.800000" y1="40.000000" x2="57.800000" y2="40.000000"  style="stroke:black; stroke-linecap:round; stroke-width:0.25;"/>
<line x1="83.600000" y1="32.000000" x2="87.600000" y2="32.000000"  style="stroke:black; stroke-linecap:round; stroke-width:0.25;"/>
<line x1="83.600000" y1="40.000000" x2="87.600000" y2="40.000000"  style="stroke:black; stroke-linecap:round; stroke-width:0.25;"/>
<line x1="87.600000" y1="32.000000" x2="87.600000" y2="32.000000"  style="stroke:black; stroke-linecap:round; stroke-width:0.25;"/>
<line x1="87.600000" y1="32.000000" x2="91.600000" y2="32.000000"  style="stroke:black; stroke-linecap:round; stroke-width:0.25;"/>
<line x1="87.600000" y1="40.000000" x2="87.600000" y2="40.000000"  style="stroke:black; stroke-linecap:round; stroke-width:0.25;"/>
<line x1="87.600000" y1="40.000000" x2="91.600000" y2="40.000000"  style="stroke:black; stroke-linecap:round; stroke-width:0.25;"/>
<line x1="117.400000" y1="32.000000" x2="121.400000" y2="32.000000"  style="stroke:black; stroke-linecap:round; stroke-width:0.25;"/>
<line x1="117.400000" y1="40.000000" x2="121.400000" y2="40.000000"  style="stroke:black; stroke-linecap:round; stroke-width:0.25;"/>
<line x1="121.400000" y1="32.000000" x2="121.400000" y2="32.000000"  style="stroke:black; stroke-linecap:round; stroke-width:0.25;"/>
<line x1="121.400000" y1="32.000000" x2="125.400000" y2="32.000000"  style="stroke:black; stroke-linecap:round; stroke-width:0.25;"/>
<line x1="121.400000" y1="40.000000" x2="121.400000" y2="40.000000"  style="stroke:black; stroke-linecap:round; stroke-width:0.25;"/>
<line x1="121.400000" y1="40.000000" x2="125.400000" y2="40.000000"  style="stroke:black; stroke-linecap:round; stroke-width:0.25;"/>
<line x1="151.200000" y1="32.000000" x2="155.200000" y2="32.000000"  style="stroke:black; stroke-linecap:round; stroke-width:0.25;"/>
<line x1="151.200000" y1="40.000000" x2="155.200000" y2="40.000000"  style="stroke:black; stroke-linecap:round; stroke-width:0.25;"/>
<line x1="155.200000" y1="32.000000" x2="155.200000" y2="32.000000"  style="stroke:black; stroke-linecap:round; stroke-width:0.25;"/>
<line x1="155.200000" y1="32.000000" x2="159.200000" y2="32.000000"  style="stroke:black; stroke-linecap:round; stroke-width:0.25;"/>
<line x1="155.200000" y1="40.000000" x2="155.200000" y2="40.000000"  style="stroke:black; stroke-linecap:round; stroke-width:0.25;"/>
<line x1="155.200000" y1="40.000000" x2="159.200000" y2="40.000000"  style="stroke:black; stroke-linecap:round; stroke-width:0.25;"/>
<line x1="197.900000" y1="32.000000" x2="201.900000" y2="32.000000"  style="stroke:black; stroke-linecap:round; stroke-width:0.25;"/>
<line x1="197.900000" y1="40.000000" x2="201.900000" y2="40.000000"  style="stroke:black; stroke-linecap:round; stroke-width:0.25;"/>
<line x1="201.900000" y1="32.000000" x2="201.900000" y2="32.000000"  style="stroke:black; stroke-linecap:round; stroke-width:0.25;"/>
<line x1="201.900000" y1="32.000000" x2="205.900000" y2="32.000000"  style="stroke:black; stroke-linecap:round; stroke-width:0.25;"/>
<line x1="201.900000" y1="40.000000" x2="201.900000" y2="40.000000"  style="stroke:black; stroke-linecap:round; stroke-width:0.25;"/>
<line x1="201.900000" y1="40.000000" x2="205.900000" y2="40.000000"  style="stroke:black; stroke-linecap:round; stroke-width:0.25;"/>
<line x1="244.600000" y1="32.000000" x2="248.600000" y2="32.000000"  style="stroke:black; stroke-linecap:round; stroke-width:0.25;"/>
<line x1="244.600000" y1="40.000000" x2="248.600000" y2="40.000000"  style="stroke:black; stroke-linecap:round; stroke-width:0.25;"/>
<line x1="248.600000" y1="32.000000" x2="248.600000" y2="32.000000"  style="stroke:black; stroke-linecap:round; stroke-width:0.25;"/>
<line x1="248.600000" y1="32.000000" x2="252.600000" y2="32.000000"  style="stroke:black; stroke-linecap:round; stroke-width:0.25;"/>
<line x1="248.600000" y1="40.000000" x2="248.600000" y2="40.000000"  style="stroke:black; stroke-linecap:round; stroke-width:0.25;"/>
<line x1="248.600000" y1="40.000000" x2="252.600000" y2="40.000000"  style="stroke:black; stroke-linecap:round; stroke-width:0.25;"/>
<line x1="291.300000" y1="32.000000" x2="295.300000" y2="32.000000"  style="stroke:black; stroke-linecap:round; stroke-width:0.25;"/>
<line x1="291.300000" y1="40.000000" x2="295.300000" y2="40.000000"  style="stroke:black; stroke-linecap:round; stroke-width:0.25;"/>
<line x1="295.300000" y1="32.000000" x2="295.300000" y2="32.000000"  style="stroke:black; stroke-linecap:round; stroke-width:0.25;"/>
<line x1="295.300000" y1="32.000000" x2="299.300000" y2="32.000000"  style="stroke:black; stroke-linecap:round; stroke-width:0.25;"/>
<line x1="295.300000" y1="40.000000" x2="295.300000" y2="40.000000"  style="stroke:black; stroke-linecap:round; stroke-width:0.25;"/>
<line x1="295.300000" y1="40.000000" x2="299.300000" y2="40.000000"  style="stroke:black; stroke-linecap:round; stroke-width:0.25;"/>
<line x1="338.000000" y1="32.000000" x2="342.000000" y2="32.000000"  style="stroke:black; stroke-linecap:round; stroke-width:0.25;"/>
<line x1="338.000000" y1="40.000000" x2="342.000000" y2="40.000000"  style="stroke:black; stroke-linecap:round; stroke-width:0.25;"/>
<line x1="342.000000" y1="32.000000" x2="342.000000" y2="32.000000"  style="stroke:black; stroke-linecap:round; stroke-width:0.25;"/>
<line x1="342.000000" y1="32.000000" x2="346.000000" y2="32.000000"  style="stroke:black; stroke-linecap:round; stroke-width:0.25;"/>
<line x1="342.000000" y1="40.000000" x2="342.000000" y2="40.000000"  style="stroke:black; stroke-linecap:round; stroke-width:0.25;"/>
<line x1="342.000000" y1="40.000000" x2="346.000000" y2="40.000000"  style="stroke:black; stroke-linecap:round; stroke-width:0.25;"/>
<line x1="384.700000" y1="32.000000" x2="388.700000" y2="32.000000"  style="stroke:black; stroke-linecap:round; stroke-width:0.25;"/>
<line x1="384.700000" y1="40.000000" x2="388.700000" y2="40.000000"  style="stroke:black; stroke-linecap:round; stroke-width:0.25;"/>
<line x1="388.700000" y1="32.000000" x2="388.700000" y2="32.000000"  style="stroke:black; stroke-linecap:round; stroke-width:0.25;"/>
<line x1="388.700000" y1="32.000000" x2="392.700000" y2="32.000000"  style="stroke:black; stroke-linecap:round; stroke-width:0.25;"/>
<line x1="388.700000" y1="40.000000" x2="388.700000" y2="40.000000"  style="stroke:black; stroke-linecap:round; stroke-width:0.25;"/>
<line x1="388.700000" y1="40.000000" x2="392.700000" y2="40.000000"  style="stroke:black; stroke-linecap:round; stroke-width:0.25;"/>
<line x1="431.400000" y1="32.000000" x2="435.400000" y2="32.000000"  style="stroke:black; stroke-linecap:round; stroke-width:0.25;"/>
<line x1="431.400000" y1="40.000000" x2="435.400000" y2="40.000000"  style="stroke:black; stroke-linecap:round; stroke-width:0.25;"/>
<line x1="435.400000" y1="32.000000" x2="435.400000" y2="32.000000"  style="stroke:black; stroke-linecap:round; stroke-width:0.25;"/>
<line x1="435.400000" y1="32.000000" x2="439.400000" y2="32.000000"  style="stroke:black; stroke-linecap:round; stroke-width:0.25;"/>
<line x1="435.400000" y1="40.000000" x2="435.400000" y2="40.000000"  style="stroke:black; stroke-linecap:round; stroke-width:0.25;"/>
<line x1="435.400000" y1="40.000000" x2="439.400000" y2="40.000000"  style="stroke:black; stroke-linecap:round; stroke-width:0.25;"/>
<line x1="478.100000" y1="32.000000" x2="482.100000" y2="32.000000"  style="stroke:black; stroke-linecap:round; stroke-width:0.25;"/>
<line x1="478.100000" y1="40.000000" x2="482.100000" y2="40.000000"  style="stroke:black; stroke-linecap:round; stroke-width:0.25;"/>
<line x1="482.100000" y1="32.000000" x2="482.100000" y2="32.000000"  style="stroke:black; stroke-linecap:round; stroke-width:0.25;"/>
<line x1="482.100000" y1="32.000000" x2="486.100000" y2="32.000000"  style="stroke:black; stroke-linecap:round; stroke-width:0.25;"/>
<line x1="482.100000" y1="40.000000" x2="482.100000" y2="40.000000"  style="stroke:black; stroke-linecap:round; stroke-width:0.25;"/>
<line x1="482.100000" y1="40.000000" x2="486.100000" y2="40.000000"  style="stroke:black; stroke-linecap:round; stroke-width:0.25;"/>
<line x1="524.800000" y1="32.000000" x2="528.800000" y2="32.000000"  style="stroke:black; stroke-linecap:round; stroke-width:0.25;"/>
<line x1="524.800000" y1="40.000000" x2="528.800000" y2="40.000000"  style="stroke:black; stroke-linecap:round; stroke-width:0.25;"/>
<line x1="528.800000" y1="32.000000" x2="528.800000" y2="32.000000"  style="stroke:black; stroke-linecap:round; stroke-width:0.25;"/>
<line x1="528.800000" y1="32.000000" x2="532.800000" y2="32.000000"  style="stroke:black; stroke-linecap:round; stroke-width:0.25;"/>
<line x1="528.800000" y1="40.000000" x2="528.800000" y2="40.000000"  style="stroke:black; stroke-linecap:round; stroke-width:0.25;"/>
<line x1="528.800000" y1="40.000000" x2="532.800000" y2="40.000000"  style="stroke:black; stroke-linecap:round; stroke-width:0.25;"/>
<line x1="571.500000" y1="32.000000" x2="575.500000" y2="32.000000"  style="stroke:black; stroke-linecap:round; stroke-width:0.25;"/>
<line x1="571.500000" y1="40.000000" x2="575.500000" y2="40.000000"  style="stroke:black; stroke-linecap:round; stroke-width:0.25;"/>
<line x1="575.500000" y1="32.000000" x2="585.500000" y2="32.000000"  style="stroke:black; stroke-linecap:round; stroke-width:0.25;"/>
<line x1="575.500000" y1="40.000000" x2="585.500000" y2="40.000000"  style="stroke:black; stroke-linecap:round; stroke-width:0.25;"/>
</svg>
