<?xml version="1.0"?>
<svg xmlns="http://www.w3.org/2000/svg" xmlns:xlink="http://www.w3.org/1999/xlink" viewBox="0 0 369.100000 164.000000" width="184.550000mm" height="82.000000mm" version="1.1">
<defs>
   <filter id="filter" filterRes="18" x="0" y="0">
     <feGaussianBlur in="SourceGraphic" stdDeviation="1.55" result="blur"/>
     <feOffset in="blur" dx="3" dy="3"/>
   </filter>
</defs>
<rect x="1.000000" y="1.000000" width="368.100000" height="163.000000" rx="0.1" ry="0.1" style="stroke:none;fill:#aaaaaa;;filter:url(#filter);"/>
<rect x="0.000000" y="0.000000" width="368.100000" height="163.000000" rx="0" ry="0" style="stroke:none;fill:#ffffff;"/>
<text x="10.000000" y="7.000000" font-family="Arial" font-size="7"></text>
<rect x="122.700000" y="57.000000" width="24.000000" height="24.000000" rx="0.1" ry="0.1" style="stroke:none;fill:#aaaaaa;;filter:url(#filter);"/>
<rect x="121.700000" y="56.000000" width="24.000000" height="24.000000" rx="0" ry="0" style="stroke:none;fill:#4B71A1;"/>
<text x="133.700000" y="70.000000" font-family="Arial" font-size="7" text-anchor="middle" fill="#FFFFFF">+</text>
<circle cx="123.700000" cy="58.000000" r="1"/>
<line x1="118.700000" y1="63.000000" x2="121.700000" y2="64.000000"  transform="rotate(0.000000,121.700000,64.000000)" style="stroke: black; stroke-width:0.25;"/>
<line x1="118.700000" y1="65.000000" x2="121.700000" y2="64.000000"  transform="rotate(0.000000,121.700000,64.000000)" style="stroke: black; stroke-width:0.25;"/>
<line x1="118.700000" y1="71.000000" x2="121.700000" y2="72.000000"  transform="rotate(0.000000,121.700000,72.000000)" style="stroke: black; stroke-width:0.25;"/>
<line x1="118.700000" y1="73.000000" x2="121.700000" y2="72.000000"  transform="rotate(0.000000,121.700000,72.000000)" style="stroke: black; stroke-width:0.25;"/>
<a xlink:href="Early-0x2e02b40.svg">
<rect x="121.800000" y="25.000000" width="25.800000" height="24.000000" rx="0.1" ry="0.1" style="stroke:none;fill:#aaaaaa;;filter:url(#filter);"/>
<rect x="120.800000" y="24.000000" width="25.800000" height="24.000000" rx="0" ry="0" style="stroke:none;fill:#003366;"/>
</a>
<a xlink:href="Early-0x2e02b40.svg">
<text x="133.700000" y="38.000000" font-family="Arial" font-size="7" text-anchor="middle" fill="#FFFFFF">Early</text>
</a>
<circle cx="144.600000" cy="46.000000" r="1"/>
<line x1="149.600000" y1="35.000000" x2="146.600000" y2="36.000000"  transform="rotate(0.000000,146.600000,36.000000)" style="stroke: black; stroke-width:0.25;"/>
<line x1="149.600000" y1="37.000000" x2="146.600000" y2="36.000000"  transform="rotate(0.000000,146.600000,36.000000)" style="stroke: black; stroke-width:0.25;"/>
<line x1="166.600000" y1="68.000000" x2="166.600000" y2="64.000000"  style="stroke:black; stroke-linecap:round; stroke-width:0.25;"/>
<line x1="166.600000" y1="64.000000" x2="170.600000" y2="64.000000"  style="stroke:black; stroke-linecap:round; stroke-width:0.25;"/>
<line x1="170.600000" y1="64.000000" x2="170.600000" y2="68.000000"  style="stroke:black; stroke-linecap:round; stroke-width:0.25;"/>
<rect x="76.000000" y="107.000000" width="77.400000" height="24.000000" rx="0.1" ry="0.1" style="stroke:none;fill:#aaaaaa;;filter:url(#filter);"/>
<rect x="75.000000" y="106.000000" width="77.400000" height="24.000000" rx="0" ry="0" style="stroke:none;fill:#477881;"/>
<text x="113.700000" y="120.000000" font-family="Arial" font-size="7" text-anchor="middle" fill="#FFFFFF">checkbox(freeze)</text>
<circle cx="77.000000" cy="108.000000" r="1"/>
<line x1="66.000000" y1="97.000000" x2="66.000000" y2="139.000000"  style="stroke: black; stroke-linecap:round; stroke-width:0.25; stroke-dasharray:3,3;"/>
<line x1="66.000000" y1="139.000000" x2="161.400000" y2="139.000000"  style="stroke: black; stroke-linecap:round; stroke-width:0.25; stroke-dasharray:3,3;"/>
<line x1="161.400000" y1="139.000000" x2="161.400000" y2="97.000000"  style="stroke: black; stroke-linecap:round; stroke-width:0.25; stroke-dasharray:3,3;"/>
<line x1="66.000000" y1="97.000000" x2="71.000000" y2="97.000000"  style="stroke: black; stroke-linecap:round; stroke-width:0.25; stroke-dasharray:3,3;"/>
<line x1="96.800000" y1="97.000000" x2="161.400000" y2="97.000000"  style="stroke: black; stroke-linecap:round; stroke-width:0.25; stroke-dasharray:3,3;"/>
<text x="71.000000" y="99.000000" font-family="Arial" font-size="7">Button</text>
<rect x="179.400000" y="103.000000" width="24.000000" height="24.000000" rx="0.1" ry="0.1" style="stroke:none;fill:#aaaaaa;;filter:url(#filter);"/>
<rect x="178.400000" y="102.000000" width="24.000000" height="24.000000" rx="0" ry="0" style="stroke:none;fill:#4B71A1;"/>
<text x="190.400000" y="116.000000" font-family="Arial" font-size="7" text-anchor="middle" fill="#FFFFFF">*</text>
<circle cx="180.400000" cy="104.000000" r="1"/>
<line x1="175.400000" y1="109.000000" x2="178.400000" y2="110.000000"  transform="rotate(0.000000,178.400000,110.000000)" style="stroke: black; stroke-width:0.25;"/>
<line x1="175.400000" y1="111.000000" x2="178.400000" y2="110.000000"  transform="rotate(0.000000,178.400000,110.000000)" style="stroke: black; stroke-width:0.25;"/>
<line x1="175.400000" y1="117.000000" x2="178.400000" y2="118.000000"  transform="rotate(0.000000,178.400000,118.000000)" style="stroke: black; stroke-width:0.25;"/>
<line x1="175.400000" y1="119.000000" x2="178.400000" y2="118.000000"  transform="rotate(0.000000,178.400000,118.000000)" style="stroke: black; stroke-width:0.25;"/>
<a xlink:href="invButton-0x2de1a50.svg">
<rect x="227.400000" y="71.000000" width="38.700000" height="24.000000" rx="0.1" ry="0.1" style="stroke:none;fill:#aaaaaa;;filter:url(#filter);"/>
<rect x="226.400000" y="70.000000" width="38.700000" height="24.000000" rx="0" ry="0" style="stroke:none;fill:#003366;"/>
</a>
<a xlink:href="invButton-0x2de1a50.svg">
<text x="245.750000" y="84.000000" font-family="Arial" font-size="7" text-anchor="middle" fill="#FFFFFF">invButton</text>
</a>
<circle cx="228.400000" cy="72.000000" r="1"/>
<rect x="282.100000" y="67.000000" width="24.000000" height="24.000000" rx="0.1" ry="0.1" style="stroke:none;fill:#aaaaaa;;filter:url(#filter);"/>
<rect x="281.100000" y="66.000000" width="24.000000" height="24.000000" rx="0" ry="0" style="stroke:none;fill:#4B71A1;"/>
<text x="293.100000" y="80.000000" font-family="Arial" font-size="7" text-anchor="middle" fill="#FFFFFF">*</text>
<circle cx="283.100000" cy="68.000000" r="1"/>
<line x1="278.100000" y1="73.000000" x2="281.100000" y2="74.000000"  transform="rotate(0.000000,281.100000,74.000000)" style="stroke: black; stroke-width:0.25;"/>
<line x1="278.100000" y1="75.000000" x2="281.100000" y2="74.000000"  transform="rotate(0.000000,281.100000,74.000000)" style="stroke: black; stroke-width:0.25;"/>
<line x1="278.100000" y1="81.000000" x2="281.100000" y2="82.000000"  transform="rotate(0.000000,281.100000,82.000000)" style="stroke: black; stroke-width:0.25;"/>
<line x1="278.100000" y1="83.000000" x2="281.100000" y2="82.000000"  transform="rotate(0.000000,281.100000,82.000000)" style="stroke: black; stroke-width:0.25;"/>
<rect x="322.100000" y="71.000000" width="24.000000" height="24.000000" rx="0.1" ry="0.1" style="stroke:none;fill:#aaaaaa;;filter:url(#filter);"/>
<rect x="321.100000" y="70.000000" width="24.000000" height="24.000000" rx="0" ry="0" style="stroke:none;fill:#4B71A1;"/>
<text x="333.100000" y="84.000000" font-family="Arial" font-size="7" text-anchor="middle" fill="#FFFFFF">+</text>
<circle cx="323.100000" cy="72.000000" r="1"/>
<line x1="318.100000" y1="77.000000" x2="321.100000" y2="78.000000"  transform="rotate(0.000000,321.100000,78.000000)" style="stroke: black; stroke-width:0.25;"/>
<line x1="318.100000" y1="79.000000" x2="321.100000" y2="78.000000"  transform="rotate(0.000000,321.100000,78.000000)" style="stroke: black; stroke-width:0.25;"/>
<line x1="318.100000" y1="85.000000" x2="321.100000" y2="86.000000"  transform="rotate(0.000000,321.100000,86.000000)" style="stroke: black; stroke-width:0.25;"/>
<line x1="318.100000" y1="87.000000" x2="321.100000" y2="86.000000"  transform="rotate(0.000000,321.100000,86.000000)" style="stroke: black; stroke-width:0.25;"/>
<line x1="15.000000" y1="15.000000" x2="15.000000" y2="149.000000"  style="stroke: black; stroke-linecap:round; stroke-width:0.25; stroke-dasharray:3,3;"/>
<line x1="15.000000" y1="149.000000" x2="354.100000" y2="149.000000"  style="stroke: black; stroke-linecap:round; stroke-width:0.25; stroke-dasharray:3,3;"/>
<line x1="354.100000" y1="149.000000" x2="354.100000" y2="15.000000"  style="stroke: black; stroke-linecap:round; stroke-width:0.25; stroke-dasharray:3,3;"/>
<line x1="15.000000" y1="15.000000" x2="20.000000" y2="15.000000"  style="stroke: black; stroke-linecap:round; stroke-width:0.25; stroke-dasharray:3,3;"/>
<line x1="49.025000" y1="15.000000" x2="354.100000" y2="15.000000"  style="stroke: black; stroke-linecap:round; stroke-width:0.25; stroke-dasharray:3,3;"/>
<text x="20.000000" y="17.000000" font-family="Arial" font-size="7">process</text>
<line x1="356.100000" y1="81.000000" x2="359.100000" y2="82.000000"  transform="rotate(0.000000,359.100000,82.000000)" style="stroke: black; stroke-width:0.25;"/>
<line x1="356.100000" y1="83.000000" x2="359.100000" y2="82.000000"  transform="rotate(0.000000,359.100000,82.000000)" style="stroke: black; stroke-width:0.25;"/>
<line x1="10.000000" y1="82.000000" x2="20.000000" y2="82.000000"  style="stroke:black; stroke-linecap:round; stroke-width:0.25;"/>
<line x1="20.000000" y1="82.000000" x2="24.000000" y2="82.000000"  style="stroke:black; stroke-linecap:round; stroke-width:0.25;"/>
<line x1="24.000000" y1="82.000000" x2="28.000000" y2="82.000000"  style="stroke:black; stroke-linecap:round; stroke-width:0.25;"/>
<line x1="28.000000" y1="82.000000" x2="61.000000" y2="72.000000"  style="stroke:black; stroke-linecap:round; stroke-width:0.25;"/>
<line x1="28.000000" y1="82.000000" x2="61.000000" y2="88.000000"  style="stroke:black; stroke-linecap:round; stroke-width:0.25;"/>
<line x1="61.000000" y1="72.000000" x2="90.800000" y2="72.000000"  style="stroke:black; stroke-linecap:round; stroke-width:0.25;"/>
<line x1="61.000000" y1="88.000000" x2="113.700000" y2="88.000000"  style="stroke:black; stroke-linecap:round; stroke-width:0.25;"/>
<line x1="90.800000" y1="72.000000" x2="98.800000" y2="72.000000"  style="stroke:black; stroke-linecap:round; stroke-width:0.25;"/>
<line x1="98.800000" y1="36.000000" x2="98.800000" y2="36.000000"  style="stroke:black; stroke-linecap:round; stroke-width:0.25;"/>
<line x1="98.800000" y1="36.000000" x2="98.800000" y2="64.000000"  style="stroke:black; stroke-linecap:round; stroke-width:0.25;"/>
<line x1="98.800000" y1="64.000000" x2="98.800000" y2="64.000000"  style="stroke:black; stroke-linecap:round; stroke-width:0.25;"/>
<line x1="98.800000" y1="64.000000" x2="117.700000" y2="64.000000"  style="stroke:black; stroke-linecap:round; stroke-width:0.25;"/>
<line x1="98.800000" y1="72.000000" x2="117.700000" y2="72.000000"  style="stroke:black; stroke-linecap:round; stroke-width:0.25;"/>
<line x1="102.800000" y1="36.000000" x2="98.800000" y2="36.000000"  style="stroke:black; stroke-linecap:round; stroke-width:0.25;"/>
<line x1="106.800000" y1="36.000000" x2="102.800000" y2="36.000000"  style="stroke:black; stroke-linecap:round; stroke-width:0.25;"/>
<line x1="113.700000" y1="88.000000" x2="166.400000" y2="88.000000"  style="stroke:black; stroke-linecap:round; stroke-width:0.25;"/>
<line x1="116.800000" y1="32.000000" x2="106.800000" y2="36.000000"  style="stroke:black; stroke-linecap:round; stroke-width:0.25;"/>
<line x1="116.800000" y1="40.000000" x2="106.800000" y2="36.000000"  style="stroke:black; stroke-linecap:round; stroke-width:0.25;"/>
<line x1="117.700000" y1="64.000000" x2="117.700000" y2="64.000000"  style="stroke:black; stroke-linecap:round; stroke-width:0.25;"/>
<line x1="117.700000" y1="64.000000" x2="121.700000" y2="64.000000"  style="stroke:black; stroke-linecap:round; stroke-width:0.25;"/>
<line x1="117.700000" y1="72.000000" x2="117.700000" y2="72.000000"  style="stroke:black; stroke-linecap:round; stroke-width:0.25;"/>
<line x1="117.700000" y1="72.000000" x2="121.700000" y2="72.000000"  style="stroke:black; stroke-linecap:round; stroke-width:0.25;"/>
<line x1="120.800000" y1="32.000000" x2="116.800000" y2="32.000000"  style="stroke:black; stroke-linecap:round; stroke-width:0.25;"/>
<line x1="120.800000" y1="40.000000" x2="116.800000" y2="40.000000"  style="stroke:black; stroke-linecap:round; stroke-width:0.25;"/>
<line x1="145.700000" y1="68.000000" x2="149.700000" y2="68.000000"  style="stroke:black; stroke-linecap:round; stroke-width:0.25;"/>
<line x1="149.700000" y1="68.000000" x2="168.600000" y2="68.000000"  style="stroke:black; stroke-linecap:round; stroke-width:0.25;"/>
<line x1="150.600000" y1="36.000000" x2="146.600000" y2="36.000000"  style="stroke:black; stroke-linecap:round; stroke-width:0.25;"/>
<line x1="152.400000" y1="118.000000" x2="156.400000" y2="118.000000"  style="stroke:black; stroke-linecap:round; stroke-width:0.25;"/>
<line x1="156.400000" y1="118.000000" x2="166.400000" y2="118.000000"  style="stroke:black; stroke-linecap:round; stroke-width:0.25;"/>
<line x1="160.600000" y1="36.000000" x2="150.600000" y2="36.000000"  style="stroke:black; stroke-linecap:round; stroke-width:0.25;"/>
<line x1="164.600000" y1="36.000000" x2="160.600000" y2="36.000000"  style="stroke:black; stroke-linecap:round; stroke-width:0.25;"/>
<line x1="166.400000" y1="88.000000" x2="174.400000" y2="88.000000"  style="stroke:black; stroke-linecap:round; stroke-width:0.25;"/>
<line x1="166.400000" y1="118.000000" x2="174.400000" y2="118.000000"  style="stroke:black; stroke-linecap:round; stroke-width:0.25;"/>
<line x1="168.600000" y1="36.000000" x2="164.600000" y2="36.000000"  style="stroke:black; stroke-linecap:round; stroke-width:0.25;"/>
<line x1="168.600000" y1="36.000000" x2="168.600000" y2="36.000000"  style="stroke:black; stroke-linecap:round; stroke-width:0.25;"/>
<line x1="168.600000" y1="64.000000" x2="168.600000" y2="36.000000"  style="stroke:black; stroke-linecap:round; stroke-width:0.25;"/>
<line x1="168.600000" y1="68.000000" x2="170.600000" y2="68.000000"  style="stroke:black; stroke-linecap:round; stroke-width:0.25;"/>
<line x1="170.600000" y1="68.000000" x2="176.600000" y2="68.000000"  style="stroke:black; stroke-linecap:round; stroke-width:0.25;"/>
<line x1="174.400000" y1="88.000000" x2="174.400000" y2="110.000000"  style="stroke:black; stroke-linecap:round; stroke-width:0.25;"/>
<line x1="174.400000" y1="110.000000" x2="174.400000" y2="110.000000"  style="stroke:black; stroke-linecap:round; stroke-width:0.25;"/>
<line x1="174.400000" y1="110.000000" x2="178.400000" y2="110.000000"  style="stroke:black; stroke-linecap:round; stroke-width:0.25;"/>
<line x1="174.400000" y1="118.000000" x2="178.400000" y2="118.000000"  style="stroke:black; stroke-linecap:round; stroke-width:0.25;"/>
<line x1="176.600000" y1="68.000000" x2="206.400000" y2="68.000000"  style="stroke:black; stroke-linecap:round; stroke-width:0.25;"/>
<line x1="202.400000" y1="114.000000" x2="206.400000" y2="114.000000"  style="stroke:black; stroke-linecap:round; stroke-width:0.25;"/>
<line x1="206.400000" y1="62.000000" x2="222.400000" y2="62.000000"  style="stroke:black; stroke-linecap:round; stroke-width:0.25;"/>
<line x1="206.400000" y1="68.000000" x2="206.400000" y2="62.000000"  style="stroke:black; stroke-linecap:round; stroke-width:0.25;"/>
<line x1="206.400000" y1="68.000000" x2="206.400000" y2="68.000000"  style="stroke:black; stroke-linecap:round; stroke-width:0.25;"/>
<line x1="206.400000" y1="114.000000" x2="214.400000" y2="114.000000"  style="stroke:black; stroke-linecap:round; stroke-width:0.25;"/>
<line x1="214.400000" y1="102.000000" x2="222.400000" y2="102.000000"  style="stroke:black; stroke-linecap:round; stroke-width:0.25;"/>
<line x1="214.400000" y1="114.000000" x2="214.400000" y2="102.000000"  style="stroke:black; stroke-linecap:round; stroke-width:0.25;"/>
<line x1="222.400000" y1="62.000000" x2="245.750000" y2="62.000000"  style="stroke:black; stroke-linecap:round; stroke-width:0.25;"/>
<line x1="222.400000" y1="102.000000" x2="265.750000" y2="102.000000"  style="stroke:black; stroke-linecap:round; stroke-width:0.25;"/>
<line x1="245.750000" y1="62.000000" x2="269.100000" y2="62.000000"  style="stroke:black; stroke-linecap:round; stroke-width:0.25;"/>
<line x1="265.100000" y1="82.000000" x2="269.100000" y2="82.000000"  style="stroke:black; stroke-linecap:round; stroke-width:0.25;"/>
<line x1="265.750000" y1="102.000000" x2="309.100000" y2="102.000000"  style="stroke:black; stroke-linecap:round; stroke-width:0.25;"/>
<line x1="269.100000" y1="62.000000" x2="277.100000" y2="62.000000"  style="stroke:black; stroke-linecap:round; stroke-width:0.25;"/>
<line x1="269.100000" y1="82.000000" x2="277.100000" y2="82.000000"  style="stroke:black; stroke-linecap:round; stroke-width:0.25;"/>
<line x1="277.100000" y1="62.000000" x2="277.100000" y2="74.000000"  style="stroke:black; stroke-linecap:round; stroke-width:0.25;"/>
<line x1="277.100000" y1="74.000000" x2="277.100000" y2="74.000000"  style="stroke:black; stroke-linecap:round; stroke-width:0.25;"/>
<line x1="277.100000" y1="74.000000" x2="281.100000" y2="74.000000"  style="stroke:black; stroke-linecap:round; stroke-width:0.25;"/>
<line x1="277.100000" y1="82.000000" x2="281.100000" y2="82.000000"  style="stroke:black; stroke-linecap:round; stroke-width:0.25;"/>
<line x1="305.100000" y1="78.000000" x2="309.100000" y2="78.000000"  style="stroke:black; stroke-linecap:round; stroke-width:0.25;"/>
<line x1="309.100000" y1="78.000000" x2="317.100000" y2="78.000000"  style="stroke:black; stroke-linecap:round; stroke-width:0.25;"/>
<line x1="309.100000" y1="86.000000" x2="317.100000" y2="86.000000"  style="stroke:black; stroke-linecap:round; stroke-width:0.25;"/>
<line x1="309.100000" y1="102.000000" x2="309.100000" y2="86.000000"  style="stroke:black; stroke-linecap:round; stroke-width:0.25;"/>
<line x1="309.100000" y1="102.000000" x2="309.100000" y2="102.000000"  style="stroke:black; stroke-linecap:round; stroke-width:0.25;"/>
<line x1="317.100000" y1="78.000000" x2="321.100000" y2="78.000000"  style="stroke:black; stroke-linecap:round; stroke-width:0.25;"/>
<line x1="317.100000" y1="86.000000" x2="321.100000" y2="86.000000"  style="stroke:black; stroke-linecap:round; stroke-width:0.25;"/>
<line x1="345.100000" y1="82.000000" x2="349.100000" y2="82.000000"  style="stroke:black; stroke-linecap:round; stroke-width:0.25;"/>
<line x1="349.100000" y1="82.000000" x2="359.100000" y2="82.000000"  style="stroke:black; stroke-linecap:round; stroke-width:0.25;"/>
</svg>
