<?xml version="1.0"?>
<svg xmlns="http://www.w3.org/2000/svg" xmlns:xlink="http://www.w3.org/1999/xlink" viewBox="0 0 386.700000 160.000000" width="193.350000mm" height="80.000000mm" version="1.1">
<defs>
   <filter id="filter" filterRes="18" x="0" y="0">
     <feGaussianBlur in="SourceGraphic" stdDeviation="1.55" result="blur"/>
     <feOffset in="blur" dx="3" dy="3"/>
   </filter>
</defs>
<a xlink:href="Early-0x372a7d0.svg">
<rect x="1.000000" y="1.000000" width="385.700000" height="159.000000" rx="0.1" ry="0.1" style="stroke:none;fill:#aaaaaa;;filter:url(#filter);"/>
<rect x="0.000000" y="0.000000" width="385.700000" height="159.000000" rx="0" ry="0" style="stroke:none;fill:#ffffff;"/>
</a>
<text x="10.000000" y="7.000000" font-family="Arial" font-size="7"></text>
<rect x="35.000000" y="43.000000" width="24.000000" height="24.000000" rx="0.1" ry="0.1" style="stroke:none;fill:#aaaaaa;;filter:url(#filter);"/>
<rect x="34.000000" y="42.000000" width="24.000000" height="24.000000" rx="0" ry="0" style="stroke:none;fill:#f44800;"/>
<text x="46.000000" y="56.000000" font-family="Arial" font-size="7" text-anchor="middle" fill="#FFFFFF">2</text>
<circle cx="36.000000" cy="44.000000" r="1"/>
<line x1="25.000000" y1="33.000000" x2="25.000000" y2="75.000000"  style="stroke: black; stroke-linecap:round; stroke-width:0.25; stroke-dasharray:3,3;"/>
<line x1="25.000000" y1="75.000000" x2="67.000000" y2="75.000000"  style="stroke: black; stroke-linecap:round; stroke-width:0.25; stroke-dasharray:3,3;"/>
<line x1="67.000000" y1="75.000000" x2="67.000000" y2="33.000000"  style="stroke: black; stroke-linecap:round; stroke-width:0.25; stroke-dasharray:3,3;"/>
<line x1="25.000000" y1="33.000000" x2="30.000000" y2="33.000000"  style="stroke: black; stroke-linecap:round; stroke-width:0.25; stroke-dasharray:3,3;"/>
<line x1="49.350000" y1="33.000000" x2="67.000000" y2="33.000000"  style="stroke: black; stroke-linecap:round; stroke-width:0.25; stroke-dasharray:3,3;"/>
<text x="30.000000" y="35.000000" font-family="Arial" font-size="7">maxN</text>
<rect x="85.000000" y="39.000000" width="24.000000" height="24.000000" rx="0.1" ry="0.1" style="stroke:none;fill:#aaaaaa;;filter:url(#filter);"/>
<rect x="84.000000" y="38.000000" width="24.000000" height="24.000000" rx="0" ry="0" style="stroke:none;fill:#4B71A1;"/>
<text x="96.000000" y="52.000000" font-family="Arial" font-size="7" text-anchor="middle" fill="#FFFFFF">/</text>
<circle cx="86.000000" cy="40.000000" r="1"/>
<line x1="81.000000" y1="45.000000" x2="84.000000" y2="46.000000"  transform="rotate(0.000000,84.000000,46.000000)" style="stroke: black; stroke-width:0.25;"/>
<line x1="81.000000" y1="47.000000" x2="84.000000" y2="46.000000"  transform="rotate(0.000000,84.000000,46.000000)" style="stroke: black; stroke-width:0.25;"/>
<line x1="81.000000" y1="53.000000" x2="84.000000" y2="54.000000"  transform="rotate(0.000000,84.000000,54.000000)" style="stroke: black; stroke-width:0.25;"/>
<line x1="81.000000" y1="55.000000" x2="84.000000" y2="54.000000"  transform="rotate(0.000000,84.000000,54.000000)" style="stroke: black; stroke-width:0.25;"/>
<rect x="35.000000" y="103.000000" width="24.000000" height="24.000000" rx="0.1" ry="0.1" style="stroke:none;fill:#aaaaaa;;filter:url(#filter);"/>
<rect x="34.000000" y="102.000000" width="24.000000" height="24.000000" rx="0" ry="0" style="stroke:none;fill:#f44800;"/>
<text x="46.000000" y="116.000000" font-family="Arial" font-size="7" text-anchor="middle" fill="#FFFFFF">2</text>
<circle cx="36.000000" cy="104.000000" r="1"/>
<line x1="25.000000" y1="93.000000" x2="25.000000" y2="135.000000"  style="stroke: black; stroke-linecap:round; stroke-width:0.25; stroke-dasharray:3,3;"/>
<line x1="25.000000" y1="135.000000" x2="67.000000" y2="135.000000"  style="stroke: black; stroke-linecap:round; stroke-width:0.25; stroke-dasharray:3,3;"/>
<line x1="67.000000" y1="135.000000" x2="67.000000" y2="93.000000"  style="stroke: black; stroke-linecap:round; stroke-width:0.25; stroke-dasharray:3,3;"/>
<line x1="25.000000" y1="93.000000" x2="30.000000" y2="93.000000"  style="stroke: black; stroke-linecap:round; stroke-width:0.25; stroke-dasharray:3,3;"/>
<line x1="49.350000" y1="93.000000" x2="67.000000" y2="93.000000"  style="stroke: black; stroke-linecap:round; stroke-width:0.25; stroke-dasharray:3,3;"/>
<text x="30.000000" y="95.000000" font-family="Arial" font-size="7">maxN</text>
<rect x="85.000000" y="99.000000" width="24.000000" height="24.000000" rx="0.1" ry="0.1" style="stroke:none;fill:#aaaaaa;;filter:url(#filter);"/>
<rect x="84.000000" y="98.000000" width="24.000000" height="24.000000" rx="0" ry="0" style="stroke:none;fill:#4B71A1;"/>
<text x="96.000000" y="112.000000" font-family="Arial" font-size="7" text-anchor="middle" fill="#FFFFFF">/</text>
<circle cx="86.000000" cy="100.000000" r="1"/>
<line x1="81.000000" y1="105.000000" x2="84.000000" y2="106.000000"  transform="rotate(0.000000,84.000000,106.000000)" style="stroke: black; stroke-width:0.25;"/>
<line x1="81.000000" y1="107.000000" x2="84.000000" y2="106.000000"  transform="rotate(0.000000,84.000000,106.000000)" style="stroke: black; stroke-width:0.25;"/>
<line x1="81.000000" y1="113.000000" x2="84.000000" y2="114.000000"  transform="rotate(0.000000,84.000000,114.000000)" style="stroke: black; stroke-width:0.25;"/>
<line x1="81.000000" y1="115.000000" x2="84.000000" y2="114.000000"  transform="rotate(0.000000,84.000000,114.000000)" style="stroke: black; stroke-width:0.25;"/>
<rect x="173.000000" y="53.000000" width="24.000000" height="24.000000" rx="0.1" ry="0.1" style="stroke:none;fill:#aaaaaa;;filter:url(#filter);"/>
<rect x="172.000000" y="52.000000" width="24.000000" height="24.000000" rx="0" ry="0" style="stroke:none;fill:#4B71A1;"/>
<text x="184.000000" y="66.000000" font-family="Arial" font-size="7" text-anchor="middle" fill="#FFFFFF">-</text>
<circle cx="174.000000" cy="54.000000" r="1"/>
<line x1="169.000000" y1="59.000000" x2="172.000000" y2="60.000000"  transform="rotate(0.000000,172.000000,60.000000)" style="stroke: black; stroke-width:0.25;"/>
<line x1="169.000000" y1="61.000000" x2="172.000000" y2="60.000000"  transform="rotate(0.000000,172.000000,60.000000)" style="stroke: black; stroke-width:0.25;"/>
<line x1="169.000000" y1="67.000000" x2="172.000000" y2="68.000000"  transform="rotate(0.000000,172.000000,68.000000)" style="stroke: black; stroke-width:0.25;"/>
<line x1="169.000000" y1="69.000000" x2="172.000000" y2="68.000000"  transform="rotate(0.000000,172.000000,68.000000)" style="stroke: black; stroke-width:0.25;"/>
<a xlink:href="DelTime-0x3706cb0.svg">
<rect x="213.000000" y="41.000000" width="38.700000" height="24.000000" rx="0.1" ry="0.1" style="stroke:none;fill:#aaaaaa;;filter:url(#filter);"/>
<rect x="212.000000" y="40.000000" width="38.700000" height="24.000000" rx="0" ry="0" style="stroke:none;fill:#003366;"/>
</a>
<a xlink:href="DelTime-0x3706cb0.svg">
<text x="231.350000" y="54.000000" font-family="Arial" font-size="7" text-anchor="middle" fill="#FFFFFF">DelTime</text>
</a>
<circle cx="214.000000" cy="42.000000" r="1"/>
<rect x="220.350000" y="73.000000" width="24.000000" height="24.000000" rx="0.1" ry="0.1" style="stroke:none;fill:#aaaaaa;;filter:url(#filter);"/>
<rect x="219.350000" y="72.000000" width="24.000000" height="24.000000" rx="0" ry="0" style="stroke:none;fill:#f44800;"/>
<text x="231.350000" y="86.000000" font-family="Arial" font-size="7" text-anchor="middle" fill="#FFFFFF">5</text>
<circle cx="221.350000" cy="74.000000" r="1"/>
<rect x="267.700000" y="57.000000" width="24.000000" height="24.000000" rx="0.1" ry="0.1" style="stroke:none;fill:#aaaaaa;;filter:url(#filter);"/>
<rect x="266.700000" y="56.000000" width="24.000000" height="24.000000" rx="0" ry="0" style="stroke:none;fill:#4B71A1;"/>
<text x="278.700000" y="70.000000" font-family="Arial" font-size="7" text-anchor="middle" fill="#FFFFFF">*</text>
<circle cx="268.700000" cy="58.000000" r="1"/>
<line x1="263.700000" y1="63.000000" x2="266.700000" y2="64.000000"  transform="rotate(0.000000,266.700000,64.000000)" style="stroke: black; stroke-width:0.25;"/>
<line x1="263.700000" y1="65.000000" x2="266.700000" y2="64.000000"  transform="rotate(0.000000,266.700000,64.000000)" style="stroke: black; stroke-width:0.25;"/>
<line x1="263.700000" y1="71.000000" x2="266.700000" y2="72.000000"  transform="rotate(0.000000,266.700000,72.000000)" style="stroke: black; stroke-width:0.25;"/>
<line x1="263.700000" y1="73.000000" x2="266.700000" y2="72.000000"  transform="rotate(0.000000,266.700000,72.000000)" style="stroke: black; stroke-width:0.25;"/>
<rect x="299.700000" y="57.000000" width="24.000000" height="24.000000" rx="0.1" ry="0.1" style="stroke:none;fill:#aaaaaa;;filter:url(#filter);"/>
<rect x="298.700000" y="56.000000" width="24.000000" height="24.000000" rx="0" ry="0" style="stroke:none;fill:#4B71A1;"/>
<text x="310.700000" y="70.000000" font-family="Arial" font-size="7" text-anchor="middle" fill="#FFFFFF">int</text>
<circle cx="300.700000" cy="58.000000" r="1"/>
<line x1="295.700000" y1="67.000000" x2="298.700000" y2="68.000000"  transform="rotate(0.000000,298.700000,68.000000)" style="stroke: black; stroke-width:0.25;"/>
<line x1="295.700000" y1="69.000000" x2="298.700000" y2="68.000000"  transform="rotate(0.000000,298.700000,68.000000)" style="stroke: black; stroke-width:0.25;"/>
<rect x="339.700000" y="53.000000" width="24.000000" height="24.000000" rx="0.1" ry="0.1" style="stroke:none;fill:#aaaaaa;;filter:url(#filter);"/>
<rect x="338.700000" y="52.000000" width="24.000000" height="24.000000" rx="0" ry="0" style="stroke:none;fill:#4B71A1;"/>
<text x="350.700000" y="66.000000" font-family="Arial" font-size="7" text-anchor="middle" fill="#FFFFFF">@</text>
<circle cx="340.700000" cy="54.000000" r="1"/>
<line x1="335.700000" y1="59.000000" x2="338.700000" y2="60.000000"  transform="rotate(0.000000,338.700000,60.000000)" style="stroke: black; stroke-width:0.25;"/>
<line x1="335.700000" y1="61.000000" x2="338.700000" y2="60.000000"  transform="rotate(0.000000,338.700000,60.000000)" style="stroke: black; stroke-width:0.25;"/>
<line x1="335.700000" y1="67.000000" x2="338.700000" y2="68.000000"  transform="rotate(0.000000,338.700000,68.000000)" style="stroke: black; stroke-width:0.25;"/>
<line x1="335.700000" y1="69.000000" x2="338.700000" y2="68.000000"  transform="rotate(0.000000,338.700000,68.000000)" style="stroke: black; stroke-width:0.25;"/>
<rect x="256.350000" y="105.000000" width="24.000000" height="24.000000" rx="0.1" ry="0.1" style="stroke:none;fill:#aaaaaa;;filter:url(#filter);"/>
<rect x="255.350000" y="104.000000" width="24.000000" height="24.000000" rx="0" ry="0" style="stroke:none;fill:#4B71A1;"/>
<text x="267.350000" y="118.000000" font-family="Arial" font-size="7" text-anchor="middle" fill="#FFFFFF">+</text>
<circle cx="257.350000" cy="106.000000" r="1"/>
<line x1="252.350000" y1="111.000000" x2="255.350000" y2="112.000000"  transform="rotate(0.000000,255.350000,112.000000)" style="stroke: black; stroke-width:0.25;"/>
<line x1="252.350000" y1="113.000000" x2="255.350000" y2="112.000000"  transform="rotate(0.000000,255.350000,112.000000)" style="stroke: black; stroke-width:0.25;"/>
<line x1="252.350000" y1="119.000000" x2="255.350000" y2="120.000000"  transform="rotate(0.000000,255.350000,120.000000)" style="stroke: black; stroke-width:0.25;"/>
<line x1="252.350000" y1="121.000000" x2="255.350000" y2="120.000000"  transform="rotate(0.000000,255.350000,120.000000)" style="stroke: black; stroke-width:0.25;"/>
<line x1="15.000000" y1="15.000000" x2="15.000000" y2="145.000000"  style="stroke: black; stroke-linecap:round; stroke-width:0.25; stroke-dasharray:3,3;"/>
<line x1="15.000000" y1="145.000000" x2="371.700000" y2="145.000000"  style="stroke: black; stroke-linecap:round; stroke-width:0.25; stroke-dasharray:3,3;"/>
<line x1="371.700000" y1="145.000000" x2="371.700000" y2="15.000000"  style="stroke: black; stroke-linecap:round; stroke-width:0.25; stroke-dasharray:3,3;"/>
<line x1="15.000000" y1="15.000000" x2="20.000000" y2="15.000000"  style="stroke: black; stroke-linecap:round; stroke-width:0.25; stroke-dasharray:3,3;"/>
<line x1="45.800000" y1="15.000000" x2="371.700000" y2="15.000000"  style="stroke: black; stroke-linecap:round; stroke-width:0.25; stroke-dasharray:3,3;"/>
<text x="20.000000" y="17.000000" font-family="Arial" font-size="7">Del(5)</text>
<line x1="373.700000" y1="63.000000" x2="376.700000" y2="64.000000"  transform="rotate(0.000000,376.700000,64.000000)" style="stroke: black; stroke-width:0.25;"/>
<line x1="373.700000" y1="65.000000" x2="376.700000" y2="64.000000"  transform="rotate(0.000000,376.700000,64.000000)" style="stroke: black; stroke-width:0.25;"/>
<line x1="373.700000" y1="115.000000" x2="376.700000" y2="116.000000"  transform="rotate(0.000000,376.700000,116.000000)" style="stroke: black; stroke-width:0.25;"/>
<line x1="373.700000" y1="117.000000" x2="376.700000" y2="116.000000"  transform="rotate(0.000000,376.700000,116.000000)" style="stroke: black; stroke-width:0.25;"/>
<line x1="10.000000" y1="24.000000" x2="20.000000" y2="24.000000"  style="stroke:black; stroke-linecap:round; stroke-width:0.25;"/>
<line x1="10.000000" y1="84.000000" x2="20.000000" y2="84.000000"  style="stroke:black; stroke-linecap:round; stroke-width:0.25;"/>
<line x1="20.000000" y1="24.000000" x2="46.000000" y2="24.000000"  style="stroke:black; stroke-linecap:round; stroke-width:0.25;"/>
<line x1="20.000000" y1="84.000000" x2="46.000000" y2="84.000000"  style="stroke:black; stroke-linecap:round; stroke-width:0.25;"/>
<line x1="46.000000" y1="24.000000" x2="72.000000" y2="24.000000"  style="stroke:black; stroke-linecap:round; stroke-width:0.25;"/>
<line x1="46.000000" y1="84.000000" x2="72.000000" y2="84.000000"  style="stroke:black; stroke-linecap:round; stroke-width:0.25;"/>
<line x1="58.000000" y1="54.000000" x2="62.000000" y2="54.000000"  style="stroke:black; stroke-linecap:round; stroke-width:0.25;"/>
<line x1="58.000000" y1="114.000000" x2="62.000000" y2="114.000000"  style="stroke:black; stroke-linecap:round; stroke-width:0.25;"/>
<line x1="62.000000" y1="54.000000" x2="72.000000" y2="54.000000"  style="stroke:black; stroke-linecap:round; stroke-width:0.25;"/>
<line x1="62.000000" y1="114.000000" x2="72.000000" y2="114.000000"  style="stroke:black; stroke-linecap:round; stroke-width:0.25;"/>
<line x1="72.000000" y1="24.000000" x2="80.000000" y2="24.000000"  style="stroke:black; stroke-linecap:round; stroke-width:0.25;"/>
<line x1="72.000000" y1="54.000000" x2="80.000000" y2="54.000000"  style="stroke:black; stroke-linecap:round; stroke-width:0.25;"/>
<line x1="72.000000" y1="84.000000" x2="80.000000" y2="84.000000"  style="stroke:black; stroke-linecap:round; stroke-width:0.25;"/>
<line x1="72.000000" y1="114.000000" x2="80.000000" y2="114.000000"  style="stroke:black; stroke-linecap:round; stroke-width:0.25;"/>
<line x1="80.000000" y1="24.000000" x2="80.000000" y2="46.000000"  style="stroke:black; stroke-linecap:round; stroke-width:0.25;"/>
<line x1="80.000000" y1="46.000000" x2="80.000000" y2="46.000000"  style="stroke:black; stroke-linecap:round; stroke-width:0.25;"/>
<line x1="80.000000" y1="46.000000" x2="84.000000" y2="46.000000"  style="stroke:black; stroke-linecap:round; stroke-width:0.25;"/>
<line x1="80.000000" y1="54.000000" x2="84.000000" y2="54.000000"  style="stroke:black; stroke-linecap:round; stroke-width:0.25;"/>
<line x1="80.000000" y1="84.000000" x2="80.000000" y2="106.000000"  style="stroke:black; stroke-linecap:round; stroke-width:0.25;"/>
<line x1="80.000000" y1="106.000000" x2="80.000000" y2="106.000000"  style="stroke:black; stroke-linecap:round; stroke-width:0.25;"/>
<line x1="80.000000" y1="106.000000" x2="84.000000" y2="106.000000"  style="stroke:black; stroke-linecap:round; stroke-width:0.25;"/>
<line x1="80.000000" y1="114.000000" x2="84.000000" y2="114.000000"  style="stroke:black; stroke-linecap:round; stroke-width:0.25;"/>
<line x1="108.000000" y1="50.000000" x2="112.000000" y2="50.000000"  style="stroke:black; stroke-linecap:round; stroke-width:0.25;"/>
<line x1="108.000000" y1="110.000000" x2="112.000000" y2="110.000000"  style="stroke:black; stroke-linecap:round; stroke-width:0.25;"/>
<line x1="112.000000" y1="50.000000" x2="168.000000" y2="60.000000"  style="stroke:black; stroke-linecap:round; stroke-width:0.25;"/>
<line x1="112.000000" y1="50.000000" x2="168.000000" y2="112.000000"  style="stroke:black; stroke-linecap:round; stroke-width:0.25;"/>
<line x1="112.000000" y1="110.000000" x2="168.000000" y2="68.000000"  style="stroke:black; stroke-linecap:round; stroke-width:0.25;"/>
<line x1="112.000000" y1="110.000000" x2="168.000000" y2="120.000000"  style="stroke:black; stroke-linecap:round; stroke-width:0.25;"/>
<line x1="168.000000" y1="60.000000" x2="168.000000" y2="60.000000"  style="stroke:black; stroke-linecap:round; stroke-width:0.25;"/>
<line x1="168.000000" y1="60.000000" x2="172.000000" y2="60.000000"  style="stroke:black; stroke-linecap:round; stroke-width:0.25;"/>
<line x1="168.000000" y1="68.000000" x2="168.000000" y2="68.000000"  style="stroke:black; stroke-linecap:round; stroke-width:0.25;"/>
<line x1="168.000000" y1="68.000000" x2="172.000000" y2="68.000000"  style="stroke:black; stroke-linecap:round; stroke-width:0.25;"/>
<line x1="168.000000" y1="112.000000" x2="251.350000" y2="112.000000"  style="stroke:black; stroke-linecap:round; stroke-width:0.25;"/>
<line x1="168.000000" y1="120.000000" x2="251.350000" y2="120.000000"  style="stroke:black; stroke-linecap:round; stroke-width:0.25;"/>
<line x1="196.000000" y1="64.000000" x2="200.000000" y2="64.000000"  style="stroke:black; stroke-linecap:round; stroke-width:0.25;"/>
<line x1="200.000000" y1="32.000000" x2="208.000000" y2="32.000000"  style="stroke:black; stroke-linecap:round; stroke-width:0.25;"/>
<line x1="200.000000" y1="64.000000" x2="200.000000" y2="32.000000"  style="stroke:black; stroke-linecap:round; stroke-width:0.25;"/>
<line x1="200.000000" y1="64.000000" x2="200.000000" y2="64.000000"  style="stroke:black; stroke-linecap:round; stroke-width:0.25;"/>
<line x1="208.000000" y1="32.000000" x2="267.350000" y2="32.000000"  style="stroke:black; stroke-linecap:round; stroke-width:0.25;"/>
<line x1="243.350000" y1="84.000000" x2="247.350000" y2="84.000000"  style="stroke:black; stroke-linecap:round; stroke-width:0.25;"/>
<line x1="247.350000" y1="84.000000" x2="254.700000" y2="84.000000"  style="stroke:black; stroke-linecap:round; stroke-width:0.25;"/>
<line x1="250.700000" y1="52.000000" x2="254.700000" y2="52.000000"  style="stroke:black; stroke-linecap:round; stroke-width:0.25;"/>
<line x1="251.350000" y1="112.000000" x2="251.350000" y2="112.000000"  style="stroke:black; stroke-linecap:round; stroke-width:0.25;"/>
<line x1="251.350000" y1="112.000000" x2="255.350000" y2="112.000000"  style="stroke:black; stroke-linecap:round; stroke-width:0.25;"/>
<line x1="251.350000" y1="120.000000" x2="251.350000" y2="120.000000"  style="stroke:black; stroke-linecap:round; stroke-width:0.25;"/>
<line x1="251.350000" y1="120.000000" x2="255.350000" y2="120.000000"  style="stroke:black; stroke-linecap:round; stroke-width:0.25;"/>
<line x1="254.700000" y1="52.000000" x2="262.700000" y2="52.000000"  style="stroke:black; stroke-linecap:round; stroke-width:0.25;"/>
<line x1="254.700000" y1="72.000000" x2="262.700000" y2="72.000000"  style="stroke:black; stroke-linecap:round; stroke-width:0.25;"/>
<line x1="254.700000" y1="84.000000" x2="254.700000" y2="72.000000"  style="stroke:black; stroke-linecap:round; stroke-width:0.25;"/>
<line x1="254.700000" y1="84.000000" x2="254.700000" y2="84.000000"  style="stroke:black; stroke-linecap:round; stroke-width:0.25;"/>
<line x1="262.700000" y1="52.000000" x2="262.700000" y2="64.000000"  style="stroke:black; stroke-linecap:round; stroke-width:0.25;"/>
<line x1="262.700000" y1="64.000000" x2="262.700000" y2="64.000000"  style="stroke:black; stroke-linecap:round; stroke-width:0.25;"/>
<line x1="262.700000" y1="64.000000" x2="266.700000" y2="64.000000"  style="stroke:black; stroke-linecap:round; stroke-width:0.25;"/>
<line x1="262.700000" y1="72.000000" x2="266.700000" y2="72.000000"  style="stroke:black; stroke-linecap:round; stroke-width:0.25;"/>
<line x1="267.350000" y1="32.000000" x2="326.700000" y2="32.000000"  style="stroke:black; stroke-linecap:round; stroke-width:0.25;"/>
<line x1="279.350000" y1="116.000000" x2="283.350000" y2="116.000000"  style="stroke:black; stroke-linecap:round; stroke-width:0.25;"/>
<line x1="283.350000" y1="116.000000" x2="366.700000" y2="116.000000"  style="stroke:black; stroke-linecap:round; stroke-width:0.25;"/>
<line x1="290.700000" y1="68.000000" x2="294.700000" y2="68.000000"  style="stroke:black; stroke-linecap:round; stroke-width:0.25;"/>
<line x1="294.700000" y1="68.000000" x2="294.700000" y2="68.000000"  style="stroke:black; stroke-linecap:round; stroke-width:0.25;"/>
<line x1="294.700000" y1="68.000000" x2="298.700000" y2="68.000000"  style="stroke:black; stroke-linecap:round; stroke-width:0.25;"/>
<line x1="322.700000" y1="68.000000" x2="326.700000" y2="68.000000"  style="stroke:black; stroke-linecap:round; stroke-width:0.25;"/>
<line x1="326.700000" y1="68.000000" x2="334.700000" y2="68.000000"  style="stroke:black; stroke-linecap:round; stroke-width:0.25;"/>
<line x1="326.700000" y1="32.000000" x2="334.700000" y2="32.000000"  style="stroke:black; stroke-linecap:round; stroke-width:0.25;"/>
<line x1="334.700000" y1="60.000000" x2="338.700000" y2="60.000000"  style="stroke:black; stroke-linecap:round; stroke-width:0.25;"/>
<line x1="334.700000" y1="68.000000" x2="338.700000" y2="68.000000"  style="stroke:black; stroke-linecap:round; stroke-width:0.25;"/>
<line x1="334.700000" y1="32.000000" x2="334.700000" y2="60.000000"  style="stroke:black; stroke-linecap:round; stroke-width:0.25;"/>
<line x1="334.700000" y1="60.000000" x2="334.700000" y2="60.000000"  style="stroke:black; stroke-linecap:round; stroke-width:0.25;"/>
<line x1="362.700000" y1="64.000000" x2="366.700000" y2="64.000000"  style="stroke:black; stroke-linecap:round; stroke-width:0.25;"/>
<line x1="366.700000" y1="64.000000" x2="376.700000" y2="64.000000"  style="stroke:black; stroke-linecap:round; stroke-width:0.25;"/>
<line x1="366.700000" y1="116.000000" x2="376.700000" y2="116.000000"  style="stroke:black; stroke-linecap:round; stroke-width:0.25;"/>
</svg>
