<?xml version="1.0"?>
<svg xmlns="http://www.w3.org/2000/svg" xmlns:xlink="http://www.w3.org/1999/xlink" viewBox="0 0 334.700000 192.000000" width="167.350000mm" height="96.000000mm" version="1.1">
<defs>
   <filter id="filter" filterRes="18" x="0" y="0">
     <feGaussianBlur in="SourceGraphic" stdDeviation="1.55" result="blur"/>
     <feOffset in="blur" dx="3" dy="3"/>
   </filter>
</defs>
<a xlink:href="Febaroute2-0x3739280.svg">
<rect x="1.000000" y="1.000000" width="333.700000" height="191.000000" rx="0.1" ry="0.1" style="stroke:none;fill:#aaaaaa;;filter:url(#filter);"/>
<rect x="0.000000" y="0.000000" width="333.700000" height="191.000000" rx="0" ry="0" style="stroke:none;fill:#ffffff;"/>
</a>
<text x="10.000000" y="7.000000" font-family="Arial" font-size="7"></text>
<rect x="116.350000" y="145.000000" width="24.000000" height="24.000000" rx="0.1" ry="0.1" style="stroke:none;fill:#aaaaaa;;filter:url(#filter);"/>
<rect x="115.350000" y="144.000000" width="24.000000" height="24.000000" rx="0" ry="0" style="stroke:none;fill:#f44800;"/>
<text x="127.350000" y="158.000000" font-family="Arial" font-size="7" text-anchor="middle" fill="#FFFFFF">1.2</text>
<circle cx="117.350000" cy="146.000000" r="1"/>
<rect x="156.350000" y="141.000000" width="24.000000" height="24.000000" rx="0.1" ry="0.1" style="stroke:none;fill:#aaaaaa;;filter:url(#filter);"/>
<rect x="155.350000" y="140.000000" width="24.000000" height="24.000000" rx="0" ry="0" style="stroke:none;fill:#4B71A1;"/>
<text x="167.350000" y="154.000000" font-family="Arial" font-size="7" text-anchor="middle" fill="#FFFFFF">*</text>
<circle cx="157.350000" cy="142.000000" r="1"/>
<line x1="152.350000" y1="147.000000" x2="155.350000" y2="148.000000"  transform="rotate(0.000000,155.350000,148.000000)" style="stroke: black; stroke-width:0.25;"/>
<line x1="152.350000" y1="149.000000" x2="155.350000" y2="148.000000"  transform="rotate(0.000000,155.350000,148.000000)" style="stroke: black; stroke-width:0.25;"/>
<line x1="152.350000" y1="155.000000" x2="155.350000" y2="156.000000"  transform="rotate(0.000000,155.350000,156.000000)" style="stroke: black; stroke-width:0.25;"/>
<line x1="152.350000" y1="157.000000" x2="155.350000" y2="156.000000"  transform="rotate(0.000000,155.350000,156.000000)" style="stroke: black; stroke-width:0.25;"/>
<rect x="196.350000" y="137.000000" width="24.000000" height="24.000000" rx="0.1" ry="0.1" style="stroke:none;fill:#aaaaaa;;filter:url(#filter);"/>
<rect x="195.350000" y="136.000000" width="24.000000" height="24.000000" rx="0" ry="0" style="stroke:none;fill:#4B71A1;"/>
<text x="207.350000" y="150.000000" font-family="Arial" font-size="7" text-anchor="middle" fill="#FFFFFF">+</text>
<circle cx="197.350000" cy="138.000000" r="1"/>
<line x1="192.350000" y1="143.000000" x2="195.350000" y2="144.000000"  transform="rotate(0.000000,195.350000,144.000000)" style="stroke: black; stroke-width:0.25;"/>
<line x1="192.350000" y1="145.000000" x2="195.350000" y2="144.000000"  transform="rotate(0.000000,195.350000,144.000000)" style="stroke: black; stroke-width:0.25;"/>
<line x1="192.350000" y1="151.000000" x2="195.350000" y2="152.000000"  transform="rotate(0.000000,195.350000,152.000000)" style="stroke: black; stroke-width:0.25;"/>
<line x1="192.350000" y1="153.000000" x2="195.350000" y2="152.000000"  transform="rotate(0.000000,195.350000,152.000000)" style="stroke: black; stroke-width:0.25;"/>
<rect x="258.800000" y="89.000000" width="25.800000" height="24.000000" rx="0.1" ry="0.1" style="stroke:none;fill:#aaaaaa;;filter:url(#filter);"/>
<rect x="257.800000" y="88.000000" width="25.800000" height="24.000000" rx="0" ry="0" style="stroke:none;fill:#f44800;"/>
<text x="270.700000" y="102.000000" font-family="Arial" font-size="7" text-anchor="middle" fill="#FFFFFF">1723</text>
<circle cx="281.600000" cy="110.000000" r="1"/>
<a xlink:href="SR-0x364d6b0.svg">
<rect x="279.700000" y="57.000000" width="24.000000" height="24.000000" rx="0.1" ry="0.1" style="stroke:none;fill:#aaaaaa;;filter:url(#filter);"/>
<rect x="278.700000" y="56.000000" width="24.000000" height="24.000000" rx="0" ry="0" style="stroke:none;fill:#003366;"/>
</a>
<a xlink:href="SR-0x364d6b0.svg">
<text x="290.700000" y="70.000000" font-family="Arial" font-size="7" text-anchor="middle" fill="#FFFFFF">SR</text>
</a>
<circle cx="300.700000" cy="78.000000" r="1"/>
<a xlink:href="SR-0x364d6b0.svg">
<rect x="279.700000" y="25.000000" width="24.000000" height="24.000000" rx="0.1" ry="0.1" style="stroke:none;fill:#aaaaaa;;filter:url(#filter);"/>
<rect x="278.700000" y="24.000000" width="24.000000" height="24.000000" rx="0" ry="0" style="stroke:none;fill:#003366;"/>
</a>
<a xlink:href="SR-0x364d6b0.svg">
<text x="290.700000" y="38.000000" font-family="Arial" font-size="7" text-anchor="middle" fill="#FFFFFF">SR</text>
</a>
<circle cx="300.700000" cy="46.000000" r="1"/>
<rect x="239.700000" y="41.000000" width="24.000000" height="24.000000" rx="0.1" ry="0.1" style="stroke:none;fill:#aaaaaa;;filter:url(#filter);"/>
<rect x="238.700000" y="40.000000" width="24.000000" height="24.000000" rx="0" ry="0" style="stroke:none;fill:#4B71A1;"/>
<text x="250.700000" y="54.000000" font-family="Arial" font-size="7" text-anchor="middle" fill="#FFFFFF">/</text>
<circle cx="260.700000" cy="62.000000" r="1"/>
<line x1="265.700000" y1="55.000000" x2="262.700000" y2="56.000000"  transform="rotate(0.000000,262.700000,56.000000)" style="stroke: black; stroke-width:0.25;"/>
<line x1="265.700000" y1="57.000000" x2="262.700000" y2="56.000000"  transform="rotate(0.000000,262.700000,56.000000)" style="stroke: black; stroke-width:0.25;"/>
<line x1="265.700000" y1="47.000000" x2="262.700000" y2="48.000000"  transform="rotate(0.000000,262.700000,48.000000)" style="stroke: black; stroke-width:0.25;"/>
<line x1="265.700000" y1="49.000000" x2="262.700000" y2="48.000000"  transform="rotate(0.000000,262.700000,48.000000)" style="stroke: black; stroke-width:0.25;"/>
<rect x="199.700000" y="57.000000" width="24.000000" height="24.000000" rx="0.1" ry="0.1" style="stroke:none;fill:#aaaaaa;;filter:url(#filter);"/>
<rect x="198.700000" y="56.000000" width="24.000000" height="24.000000" rx="0" ry="0" style="stroke:none;fill:#4B71A1;"/>
<text x="210.700000" y="70.000000" font-family="Arial" font-size="7" text-anchor="middle" fill="#FFFFFF">*</text>
<circle cx="220.700000" cy="78.000000" r="1"/>
<line x1="225.700000" y1="71.000000" x2="222.700000" y2="72.000000"  transform="rotate(0.000000,222.700000,72.000000)" style="stroke: black; stroke-width:0.25;"/>
<line x1="225.700000" y1="73.000000" x2="222.700000" y2="72.000000"  transform="rotate(0.000000,222.700000,72.000000)" style="stroke: black; stroke-width:0.25;"/>
<line x1="225.700000" y1="63.000000" x2="222.700000" y2="64.000000"  transform="rotate(0.000000,222.700000,64.000000)" style="stroke: black; stroke-width:0.25;"/>
<line x1="225.700000" y1="65.000000" x2="222.700000" y2="64.000000"  transform="rotate(0.000000,222.700000,64.000000)" style="stroke: black; stroke-width:0.25;"/>
<rect x="167.700000" y="57.000000" width="24.000000" height="24.000000" rx="0.1" ry="0.1" style="stroke:none;fill:#aaaaaa;;filter:url(#filter);"/>
<rect x="166.700000" y="56.000000" width="24.000000" height="24.000000" rx="0" ry="0" style="stroke:none;fill:#4B71A1;"/>
<text x="178.700000" y="70.000000" font-family="Arial" font-size="7" text-anchor="middle" fill="#FFFFFF">int</text>
<circle cx="188.700000" cy="78.000000" r="1"/>
<line x1="193.700000" y1="67.000000" x2="190.700000" y2="68.000000"  transform="rotate(0.000000,190.700000,68.000000)" style="stroke: black; stroke-width:0.25;"/>
<line x1="193.700000" y1="69.000000" x2="190.700000" y2="68.000000"  transform="rotate(0.000000,190.700000,68.000000)" style="stroke: black; stroke-width:0.25;"/>
<rect x="127.700000" y="61.000000" width="24.000000" height="24.000000" rx="0.1" ry="0.1" style="stroke:none;fill:#aaaaaa;;filter:url(#filter);"/>
<rect x="126.700000" y="60.000000" width="24.000000" height="24.000000" rx="0" ry="0" style="stroke:none;fill:#4B71A1;"/>
<text x="138.700000" y="74.000000" font-family="Arial" font-size="7" text-anchor="middle" fill="#FFFFFF">@</text>
<circle cx="148.700000" cy="82.000000" r="1"/>
<line x1="153.700000" y1="75.000000" x2="150.700000" y2="76.000000"  transform="rotate(0.000000,150.700000,76.000000)" style="stroke: black; stroke-width:0.25;"/>
<line x1="153.700000" y1="77.000000" x2="150.700000" y2="76.000000"  transform="rotate(0.000000,150.700000,76.000000)" style="stroke: black; stroke-width:0.25;"/>
<line x1="153.700000" y1="67.000000" x2="150.700000" y2="68.000000"  transform="rotate(0.000000,150.700000,68.000000)" style="stroke: black; stroke-width:0.25;"/>
<line x1="153.700000" y1="69.000000" x2="150.700000" y2="68.000000"  transform="rotate(0.000000,150.700000,68.000000)" style="stroke: black; stroke-width:0.25;"/>
<a xlink:href="UserFeBa-0x364bbb0.svg">
<rect x="73.000000" y="57.000000" width="38.700000" height="24.000000" rx="0.1" ry="0.1" style="stroke:none;fill:#aaaaaa;;filter:url(#filter);"/>
<rect x="72.000000" y="56.000000" width="38.700000" height="24.000000" rx="0" ry="0" style="stroke:none;fill:#003366;"/>
</a>
<a xlink:href="UserFeBa-0x364bbb0.svg">
<text x="91.350000" y="70.000000" font-family="Arial" font-size="7" text-anchor="middle" fill="#FFFFFF">UserFeBa</text>
</a>
<circle cx="108.700000" cy="78.000000" r="1"/>
<rect x="33.000000" y="61.000000" width="24.000000" height="24.000000" rx="0.1" ry="0.1" style="stroke:none;fill:#aaaaaa;;filter:url(#filter);"/>
<rect x="32.000000" y="60.000000" width="24.000000" height="24.000000" rx="0" ry="0" style="stroke:none;fill:#4B71A1;"/>
<text x="44.000000" y="74.000000" font-family="Arial" font-size="7" text-anchor="middle" fill="#FFFFFF">*</text>
<circle cx="54.000000" cy="82.000000" r="1"/>
<line x1="59.000000" y1="75.000000" x2="56.000000" y2="76.000000"  transform="rotate(0.000000,56.000000,76.000000)" style="stroke: black; stroke-width:0.25;"/>
<line x1="59.000000" y1="77.000000" x2="56.000000" y2="76.000000"  transform="rotate(0.000000,56.000000,76.000000)" style="stroke: black; stroke-width:0.25;"/>
<line x1="59.000000" y1="67.000000" x2="56.000000" y2="68.000000"  transform="rotate(0.000000,56.000000,68.000000)" style="stroke: black; stroke-width:0.25;"/>
<line x1="59.000000" y1="69.000000" x2="56.000000" y2="68.000000"  transform="rotate(0.000000,56.000000,68.000000)" style="stroke: black; stroke-width:0.25;"/>
<line x1="304.700000" y1="148.000000" x2="304.700000" y2="144.000000"  style="stroke:black; stroke-linecap:round; stroke-width:0.25;"/>
<line x1="304.700000" y1="144.000000" x2="308.700000" y2="144.000000"  style="stroke:black; stroke-linecap:round; stroke-width:0.25;"/>
<line x1="308.700000" y1="144.000000" x2="308.700000" y2="148.000000"  style="stroke:black; stroke-linecap:round; stroke-width:0.25;"/>
<line x1="15.000000" y1="15.000000" x2="15.000000" y2="177.000000"  style="stroke: black; stroke-linecap:round; stroke-width:0.25; stroke-dasharray:3,3;"/>
<line x1="15.000000" y1="177.000000" x2="319.700000" y2="177.000000"  style="stroke: black; stroke-linecap:round; stroke-width:0.25; stroke-dasharray:3,3;"/>
<line x1="319.700000" y1="177.000000" x2="319.700000" y2="15.000000"  style="stroke: black; stroke-linecap:round; stroke-width:0.25; stroke-dasharray:3,3;"/>
<line x1="15.000000" y1="15.000000" x2="20.000000" y2="15.000000"  style="stroke: black; stroke-linecap:round; stroke-width:0.25; stroke-dasharray:3,3;"/>
<line x1="71.600000" y1="15.000000" x2="319.700000" y2="15.000000"  style="stroke: black; stroke-linecap:round; stroke-width:0.25; stroke-dasharray:3,3;"/>
<text x="20.000000" y="17.000000" font-family="Arial" font-size="7">delline1(1723)</text>
<line x1="321.700000" y1="147.000000" x2="324.700000" y2="148.000000"  transform="rotate(0.000000,324.700000,148.000000)" style="stroke: black; stroke-width:0.25;"/>
<line x1="321.700000" y1="149.000000" x2="324.700000" y2="148.000000"  transform="rotate(0.000000,324.700000,148.000000)" style="stroke: black; stroke-width:0.25;"/>
<line x1="10.000000" y1="136.000000" x2="20.000000" y2="136.000000"  style="stroke:black; stroke-linecap:round; stroke-width:0.25;"/>
<line x1="20.000000" y1="136.000000" x2="28.000000" y2="136.000000"  style="stroke:black; stroke-linecap:round; stroke-width:0.25;"/>
<line x1="28.000000" y1="72.000000" x2="28.000000" y2="72.000000"  style="stroke:black; stroke-linecap:round; stroke-width:0.25;"/>
<line x1="28.000000" y1="72.000000" x2="28.000000" y2="128.000000"  style="stroke:black; stroke-linecap:round; stroke-width:0.25;"/>
<line x1="28.000000" y1="128.000000" x2="28.000000" y2="128.000000"  style="stroke:black; stroke-linecap:round; stroke-width:0.25;"/>
<line x1="28.000000" y1="128.000000" x2="111.350000" y2="128.000000"  style="stroke:black; stroke-linecap:round; stroke-width:0.25;"/>
<line x1="28.000000" y1="136.000000" x2="111.350000" y2="136.000000"  style="stroke:black; stroke-linecap:round; stroke-width:0.25;"/>
<line x1="32.000000" y1="72.000000" x2="28.000000" y2="72.000000"  style="stroke:black; stroke-linecap:round; stroke-width:0.25;"/>
<line x1="60.000000" y1="68.000000" x2="56.000000" y2="68.000000"  style="stroke:black; stroke-linecap:round; stroke-width:0.25;"/>
<line x1="60.000000" y1="76.000000" x2="56.000000" y2="76.000000"  style="stroke:black; stroke-linecap:round; stroke-width:0.25;"/>
<line x1="60.000000" y1="76.000000" x2="60.000000" y2="76.000000"  style="stroke:black; stroke-linecap:round; stroke-width:0.25;"/>
<line x1="60.000000" y1="88.000000" x2="60.000000" y2="76.000000"  style="stroke:black; stroke-linecap:round; stroke-width:0.25;"/>
<line x1="68.000000" y1="68.000000" x2="60.000000" y2="68.000000"  style="stroke:black; stroke-linecap:round; stroke-width:0.25;"/>
<line x1="68.000000" y1="88.000000" x2="60.000000" y2="88.000000"  style="stroke:black; stroke-linecap:round; stroke-width:0.25;"/>
<line x1="72.000000" y1="68.000000" x2="68.000000" y2="68.000000"  style="stroke:black; stroke-linecap:round; stroke-width:0.25;"/>
<line x1="91.350000" y1="88.000000" x2="68.000000" y2="88.000000"  style="stroke:black; stroke-linecap:round; stroke-width:0.25;"/>
<line x1="111.350000" y1="128.000000" x2="147.350000" y2="128.000000"  style="stroke:black; stroke-linecap:round; stroke-width:0.25;"/>
<line x1="111.350000" y1="136.000000" x2="127.350000" y2="136.000000"  style="stroke:black; stroke-linecap:round; stroke-width:0.25;"/>
<line x1="114.700000" y1="88.000000" x2="91.350000" y2="88.000000"  style="stroke:black; stroke-linecap:round; stroke-width:0.25;"/>
<line x1="122.700000" y1="72.000000" x2="122.700000" y2="72.000000"  style="stroke:black; stroke-linecap:round; stroke-width:0.25;"/>
<line x1="122.700000" y1="72.000000" x2="122.700000" y2="88.000000"  style="stroke:black; stroke-linecap:round; stroke-width:0.25;"/>
<line x1="122.700000" y1="88.000000" x2="114.700000" y2="88.000000"  style="stroke:black; stroke-linecap:round; stroke-width:0.25;"/>
<line x1="126.700000" y1="72.000000" x2="122.700000" y2="72.000000"  style="stroke:black; stroke-linecap:round; stroke-width:0.25;"/>
<line x1="127.350000" y1="136.000000" x2="143.350000" y2="136.000000"  style="stroke:black; stroke-linecap:round; stroke-width:0.25;"/>
<line x1="139.350000" y1="156.000000" x2="143.350000" y2="156.000000"  style="stroke:black; stroke-linecap:round; stroke-width:0.25;"/>
<line x1="143.350000" y1="136.000000" x2="151.350000" y2="136.000000"  style="stroke:black; stroke-linecap:round; stroke-width:0.25;"/>
<line x1="143.350000" y1="156.000000" x2="151.350000" y2="156.000000"  style="stroke:black; stroke-linecap:round; stroke-width:0.25;"/>
<line x1="147.350000" y1="128.000000" x2="183.350000" y2="128.000000"  style="stroke:black; stroke-linecap:round; stroke-width:0.25;"/>
<line x1="151.350000" y1="136.000000" x2="151.350000" y2="148.000000"  style="stroke:black; stroke-linecap:round; stroke-width:0.25;"/>
<line x1="151.350000" y1="148.000000" x2="151.350000" y2="148.000000"  style="stroke:black; stroke-linecap:round; stroke-width:0.25;"/>
<line x1="151.350000" y1="148.000000" x2="155.350000" y2="148.000000"  style="stroke:black; stroke-linecap:round; stroke-width:0.25;"/>
<line x1="151.350000" y1="156.000000" x2="155.350000" y2="156.000000"  style="stroke:black; stroke-linecap:round; stroke-width:0.25;"/>
<line x1="154.700000" y1="68.000000" x2="150.700000" y2="68.000000"  style="stroke:black; stroke-linecap:round; stroke-width:0.25;"/>
<line x1="154.700000" y1="76.000000" x2="150.700000" y2="76.000000"  style="stroke:black; stroke-linecap:round; stroke-width:0.25;"/>
<line x1="154.700000" y1="76.000000" x2="154.700000" y2="76.000000"  style="stroke:black; stroke-linecap:round; stroke-width:0.25;"/>
<line x1="154.700000" y1="120.000000" x2="154.700000" y2="76.000000"  style="stroke:black; stroke-linecap:round; stroke-width:0.25;"/>
<line x1="162.700000" y1="68.000000" x2="154.700000" y2="68.000000"  style="stroke:black; stroke-linecap:round; stroke-width:0.25;"/>
<line x1="162.700000" y1="120.000000" x2="154.700000" y2="120.000000"  style="stroke:black; stroke-linecap:round; stroke-width:0.25;"/>
<line x1="166.700000" y1="68.000000" x2="162.700000" y2="68.000000"  style="stroke:black; stroke-linecap:round; stroke-width:0.25;"/>
<line x1="179.350000" y1="152.000000" x2="183.350000" y2="152.000000"  style="stroke:black; stroke-linecap:round; stroke-width:0.25;"/>
<line x1="183.350000" y1="128.000000" x2="191.350000" y2="128.000000"  style="stroke:black; stroke-linecap:round; stroke-width:0.25;"/>
<line x1="183.350000" y1="152.000000" x2="191.350000" y2="152.000000"  style="stroke:black; stroke-linecap:round; stroke-width:0.25;"/>
<line x1="191.350000" y1="128.000000" x2="191.350000" y2="144.000000"  style="stroke:black; stroke-linecap:round; stroke-width:0.25;"/>
<line x1="191.350000" y1="144.000000" x2="191.350000" y2="144.000000"  style="stroke:black; stroke-linecap:round; stroke-width:0.25;"/>
<line x1="191.350000" y1="144.000000" x2="195.350000" y2="144.000000"  style="stroke:black; stroke-linecap:round; stroke-width:0.25;"/>
<line x1="191.350000" y1="152.000000" x2="195.350000" y2="152.000000"  style="stroke:black; stroke-linecap:round; stroke-width:0.25;"/>
<line x1="194.700000" y1="68.000000" x2="190.700000" y2="68.000000"  style="stroke:black; stroke-linecap:round; stroke-width:0.25;"/>
<line x1="194.700000" y1="68.000000" x2="194.700000" y2="68.000000"  style="stroke:black; stroke-linecap:round; stroke-width:0.25;"/>
<line x1="198.700000" y1="68.000000" x2="194.700000" y2="68.000000"  style="stroke:black; stroke-linecap:round; stroke-width:0.25;"/>
<line x1="219.350000" y1="148.000000" x2="223.350000" y2="148.000000"  style="stroke:black; stroke-linecap:round; stroke-width:0.25;"/>
<line x1="223.350000" y1="148.000000" x2="306.700000" y2="148.000000"  style="stroke:black; stroke-linecap:round; stroke-width:0.25;"/>
<line x1="226.700000" y1="64.000000" x2="222.700000" y2="64.000000"  style="stroke:black; stroke-linecap:round; stroke-width:0.25;"/>
<line x1="226.700000" y1="72.000000" x2="222.700000" y2="72.000000"  style="stroke:black; stroke-linecap:round; stroke-width:0.25;"/>
<line x1="226.700000" y1="72.000000" x2="226.700000" y2="72.000000"  style="stroke:black; stroke-linecap:round; stroke-width:0.25;"/>
<line x1="226.700000" y1="100.000000" x2="226.700000" y2="72.000000"  style="stroke:black; stroke-linecap:round; stroke-width:0.25;"/>
<line x1="234.700000" y1="52.000000" x2="234.700000" y2="52.000000"  style="stroke:black; stroke-linecap:round; stroke-width:0.25;"/>
<line x1="234.700000" y1="52.000000" x2="234.700000" y2="64.000000"  style="stroke:black; stroke-linecap:round; stroke-width:0.25;"/>
<line x1="234.700000" y1="64.000000" x2="226.700000" y2="64.000000"  style="stroke:black; stroke-linecap:round; stroke-width:0.25;"/>
<line x1="234.700000" y1="100.000000" x2="226.700000" y2="100.000000"  style="stroke:black; stroke-linecap:round; stroke-width:0.25;"/>
<line x1="234.700000" y1="120.000000" x2="162.700000" y2="120.000000"  style="stroke:black; stroke-linecap:round; stroke-width:0.25;"/>
<line x1="238.700000" y1="52.000000" x2="234.700000" y2="52.000000"  style="stroke:black; stroke-linecap:round; stroke-width:0.25;"/>
<line x1="253.800000" y1="100.000000" x2="234.700000" y2="100.000000"  style="stroke:black; stroke-linecap:round; stroke-width:0.25;"/>
<line x1="257.800000" y1="100.000000" x2="253.800000" y2="100.000000"  style="stroke:black; stroke-linecap:round; stroke-width:0.25;"/>
<line x1="266.700000" y1="48.000000" x2="262.700000" y2="48.000000"  style="stroke:black; stroke-linecap:round; stroke-width:0.25;"/>
<line x1="266.700000" y1="56.000000" x2="262.700000" y2="56.000000"  style="stroke:black; stroke-linecap:round; stroke-width:0.25;"/>
<line x1="266.700000" y1="56.000000" x2="266.700000" y2="56.000000"  style="stroke:black; stroke-linecap:round; stroke-width:0.25;"/>
<line x1="266.700000" y1="68.000000" x2="266.700000" y2="56.000000"  style="stroke:black; stroke-linecap:round; stroke-width:0.25;"/>
<line x1="274.700000" y1="36.000000" x2="274.700000" y2="36.000000"  style="stroke:black; stroke-linecap:round; stroke-width:0.25;"/>
<line x1="274.700000" y1="36.000000" x2="274.700000" y2="48.000000"  style="stroke:black; stroke-linecap:round; stroke-width:0.25;"/>
<line x1="274.700000" y1="48.000000" x2="266.700000" y2="48.000000"  style="stroke:black; stroke-linecap:round; stroke-width:0.25;"/>
<line x1="274.700000" y1="68.000000" x2="266.700000" y2="68.000000"  style="stroke:black; stroke-linecap:round; stroke-width:0.25;"/>
<line x1="278.700000" y1="36.000000" x2="274.700000" y2="36.000000"  style="stroke:black; stroke-linecap:round; stroke-width:0.25;"/>
<line x1="278.700000" y1="68.000000" x2="274.700000" y2="68.000000"  style="stroke:black; stroke-linecap:round; stroke-width:0.25;"/>
<line x1="306.700000" y1="120.000000" x2="234.700000" y2="120.000000"  style="stroke:black; stroke-linecap:round; stroke-width:0.25;"/>
<line x1="306.700000" y1="120.000000" x2="306.700000" y2="120.000000"  style="stroke:black; stroke-linecap:round; stroke-width:0.25;"/>
<line x1="306.700000" y1="144.000000" x2="306.700000" y2="120.000000"  style="stroke:black; stroke-linecap:round; stroke-width:0.25;"/>
<line x1="306.700000" y1="148.000000" x2="308.700000" y2="148.000000"  style="stroke:black; stroke-linecap:round; stroke-width:0.25;"/>
<line x1="308.700000" y1="148.000000" x2="314.700000" y2="148.000000"  style="stroke:black; stroke-linecap:round; stroke-width:0.25;"/>
<line x1="314.700000" y1="148.000000" x2="324.700000" y2="148.000000"  style="stroke:black; stroke-linecap:round; stroke-width:0.25;"/>
</svg>
