<?xml version="1.0"?>
<svg xmlns="http://www.w3.org/2000/svg" xmlns:xlink="http://www.w3.org/1999/xlink" viewBox="0 0 475.700000 360.000000" width="237.850000mm" height="180.000000mm" version="1.1">
<defs>
   <filter id="filter" filterRes="18" x="0" y="0">
     <feGaussianBlur in="SourceGraphic" stdDeviation="1.55" result="blur"/>
     <feOffset in="blur" dx="3" dy="3"/>
   </filter>
</defs>
<a xlink:href="process.svg">
<rect x="1.000000" y="1.000000" width="474.700000" height="359.000000" rx="0.1" ry="0.1" style="stroke:none;fill:#aaaaaa;;filter:url(#filter);"/>
<rect x="0.000000" y="0.000000" width="474.700000" height="359.000000" rx="0" ry="0" style="stroke:none;fill:#ffffff;"/>
</a>
<text x="10.000000" y="7.000000" font-family="Arial" font-size="7"></text>
<a xlink:href="Early-0x372a7d0.svg">
<rect x="25.000000" y="169.000000" width="25.800000" height="24.000000" rx="0.1" ry="0.1" style="stroke:none;fill:#aaaaaa;;filter:url(#filter);"/>
<rect x="24.000000" y="168.000000" width="25.800000" height="24.000000" rx="0" ry="0" style="stroke:none;fill:#003366;"/>
</a>
<a xlink:href="Early-0x372a7d0.svg">
<text x="36.900000" y="182.000000" font-family="Arial" font-size="7" text-anchor="middle" fill="#FFFFFF">Early</text>
</a>
<circle cx="26.000000" cy="170.000000" r="1"/>
<line x1="21.000000" y1="179.000000" x2="24.000000" y2="180.000000"  transform="rotate(0.000000,24.000000,180.000000)" style="stroke: black; stroke-width:0.25;"/>
<line x1="21.000000" y1="181.000000" x2="24.000000" y2="180.000000"  transform="rotate(0.000000,24.000000,180.000000)" style="stroke: black; stroke-width:0.25;"/>
<a xlink:href="GateA-0x3703350.svg">
<rect x="66.800000" y="153.000000" width="25.800000" height="24.000000" rx="0.1" ry="0.1" style="stroke:none;fill:#aaaaaa;;filter:url(#filter);"/>
<rect x="65.800000" y="152.000000" width="25.800000" height="24.000000" rx="0" ry="0" style="stroke:none;fill:#003366;"/>
</a>
<a xlink:href="GateA-0x3703350.svg">
<text x="78.700000" y="166.000000" font-family="Arial" font-size="7" text-anchor="middle" fill="#FFFFFF">GateA</text>
</a>
<circle cx="67.800000" cy="154.000000" r="1"/>
<line x1="62.800000" y1="163.000000" x2="65.800000" y2="164.000000"  transform="rotate(0.000000,65.800000,164.000000)" style="stroke: black; stroke-width:0.25;"/>
<line x1="62.800000" y1="165.000000" x2="65.800000" y2="164.000000"  transform="rotate(0.000000,65.800000,164.000000)" style="stroke: black; stroke-width:0.25;"/>
<a xlink:href="GateB-0x3701bf0.svg">
<rect x="66.800000" y="185.000000" width="25.800000" height="24.000000" rx="0.1" ry="0.1" style="stroke:none;fill:#aaaaaa;;filter:url(#filter);"/>
<rect x="65.800000" y="184.000000" width="25.800000" height="24.000000" rx="0" ry="0" style="stroke:none;fill:#003366;"/>
</a>
<a xlink:href="GateB-0x3701bf0.svg">
<text x="78.700000" y="198.000000" font-family="Arial" font-size="7" text-anchor="middle" fill="#FFFFFF">GateB</text>
</a>
<circle cx="67.800000" cy="186.000000" r="1"/>
<line x1="62.800000" y1="195.000000" x2="65.800000" y2="196.000000"  transform="rotate(0.000000,65.800000,196.000000)" style="stroke: black; stroke-width:0.25;"/>
<line x1="62.800000" y1="197.000000" x2="65.800000" y2="196.000000"  transform="rotate(0.000000,65.800000,196.000000)" style="stroke: black; stroke-width:0.25;"/>
<a xlink:href="Granulator-0x37371a0.svg">
<rect x="100.600000" y="153.000000" width="51.600000" height="24.000000" rx="0.1" ry="0.1" style="stroke:none;fill:#aaaaaa;;filter:url(#filter);"/>
<rect x="99.600000" y="152.000000" width="51.600000" height="24.000000" rx="0" ry="0" style="stroke:none;fill:#003366;"/>
</a>
<a xlink:href="Granulator-0x37371a0.svg">
<text x="125.400000" y="166.000000" font-family="Arial" font-size="7" text-anchor="middle" fill="#FFFFFF">Granulator</text>
</a>
<circle cx="101.600000" cy="154.000000" r="1"/>
<line x1="96.600000" y1="163.000000" x2="99.600000" y2="164.000000"  transform="rotate(0.000000,99.600000,164.000000)" style="stroke: black; stroke-width:0.25;"/>
<line x1="96.600000" y1="165.000000" x2="99.600000" y2="164.000000"  transform="rotate(0.000000,99.600000,164.000000)" style="stroke: black; stroke-width:0.25;"/>
<a xlink:href="Granulator-0x37371a0.svg">
<rect x="100.600000" y="185.000000" width="51.600000" height="24.000000" rx="0.1" ry="0.1" style="stroke:none;fill:#aaaaaa;;filter:url(#filter);"/>
<rect x="99.600000" y="184.000000" width="51.600000" height="24.000000" rx="0" ry="0" style="stroke:none;fill:#003366;"/>
</a>
<a xlink:href="Granulator-0x37371a0.svg">
<text x="125.400000" y="198.000000" font-family="Arial" font-size="7" text-anchor="middle" fill="#FFFFFF">Granulator</text>
</a>
<circle cx="101.600000" cy="186.000000" r="1"/>
<line x1="96.600000" y1="195.000000" x2="99.600000" y2="196.000000"  transform="rotate(0.000000,99.600000,196.000000)" style="stroke: black; stroke-width:0.25;"/>
<line x1="96.600000" y1="197.000000" x2="99.600000" y2="196.000000"  transform="rotate(0.000000,99.600000,196.000000)" style="stroke: black; stroke-width:0.25;"/>
<rect x="168.200000" y="169.000000" width="24.000000" height="24.000000" rx="0.1" ry="0.1" style="stroke:none;fill:#aaaaaa;;filter:url(#filter);"/>
<rect x="167.200000" y="168.000000" width="24.000000" height="24.000000" rx="0" ry="0" style="stroke:none;fill:#4B71A1;"/>
<text x="179.200000" y="182.000000" font-family="Arial" font-size="7" text-anchor="middle" fill="#FFFFFF">+</text>
<circle cx="169.200000" cy="170.000000" r="1"/>
<line x1="164.200000" y1="175.000000" x2="167.200000" y2="176.000000"  transform="rotate(0.000000,167.200000,176.000000)" style="stroke: black; stroke-width:0.25;"/>
<line x1="164.200000" y1="177.000000" x2="167.200000" y2="176.000000"  transform="rotate(0.000000,167.200000,176.000000)" style="stroke: black; stroke-width:0.25;"/>
<line x1="164.200000" y1="183.000000" x2="167.200000" y2="184.000000"  transform="rotate(0.000000,167.200000,184.000000)" style="stroke: black; stroke-width:0.25;"/>
<line x1="164.200000" y1="185.000000" x2="167.200000" y2="184.000000"  transform="rotate(0.000000,167.200000,184.000000)" style="stroke: black; stroke-width:0.25;"/>
<a xlink:href="delline1-0x3661e50.svg">
<rect x="296.200000" y="25.000000" width="64.500000" height="24.000000" rx="0.1" ry="0.1" style="stroke:none;fill:#aaaaaa;;filter:url(#filter);"/>
<rect x="295.200000" y="24.000000" width="64.500000" height="24.000000" rx="0" ry="0" style="stroke:none;fill:#003366;"/>
</a>
<a xlink:href="delline1-0x3661e50.svg">
<text x="327.450000" y="38.000000" font-family="Arial" font-size="7" text-anchor="middle" fill="#FFFFFF">delline1(301)</text>
</a>
<circle cx="297.200000" cy="26.000000" r="1"/>
<line x1="292.200000" y1="35.000000" x2="295.200000" y2="36.000000"  transform="rotate(0.000000,295.200000,36.000000)" style="stroke: black; stroke-width:0.25;"/>
<line x1="292.200000" y1="37.000000" x2="295.200000" y2="36.000000"  transform="rotate(0.000000,295.200000,36.000000)" style="stroke: black; stroke-width:0.25;"/>
<a xlink:href="delline1-0x365fbd0.svg">
<rect x="296.200000" y="57.000000" width="64.500000" height="24.000000" rx="0.1" ry="0.1" style="stroke:none;fill:#aaaaaa;;filter:url(#filter);"/>
<rect x="295.200000" y="56.000000" width="64.500000" height="24.000000" rx="0" ry="0" style="stroke:none;fill:#003366;"/>
</a>
<a xlink:href="delline1-0x365fbd0.svg">
<text x="327.450000" y="70.000000" font-family="Arial" font-size="7" text-anchor="middle" fill="#FFFFFF">delline1(461)</text>
</a>
<circle cx="297.200000" cy="58.000000" r="1"/>
<line x1="292.200000" y1="67.000000" x2="295.200000" y2="68.000000"  transform="rotate(0.000000,295.200000,68.000000)" style="stroke: black; stroke-width:0.25;"/>
<line x1="292.200000" y1="69.000000" x2="295.200000" y2="68.000000"  transform="rotate(0.000000,295.200000,68.000000)" style="stroke: black; stroke-width:0.25;"/>
<a xlink:href="delline1-0x365d950.svg">
<rect x="296.200000" y="89.000000" width="64.500000" height="24.000000" rx="0.1" ry="0.1" style="stroke:none;fill:#aaaaaa;;filter:url(#filter);"/>
<rect x="295.200000" y="88.000000" width="64.500000" height="24.000000" rx="0" ry="0" style="stroke:none;fill:#003366;"/>
</a>
<a xlink:href="delline1-0x365d950.svg">
<text x="327.450000" y="102.000000" font-family="Arial" font-size="7" text-anchor="middle" fill="#FFFFFF">delline1(1025)</text>
</a>
<circle cx="297.200000" cy="90.000000" r="1"/>
<line x1="292.200000" y1="99.000000" x2="295.200000" y2="100.000000"  transform="rotate(0.000000,295.200000,100.000000)" style="stroke: black; stroke-width:0.25;"/>
<line x1="292.200000" y1="101.000000" x2="295.200000" y2="100.000000"  transform="rotate(0.000000,295.200000,100.000000)" style="stroke: black; stroke-width:0.25;"/>
<a xlink:href="delline1-0x365b6d0.svg">
<rect x="296.200000" y="121.000000" width="64.500000" height="24.000000" rx="0.1" ry="0.1" style="stroke:none;fill:#aaaaaa;;filter:url(#filter);"/>
<rect x="295.200000" y="120.000000" width="64.500000" height="24.000000" rx="0" ry="0" style="stroke:none;fill:#003366;"/>
</a>
<a xlink:href="delline1-0x365b6d0.svg">
<text x="327.450000" y="134.000000" font-family="Arial" font-size="7" text-anchor="middle" fill="#FFFFFF">delline1(1317)</text>
</a>
<circle cx="297.200000" cy="122.000000" r="1"/>
<line x1="292.200000" y1="131.000000" x2="295.200000" y2="132.000000"  transform="rotate(0.000000,295.200000,132.000000)" style="stroke: black; stroke-width:0.25;"/>
<line x1="292.200000" y1="133.000000" x2="295.200000" y2="132.000000"  transform="rotate(0.000000,295.200000,132.000000)" style="stroke: black; stroke-width:0.25;"/>
<a xlink:href="delline1-0x3659420.svg">
<rect x="296.200000" y="153.000000" width="64.500000" height="24.000000" rx="0.1" ry="0.1" style="stroke:none;fill:#aaaaaa;;filter:url(#filter);"/>
<rect x="295.200000" y="152.000000" width="64.500000" height="24.000000" rx="0" ry="0" style="stroke:none;fill:#003366;"/>
</a>
<a xlink:href="delline1-0x3659420.svg">
<text x="327.450000" y="166.000000" font-family="Arial" font-size="7" text-anchor="middle" fill="#FFFFFF">delline1(1723)</text>
</a>
<circle cx="297.200000" cy="154.000000" r="1"/>
<line x1="292.200000" y1="163.000000" x2="295.200000" y2="164.000000"  transform="rotate(0.000000,295.200000,164.000000)" style="stroke: black; stroke-width:0.25;"/>
<line x1="292.200000" y1="165.000000" x2="295.200000" y2="164.000000"  transform="rotate(0.000000,295.200000,164.000000)" style="stroke: black; stroke-width:0.25;"/>
<a xlink:href="delline1-0x3657190.svg">
<rect x="296.200000" y="185.000000" width="64.500000" height="24.000000" rx="0.1" ry="0.1" style="stroke:none;fill:#aaaaaa;;filter:url(#filter);"/>
<rect x="295.200000" y="184.000000" width="64.500000" height="24.000000" rx="0" ry="0" style="stroke:none;fill:#003366;"/>
</a>
<a xlink:href="delline1-0x3657190.svg">
<text x="327.450000" y="198.000000" font-family="Arial" font-size="7" text-anchor="middle" fill="#FFFFFF">delline1(2317)</text>
</a>
<circle cx="297.200000" cy="186.000000" r="1"/>
<line x1="292.200000" y1="195.000000" x2="295.200000" y2="196.000000"  transform="rotate(0.000000,295.200000,196.000000)" style="stroke: black; stroke-width:0.25;"/>
<line x1="292.200000" y1="197.000000" x2="295.200000" y2="196.000000"  transform="rotate(0.000000,295.200000,196.000000)" style="stroke: black; stroke-width:0.25;"/>
<a xlink:href="delline1-0x3654f00.svg">
<rect x="296.200000" y="217.000000" width="64.500000" height="24.000000" rx="0.1" ry="0.1" style="stroke:none;fill:#aaaaaa;;filter:url(#filter);"/>
<rect x="295.200000" y="216.000000" width="64.500000" height="24.000000" rx="0" ry="0" style="stroke:none;fill:#003366;"/>
</a>
<a xlink:href="delline1-0x3654f00.svg">
<text x="327.450000" y="230.000000" font-family="Arial" font-size="7" text-anchor="middle" fill="#FFFFFF">delline1(2913)</text>
</a>
<circle cx="297.200000" cy="218.000000" r="1"/>
<line x1="292.200000" y1="227.000000" x2="295.200000" y2="228.000000"  transform="rotate(0.000000,295.200000,228.000000)" style="stroke: black; stroke-width:0.25;"/>
<line x1="292.200000" y1="229.000000" x2="295.200000" y2="228.000000"  transform="rotate(0.000000,295.200000,228.000000)" style="stroke: black; stroke-width:0.25;"/>
<a xlink:href="delline1-0x3652c70.svg">
<rect x="296.200000" y="249.000000" width="64.500000" height="24.000000" rx="0.1" ry="0.1" style="stroke:none;fill:#aaaaaa;;filter:url(#filter);"/>
<rect x="295.200000" y="248.000000" width="64.500000" height="24.000000" rx="0" ry="0" style="stroke:none;fill:#003366;"/>
</a>
<a xlink:href="delline1-0x3652c70.svg">
<text x="327.450000" y="262.000000" font-family="Arial" font-size="7" text-anchor="middle" fill="#FFFFFF">delline1(506)</text>
</a>
<circle cx="297.200000" cy="250.000000" r="1"/>
<line x1="292.200000" y1="259.000000" x2="295.200000" y2="260.000000"  transform="rotate(0.000000,295.200000,260.000000)" style="stroke: black; stroke-width:0.25;"/>
<line x1="292.200000" y1="261.000000" x2="295.200000" y2="260.000000"  transform="rotate(0.000000,295.200000,260.000000)" style="stroke: black; stroke-width:0.25;"/>
<a xlink:href="delline1-0x36509e0.svg">
<rect x="296.200000" y="281.000000" width="64.500000" height="24.000000" rx="0.1" ry="0.1" style="stroke:none;fill:#aaaaaa;;filter:url(#filter);"/>
<rect x="295.200000" y="280.000000" width="64.500000" height="24.000000" rx="0" ry="0" style="stroke:none;fill:#003366;"/>
</a>
<a xlink:href="delline1-0x36509e0.svg">
<text x="327.450000" y="294.000000" font-family="Arial" font-size="7" text-anchor="middle" fill="#FFFFFF">delline1(2600)</text>
</a>
<circle cx="297.200000" cy="282.000000" r="1"/>
<line x1="292.200000" y1="291.000000" x2="295.200000" y2="292.000000"  transform="rotate(0.000000,295.200000,292.000000)" style="stroke: black; stroke-width:0.25;"/>
<line x1="292.200000" y1="293.000000" x2="295.200000" y2="292.000000"  transform="rotate(0.000000,295.200000,292.000000)" style="stroke: black; stroke-width:0.25;"/>
<a xlink:href="delline1-0x364e830.svg">
<rect x="296.200000" y="313.000000" width="64.500000" height="24.000000" rx="0.1" ry="0.1" style="stroke:none;fill:#aaaaaa;;filter:url(#filter);"/>
<rect x="295.200000" y="312.000000" width="64.500000" height="24.000000" rx="0" ry="0" style="stroke:none;fill:#003366;"/>
</a>
<a xlink:href="delline1-0x364e830.svg">
<text x="327.450000" y="326.000000" font-family="Arial" font-size="7" text-anchor="middle" fill="#FFFFFF">delline1(3131)</text>
</a>
<circle cx="297.200000" cy="314.000000" r="1"/>
<line x1="292.200000" y1="323.000000" x2="295.200000" y2="324.000000"  transform="rotate(0.000000,295.200000,324.000000)" style="stroke: black; stroke-width:0.25;"/>
<line x1="292.200000" y1="325.000000" x2="295.200000" y2="324.000000"  transform="rotate(0.000000,295.200000,324.000000)" style="stroke: black; stroke-width:0.25;"/>
<line x1="15.000000" y1="15.000000" x2="15.000000" y2="345.000000"  style="stroke: black; stroke-linecap:round; stroke-width:0.25; stroke-dasharray:3,3;"/>
<line x1="15.000000" y1="345.000000" x2="460.700000" y2="345.000000"  style="stroke: black; stroke-linecap:round; stroke-width:0.25; stroke-dasharray:3,3;"/>
<line x1="460.700000" y1="345.000000" x2="460.700000" y2="15.000000"  style="stroke: black; stroke-linecap:round; stroke-width:0.25; stroke-dasharray:3,3;"/>
<line x1="15.000000" y1="15.000000" x2="20.000000" y2="15.000000"  style="stroke: black; stroke-linecap:round; stroke-width:0.25; stroke-dasharray:3,3;"/>
<line x1="58.700000" y1="15.000000" x2="460.700000" y2="15.000000"  style="stroke: black; stroke-linecap:round; stroke-width:0.25; stroke-dasharray:3,3;"/>
<text x="20.000000" y="17.000000" font-family="Arial" font-size="7">Febaroute2</text>
<line x1="462.700000" y1="175.000000" x2="465.700000" y2="176.000000"  transform="rotate(0.000000,465.700000,176.000000)" style="stroke: black; stroke-width:0.25;"/>
<line x1="462.700000" y1="177.000000" x2="465.700000" y2="176.000000"  transform="rotate(0.000000,465.700000,176.000000)" style="stroke: black; stroke-width:0.25;"/>
<line x1="462.700000" y1="183.000000" x2="465.700000" y2="184.000000"  transform="rotate(0.000000,465.700000,184.000000)" style="stroke: black; stroke-width:0.25;"/>
<line x1="462.700000" y1="185.000000" x2="465.700000" y2="184.000000"  transform="rotate(0.000000,465.700000,184.000000)" style="stroke: black; stroke-width:0.25;"/>
<line x1="10.000000" y1="180.000000" x2="20.000000" y2="180.000000"  style="stroke:black; stroke-linecap:round; stroke-width:0.25;"/>
<line x1="20.000000" y1="180.000000" x2="24.000000" y2="180.000000"  style="stroke:black; stroke-linecap:round; stroke-width:0.25;"/>
<line x1="49.800000" y1="176.000000" x2="53.800000" y2="176.000000"  style="stroke:black; stroke-linecap:round; stroke-width:0.25;"/>
<line x1="49.800000" y1="184.000000" x2="53.800000" y2="184.000000"  style="stroke:black; stroke-linecap:round; stroke-width:0.25;"/>
<line x1="53.800000" y1="164.000000" x2="61.800000" y2="164.000000"  style="stroke:black; stroke-linecap:round; stroke-width:0.25;"/>
<line x1="53.800000" y1="176.000000" x2="53.800000" y2="164.000000"  style="stroke:black; stroke-linecap:round; stroke-width:0.25;"/>
<line x1="53.800000" y1="176.000000" x2="53.800000" y2="176.000000"  style="stroke:black; stroke-linecap:round; stroke-width:0.25;"/>
<line x1="53.800000" y1="184.000000" x2="61.800000" y2="184.000000"  style="stroke:black; stroke-linecap:round; stroke-width:0.25;"/>
<line x1="61.800000" y1="164.000000" x2="65.800000" y2="164.000000"  style="stroke:black; stroke-linecap:round; stroke-width:0.25;"/>
<line x1="61.800000" y1="184.000000" x2="61.800000" y2="196.000000"  style="stroke:black; stroke-linecap:round; stroke-width:0.25;"/>
<line x1="61.800000" y1="196.000000" x2="61.800000" y2="196.000000"  style="stroke:black; stroke-linecap:round; stroke-width:0.25;"/>
<line x1="61.800000" y1="196.000000" x2="65.800000" y2="196.000000"  style="stroke:black; stroke-linecap:round; stroke-width:0.25;"/>
<line x1="91.600000" y1="164.000000" x2="95.600000" y2="164.000000"  style="stroke:black; stroke-linecap:round; stroke-width:0.25;"/>
<line x1="91.600000" y1="196.000000" x2="95.600000" y2="196.000000"  style="stroke:black; stroke-linecap:round; stroke-width:0.25;"/>
<line x1="95.600000" y1="164.000000" x2="95.600000" y2="164.000000"  style="stroke:black; stroke-linecap:round; stroke-width:0.25;"/>
<line x1="95.600000" y1="164.000000" x2="99.600000" y2="164.000000"  style="stroke:black; stroke-linecap:round; stroke-width:0.25;"/>
<line x1="95.600000" y1="196.000000" x2="95.600000" y2="196.000000"  style="stroke:black; stroke-linecap:round; stroke-width:0.25;"/>
<line x1="95.600000" y1="196.000000" x2="99.600000" y2="196.000000"  style="stroke:black; stroke-linecap:round; stroke-width:0.25;"/>
<line x1="151.200000" y1="164.000000" x2="155.200000" y2="164.000000"  style="stroke:black; stroke-linecap:round; stroke-width:0.25;"/>
<line x1="151.200000" y1="196.000000" x2="155.200000" y2="196.000000"  style="stroke:black; stroke-linecap:round; stroke-width:0.25;"/>
<line x1="155.200000" y1="164.000000" x2="163.200000" y2="164.000000"  style="stroke:black; stroke-linecap:round; stroke-width:0.25;"/>
<line x1="155.200000" y1="184.000000" x2="163.200000" y2="184.000000"  style="stroke:black; stroke-linecap:round; stroke-width:0.25;"/>
<line x1="155.200000" y1="196.000000" x2="155.200000" y2="184.000000"  style="stroke:black; stroke-linecap:round; stroke-width:0.25;"/>
<line x1="155.200000" y1="196.000000" x2="155.200000" y2="196.000000"  style="stroke:black; stroke-linecap:round; stroke-width:0.25;"/>
<line x1="163.200000" y1="164.000000" x2="163.200000" y2="176.000000"  style="stroke:black; stroke-linecap:round; stroke-width:0.25;"/>
<line x1="163.200000" y1="176.000000" x2="163.200000" y2="176.000000"  style="stroke:black; stroke-linecap:round; stroke-width:0.25;"/>
<line x1="163.200000" y1="176.000000" x2="167.200000" y2="176.000000"  style="stroke:black; stroke-linecap:round; stroke-width:0.25;"/>
<line x1="163.200000" y1="184.000000" x2="167.200000" y2="184.000000"  style="stroke:black; stroke-linecap:round; stroke-width:0.25;"/>
<line x1="191.200000" y1="180.000000" x2="195.200000" y2="180.000000"  style="stroke:black; stroke-linecap:round; stroke-width:0.25;"/>
<line x1="195.200000" y1="180.000000" x2="291.200000" y2="36.000000"  style="stroke:black; stroke-linecap:round; stroke-width:0.25;"/>
<line x1="195.200000" y1="180.000000" x2="291.200000" y2="68.000000"  style="stroke:black; stroke-linecap:round; stroke-width:0.25;"/>
<line x1="195.200000" y1="180.000000" x2="291.200000" y2="100.000000"  style="stroke:black; stroke-linecap:round; stroke-width:0.25;"/>
<line x1="195.200000" y1="180.000000" x2="291.200000" y2="132.000000"  style="stroke:black; stroke-linecap:round; stroke-width:0.25;"/>
<line x1="195.200000" y1="180.000000" x2="291.200000" y2="164.000000"  style="stroke:black; stroke-linecap:round; stroke-width:0.25;"/>
<line x1="195.200000" y1="180.000000" x2="291.200000" y2="196.000000"  style="stroke:black; stroke-linecap:round; stroke-width:0.25;"/>
<line x1="195.200000" y1="180.000000" x2="291.200000" y2="228.000000"  style="stroke:black; stroke-linecap:round; stroke-width:0.25;"/>
<line x1="195.200000" y1="180.000000" x2="291.200000" y2="260.000000"  style="stroke:black; stroke-linecap:round; stroke-width:0.25;"/>
<line x1="195.200000" y1="180.000000" x2="291.200000" y2="292.000000"  style="stroke:black; stroke-linecap:round; stroke-width:0.25;"/>
<line x1="195.200000" y1="180.000000" x2="291.200000" y2="324.000000"  style="stroke:black; stroke-linecap:round; stroke-width:0.25;"/>
<line x1="291.200000" y1="36.000000" x2="295.200000" y2="36.000000"  style="stroke:black; stroke-linecap:round; stroke-width:0.25;"/>
<line x1="291.200000" y1="68.000000" x2="295.200000" y2="68.000000"  style="stroke:black; stroke-linecap:round; stroke-width:0.25;"/>
<line x1="291.200000" y1="100.000000" x2="295.200000" y2="100.000000"  style="stroke:black; stroke-linecap:round; stroke-width:0.25;"/>
<line x1="291.200000" y1="132.000000" x2="295.200000" y2="132.000000"  style="stroke:black; stroke-linecap:round; stroke-width:0.25;"/>
<line x1="291.200000" y1="164.000000" x2="295.200000" y2="164.000000"  style="stroke:black; stroke-linecap:round; stroke-width:0.25;"/>
<line x1="291.200000" y1="196.000000" x2="295.200000" y2="196.000000"  style="stroke:black; stroke-linecap:round; stroke-width:0.25;"/>
<line x1="291.200000" y1="228.000000" x2="295.200000" y2="228.000000"  style="stroke:black; stroke-linecap:round; stroke-width:0.25;"/>
<line x1="291.200000" y1="260.000000" x2="295.200000" y2="260.000000"  style="stroke:black; stroke-linecap:round; stroke-width:0.25;"/>
<line x1="291.200000" y1="292.000000" x2="295.200000" y2="292.000000"  style="stroke:black; stroke-linecap:round; stroke-width:0.25;"/>
<line x1="291.200000" y1="324.000000" x2="295.200000" y2="324.000000"  style="stroke:black; stroke-linecap:round; stroke-width:0.25;"/>
<line x1="359.700000" y1="36.000000" x2="363.700000" y2="36.000000"  style="stroke:black; stroke-linecap:round; stroke-width:0.25;"/>
<line x1="359.700000" y1="68.000000" x2="363.700000" y2="68.000000"  style="stroke:black; stroke-linecap:round; stroke-width:0.25;"/>
<line x1="359.700000" y1="100.000000" x2="363.700000" y2="100.000000"  style="stroke:black; stroke-linecap:round; stroke-width:0.25;"/>
<line x1="359.700000" y1="132.000000" x2="363.700000" y2="132.000000"  style="stroke:black; stroke-linecap:round; stroke-width:0.25;"/>
<line x1="359.700000" y1="164.000000" x2="363.700000" y2="164.000000"  style="stroke:black; stroke-linecap:round; stroke-width:0.25;"/>
<line x1="359.700000" y1="196.000000" x2="363.700000" y2="196.000000"  style="stroke:black; stroke-linecap:round; stroke-width:0.25;"/>
<line x1="359.700000" y1="228.000000" x2="363.700000" y2="228.000000"  style="stroke:black; stroke-linecap:round; stroke-width:0.25;"/>
<line x1="359.700000" y1="260.000000" x2="363.700000" y2="260.000000"  style="stroke:black; stroke-linecap:round; stroke-width:0.25;"/>
<line x1="359.700000" y1="292.000000" x2="363.700000" y2="292.000000"  style="stroke:black; stroke-linecap:round; stroke-width:0.25;"/>
<line x1="359.700000" y1="324.000000" x2="363.700000" y2="324.000000"  style="stroke:black; stroke-linecap:round; stroke-width:0.25;"/>
<line x1="363.700000" y1="36.000000" x2="447.700000" y2="176.000000"  style="stroke:black; stroke-linecap:round; stroke-width:0.25;"/>
<line x1="363.700000" y1="68.000000" x2="447.700000" y2="184.000000"  style="stroke:black; stroke-linecap:round; stroke-width:0.25;"/>
<line x1="363.700000" y1="100.000000" x2="447.700000" y2="176.000000"  style="stroke:black; stroke-linecap:round; stroke-width:0.25;"/>
<line x1="363.700000" y1="132.000000" x2="447.700000" y2="184.000000"  style="stroke:black; stroke-linecap:round; stroke-width:0.25;"/>
<line x1="363.700000" y1="164.000000" x2="447.700000" y2="176.000000"  style="stroke:black; stroke-linecap:round; stroke-width:0.25;"/>
<line x1="363.700000" y1="196.000000" x2="447.700000" y2="184.000000"  style="stroke:black; stroke-linecap:round; stroke-width:0.25;"/>
<line x1="363.700000" y1="228.000000" x2="447.700000" y2="176.000000"  style="stroke:black; stroke-linecap:round; stroke-width:0.25;"/>
<line x1="363.700000" y1="260.000000" x2="447.700000" y2="184.000000"  style="stroke:black; stroke-linecap:round; stroke-width:0.25;"/>
<line x1="363.700000" y1="292.000000" x2="447.700000" y2="176.000000"  style="stroke:black; stroke-linecap:round; stroke-width:0.25;"/>
<line x1="363.700000" y1="324.000000" x2="447.700000" y2="184.000000"  style="stroke:black; stroke-linecap:round; stroke-width:0.25;"/>
<line x1="447.700000" y1="176.000000" x2="451.700000" y2="176.000000"  style="stroke:black; stroke-linecap:round; stroke-width:0.25;"/>
<line x1="447.700000" y1="184.000000" x2="451.700000" y2="184.000000"  style="stroke:black; stroke-linecap:round; stroke-width:0.25;"/>
<line x1="451.700000" y1="176.000000" x2="455.700000" y2="176.000000"  style="stroke:black; stroke-linecap:round; stroke-width:0.25;"/>
<line x1="451.700000" y1="184.000000" x2="455.700000" y2="184.000000"  style="stroke:black; stroke-linecap:round; stroke-width:0.25;"/>
<line x1="455.700000" y1="176.000000" x2="465.700000" y2="176.000000"  style="stroke:black; stroke-linecap:round; stroke-width:0.25;"/>
<line x1="455.700000" y1="184.000000" x2="465.700000" y2="184.000000"  style="stroke:black; stroke-linecap:round; stroke-width:0.25;"/>
</svg>
