<?xml version="1.0"?>
<svg xmlns="http://www.w3.org/2000/svg" xmlns:xlink="http://www.w3.org/1999/xlink" viewBox="0 0 280.000000 280.000000" width="140.000000mm" height="140.000000mm" version="1.1">
<defs>
   <filter id="filter" filterRes="18" x="0" y="0">
     <feGaussianBlur in="SourceGraphic" stdDeviation="1.55" result="blur"/>
     <feOffset in="blur" dx="3" dy="3"/>
   </filter>
</defs>
<a xlink:href="grainOffset-0x1a7ddb0.svg">
<rect x="1.000000" y="1.000000" width="279.000000" height="279.000000" rx="0.1" ry="0.1" style="stroke:none;fill:#aaaaaa;;filter:url(#filter);"/>
<rect x="0.000000" y="0.000000" width="279.000000" height="279.000000" rx="0" ry="0" style="stroke:none;fill:#ffffff;"/>
</a>
<text x="10.000000" y="7.000000" font-family="Arial" font-size="7"></text>
<rect x="69.000000" y="41.000000" width="24.000000" height="24.000000" rx="0.1" ry="0.1" style="stroke:none;fill:#aaaaaa;;filter:url(#filter);"/>
<rect x="68.000000" y="40.000000" width="24.000000" height="24.000000" rx="0" ry="0" style="stroke:none;fill:#f44800;"/>
<text x="80.000000" y="54.000000" font-family="Arial" font-size="7" text-anchor="middle" fill="#FFFFFF">1</text>
<circle cx="70.000000" cy="42.000000" r="1"/>
<rect x="49.000000" y="73.000000" width="24.000000" height="24.000000" rx="0.1" ry="0.1" style="stroke:none;fill:#aaaaaa;;filter:url(#filter);"/>
<rect x="48.000000" y="72.000000" width="24.000000" height="24.000000" rx="0" ry="0" style="stroke:none;fill:#f44800;"/>
<text x="60.000000" y="86.000000" font-family="Arial" font-size="7" text-anchor="middle" fill="#FFFFFF">1</text>
<circle cx="50.000000" cy="74.000000" r="1"/>
<rect x="33.000000" y="105.000000" width="24.000000" height="24.000000" rx="0.1" ry="0.1" style="stroke:none;fill:#aaaaaa;;filter:url(#filter);"/>
<rect x="32.000000" y="104.000000" width="24.000000" height="24.000000" rx="0" ry="0" style="stroke:none;fill:#f44800;"/>
<text x="44.000000" y="118.000000" font-family="Arial" font-size="7" text-anchor="middle" fill="#FFFFFF">1</text>
<circle cx="34.000000" cy="106.000000" r="1"/>
<rect x="65.000000" y="105.000000" width="24.000000" height="24.000000" rx="0.1" ry="0.1" style="stroke:none;fill:#aaaaaa;;filter:url(#filter);"/>
<rect x="64.000000" y="104.000000" width="24.000000" height="24.000000" rx="0" ry="0" style="stroke:none;fill:#4B71A1;"/>
<text x="76.000000" y="118.000000" font-family="Arial" font-size="7" text-anchor="middle" fill="#FFFFFF">mem</text>
<circle cx="66.000000" cy="106.000000" r="1"/>
<line x1="61.000000" y1="115.000000" x2="64.000000" y2="116.000000"  transform="rotate(0.000000,64.000000,116.000000)" style="stroke: black; stroke-width:0.25;"/>
<line x1="61.000000" y1="117.000000" x2="64.000000" y2="116.000000"  transform="rotate(0.000000,64.000000,116.000000)" style="stroke: black; stroke-width:0.25;"/>
<rect x="105.000000" y="89.000000" width="24.000000" height="24.000000" rx="0.1" ry="0.1" style="stroke:none;fill:#aaaaaa;;filter:url(#filter);"/>
<rect x="104.000000" y="88.000000" width="24.000000" height="24.000000" rx="0" ry="0" style="stroke:none;fill:#4B71A1;"/>
<text x="116.000000" y="102.000000" font-family="Arial" font-size="7" text-anchor="middle" fill="#FFFFFF">-</text>
<circle cx="106.000000" cy="90.000000" r="1"/>
<line x1="101.000000" y1="95.000000" x2="104.000000" y2="96.000000"  transform="rotate(0.000000,104.000000,96.000000)" style="stroke: black; stroke-width:0.25;"/>
<line x1="101.000000" y1="97.000000" x2="104.000000" y2="96.000000"  transform="rotate(0.000000,104.000000,96.000000)" style="stroke: black; stroke-width:0.25;"/>
<line x1="101.000000" y1="103.000000" x2="104.000000" y2="104.000000"  transform="rotate(0.000000,104.000000,104.000000)" style="stroke: black; stroke-width:0.25;"/>
<line x1="101.000000" y1="105.000000" x2="104.000000" y2="104.000000"  transform="rotate(0.000000,104.000000,104.000000)" style="stroke: black; stroke-width:0.25;"/>
<rect x="145.000000" y="73.000000" width="24.000000" height="24.000000" rx="0.1" ry="0.1" style="stroke:none;fill:#aaaaaa;;filter:url(#filter);"/>
<rect x="144.000000" y="72.000000" width="24.000000" height="24.000000" rx="0" ry="0" style="stroke:none;fill:#4B71A1;"/>
<text x="156.000000" y="86.000000" font-family="Arial" font-size="7" text-anchor="middle" fill="#FFFFFF">-</text>
<circle cx="146.000000" cy="74.000000" r="1"/>
<line x1="141.000000" y1="79.000000" x2="144.000000" y2="80.000000"  transform="rotate(0.000000,144.000000,80.000000)" style="stroke: black; stroke-width:0.25;"/>
<line x1="141.000000" y1="81.000000" x2="144.000000" y2="80.000000"  transform="rotate(0.000000,144.000000,80.000000)" style="stroke: black; stroke-width:0.25;"/>
<line x1="141.000000" y1="87.000000" x2="144.000000" y2="88.000000"  transform="rotate(0.000000,144.000000,88.000000)" style="stroke: black; stroke-width:0.25;"/>
<line x1="141.000000" y1="89.000000" x2="144.000000" y2="88.000000"  transform="rotate(0.000000,144.000000,88.000000)" style="stroke: black; stroke-width:0.25;"/>
<rect x="185.000000" y="69.000000" width="24.000000" height="24.000000" rx="0.1" ry="0.1" style="stroke:none;fill:#aaaaaa;;filter:url(#filter);"/>
<rect x="184.000000" y="68.000000" width="24.000000" height="24.000000" rx="0" ry="0" style="stroke:none;fill:#4B71A1;"/>
<text x="196.000000" y="82.000000" font-family="Arial" font-size="7" text-anchor="middle" fill="#FFFFFF">*</text>
<circle cx="186.000000" cy="70.000000" r="1"/>
<line x1="181.000000" y1="75.000000" x2="184.000000" y2="76.000000"  transform="rotate(0.000000,184.000000,76.000000)" style="stroke: black; stroke-width:0.25;"/>
<line x1="181.000000" y1="77.000000" x2="184.000000" y2="76.000000"  transform="rotate(0.000000,184.000000,76.000000)" style="stroke: black; stroke-width:0.25;"/>
<line x1="181.000000" y1="83.000000" x2="184.000000" y2="84.000000"  transform="rotate(0.000000,184.000000,84.000000)" style="stroke: black; stroke-width:0.25;"/>
<line x1="181.000000" y1="85.000000" x2="184.000000" y2="84.000000"  transform="rotate(0.000000,184.000000,84.000000)" style="stroke: black; stroke-width:0.25;"/>
<a xlink:href="delayLength-0x1a6fc50.svg">
<rect x="39.200000" y="137.000000" width="51.600000" height="24.000000" rx="0.1" ry="0.1" style="stroke:none;fill:#aaaaaa;;filter:url(#filter);"/>
<rect x="38.200000" y="136.000000" width="51.600000" height="24.000000" rx="0" ry="0" style="stroke:none;fill:#003366;"/>
</a>
<a xlink:href="delayLength-0x1a6fc50.svg">
<text x="64.000000" y="150.000000" font-family="Arial" font-size="7" text-anchor="middle" fill="#FFFFFF">delayLength</text>
</a>
<circle cx="40.200000" cy="138.000000" r="1"/>
<a xlink:href="noise-0x1a6e210.svg">
<rect x="45.650000" y="169.000000" width="38.700000" height="24.000000" rx="0.1" ry="0.1" style="stroke:none;fill:#aaaaaa;;filter:url(#filter);"/>
<rect x="44.650000" y="168.000000" width="38.700000" height="24.000000" rx="0" ry="0" style="stroke:none;fill:#003366;"/>
</a>
<a xlink:href="noise-0x1a6e210.svg">
<text x="64.000000" y="182.000000" font-family="Arial" font-size="7" text-anchor="middle" fill="#FFFFFF">noise(1)</text>
</a>
<circle cx="46.650000" cy="170.000000" r="1"/>
<rect x="106.800000" y="153.000000" width="24.000000" height="24.000000" rx="0.1" ry="0.1" style="stroke:none;fill:#aaaaaa;;filter:url(#filter);"/>
<rect x="105.800000" y="152.000000" width="24.000000" height="24.000000" rx="0" ry="0" style="stroke:none;fill:#4B71A1;"/>
<text x="117.800000" y="166.000000" font-family="Arial" font-size="7" text-anchor="middle" fill="#FFFFFF">*</text>
<circle cx="107.800000" cy="154.000000" r="1"/>
<line x1="102.800000" y1="159.000000" x2="105.800000" y2="160.000000"  transform="rotate(0.000000,105.800000,160.000000)" style="stroke: black; stroke-width:0.25;"/>
<line x1="102.800000" y1="161.000000" x2="105.800000" y2="160.000000"  transform="rotate(0.000000,105.800000,160.000000)" style="stroke: black; stroke-width:0.25;"/>
<line x1="102.800000" y1="167.000000" x2="105.800000" y2="168.000000"  transform="rotate(0.000000,105.800000,168.000000)" style="stroke: black; stroke-width:0.25;"/>
<line x1="102.800000" y1="169.000000" x2="105.800000" y2="168.000000"  transform="rotate(0.000000,105.800000,168.000000)" style="stroke: black; stroke-width:0.25;"/>
<rect x="138.800000" y="153.000000" width="24.000000" height="24.000000" rx="0.1" ry="0.1" style="stroke:none;fill:#aaaaaa;;filter:url(#filter);"/>
<rect x="137.800000" y="152.000000" width="24.000000" height="24.000000" rx="0" ry="0" style="stroke:none;fill:#4B71A1;"/>
<text x="149.800000" y="166.000000" font-family="Arial" font-size="7" text-anchor="middle" fill="#FFFFFF">int</text>
<circle cx="139.800000" cy="154.000000" r="1"/>
<line x1="134.800000" y1="163.000000" x2="137.800000" y2="164.000000"  transform="rotate(0.000000,137.800000,164.000000)" style="stroke: black; stroke-width:0.25;"/>
<line x1="134.800000" y1="165.000000" x2="137.800000" y2="164.000000"  transform="rotate(0.000000,137.800000,164.000000)" style="stroke: black; stroke-width:0.25;"/>
<rect x="69.000000" y="201.000000" width="24.000000" height="24.000000" rx="0.1" ry="0.1" style="stroke:none;fill:#aaaaaa;;filter:url(#filter);"/>
<rect x="68.000000" y="200.000000" width="24.000000" height="24.000000" rx="0" ry="0" style="stroke:none;fill:#f44800;"/>
<text x="80.000000" y="214.000000" font-family="Arial" font-size="7" text-anchor="middle" fill="#FFFFFF">1</text>
<circle cx="70.000000" cy="202.000000" r="1"/>
<rect x="53.000000" y="233.000000" width="24.000000" height="24.000000" rx="0.1" ry="0.1" style="stroke:none;fill:#aaaaaa;;filter:url(#filter);"/>
<rect x="52.000000" y="232.000000" width="24.000000" height="24.000000" rx="0" ry="0" style="stroke:none;fill:#f44800;"/>
<text x="64.000000" y="246.000000" font-family="Arial" font-size="7" text-anchor="middle" fill="#FFFFFF">1</text>
<circle cx="54.000000" cy="234.000000" r="1"/>
<rect x="85.000000" y="233.000000" width="24.000000" height="24.000000" rx="0.1" ry="0.1" style="stroke:none;fill:#aaaaaa;;filter:url(#filter);"/>
<rect x="84.000000" y="232.000000" width="24.000000" height="24.000000" rx="0" ry="0" style="stroke:none;fill:#4B71A1;"/>
<text x="96.000000" y="246.000000" font-family="Arial" font-size="7" text-anchor="middle" fill="#FFFFFF">mem</text>
<circle cx="86.000000" cy="234.000000" r="1"/>
<line x1="81.000000" y1="243.000000" x2="84.000000" y2="244.000000"  transform="rotate(0.000000,84.000000,244.000000)" style="stroke: black; stroke-width:0.25;"/>
<line x1="81.000000" y1="245.000000" x2="84.000000" y2="244.000000"  transform="rotate(0.000000,84.000000,244.000000)" style="stroke: black; stroke-width:0.25;"/>
<rect x="125.000000" y="217.000000" width="24.000000" height="24.000000" rx="0.1" ry="0.1" style="stroke:none;fill:#aaaaaa;;filter:url(#filter);"/>
<rect x="124.000000" y="216.000000" width="24.000000" height="24.000000" rx="0" ry="0" style="stroke:none;fill:#4B71A1;"/>
<text x="136.000000" y="230.000000" font-family="Arial" font-size="7" text-anchor="middle" fill="#FFFFFF">-</text>
<circle cx="126.000000" cy="218.000000" r="1"/>
<line x1="121.000000" y1="223.000000" x2="124.000000" y2="224.000000"  transform="rotate(0.000000,124.000000,224.000000)" style="stroke: black; stroke-width:0.25;"/>
<line x1="121.000000" y1="225.000000" x2="124.000000" y2="224.000000"  transform="rotate(0.000000,124.000000,224.000000)" style="stroke: black; stroke-width:0.25;"/>
<line x1="121.000000" y1="231.000000" x2="124.000000" y2="232.000000"  transform="rotate(0.000000,124.000000,232.000000)" style="stroke: black; stroke-width:0.25;"/>
<line x1="121.000000" y1="233.000000" x2="124.000000" y2="232.000000"  transform="rotate(0.000000,124.000000,232.000000)" style="stroke: black; stroke-width:0.25;"/>
<rect x="178.800000" y="185.000000" width="24.000000" height="24.000000" rx="0.1" ry="0.1" style="stroke:none;fill:#aaaaaa;;filter:url(#filter);"/>
<rect x="177.800000" y="184.000000" width="24.000000" height="24.000000" rx="0" ry="0" style="stroke:none;fill:#4B71A1;"/>
<text x="189.800000" y="198.000000" font-family="Arial" font-size="7" text-anchor="middle" fill="#FFFFFF">*</text>
<circle cx="179.800000" cy="186.000000" r="1"/>
<line x1="174.800000" y1="191.000000" x2="177.800000" y2="192.000000"  transform="rotate(0.000000,177.800000,192.000000)" style="stroke: black; stroke-width:0.25;"/>
<line x1="174.800000" y1="193.000000" x2="177.800000" y2="192.000000"  transform="rotate(0.000000,177.800000,192.000000)" style="stroke: black; stroke-width:0.25;"/>
<line x1="174.800000" y1="199.000000" x2="177.800000" y2="200.000000"  transform="rotate(0.000000,177.800000,200.000000)" style="stroke: black; stroke-width:0.25;"/>
<line x1="174.800000" y1="201.000000" x2="177.800000" y2="200.000000"  transform="rotate(0.000000,177.800000,200.000000)" style="stroke: black; stroke-width:0.25;"/>
<rect x="225.000000" y="133.000000" width="24.000000" height="24.000000" rx="0.1" ry="0.1" style="stroke:none;fill:#aaaaaa;;filter:url(#filter);"/>
<rect x="224.000000" y="132.000000" width="24.000000" height="24.000000" rx="0" ry="0" style="stroke:none;fill:#4B71A1;"/>
<text x="236.000000" y="146.000000" font-family="Arial" font-size="7" text-anchor="middle" fill="#FFFFFF">+</text>
<circle cx="226.000000" cy="134.000000" r="1"/>
<line x1="221.000000" y1="139.000000" x2="224.000000" y2="140.000000"  transform="rotate(0.000000,224.000000,140.000000)" style="stroke: black; stroke-width:0.25;"/>
<line x1="221.000000" y1="141.000000" x2="224.000000" y2="140.000000"  transform="rotate(0.000000,224.000000,140.000000)" style="stroke: black; stroke-width:0.25;"/>
<line x1="221.000000" y1="147.000000" x2="224.000000" y2="148.000000"  transform="rotate(0.000000,224.000000,148.000000)" style="stroke: black; stroke-width:0.25;"/>
<line x1="221.000000" y1="149.000000" x2="224.000000" y2="148.000000"  transform="rotate(0.000000,224.000000,148.000000)" style="stroke: black; stroke-width:0.25;"/>
<line x1="250.000000" y1="144.000000" x2="250.000000" y2="140.000000"  style="stroke:black; stroke-linecap:round; stroke-width:0.25;"/>
<line x1="250.000000" y1="140.000000" x2="254.000000" y2="140.000000"  style="stroke:black; stroke-linecap:round; stroke-width:0.25;"/>
<line x1="254.000000" y1="140.000000" x2="254.000000" y2="144.000000"  style="stroke:black; stroke-linecap:round; stroke-width:0.25;"/>
<line x1="15.000000" y1="15.000000" x2="15.000000" y2="265.000000"  style="stroke: black; stroke-linecap:round; stroke-width:0.25; stroke-dasharray:3,3;"/>
<line x1="15.000000" y1="265.000000" x2="265.000000" y2="265.000000"  style="stroke: black; stroke-linecap:round; stroke-width:0.25; stroke-dasharray:3,3;"/>
<line x1="265.000000" y1="265.000000" x2="265.000000" y2="15.000000"  style="stroke: black; stroke-linecap:round; stroke-width:0.25; stroke-dasharray:3,3;"/>
<line x1="15.000000" y1="15.000000" x2="20.000000" y2="15.000000"  style="stroke: black; stroke-linecap:round; stroke-width:0.25; stroke-dasharray:3,3;"/>
<line x1="119.975000" y1="15.000000" x2="265.000000" y2="15.000000"  style="stroke: black; stroke-linecap:round; stroke-width:0.25; stroke-dasharray:3,3;"/>
<text x="20.000000" y="17.000000" font-family="Arial" font-size="7">SH(1,(1:mem):...),2:/):*:int)</text>
<line x1="267.000000" y1="143.000000" x2="270.000000" y2="144.000000"  transform="rotate(0.000000,270.000000,144.000000)" style="stroke: black; stroke-width:0.25;"/>
<line x1="267.000000" y1="145.000000" x2="270.000000" y2="144.000000"  transform="rotate(0.000000,270.000000,144.000000)" style="stroke: black; stroke-width:0.25;"/>
<line x1="28.000000" y1="24.000000" x2="28.000000" y2="24.000000"  style="stroke:black; stroke-linecap:round; stroke-width:0.25;"/>
<line x1="28.000000" y1="24.000000" x2="28.000000" y2="32.000000"  style="stroke:black; stroke-linecap:round; stroke-width:0.25;"/>
<line x1="28.000000" y1="32.000000" x2="28.000000" y2="32.000000"  style="stroke:black; stroke-linecap:round; stroke-width:0.25;"/>
<line x1="28.000000" y1="32.000000" x2="100.000000" y2="32.000000"  style="stroke:black; stroke-linecap:round; stroke-width:0.25;"/>
<line x1="56.000000" y1="116.000000" x2="60.000000" y2="116.000000"  style="stroke:black; stroke-linecap:round; stroke-width:0.25;"/>
<line x1="60.000000" y1="116.000000" x2="60.000000" y2="116.000000"  style="stroke:black; stroke-linecap:round; stroke-width:0.25;"/>
<line x1="60.000000" y1="116.000000" x2="64.000000" y2="116.000000"  style="stroke:black; stroke-linecap:round; stroke-width:0.25;"/>
<line x1="72.000000" y1="84.000000" x2="76.000000" y2="84.000000"  style="stroke:black; stroke-linecap:round; stroke-width:0.25;"/>
<line x1="76.000000" y1="84.000000" x2="92.000000" y2="84.000000"  style="stroke:black; stroke-linecap:round; stroke-width:0.25;"/>
<line x1="76.000000" y1="244.000000" x2="80.000000" y2="244.000000"  style="stroke:black; stroke-linecap:round; stroke-width:0.25;"/>
<line x1="80.000000" y1="244.000000" x2="80.000000" y2="244.000000"  style="stroke:black; stroke-linecap:round; stroke-width:0.25;"/>
<line x1="80.000000" y1="244.000000" x2="84.000000" y2="244.000000"  style="stroke:black; stroke-linecap:round; stroke-width:0.25;"/>
<line x1="83.350000" y1="180.000000" x2="87.350000" y2="180.000000"  style="stroke:black; stroke-linecap:round; stroke-width:0.25;"/>
<line x1="87.350000" y1="180.000000" x2="93.800000" y2="180.000000"  style="stroke:black; stroke-linecap:round; stroke-width:0.25;"/>
<line x1="88.000000" y1="116.000000" x2="92.000000" y2="116.000000"  style="stroke:black; stroke-linecap:round; stroke-width:0.25;"/>
<line x1="89.800000" y1="148.000000" x2="93.800000" y2="148.000000"  style="stroke:black; stroke-linecap:round; stroke-width:0.25;"/>
<line x1="92.000000" y1="52.000000" x2="96.000000" y2="52.000000"  style="stroke:black; stroke-linecap:round; stroke-width:0.25;"/>
<line x1="92.000000" y1="84.000000" x2="100.000000" y2="84.000000"  style="stroke:black; stroke-linecap:round; stroke-width:0.25;"/>
<line x1="92.000000" y1="104.000000" x2="100.000000" y2="104.000000"  style="stroke:black; stroke-linecap:round; stroke-width:0.25;"/>
<line x1="92.000000" y1="116.000000" x2="92.000000" y2="104.000000"  style="stroke:black; stroke-linecap:round; stroke-width:0.25;"/>
<line x1="92.000000" y1="116.000000" x2="92.000000" y2="116.000000"  style="stroke:black; stroke-linecap:round; stroke-width:0.25;"/>
<line x1="92.000000" y1="212.000000" x2="96.000000" y2="212.000000"  style="stroke:black; stroke-linecap:round; stroke-width:0.25;"/>
<line x1="93.800000" y1="148.000000" x2="101.800000" y2="148.000000"  style="stroke:black; stroke-linecap:round; stroke-width:0.25;"/>
<line x1="93.800000" y1="168.000000" x2="101.800000" y2="168.000000"  style="stroke:black; stroke-linecap:round; stroke-width:0.25;"/>
<line x1="93.800000" y1="180.000000" x2="93.800000" y2="168.000000"  style="stroke:black; stroke-linecap:round; stroke-width:0.25;"/>
<line x1="93.800000" y1="180.000000" x2="93.800000" y2="180.000000"  style="stroke:black; stroke-linecap:round; stroke-width:0.25;"/>
<line x1="96.000000" y1="52.000000" x2="132.000000" y2="52.000000"  style="stroke:black; stroke-linecap:round; stroke-width:0.25;"/>
<line x1="96.000000" y1="212.000000" x2="112.000000" y2="212.000000"  style="stroke:black; stroke-linecap:round; stroke-width:0.25;"/>
<line x1="100.000000" y1="32.000000" x2="172.000000" y2="32.000000"  style="stroke:black; stroke-linecap:round; stroke-width:0.25;"/>
<line x1="100.000000" y1="84.000000" x2="100.000000" y2="96.000000"  style="stroke:black; stroke-linecap:round; stroke-width:0.25;"/>
<line x1="100.000000" y1="96.000000" x2="100.000000" y2="96.000000"  style="stroke:black; stroke-linecap:round; stroke-width:0.25;"/>
<line x1="100.000000" y1="96.000000" x2="104.000000" y2="96.000000"  style="stroke:black; stroke-linecap:round; stroke-width:0.25;"/>
<line x1="100.000000" y1="104.000000" x2="104.000000" y2="104.000000"  style="stroke:black; stroke-linecap:round; stroke-width:0.25;"/>
<line x1="101.800000" y1="148.000000" x2="101.800000" y2="160.000000"  style="stroke:black; stroke-linecap:round; stroke-width:0.25;"/>
<line x1="101.800000" y1="160.000000" x2="101.800000" y2="160.000000"  style="stroke:black; stroke-linecap:round; stroke-width:0.25;"/>
<line x1="101.800000" y1="160.000000" x2="105.800000" y2="160.000000"  style="stroke:black; stroke-linecap:round; stroke-width:0.25;"/>
<line x1="101.800000" y1="168.000000" x2="105.800000" y2="168.000000"  style="stroke:black; stroke-linecap:round; stroke-width:0.25;"/>
<line x1="108.000000" y1="244.000000" x2="112.000000" y2="244.000000"  style="stroke:black; stroke-linecap:round; stroke-width:0.25;"/>
<line x1="112.000000" y1="212.000000" x2="120.000000" y2="212.000000"  style="stroke:black; stroke-linecap:round; stroke-width:0.25;"/>
<line x1="112.000000" y1="232.000000" x2="120.000000" y2="232.000000"  style="stroke:black; stroke-linecap:round; stroke-width:0.25;"/>
<line x1="112.000000" y1="244.000000" x2="112.000000" y2="232.000000"  style="stroke:black; stroke-linecap:round; stroke-width:0.25;"/>
<line x1="112.000000" y1="244.000000" x2="112.000000" y2="244.000000"  style="stroke:black; stroke-linecap:round; stroke-width:0.25;"/>
<line x1="120.000000" y1="212.000000" x2="120.000000" y2="224.000000"  style="stroke:black; stroke-linecap:round; stroke-width:0.25;"/>
<line x1="120.000000" y1="224.000000" x2="120.000000" y2="224.000000"  style="stroke:black; stroke-linecap:round; stroke-width:0.25;"/>
<line x1="120.000000" y1="224.000000" x2="124.000000" y2="224.000000"  style="stroke:black; stroke-linecap:round; stroke-width:0.25;"/>
<line x1="120.000000" y1="232.000000" x2="124.000000" y2="232.000000"  style="stroke:black; stroke-linecap:round; stroke-width:0.25;"/>
<line x1="128.000000" y1="100.000000" x2="132.000000" y2="100.000000"  style="stroke:black; stroke-linecap:round; stroke-width:0.25;"/>
<line x1="129.800000" y1="164.000000" x2="133.800000" y2="164.000000"  style="stroke:black; stroke-linecap:round; stroke-width:0.25;"/>
<line x1="132.000000" y1="52.000000" x2="140.000000" y2="52.000000"  style="stroke:black; stroke-linecap:round; stroke-width:0.25;"/>
<line x1="132.000000" y1="88.000000" x2="140.000000" y2="88.000000"  style="stroke:black; stroke-linecap:round; stroke-width:0.25;"/>
<line x1="132.000000" y1="100.000000" x2="132.000000" y2="88.000000"  style="stroke:black; stroke-linecap:round; stroke-width:0.25;"/>
<line x1="132.000000" y1="100.000000" x2="132.000000" y2="100.000000"  style="stroke:black; stroke-linecap:round; stroke-width:0.25;"/>
<line x1="133.800000" y1="164.000000" x2="133.800000" y2="164.000000"  style="stroke:black; stroke-linecap:round; stroke-width:0.25;"/>
<line x1="133.800000" y1="164.000000" x2="137.800000" y2="164.000000"  style="stroke:black; stroke-linecap:round; stroke-width:0.25;"/>
<line x1="140.000000" y1="24.000000" x2="28.000000" y2="24.000000"  style="stroke:black; stroke-linecap:round; stroke-width:0.25;"/>
<line x1="140.000000" y1="52.000000" x2="140.000000" y2="80.000000"  style="stroke:black; stroke-linecap:round; stroke-width:0.25;"/>
<line x1="140.000000" y1="80.000000" x2="140.000000" y2="80.000000"  style="stroke:black; stroke-linecap:round; stroke-width:0.25;"/>
<line x1="140.000000" y1="80.000000" x2="144.000000" y2="80.000000"  style="stroke:black; stroke-linecap:round; stroke-width:0.25;"/>
<line x1="140.000000" y1="88.000000" x2="144.000000" y2="88.000000"  style="stroke:black; stroke-linecap:round; stroke-width:0.25;"/>
<line x1="148.000000" y1="228.000000" x2="152.000000" y2="228.000000"  style="stroke:black; stroke-linecap:round; stroke-width:0.25;"/>
<line x1="152.000000" y1="228.000000" x2="165.800000" y2="228.000000"  style="stroke:black; stroke-linecap:round; stroke-width:0.25;"/>
<line x1="161.800000" y1="164.000000" x2="165.800000" y2="164.000000"  style="stroke:black; stroke-linecap:round; stroke-width:0.25;"/>
<line x1="165.800000" y1="164.000000" x2="173.800000" y2="164.000000"  style="stroke:black; stroke-linecap:round; stroke-width:0.25;"/>
<line x1="165.800000" y1="200.000000" x2="173.800000" y2="200.000000"  style="stroke:black; stroke-linecap:round; stroke-width:0.25;"/>
<line x1="165.800000" y1="228.000000" x2="165.800000" y2="200.000000"  style="stroke:black; stroke-linecap:round; stroke-width:0.25;"/>
<line x1="165.800000" y1="228.000000" x2="165.800000" y2="228.000000"  style="stroke:black; stroke-linecap:round; stroke-width:0.25;"/>
<line x1="168.000000" y1="84.000000" x2="172.000000" y2="84.000000"  style="stroke:black; stroke-linecap:round; stroke-width:0.25;"/>
<line x1="172.000000" y1="32.000000" x2="180.000000" y2="32.000000"  style="stroke:black; stroke-linecap:round; stroke-width:0.25;"/>
<line x1="172.000000" y1="84.000000" x2="180.000000" y2="84.000000"  style="stroke:black; stroke-linecap:round; stroke-width:0.25;"/>
<line x1="173.800000" y1="164.000000" x2="173.800000" y2="192.000000"  style="stroke:black; stroke-linecap:round; stroke-width:0.25;"/>
<line x1="173.800000" y1="192.000000" x2="173.800000" y2="192.000000"  style="stroke:black; stroke-linecap:round; stroke-width:0.25;"/>
<line x1="173.800000" y1="192.000000" x2="177.800000" y2="192.000000"  style="stroke:black; stroke-linecap:round; stroke-width:0.25;"/>
<line x1="173.800000" y1="200.000000" x2="177.800000" y2="200.000000"  style="stroke:black; stroke-linecap:round; stroke-width:0.25;"/>
<line x1="180.000000" y1="32.000000" x2="180.000000" y2="76.000000"  style="stroke:black; stroke-linecap:round; stroke-width:0.25;"/>
<line x1="180.000000" y1="76.000000" x2="180.000000" y2="76.000000"  style="stroke:black; stroke-linecap:round; stroke-width:0.25;"/>
<line x1="180.000000" y1="76.000000" x2="184.000000" y2="76.000000"  style="stroke:black; stroke-linecap:round; stroke-width:0.25;"/>
<line x1="180.000000" y1="84.000000" x2="184.000000" y2="84.000000"  style="stroke:black; stroke-linecap:round; stroke-width:0.25;"/>
<line x1="201.800000" y1="196.000000" x2="205.800000" y2="196.000000"  style="stroke:black; stroke-linecap:round; stroke-width:0.25;"/>
<line x1="205.800000" y1="196.000000" x2="212.000000" y2="196.000000"  style="stroke:black; stroke-linecap:round; stroke-width:0.25;"/>
<line x1="208.000000" y1="80.000000" x2="212.000000" y2="80.000000"  style="stroke:black; stroke-linecap:round; stroke-width:0.25;"/>
<line x1="212.000000" y1="80.000000" x2="220.000000" y2="80.000000"  style="stroke:black; stroke-linecap:round; stroke-width:0.25;"/>
<line x1="212.000000" y1="148.000000" x2="220.000000" y2="148.000000"  style="stroke:black; stroke-linecap:round; stroke-width:0.25;"/>
<line x1="212.000000" y1="196.000000" x2="212.000000" y2="148.000000"  style="stroke:black; stroke-linecap:round; stroke-width:0.25;"/>
<line x1="212.000000" y1="196.000000" x2="212.000000" y2="196.000000"  style="stroke:black; stroke-linecap:round; stroke-width:0.25;"/>
<line x1="220.000000" y1="80.000000" x2="220.000000" y2="140.000000"  style="stroke:black; stroke-linecap:round; stroke-width:0.25;"/>
<line x1="220.000000" y1="140.000000" x2="220.000000" y2="140.000000"  style="stroke:black; stroke-linecap:round; stroke-width:0.25;"/>
<line x1="220.000000" y1="140.000000" x2="224.000000" y2="140.000000"  style="stroke:black; stroke-linecap:round; stroke-width:0.25;"/>
<line x1="220.000000" y1="148.000000" x2="224.000000" y2="148.000000"  style="stroke:black; stroke-linecap:round; stroke-width:0.25;"/>
<line x1="248.000000" y1="144.000000" x2="252.000000" y2="144.000000"  style="stroke:black; stroke-linecap:round; stroke-width:0.25;"/>
<line x1="252.000000" y1="24.000000" x2="140.000000" y2="24.000000"  style="stroke:black; stroke-linecap:round; stroke-width:0.25;"/>
<line x1="252.000000" y1="24.000000" x2="252.000000" y2="24.000000"  style="stroke:black; stroke-linecap:round; stroke-width:0.25;"/>
<line x1="252.000000" y1="140.000000" x2="252.000000" y2="24.000000"  style="stroke:black; stroke-linecap:round; stroke-width:0.25;"/>
<line x1="252.000000" y1="144.000000" x2="254.000000" y2="144.000000"  style="stroke:black; stroke-linecap:round; stroke-width:0.25;"/>
<line x1="254.000000" y1="144.000000" x2="260.000000" y2="144.000000"  style="stroke:black; stroke-linecap:round; stroke-width:0.25;"/>
<line x1="260.000000" y1="144.000000" x2="270.000000" y2="144.000000"  style="stroke:black; stroke-linecap:round; stroke-width:0.25;"/>
</svg>
