<?xml version="1.0"?>
<svg xmlns="http://www.w3.org/2000/svg" xmlns:xlink="http://www.w3.org/1999/xlink" viewBox="0 0 886.200000 104.000000" width="443.100000mm" height="52.000000mm" version="1.1">
<defs>
   <filter id="filter" filterRes="18" x="0" y="0">
     <feGaussianBlur in="SourceGraphic" stdDeviation="1.55" result="blur"/>
     <feOffset in="blur" dx="3" dy="3"/>
   </filter>
</defs>
<rect x="1.000000" y="1.000000" width="885.200000" height="103.000000" rx="0.1" ry="0.1" style="stroke:none;fill:#aaaaaa;;filter:url(#filter);"/>
<rect x="0.000000" y="0.000000" width="885.200000" height="103.000000" rx="0" ry="0" style="stroke:none;fill:#ffffff;"/>
<text x="10.000000" y="7.000000" font-family="Arial" font-size="7"></text>
<rect x="51.000000" y="45.000000" width="154.800000" height="24.000000" rx="0.1" ry="0.1" style="stroke:none;fill:#aaaaaa;;filter:url(#filter);"/>
<rect x="50.000000" y="44.000000" width="154.800000" height="24.000000" rx="0" ry="0" style="stroke:none;fill:#477881;"/>
<text x="127.400000" y="58.000000" font-family="Arial" font-size="7" text-anchor="middle" fill="#FFFFFF">hslider(Drive, 10000, 0, 10000, 0.1)</text>
<circle cx="52.000000" cy="46.000000" r="1"/>
<line x1="41.000000" y1="35.000000" x2="41.000000" y2="77.000000"  style="stroke: black; stroke-linecap:round; stroke-width:0.25; stroke-dasharray:3,3;"/>
<line x1="41.000000" y1="77.000000" x2="213.800000" y2="77.000000"  style="stroke: black; stroke-linecap:round; stroke-width:0.25; stroke-dasharray:3,3;"/>
<line x1="213.800000" y1="77.000000" x2="213.800000" y2="35.000000"  style="stroke: black; stroke-linecap:round; stroke-width:0.25; stroke-dasharray:3,3;"/>
<line x1="41.000000" y1="35.000000" x2="46.000000" y2="35.000000"  style="stroke: black; stroke-linecap:round; stroke-width:0.25; stroke-dasharray:3,3;"/>
<line x1="68.575000" y1="35.000000" x2="213.800000" y2="35.000000"  style="stroke: black; stroke-linecap:round; stroke-width:0.25; stroke-dasharray:3,3;"/>
<text x="46.000000" y="37.000000" font-family="Arial" font-size="7">Drive</text>
<rect x="231.800000" y="41.000000" width="24.000000" height="24.000000" rx="0.1" ry="0.1" style="stroke:none;fill:#aaaaaa;;filter:url(#filter);"/>
<rect x="230.800000" y="40.000000" width="24.000000" height="24.000000" rx="0" ry="0" style="stroke:none;fill:#4B71A1;"/>
<text x="242.800000" y="54.000000" font-family="Arial" font-size="7" text-anchor="middle" fill="#FFFFFF">*</text>
<circle cx="232.800000" cy="42.000000" r="1"/>
<line x1="227.800000" y1="47.000000" x2="230.800000" y2="48.000000"  transform="rotate(0.000000,230.800000,48.000000)" style="stroke: black; stroke-width:0.25;"/>
<line x1="227.800000" y1="49.000000" x2="230.800000" y2="48.000000"  transform="rotate(0.000000,230.800000,48.000000)" style="stroke: black; stroke-width:0.25;"/>
<line x1="227.800000" y1="55.000000" x2="230.800000" y2="56.000000"  transform="rotate(0.000000,230.800000,56.000000)" style="stroke: black; stroke-width:0.25;"/>
<line x1="227.800000" y1="57.000000" x2="230.800000" y2="56.000000"  transform="rotate(0.000000,230.800000,56.000000)" style="stroke: black; stroke-width:0.25;"/>
<rect x="271.800000" y="25.000000" width="24.000000" height="24.000000" rx="0.1" ry="0.1" style="stroke:none;fill:#aaaaaa;;filter:url(#filter);"/>
<rect x="270.800000" y="24.000000" width="24.000000" height="24.000000" rx="0" ry="0" style="stroke:none;fill:#4B71A1;"/>
<text x="282.800000" y="38.000000" font-family="Arial" font-size="7" text-anchor="middle" fill="#FFFFFF">int</text>
<circle cx="272.800000" cy="26.000000" r="1"/>
<line x1="267.800000" y1="35.000000" x2="270.800000" y2="36.000000"  transform="rotate(0.000000,270.800000,36.000000)" style="stroke: black; stroke-width:0.25;"/>
<line x1="267.800000" y1="37.000000" x2="270.800000" y2="36.000000"  transform="rotate(0.000000,270.800000,36.000000)" style="stroke: black; stroke-width:0.25;"/>
<rect x="271.800000" y="57.000000" width="24.000000" height="24.000000" rx="0.1" ry="0.1" style="stroke:none;fill:#aaaaaa;;filter:url(#filter);"/>
<rect x="270.800000" y="56.000000" width="24.000000" height="24.000000" rx="0" ry="0" style="stroke:none;fill:#f44800;"/>
<text x="282.800000" y="70.000000" font-family="Arial" font-size="7" text-anchor="middle" fill="#FFFFFF">1</text>
<circle cx="272.800000" cy="58.000000" r="1"/>
<rect x="311.800000" y="41.000000" width="24.000000" height="24.000000" rx="0.1" ry="0.1" style="stroke:none;fill:#aaaaaa;;filter:url(#filter);"/>
<rect x="310.800000" y="40.000000" width="24.000000" height="24.000000" rx="0" ry="0" style="stroke:none;fill:#4B71A1;"/>
<text x="322.800000" y="54.000000" font-family="Arial" font-size="7" text-anchor="middle" fill="#FFFFFF">%</text>
<circle cx="312.800000" cy="42.000000" r="1"/>
<line x1="307.800000" y1="47.000000" x2="310.800000" y2="48.000000"  transform="rotate(0.000000,310.800000,48.000000)" style="stroke: black; stroke-width:0.25;"/>
<line x1="307.800000" y1="49.000000" x2="310.800000" y2="48.000000"  transform="rotate(0.000000,310.800000,48.000000)" style="stroke: black; stroke-width:0.25;"/>
<line x1="307.800000" y1="55.000000" x2="310.800000" y2="56.000000"  transform="rotate(0.000000,310.800000,56.000000)" style="stroke: black; stroke-width:0.25;"/>
<line x1="307.800000" y1="57.000000" x2="310.800000" y2="56.000000"  transform="rotate(0.000000,310.800000,56.000000)" style="stroke: black; stroke-width:0.25;"/>
<rect x="361.800000" y="45.000000" width="167.700000" height="24.000000" rx="0.1" ry="0.1" style="stroke:none;fill:#aaaaaa;;filter:url(#filter);"/>
<rect x="360.800000" y="44.000000" width="167.700000" height="24.000000" rx="0" ry="0" style="stroke:none;fill:#477881;"/>
<text x="444.650000" y="58.000000" font-family="Arial" font-size="7" text-anchor="middle" fill="#FFFFFF">hslider(Bitdepth, 65536, 65536, 0, 1)</text>
<circle cx="362.800000" cy="46.000000" r="1"/>
<line x1="351.800000" y1="35.000000" x2="351.800000" y2="77.000000"  style="stroke: black; stroke-linecap:round; stroke-width:0.25; stroke-dasharray:3,3;"/>
<line x1="351.800000" y1="77.000000" x2="537.500000" y2="77.000000"  style="stroke: black; stroke-linecap:round; stroke-width:0.25; stroke-dasharray:3,3;"/>
<line x1="537.500000" y1="77.000000" x2="537.500000" y2="35.000000"  style="stroke: black; stroke-linecap:round; stroke-width:0.25; stroke-dasharray:3,3;"/>
<line x1="351.800000" y1="35.000000" x2="356.800000" y2="35.000000"  style="stroke: black; stroke-linecap:round; stroke-width:0.25; stroke-dasharray:3,3;"/>
<line x1="389.050000" y1="35.000000" x2="537.500000" y2="35.000000"  style="stroke: black; stroke-linecap:round; stroke-width:0.25; stroke-dasharray:3,3;"/>
<text x="356.800000" y="37.000000" font-family="Arial" font-size="7">Bitdepth</text>
<rect x="555.500000" y="41.000000" width="24.000000" height="24.000000" rx="0.1" ry="0.1" style="stroke:none;fill:#aaaaaa;;filter:url(#filter);"/>
<rect x="554.500000" y="40.000000" width="24.000000" height="24.000000" rx="0" ry="0" style="stroke:none;fill:#4B71A1;"/>
<text x="566.500000" y="54.000000" font-family="Arial" font-size="7" text-anchor="middle" fill="#FFFFFF">*</text>
<circle cx="556.500000" cy="42.000000" r="1"/>
<line x1="551.500000" y1="47.000000" x2="554.500000" y2="48.000000"  transform="rotate(0.000000,554.500000,48.000000)" style="stroke: black; stroke-width:0.25;"/>
<line x1="551.500000" y1="49.000000" x2="554.500000" y2="48.000000"  transform="rotate(0.000000,554.500000,48.000000)" style="stroke: black; stroke-width:0.25;"/>
<line x1="551.500000" y1="55.000000" x2="554.500000" y2="56.000000"  transform="rotate(0.000000,554.500000,56.000000)" style="stroke: black; stroke-width:0.25;"/>
<line x1="551.500000" y1="57.000000" x2="554.500000" y2="56.000000"  transform="rotate(0.000000,554.500000,56.000000)" style="stroke: black; stroke-width:0.25;"/>
<rect x="587.500000" y="41.000000" width="24.000000" height="24.000000" rx="0.1" ry="0.1" style="stroke:none;fill:#aaaaaa;;filter:url(#filter);"/>
<rect x="586.500000" y="40.000000" width="24.000000" height="24.000000" rx="0" ry="0" style="stroke:none;fill:#4B71A1;"/>
<text x="598.500000" y="54.000000" font-family="Arial" font-size="7" text-anchor="middle" fill="#FFFFFF">int</text>
<circle cx="588.500000" cy="42.000000" r="1"/>
<line x1="583.500000" y1="51.000000" x2="586.500000" y2="52.000000"  transform="rotate(0.000000,586.500000,52.000000)" style="stroke: black; stroke-width:0.25;"/>
<line x1="583.500000" y1="53.000000" x2="586.500000" y2="52.000000"  transform="rotate(0.000000,586.500000,52.000000)" style="stroke: black; stroke-width:0.25;"/>
<rect x="637.500000" y="45.000000" width="167.700000" height="24.000000" rx="0.1" ry="0.1" style="stroke:none;fill:#aaaaaa;;filter:url(#filter);"/>
<rect x="636.500000" y="44.000000" width="167.700000" height="24.000000" rx="0" ry="0" style="stroke:none;fill:#477881;"/>
<text x="720.350000" y="58.000000" font-family="Arial" font-size="7" text-anchor="middle" fill="#FFFFFF">hslider(Bitdepth, 65536, 65536, 0, 1)</text>
<circle cx="638.500000" cy="46.000000" r="1"/>
<line x1="627.500000" y1="35.000000" x2="627.500000" y2="77.000000"  style="stroke: black; stroke-linecap:round; stroke-width:0.25; stroke-dasharray:3,3;"/>
<line x1="627.500000" y1="77.000000" x2="813.200000" y2="77.000000"  style="stroke: black; stroke-linecap:round; stroke-width:0.25; stroke-dasharray:3,3;"/>
<line x1="813.200000" y1="77.000000" x2="813.200000" y2="35.000000"  style="stroke: black; stroke-linecap:round; stroke-width:0.25; stroke-dasharray:3,3;"/>
<line x1="627.500000" y1="35.000000" x2="632.500000" y2="35.000000"  style="stroke: black; stroke-linecap:round; stroke-width:0.25; stroke-dasharray:3,3;"/>
<line x1="664.750000" y1="35.000000" x2="813.200000" y2="35.000000"  style="stroke: black; stroke-linecap:round; stroke-width:0.25; stroke-dasharray:3,3;"/>
<text x="632.500000" y="37.000000" font-family="Arial" font-size="7">Bitdepth</text>
<rect x="831.200000" y="41.000000" width="24.000000" height="24.000000" rx="0.1" ry="0.1" style="stroke:none;fill:#aaaaaa;;filter:url(#filter);"/>
<rect x="830.200000" y="40.000000" width="24.000000" height="24.000000" rx="0" ry="0" style="stroke:none;fill:#4B71A1;"/>
<text x="842.200000" y="54.000000" font-family="Arial" font-size="7" text-anchor="middle" fill="#FFFFFF">/</text>
<circle cx="832.200000" cy="42.000000" r="1"/>
<line x1="827.200000" y1="47.000000" x2="830.200000" y2="48.000000"  transform="rotate(0.000000,830.200000,48.000000)" style="stroke: black; stroke-width:0.25;"/>
<line x1="827.200000" y1="49.000000" x2="830.200000" y2="48.000000"  transform="rotate(0.000000,830.200000,48.000000)" style="stroke: black; stroke-width:0.25;"/>
<line x1="827.200000" y1="55.000000" x2="830.200000" y2="56.000000"  transform="rotate(0.000000,830.200000,56.000000)" style="stroke: black; stroke-width:0.25;"/>
<line x1="827.200000" y1="57.000000" x2="830.200000" y2="56.000000"  transform="rotate(0.000000,830.200000,56.000000)" style="stroke: black; stroke-width:0.25;"/>
<line x1="15.000000" y1="15.000000" x2="15.000000" y2="89.000000"  style="stroke: black; stroke-linecap:round; stroke-width:0.25; stroke-dasharray:3,3;"/>
<line x1="15.000000" y1="89.000000" x2="871.200000" y2="89.000000"  style="stroke: black; stroke-linecap:round; stroke-width:0.25; stroke-dasharray:3,3;"/>
<line x1="871.200000" y1="89.000000" x2="871.200000" y2="15.000000"  style="stroke: black; stroke-linecap:round; stroke-width:0.25; stroke-dasharray:3,3;"/>
<line x1="15.000000" y1="15.000000" x2="20.000000" y2="15.000000"  style="stroke: black; stroke-linecap:round; stroke-width:0.25; stroke-dasharray:3,3;"/>
<line x1="49.025000" y1="15.000000" x2="871.200000" y2="15.000000"  style="stroke: black; stroke-linecap:round; stroke-width:0.25; stroke-dasharray:3,3;"/>
<text x="20.000000" y="17.000000" font-family="Arial" font-size="7">process</text>
<line x1="873.200000" y1="51.000000" x2="876.200000" y2="52.000000"  transform="rotate(0.000000,876.200000,52.000000)" style="stroke: black; stroke-width:0.25;"/>
<line x1="873.200000" y1="53.000000" x2="876.200000" y2="52.000000"  transform="rotate(0.000000,876.200000,52.000000)" style="stroke: black; stroke-width:0.25;"/>
<line x1="10.000000" y1="52.000000" x2="20.000000" y2="52.000000"  style="stroke:black; stroke-linecap:round; stroke-width:0.25;"/>
<line x1="20.000000" y1="52.000000" x2="24.000000" y2="52.000000"  style="stroke:black; stroke-linecap:round; stroke-width:0.25;"/>
<line x1="24.000000" y1="52.000000" x2="28.000000" y2="52.000000"  style="stroke:black; stroke-linecap:round; stroke-width:0.25;"/>
<line x1="28.000000" y1="26.000000" x2="36.000000" y2="26.000000"  style="stroke:black; stroke-linecap:round; stroke-width:0.25;"/>
<line x1="28.000000" y1="52.000000" x2="28.000000" y2="26.000000"  style="stroke:black; stroke-linecap:round; stroke-width:0.25;"/>
<line x1="28.000000" y1="52.000000" x2="28.000000" y2="52.000000"  style="stroke:black; stroke-linecap:round; stroke-width:0.25;"/>
<line x1="36.000000" y1="26.000000" x2="127.400000" y2="26.000000"  style="stroke:black; stroke-linecap:round; stroke-width:0.25;"/>
<line x1="127.400000" y1="26.000000" x2="218.800000" y2="26.000000"  style="stroke:black; stroke-linecap:round; stroke-width:0.25;"/>
<line x1="204.800000" y1="56.000000" x2="208.800000" y2="56.000000"  style="stroke:black; stroke-linecap:round; stroke-width:0.25;"/>
<line x1="208.800000" y1="56.000000" x2="218.800000" y2="56.000000"  style="stroke:black; stroke-linecap:round; stroke-width:0.25;"/>
<line x1="218.800000" y1="26.000000" x2="226.800000" y2="26.000000"  style="stroke:black; stroke-linecap:round; stroke-width:0.25;"/>
<line x1="218.800000" y1="56.000000" x2="226.800000" y2="56.000000"  style="stroke:black; stroke-linecap:round; stroke-width:0.25;"/>
<line x1="226.800000" y1="26.000000" x2="226.800000" y2="48.000000"  style="stroke:black; stroke-linecap:round; stroke-width:0.25;"/>
<line x1="226.800000" y1="48.000000" x2="226.800000" y2="48.000000"  style="stroke:black; stroke-linecap:round; stroke-width:0.25;"/>
<line x1="226.800000" y1="48.000000" x2="230.800000" y2="48.000000"  style="stroke:black; stroke-linecap:round; stroke-width:0.25;"/>
<line x1="226.800000" y1="56.000000" x2="230.800000" y2="56.000000"  style="stroke:black; stroke-linecap:round; stroke-width:0.25;"/>
<line x1="254.800000" y1="52.000000" x2="258.800000" y2="52.000000"  style="stroke:black; stroke-linecap:round; stroke-width:0.25;"/>
<line x1="258.800000" y1="36.000000" x2="266.800000" y2="36.000000"  style="stroke:black; stroke-linecap:round; stroke-width:0.25;"/>
<line x1="258.800000" y1="52.000000" x2="258.800000" y2="36.000000"  style="stroke:black; stroke-linecap:round; stroke-width:0.25;"/>
<line x1="258.800000" y1="52.000000" x2="258.800000" y2="52.000000"  style="stroke:black; stroke-linecap:round; stroke-width:0.25;"/>
<line x1="266.800000" y1="36.000000" x2="270.800000" y2="36.000000"  style="stroke:black; stroke-linecap:round; stroke-width:0.25;"/>
<line x1="294.800000" y1="36.000000" x2="298.800000" y2="36.000000"  style="stroke:black; stroke-linecap:round; stroke-width:0.25;"/>
<line x1="294.800000" y1="68.000000" x2="298.800000" y2="68.000000"  style="stroke:black; stroke-linecap:round; stroke-width:0.25;"/>
<line x1="298.800000" y1="36.000000" x2="306.800000" y2="36.000000"  style="stroke:black; stroke-linecap:round; stroke-width:0.25;"/>
<line x1="298.800000" y1="56.000000" x2="306.800000" y2="56.000000"  style="stroke:black; stroke-linecap:round; stroke-width:0.25;"/>
<line x1="298.800000" y1="68.000000" x2="298.800000" y2="56.000000"  style="stroke:black; stroke-linecap:round; stroke-width:0.25;"/>
<line x1="298.800000" y1="68.000000" x2="298.800000" y2="68.000000"  style="stroke:black; stroke-linecap:round; stroke-width:0.25;"/>
<line x1="306.800000" y1="36.000000" x2="306.800000" y2="48.000000"  style="stroke:black; stroke-linecap:round; stroke-width:0.25;"/>
<line x1="306.800000" y1="48.000000" x2="306.800000" y2="48.000000"  style="stroke:black; stroke-linecap:round; stroke-width:0.25;"/>
<line x1="306.800000" y1="48.000000" x2="310.800000" y2="48.000000"  style="stroke:black; stroke-linecap:round; stroke-width:0.25;"/>
<line x1="306.800000" y1="56.000000" x2="310.800000" y2="56.000000"  style="stroke:black; stroke-linecap:round; stroke-width:0.25;"/>
<line x1="334.800000" y1="52.000000" x2="338.800000" y2="52.000000"  style="stroke:black; stroke-linecap:round; stroke-width:0.25;"/>
<line x1="338.800000" y1="26.000000" x2="346.800000" y2="26.000000"  style="stroke:black; stroke-linecap:round; stroke-width:0.25;"/>
<line x1="338.800000" y1="52.000000" x2="338.800000" y2="26.000000"  style="stroke:black; stroke-linecap:round; stroke-width:0.25;"/>
<line x1="338.800000" y1="52.000000" x2="338.800000" y2="52.000000"  style="stroke:black; stroke-linecap:round; stroke-width:0.25;"/>
<line x1="346.800000" y1="26.000000" x2="444.650000" y2="26.000000"  style="stroke:black; stroke-linecap:round; stroke-width:0.25;"/>
<line x1="444.650000" y1="26.000000" x2="542.500000" y2="26.000000"  style="stroke:black; stroke-linecap:round; stroke-width:0.25;"/>
<line x1="528.500000" y1="56.000000" x2="532.500000" y2="56.000000"  style="stroke:black; stroke-linecap:round; stroke-width:0.25;"/>
<line x1="532.500000" y1="56.000000" x2="542.500000" y2="56.000000"  style="stroke:black; stroke-linecap:round; stroke-width:0.25;"/>
<line x1="542.500000" y1="26.000000" x2="550.500000" y2="26.000000"  style="stroke:black; stroke-linecap:round; stroke-width:0.25;"/>
<line x1="542.500000" y1="56.000000" x2="550.500000" y2="56.000000"  style="stroke:black; stroke-linecap:round; stroke-width:0.25;"/>
<line x1="550.500000" y1="26.000000" x2="550.500000" y2="48.000000"  style="stroke:black; stroke-linecap:round; stroke-width:0.25;"/>
<line x1="550.500000" y1="48.000000" x2="550.500000" y2="48.000000"  style="stroke:black; stroke-linecap:round; stroke-width:0.25;"/>
<line x1="550.500000" y1="48.000000" x2="554.500000" y2="48.000000"  style="stroke:black; stroke-linecap:round; stroke-width:0.25;"/>
<line x1="550.500000" y1="56.000000" x2="554.500000" y2="56.000000"  style="stroke:black; stroke-linecap:round; stroke-width:0.25;"/>
<line x1="578.500000" y1="52.000000" x2="582.500000" y2="52.000000"  style="stroke:black; stroke-linecap:round; stroke-width:0.25;"/>
<line x1="582.500000" y1="52.000000" x2="582.500000" y2="52.000000"  style="stroke:black; stroke-linecap:round; stroke-width:0.25;"/>
<line x1="582.500000" y1="52.000000" x2="586.500000" y2="52.000000"  style="stroke:black; stroke-linecap:round; stroke-width:0.25;"/>
<line x1="610.500000" y1="52.000000" x2="614.500000" y2="52.000000"  style="stroke:black; stroke-linecap:round; stroke-width:0.25;"/>
<line x1="614.500000" y1="26.000000" x2="622.500000" y2="26.000000"  style="stroke:black; stroke-linecap:round; stroke-width:0.25;"/>
<line x1="614.500000" y1="52.000000" x2="614.500000" y2="26.000000"  style="stroke:black; stroke-linecap:round; stroke-width:0.25;"/>
<line x1="614.500000" y1="52.000000" x2="614.500000" y2="52.000000"  style="stroke:black; stroke-linecap:round; stroke-width:0.25;"/>
<line x1="622.500000" y1="26.000000" x2="720.350000" y2="26.000000"  style="stroke:black; stroke-linecap:round; stroke-width:0.25;"/>
<line x1="720.350000" y1="26.000000" x2="818.200000" y2="26.000000"  style="stroke:black; stroke-linecap:round; stroke-width:0.25;"/>
<line x1="804.200000" y1="56.000000" x2="808.200000" y2="56.000000"  style="stroke:black; stroke-linecap:round; stroke-width:0.25;"/>
<line x1="808.200000" y1="56.000000" x2="818.200000" y2="56.000000"  style="stroke:black; stroke-linecap:round; stroke-width:0.25;"/>
<line x1="818.200000" y1="26.000000" x2="826.200000" y2="26.000000"  style="stroke:black; stroke-linecap:round; stroke-width:0.25;"/>
<line x1="818.200000" y1="56.000000" x2="826.200000" y2="56.000000"  style="stroke:black; stroke-linecap:round; stroke-width:0.25;"/>
<line x1="826.200000" y1="26.000000" x2="826.200000" y2="48.000000"  style="stroke:black; stroke-linecap:round; stroke-width:0.25;"/>
<line x1="826.200000" y1="48.000000" x2="826.200000" y2="48.000000"  style="stroke:black; stroke-linecap:round; stroke-width:0.25;"/>
<line x1="826.200000" y1="48.000000" x2="830.200000" y2="48.000000"  style="stroke:black; stroke-linecap:round; stroke-width:0.25;"/>
<line x1="826.200000" y1="56.000000" x2="830.200000" y2="56.000000"  style="stroke:black; stroke-linecap:round; stroke-width:0.25;"/>
<line x1="854.200000" y1="52.000000" x2="858.200000" y2="52.000000"  style="stroke:black; stroke-linecap:round; stroke-width:0.25;"/>
<line x1="858.200000" y1="52.000000" x2="862.200000" y2="52.000000"  style="stroke:black; stroke-linecap:round; stroke-width:0.25;"/>
<line x1="858.200000" y1="52.000000" x2="858.200000" y2="52.000000"  style="stroke:black; stroke-linecap:round; stroke-width:0.25;"/>
<line x1="862.200000" y1="52.000000" x2="866.200000" y2="52.000000"  style="stroke:black; stroke-linecap:round; stroke-width:0.25;"/>
<line x1="866.200000" y1="52.000000" x2="876.200000" y2="52.000000"  style="stroke:black; stroke-linecap:round; stroke-width:0.25;"/>
</svg>
