<?xml version="1.0"?>
<svg xmlns="http://www.w3.org/2000/svg" xmlns:xlink="http://www.w3.org/1999/xlink" viewBox="0 0 368.500000 256.000000" width="184.250000mm" height="128.000000mm" version="1.1">
<defs>
   <filter id="filter" filterRes="18" x="0" y="0">
     <feGaussianBlur in="SourceGraphic" stdDeviation="1.55" result="blur"/>
     <feOffset in="blur" dx="3" dy="3"/>
   </filter>
</defs>
<rect x="1.000000" y="1.000000" width="367.500000" height="255.000000" rx="0.1" ry="0.1" style="stroke:none;fill:#aaaaaa;;filter:url(#filter);"/>
<rect x="0.000000" y="0.000000" width="367.500000" height="255.000000" rx="0" ry="0" style="stroke:none;fill:#ffffff;"/>
<text x="10.000000" y="7.000000" font-family="Arial" font-size="7"></text>
<rect x="33.000000" y="137.000000" width="24.000000" height="24.000000" rx="0.1" ry="0.1" style="stroke:none;fill:#aaaaaa;;filter:url(#filter);"/>
<rect x="32.000000" y="136.000000" width="24.000000" height="24.000000" rx="0" ry="0" style="stroke:none;fill:#4B71A1;"/>
<text x="44.000000" y="150.000000" font-family="Arial" font-size="7" text-anchor="middle" fill="#FFFFFF">+</text>
<circle cx="34.000000" cy="138.000000" r="1"/>
<line x1="29.000000" y1="143.000000" x2="32.000000" y2="144.000000"  transform="rotate(0.000000,32.000000,144.000000)" style="stroke: black; stroke-width:0.25;"/>
<line x1="29.000000" y1="145.000000" x2="32.000000" y2="144.000000"  transform="rotate(0.000000,32.000000,144.000000)" style="stroke: black; stroke-width:0.25;"/>
<line x1="29.000000" y1="151.000000" x2="32.000000" y2="152.000000"  transform="rotate(0.000000,32.000000,152.000000)" style="stroke: black; stroke-width:0.25;"/>
<line x1="29.000000" y1="153.000000" x2="32.000000" y2="152.000000"  transform="rotate(0.000000,32.000000,152.000000)" style="stroke: black; stroke-width:0.25;"/>
<rect x="132.350000" y="93.000000" width="25.800000" height="24.000000" rx="0.1" ry="0.1" style="stroke:none;fill:#aaaaaa;;filter:url(#filter);"/>
<rect x="131.350000" y="92.000000" width="25.800000" height="24.000000" rx="0" ry="0" style="stroke:none;fill:#f44800;"/>
<text x="144.250000" y="106.000000" font-family="Arial" font-size="7" text-anchor="middle" fill="#FFFFFF">192000</text>
<circle cx="133.350000" cy="94.000000" r="1"/>
<rect x="113.250000" y="125.000000" width="24.000000" height="24.000000" rx="0.1" ry="0.1" style="stroke:none;fill:#aaaaaa;;filter:url(#filter);"/>
<rect x="112.250000" y="124.000000" width="24.000000" height="24.000000" rx="0" ry="0" style="stroke:none;fill:#f44800;"/>
<text x="124.250000" y="138.000000" font-family="Arial" font-size="7" text-anchor="middle" fill="#FFFFFF">1</text>
<circle cx="114.250000" cy="126.000000" r="1"/>
<rect x="93.000000" y="157.000000" width="64.500000" height="24.000000" rx="0.1" ry="0.1" style="stroke:none;fill:#aaaaaa;;filter:url(#filter);"/>
<rect x="92.000000" y="156.000000" width="64.500000" height="24.000000" rx="0" ry="0" style="stroke:none;fill:#4B71A1;"/>
<text x="124.250000" y="170.000000" font-family="Arial" font-size="7" text-anchor="middle" fill="#FFFFFF">fSamplingFreq</text>
<circle cx="94.000000" cy="158.000000" r="1"/>
<rect x="173.500000" y="141.000000" width="24.000000" height="24.000000" rx="0.1" ry="0.1" style="stroke:none;fill:#aaaaaa;;filter:url(#filter);"/>
<rect x="172.500000" y="140.000000" width="24.000000" height="24.000000" rx="0" ry="0" style="stroke:none;fill:#4B71A1;"/>
<text x="184.500000" y="154.000000" font-family="Arial" font-size="7" text-anchor="middle" fill="#FFFFFF">max</text>
<circle cx="174.500000" cy="142.000000" r="1"/>
<line x1="169.500000" y1="147.000000" x2="172.500000" y2="148.000000"  transform="rotate(0.000000,172.500000,148.000000)" style="stroke: black; stroke-width:0.25;"/>
<line x1="169.500000" y1="149.000000" x2="172.500000" y2="148.000000"  transform="rotate(0.000000,172.500000,148.000000)" style="stroke: black; stroke-width:0.25;"/>
<line x1="169.500000" y1="155.000000" x2="172.500000" y2="156.000000"  transform="rotate(0.000000,172.500000,156.000000)" style="stroke: black; stroke-width:0.25;"/>
<line x1="169.500000" y1="157.000000" x2="172.500000" y2="156.000000"  transform="rotate(0.000000,172.500000,156.000000)" style="stroke: black; stroke-width:0.25;"/>
<rect x="213.500000" y="125.000000" width="24.000000" height="24.000000" rx="0.1" ry="0.1" style="stroke:none;fill:#aaaaaa;;filter:url(#filter);"/>
<rect x="212.500000" y="124.000000" width="24.000000" height="24.000000" rx="0" ry="0" style="stroke:none;fill:#4B71A1;"/>
<text x="224.500000" y="138.000000" font-family="Arial" font-size="7" text-anchor="middle" fill="#FFFFFF">min</text>
<circle cx="214.500000" cy="126.000000" r="1"/>
<line x1="209.500000" y1="131.000000" x2="212.500000" y2="132.000000"  transform="rotate(0.000000,212.500000,132.000000)" style="stroke: black; stroke-width:0.25;"/>
<line x1="209.500000" y1="133.000000" x2="212.500000" y2="132.000000"  transform="rotate(0.000000,212.500000,132.000000)" style="stroke: black; stroke-width:0.25;"/>
<line x1="209.500000" y1="139.000000" x2="212.500000" y2="140.000000"  transform="rotate(0.000000,212.500000,140.000000)" style="stroke: black; stroke-width:0.25;"/>
<line x1="209.500000" y1="141.000000" x2="212.500000" y2="140.000000"  transform="rotate(0.000000,212.500000,140.000000)" style="stroke: black; stroke-width:0.25;"/>
<line x1="83.000000" y1="83.000000" x2="83.000000" y2="189.000000"  style="stroke: black; stroke-linecap:round; stroke-width:0.25; stroke-dasharray:3,3;"/>
<line x1="83.000000" y1="189.000000" x2="245.500000" y2="189.000000"  style="stroke: black; stroke-linecap:round; stroke-width:0.25; stroke-dasharray:3,3;"/>
<line x1="245.500000" y1="189.000000" x2="245.500000" y2="83.000000"  style="stroke: black; stroke-linecap:round; stroke-width:0.25; stroke-dasharray:3,3;"/>
<line x1="83.000000" y1="83.000000" x2="88.000000" y2="83.000000"  style="stroke: black; stroke-linecap:round; stroke-width:0.25; stroke-dasharray:3,3;"/>
<line x1="100.900000" y1="83.000000" x2="245.500000" y2="83.000000"  style="stroke: black; stroke-linecap:round; stroke-width:0.25; stroke-dasharray:3,3;"/>
<text x="88.000000" y="85.000000" font-family="Arial" font-size="7">SR</text>
<rect x="152.350000" y="199.000000" width="25.800000" height="24.000000" rx="0.1" ry="0.1" style="stroke:none;fill:#aaaaaa;;filter:url(#filter);"/>
<rect x="151.350000" y="198.000000" width="25.800000" height="24.000000" rx="0" ry="0" style="stroke:none;fill:#f44800;"/>
<text x="164.250000" y="212.000000" font-family="Arial" font-size="7" text-anchor="middle" fill="#FFFFFF">1000</text>
<circle cx="153.350000" cy="200.000000" r="1"/>
<rect x="263.500000" y="141.000000" width="24.000000" height="24.000000" rx="0.1" ry="0.1" style="stroke:none;fill:#aaaaaa;;filter:url(#filter);"/>
<rect x="262.500000" y="140.000000" width="24.000000" height="24.000000" rx="0" ry="0" style="stroke:none;fill:#4B71A1;"/>
<text x="274.500000" y="154.000000" font-family="Arial" font-size="7" text-anchor="middle" fill="#FFFFFF">/</text>
<circle cx="264.500000" cy="142.000000" r="1"/>
<line x1="259.500000" y1="147.000000" x2="262.500000" y2="148.000000"  transform="rotate(0.000000,262.500000,148.000000)" style="stroke: black; stroke-width:0.25;"/>
<line x1="259.500000" y1="149.000000" x2="262.500000" y2="148.000000"  transform="rotate(0.000000,262.500000,148.000000)" style="stroke: black; stroke-width:0.25;"/>
<line x1="259.500000" y1="155.000000" x2="262.500000" y2="156.000000"  transform="rotate(0.000000,262.500000,156.000000)" style="stroke: black; stroke-width:0.25;"/>
<line x1="259.500000" y1="157.000000" x2="262.500000" y2="156.000000"  transform="rotate(0.000000,262.500000,156.000000)" style="stroke: black; stroke-width:0.25;"/>
<line x1="73.000000" y1="73.000000" x2="73.000000" y2="231.000000"  style="stroke: black; stroke-linecap:round; stroke-width:0.25; stroke-dasharray:3,3;"/>
<line x1="73.000000" y1="231.000000" x2="295.500000" y2="231.000000"  style="stroke: black; stroke-linecap:round; stroke-width:0.25; stroke-dasharray:3,3;"/>
<line x1="295.500000" y1="231.000000" x2="295.500000" y2="73.000000"  style="stroke: black; stroke-linecap:round; stroke-width:0.25; stroke-dasharray:3,3;"/>
<line x1="73.000000" y1="73.000000" x2="78.000000" y2="73.000000"  style="stroke: black; stroke-linecap:round; stroke-width:0.25; stroke-dasharray:3,3;"/>
<line x1="90.900000" y1="73.000000" x2="295.500000" y2="73.000000"  style="stroke: black; stroke-linecap:round; stroke-width:0.25; stroke-dasharray:3,3;"/>
<text x="78.000000" y="75.000000" font-family="Arial" font-size="7">ms</text>
<rect x="313.500000" y="137.000000" width="24.000000" height="24.000000" rx="0.1" ry="0.1" style="stroke:none;fill:#aaaaaa;;filter:url(#filter);"/>
<rect x="312.500000" y="136.000000" width="24.000000" height="24.000000" rx="0" ry="0" style="stroke:none;fill:#4B71A1;"/>
<text x="324.500000" y="150.000000" font-family="Arial" font-size="7" text-anchor="middle" fill="#FFFFFF">@</text>
<circle cx="314.500000" cy="138.000000" r="1"/>
<line x1="309.500000" y1="143.000000" x2="312.500000" y2="144.000000"  transform="rotate(0.000000,312.500000,144.000000)" style="stroke: black; stroke-width:0.25;"/>
<line x1="309.500000" y1="145.000000" x2="312.500000" y2="144.000000"  transform="rotate(0.000000,312.500000,144.000000)" style="stroke: black; stroke-width:0.25;"/>
<line x1="309.500000" y1="151.000000" x2="312.500000" y2="152.000000"  transform="rotate(0.000000,312.500000,152.000000)" style="stroke: black; stroke-width:0.25;"/>
<line x1="309.500000" y1="153.000000" x2="312.500000" y2="152.000000"  transform="rotate(0.000000,312.500000,152.000000)" style="stroke: black; stroke-width:0.25;"/>
<rect x="192.350000" y="25.000000" width="25.800000" height="24.000000" rx="0.1" ry="0.1" style="stroke:none;fill:#aaaaaa;;filter:url(#filter);"/>
<rect x="191.350000" y="24.000000" width="25.800000" height="24.000000" rx="0" ry="0" style="stroke:none;fill:#f44800;"/>
<text x="204.250000" y="38.000000" font-family="Arial" font-size="7" text-anchor="middle" fill="#FFFFFF">0.99</text>
<circle cx="215.150000" cy="46.000000" r="1"/>
<rect x="152.350000" y="29.000000" width="24.000000" height="24.000000" rx="0.1" ry="0.1" style="stroke:none;fill:#aaaaaa;;filter:url(#filter);"/>
<rect x="151.350000" y="28.000000" width="24.000000" height="24.000000" rx="0" ry="0" style="stroke:none;fill:#4B71A1;"/>
<text x="163.350000" y="42.000000" font-family="Arial" font-size="7" text-anchor="middle" fill="#FFFFFF">*</text>
<circle cx="173.350000" cy="50.000000" r="1"/>
<line x1="178.350000" y1="43.000000" x2="175.350000" y2="44.000000"  transform="rotate(0.000000,175.350000,44.000000)" style="stroke: black; stroke-width:0.25;"/>
<line x1="178.350000" y1="45.000000" x2="175.350000" y2="44.000000"  transform="rotate(0.000000,175.350000,44.000000)" style="stroke: black; stroke-width:0.25;"/>
<line x1="178.350000" y1="35.000000" x2="175.350000" y2="36.000000"  transform="rotate(0.000000,175.350000,36.000000)" style="stroke: black; stroke-width:0.25;"/>
<line x1="178.350000" y1="37.000000" x2="175.350000" y2="36.000000"  transform="rotate(0.000000,175.350000,36.000000)" style="stroke: black; stroke-width:0.25;"/>
<line x1="338.500000" y1="148.000000" x2="338.500000" y2="144.000000"  style="stroke:black; stroke-linecap:round; stroke-width:0.25;"/>
<line x1="338.500000" y1="144.000000" x2="342.500000" y2="144.000000"  style="stroke:black; stroke-linecap:round; stroke-width:0.25;"/>
<line x1="342.500000" y1="144.000000" x2="342.500000" y2="148.000000"  style="stroke:black; stroke-linecap:round; stroke-width:0.25;"/>
<line x1="15.000000" y1="15.000000" x2="15.000000" y2="241.000000"  style="stroke: black; stroke-linecap:round; stroke-width:0.25; stroke-dasharray:3,3;"/>
<line x1="15.000000" y1="241.000000" x2="353.500000" y2="241.000000"  style="stroke: black; stroke-linecap:round; stroke-width:0.25; stroke-dasharray:3,3;"/>
<line x1="353.500000" y1="241.000000" x2="353.500000" y2="15.000000"  style="stroke: black; stroke-linecap:round; stroke-width:0.25; stroke-dasharray:3,3;"/>
<line x1="15.000000" y1="15.000000" x2="20.000000" y2="15.000000"  style="stroke: black; stroke-linecap:round; stroke-width:0.25; stroke-dasharray:3,3;"/>
<line x1="49.025000" y1="15.000000" x2="353.500000" y2="15.000000"  style="stroke: black; stroke-linecap:round; stroke-width:0.25; stroke-dasharray:3,3;"/>
<text x="20.000000" y="17.000000" font-family="Arial" font-size="7">process</text>
<line x1="355.500000" y1="147.000000" x2="358.500000" y2="148.000000"  transform="rotate(0.000000,358.500000,148.000000)" style="stroke: black; stroke-width:0.25;"/>
<line x1="355.500000" y1="149.000000" x2="358.500000" y2="148.000000"  transform="rotate(0.000000,358.500000,148.000000)" style="stroke: black; stroke-width:0.25;"/>
<line x1="10.000000" y1="152.000000" x2="20.000000" y2="152.000000"  style="stroke:black; stroke-linecap:round; stroke-width:0.25;"/>
<line x1="20.000000" y1="152.000000" x2="28.000000" y2="152.000000"  style="stroke:black; stroke-linecap:round; stroke-width:0.25;"/>
<line x1="28.000000" y1="40.000000" x2="28.000000" y2="40.000000"  style="stroke:black; stroke-linecap:round; stroke-width:0.25;"/>
<line x1="28.000000" y1="40.000000" x2="28.000000" y2="144.000000"  style="stroke:black; stroke-linecap:round; stroke-width:0.25;"/>
<line x1="28.000000" y1="144.000000" x2="28.000000" y2="144.000000"  style="stroke:black; stroke-linecap:round; stroke-width:0.25;"/>
<line x1="28.000000" y1="144.000000" x2="32.000000" y2="144.000000"  style="stroke:black; stroke-linecap:round; stroke-width:0.25;"/>
<line x1="28.000000" y1="152.000000" x2="28.000000" y2="152.000000"  style="stroke:black; stroke-linecap:round; stroke-width:0.25;"/>
<line x1="28.000000" y1="152.000000" x2="32.000000" y2="152.000000"  style="stroke:black; stroke-linecap:round; stroke-width:0.25;"/>
<line x1="56.000000" y1="148.000000" x2="60.000000" y2="148.000000"  style="stroke:black; stroke-linecap:round; stroke-width:0.25;"/>
<line x1="60.000000" y1="64.000000" x2="68.000000" y2="64.000000"  style="stroke:black; stroke-linecap:round; stroke-width:0.25;"/>
<line x1="60.000000" y1="148.000000" x2="60.000000" y2="64.000000"  style="stroke:black; stroke-linecap:round; stroke-width:0.25;"/>
<line x1="60.000000" y1="148.000000" x2="60.000000" y2="148.000000"  style="stroke:black; stroke-linecap:round; stroke-width:0.25;"/>
<line x1="68.000000" y1="64.000000" x2="184.250000" y2="64.000000"  style="stroke:black; stroke-linecap:round; stroke-width:0.25;"/>
<line x1="136.250000" y1="136.000000" x2="140.250000" y2="136.000000"  style="stroke:black; stroke-linecap:round; stroke-width:0.25;"/>
<line x1="140.250000" y1="136.000000" x2="160.500000" y2="136.000000"  style="stroke:black; stroke-linecap:round; stroke-width:0.25;"/>
<line x1="147.350000" y1="40.000000" x2="28.000000" y2="40.000000"  style="stroke:black; stroke-linecap:round; stroke-width:0.25;"/>
<line x1="151.350000" y1="40.000000" x2="147.350000" y2="40.000000"  style="stroke:black; stroke-linecap:round; stroke-width:0.25;"/>
<line x1="156.500000" y1="168.000000" x2="160.500000" y2="168.000000"  style="stroke:black; stroke-linecap:round; stroke-width:0.25;"/>
<line x1="157.150000" y1="104.000000" x2="161.150000" y2="104.000000"  style="stroke:black; stroke-linecap:round; stroke-width:0.25;"/>
<line x1="160.500000" y1="136.000000" x2="168.500000" y2="136.000000"  style="stroke:black; stroke-linecap:round; stroke-width:0.25;"/>
<line x1="160.500000" y1="156.000000" x2="168.500000" y2="156.000000"  style="stroke:black; stroke-linecap:round; stroke-width:0.25;"/>
<line x1="160.500000" y1="168.000000" x2="160.500000" y2="156.000000"  style="stroke:black; stroke-linecap:round; stroke-width:0.25;"/>
<line x1="160.500000" y1="168.000000" x2="160.500000" y2="168.000000"  style="stroke:black; stroke-linecap:round; stroke-width:0.25;"/>
<line x1="161.150000" y1="104.000000" x2="200.500000" y2="104.000000"  style="stroke:black; stroke-linecap:round; stroke-width:0.25;"/>
<line x1="168.500000" y1="136.000000" x2="168.500000" y2="148.000000"  style="stroke:black; stroke-linecap:round; stroke-width:0.25;"/>
<line x1="168.500000" y1="148.000000" x2="168.500000" y2="148.000000"  style="stroke:black; stroke-linecap:round; stroke-width:0.25;"/>
<line x1="168.500000" y1="148.000000" x2="172.500000" y2="148.000000"  style="stroke:black; stroke-linecap:round; stroke-width:0.25;"/>
<line x1="168.500000" y1="156.000000" x2="172.500000" y2="156.000000"  style="stroke:black; stroke-linecap:round; stroke-width:0.25;"/>
<line x1="177.150000" y1="210.000000" x2="181.150000" y2="210.000000"  style="stroke:black; stroke-linecap:round; stroke-width:0.25;"/>
<line x1="179.350000" y1="36.000000" x2="175.350000" y2="36.000000"  style="stroke:black; stroke-linecap:round; stroke-width:0.25;"/>
<line x1="179.350000" y1="44.000000" x2="175.350000" y2="44.000000"  style="stroke:black; stroke-linecap:round; stroke-width:0.25;"/>
<line x1="179.350000" y1="44.000000" x2="179.350000" y2="44.000000"  style="stroke:black; stroke-linecap:round; stroke-width:0.25;"/>
<line x1="179.350000" y1="56.000000" x2="179.350000" y2="44.000000"  style="stroke:black; stroke-linecap:round; stroke-width:0.25;"/>
<line x1="181.150000" y1="210.000000" x2="250.500000" y2="210.000000"  style="stroke:black; stroke-linecap:round; stroke-width:0.25;"/>
<line x1="184.250000" y1="64.000000" x2="300.500000" y2="64.000000"  style="stroke:black; stroke-linecap:round; stroke-width:0.25;"/>
<line x1="187.350000" y1="36.000000" x2="179.350000" y2="36.000000"  style="stroke:black; stroke-linecap:round; stroke-width:0.25;"/>
<line x1="187.350000" y1="56.000000" x2="179.350000" y2="56.000000"  style="stroke:black; stroke-linecap:round; stroke-width:0.25;"/>
<line x1="191.350000" y1="36.000000" x2="187.350000" y2="36.000000"  style="stroke:black; stroke-linecap:round; stroke-width:0.25;"/>
<line x1="196.500000" y1="152.000000" x2="200.500000" y2="152.000000"  style="stroke:black; stroke-linecap:round; stroke-width:0.25;"/>
<line x1="200.500000" y1="104.000000" x2="208.500000" y2="104.000000"  style="stroke:black; stroke-linecap:round; stroke-width:0.25;"/>
<line x1="200.500000" y1="140.000000" x2="208.500000" y2="140.000000"  style="stroke:black; stroke-linecap:round; stroke-width:0.25;"/>
<line x1="200.500000" y1="152.000000" x2="200.500000" y2="140.000000"  style="stroke:black; stroke-linecap:round; stroke-width:0.25;"/>
<line x1="200.500000" y1="152.000000" x2="200.500000" y2="152.000000"  style="stroke:black; stroke-linecap:round; stroke-width:0.25;"/>
<line x1="204.250000" y1="56.000000" x2="187.350000" y2="56.000000"  style="stroke:black; stroke-linecap:round; stroke-width:0.25;"/>
<line x1="208.500000" y1="104.000000" x2="208.500000" y2="132.000000"  style="stroke:black; stroke-linecap:round; stroke-width:0.25;"/>
<line x1="208.500000" y1="132.000000" x2="208.500000" y2="132.000000"  style="stroke:black; stroke-linecap:round; stroke-width:0.25;"/>
<line x1="208.500000" y1="132.000000" x2="212.500000" y2="132.000000"  style="stroke:black; stroke-linecap:round; stroke-width:0.25;"/>
<line x1="208.500000" y1="140.000000" x2="212.500000" y2="140.000000"  style="stroke:black; stroke-linecap:round; stroke-width:0.25;"/>
<line x1="221.150000" y1="56.000000" x2="204.250000" y2="56.000000"  style="stroke:black; stroke-linecap:round; stroke-width:0.25;"/>
<line x1="236.500000" y1="136.000000" x2="240.500000" y2="136.000000"  style="stroke:black; stroke-linecap:round; stroke-width:0.25;"/>
<line x1="240.500000" y1="136.000000" x2="250.500000" y2="136.000000"  style="stroke:black; stroke-linecap:round; stroke-width:0.25;"/>
<line x1="250.500000" y1="156.000000" x2="258.500000" y2="156.000000"  style="stroke:black; stroke-linecap:round; stroke-width:0.25;"/>
<line x1="250.500000" y1="210.000000" x2="250.500000" y2="156.000000"  style="stroke:black; stroke-linecap:round; stroke-width:0.25;"/>
<line x1="250.500000" y1="210.000000" x2="250.500000" y2="210.000000"  style="stroke:black; stroke-linecap:round; stroke-width:0.25;"/>
<line x1="250.500000" y1="136.000000" x2="258.500000" y2="136.000000"  style="stroke:black; stroke-linecap:round; stroke-width:0.25;"/>
<line x1="258.500000" y1="136.000000" x2="258.500000" y2="148.000000"  style="stroke:black; stroke-linecap:round; stroke-width:0.25;"/>
<line x1="258.500000" y1="148.000000" x2="258.500000" y2="148.000000"  style="stroke:black; stroke-linecap:round; stroke-width:0.25;"/>
<line x1="258.500000" y1="148.000000" x2="262.500000" y2="148.000000"  style="stroke:black; stroke-linecap:round; stroke-width:0.25;"/>
<line x1="258.500000" y1="156.000000" x2="262.500000" y2="156.000000"  style="stroke:black; stroke-linecap:round; stroke-width:0.25;"/>
<line x1="286.500000" y1="152.000000" x2="290.500000" y2="152.000000"  style="stroke:black; stroke-linecap:round; stroke-width:0.25;"/>
<line x1="290.500000" y1="152.000000" x2="300.500000" y2="152.000000"  style="stroke:black; stroke-linecap:round; stroke-width:0.25;"/>
<line x1="300.500000" y1="64.000000" x2="308.500000" y2="64.000000"  style="stroke:black; stroke-linecap:round; stroke-width:0.25;"/>
<line x1="300.500000" y1="152.000000" x2="308.500000" y2="152.000000"  style="stroke:black; stroke-linecap:round; stroke-width:0.25;"/>
<line x1="308.500000" y1="64.000000" x2="308.500000" y2="144.000000"  style="stroke:black; stroke-linecap:round; stroke-width:0.25;"/>
<line x1="308.500000" y1="144.000000" x2="308.500000" y2="144.000000"  style="stroke:black; stroke-linecap:round; stroke-width:0.25;"/>
<line x1="308.500000" y1="144.000000" x2="312.500000" y2="144.000000"  style="stroke:black; stroke-linecap:round; stroke-width:0.25;"/>
<line x1="308.500000" y1="152.000000" x2="312.500000" y2="152.000000"  style="stroke:black; stroke-linecap:round; stroke-width:0.25;"/>
<line x1="336.500000" y1="148.000000" x2="340.500000" y2="148.000000"  style="stroke:black; stroke-linecap:round; stroke-width:0.25;"/>
<line x1="340.500000" y1="56.000000" x2="221.150000" y2="56.000000"  style="stroke:black; stroke-linecap:round; stroke-width:0.25;"/>
<line x1="340.500000" y1="56.000000" x2="340.500000" y2="56.000000"  style="stroke:black; stroke-linecap:round; stroke-width:0.25;"/>
<line x1="340.500000" y1="144.000000" x2="340.500000" y2="56.000000"  style="stroke:black; stroke-linecap:round; stroke-width:0.25;"/>
<line x1="340.500000" y1="148.000000" x2="342.500000" y2="148.000000"  style="stroke:black; stroke-linecap:round; stroke-width:0.25;"/>
<line x1="342.500000" y1="148.000000" x2="348.500000" y2="148.000000"  style="stroke:black; stroke-linecap:round; stroke-width:0.25;"/>
<line x1="348.500000" y1="148.000000" x2="358.500000" y2="148.000000"  style="stroke:black; stroke-linecap:round; stroke-width:0.25;"/>
</svg>
