<?xml version="1.0"?>
<svg xmlns="http://www.w3.org/2000/svg" xmlns:xlink="http://www.w3.org/1999/xlink" viewBox="0 0 526.800000 196.000000" width="263.400000mm" height="98.000000mm" version="1.1">
<defs>
   <filter id="filter" filterRes="18" x="0" y="0">
     <feGaussianBlur in="SourceGraphic" stdDeviation="1.55" result="blur"/>
     <feOffset in="blur" dx="3" dy="3"/>
   </filter>
</defs>
<rect x="1.000000" y="1.000000" width="525.800000" height="195.000000" rx="0.1" ry="0.1" style="stroke:none;fill:#aaaaaa;;filter:url(#filter);"/>
<rect x="0.000000" y="0.000000" width="525.800000" height="195.000000" rx="0" ry="0" style="stroke:none;fill:#ffffff;"/>
<text x="10.000000" y="7.000000" font-family="Arial" font-size="7"></text>
<rect x="108.150000" y="43.000000" width="24.000000" height="24.000000" rx="0.1" ry="0.1" style="stroke:none;fill:#aaaaaa;;filter:url(#filter);"/>
<rect x="107.150000" y="42.000000" width="24.000000" height="24.000000" rx="0" ry="0" style="stroke:none;fill:#f44800;"/>
<text x="119.150000" y="56.000000" font-family="Arial" font-size="7" text-anchor="middle" fill="#FFFFFF">2</text>
<circle cx="109.150000" cy="44.000000" r="1"/>
<rect x="68.150000" y="75.000000" width="24.000000" height="24.000000" rx="0.1" ry="0.1" style="stroke:none;fill:#aaaaaa;;filter:url(#filter);"/>
<rect x="67.150000" y="74.000000" width="24.000000" height="24.000000" rx="0" ry="0" style="stroke:none;fill:#f44800;"/>
<text x="79.150000" y="88.000000" font-family="Arial" font-size="7" text-anchor="middle" fill="#FFFFFF">8</text>
<circle cx="69.150000" cy="76.000000" r="1"/>
<rect x="35.000000" y="107.000000" width="90.300000" height="24.000000" rx="0.1" ry="0.1" style="stroke:none;fill:#aaaaaa;;filter:url(#filter);"/>
<rect x="34.000000" y="106.000000" width="90.300000" height="24.000000" rx="0" ry="0" style="stroke:none;fill:#477881;"/>
<text x="79.150000" y="120.000000" font-family="Arial" font-size="7" text-anchor="middle" fill="#FFFFFF">checkbox(8 or 16 bit)</text>
<circle cx="36.000000" cy="108.000000" r="1"/>
<rect x="141.300000" y="91.000000" width="24.000000" height="24.000000" rx="0.1" ry="0.1" style="stroke:none;fill:#aaaaaa;;filter:url(#filter);"/>
<rect x="140.300000" y="90.000000" width="24.000000" height="24.000000" rx="0" ry="0" style="stroke:none;fill:#4B71A1;"/>
<text x="152.300000" y="104.000000" font-family="Arial" font-size="7" text-anchor="middle" fill="#FFFFFF">*</text>
<circle cx="142.300000" cy="92.000000" r="1"/>
<line x1="137.300000" y1="97.000000" x2="140.300000" y2="98.000000"  transform="rotate(0.000000,140.300000,98.000000)" style="stroke: black; stroke-width:0.25;"/>
<line x1="137.300000" y1="99.000000" x2="140.300000" y2="98.000000"  transform="rotate(0.000000,140.300000,98.000000)" style="stroke: black; stroke-width:0.25;"/>
<line x1="137.300000" y1="105.000000" x2="140.300000" y2="106.000000"  transform="rotate(0.000000,140.300000,106.000000)" style="stroke: black; stroke-width:0.25;"/>
<line x1="137.300000" y1="107.000000" x2="140.300000" y2="106.000000"  transform="rotate(0.000000,140.300000,106.000000)" style="stroke: black; stroke-width:0.25;"/>
<rect x="88.150000" y="139.000000" width="24.000000" height="24.000000" rx="0.1" ry="0.1" style="stroke:none;fill:#aaaaaa;;filter:url(#filter);"/>
<rect x="87.150000" y="138.000000" width="24.000000" height="24.000000" rx="0" ry="0" style="stroke:none;fill:#f44800;"/>
<text x="99.150000" y="152.000000" font-family="Arial" font-size="7" text-anchor="middle" fill="#FFFFFF">1</text>
<circle cx="89.150000" cy="140.000000" r="1"/>
<rect x="181.300000" y="107.000000" width="24.000000" height="24.000000" rx="0.1" ry="0.1" style="stroke:none;fill:#aaaaaa;;filter:url(#filter);"/>
<rect x="180.300000" y="106.000000" width="24.000000" height="24.000000" rx="0" ry="0" style="stroke:none;fill:#4B71A1;"/>
<text x="192.300000" y="120.000000" font-family="Arial" font-size="7" text-anchor="middle" fill="#FFFFFF">+</text>
<circle cx="182.300000" cy="108.000000" r="1"/>
<line x1="177.300000" y1="113.000000" x2="180.300000" y2="114.000000"  transform="rotate(0.000000,180.300000,114.000000)" style="stroke: black; stroke-width:0.25;"/>
<line x1="177.300000" y1="115.000000" x2="180.300000" y2="114.000000"  transform="rotate(0.000000,180.300000,114.000000)" style="stroke: black; stroke-width:0.25;"/>
<line x1="177.300000" y1="121.000000" x2="180.300000" y2="122.000000"  transform="rotate(0.000000,180.300000,122.000000)" style="stroke: black; stroke-width:0.25;"/>
<line x1="177.300000" y1="123.000000" x2="180.300000" y2="122.000000"  transform="rotate(0.000000,180.300000,122.000000)" style="stroke: black; stroke-width:0.25;"/>
<rect x="221.300000" y="91.000000" width="25.800000" height="24.000000" rx="0.1" ry="0.1" style="stroke:none;fill:#aaaaaa;;filter:url(#filter);"/>
<rect x="220.300000" y="90.000000" width="25.800000" height="24.000000" rx="0" ry="0" style="stroke:none;fill:#4B71A1;"/>
<text x="233.200000" y="104.000000" font-family="Arial" font-size="7" text-anchor="middle" fill="#FFFFFF">powf</text>
<circle cx="222.300000" cy="92.000000" r="1"/>
<line x1="217.300000" y1="97.000000" x2="220.300000" y2="98.000000"  transform="rotate(0.000000,220.300000,98.000000)" style="stroke: black; stroke-width:0.25;"/>
<line x1="217.300000" y1="99.000000" x2="220.300000" y2="98.000000"  transform="rotate(0.000000,220.300000,98.000000)" style="stroke: black; stroke-width:0.25;"/>
<line x1="217.300000" y1="105.000000" x2="220.300000" y2="106.000000"  transform="rotate(0.000000,220.300000,106.000000)" style="stroke: black; stroke-width:0.25;"/>
<line x1="217.300000" y1="107.000000" x2="220.300000" y2="106.000000"  transform="rotate(0.000000,220.300000,106.000000)" style="stroke: black; stroke-width:0.25;"/>
<rect x="263.100000" y="87.000000" width="24.000000" height="24.000000" rx="0.1" ry="0.1" style="stroke:none;fill:#aaaaaa;;filter:url(#filter);"/>
<rect x="262.100000" y="86.000000" width="24.000000" height="24.000000" rx="0" ry="0" style="stroke:none;fill:#4B71A1;"/>
<text x="274.100000" y="100.000000" font-family="Arial" font-size="7" text-anchor="middle" fill="#FFFFFF">/</text>
<circle cx="264.100000" cy="88.000000" r="1"/>
<line x1="259.100000" y1="93.000000" x2="262.100000" y2="94.000000"  transform="rotate(0.000000,262.100000,94.000000)" style="stroke: black; stroke-width:0.25;"/>
<line x1="259.100000" y1="95.000000" x2="262.100000" y2="94.000000"  transform="rotate(0.000000,262.100000,94.000000)" style="stroke: black; stroke-width:0.25;"/>
<line x1="259.100000" y1="101.000000" x2="262.100000" y2="102.000000"  transform="rotate(0.000000,262.100000,102.000000)" style="stroke: black; stroke-width:0.25;"/>
<line x1="259.100000" y1="103.000000" x2="262.100000" y2="102.000000"  transform="rotate(0.000000,262.100000,102.000000)" style="stroke: black; stroke-width:0.25;"/>
<line x1="25.000000" y1="25.000000" x2="25.000000" y2="171.000000"  style="stroke: black; stroke-linecap:round; stroke-width:0.25; stroke-dasharray:3,3;"/>
<line x1="25.000000" y1="171.000000" x2="295.100000" y2="171.000000"  style="stroke: black; stroke-linecap:round; stroke-width:0.25; stroke-dasharray:3,3;"/>
<line x1="295.100000" y1="171.000000" x2="295.100000" y2="25.000000"  style="stroke: black; stroke-linecap:round; stroke-width:0.25; stroke-dasharray:3,3;"/>
<line x1="25.000000" y1="25.000000" x2="30.000000" y2="25.000000"  style="stroke: black; stroke-linecap:round; stroke-width:0.25; stroke-dasharray:3,3;"/>
<line x1="62.250000" y1="25.000000" x2="295.100000" y2="25.000000"  style="stroke: black; stroke-linecap:round; stroke-width:0.25; stroke-dasharray:3,3;"/>
<text x="30.000000" y="27.000000" font-family="Arial" font-size="7">BitDepth</text>
<rect x="340.450000" y="65.000000" width="24.000000" height="24.000000" rx="0.1" ry="0.1" style="stroke:none;fill:#aaaaaa;;filter:url(#filter);"/>
<rect x="339.450000" y="64.000000" width="24.000000" height="24.000000" rx="0" ry="0" style="stroke:none;fill:#f44800;"/>
<text x="351.450000" y="78.000000" font-family="Arial" font-size="7" text-anchor="middle" fill="#FFFFFF">2</text>
<circle cx="341.450000" cy="66.000000" r="1"/>
<rect x="333.100000" y="107.000000" width="38.700000" height="24.000000" rx="0.1" ry="0.1" style="stroke:none;fill:#aaaaaa;;filter:url(#filter);"/>
<rect x="332.100000" y="106.000000" width="38.700000" height="24.000000" rx="0" ry="0" style="stroke:none;fill:#f44800;"/>
<text x="351.450000" y="120.000000" font-family="Arial" font-size="7" text-anchor="middle" fill="#FFFFFF">3.14159</text>
<circle cx="334.100000" cy="108.000000" r="1"/>
<line x1="323.100000" y1="97.000000" x2="323.100000" y2="139.000000"  style="stroke: black; stroke-linecap:round; stroke-width:0.25; stroke-dasharray:3,3;"/>
<line x1="323.100000" y1="139.000000" x2="379.800000" y2="139.000000"  style="stroke: black; stroke-linecap:round; stroke-width:0.25; stroke-dasharray:3,3;"/>
<line x1="379.800000" y1="139.000000" x2="379.800000" y2="97.000000"  style="stroke: black; stroke-linecap:round; stroke-width:0.25; stroke-dasharray:3,3;"/>
<line x1="323.100000" y1="97.000000" x2="328.100000" y2="97.000000"  style="stroke: black; stroke-linecap:round; stroke-width:0.25; stroke-dasharray:3,3;"/>
<line x1="341.000000" y1="97.000000" x2="379.800000" y2="97.000000"  style="stroke: black; stroke-linecap:round; stroke-width:0.25; stroke-dasharray:3,3;"/>
<text x="328.100000" y="99.000000" font-family="Arial" font-size="7">PI</text>
<rect x="397.800000" y="91.000000" width="24.000000" height="24.000000" rx="0.1" ry="0.1" style="stroke:none;fill:#aaaaaa;;filter:url(#filter);"/>
<rect x="396.800000" y="90.000000" width="24.000000" height="24.000000" rx="0" ry="0" style="stroke:none;fill:#4B71A1;"/>
<text x="408.800000" y="104.000000" font-family="Arial" font-size="7" text-anchor="middle" fill="#FFFFFF">*</text>
<circle cx="398.800000" cy="92.000000" r="1"/>
<line x1="393.800000" y1="97.000000" x2="396.800000" y2="98.000000"  transform="rotate(0.000000,396.800000,98.000000)" style="stroke: black; stroke-width:0.25;"/>
<line x1="393.800000" y1="99.000000" x2="396.800000" y2="98.000000"  transform="rotate(0.000000,396.800000,98.000000)" style="stroke: black; stroke-width:0.25;"/>
<line x1="393.800000" y1="105.000000" x2="396.800000" y2="106.000000"  transform="rotate(0.000000,396.800000,106.000000)" style="stroke: black; stroke-width:0.25;"/>
<line x1="393.800000" y1="107.000000" x2="396.800000" y2="106.000000"  transform="rotate(0.000000,396.800000,106.000000)" style="stroke: black; stroke-width:0.25;"/>
<rect x="437.800000" y="87.000000" width="24.000000" height="24.000000" rx="0.1" ry="0.1" style="stroke:none;fill:#aaaaaa;;filter:url(#filter);"/>
<rect x="436.800000" y="86.000000" width="24.000000" height="24.000000" rx="0" ry="0" style="stroke:none;fill:#4B71A1;"/>
<text x="448.800000" y="100.000000" font-family="Arial" font-size="7" text-anchor="middle" fill="#FFFFFF">*</text>
<circle cx="438.800000" cy="88.000000" r="1"/>
<line x1="433.800000" y1="93.000000" x2="436.800000" y2="94.000000"  transform="rotate(0.000000,436.800000,94.000000)" style="stroke: black; stroke-width:0.25;"/>
<line x1="433.800000" y1="95.000000" x2="436.800000" y2="94.000000"  transform="rotate(0.000000,436.800000,94.000000)" style="stroke: black; stroke-width:0.25;"/>
<line x1="433.800000" y1="101.000000" x2="436.800000" y2="102.000000"  transform="rotate(0.000000,436.800000,102.000000)" style="stroke: black; stroke-width:0.25;"/>
<line x1="433.800000" y1="103.000000" x2="436.800000" y2="102.000000"  transform="rotate(0.000000,436.800000,102.000000)" style="stroke: black; stroke-width:0.25;"/>
<rect x="469.800000" y="87.000000" width="24.000000" height="24.000000" rx="0.1" ry="0.1" style="stroke:none;fill:#aaaaaa;;filter:url(#filter);"/>
<rect x="468.800000" y="86.000000" width="24.000000" height="24.000000" rx="0" ry="0" style="stroke:none;fill:#4B71A1;"/>
<text x="480.800000" y="100.000000" font-family="Arial" font-size="7" text-anchor="middle" fill="#FFFFFF">sin</text>
<circle cx="470.800000" cy="88.000000" r="1"/>
<line x1="465.800000" y1="97.000000" x2="468.800000" y2="98.000000"  transform="rotate(0.000000,468.800000,98.000000)" style="stroke: black; stroke-width:0.25;"/>
<line x1="465.800000" y1="99.000000" x2="468.800000" y2="98.000000"  transform="rotate(0.000000,468.800000,98.000000)" style="stroke: black; stroke-width:0.25;"/>
<line x1="313.100000" y1="47.000000" x2="313.100000" y2="149.000000"  style="stroke: black; stroke-linecap:round; stroke-width:0.25; stroke-dasharray:3,3;"/>
<line x1="313.100000" y1="149.000000" x2="501.800000" y2="149.000000"  style="stroke: black; stroke-linecap:round; stroke-width:0.25; stroke-dasharray:3,3;"/>
<line x1="501.800000" y1="149.000000" x2="501.800000" y2="47.000000"  style="stroke: black; stroke-linecap:round; stroke-width:0.25; stroke-dasharray:3,3;"/>
<line x1="313.100000" y1="47.000000" x2="318.100000" y2="47.000000"  style="stroke: black; stroke-linecap:round; stroke-width:0.25; stroke-dasharray:3,3;"/>
<line x1="337.450000" y1="47.000000" x2="501.800000" y2="47.000000"  style="stroke: black; stroke-linecap:round; stroke-width:0.25; stroke-dasharray:3,3;"/>
<text x="318.100000" y="49.000000" font-family="Arial" font-size="7">sine</text>
<line x1="15.000000" y1="15.000000" x2="15.000000" y2="181.000000"  style="stroke: black; stroke-linecap:round; stroke-width:0.25; stroke-dasharray:3,3;"/>
<line x1="15.000000" y1="181.000000" x2="511.800000" y2="181.000000"  style="stroke: black; stroke-linecap:round; stroke-width:0.25; stroke-dasharray:3,3;"/>
<line x1="511.800000" y1="181.000000" x2="511.800000" y2="15.000000"  style="stroke: black; stroke-linecap:round; stroke-width:0.25; stroke-dasharray:3,3;"/>
<line x1="15.000000" y1="15.000000" x2="20.000000" y2="15.000000"  style="stroke: black; stroke-linecap:round; stroke-width:0.25; stroke-dasharray:3,3;"/>
<line x1="49.025000" y1="15.000000" x2="511.800000" y2="15.000000"  style="stroke: black; stroke-linecap:round; stroke-width:0.25; stroke-dasharray:3,3;"/>
<text x="20.000000" y="17.000000" font-family="Arial" font-size="7">process</text>
<line x1="513.800000" y1="97.000000" x2="516.800000" y2="98.000000"  transform="rotate(0.000000,516.800000,98.000000)" style="stroke: black; stroke-width:0.25;"/>
<line x1="513.800000" y1="99.000000" x2="516.800000" y2="98.000000"  transform="rotate(0.000000,516.800000,98.000000)" style="stroke: black; stroke-width:0.25;"/>
<line x1="10.000000" y1="34.000000" x2="20.000000" y2="34.000000"  style="stroke:black; stroke-linecap:round; stroke-width:0.25;"/>
<line x1="20.000000" y1="34.000000" x2="30.000000" y2="34.000000"  style="stroke:black; stroke-linecap:round; stroke-width:0.25;"/>
<line x1="30.000000" y1="34.000000" x2="140.050000" y2="34.000000"  style="stroke:black; stroke-linecap:round; stroke-width:0.25;"/>
<line x1="91.150000" y1="86.000000" x2="95.150000" y2="86.000000"  style="stroke:black; stroke-linecap:round; stroke-width:0.25;"/>
<line x1="95.150000" y1="86.000000" x2="128.300000" y2="86.000000"  style="stroke:black; stroke-linecap:round; stroke-width:0.25;"/>
<line x1="111.150000" y1="150.000000" x2="115.150000" y2="150.000000"  style="stroke:black; stroke-linecap:round; stroke-width:0.25;"/>
<line x1="115.150000" y1="150.000000" x2="168.300000" y2="150.000000"  style="stroke:black; stroke-linecap:round; stroke-width:0.25;"/>
<line x1="124.300000" y1="118.000000" x2="128.300000" y2="118.000000"  style="stroke:black; stroke-linecap:round; stroke-width:0.25;"/>
<line x1="128.300000" y1="86.000000" x2="136.300000" y2="86.000000"  style="stroke:black; stroke-linecap:round; stroke-width:0.25;"/>
<line x1="128.300000" y1="106.000000" x2="136.300000" y2="106.000000"  style="stroke:black; stroke-linecap:round; stroke-width:0.25;"/>
<line x1="128.300000" y1="118.000000" x2="128.300000" y2="106.000000"  style="stroke:black; stroke-linecap:round; stroke-width:0.25;"/>
<line x1="128.300000" y1="118.000000" x2="128.300000" y2="118.000000"  style="stroke:black; stroke-linecap:round; stroke-width:0.25;"/>
<line x1="131.150000" y1="54.000000" x2="135.150000" y2="54.000000"  style="stroke:black; stroke-linecap:round; stroke-width:0.25;"/>
<line x1="135.150000" y1="54.000000" x2="208.300000" y2="54.000000"  style="stroke:black; stroke-linecap:round; stroke-width:0.25;"/>
<line x1="136.300000" y1="86.000000" x2="136.300000" y2="98.000000"  style="stroke:black; stroke-linecap:round; stroke-width:0.25;"/>
<line x1="136.300000" y1="98.000000" x2="136.300000" y2="98.000000"  style="stroke:black; stroke-linecap:round; stroke-width:0.25;"/>
<line x1="136.300000" y1="98.000000" x2="140.300000" y2="98.000000"  style="stroke:black; stroke-linecap:round; stroke-width:0.25;"/>
<line x1="136.300000" y1="106.000000" x2="140.300000" y2="106.000000"  style="stroke:black; stroke-linecap:round; stroke-width:0.25;"/>
<line x1="140.050000" y1="34.000000" x2="250.100000" y2="34.000000"  style="stroke:black; stroke-linecap:round; stroke-width:0.25;"/>
<line x1="164.300000" y1="102.000000" x2="168.300000" y2="102.000000"  style="stroke:black; stroke-linecap:round; stroke-width:0.25;"/>
<line x1="168.300000" y1="102.000000" x2="176.300000" y2="102.000000"  style="stroke:black; stroke-linecap:round; stroke-width:0.25;"/>
<line x1="168.300000" y1="122.000000" x2="176.300000" y2="122.000000"  style="stroke:black; stroke-linecap:round; stroke-width:0.25;"/>
<line x1="168.300000" y1="150.000000" x2="168.300000" y2="122.000000"  style="stroke:black; stroke-linecap:round; stroke-width:0.25;"/>
<line x1="168.300000" y1="150.000000" x2="168.300000" y2="150.000000"  style="stroke:black; stroke-linecap:round; stroke-width:0.25;"/>
<line x1="176.300000" y1="102.000000" x2="176.300000" y2="114.000000"  style="stroke:black; stroke-linecap:round; stroke-width:0.25;"/>
<line x1="176.300000" y1="114.000000" x2="176.300000" y2="114.000000"  style="stroke:black; stroke-linecap:round; stroke-width:0.25;"/>
<line x1="176.300000" y1="114.000000" x2="180.300000" y2="114.000000"  style="stroke:black; stroke-linecap:round; stroke-width:0.25;"/>
<line x1="176.300000" y1="122.000000" x2="180.300000" y2="122.000000"  style="stroke:black; stroke-linecap:round; stroke-width:0.25;"/>
<line x1="204.300000" y1="118.000000" x2="208.300000" y2="118.000000"  style="stroke:black; stroke-linecap:round; stroke-width:0.25;"/>
<line x1="208.300000" y1="54.000000" x2="216.300000" y2="54.000000"  style="stroke:black; stroke-linecap:round; stroke-width:0.25;"/>
<line x1="208.300000" y1="106.000000" x2="216.300000" y2="106.000000"  style="stroke:black; stroke-linecap:round; stroke-width:0.25;"/>
<line x1="208.300000" y1="118.000000" x2="208.300000" y2="106.000000"  style="stroke:black; stroke-linecap:round; stroke-width:0.25;"/>
<line x1="208.300000" y1="118.000000" x2="208.300000" y2="118.000000"  style="stroke:black; stroke-linecap:round; stroke-width:0.25;"/>
<line x1="216.300000" y1="54.000000" x2="216.300000" y2="98.000000"  style="stroke:black; stroke-linecap:round; stroke-width:0.25;"/>
<line x1="216.300000" y1="98.000000" x2="216.300000" y2="98.000000"  style="stroke:black; stroke-linecap:round; stroke-width:0.25;"/>
<line x1="216.300000" y1="98.000000" x2="220.300000" y2="98.000000"  style="stroke:black; stroke-linecap:round; stroke-width:0.25;"/>
<line x1="216.300000" y1="106.000000" x2="220.300000" y2="106.000000"  style="stroke:black; stroke-linecap:round; stroke-width:0.25;"/>
<line x1="246.100000" y1="102.000000" x2="250.100000" y2="102.000000"  style="stroke:black; stroke-linecap:round; stroke-width:0.25;"/>
<line x1="250.100000" y1="34.000000" x2="258.100000" y2="34.000000"  style="stroke:black; stroke-linecap:round; stroke-width:0.25;"/>
<line x1="250.100000" y1="102.000000" x2="258.100000" y2="102.000000"  style="stroke:black; stroke-linecap:round; stroke-width:0.25;"/>
<line x1="258.100000" y1="34.000000" x2="258.100000" y2="94.000000"  style="stroke:black; stroke-linecap:round; stroke-width:0.25;"/>
<line x1="258.100000" y1="94.000000" x2="258.100000" y2="94.000000"  style="stroke:black; stroke-linecap:round; stroke-width:0.25;"/>
<line x1="258.100000" y1="94.000000" x2="262.100000" y2="94.000000"  style="stroke:black; stroke-linecap:round; stroke-width:0.25;"/>
<line x1="258.100000" y1="102.000000" x2="262.100000" y2="102.000000"  style="stroke:black; stroke-linecap:round; stroke-width:0.25;"/>
<line x1="286.100000" y1="98.000000" x2="290.100000" y2="98.000000"  style="stroke:black; stroke-linecap:round; stroke-width:0.25;"/>
<line x1="290.100000" y1="98.000000" x2="290.100000" y2="98.000000"  style="stroke:black; stroke-linecap:round; stroke-width:0.25;"/>
<line x1="290.100000" y1="98.000000" x2="300.100000" y2="98.000000"  style="stroke:black; stroke-linecap:round; stroke-width:0.25;"/>
<line x1="300.100000" y1="56.000000" x2="308.100000" y2="56.000000"  style="stroke:black; stroke-linecap:round; stroke-width:0.25;"/>
<line x1="300.100000" y1="98.000000" x2="300.100000" y2="56.000000"  style="stroke:black; stroke-linecap:round; stroke-width:0.25;"/>
<line x1="300.100000" y1="98.000000" x2="300.100000" y2="98.000000"  style="stroke:black; stroke-linecap:round; stroke-width:0.25;"/>
<line x1="308.100000" y1="56.000000" x2="318.100000" y2="56.000000"  style="stroke:black; stroke-linecap:round; stroke-width:0.25;"/>
<line x1="318.100000" y1="56.000000" x2="371.450000" y2="56.000000"  style="stroke:black; stroke-linecap:round; stroke-width:0.25;"/>
<line x1="363.450000" y1="76.000000" x2="367.450000" y2="76.000000"  style="stroke:black; stroke-linecap:round; stroke-width:0.25;"/>
<line x1="367.450000" y1="76.000000" x2="384.800000" y2="76.000000"  style="stroke:black; stroke-linecap:round; stroke-width:0.25;"/>
<line x1="370.800000" y1="118.000000" x2="374.800000" y2="118.000000"  style="stroke:black; stroke-linecap:round; stroke-width:0.25;"/>
<line x1="371.450000" y1="56.000000" x2="424.800000" y2="56.000000"  style="stroke:black; stroke-linecap:round; stroke-width:0.25;"/>
<line x1="374.800000" y1="118.000000" x2="384.800000" y2="118.000000"  style="stroke:black; stroke-linecap:round; stroke-width:0.25;"/>
<line x1="384.800000" y1="106.000000" x2="392.800000" y2="106.000000"  style="stroke:black; stroke-linecap:round; stroke-width:0.25;"/>
<line x1="384.800000" y1="118.000000" x2="384.800000" y2="106.000000"  style="stroke:black; stroke-linecap:round; stroke-width:0.25;"/>
<line x1="384.800000" y1="118.000000" x2="384.800000" y2="118.000000"  style="stroke:black; stroke-linecap:round; stroke-width:0.25;"/>
<line x1="384.800000" y1="76.000000" x2="392.800000" y2="76.000000"  style="stroke:black; stroke-linecap:round; stroke-width:0.25;"/>
<line x1="392.800000" y1="98.000000" x2="396.800000" y2="98.000000"  style="stroke:black; stroke-linecap:round; stroke-width:0.25;"/>
<line x1="392.800000" y1="106.000000" x2="396.800000" y2="106.000000"  style="stroke:black; stroke-linecap:round; stroke-width:0.25;"/>
<line x1="392.800000" y1="76.000000" x2="392.800000" y2="98.000000"  style="stroke:black; stroke-linecap:round; stroke-width:0.25;"/>
<line x1="392.800000" y1="98.000000" x2="392.800000" y2="98.000000"  style="stroke:black; stroke-linecap:round; stroke-width:0.25;"/>
<line x1="420.800000" y1="102.000000" x2="424.800000" y2="102.000000"  style="stroke:black; stroke-linecap:round; stroke-width:0.25;"/>
<line x1="424.800000" y1="102.000000" x2="432.800000" y2="102.000000"  style="stroke:black; stroke-linecap:round; stroke-width:0.25;"/>
<line x1="424.800000" y1="56.000000" x2="432.800000" y2="56.000000"  style="stroke:black; stroke-linecap:round; stroke-width:0.25;"/>
<line x1="432.800000" y1="94.000000" x2="436.800000" y2="94.000000"  style="stroke:black; stroke-linecap:round; stroke-width:0.25;"/>
<line x1="432.800000" y1="102.000000" x2="436.800000" y2="102.000000"  style="stroke:black; stroke-linecap:round; stroke-width:0.25;"/>
<line x1="432.800000" y1="56.000000" x2="432.800000" y2="94.000000"  style="stroke:black; stroke-linecap:round; stroke-width:0.25;"/>
<line x1="432.800000" y1="94.000000" x2="432.800000" y2="94.000000"  style="stroke:black; stroke-linecap:round; stroke-width:0.25;"/>
<line x1="460.800000" y1="98.000000" x2="464.800000" y2="98.000000"  style="stroke:black; stroke-linecap:round; stroke-width:0.25;"/>
<line x1="464.800000" y1="98.000000" x2="464.800000" y2="98.000000"  style="stroke:black; stroke-linecap:round; stroke-width:0.25;"/>
<line x1="464.800000" y1="98.000000" x2="468.800000" y2="98.000000"  style="stroke:black; stroke-linecap:round; stroke-width:0.25;"/>
<line x1="492.800000" y1="98.000000" x2="496.800000" y2="98.000000"  style="stroke:black; stroke-linecap:round; stroke-width:0.25;"/>
<line x1="496.800000" y1="98.000000" x2="496.800000" y2="98.000000"  style="stroke:black; stroke-linecap:round; stroke-width:0.25;"/>
<line x1="496.800000" y1="98.000000" x2="506.800000" y2="98.000000"  style="stroke:black; stroke-linecap:round; stroke-width:0.25;"/>
<line x1="506.800000" y1="98.000000" x2="516.800000" y2="98.000000"  style="stroke:black; stroke-linecap:round; stroke-width:0.25;"/>
</svg>
