<?xml version="1.0"?>
<svg xmlns="http://www.w3.org/2000/svg" xmlns:xlink="http://www.w3.org/1999/xlink" viewBox="0 0 276.700000 144.000000" width="138.350000mm" height="72.000000mm" version="1.1">
<defs>
   <filter id="filter" filterRes="18" x="0" y="0">
     <feGaussianBlur in="SourceGraphic" stdDeviation="1.55" result="blur"/>
     <feOffset in="blur" dx="3" dy="3"/>
   </filter>
</defs>
<a xlink:href="Early-0x2eceab0.svg">
<rect x="1.000000" y="1.000000" width="275.700000" height="143.000000" rx="0.1" ry="0.1" style="stroke:none;fill:#aaaaaa;;filter:url(#filter);"/>
<rect x="0.000000" y="0.000000" width="275.700000" height="143.000000" rx="0" ry="0" style="stroke:none;fill:#ffffff;"/>
</a>
<text x="10.000000" y="7.000000" font-family="Arial" font-size="7"></text>
<rect x="63.000000" y="45.000000" width="24.000000" height="24.000000" rx="0.1" ry="0.1" style="stroke:none;fill:#aaaaaa;;filter:url(#filter);"/>
<rect x="62.000000" y="44.000000" width="24.000000" height="24.000000" rx="0" ry="0" style="stroke:none;fill:#4B71A1;"/>
<text x="74.000000" y="58.000000" font-family="Arial" font-size="7" text-anchor="middle" fill="#FFFFFF">-</text>
<circle cx="64.000000" cy="46.000000" r="1"/>
<line x1="59.000000" y1="51.000000" x2="62.000000" y2="52.000000"  transform="rotate(0.000000,62.000000,52.000000)" style="stroke: black; stroke-width:0.25;"/>
<line x1="59.000000" y1="53.000000" x2="62.000000" y2="52.000000"  transform="rotate(0.000000,62.000000,52.000000)" style="stroke: black; stroke-width:0.25;"/>
<line x1="59.000000" y1="59.000000" x2="62.000000" y2="60.000000"  transform="rotate(0.000000,62.000000,60.000000)" style="stroke: black; stroke-width:0.25;"/>
<line x1="59.000000" y1="61.000000" x2="62.000000" y2="60.000000"  transform="rotate(0.000000,62.000000,60.000000)" style="stroke: black; stroke-width:0.25;"/>
<a xlink:href="DelTime-0x2eafed0.svg">
<rect x="103.000000" y="33.000000" width="38.700000" height="24.000000" rx="0.1" ry="0.1" style="stroke:none;fill:#aaaaaa;;filter:url(#filter);"/>
<rect x="102.000000" y="32.000000" width="38.700000" height="24.000000" rx="0" ry="0" style="stroke:none;fill:#003366;"/>
</a>
<a xlink:href="DelTime-0x2eafed0.svg">
<text x="121.350000" y="46.000000" font-family="Arial" font-size="7" text-anchor="middle" fill="#FFFFFF">DelTime</text>
</a>
<circle cx="104.000000" cy="34.000000" r="1"/>
<rect x="110.350000" y="65.000000" width="24.000000" height="24.000000" rx="0.1" ry="0.1" style="stroke:none;fill:#aaaaaa;;filter:url(#filter);"/>
<rect x="109.350000" y="64.000000" width="24.000000" height="24.000000" rx="0" ry="0" style="stroke:none;fill:#f44800;"/>
<text x="121.350000" y="78.000000" font-family="Arial" font-size="7" text-anchor="middle" fill="#FFFFFF">23</text>
<circle cx="111.350000" cy="66.000000" r="1"/>
<rect x="157.700000" y="49.000000" width="24.000000" height="24.000000" rx="0.1" ry="0.1" style="stroke:none;fill:#aaaaaa;;filter:url(#filter);"/>
<rect x="156.700000" y="48.000000" width="24.000000" height="24.000000" rx="0" ry="0" style="stroke:none;fill:#4B71A1;"/>
<text x="168.700000" y="62.000000" font-family="Arial" font-size="7" text-anchor="middle" fill="#FFFFFF">*</text>
<circle cx="158.700000" cy="50.000000" r="1"/>
<line x1="153.700000" y1="55.000000" x2="156.700000" y2="56.000000"  transform="rotate(0.000000,156.700000,56.000000)" style="stroke: black; stroke-width:0.25;"/>
<line x1="153.700000" y1="57.000000" x2="156.700000" y2="56.000000"  transform="rotate(0.000000,156.700000,56.000000)" style="stroke: black; stroke-width:0.25;"/>
<line x1="153.700000" y1="63.000000" x2="156.700000" y2="64.000000"  transform="rotate(0.000000,156.700000,64.000000)" style="stroke: black; stroke-width:0.25;"/>
<line x1="153.700000" y1="65.000000" x2="156.700000" y2="64.000000"  transform="rotate(0.000000,156.700000,64.000000)" style="stroke: black; stroke-width:0.25;"/>
<rect x="189.700000" y="49.000000" width="24.000000" height="24.000000" rx="0.1" ry="0.1" style="stroke:none;fill:#aaaaaa;;filter:url(#filter);"/>
<rect x="188.700000" y="48.000000" width="24.000000" height="24.000000" rx="0" ry="0" style="stroke:none;fill:#4B71A1;"/>
<text x="200.700000" y="62.000000" font-family="Arial" font-size="7" text-anchor="middle" fill="#FFFFFF">int</text>
<circle cx="190.700000" cy="50.000000" r="1"/>
<line x1="185.700000" y1="59.000000" x2="188.700000" y2="60.000000"  transform="rotate(0.000000,188.700000,60.000000)" style="stroke: black; stroke-width:0.25;"/>
<line x1="185.700000" y1="61.000000" x2="188.700000" y2="60.000000"  transform="rotate(0.000000,188.700000,60.000000)" style="stroke: black; stroke-width:0.25;"/>
<rect x="229.700000" y="45.000000" width="24.000000" height="24.000000" rx="0.1" ry="0.1" style="stroke:none;fill:#aaaaaa;;filter:url(#filter);"/>
<rect x="228.700000" y="44.000000" width="24.000000" height="24.000000" rx="0" ry="0" style="stroke:none;fill:#4B71A1;"/>
<text x="240.700000" y="58.000000" font-family="Arial" font-size="7" text-anchor="middle" fill="#FFFFFF">@</text>
<circle cx="230.700000" cy="46.000000" r="1"/>
<line x1="225.700000" y1="51.000000" x2="228.700000" y2="52.000000"  transform="rotate(0.000000,228.700000,52.000000)" style="stroke: black; stroke-width:0.25;"/>
<line x1="225.700000" y1="53.000000" x2="228.700000" y2="52.000000"  transform="rotate(0.000000,228.700000,52.000000)" style="stroke: black; stroke-width:0.25;"/>
<line x1="225.700000" y1="59.000000" x2="228.700000" y2="60.000000"  transform="rotate(0.000000,228.700000,60.000000)" style="stroke: black; stroke-width:0.25;"/>
<line x1="225.700000" y1="61.000000" x2="228.700000" y2="60.000000"  transform="rotate(0.000000,228.700000,60.000000)" style="stroke: black; stroke-width:0.25;"/>
<rect x="146.350000" y="97.000000" width="24.000000" height="24.000000" rx="0.1" ry="0.1" style="stroke:none;fill:#aaaaaa;;filter:url(#filter);"/>
<rect x="145.350000" y="96.000000" width="24.000000" height="24.000000" rx="0" ry="0" style="stroke:none;fill:#4B71A1;"/>
<text x="157.350000" y="110.000000" font-family="Arial" font-size="7" text-anchor="middle" fill="#FFFFFF">+</text>
<circle cx="147.350000" cy="98.000000" r="1"/>
<line x1="142.350000" y1="103.000000" x2="145.350000" y2="104.000000"  transform="rotate(0.000000,145.350000,104.000000)" style="stroke: black; stroke-width:0.25;"/>
<line x1="142.350000" y1="105.000000" x2="145.350000" y2="104.000000"  transform="rotate(0.000000,145.350000,104.000000)" style="stroke: black; stroke-width:0.25;"/>
<line x1="142.350000" y1="111.000000" x2="145.350000" y2="112.000000"  transform="rotate(0.000000,145.350000,112.000000)" style="stroke: black; stroke-width:0.25;"/>
<line x1="142.350000" y1="113.000000" x2="145.350000" y2="112.000000"  transform="rotate(0.000000,145.350000,112.000000)" style="stroke: black; stroke-width:0.25;"/>
<line x1="15.000000" y1="15.000000" x2="15.000000" y2="129.000000"  style="stroke: black; stroke-linecap:round; stroke-width:0.25; stroke-dasharray:3,3;"/>
<line x1="15.000000" y1="129.000000" x2="261.700000" y2="129.000000"  style="stroke: black; stroke-linecap:round; stroke-width:0.25; stroke-dasharray:3,3;"/>
<line x1="261.700000" y1="129.000000" x2="261.700000" y2="15.000000"  style="stroke: black; stroke-linecap:round; stroke-width:0.25; stroke-dasharray:3,3;"/>
<line x1="15.000000" y1="15.000000" x2="20.000000" y2="15.000000"  style="stroke: black; stroke-linecap:round; stroke-width:0.25; stroke-dasharray:3,3;"/>
<line x1="49.025000" y1="15.000000" x2="261.700000" y2="15.000000"  style="stroke: black; stroke-linecap:round; stroke-width:0.25; stroke-dasharray:3,3;"/>
<text x="20.000000" y="17.000000" font-family="Arial" font-size="7">Del(23)</text>
<line x1="263.700000" y1="55.000000" x2="266.700000" y2="56.000000"  transform="rotate(0.000000,266.700000,56.000000)" style="stroke: black; stroke-width:0.25;"/>
<line x1="263.700000" y1="57.000000" x2="266.700000" y2="56.000000"  transform="rotate(0.000000,266.700000,56.000000)" style="stroke: black; stroke-width:0.25;"/>
<line x1="263.700000" y1="107.000000" x2="266.700000" y2="108.000000"  transform="rotate(0.000000,266.700000,108.000000)" style="stroke: black; stroke-width:0.25;"/>
<line x1="263.700000" y1="109.000000" x2="266.700000" y2="108.000000"  transform="rotate(0.000000,266.700000,108.000000)" style="stroke: black; stroke-width:0.25;"/>
<line x1="10.000000" y1="68.000000" x2="20.000000" y2="68.000000"  style="stroke:black; stroke-linecap:round; stroke-width:0.25;"/>
<line x1="10.000000" y1="76.000000" x2="20.000000" y2="76.000000"  style="stroke:black; stroke-linecap:round; stroke-width:0.25;"/>
<line x1="20.000000" y1="68.000000" x2="24.000000" y2="68.000000"  style="stroke:black; stroke-linecap:round; stroke-width:0.25;"/>
<line x1="20.000000" y1="76.000000" x2="24.000000" y2="76.000000"  style="stroke:black; stroke-linecap:round; stroke-width:0.25;"/>
<line x1="24.000000" y1="68.000000" x2="28.000000" y2="68.000000"  style="stroke:black; stroke-linecap:round; stroke-width:0.25;"/>
<line x1="24.000000" y1="76.000000" x2="28.000000" y2="76.000000"  style="stroke:black; stroke-linecap:round; stroke-width:0.25;"/>
<line x1="28.000000" y1="68.000000" x2="58.000000" y2="52.000000"  style="stroke:black; stroke-linecap:round; stroke-width:0.25;"/>
<line x1="28.000000" y1="68.000000" x2="58.000000" y2="104.000000"  style="stroke:black; stroke-linecap:round; stroke-width:0.25;"/>
<line x1="28.000000" y1="76.000000" x2="58.000000" y2="60.000000"  style="stroke:black; stroke-linecap:round; stroke-width:0.25;"/>
<line x1="28.000000" y1="76.000000" x2="58.000000" y2="112.000000"  style="stroke:black; stroke-linecap:round; stroke-width:0.25;"/>
<line x1="58.000000" y1="52.000000" x2="58.000000" y2="52.000000"  style="stroke:black; stroke-linecap:round; stroke-width:0.25;"/>
<line x1="58.000000" y1="52.000000" x2="62.000000" y2="52.000000"  style="stroke:black; stroke-linecap:round; stroke-width:0.25;"/>
<line x1="58.000000" y1="60.000000" x2="58.000000" y2="60.000000"  style="stroke:black; stroke-linecap:round; stroke-width:0.25;"/>
<line x1="58.000000" y1="60.000000" x2="62.000000" y2="60.000000"  style="stroke:black; stroke-linecap:round; stroke-width:0.25;"/>
<line x1="58.000000" y1="104.000000" x2="141.350000" y2="104.000000"  style="stroke:black; stroke-linecap:round; stroke-width:0.25;"/>
<line x1="58.000000" y1="112.000000" x2="141.350000" y2="112.000000"  style="stroke:black; stroke-linecap:round; stroke-width:0.25;"/>
<line x1="86.000000" y1="56.000000" x2="90.000000" y2="56.000000"  style="stroke:black; stroke-linecap:round; stroke-width:0.25;"/>
<line x1="90.000000" y1="24.000000" x2="98.000000" y2="24.000000"  style="stroke:black; stroke-linecap:round; stroke-width:0.25;"/>
<line x1="90.000000" y1="56.000000" x2="90.000000" y2="24.000000"  style="stroke:black; stroke-linecap:round; stroke-width:0.25;"/>
<line x1="90.000000" y1="56.000000" x2="90.000000" y2="56.000000"  style="stroke:black; stroke-linecap:round; stroke-width:0.25;"/>
<line x1="98.000000" y1="24.000000" x2="157.350000" y2="24.000000"  style="stroke:black; stroke-linecap:round; stroke-width:0.25;"/>
<line x1="133.350000" y1="76.000000" x2="137.350000" y2="76.000000"  style="stroke:black; stroke-linecap:round; stroke-width:0.25;"/>
<line x1="137.350000" y1="76.000000" x2="144.700000" y2="76.000000"  style="stroke:black; stroke-linecap:round; stroke-width:0.25;"/>
<line x1="140.700000" y1="44.000000" x2="144.700000" y2="44.000000"  style="stroke:black; stroke-linecap:round; stroke-width:0.25;"/>
<line x1="141.350000" y1="104.000000" x2="141.350000" y2="104.000000"  style="stroke:black; stroke-linecap:round; stroke-width:0.25;"/>
<line x1="141.350000" y1="104.000000" x2="145.350000" y2="104.000000"  style="stroke:black; stroke-linecap:round; stroke-width:0.25;"/>
<line x1="141.350000" y1="112.000000" x2="141.350000" y2="112.000000"  style="stroke:black; stroke-linecap:round; stroke-width:0.25;"/>
<line x1="141.350000" y1="112.000000" x2="145.350000" y2="112.000000"  style="stroke:black; stroke-linecap:round; stroke-width:0.25;"/>
<line x1="144.700000" y1="44.000000" x2="152.700000" y2="44.000000"  style="stroke:black; stroke-linecap:round; stroke-width:0.25;"/>
<line x1="144.700000" y1="64.000000" x2="152.700000" y2="64.000000"  style="stroke:black; stroke-linecap:round; stroke-width:0.25;"/>
<line x1="144.700000" y1="76.000000" x2="144.700000" y2="64.000000"  style="stroke:black; stroke-linecap:round; stroke-width:0.25;"/>
<line x1="144.700000" y1="76.000000" x2="144.700000" y2="76.000000"  style="stroke:black; stroke-linecap:round; stroke-width:0.25;"/>
<line x1="152.700000" y1="44.000000" x2="152.700000" y2="56.000000"  style="stroke:black; stroke-linecap:round; stroke-width:0.25;"/>
<line x1="152.700000" y1="56.000000" x2="152.700000" y2="56.000000"  style="stroke:black; stroke-linecap:round; stroke-width:0.25;"/>
<line x1="152.700000" y1="56.000000" x2="156.700000" y2="56.000000"  style="stroke:black; stroke-linecap:round; stroke-width:0.25;"/>
<line x1="152.700000" y1="64.000000" x2="156.700000" y2="64.000000"  style="stroke:black; stroke-linecap:round; stroke-width:0.25;"/>
<line x1="157.350000" y1="24.000000" x2="216.700000" y2="24.000000"  style="stroke:black; stroke-linecap:round; stroke-width:0.25;"/>
<line x1="169.350000" y1="108.000000" x2="173.350000" y2="108.000000"  style="stroke:black; stroke-linecap:round; stroke-width:0.25;"/>
<line x1="173.350000" y1="108.000000" x2="256.700000" y2="108.000000"  style="stroke:black; stroke-linecap:round; stroke-width:0.25;"/>
<line x1="180.700000" y1="60.000000" x2="184.700000" y2="60.000000"  style="stroke:black; stroke-linecap:round; stroke-width:0.25;"/>
<line x1="184.700000" y1="60.000000" x2="184.700000" y2="60.000000"  style="stroke:black; stroke-linecap:round; stroke-width:0.25;"/>
<line x1="184.700000" y1="60.000000" x2="188.700000" y2="60.000000"  style="stroke:black; stroke-linecap:round; stroke-width:0.25;"/>
<line x1="212.700000" y1="60.000000" x2="216.700000" y2="60.000000"  style="stroke:black; stroke-linecap:round; stroke-width:0.25;"/>
<line x1="216.700000" y1="24.000000" x2="224.700000" y2="24.000000"  style="stroke:black; stroke-linecap:round; stroke-width:0.25;"/>
<line x1="216.700000" y1="60.000000" x2="224.700000" y2="60.000000"  style="stroke:black; stroke-linecap:round; stroke-width:0.25;"/>
<line x1="224.700000" y1="24.000000" x2="224.700000" y2="52.000000"  style="stroke:black; stroke-linecap:round; stroke-width:0.25;"/>
<line x1="224.700000" y1="52.000000" x2="224.700000" y2="52.000000"  style="stroke:black; stroke-linecap:round; stroke-width:0.25;"/>
<line x1="224.700000" y1="52.000000" x2="228.700000" y2="52.000000"  style="stroke:black; stroke-linecap:round; stroke-width:0.25;"/>
<line x1="224.700000" y1="60.000000" x2="228.700000" y2="60.000000"  style="stroke:black; stroke-linecap:round; stroke-width:0.25;"/>
<line x1="252.700000" y1="56.000000" x2="256.700000" y2="56.000000"  style="stroke:black; stroke-linecap:round; stroke-width:0.25;"/>
<line x1="256.700000" y1="56.000000" x2="266.700000" y2="56.000000"  style="stroke:black; stroke-linecap:round; stroke-width:0.25;"/>
<line x1="256.700000" y1="108.000000" x2="266.700000" y2="108.000000"  style="stroke:black; stroke-linecap:round; stroke-width:0.25;"/>
</svg>
