<?xml version="1.0"?>
<svg xmlns="http://www.w3.org/2000/svg" xmlns:xlink="http://www.w3.org/1999/xlink" viewBox="0 0 1032.900000 316.000000" width="516.450000mm" height="158.000000mm" version="1.1">
<defs>
   <filter id="filter" filterRes="18" x="0" y="0">
     <feGaussianBlur in="SourceGraphic" stdDeviation="1.55" result="blur"/>
     <feOffset in="blur" dx="3" dy="3"/>
   </filter>
</defs>
<a xlink:href="trigger-0x34c7ae0.svg">
<rect x="1.000000" y="1.000000" width="1031.900000" height="315.000000" rx="0.1" ry="0.1" style="stroke:none;fill:#aaaaaa;;filter:url(#filter);"/>
<rect x="0.000000" y="0.000000" width="1031.900000" height="315.000000" rx="0" ry="0" style="stroke:none;fill:#ffffff;"/>
</a>
<text x="10.000000" y="7.000000" font-family="Arial" font-size="7"></text>
<rect x="124.850000" y="105.000000" width="24.000000" height="24.000000" rx="0.1" ry="0.1" style="stroke:none;fill:#aaaaaa;;filter:url(#filter);"/>
<rect x="123.850000" y="104.000000" width="24.000000" height="24.000000" rx="0" ry="0" style="stroke:none;fill:#f44800;"/>
<text x="135.850000" y="118.000000" font-family="Arial" font-size="7" text-anchor="middle" fill="#FFFFFF">7</text>
<circle cx="125.850000" cy="106.000000" r="1"/>
<rect x="164.850000" y="101.000000" width="24.000000" height="24.000000" rx="0.1" ry="0.1" style="stroke:none;fill:#aaaaaa;;filter:url(#filter);"/>
<rect x="163.850000" y="100.000000" width="24.000000" height="24.000000" rx="0" ry="0" style="stroke:none;fill:#4B71A1;"/>
<text x="175.850000" y="114.000000" font-family="Arial" font-size="7" text-anchor="middle" fill="#FFFFFF">*</text>
<circle cx="165.850000" cy="102.000000" r="1"/>
<line x1="160.850000" y1="107.000000" x2="163.850000" y2="108.000000"  transform="rotate(0.000000,163.850000,108.000000)" style="stroke: black; stroke-width:0.25;"/>
<line x1="160.850000" y1="109.000000" x2="163.850000" y2="108.000000"  transform="rotate(0.000000,163.850000,108.000000)" style="stroke: black; stroke-width:0.25;"/>
<line x1="160.850000" y1="115.000000" x2="163.850000" y2="116.000000"  transform="rotate(0.000000,163.850000,116.000000)" style="stroke: black; stroke-width:0.25;"/>
<line x1="160.850000" y1="117.000000" x2="163.850000" y2="116.000000"  transform="rotate(0.000000,163.850000,116.000000)" style="stroke: black; stroke-width:0.25;"/>
<a xlink:href="SR-0x34b7de0.svg">
<rect x="184.850000" y="57.000000" width="24.000000" height="24.000000" rx="0.1" ry="0.1" style="stroke:none;fill:#aaaaaa;;filter:url(#filter);"/>
<rect x="183.850000" y="56.000000" width="24.000000" height="24.000000" rx="0" ry="0" style="stroke:none;fill:#003366;"/>
</a>
<a xlink:href="SR-0x34b7de0.svg">
<text x="195.850000" y="70.000000" font-family="Arial" font-size="7" text-anchor="middle" fill="#FFFFFF">SR</text>
</a>
<circle cx="205.850000" cy="78.000000" r="1"/>
<rect x="113.000000" y="25.000000" width="167.700000" height="24.000000" rx="0.1" ry="0.1" style="stroke:none;fill:#aaaaaa;;filter:url(#filter);"/>
<rect x="112.000000" y="24.000000" width="167.700000" height="24.000000" rx="0" ry="0" style="stroke:none;fill:#477881;"/>
<text x="195.850000" y="38.000000" font-family="Arial" font-size="7" text-anchor="middle" fill="#FFFFFF">hslider(grainfreq, 25, 25, 1000, 0.1)</text>
<circle cx="277.700000" cy="46.000000" r="1"/>
<rect x="73.000000" y="41.000000" width="24.000000" height="24.000000" rx="0.1" ry="0.1" style="stroke:none;fill:#aaaaaa;;filter:url(#filter);"/>
<rect x="72.000000" y="40.000000" width="24.000000" height="24.000000" rx="0" ry="0" style="stroke:none;fill:#4B71A1;"/>
<text x="84.000000" y="54.000000" font-family="Arial" font-size="7" text-anchor="middle" fill="#FFFFFF">/</text>
<circle cx="94.000000" cy="62.000000" r="1"/>
<line x1="99.000000" y1="55.000000" x2="96.000000" y2="56.000000"  transform="rotate(0.000000,96.000000,56.000000)" style="stroke: black; stroke-width:0.25;"/>
<line x1="99.000000" y1="57.000000" x2="96.000000" y2="56.000000"  transform="rotate(0.000000,96.000000,56.000000)" style="stroke: black; stroke-width:0.25;"/>
<line x1="99.000000" y1="47.000000" x2="96.000000" y2="48.000000"  transform="rotate(0.000000,96.000000,48.000000)" style="stroke: black; stroke-width:0.25;"/>
<line x1="99.000000" y1="49.000000" x2="96.000000" y2="48.000000"  transform="rotate(0.000000,96.000000,48.000000)" style="stroke: black; stroke-width:0.25;"/>
<rect x="33.000000" y="45.000000" width="24.000000" height="24.000000" rx="0.1" ry="0.1" style="stroke:none;fill:#aaaaaa;;filter:url(#filter);"/>
<rect x="32.000000" y="44.000000" width="24.000000" height="24.000000" rx="0" ry="0" style="stroke:none;fill:#4B71A1;"/>
<text x="44.000000" y="58.000000" font-family="Arial" font-size="7" text-anchor="middle" fill="#FFFFFF">+</text>
<circle cx="54.000000" cy="66.000000" r="1"/>
<line x1="59.000000" y1="59.000000" x2="56.000000" y2="60.000000"  transform="rotate(0.000000,56.000000,60.000000)" style="stroke: black; stroke-width:0.25;"/>
<line x1="59.000000" y1="61.000000" x2="56.000000" y2="60.000000"  transform="rotate(0.000000,56.000000,60.000000)" style="stroke: black; stroke-width:0.25;"/>
<line x1="59.000000" y1="51.000000" x2="56.000000" y2="52.000000"  transform="rotate(0.000000,56.000000,52.000000)" style="stroke: black; stroke-width:0.25;"/>
<line x1="59.000000" y1="53.000000" x2="56.000000" y2="52.000000"  transform="rotate(0.000000,56.000000,52.000000)" style="stroke: black; stroke-width:0.25;"/>
<line x1="281.700000" y1="112.000000" x2="281.700000" y2="108.000000"  style="stroke:black; stroke-linecap:round; stroke-width:0.25;"/>
<line x1="281.700000" y1="108.000000" x2="285.700000" y2="108.000000"  style="stroke:black; stroke-linecap:round; stroke-width:0.25;"/>
<line x1="285.700000" y1="108.000000" x2="285.700000" y2="112.000000"  style="stroke:black; stroke-linecap:round; stroke-width:0.25;"/>
<rect x="396.550000" y="37.000000" width="24.000000" height="24.000000" rx="0.1" ry="0.1" style="stroke:none;fill:#aaaaaa;;filter:url(#filter);"/>
<rect x="395.550000" y="36.000000" width="24.000000" height="24.000000" rx="0" ry="0" style="stroke:none;fill:#f44800;"/>
<text x="407.550000" y="50.000000" font-family="Arial" font-size="7" text-anchor="middle" fill="#FFFFFF">7</text>
<circle cx="397.550000" cy="38.000000" r="1"/>
<a xlink:href="SR-0x34b7de0.svg">
<rect x="376.550000" y="69.000000" width="24.000000" height="24.000000" rx="0.1" ry="0.1" style="stroke:none;fill:#aaaaaa;;filter:url(#filter);"/>
<rect x="375.550000" y="68.000000" width="24.000000" height="24.000000" rx="0" ry="0" style="stroke:none;fill:#003366;"/>
</a>
<a xlink:href="SR-0x34b7de0.svg">
<text x="387.550000" y="82.000000" font-family="Arial" font-size="7" text-anchor="middle" fill="#FFFFFF">SR</text>
</a>
<circle cx="377.550000" cy="70.000000" r="1"/>
<rect x="304.700000" y="101.000000" width="167.700000" height="24.000000" rx="0.1" ry="0.1" style="stroke:none;fill:#aaaaaa;;filter:url(#filter);"/>
<rect x="303.700000" y="100.000000" width="167.700000" height="24.000000" rx="0" ry="0" style="stroke:none;fill:#477881;"/>
<text x="387.550000" y="114.000000" font-family="Arial" font-size="7" text-anchor="middle" fill="#FFFFFF">hslider(grainfreq, 25, 25, 1000, 0.1)</text>
<circle cx="305.700000" cy="102.000000" r="1"/>
<rect x="488.400000" y="85.000000" width="24.000000" height="24.000000" rx="0.1" ry="0.1" style="stroke:none;fill:#aaaaaa;;filter:url(#filter);"/>
<rect x="487.400000" y="84.000000" width="24.000000" height="24.000000" rx="0" ry="0" style="stroke:none;fill:#4B71A1;"/>
<text x="499.400000" y="98.000000" font-family="Arial" font-size="7" text-anchor="middle" fill="#FFFFFF">/</text>
<circle cx="489.400000" cy="86.000000" r="1"/>
<line x1="484.400000" y1="91.000000" x2="487.400000" y2="92.000000"  transform="rotate(0.000000,487.400000,92.000000)" style="stroke: black; stroke-width:0.25;"/>
<line x1="484.400000" y1="93.000000" x2="487.400000" y2="92.000000"  transform="rotate(0.000000,487.400000,92.000000)" style="stroke: black; stroke-width:0.25;"/>
<line x1="484.400000" y1="99.000000" x2="487.400000" y2="100.000000"  transform="rotate(0.000000,487.400000,100.000000)" style="stroke: black; stroke-width:0.25;"/>
<line x1="484.400000" y1="101.000000" x2="487.400000" y2="100.000000"  transform="rotate(0.000000,487.400000,100.000000)" style="stroke: black; stroke-width:0.25;"/>
<rect x="528.400000" y="69.000000" width="24.000000" height="24.000000" rx="0.1" ry="0.1" style="stroke:none;fill:#aaaaaa;;filter:url(#filter);"/>
<rect x="527.400000" y="68.000000" width="24.000000" height="24.000000" rx="0" ry="0" style="stroke:none;fill:#4B71A1;"/>
<text x="539.400000" y="82.000000" font-family="Arial" font-size="7" text-anchor="middle" fill="#FFFFFF">*</text>
<circle cx="529.400000" cy="70.000000" r="1"/>
<line x1="524.400000" y1="75.000000" x2="527.400000" y2="76.000000"  transform="rotate(0.000000,527.400000,76.000000)" style="stroke: black; stroke-width:0.25;"/>
<line x1="524.400000" y1="77.000000" x2="527.400000" y2="76.000000"  transform="rotate(0.000000,527.400000,76.000000)" style="stroke: black; stroke-width:0.25;"/>
<line x1="524.400000" y1="83.000000" x2="527.400000" y2="84.000000"  transform="rotate(0.000000,527.400000,84.000000)" style="stroke: black; stroke-width:0.25;"/>
<line x1="524.400000" y1="85.000000" x2="527.400000" y2="84.000000"  transform="rotate(0.000000,527.400000,84.000000)" style="stroke: black; stroke-width:0.25;"/>
<rect x="568.400000" y="65.000000" width="24.000000" height="24.000000" rx="0.1" ry="0.1" style="stroke:none;fill:#aaaaaa;;filter:url(#filter);"/>
<rect x="567.400000" y="64.000000" width="24.000000" height="24.000000" rx="0" ry="0" style="stroke:none;fill:#4B71A1;"/>
<text x="579.400000" y="78.000000" font-family="Arial" font-size="7" text-anchor="middle" fill="#FFFFFF">*</text>
<circle cx="569.400000" cy="66.000000" r="1"/>
<line x1="564.400000" y1="71.000000" x2="567.400000" y2="72.000000"  transform="rotate(0.000000,567.400000,72.000000)" style="stroke: black; stroke-width:0.25;"/>
<line x1="564.400000" y1="73.000000" x2="567.400000" y2="72.000000"  transform="rotate(0.000000,567.400000,72.000000)" style="stroke: black; stroke-width:0.25;"/>
<line x1="564.400000" y1="79.000000" x2="567.400000" y2="80.000000"  transform="rotate(0.000000,567.400000,80.000000)" style="stroke: black; stroke-width:0.25;"/>
<line x1="564.400000" y1="81.000000" x2="567.400000" y2="80.000000"  transform="rotate(0.000000,567.400000,80.000000)" style="stroke: black; stroke-width:0.25;"/>
<a xlink:href="SR-0x34b7de0.svg">
<rect x="234.900000" y="185.000000" width="24.000000" height="24.000000" rx="0.1" ry="0.1" style="stroke:none;fill:#aaaaaa;;filter:url(#filter);"/>
<rect x="233.900000" y="184.000000" width="24.000000" height="24.000000" rx="0" ry="0" style="stroke:none;fill:#003366;"/>
</a>
<a xlink:href="SR-0x34b7de0.svg">
<text x="245.900000" y="198.000000" font-family="Arial" font-size="7" text-anchor="middle" fill="#FFFFFF">SR</text>
</a>
<circle cx="235.900000" cy="186.000000" r="1"/>
<rect x="163.050000" y="217.000000" width="167.700000" height="24.000000" rx="0.1" ry="0.1" style="stroke:none;fill:#aaaaaa;;filter:url(#filter);"/>
<rect x="162.050000" y="216.000000" width="167.700000" height="24.000000" rx="0" ry="0" style="stroke:none;fill:#477881;"/>
<text x="245.900000" y="230.000000" font-family="Arial" font-size="7" text-anchor="middle" fill="#FFFFFF">hslider(grainfreq, 25, 25, 1000, 0.1)</text>
<circle cx="164.050000" cy="218.000000" r="1"/>
<rect x="346.750000" y="201.000000" width="24.000000" height="24.000000" rx="0.1" ry="0.1" style="stroke:none;fill:#aaaaaa;;filter:url(#filter);"/>
<rect x="345.750000" y="200.000000" width="24.000000" height="24.000000" rx="0" ry="0" style="stroke:none;fill:#4B71A1;"/>
<text x="357.750000" y="214.000000" font-family="Arial" font-size="7" text-anchor="middle" fill="#FFFFFF">/</text>
<circle cx="347.750000" cy="202.000000" r="1"/>
<line x1="342.750000" y1="207.000000" x2="345.750000" y2="208.000000"  transform="rotate(0.000000,345.750000,208.000000)" style="stroke: black; stroke-width:0.25;"/>
<line x1="342.750000" y1="209.000000" x2="345.750000" y2="208.000000"  transform="rotate(0.000000,345.750000,208.000000)" style="stroke: black; stroke-width:0.25;"/>
<line x1="342.750000" y1="215.000000" x2="345.750000" y2="216.000000"  transform="rotate(0.000000,345.750000,216.000000)" style="stroke: black; stroke-width:0.25;"/>
<line x1="342.750000" y1="217.000000" x2="345.750000" y2="216.000000"  transform="rotate(0.000000,345.750000,216.000000)" style="stroke: black; stroke-width:0.25;"/>
<rect x="386.750000" y="197.000000" width="25.800000" height="24.000000" rx="0.1" ry="0.1" style="stroke:none;fill:#aaaaaa;;filter:url(#filter);"/>
<rect x="385.750000" y="196.000000" width="25.800000" height="24.000000" rx="0" ry="0" style="stroke:none;fill:#4B71A1;"/>
<text x="398.650000" y="210.000000" font-family="Arial" font-size="7" text-anchor="middle" fill="#FFFFFF">powf</text>
<circle cx="387.750000" cy="198.000000" r="1"/>
<line x1="382.750000" y1="203.000000" x2="385.750000" y2="204.000000"  transform="rotate(0.000000,385.750000,204.000000)" style="stroke: black; stroke-width:0.25;"/>
<line x1="382.750000" y1="205.000000" x2="385.750000" y2="204.000000"  transform="rotate(0.000000,385.750000,204.000000)" style="stroke: black; stroke-width:0.25;"/>
<line x1="382.750000" y1="211.000000" x2="385.750000" y2="212.000000"  transform="rotate(0.000000,385.750000,212.000000)" style="stroke: black; stroke-width:0.25;"/>
<line x1="382.750000" y1="213.000000" x2="385.750000" y2="212.000000"  transform="rotate(0.000000,385.750000,212.000000)" style="stroke: black; stroke-width:0.25;"/>
<rect x="295.800000" y="137.000000" width="24.000000" height="24.000000" rx="0.1" ry="0.1" style="stroke:none;fill:#aaaaaa;;filter:url(#filter);"/>
<rect x="294.800000" y="136.000000" width="24.000000" height="24.000000" rx="0" ry="0" style="stroke:none;fill:#f44800;"/>
<text x="306.800000" y="150.000000" font-family="Arial" font-size="7" text-anchor="middle" fill="#FFFFFF">7</text>
<circle cx="316.800000" cy="158.000000" r="1"/>
<rect x="255.800000" y="141.000000" width="24.000000" height="24.000000" rx="0.1" ry="0.1" style="stroke:none;fill:#aaaaaa;;filter:url(#filter);"/>
<rect x="254.800000" y="140.000000" width="24.000000" height="24.000000" rx="0" ry="0" style="stroke:none;fill:#4B71A1;"/>
<text x="266.800000" y="154.000000" font-family="Arial" font-size="7" text-anchor="middle" fill="#FFFFFF">*</text>
<circle cx="276.800000" cy="162.000000" r="1"/>
<line x1="281.800000" y1="155.000000" x2="278.800000" y2="156.000000"  transform="rotate(0.000000,278.800000,156.000000)" style="stroke: black; stroke-width:0.25;"/>
<line x1="281.800000" y1="157.000000" x2="278.800000" y2="156.000000"  transform="rotate(0.000000,278.800000,156.000000)" style="stroke: black; stroke-width:0.25;"/>
<line x1="281.800000" y1="147.000000" x2="278.800000" y2="148.000000"  transform="rotate(0.000000,278.800000,148.000000)" style="stroke: black; stroke-width:0.25;"/>
<line x1="281.800000" y1="149.000000" x2="278.800000" y2="148.000000"  transform="rotate(0.000000,278.800000,148.000000)" style="stroke: black; stroke-width:0.25;"/>
<line x1="413.550000" y1="208.000000" x2="413.550000" y2="204.000000"  style="stroke:black; stroke-linecap:round; stroke-width:0.25;"/>
<line x1="413.550000" y1="204.000000" x2="417.550000" y2="204.000000"  style="stroke:black; stroke-linecap:round; stroke-width:0.25;"/>
<line x1="417.550000" y1="204.000000" x2="417.550000" y2="208.000000"  style="stroke:black; stroke-linecap:round; stroke-width:0.25;"/>
<rect x="268.450000" y="259.000000" width="38.700000" height="24.000000" rx="0.1" ry="0.1" style="stroke:none;fill:#aaaaaa;;filter:url(#filter);"/>
<rect x="267.450000" y="258.000000" width="38.700000" height="24.000000" rx="0" ry="0" style="stroke:none;fill:#f44800;"/>
<text x="286.800000" y="272.000000" font-family="Arial" font-size="7" text-anchor="middle" fill="#FFFFFF">3.14159</text>
<circle cx="269.450000" cy="260.000000" r="1"/>
<line x1="258.450000" y1="249.000000" x2="258.450000" y2="291.000000"  style="stroke: black; stroke-linecap:round; stroke-width:0.25; stroke-dasharray:3,3;"/>
<line x1="258.450000" y1="291.000000" x2="315.150000" y2="291.000000"  style="stroke: black; stroke-linecap:round; stroke-width:0.25; stroke-dasharray:3,3;"/>
<line x1="315.150000" y1="291.000000" x2="315.150000" y2="249.000000"  style="stroke: black; stroke-linecap:round; stroke-width:0.25; stroke-dasharray:3,3;"/>
<line x1="258.450000" y1="249.000000" x2="263.450000" y2="249.000000"  style="stroke: black; stroke-linecap:round; stroke-width:0.25; stroke-dasharray:3,3;"/>
<line x1="276.350000" y1="249.000000" x2="315.150000" y2="249.000000"  style="stroke: black; stroke-linecap:round; stroke-width:0.25; stroke-dasharray:3,3;"/>
<text x="263.450000" y="251.000000" font-family="Arial" font-size="7">PI</text>
<rect x="436.550000" y="203.000000" width="25.800000" height="24.000000" rx="0.1" ry="0.1" style="stroke:none;fill:#aaaaaa;;filter:url(#filter);"/>
<rect x="435.550000" y="202.000000" width="25.800000" height="24.000000" rx="0" ry="0" style="stroke:none;fill:#4B71A1;"/>
<text x="448.450000" y="216.000000" font-family="Arial" font-size="7" text-anchor="middle" fill="#FFFFFF">powf</text>
<circle cx="437.550000" cy="204.000000" r="1"/>
<line x1="432.550000" y1="209.000000" x2="435.550000" y2="210.000000"  transform="rotate(0.000000,435.550000,210.000000)" style="stroke: black; stroke-width:0.25;"/>
<line x1="432.550000" y1="211.000000" x2="435.550000" y2="210.000000"  transform="rotate(0.000000,435.550000,210.000000)" style="stroke: black; stroke-width:0.25;"/>
<line x1="432.550000" y1="217.000000" x2="435.550000" y2="218.000000"  transform="rotate(0.000000,435.550000,218.000000)" style="stroke: black; stroke-width:0.25;"/>
<line x1="432.550000" y1="219.000000" x2="435.550000" y2="218.000000"  transform="rotate(0.000000,435.550000,218.000000)" style="stroke: black; stroke-width:0.25;"/>
<rect x="608.400000" y="147.000000" width="24.000000" height="24.000000" rx="0.1" ry="0.1" style="stroke:none;fill:#aaaaaa;;filter:url(#filter);"/>
<rect x="607.400000" y="146.000000" width="24.000000" height="24.000000" rx="0" ry="0" style="stroke:none;fill:#4B71A1;"/>
<text x="619.400000" y="160.000000" font-family="Arial" font-size="7" text-anchor="middle" fill="#FFFFFF">*</text>
<circle cx="609.400000" cy="148.000000" r="1"/>
<line x1="604.400000" y1="153.000000" x2="607.400000" y2="154.000000"  transform="rotate(0.000000,607.400000,154.000000)" style="stroke: black; stroke-width:0.25;"/>
<line x1="604.400000" y1="155.000000" x2="607.400000" y2="154.000000"  transform="rotate(0.000000,607.400000,154.000000)" style="stroke: black; stroke-width:0.25;"/>
<line x1="604.400000" y1="161.000000" x2="607.400000" y2="162.000000"  transform="rotate(0.000000,607.400000,162.000000)" style="stroke: black; stroke-width:0.25;"/>
<line x1="604.400000" y1="163.000000" x2="607.400000" y2="162.000000"  transform="rotate(0.000000,607.400000,162.000000)" style="stroke: black; stroke-width:0.25;"/>
<a xlink:href="SR-0x34b7de0.svg">
<rect x="720.250000" y="135.000000" width="24.000000" height="24.000000" rx="0.1" ry="0.1" style="stroke:none;fill:#aaaaaa;;filter:url(#filter);"/>
<rect x="719.250000" y="134.000000" width="24.000000" height="24.000000" rx="0" ry="0" style="stroke:none;fill:#003366;"/>
</a>
<a xlink:href="SR-0x34b7de0.svg">
<text x="731.250000" y="148.000000" font-family="Arial" font-size="7" text-anchor="middle" fill="#FFFFFF">SR</text>
</a>
<circle cx="721.250000" cy="136.000000" r="1"/>
<rect x="648.400000" y="167.000000" width="167.700000" height="24.000000" rx="0.1" ry="0.1" style="stroke:none;fill:#aaaaaa;;filter:url(#filter);"/>
<rect x="647.400000" y="166.000000" width="167.700000" height="24.000000" rx="0" ry="0" style="stroke:none;fill:#477881;"/>
<text x="731.250000" y="180.000000" font-family="Arial" font-size="7" text-anchor="middle" fill="#FFFFFF">hslider(grainfreq, 25, 25, 1000, 0.1)</text>
<circle cx="649.400000" cy="168.000000" r="1"/>
<rect x="832.100000" y="151.000000" width="24.000000" height="24.000000" rx="0.1" ry="0.1" style="stroke:none;fill:#aaaaaa;;filter:url(#filter);"/>
<rect x="831.100000" y="150.000000" width="24.000000" height="24.000000" rx="0" ry="0" style="stroke:none;fill:#4B71A1;"/>
<text x="843.100000" y="164.000000" font-family="Arial" font-size="7" text-anchor="middle" fill="#FFFFFF">/</text>
<circle cx="833.100000" cy="152.000000" r="1"/>
<line x1="828.100000" y1="157.000000" x2="831.100000" y2="158.000000"  transform="rotate(0.000000,831.100000,158.000000)" style="stroke: black; stroke-width:0.25;"/>
<line x1="828.100000" y1="159.000000" x2="831.100000" y2="158.000000"  transform="rotate(0.000000,831.100000,158.000000)" style="stroke: black; stroke-width:0.25;"/>
<line x1="828.100000" y1="165.000000" x2="831.100000" y2="166.000000"  transform="rotate(0.000000,831.100000,166.000000)" style="stroke: black; stroke-width:0.25;"/>
<line x1="828.100000" y1="167.000000" x2="831.100000" y2="166.000000"  transform="rotate(0.000000,831.100000,166.000000)" style="stroke: black; stroke-width:0.25;"/>
<rect x="864.100000" y="151.000000" width="24.000000" height="24.000000" rx="0.1" ry="0.1" style="stroke:none;fill:#aaaaaa;;filter:url(#filter);"/>
<rect x="863.100000" y="150.000000" width="24.000000" height="24.000000" rx="0" ry="0" style="stroke:none;fill:#4B71A1;"/>
<text x="875.100000" y="164.000000" font-family="Arial" font-size="7" text-anchor="middle" fill="#FFFFFF">int</text>
<circle cx="865.100000" cy="152.000000" r="1"/>
<line x1="860.100000" y1="161.000000" x2="863.100000" y2="162.000000"  transform="rotate(0.000000,863.100000,162.000000)" style="stroke: black; stroke-width:0.25;"/>
<line x1="860.100000" y1="163.000000" x2="863.100000" y2="162.000000"  transform="rotate(0.000000,863.100000,162.000000)" style="stroke: black; stroke-width:0.25;"/>
<rect x="904.100000" y="147.000000" width="24.000000" height="24.000000" rx="0.1" ry="0.1" style="stroke:none;fill:#aaaaaa;;filter:url(#filter);"/>
<rect x="903.100000" y="146.000000" width="24.000000" height="24.000000" rx="0" ry="0" style="stroke:none;fill:#4B71A1;"/>
<text x="915.100000" y="160.000000" font-family="Arial" font-size="7" text-anchor="middle" fill="#FFFFFF">%</text>
<circle cx="905.100000" cy="148.000000" r="1"/>
<line x1="900.100000" y1="153.000000" x2="903.100000" y2="154.000000"  transform="rotate(0.000000,903.100000,154.000000)" style="stroke: black; stroke-width:0.25;"/>
<line x1="900.100000" y1="155.000000" x2="903.100000" y2="154.000000"  transform="rotate(0.000000,903.100000,154.000000)" style="stroke: black; stroke-width:0.25;"/>
<line x1="900.100000" y1="161.000000" x2="903.100000" y2="162.000000"  transform="rotate(0.000000,903.100000,162.000000)" style="stroke: black; stroke-width:0.25;"/>
<line x1="900.100000" y1="163.000000" x2="903.100000" y2="162.000000"  transform="rotate(0.000000,903.100000,162.000000)" style="stroke: black; stroke-width:0.25;"/>
<rect x="944.100000" y="151.000000" width="25.800000" height="24.000000" rx="0.1" ry="0.1" style="stroke:none;fill:#aaaaaa;;filter:url(#filter);"/>
<rect x="943.100000" y="150.000000" width="25.800000" height="24.000000" rx="0" ry="0" style="stroke:none;fill:#f44800;"/>
<text x="956.000000" y="164.000000" font-family="Arial" font-size="7" text-anchor="middle" fill="#FFFFFF">192000</text>
<circle cx="945.100000" cy="152.000000" r="1"/>
<rect x="985.900000" y="147.000000" width="24.000000" height="24.000000" rx="0.1" ry="0.1" style="stroke:none;fill:#aaaaaa;;filter:url(#filter);"/>
<rect x="984.900000" y="146.000000" width="24.000000" height="24.000000" rx="0" ry="0" style="stroke:none;fill:#4B71A1;"/>
<text x="996.900000" y="160.000000" font-family="Arial" font-size="7" text-anchor="middle" fill="#FFFFFF">%</text>
<circle cx="986.900000" cy="148.000000" r="1"/>
<line x1="981.900000" y1="153.000000" x2="984.900000" y2="154.000000"  transform="rotate(0.000000,984.900000,154.000000)" style="stroke: black; stroke-width:0.25;"/>
<line x1="981.900000" y1="155.000000" x2="984.900000" y2="154.000000"  transform="rotate(0.000000,984.900000,154.000000)" style="stroke: black; stroke-width:0.25;"/>
<line x1="981.900000" y1="161.000000" x2="984.900000" y2="162.000000"  transform="rotate(0.000000,984.900000,162.000000)" style="stroke: black; stroke-width:0.25;"/>
<line x1="981.900000" y1="163.000000" x2="984.900000" y2="162.000000"  transform="rotate(0.000000,984.900000,162.000000)" style="stroke: black; stroke-width:0.25;"/>
<line x1="15.000000" y1="15.000000" x2="15.000000" y2="301.000000"  style="stroke: black; stroke-linecap:round; stroke-width:0.25; stroke-dasharray:3,3;"/>
<line x1="15.000000" y1="301.000000" x2="1017.900000" y2="301.000000"  style="stroke: black; stroke-linecap:round; stroke-width:0.25; stroke-dasharray:3,3;"/>
<line x1="1017.900000" y1="301.000000" x2="1017.900000" y2="15.000000"  style="stroke: black; stroke-linecap:round; stroke-width:0.25; stroke-dasharray:3,3;"/>
<line x1="15.000000" y1="15.000000" x2="20.000000" y2="15.000000"  style="stroke: black; stroke-linecap:round; stroke-width:0.25; stroke-dasharray:3,3;"/>
<line x1="129.650000" y1="15.000000" x2="1017.900000" y2="15.000000"  style="stroke: black; stroke-linecap:round; stroke-width:0.25; stroke-dasharray:3,3;"/>
<text x="20.000000" y="17.000000" font-family="Arial" font-size="7">random((19200...1000, 0.1):/)(7)</text>
<line x1="1019.900000" y1="157.000000" x2="1022.900000" y2="158.000000"  transform="rotate(0.000000,1022.900000,158.000000)" style="stroke: black; stroke-width:0.25;"/>
<line x1="1019.900000" y1="159.000000" x2="1022.900000" y2="158.000000"  transform="rotate(0.000000,1022.900000,158.000000)" style="stroke: black; stroke-width:0.25;"/>
<line x1="28.000000" y1="56.000000" x2="28.000000" y2="56.000000"  style="stroke:black; stroke-linecap:round; stroke-width:0.25;"/>
<line x1="28.000000" y1="56.000000" x2="28.000000" y2="96.000000"  style="stroke:black; stroke-linecap:round; stroke-width:0.25;"/>
<line x1="28.000000" y1="96.000000" x2="28.000000" y2="96.000000"  style="stroke:black; stroke-linecap:round; stroke-width:0.25;"/>
<line x1="28.000000" y1="96.000000" x2="119.850000" y2="96.000000"  style="stroke:black; stroke-linecap:round; stroke-width:0.25;"/>
<line x1="32.000000" y1="56.000000" x2="28.000000" y2="56.000000"  style="stroke:black; stroke-linecap:round; stroke-width:0.25;"/>
<line x1="60.000000" y1="52.000000" x2="56.000000" y2="52.000000"  style="stroke:black; stroke-linecap:round; stroke-width:0.25;"/>
<line x1="60.000000" y1="60.000000" x2="56.000000" y2="60.000000"  style="stroke:black; stroke-linecap:round; stroke-width:0.25;"/>
<line x1="60.000000" y1="60.000000" x2="60.000000" y2="60.000000"  style="stroke:black; stroke-linecap:round; stroke-width:0.25;"/>
<line x1="60.000000" y1="88.000000" x2="60.000000" y2="60.000000"  style="stroke:black; stroke-linecap:round; stroke-width:0.25;"/>
<line x1="68.000000" y1="52.000000" x2="60.000000" y2="52.000000"  style="stroke:black; stroke-linecap:round; stroke-width:0.25;"/>
<line x1="68.000000" y1="88.000000" x2="60.000000" y2="88.000000"  style="stroke:black; stroke-linecap:round; stroke-width:0.25;"/>
<line x1="72.000000" y1="52.000000" x2="68.000000" y2="52.000000"  style="stroke:black; stroke-linecap:round; stroke-width:0.25;"/>
<line x1="100.000000" y1="48.000000" x2="96.000000" y2="48.000000"  style="stroke:black; stroke-linecap:round; stroke-width:0.25;"/>
<line x1="100.000000" y1="56.000000" x2="96.000000" y2="56.000000"  style="stroke:black; stroke-linecap:round; stroke-width:0.25;"/>
<line x1="100.000000" y1="56.000000" x2="100.000000" y2="56.000000"  style="stroke:black; stroke-linecap:round; stroke-width:0.25;"/>
<line x1="100.000000" y1="68.000000" x2="100.000000" y2="56.000000"  style="stroke:black; stroke-linecap:round; stroke-width:0.25;"/>
<line x1="108.000000" y1="36.000000" x2="108.000000" y2="36.000000"  style="stroke:black; stroke-linecap:round; stroke-width:0.25;"/>
<line x1="108.000000" y1="36.000000" x2="108.000000" y2="48.000000"  style="stroke:black; stroke-linecap:round; stroke-width:0.25;"/>
<line x1="108.000000" y1="48.000000" x2="100.000000" y2="48.000000"  style="stroke:black; stroke-linecap:round; stroke-width:0.25;"/>
<line x1="108.000000" y1="68.000000" x2="100.000000" y2="68.000000"  style="stroke:black; stroke-linecap:round; stroke-width:0.25;"/>
<line x1="112.000000" y1="36.000000" x2="108.000000" y2="36.000000"  style="stroke:black; stroke-linecap:round; stroke-width:0.25;"/>
<line x1="119.850000" y1="96.000000" x2="135.850000" y2="96.000000"  style="stroke:black; stroke-linecap:round; stroke-width:0.25;"/>
<line x1="135.850000" y1="96.000000" x2="151.850000" y2="96.000000"  style="stroke:black; stroke-linecap:round; stroke-width:0.25;"/>
<line x1="147.850000" y1="116.000000" x2="151.850000" y2="116.000000"  style="stroke:black; stroke-linecap:round; stroke-width:0.25;"/>
<line x1="151.850000" y1="96.000000" x2="159.850000" y2="96.000000"  style="stroke:black; stroke-linecap:round; stroke-width:0.25;"/>
<line x1="151.850000" y1="116.000000" x2="159.850000" y2="116.000000"  style="stroke:black; stroke-linecap:round; stroke-width:0.25;"/>
<line x1="158.050000" y1="152.000000" x2="158.050000" y2="152.000000"  style="stroke:black; stroke-linecap:round; stroke-width:0.25;"/>
<line x1="158.050000" y1="152.000000" x2="158.050000" y2="176.000000"  style="stroke:black; stroke-linecap:round; stroke-width:0.25;"/>
<line x1="158.050000" y1="176.000000" x2="158.050000" y2="176.000000"  style="stroke:black; stroke-linecap:round; stroke-width:0.25;"/>
<line x1="158.050000" y1="176.000000" x2="265.900000" y2="176.000000"  style="stroke:black; stroke-linecap:round; stroke-width:0.25;"/>
<line x1="159.850000" y1="96.000000" x2="159.850000" y2="108.000000"  style="stroke:black; stroke-linecap:round; stroke-width:0.25;"/>
<line x1="159.850000" y1="108.000000" x2="159.850000" y2="108.000000"  style="stroke:black; stroke-linecap:round; stroke-width:0.25;"/>
<line x1="159.850000" y1="108.000000" x2="163.850000" y2="108.000000"  style="stroke:black; stroke-linecap:round; stroke-width:0.25;"/>
<line x1="159.850000" y1="116.000000" x2="163.850000" y2="116.000000"  style="stroke:black; stroke-linecap:round; stroke-width:0.25;"/>
<line x1="175.850000" y1="88.000000" x2="68.000000" y2="88.000000"  style="stroke:black; stroke-linecap:round; stroke-width:0.25;"/>
<line x1="179.850000" y1="68.000000" x2="108.000000" y2="68.000000"  style="stroke:black; stroke-linecap:round; stroke-width:0.25;"/>
<line x1="183.850000" y1="68.000000" x2="179.850000" y2="68.000000"  style="stroke:black; stroke-linecap:round; stroke-width:0.25;"/>
<line x1="187.850000" y1="112.000000" x2="191.850000" y2="112.000000"  style="stroke:black; stroke-linecap:round; stroke-width:0.25;"/>
<line x1="191.850000" y1="112.000000" x2="283.700000" y2="112.000000"  style="stroke:black; stroke-linecap:round; stroke-width:0.25;"/>
<line x1="250.800000" y1="152.000000" x2="158.050000" y2="152.000000"  style="stroke:black; stroke-linecap:round; stroke-width:0.25;"/>
<line x1="254.800000" y1="152.000000" x2="250.800000" y2="152.000000"  style="stroke:black; stroke-linecap:round; stroke-width:0.25;"/>
<line x1="257.900000" y1="196.000000" x2="261.900000" y2="196.000000"  style="stroke:black; stroke-linecap:round; stroke-width:0.25;"/>
<line x1="261.900000" y1="196.000000" x2="333.750000" y2="196.000000"  style="stroke:black; stroke-linecap:round; stroke-width:0.25;"/>
<line x1="265.900000" y1="176.000000" x2="373.750000" y2="176.000000"  style="stroke:black; stroke-linecap:round; stroke-width:0.25;"/>
<line x1="282.800000" y1="148.000000" x2="278.800000" y2="148.000000"  style="stroke:black; stroke-linecap:round; stroke-width:0.25;"/>
<line x1="282.800000" y1="156.000000" x2="278.800000" y2="156.000000"  style="stroke:black; stroke-linecap:round; stroke-width:0.25;"/>
<line x1="282.800000" y1="156.000000" x2="282.800000" y2="156.000000"  style="stroke:black; stroke-linecap:round; stroke-width:0.25;"/>
<line x1="282.800000" y1="168.000000" x2="282.800000" y2="156.000000"  style="stroke:black; stroke-linecap:round; stroke-width:0.25;"/>
<line x1="283.700000" y1="88.000000" x2="175.850000" y2="88.000000"  style="stroke:black; stroke-linecap:round; stroke-width:0.25;"/>
<line x1="283.700000" y1="88.000000" x2="283.700000" y2="88.000000"  style="stroke:black; stroke-linecap:round; stroke-width:0.25;"/>
<line x1="283.700000" y1="108.000000" x2="283.700000" y2="88.000000"  style="stroke:black; stroke-linecap:round; stroke-width:0.25;"/>
<line x1="283.700000" y1="112.000000" x2="285.700000" y2="112.000000"  style="stroke:black; stroke-linecap:round; stroke-width:0.25;"/>
<line x1="285.700000" y1="112.000000" x2="291.700000" y2="112.000000"  style="stroke:black; stroke-linecap:round; stroke-width:0.25;"/>
<line x1="290.800000" y1="148.000000" x2="282.800000" y2="148.000000"  style="stroke:black; stroke-linecap:round; stroke-width:0.25;"/>
<line x1="290.800000" y1="168.000000" x2="282.800000" y2="168.000000"  style="stroke:black; stroke-linecap:round; stroke-width:0.25;"/>
<line x1="291.700000" y1="28.000000" x2="299.700000" y2="28.000000"  style="stroke:black; stroke-linecap:round; stroke-width:0.25;"/>
<line x1="291.700000" y1="112.000000" x2="291.700000" y2="28.000000"  style="stroke:black; stroke-linecap:round; stroke-width:0.25;"/>
<line x1="291.700000" y1="112.000000" x2="291.700000" y2="112.000000"  style="stroke:black; stroke-linecap:round; stroke-width:0.25;"/>
<line x1="294.800000" y1="148.000000" x2="290.800000" y2="148.000000"  style="stroke:black; stroke-linecap:round; stroke-width:0.25;"/>
<line x1="299.700000" y1="28.000000" x2="427.550000" y2="28.000000"  style="stroke:black; stroke-linecap:round; stroke-width:0.25;"/>
<line x1="306.150000" y1="270.000000" x2="310.150000" y2="270.000000"  style="stroke:black; stroke-linecap:round; stroke-width:0.25;"/>
<line x1="306.800000" y1="168.000000" x2="290.800000" y2="168.000000"  style="stroke:black; stroke-linecap:round; stroke-width:0.25;"/>
<line x1="310.150000" y1="270.000000" x2="320.150000" y2="270.000000"  style="stroke:black; stroke-linecap:round; stroke-width:0.25;"/>
<line x1="320.150000" y1="270.000000" x2="423.550000" y2="270.000000"  style="stroke:black; stroke-linecap:round; stroke-width:0.25;"/>
<line x1="322.800000" y1="168.000000" x2="306.800000" y2="168.000000"  style="stroke:black; stroke-linecap:round; stroke-width:0.25;"/>
<line x1="329.750000" y1="228.000000" x2="333.750000" y2="228.000000"  style="stroke:black; stroke-linecap:round; stroke-width:0.25;"/>
<line x1="333.750000" y1="196.000000" x2="341.750000" y2="196.000000"  style="stroke:black; stroke-linecap:round; stroke-width:0.25;"/>
<line x1="333.750000" y1="216.000000" x2="341.750000" y2="216.000000"  style="stroke:black; stroke-linecap:round; stroke-width:0.25;"/>
<line x1="333.750000" y1="228.000000" x2="333.750000" y2="216.000000"  style="stroke:black; stroke-linecap:round; stroke-width:0.25;"/>
<line x1="333.750000" y1="228.000000" x2="333.750000" y2="228.000000"  style="stroke:black; stroke-linecap:round; stroke-width:0.25;"/>
<line x1="341.750000" y1="196.000000" x2="341.750000" y2="208.000000"  style="stroke:black; stroke-linecap:round; stroke-width:0.25;"/>
<line x1="341.750000" y1="208.000000" x2="341.750000" y2="208.000000"  style="stroke:black; stroke-linecap:round; stroke-width:0.25;"/>
<line x1="341.750000" y1="208.000000" x2="345.750000" y2="208.000000"  style="stroke:black; stroke-linecap:round; stroke-width:0.25;"/>
<line x1="341.750000" y1="216.000000" x2="345.750000" y2="216.000000"  style="stroke:black; stroke-linecap:round; stroke-width:0.25;"/>
<line x1="369.750000" y1="212.000000" x2="373.750000" y2="212.000000"  style="stroke:black; stroke-linecap:round; stroke-width:0.25;"/>
<line x1="373.750000" y1="176.000000" x2="381.750000" y2="176.000000"  style="stroke:black; stroke-linecap:round; stroke-width:0.25;"/>
<line x1="373.750000" y1="212.000000" x2="381.750000" y2="212.000000"  style="stroke:black; stroke-linecap:round; stroke-width:0.25;"/>
<line x1="381.750000" y1="176.000000" x2="381.750000" y2="204.000000"  style="stroke:black; stroke-linecap:round; stroke-width:0.25;"/>
<line x1="381.750000" y1="204.000000" x2="381.750000" y2="204.000000"  style="stroke:black; stroke-linecap:round; stroke-width:0.25;"/>
<line x1="381.750000" y1="204.000000" x2="385.750000" y2="204.000000"  style="stroke:black; stroke-linecap:round; stroke-width:0.25;"/>
<line x1="381.750000" y1="212.000000" x2="385.750000" y2="212.000000"  style="stroke:black; stroke-linecap:round; stroke-width:0.25;"/>
<line x1="399.550000" y1="80.000000" x2="403.550000" y2="80.000000"  style="stroke:black; stroke-linecap:round; stroke-width:0.25;"/>
<line x1="403.550000" y1="80.000000" x2="475.400000" y2="80.000000"  style="stroke:black; stroke-linecap:round; stroke-width:0.25;"/>
<line x1="411.550000" y1="208.000000" x2="415.550000" y2="208.000000"  style="stroke:black; stroke-linecap:round; stroke-width:0.25;"/>
<line x1="415.550000" y1="168.000000" x2="322.800000" y2="168.000000"  style="stroke:black; stroke-linecap:round; stroke-width:0.25;"/>
<line x1="415.550000" y1="168.000000" x2="415.550000" y2="168.000000"  style="stroke:black; stroke-linecap:round; stroke-width:0.25;"/>
<line x1="415.550000" y1="204.000000" x2="415.550000" y2="168.000000"  style="stroke:black; stroke-linecap:round; stroke-width:0.25;"/>
<line x1="415.550000" y1="208.000000" x2="417.550000" y2="208.000000"  style="stroke:black; stroke-linecap:round; stroke-width:0.25;"/>
<line x1="417.550000" y1="208.000000" x2="423.550000" y2="208.000000"  style="stroke:black; stroke-linecap:round; stroke-width:0.25;"/>
<line x1="419.550000" y1="48.000000" x2="423.550000" y2="48.000000"  style="stroke:black; stroke-linecap:round; stroke-width:0.25;"/>
<line x1="423.550000" y1="48.000000" x2="515.400000" y2="48.000000"  style="stroke:black; stroke-linecap:round; stroke-width:0.25;"/>
<line x1="423.550000" y1="218.000000" x2="431.550000" y2="218.000000"  style="stroke:black; stroke-linecap:round; stroke-width:0.25;"/>
<line x1="423.550000" y1="270.000000" x2="423.550000" y2="218.000000"  style="stroke:black; stroke-linecap:round; stroke-width:0.25;"/>
<line x1="423.550000" y1="270.000000" x2="423.550000" y2="270.000000"  style="stroke:black; stroke-linecap:round; stroke-width:0.25;"/>
<line x1="423.550000" y1="208.000000" x2="431.550000" y2="208.000000"  style="stroke:black; stroke-linecap:round; stroke-width:0.25;"/>
<line x1="427.550000" y1="28.000000" x2="555.400000" y2="28.000000"  style="stroke:black; stroke-linecap:round; stroke-width:0.25;"/>
<line x1="431.550000" y1="210.000000" x2="435.550000" y2="210.000000"  style="stroke:black; stroke-linecap:round; stroke-width:0.25;"/>
<line x1="431.550000" y1="218.000000" x2="435.550000" y2="218.000000"  style="stroke:black; stroke-linecap:round; stroke-width:0.25;"/>
<line x1="431.550000" y1="208.000000" x2="431.550000" y2="210.000000"  style="stroke:black; stroke-linecap:round; stroke-width:0.25;"/>
<line x1="431.550000" y1="210.000000" x2="431.550000" y2="210.000000"  style="stroke:black; stroke-linecap:round; stroke-width:0.25;"/>
<line x1="461.350000" y1="214.000000" x2="465.350000" y2="214.000000"  style="stroke:black; stroke-linecap:round; stroke-width:0.25;"/>
<line x1="465.350000" y1="214.000000" x2="595.400000" y2="214.000000"  style="stroke:black; stroke-linecap:round; stroke-width:0.25;"/>
<line x1="471.400000" y1="112.000000" x2="475.400000" y2="112.000000"  style="stroke:black; stroke-linecap:round; stroke-width:0.25;"/>
<line x1="475.400000" y1="80.000000" x2="483.400000" y2="80.000000"  style="stroke:black; stroke-linecap:round; stroke-width:0.25;"/>
<line x1="475.400000" y1="100.000000" x2="483.400000" y2="100.000000"  style="stroke:black; stroke-linecap:round; stroke-width:0.25;"/>
<line x1="475.400000" y1="112.000000" x2="475.400000" y2="100.000000"  style="stroke:black; stroke-linecap:round; stroke-width:0.25;"/>
<line x1="475.400000" y1="112.000000" x2="475.400000" y2="112.000000"  style="stroke:black; stroke-linecap:round; stroke-width:0.25;"/>
<line x1="483.400000" y1="80.000000" x2="483.400000" y2="92.000000"  style="stroke:black; stroke-linecap:round; stroke-width:0.25;"/>
<line x1="483.400000" y1="92.000000" x2="483.400000" y2="92.000000"  style="stroke:black; stroke-linecap:round; stroke-width:0.25;"/>
<line x1="483.400000" y1="92.000000" x2="487.400000" y2="92.000000"  style="stroke:black; stroke-linecap:round; stroke-width:0.25;"/>
<line x1="483.400000" y1="100.000000" x2="487.400000" y2="100.000000"  style="stroke:black; stroke-linecap:round; stroke-width:0.25;"/>
<line x1="511.400000" y1="96.000000" x2="515.400000" y2="96.000000"  style="stroke:black; stroke-linecap:round; stroke-width:0.25;"/>
<line x1="515.400000" y1="48.000000" x2="523.400000" y2="48.000000"  style="stroke:black; stroke-linecap:round; stroke-width:0.25;"/>
<line x1="515.400000" y1="84.000000" x2="523.400000" y2="84.000000"  style="stroke:black; stroke-linecap:round; stroke-width:0.25;"/>
<line x1="515.400000" y1="96.000000" x2="515.400000" y2="84.000000"  style="stroke:black; stroke-linecap:round; stroke-width:0.25;"/>
<line x1="515.400000" y1="96.000000" x2="515.400000" y2="96.000000"  style="stroke:black; stroke-linecap:round; stroke-width:0.25;"/>
<line x1="523.400000" y1="48.000000" x2="523.400000" y2="76.000000"  style="stroke:black; stroke-linecap:round; stroke-width:0.25;"/>
<line x1="523.400000" y1="76.000000" x2="523.400000" y2="76.000000"  style="stroke:black; stroke-linecap:round; stroke-width:0.25;"/>
<line x1="523.400000" y1="76.000000" x2="527.400000" y2="76.000000"  style="stroke:black; stroke-linecap:round; stroke-width:0.25;"/>
<line x1="523.400000" y1="84.000000" x2="527.400000" y2="84.000000"  style="stroke:black; stroke-linecap:round; stroke-width:0.25;"/>
<line x1="551.400000" y1="80.000000" x2="555.400000" y2="80.000000"  style="stroke:black; stroke-linecap:round; stroke-width:0.25;"/>
<line x1="555.400000" y1="28.000000" x2="563.400000" y2="28.000000"  style="stroke:black; stroke-linecap:round; stroke-width:0.25;"/>
<line x1="555.400000" y1="80.000000" x2="563.400000" y2="80.000000"  style="stroke:black; stroke-linecap:round; stroke-width:0.25;"/>
<line x1="563.400000" y1="28.000000" x2="563.400000" y2="72.000000"  style="stroke:black; stroke-linecap:round; stroke-width:0.25;"/>
<line x1="563.400000" y1="72.000000" x2="563.400000" y2="72.000000"  style="stroke:black; stroke-linecap:round; stroke-width:0.25;"/>
<line x1="563.400000" y1="72.000000" x2="567.400000" y2="72.000000"  style="stroke:black; stroke-linecap:round; stroke-width:0.25;"/>
<line x1="563.400000" y1="80.000000" x2="567.400000" y2="80.000000"  style="stroke:black; stroke-linecap:round; stroke-width:0.25;"/>
<line x1="591.400000" y1="76.000000" x2="595.400000" y2="76.000000"  style="stroke:black; stroke-linecap:round; stroke-width:0.25;"/>
<line x1="595.400000" y1="76.000000" x2="603.400000" y2="76.000000"  style="stroke:black; stroke-linecap:round; stroke-width:0.25;"/>
<line x1="595.400000" y1="162.000000" x2="603.400000" y2="162.000000"  style="stroke:black; stroke-linecap:round; stroke-width:0.25;"/>
<line x1="595.400000" y1="214.000000" x2="595.400000" y2="162.000000"  style="stroke:black; stroke-linecap:round; stroke-width:0.25;"/>
<line x1="595.400000" y1="214.000000" x2="595.400000" y2="214.000000"  style="stroke:black; stroke-linecap:round; stroke-width:0.25;"/>
<line x1="603.400000" y1="76.000000" x2="603.400000" y2="154.000000"  style="stroke:black; stroke-linecap:round; stroke-width:0.25;"/>
<line x1="603.400000" y1="154.000000" x2="603.400000" y2="154.000000"  style="stroke:black; stroke-linecap:round; stroke-width:0.25;"/>
<line x1="603.400000" y1="154.000000" x2="607.400000" y2="154.000000"  style="stroke:black; stroke-linecap:round; stroke-width:0.25;"/>
<line x1="603.400000" y1="162.000000" x2="607.400000" y2="162.000000"  style="stroke:black; stroke-linecap:round; stroke-width:0.25;"/>
<line x1="631.400000" y1="158.000000" x2="635.400000" y2="158.000000"  style="stroke:black; stroke-linecap:round; stroke-width:0.25;"/>
<line x1="635.400000" y1="126.000000" x2="643.400000" y2="126.000000"  style="stroke:black; stroke-linecap:round; stroke-width:0.25;"/>
<line x1="635.400000" y1="158.000000" x2="635.400000" y2="126.000000"  style="stroke:black; stroke-linecap:round; stroke-width:0.25;"/>
<line x1="635.400000" y1="158.000000" x2="635.400000" y2="158.000000"  style="stroke:black; stroke-linecap:round; stroke-width:0.25;"/>
<line x1="643.400000" y1="126.000000" x2="767.250000" y2="126.000000"  style="stroke:black; stroke-linecap:round; stroke-width:0.25;"/>
<line x1="743.250000" y1="146.000000" x2="747.250000" y2="146.000000"  style="stroke:black; stroke-linecap:round; stroke-width:0.25;"/>
<line x1="747.250000" y1="146.000000" x2="819.100000" y2="146.000000"  style="stroke:black; stroke-linecap:round; stroke-width:0.25;"/>
<line x1="767.250000" y1="126.000000" x2="891.100000" y2="126.000000"  style="stroke:black; stroke-linecap:round; stroke-width:0.25;"/>
<line x1="815.100000" y1="178.000000" x2="819.100000" y2="178.000000"  style="stroke:black; stroke-linecap:round; stroke-width:0.25;"/>
<line x1="819.100000" y1="166.000000" x2="827.100000" y2="166.000000"  style="stroke:black; stroke-linecap:round; stroke-width:0.25;"/>
<line x1="819.100000" y1="178.000000" x2="819.100000" y2="166.000000"  style="stroke:black; stroke-linecap:round; stroke-width:0.25;"/>
<line x1="819.100000" y1="178.000000" x2="819.100000" y2="178.000000"  style="stroke:black; stroke-linecap:round; stroke-width:0.25;"/>
<line x1="819.100000" y1="146.000000" x2="827.100000" y2="146.000000"  style="stroke:black; stroke-linecap:round; stroke-width:0.25;"/>
<line x1="827.100000" y1="158.000000" x2="831.100000" y2="158.000000"  style="stroke:black; stroke-linecap:round; stroke-width:0.25;"/>
<line x1="827.100000" y1="166.000000" x2="831.100000" y2="166.000000"  style="stroke:black; stroke-linecap:round; stroke-width:0.25;"/>
<line x1="827.100000" y1="146.000000" x2="827.100000" y2="158.000000"  style="stroke:black; stroke-linecap:round; stroke-width:0.25;"/>
<line x1="827.100000" y1="158.000000" x2="827.100000" y2="158.000000"  style="stroke:black; stroke-linecap:round; stroke-width:0.25;"/>
<line x1="855.100000" y1="162.000000" x2="859.100000" y2="162.000000"  style="stroke:black; stroke-linecap:round; stroke-width:0.25;"/>
<line x1="859.100000" y1="162.000000" x2="859.100000" y2="162.000000"  style="stroke:black; stroke-linecap:round; stroke-width:0.25;"/>
<line x1="859.100000" y1="162.000000" x2="863.100000" y2="162.000000"  style="stroke:black; stroke-linecap:round; stroke-width:0.25;"/>
<line x1="887.100000" y1="162.000000" x2="891.100000" y2="162.000000"  style="stroke:black; stroke-linecap:round; stroke-width:0.25;"/>
<line x1="891.100000" y1="162.000000" x2="899.100000" y2="162.000000"  style="stroke:black; stroke-linecap:round; stroke-width:0.25;"/>
<line x1="891.100000" y1="126.000000" x2="899.100000" y2="126.000000"  style="stroke:black; stroke-linecap:round; stroke-width:0.25;"/>
<line x1="899.100000" y1="154.000000" x2="903.100000" y2="154.000000"  style="stroke:black; stroke-linecap:round; stroke-width:0.25;"/>
<line x1="899.100000" y1="162.000000" x2="903.100000" y2="162.000000"  style="stroke:black; stroke-linecap:round; stroke-width:0.25;"/>
<line x1="899.100000" y1="126.000000" x2="899.100000" y2="154.000000"  style="stroke:black; stroke-linecap:round; stroke-width:0.25;"/>
<line x1="899.100000" y1="154.000000" x2="899.100000" y2="154.000000"  style="stroke:black; stroke-linecap:round; stroke-width:0.25;"/>
<line x1="927.100000" y1="158.000000" x2="931.100000" y2="158.000000"  style="stroke:black; stroke-linecap:round; stroke-width:0.25;"/>
<line x1="931.100000" y1="142.000000" x2="939.100000" y2="142.000000"  style="stroke:black; stroke-linecap:round; stroke-width:0.25;"/>
<line x1="931.100000" y1="158.000000" x2="931.100000" y2="142.000000"  style="stroke:black; stroke-linecap:round; stroke-width:0.25;"/>
<line x1="931.100000" y1="158.000000" x2="931.100000" y2="158.000000"  style="stroke:black; stroke-linecap:round; stroke-width:0.25;"/>
<line x1="939.100000" y1="142.000000" x2="956.000000" y2="142.000000"  style="stroke:black; stroke-linecap:round; stroke-width:0.25;"/>
<line x1="956.000000" y1="142.000000" x2="972.900000" y2="142.000000"  style="stroke:black; stroke-linecap:round; stroke-width:0.25;"/>
<line x1="968.900000" y1="162.000000" x2="972.900000" y2="162.000000"  style="stroke:black; stroke-linecap:round; stroke-width:0.25;"/>
<line x1="972.900000" y1="142.000000" x2="980.900000" y2="142.000000"  style="stroke:black; stroke-linecap:round; stroke-width:0.25;"/>
<line x1="972.900000" y1="162.000000" x2="980.900000" y2="162.000000"  style="stroke:black; stroke-linecap:round; stroke-width:0.25;"/>
<line x1="980.900000" y1="142.000000" x2="980.900000" y2="154.000000"  style="stroke:black; stroke-linecap:round; stroke-width:0.25;"/>
<line x1="980.900000" y1="154.000000" x2="980.900000" y2="154.000000"  style="stroke:black; stroke-linecap:round; stroke-width:0.25;"/>
<line x1="980.900000" y1="154.000000" x2="984.900000" y2="154.000000"  style="stroke:black; stroke-linecap:round; stroke-width:0.25;"/>
<line x1="980.900000" y1="162.000000" x2="984.900000" y2="162.000000"  style="stroke:black; stroke-linecap:round; stroke-width:0.25;"/>
<line x1="1008.900000" y1="158.000000" x2="1012.900000" y2="158.000000"  style="stroke:black; stroke-linecap:round; stroke-width:0.25;"/>
<line x1="1012.900000" y1="158.000000" x2="1022.900000" y2="158.000000"  style="stroke:black; stroke-linecap:round; stroke-width:0.25;"/>
</svg>
