<?xml version="1.0"?>
<svg xmlns="http://www.w3.org/2000/svg" xmlns:xlink="http://www.w3.org/1999/xlink" viewBox="0 0 206.000000 88.000000" width="103.000000mm" height="44.000000mm" version="1.1">
<defs>
   <filter id="filter" filterRes="18" x="0" y="0">
     <feGaussianBlur in="SourceGraphic" stdDeviation="1.55" result="blur"/>
     <feOffset in="blur" dx="3" dy="3"/>
   </filter>
</defs>
<a xlink:href="process.svg">
<rect x="1.000000" y="1.000000" width="205.000000" height="87.000000" rx="0.1" ry="0.1" style="stroke:none;fill:#aaaaaa;;filter:url(#filter);"/>
<rect x="0.000000" y="0.000000" width="205.000000" height="87.000000" rx="0" ry="0" style="stroke:none;fill:#ffffff;"/>
</a>
<text x="10.000000" y="7.000000" font-family="Arial" font-size="7"></text>
<rect x="25.000000" y="37.000000" width="24.000000" height="24.000000" rx="0.1" ry="0.1" style="stroke:none;fill:#aaaaaa;;filter:url(#filter);"/>
<rect x="24.000000" y="36.000000" width="24.000000" height="24.000000" rx="0" ry="0" style="stroke:none;fill:#f44800;"/>
<text x="36.000000" y="50.000000" font-family="Arial" font-size="7" text-anchor="middle" fill="#FFFFFF">1</text>
<circle cx="26.000000" cy="38.000000" r="1"/>
<rect x="65.000000" y="33.000000" width="24.000000" height="24.000000" rx="0.1" ry="0.1" style="stroke:none;fill:#aaaaaa;;filter:url(#filter);"/>
<rect x="64.000000" y="32.000000" width="24.000000" height="24.000000" rx="0" ry="0" style="stroke:none;fill:#4B71A1;"/>
<text x="76.000000" y="46.000000" font-family="Arial" font-size="7" text-anchor="middle" fill="#FFFFFF">+</text>
<circle cx="66.000000" cy="34.000000" r="1"/>
<line x1="61.000000" y1="39.000000" x2="64.000000" y2="40.000000"  transform="rotate(0.000000,64.000000,40.000000)" style="stroke: black; stroke-width:0.25;"/>
<line x1="61.000000" y1="41.000000" x2="64.000000" y2="40.000000"  transform="rotate(0.000000,64.000000,40.000000)" style="stroke: black; stroke-width:0.25;"/>
<line x1="61.000000" y1="47.000000" x2="64.000000" y2="48.000000"  transform="rotate(0.000000,64.000000,48.000000)" style="stroke: black; stroke-width:0.25;"/>
<line x1="61.000000" y1="49.000000" x2="64.000000" y2="48.000000"  transform="rotate(0.000000,64.000000,48.000000)" style="stroke: black; stroke-width:0.25;"/>
<rect x="119.000000" y="41.000000" width="24.000000" height="24.000000" rx="0.1" ry="0.1" style="stroke:none;fill:#aaaaaa;;filter:url(#filter);"/>
<rect x="118.000000" y="40.000000" width="24.000000" height="24.000000" rx="0" ry="0" style="stroke:none;fill:#f44800;"/>
<text x="130.000000" y="54.000000" font-family="Arial" font-size="7" text-anchor="middle" fill="#FFFFFF">1</text>
<circle cx="120.000000" cy="42.000000" r="1"/>
<rect x="159.000000" y="37.000000" width="24.000000" height="24.000000" rx="0.1" ry="0.1" style="stroke:none;fill:#aaaaaa;;filter:url(#filter);"/>
<rect x="158.000000" y="36.000000" width="24.000000" height="24.000000" rx="0" ry="0" style="stroke:none;fill:#4B71A1;"/>
<text x="170.000000" y="50.000000" font-family="Arial" font-size="7" text-anchor="middle" fill="#FFFFFF">-</text>
<circle cx="160.000000" cy="38.000000" r="1"/>
<line x1="155.000000" y1="43.000000" x2="158.000000" y2="44.000000"  transform="rotate(0.000000,158.000000,44.000000)" style="stroke: black; stroke-width:0.25;"/>
<line x1="155.000000" y1="45.000000" x2="158.000000" y2="44.000000"  transform="rotate(0.000000,158.000000,44.000000)" style="stroke: black; stroke-width:0.25;"/>
<line x1="155.000000" y1="51.000000" x2="158.000000" y2="52.000000"  transform="rotate(0.000000,158.000000,52.000000)" style="stroke: black; stroke-width:0.25;"/>
<line x1="155.000000" y1="53.000000" x2="158.000000" y2="52.000000"  transform="rotate(0.000000,158.000000,52.000000)" style="stroke: black; stroke-width:0.25;"/>
<line x1="15.000000" y1="15.000000" x2="15.000000" y2="73.000000"  style="stroke: black; stroke-linecap:round; stroke-width:0.25; stroke-dasharray:3,3;"/>
<line x1="15.000000" y1="73.000000" x2="191.000000" y2="73.000000"  style="stroke: black; stroke-linecap:round; stroke-width:0.25; stroke-dasharray:3,3;"/>
<line x1="191.000000" y1="73.000000" x2="191.000000" y2="15.000000"  style="stroke: black; stroke-linecap:round; stroke-width:0.25; stroke-dasharray:3,3;"/>
<line x1="15.000000" y1="15.000000" x2="20.000000" y2="15.000000"  style="stroke: black; stroke-linecap:round; stroke-width:0.25; stroke-dasharray:3,3;"/>
<line x1="49.025000" y1="15.000000" x2="191.000000" y2="15.000000"  style="stroke: black; stroke-linecap:round; stroke-width:0.25; stroke-dasharray:3,3;"/>
<text x="20.000000" y="17.000000" font-family="Arial" font-size="7">trigger</text>
<line x1="193.000000" y1="23.000000" x2="196.000000" y2="24.000000"  transform="rotate(0.000000,196.000000,24.000000)" style="stroke: black; stroke-width:0.25;"/>
<line x1="193.000000" y1="25.000000" x2="196.000000" y2="24.000000"  transform="rotate(0.000000,196.000000,24.000000)" style="stroke: black; stroke-width:0.25;"/>
<line x1="193.000000" y1="47.000000" x2="196.000000" y2="48.000000"  transform="rotate(0.000000,196.000000,48.000000)" style="stroke: black; stroke-width:0.25;"/>
<line x1="193.000000" y1="49.000000" x2="196.000000" y2="48.000000"  transform="rotate(0.000000,196.000000,48.000000)" style="stroke: black; stroke-width:0.25;"/>
<line x1="10.000000" y1="28.000000" x2="20.000000" y2="28.000000"  style="stroke:black; stroke-linecap:round; stroke-width:0.25;"/>
<line x1="20.000000" y1="28.000000" x2="36.000000" y2="28.000000"  style="stroke:black; stroke-linecap:round; stroke-width:0.25;"/>
<line x1="36.000000" y1="28.000000" x2="52.000000" y2="28.000000"  style="stroke:black; stroke-linecap:round; stroke-width:0.25;"/>
<line x1="48.000000" y1="48.000000" x2="52.000000" y2="48.000000"  style="stroke:black; stroke-linecap:round; stroke-width:0.25;"/>
<line x1="52.000000" y1="28.000000" x2="60.000000" y2="28.000000"  style="stroke:black; stroke-linecap:round; stroke-width:0.25;"/>
<line x1="52.000000" y1="48.000000" x2="60.000000" y2="48.000000"  style="stroke:black; stroke-linecap:round; stroke-width:0.25;"/>
<line x1="60.000000" y1="28.000000" x2="60.000000" y2="40.000000"  style="stroke:black; stroke-linecap:round; stroke-width:0.25;"/>
<line x1="60.000000" y1="40.000000" x2="60.000000" y2="40.000000"  style="stroke:black; stroke-linecap:round; stroke-width:0.25;"/>
<line x1="60.000000" y1="40.000000" x2="64.000000" y2="40.000000"  style="stroke:black; stroke-linecap:round; stroke-width:0.25;"/>
<line x1="60.000000" y1="48.000000" x2="64.000000" y2="48.000000"  style="stroke:black; stroke-linecap:round; stroke-width:0.25;"/>
<line x1="88.000000" y1="44.000000" x2="92.000000" y2="44.000000"  style="stroke:black; stroke-linecap:round; stroke-width:0.25;"/>
<line x1="92.000000" y1="44.000000" x2="114.000000" y2="24.000000"  style="stroke:black; stroke-linecap:round; stroke-width:0.25;"/>
<line x1="92.000000" y1="44.000000" x2="114.000000" y2="32.000000"  style="stroke:black; stroke-linecap:round; stroke-width:0.25;"/>
<line x1="114.000000" y1="24.000000" x2="150.000000" y2="24.000000"  style="stroke:black; stroke-linecap:round; stroke-width:0.25;"/>
<line x1="114.000000" y1="32.000000" x2="130.000000" y2="32.000000"  style="stroke:black; stroke-linecap:round; stroke-width:0.25;"/>
<line x1="130.000000" y1="32.000000" x2="146.000000" y2="32.000000"  style="stroke:black; stroke-linecap:round; stroke-width:0.25;"/>
<line x1="142.000000" y1="52.000000" x2="146.000000" y2="52.000000"  style="stroke:black; stroke-linecap:round; stroke-width:0.25;"/>
<line x1="146.000000" y1="32.000000" x2="154.000000" y2="32.000000"  style="stroke:black; stroke-linecap:round; stroke-width:0.25;"/>
<line x1="146.000000" y1="52.000000" x2="154.000000" y2="52.000000"  style="stroke:black; stroke-linecap:round; stroke-width:0.25;"/>
<line x1="150.000000" y1="24.000000" x2="186.000000" y2="24.000000"  style="stroke:black; stroke-linecap:round; stroke-width:0.25;"/>
<line x1="154.000000" y1="32.000000" x2="154.000000" y2="44.000000"  style="stroke:black; stroke-linecap:round; stroke-width:0.25;"/>
<line x1="154.000000" y1="44.000000" x2="154.000000" y2="44.000000"  style="stroke:black; stroke-linecap:round; stroke-width:0.25;"/>
<line x1="154.000000" y1="44.000000" x2="158.000000" y2="44.000000"  style="stroke:black; stroke-linecap:round; stroke-width:0.25;"/>
<line x1="154.000000" y1="52.000000" x2="158.000000" y2="52.000000"  style="stroke:black; stroke-linecap:round; stroke-width:0.25;"/>
<line x1="182.000000" y1="48.000000" x2="186.000000" y2="48.000000"  style="stroke:black; stroke-linecap:round; stroke-width:0.25;"/>
<line x1="186.000000" y1="24.000000" x2="196.000000" y2="24.000000"  style="stroke:black; stroke-linecap:round; stroke-width:0.25;"/>
<line x1="186.000000" y1="48.000000" x2="196.000000" y2="48.000000"  style="stroke:black; stroke-linecap:round; stroke-width:0.25;"/>
</svg>
