<?xml version="1.0"?>
<svg xmlns="http://www.w3.org/2000/svg" xmlns:xlink="http://www.w3.org/1999/xlink" viewBox="0 0 782.200000 360.000000" width="391.100000mm" height="180.000000mm" version="1.1">
<defs>
   <filter id="filter" filterRes="18" x="0" y="0">
     <feGaussianBlur in="SourceGraphic" stdDeviation="1.55" result="blur"/>
     <feOffset in="blur" dx="3" dy="3"/>
   </filter>
</defs>
<a xlink:href="process.svg">
<rect x="1.000000" y="1.000000" width="781.200000" height="359.000000" rx="0.1" ry="0.1" style="stroke:none;fill:#aaaaaa;;filter:url(#filter);"/>
<rect x="0.000000" y="0.000000" width="781.200000" height="359.000000" rx="0" ry="0" style="stroke:none;fill:#ffffff;"/>
</a>
<text x="10.000000" y="7.000000" font-family="Arial" font-size="7"></text>
<a xlink:href="Early-0x1767050.svg">
<rect x="25.000000" y="169.000000" width="25.800000" height="24.000000" rx="0.1" ry="0.1" style="stroke:none;fill:#aaaaaa;;filter:url(#filter);"/>
<rect x="24.000000" y="168.000000" width="25.800000" height="24.000000" rx="0" ry="0" style="stroke:none;fill:#003366;"/>
</a>
<a xlink:href="Early-0x1767050.svg">
<text x="36.900000" y="182.000000" font-family="Arial" font-size="7" text-anchor="middle" fill="#FFFFFF">Early</text>
</a>
<circle cx="26.000000" cy="170.000000" r="1"/>
<line x1="21.000000" y1="179.000000" x2="24.000000" y2="180.000000"  transform="rotate(0.000000,24.000000,180.000000)" style="stroke: black; stroke-width:0.25;"/>
<line x1="21.000000" y1="181.000000" x2="24.000000" y2="180.000000"  transform="rotate(0.000000,24.000000,180.000000)" style="stroke: black; stroke-width:0.25;"/>
<rect x="156.800000" y="111.000000" width="141.900000" height="24.000000" rx="0.1" ry="0.1" style="stroke:none;fill:#aaaaaa;;filter:url(#filter);"/>
<rect x="155.800000" y="110.000000" width="141.900000" height="24.000000" rx="0" ry="0" style="stroke:none;fill:#477881;"/>
<text x="226.750000" y="124.000000" font-family="Arial" font-size="7" text-anchor="middle" fill="#FFFFFF">hslider(Grains!, 0, 0, 1, 0.01)</text>
<circle cx="157.800000" cy="112.000000" r="1"/>
<line x1="146.800000" y1="101.000000" x2="146.800000" y2="143.000000"  style="stroke: black; stroke-linecap:round; stroke-width:0.25; stroke-dasharray:3,3;"/>
<line x1="146.800000" y1="143.000000" x2="306.700000" y2="143.000000"  style="stroke: black; stroke-linecap:round; stroke-width:0.25; stroke-dasharray:3,3;"/>
<line x1="306.700000" y1="143.000000" x2="306.700000" y2="101.000000"  style="stroke: black; stroke-linecap:round; stroke-width:0.25; stroke-dasharray:3,3;"/>
<line x1="146.800000" y1="101.000000" x2="151.800000" y2="101.000000"  style="stroke: black; stroke-linecap:round; stroke-width:0.25; stroke-dasharray:3,3;"/>
<line x1="196.950000" y1="101.000000" x2="306.700000" y2="101.000000"  style="stroke: black; stroke-linecap:round; stroke-width:0.25; stroke-dasharray:3,3;"/>
<text x="151.800000" y="103.000000" font-family="Arial" font-size="7">GrainyToggle</text>
<rect x="215.750000" y="153.000000" width="24.000000" height="24.000000" rx="0.1" ry="0.1" style="stroke:none;fill:#aaaaaa;;filter:url(#filter);"/>
<rect x="214.750000" y="152.000000" width="24.000000" height="24.000000" rx="0" ry="0" style="stroke:none;fill:#f44800;"/>
<text x="226.750000" y="166.000000" font-family="Arial" font-size="7" text-anchor="middle" fill="#FFFFFF">-1</text>
<circle cx="216.750000" cy="154.000000" r="1"/>
<rect x="324.700000" y="127.000000" width="24.000000" height="24.000000" rx="0.1" ry="0.1" style="stroke:none;fill:#aaaaaa;;filter:url(#filter);"/>
<rect x="323.700000" y="126.000000" width="24.000000" height="24.000000" rx="0" ry="0" style="stroke:none;fill:#4B71A1;"/>
<text x="335.700000" y="140.000000" font-family="Arial" font-size="7" text-anchor="middle" fill="#FFFFFF">*</text>
<circle cx="325.700000" cy="128.000000" r="1"/>
<line x1="320.700000" y1="133.000000" x2="323.700000" y2="134.000000"  transform="rotate(0.000000,323.700000,134.000000)" style="stroke: black; stroke-width:0.25;"/>
<line x1="320.700000" y1="135.000000" x2="323.700000" y2="134.000000"  transform="rotate(0.000000,323.700000,134.000000)" style="stroke: black; stroke-width:0.25;"/>
<line x1="320.700000" y1="141.000000" x2="323.700000" y2="142.000000"  transform="rotate(0.000000,323.700000,142.000000)" style="stroke: black; stroke-width:0.25;"/>
<line x1="320.700000" y1="143.000000" x2="323.700000" y2="142.000000"  transform="rotate(0.000000,323.700000,142.000000)" style="stroke: black; stroke-width:0.25;"/>
<rect x="235.750000" y="185.000000" width="24.000000" height="24.000000" rx="0.1" ry="0.1" style="stroke:none;fill:#aaaaaa;;filter:url(#filter);"/>
<rect x="234.750000" y="184.000000" width="24.000000" height="24.000000" rx="0" ry="0" style="stroke:none;fill:#f44800;"/>
<text x="246.750000" y="198.000000" font-family="Arial" font-size="7" text-anchor="middle" fill="#FFFFFF">1</text>
<circle cx="236.750000" cy="186.000000" r="1"/>
<rect x="364.700000" y="143.000000" width="24.000000" height="24.000000" rx="0.1" ry="0.1" style="stroke:none;fill:#aaaaaa;;filter:url(#filter);"/>
<rect x="363.700000" y="142.000000" width="24.000000" height="24.000000" rx="0" ry="0" style="stroke:none;fill:#4B71A1;"/>
<text x="375.700000" y="156.000000" font-family="Arial" font-size="7" text-anchor="middle" fill="#FFFFFF">+</text>
<circle cx="365.700000" cy="144.000000" r="1"/>
<line x1="360.700000" y1="149.000000" x2="363.700000" y2="150.000000"  transform="rotate(0.000000,363.700000,150.000000)" style="stroke: black; stroke-width:0.25;"/>
<line x1="360.700000" y1="151.000000" x2="363.700000" y2="150.000000"  transform="rotate(0.000000,363.700000,150.000000)" style="stroke: black; stroke-width:0.25;"/>
<line x1="360.700000" y1="157.000000" x2="363.700000" y2="158.000000"  transform="rotate(0.000000,363.700000,158.000000)" style="stroke: black; stroke-width:0.25;"/>
<line x1="360.700000" y1="159.000000" x2="363.700000" y2="158.000000"  transform="rotate(0.000000,363.700000,158.000000)" style="stroke: black; stroke-width:0.25;"/>
<rect x="404.700000" y="139.000000" width="24.000000" height="24.000000" rx="0.1" ry="0.1" style="stroke:none;fill:#aaaaaa;;filter:url(#filter);"/>
<rect x="403.700000" y="138.000000" width="24.000000" height="24.000000" rx="0" ry="0" style="stroke:none;fill:#4B71A1;"/>
<text x="415.700000" y="152.000000" font-family="Arial" font-size="7" text-anchor="middle" fill="#FFFFFF">*</text>
<circle cx="405.700000" cy="140.000000" r="1"/>
<line x1="400.700000" y1="145.000000" x2="403.700000" y2="146.000000"  transform="rotate(0.000000,403.700000,146.000000)" style="stroke: black; stroke-width:0.25;"/>
<line x1="400.700000" y1="147.000000" x2="403.700000" y2="146.000000"  transform="rotate(0.000000,403.700000,146.000000)" style="stroke: black; stroke-width:0.25;"/>
<line x1="400.700000" y1="153.000000" x2="403.700000" y2="154.000000"  transform="rotate(0.000000,403.700000,154.000000)" style="stroke: black; stroke-width:0.25;"/>
<line x1="400.700000" y1="155.000000" x2="403.700000" y2="154.000000"  transform="rotate(0.000000,403.700000,154.000000)" style="stroke: black; stroke-width:0.25;"/>
<rect x="179.900000" y="235.000000" width="141.900000" height="24.000000" rx="0.1" ry="0.1" style="stroke:none;fill:#aaaaaa;;filter:url(#filter);"/>
<rect x="178.900000" y="234.000000" width="141.900000" height="24.000000" rx="0" ry="0" style="stroke:none;fill:#477881;"/>
<text x="249.850000" y="248.000000" font-family="Arial" font-size="7" text-anchor="middle" fill="#FFFFFF">hslider(Grains!, 0, 0, 1, 0.01)</text>
<circle cx="180.900000" cy="236.000000" r="1"/>
<line x1="169.900000" y1="225.000000" x2="169.900000" y2="267.000000"  style="stroke: black; stroke-linecap:round; stroke-width:0.25; stroke-dasharray:3,3;"/>
<line x1="169.900000" y1="267.000000" x2="329.800000" y2="267.000000"  style="stroke: black; stroke-linecap:round; stroke-width:0.25; stroke-dasharray:3,3;"/>
<line x1="329.800000" y1="267.000000" x2="329.800000" y2="225.000000"  style="stroke: black; stroke-linecap:round; stroke-width:0.25; stroke-dasharray:3,3;"/>
<line x1="169.900000" y1="225.000000" x2="174.900000" y2="225.000000"  style="stroke: black; stroke-linecap:round; stroke-width:0.25; stroke-dasharray:3,3;"/>
<line x1="220.050000" y1="225.000000" x2="329.800000" y2="225.000000"  style="stroke: black; stroke-linecap:round; stroke-width:0.25; stroke-dasharray:3,3;"/>
<text x="174.900000" y="227.000000" font-family="Arial" font-size="7">GrainyToggle</text>
<rect x="347.800000" y="231.000000" width="24.000000" height="24.000000" rx="0.1" ry="0.1" style="stroke:none;fill:#aaaaaa;;filter:url(#filter);"/>
<rect x="346.800000" y="230.000000" width="24.000000" height="24.000000" rx="0" ry="0" style="stroke:none;fill:#4B71A1;"/>
<text x="358.800000" y="244.000000" font-family="Arial" font-size="7" text-anchor="middle" fill="#FFFFFF">*</text>
<circle cx="348.800000" cy="232.000000" r="1"/>
<line x1="343.800000" y1="237.000000" x2="346.800000" y2="238.000000"  transform="rotate(0.000000,346.800000,238.000000)" style="stroke: black; stroke-width:0.25;"/>
<line x1="343.800000" y1="239.000000" x2="346.800000" y2="238.000000"  transform="rotate(0.000000,346.800000,238.000000)" style="stroke: black; stroke-width:0.25;"/>
<line x1="343.800000" y1="245.000000" x2="346.800000" y2="246.000000"  transform="rotate(0.000000,346.800000,246.000000)" style="stroke: black; stroke-width:0.25;"/>
<line x1="343.800000" y1="247.000000" x2="346.800000" y2="246.000000"  transform="rotate(0.000000,346.800000,246.000000)" style="stroke: black; stroke-width:0.25;"/>
<a xlink:href="gate-0x1743880.svg">
<rect x="379.800000" y="231.000000" width="25.800000" height="24.000000" rx="0.1" ry="0.1" style="stroke:none;fill:#aaaaaa;;filter:url(#filter);"/>
<rect x="378.800000" y="230.000000" width="25.800000" height="24.000000" rx="0" ry="0" style="stroke:none;fill:#003366;"/>
</a>
<a xlink:href="gate-0x1743880.svg">
<text x="391.700000" y="244.000000" font-family="Arial" font-size="7" text-anchor="middle" fill="#FFFFFF">gate</text>
</a>
<circle cx="380.800000" cy="232.000000" r="1"/>
<line x1="375.800000" y1="241.000000" x2="378.800000" y2="242.000000"  transform="rotate(0.000000,378.800000,242.000000)" style="stroke: black; stroke-width:0.25;"/>
<line x1="375.800000" y1="243.000000" x2="378.800000" y2="242.000000"  transform="rotate(0.000000,378.800000,242.000000)" style="stroke: black; stroke-width:0.25;"/>
<rect x="444.700000" y="169.000000" width="24.000000" height="24.000000" rx="0.1" ry="0.1" style="stroke:none;fill:#aaaaaa;;filter:url(#filter);"/>
<rect x="443.700000" y="168.000000" width="24.000000" height="24.000000" rx="0" ry="0" style="stroke:none;fill:#4B71A1;"/>
<text x="455.700000" y="182.000000" font-family="Arial" font-size="7" text-anchor="middle" fill="#FFFFFF">+</text>
<circle cx="445.700000" cy="170.000000" r="1"/>
<line x1="440.700000" y1="175.000000" x2="443.700000" y2="176.000000"  transform="rotate(0.000000,443.700000,176.000000)" style="stroke: black; stroke-width:0.25;"/>
<line x1="440.700000" y1="177.000000" x2="443.700000" y2="176.000000"  transform="rotate(0.000000,443.700000,176.000000)" style="stroke: black; stroke-width:0.25;"/>
<line x1="440.700000" y1="183.000000" x2="443.700000" y2="184.000000"  transform="rotate(0.000000,443.700000,184.000000)" style="stroke: black; stroke-width:0.25;"/>
<line x1="440.700000" y1="185.000000" x2="443.700000" y2="184.000000"  transform="rotate(0.000000,443.700000,184.000000)" style="stroke: black; stroke-width:0.25;"/>
<a xlink:href="delline1-0x172c510.svg">
<rect x="602.700000" y="25.000000" width="64.500000" height="24.000000" rx="0.1" ry="0.1" style="stroke:none;fill:#aaaaaa;;filter:url(#filter);"/>
<rect x="601.700000" y="24.000000" width="64.500000" height="24.000000" rx="0" ry="0" style="stroke:none;fill:#003366;"/>
</a>
<a xlink:href="delline1-0x172c510.svg">
<text x="633.950000" y="38.000000" font-family="Arial" font-size="7" text-anchor="middle" fill="#FFFFFF">delline1(301)</text>
</a>
<circle cx="603.700000" cy="26.000000" r="1"/>
<line x1="598.700000" y1="35.000000" x2="601.700000" y2="36.000000"  transform="rotate(0.000000,601.700000,36.000000)" style="stroke: black; stroke-width:0.25;"/>
<line x1="598.700000" y1="37.000000" x2="601.700000" y2="36.000000"  transform="rotate(0.000000,601.700000,36.000000)" style="stroke: black; stroke-width:0.25;"/>
<a xlink:href="delline1-0x172abb0.svg">
<rect x="602.700000" y="57.000000" width="64.500000" height="24.000000" rx="0.1" ry="0.1" style="stroke:none;fill:#aaaaaa;;filter:url(#filter);"/>
<rect x="601.700000" y="56.000000" width="64.500000" height="24.000000" rx="0" ry="0" style="stroke:none;fill:#003366;"/>
</a>
<a xlink:href="delline1-0x172abb0.svg">
<text x="633.950000" y="70.000000" font-family="Arial" font-size="7" text-anchor="middle" fill="#FFFFFF">delline1(461)</text>
</a>
<circle cx="603.700000" cy="58.000000" r="1"/>
<line x1="598.700000" y1="67.000000" x2="601.700000" y2="68.000000"  transform="rotate(0.000000,601.700000,68.000000)" style="stroke: black; stroke-width:0.25;"/>
<line x1="598.700000" y1="69.000000" x2="601.700000" y2="68.000000"  transform="rotate(0.000000,601.700000,68.000000)" style="stroke: black; stroke-width:0.25;"/>
<a xlink:href="delline1-0x1729250.svg">
<rect x="602.700000" y="89.000000" width="64.500000" height="24.000000" rx="0.1" ry="0.1" style="stroke:none;fill:#aaaaaa;;filter:url(#filter);"/>
<rect x="601.700000" y="88.000000" width="64.500000" height="24.000000" rx="0" ry="0" style="stroke:none;fill:#003366;"/>
</a>
<a xlink:href="delline1-0x1729250.svg">
<text x="633.950000" y="102.000000" font-family="Arial" font-size="7" text-anchor="middle" fill="#FFFFFF">delline1(1025)</text>
</a>
<circle cx="603.700000" cy="90.000000" r="1"/>
<line x1="598.700000" y1="99.000000" x2="601.700000" y2="100.000000"  transform="rotate(0.000000,601.700000,100.000000)" style="stroke: black; stroke-width:0.25;"/>
<line x1="598.700000" y1="101.000000" x2="601.700000" y2="100.000000"  transform="rotate(0.000000,601.700000,100.000000)" style="stroke: black; stroke-width:0.25;"/>
<a xlink:href="delline1-0x17278f0.svg">
<rect x="602.700000" y="121.000000" width="64.500000" height="24.000000" rx="0.1" ry="0.1" style="stroke:none;fill:#aaaaaa;;filter:url(#filter);"/>
<rect x="601.700000" y="120.000000" width="64.500000" height="24.000000" rx="0" ry="0" style="stroke:none;fill:#003366;"/>
</a>
<a xlink:href="delline1-0x17278f0.svg">
<text x="633.950000" y="134.000000" font-family="Arial" font-size="7" text-anchor="middle" fill="#FFFFFF">delline1(1317)</text>
</a>
<circle cx="603.700000" cy="122.000000" r="1"/>
<line x1="598.700000" y1="131.000000" x2="601.700000" y2="132.000000"  transform="rotate(0.000000,601.700000,132.000000)" style="stroke: black; stroke-width:0.25;"/>
<line x1="598.700000" y1="133.000000" x2="601.700000" y2="132.000000"  transform="rotate(0.000000,601.700000,132.000000)" style="stroke: black; stroke-width:0.25;"/>
<a xlink:href="delline1-0x1725f90.svg">
<rect x="602.700000" y="153.000000" width="64.500000" height="24.000000" rx="0.1" ry="0.1" style="stroke:none;fill:#aaaaaa;;filter:url(#filter);"/>
<rect x="601.700000" y="152.000000" width="64.500000" height="24.000000" rx="0" ry="0" style="stroke:none;fill:#003366;"/>
</a>
<a xlink:href="delline1-0x1725f90.svg">
<text x="633.950000" y="166.000000" font-family="Arial" font-size="7" text-anchor="middle" fill="#FFFFFF">delline1(1723)</text>
</a>
<circle cx="603.700000" cy="154.000000" r="1"/>
<line x1="598.700000" y1="163.000000" x2="601.700000" y2="164.000000"  transform="rotate(0.000000,601.700000,164.000000)" style="stroke: black; stroke-width:0.25;"/>
<line x1="598.700000" y1="165.000000" x2="601.700000" y2="164.000000"  transform="rotate(0.000000,601.700000,164.000000)" style="stroke: black; stroke-width:0.25;"/>
<a xlink:href="delline1-0x1724630.svg">
<rect x="602.700000" y="185.000000" width="64.500000" height="24.000000" rx="0.1" ry="0.1" style="stroke:none;fill:#aaaaaa;;filter:url(#filter);"/>
<rect x="601.700000" y="184.000000" width="64.500000" height="24.000000" rx="0" ry="0" style="stroke:none;fill:#003366;"/>
</a>
<a xlink:href="delline1-0x1724630.svg">
<text x="633.950000" y="198.000000" font-family="Arial" font-size="7" text-anchor="middle" fill="#FFFFFF">delline1(2317)</text>
</a>
<circle cx="603.700000" cy="186.000000" r="1"/>
<line x1="598.700000" y1="195.000000" x2="601.700000" y2="196.000000"  transform="rotate(0.000000,601.700000,196.000000)" style="stroke: black; stroke-width:0.25;"/>
<line x1="598.700000" y1="197.000000" x2="601.700000" y2="196.000000"  transform="rotate(0.000000,601.700000,196.000000)" style="stroke: black; stroke-width:0.25;"/>
<a xlink:href="delline1-0x1722cd0.svg">
<rect x="602.700000" y="217.000000" width="64.500000" height="24.000000" rx="0.1" ry="0.1" style="stroke:none;fill:#aaaaaa;;filter:url(#filter);"/>
<rect x="601.700000" y="216.000000" width="64.500000" height="24.000000" rx="0" ry="0" style="stroke:none;fill:#003366;"/>
</a>
<a xlink:href="delline1-0x1722cd0.svg">
<text x="633.950000" y="230.000000" font-family="Arial" font-size="7" text-anchor="middle" fill="#FFFFFF">delline1(2913)</text>
</a>
<circle cx="603.700000" cy="218.000000" r="1"/>
<line x1="598.700000" y1="227.000000" x2="601.700000" y2="228.000000"  transform="rotate(0.000000,601.700000,228.000000)" style="stroke: black; stroke-width:0.25;"/>
<line x1="598.700000" y1="229.000000" x2="601.700000" y2="228.000000"  transform="rotate(0.000000,601.700000,228.000000)" style="stroke: black; stroke-width:0.25;"/>
<a xlink:href="delline1-0x1721370.svg">
<rect x="602.700000" y="249.000000" width="64.500000" height="24.000000" rx="0.1" ry="0.1" style="stroke:none;fill:#aaaaaa;;filter:url(#filter);"/>
<rect x="601.700000" y="248.000000" width="64.500000" height="24.000000" rx="0" ry="0" style="stroke:none;fill:#003366;"/>
</a>
<a xlink:href="delline1-0x1721370.svg">
<text x="633.950000" y="262.000000" font-family="Arial" font-size="7" text-anchor="middle" fill="#FFFFFF">delline1(506)</text>
</a>
<circle cx="603.700000" cy="250.000000" r="1"/>
<line x1="598.700000" y1="259.000000" x2="601.700000" y2="260.000000"  transform="rotate(0.000000,601.700000,260.000000)" style="stroke: black; stroke-width:0.25;"/>
<line x1="598.700000" y1="261.000000" x2="601.700000" y2="260.000000"  transform="rotate(0.000000,601.700000,260.000000)" style="stroke: black; stroke-width:0.25;"/>
<a xlink:href="delline1-0x171f9e0.svg">
<rect x="602.700000" y="281.000000" width="64.500000" height="24.000000" rx="0.1" ry="0.1" style="stroke:none;fill:#aaaaaa;;filter:url(#filter);"/>
<rect x="601.700000" y="280.000000" width="64.500000" height="24.000000" rx="0" ry="0" style="stroke:none;fill:#003366;"/>
</a>
<a xlink:href="delline1-0x171f9e0.svg">
<text x="633.950000" y="294.000000" font-family="Arial" font-size="7" text-anchor="middle" fill="#FFFFFF">delline1(2600)</text>
</a>
<circle cx="603.700000" cy="282.000000" r="1"/>
<line x1="598.700000" y1="291.000000" x2="601.700000" y2="292.000000"  transform="rotate(0.000000,601.700000,292.000000)" style="stroke: black; stroke-width:0.25;"/>
<line x1="598.700000" y1="293.000000" x2="601.700000" y2="292.000000"  transform="rotate(0.000000,601.700000,292.000000)" style="stroke: black; stroke-width:0.25;"/>
<a xlink:href="delline1-0x171e150.svg">
<rect x="602.700000" y="313.000000" width="64.500000" height="24.000000" rx="0.1" ry="0.1" style="stroke:none;fill:#aaaaaa;;filter:url(#filter);"/>
<rect x="601.700000" y="312.000000" width="64.500000" height="24.000000" rx="0" ry="0" style="stroke:none;fill:#003366;"/>
</a>
<a xlink:href="delline1-0x171e150.svg">
<text x="633.950000" y="326.000000" font-family="Arial" font-size="7" text-anchor="middle" fill="#FFFFFF">delline1(3131)</text>
</a>
<circle cx="603.700000" cy="314.000000" r="1"/>
<line x1="598.700000" y1="323.000000" x2="601.700000" y2="324.000000"  transform="rotate(0.000000,601.700000,324.000000)" style="stroke: black; stroke-width:0.25;"/>
<line x1="598.700000" y1="325.000000" x2="601.700000" y2="324.000000"  transform="rotate(0.000000,601.700000,324.000000)" style="stroke: black; stroke-width:0.25;"/>
<line x1="15.000000" y1="15.000000" x2="15.000000" y2="345.000000"  style="stroke: black; stroke-linecap:round; stroke-width:0.25; stroke-dasharray:3,3;"/>
<line x1="15.000000" y1="345.000000" x2="767.200000" y2="345.000000"  style="stroke: black; stroke-linecap:round; stroke-width:0.25; stroke-dasharray:3,3;"/>
<line x1="767.200000" y1="345.000000" x2="767.200000" y2="15.000000"  style="stroke: black; stroke-linecap:round; stroke-width:0.25; stroke-dasharray:3,3;"/>
<line x1="15.000000" y1="15.000000" x2="20.000000" y2="15.000000"  style="stroke: black; stroke-linecap:round; stroke-width:0.25; stroke-dasharray:3,3;"/>
<line x1="58.700000" y1="15.000000" x2="767.200000" y2="15.000000"  style="stroke: black; stroke-linecap:round; stroke-width:0.25; stroke-dasharray:3,3;"/>
<text x="20.000000" y="17.000000" font-family="Arial" font-size="7">Febaroute2</text>
<line x1="769.200000" y1="175.000000" x2="772.200000" y2="176.000000"  transform="rotate(0.000000,772.200000,176.000000)" style="stroke: black; stroke-width:0.25;"/>
<line x1="769.200000" y1="177.000000" x2="772.200000" y2="176.000000"  transform="rotate(0.000000,772.200000,176.000000)" style="stroke: black; stroke-width:0.25;"/>
<line x1="769.200000" y1="183.000000" x2="772.200000" y2="184.000000"  transform="rotate(0.000000,772.200000,184.000000)" style="stroke: black; stroke-width:0.25;"/>
<line x1="769.200000" y1="185.000000" x2="772.200000" y2="184.000000"  transform="rotate(0.000000,772.200000,184.000000)" style="stroke: black; stroke-width:0.25;"/>
<line x1="10.000000" y1="180.000000" x2="20.000000" y2="180.000000"  style="stroke:black; stroke-linecap:round; stroke-width:0.25;"/>
<line x1="20.000000" y1="180.000000" x2="24.000000" y2="180.000000"  style="stroke:black; stroke-linecap:round; stroke-width:0.25;"/>
<line x1="49.800000" y1="176.000000" x2="53.800000" y2="176.000000"  style="stroke:black; stroke-linecap:round; stroke-width:0.25;"/>
<line x1="49.800000" y1="184.000000" x2="53.800000" y2="184.000000"  style="stroke:black; stroke-linecap:round; stroke-width:0.25;"/>
<line x1="53.800000" y1="176.000000" x2="141.800000" y2="92.000000"  style="stroke:black; stroke-linecap:round; stroke-width:0.25;"/>
<line x1="53.800000" y1="184.000000" x2="141.800000" y2="216.000000"  style="stroke:black; stroke-linecap:round; stroke-width:0.25;"/>
<line x1="141.800000" y1="92.000000" x2="266.750000" y2="92.000000"  style="stroke:black; stroke-linecap:round; stroke-width:0.25;"/>
<line x1="141.800000" y1="216.000000" x2="164.900000" y2="216.000000"  style="stroke:black; stroke-linecap:round; stroke-width:0.25;"/>
<line x1="164.900000" y1="216.000000" x2="249.850000" y2="216.000000"  style="stroke:black; stroke-linecap:round; stroke-width:0.25;"/>
<line x1="238.750000" y1="164.000000" x2="242.750000" y2="164.000000"  style="stroke:black; stroke-linecap:round; stroke-width:0.25;"/>
<line x1="242.750000" y1="164.000000" x2="311.700000" y2="164.000000"  style="stroke:black; stroke-linecap:round; stroke-width:0.25;"/>
<line x1="249.850000" y1="216.000000" x2="334.800000" y2="216.000000"  style="stroke:black; stroke-linecap:round; stroke-width:0.25;"/>
<line x1="258.750000" y1="196.000000" x2="262.750000" y2="196.000000"  style="stroke:black; stroke-linecap:round; stroke-width:0.25;"/>
<line x1="262.750000" y1="196.000000" x2="351.700000" y2="196.000000"  style="stroke:black; stroke-linecap:round; stroke-width:0.25;"/>
<line x1="266.750000" y1="92.000000" x2="391.700000" y2="92.000000"  style="stroke:black; stroke-linecap:round; stroke-width:0.25;"/>
<line x1="297.700000" y1="122.000000" x2="301.700000" y2="122.000000"  style="stroke:black; stroke-linecap:round; stroke-width:0.25;"/>
<line x1="301.700000" y1="122.000000" x2="311.700000" y2="122.000000"  style="stroke:black; stroke-linecap:round; stroke-width:0.25;"/>
<line x1="311.700000" y1="142.000000" x2="319.700000" y2="142.000000"  style="stroke:black; stroke-linecap:round; stroke-width:0.25;"/>
<line x1="311.700000" y1="164.000000" x2="311.700000" y2="142.000000"  style="stroke:black; stroke-linecap:round; stroke-width:0.25;"/>
<line x1="311.700000" y1="164.000000" x2="311.700000" y2="164.000000"  style="stroke:black; stroke-linecap:round; stroke-width:0.25;"/>
<line x1="311.700000" y1="122.000000" x2="319.700000" y2="122.000000"  style="stroke:black; stroke-linecap:round; stroke-width:0.25;"/>
<line x1="319.700000" y1="122.000000" x2="319.700000" y2="134.000000"  style="stroke:black; stroke-linecap:round; stroke-width:0.25;"/>
<line x1="319.700000" y1="134.000000" x2="319.700000" y2="134.000000"  style="stroke:black; stroke-linecap:round; stroke-width:0.25;"/>
<line x1="319.700000" y1="134.000000" x2="323.700000" y2="134.000000"  style="stroke:black; stroke-linecap:round; stroke-width:0.25;"/>
<line x1="319.700000" y1="142.000000" x2="323.700000" y2="142.000000"  style="stroke:black; stroke-linecap:round; stroke-width:0.25;"/>
<line x1="320.800000" y1="246.000000" x2="324.800000" y2="246.000000"  style="stroke:black; stroke-linecap:round; stroke-width:0.25;"/>
<line x1="324.800000" y1="246.000000" x2="334.800000" y2="246.000000"  style="stroke:black; stroke-linecap:round; stroke-width:0.25;"/>
<line x1="334.800000" y1="216.000000" x2="342.800000" y2="216.000000"  style="stroke:black; stroke-linecap:round; stroke-width:0.25;"/>
<line x1="334.800000" y1="246.000000" x2="342.800000" y2="246.000000"  style="stroke:black; stroke-linecap:round; stroke-width:0.25;"/>
<line x1="342.800000" y1="216.000000" x2="342.800000" y2="238.000000"  style="stroke:black; stroke-linecap:round; stroke-width:0.25;"/>
<line x1="342.800000" y1="238.000000" x2="342.800000" y2="238.000000"  style="stroke:black; stroke-linecap:round; stroke-width:0.25;"/>
<line x1="342.800000" y1="238.000000" x2="346.800000" y2="238.000000"  style="stroke:black; stroke-linecap:round; stroke-width:0.25;"/>
<line x1="342.800000" y1="246.000000" x2="346.800000" y2="246.000000"  style="stroke:black; stroke-linecap:round; stroke-width:0.25;"/>
<line x1="347.700000" y1="138.000000" x2="351.700000" y2="138.000000"  style="stroke:black; stroke-linecap:round; stroke-width:0.25;"/>
<line x1="351.700000" y1="158.000000" x2="359.700000" y2="158.000000"  style="stroke:black; stroke-linecap:round; stroke-width:0.25;"/>
<line x1="351.700000" y1="196.000000" x2="351.700000" y2="158.000000"  style="stroke:black; stroke-linecap:round; stroke-width:0.25;"/>
<line x1="351.700000" y1="196.000000" x2="351.700000" y2="196.000000"  style="stroke:black; stroke-linecap:round; stroke-width:0.25;"/>
<line x1="351.700000" y1="138.000000" x2="359.700000" y2="138.000000"  style="stroke:black; stroke-linecap:round; stroke-width:0.25;"/>
<line x1="359.700000" y1="138.000000" x2="359.700000" y2="150.000000"  style="stroke:black; stroke-linecap:round; stroke-width:0.25;"/>
<line x1="359.700000" y1="150.000000" x2="359.700000" y2="150.000000"  style="stroke:black; stroke-linecap:round; stroke-width:0.25;"/>
<line x1="359.700000" y1="150.000000" x2="363.700000" y2="150.000000"  style="stroke:black; stroke-linecap:round; stroke-width:0.25;"/>
<line x1="359.700000" y1="158.000000" x2="363.700000" y2="158.000000"  style="stroke:black; stroke-linecap:round; stroke-width:0.25;"/>
<line x1="370.800000" y1="242.000000" x2="374.800000" y2="242.000000"  style="stroke:black; stroke-linecap:round; stroke-width:0.25;"/>
<line x1="374.800000" y1="242.000000" x2="374.800000" y2="242.000000"  style="stroke:black; stroke-linecap:round; stroke-width:0.25;"/>
<line x1="374.800000" y1="242.000000" x2="378.800000" y2="242.000000"  style="stroke:black; stroke-linecap:round; stroke-width:0.25;"/>
<line x1="387.700000" y1="154.000000" x2="391.700000" y2="154.000000"  style="stroke:black; stroke-linecap:round; stroke-width:0.25;"/>
<line x1="391.700000" y1="92.000000" x2="399.700000" y2="92.000000"  style="stroke:black; stroke-linecap:round; stroke-width:0.25;"/>
<line x1="391.700000" y1="154.000000" x2="399.700000" y2="154.000000"  style="stroke:black; stroke-linecap:round; stroke-width:0.25;"/>
<line x1="399.700000" y1="92.000000" x2="399.700000" y2="146.000000"  style="stroke:black; stroke-linecap:round; stroke-width:0.25;"/>
<line x1="399.700000" y1="146.000000" x2="399.700000" y2="146.000000"  style="stroke:black; stroke-linecap:round; stroke-width:0.25;"/>
<line x1="399.700000" y1="146.000000" x2="403.700000" y2="146.000000"  style="stroke:black; stroke-linecap:round; stroke-width:0.25;"/>
<line x1="399.700000" y1="154.000000" x2="403.700000" y2="154.000000"  style="stroke:black; stroke-linecap:round; stroke-width:0.25;"/>
<line x1="404.600000" y1="242.000000" x2="408.600000" y2="242.000000"  style="stroke:black; stroke-linecap:round; stroke-width:0.25;"/>
<line x1="408.600000" y1="242.000000" x2="431.700000" y2="242.000000"  style="stroke:black; stroke-linecap:round; stroke-width:0.25;"/>
<line x1="427.700000" y1="150.000000" x2="431.700000" y2="150.000000"  style="stroke:black; stroke-linecap:round; stroke-width:0.25;"/>
<line x1="431.700000" y1="150.000000" x2="439.700000" y2="150.000000"  style="stroke:black; stroke-linecap:round; stroke-width:0.25;"/>
<line x1="431.700000" y1="184.000000" x2="439.700000" y2="184.000000"  style="stroke:black; stroke-linecap:round; stroke-width:0.25;"/>
<line x1="431.700000" y1="242.000000" x2="431.700000" y2="184.000000"  style="stroke:black; stroke-linecap:round; stroke-width:0.25;"/>
<line x1="431.700000" y1="242.000000" x2="431.700000" y2="242.000000"  style="stroke:black; stroke-linecap:round; stroke-width:0.25;"/>
<line x1="439.700000" y1="176.000000" x2="443.700000" y2="176.000000"  style="stroke:black; stroke-linecap:round; stroke-width:0.25;"/>
<line x1="439.700000" y1="184.000000" x2="443.700000" y2="184.000000"  style="stroke:black; stroke-linecap:round; stroke-width:0.25;"/>
<line x1="439.700000" y1="150.000000" x2="439.700000" y2="176.000000"  style="stroke:black; stroke-linecap:round; stroke-width:0.25;"/>
<line x1="439.700000" y1="176.000000" x2="439.700000" y2="176.000000"  style="stroke:black; stroke-linecap:round; stroke-width:0.25;"/>
<line x1="467.700000" y1="180.000000" x2="471.700000" y2="180.000000"  style="stroke:black; stroke-linecap:round; stroke-width:0.25;"/>
<line x1="471.700000" y1="180.000000" x2="597.700000" y2="36.000000"  style="stroke:black; stroke-linecap:round; stroke-width:0.25;"/>
<line x1="471.700000" y1="180.000000" x2="597.700000" y2="68.000000"  style="stroke:black; stroke-linecap:round; stroke-width:0.25;"/>
<line x1="471.700000" y1="180.000000" x2="597.700000" y2="100.000000"  style="stroke:black; stroke-linecap:round; stroke-width:0.25;"/>
<line x1="471.700000" y1="180.000000" x2="597.700000" y2="132.000000"  style="stroke:black; stroke-linecap:round; stroke-width:0.25;"/>
<line x1="471.700000" y1="180.000000" x2="597.700000" y2="164.000000"  style="stroke:black; stroke-linecap:round; stroke-width:0.25;"/>
<line x1="471.700000" y1="180.000000" x2="597.700000" y2="196.000000"  style="stroke:black; stroke-linecap:round; stroke-width:0.25;"/>
<line x1="471.700000" y1="180.000000" x2="597.700000" y2="228.000000"  style="stroke:black; stroke-linecap:round; stroke-width:0.25;"/>
<line x1="471.700000" y1="180.000000" x2="597.700000" y2="260.000000"  style="stroke:black; stroke-linecap:round; stroke-width:0.25;"/>
<line x1="471.700000" y1="180.000000" x2="597.700000" y2="292.000000"  style="stroke:black; stroke-linecap:round; stroke-width:0.25;"/>
<line x1="471.700000" y1="180.000000" x2="597.700000" y2="324.000000"  style="stroke:black; stroke-linecap:round; stroke-width:0.25;"/>
<line x1="597.700000" y1="36.000000" x2="601.700000" y2="36.000000"  style="stroke:black; stroke-linecap:round; stroke-width:0.25;"/>
<line x1="597.700000" y1="68.000000" x2="601.700000" y2="68.000000"  style="stroke:black; stroke-linecap:round; stroke-width:0.25;"/>
<line x1="597.700000" y1="100.000000" x2="601.700000" y2="100.000000"  style="stroke:black; stroke-linecap:round; stroke-width:0.25;"/>
<line x1="597.700000" y1="132.000000" x2="601.700000" y2="132.000000"  style="stroke:black; stroke-linecap:round; stroke-width:0.25;"/>
<line x1="597.700000" y1="164.000000" x2="601.700000" y2="164.000000"  style="stroke:black; stroke-linecap:round; stroke-width:0.25;"/>
<line x1="597.700000" y1="196.000000" x2="601.700000" y2="196.000000"  style="stroke:black; stroke-linecap:round; stroke-width:0.25;"/>
<line x1="597.700000" y1="228.000000" x2="601.700000" y2="228.000000"  style="stroke:black; stroke-linecap:round; stroke-width:0.25;"/>
<line x1="597.700000" y1="260.000000" x2="601.700000" y2="260.000000"  style="stroke:black; stroke-linecap:round; stroke-width:0.25;"/>
<line x1="597.700000" y1="292.000000" x2="601.700000" y2="292.000000"  style="stroke:black; stroke-linecap:round; stroke-width:0.25;"/>
<line x1="597.700000" y1="324.000000" x2="601.700000" y2="324.000000"  style="stroke:black; stroke-linecap:round; stroke-width:0.25;"/>
<line x1="666.200000" y1="36.000000" x2="670.200000" y2="36.000000"  style="stroke:black; stroke-linecap:round; stroke-width:0.25;"/>
<line x1="666.200000" y1="68.000000" x2="670.200000" y2="68.000000"  style="stroke:black; stroke-linecap:round; stroke-width:0.25;"/>
<line x1="666.200000" y1="100.000000" x2="670.200000" y2="100.000000"  style="stroke:black; stroke-linecap:round; stroke-width:0.25;"/>
<line x1="666.200000" y1="132.000000" x2="670.200000" y2="132.000000"  style="stroke:black; stroke-linecap:round; stroke-width:0.25;"/>
<line x1="666.200000" y1="164.000000" x2="670.200000" y2="164.000000"  style="stroke:black; stroke-linecap:round; stroke-width:0.25;"/>
<line x1="666.200000" y1="196.000000" x2="670.200000" y2="196.000000"  style="stroke:black; stroke-linecap:round; stroke-width:0.25;"/>
<line x1="666.200000" y1="228.000000" x2="670.200000" y2="228.000000"  style="stroke:black; stroke-linecap:round; stroke-width:0.25;"/>
<line x1="666.200000" y1="260.000000" x2="670.200000" y2="260.000000"  style="stroke:black; stroke-linecap:round; stroke-width:0.25;"/>
<line x1="666.200000" y1="292.000000" x2="670.200000" y2="292.000000"  style="stroke:black; stroke-linecap:round; stroke-width:0.25;"/>
<line x1="666.200000" y1="324.000000" x2="670.200000" y2="324.000000"  style="stroke:black; stroke-linecap:round; stroke-width:0.25;"/>
<line x1="670.200000" y1="36.000000" x2="754.200000" y2="176.000000"  style="stroke:black; stroke-linecap:round; stroke-width:0.25;"/>
<line x1="670.200000" y1="68.000000" x2="754.200000" y2="184.000000"  style="stroke:black; stroke-linecap:round; stroke-width:0.25;"/>
<line x1="670.200000" y1="100.000000" x2="754.200000" y2="176.000000"  style="stroke:black; stroke-linecap:round; stroke-width:0.25;"/>
<line x1="670.200000" y1="132.000000" x2="754.200000" y2="184.000000"  style="stroke:black; stroke-linecap:round; stroke-width:0.25;"/>
<line x1="670.200000" y1="164.000000" x2="754.200000" y2="176.000000"  style="stroke:black; stroke-linecap:round; stroke-width:0.25;"/>
<line x1="670.200000" y1="196.000000" x2="754.200000" y2="184.000000"  style="stroke:black; stroke-linecap:round; stroke-width:0.25;"/>
<line x1="670.200000" y1="228.000000" x2="754.200000" y2="176.000000"  style="stroke:black; stroke-linecap:round; stroke-width:0.25;"/>
<line x1="670.200000" y1="260.000000" x2="754.200000" y2="184.000000"  style="stroke:black; stroke-linecap:round; stroke-width:0.25;"/>
<line x1="670.200000" y1="292.000000" x2="754.200000" y2="176.000000"  style="stroke:black; stroke-linecap:round; stroke-width:0.25;"/>
<line x1="670.200000" y1="324.000000" x2="754.200000" y2="184.000000"  style="stroke:black; stroke-linecap:round; stroke-width:0.25;"/>
<line x1="754.200000" y1="176.000000" x2="758.200000" y2="176.000000"  style="stroke:black; stroke-linecap:round; stroke-width:0.25;"/>
<line x1="754.200000" y1="184.000000" x2="758.200000" y2="184.000000"  style="stroke:black; stroke-linecap:round; stroke-width:0.25;"/>
<line x1="758.200000" y1="176.000000" x2="762.200000" y2="176.000000"  style="stroke:black; stroke-linecap:round; stroke-width:0.25;"/>
<line x1="758.200000" y1="184.000000" x2="762.200000" y2="184.000000"  style="stroke:black; stroke-linecap:round; stroke-width:0.25;"/>
<line x1="762.200000" y1="176.000000" x2="772.200000" y2="176.000000"  style="stroke:black; stroke-linecap:round; stroke-width:0.25;"/>
<line x1="762.200000" y1="184.000000" x2="772.200000" y2="184.000000"  style="stroke:black; stroke-linecap:round; stroke-width:0.25;"/>
</svg>
