<?xml version="1.0"?>
<svg xmlns="http://www.w3.org/2000/svg" xmlns:xlink="http://www.w3.org/1999/xlink" viewBox="0 0 717.700000 360.000000" width="358.850000mm" height="180.000000mm" version="1.1">
<defs>
   <filter id="filter" filterRes="18" x="0" y="0">
     <feGaussianBlur in="SourceGraphic" stdDeviation="1.55" result="blur"/>
     <feOffset in="blur" dx="3" dy="3"/>
   </filter>
</defs>
<a xlink:href="process.svg">
<rect x="1.000000" y="1.000000" width="716.700000" height="359.000000" rx="0.1" ry="0.1" style="stroke:none;fill:#aaaaaa;;filter:url(#filter);"/>
<rect x="0.000000" y="0.000000" width="716.700000" height="359.000000" rx="0" ry="0" style="stroke:none;fill:#ffffff;"/>
</a>
<text x="10.000000" y="7.000000" font-family="Arial" font-size="7"></text>
<a xlink:href="Early-0x2a5ae70.svg">
<rect x="25.000000" y="169.000000" width="25.800000" height="24.000000" rx="0.1" ry="0.1" style="stroke:none;fill:#aaaaaa;;filter:url(#filter);"/>
<rect x="24.000000" y="168.000000" width="25.800000" height="24.000000" rx="0" ry="0" style="stroke:none;fill:#003366;"/>
</a>
<a xlink:href="Early-0x2a5ae70.svg">
<text x="36.900000" y="182.000000" font-family="Arial" font-size="7" text-anchor="middle" fill="#FFFFFF">Early</text>
</a>
<circle cx="26.000000" cy="170.000000" r="1"/>
<line x1="21.000000" y1="179.000000" x2="24.000000" y2="180.000000"  transform="rotate(0.000000,24.000000,180.000000)" style="stroke: black; stroke-width:0.25;"/>
<line x1="21.000000" y1="181.000000" x2="24.000000" y2="180.000000"  transform="rotate(0.000000,24.000000,180.000000)" style="stroke: black; stroke-width:0.25;"/>
<rect x="156.800000" y="111.000000" width="77.400000" height="24.000000" rx="0.1" ry="0.1" style="stroke:none;fill:#aaaaaa;;filter:url(#filter);"/>
<rect x="155.800000" y="110.000000" width="77.400000" height="24.000000" rx="0" ry="0" style="stroke:none;fill:#477881;"/>
<text x="194.500000" y="124.000000" font-family="Arial" font-size="7" text-anchor="middle" fill="#FFFFFF">checkbox(Grains!)</text>
<circle cx="157.800000" cy="112.000000" r="1"/>
<line x1="146.800000" y1="101.000000" x2="146.800000" y2="143.000000"  style="stroke: black; stroke-linecap:round; stroke-width:0.25; stroke-dasharray:3,3;"/>
<line x1="146.800000" y1="143.000000" x2="242.200000" y2="143.000000"  style="stroke: black; stroke-linecap:round; stroke-width:0.25; stroke-dasharray:3,3;"/>
<line x1="242.200000" y1="143.000000" x2="242.200000" y2="101.000000"  style="stroke: black; stroke-linecap:round; stroke-width:0.25; stroke-dasharray:3,3;"/>
<line x1="146.800000" y1="101.000000" x2="151.800000" y2="101.000000"  style="stroke: black; stroke-linecap:round; stroke-width:0.25; stroke-dasharray:3,3;"/>
<line x1="196.950000" y1="101.000000" x2="242.200000" y2="101.000000"  style="stroke: black; stroke-linecap:round; stroke-width:0.25; stroke-dasharray:3,3;"/>
<text x="151.800000" y="103.000000" font-family="Arial" font-size="7">GrainyToggle</text>
<rect x="183.500000" y="153.000000" width="24.000000" height="24.000000" rx="0.1" ry="0.1" style="stroke:none;fill:#aaaaaa;;filter:url(#filter);"/>
<rect x="182.500000" y="152.000000" width="24.000000" height="24.000000" rx="0" ry="0" style="stroke:none;fill:#f44800;"/>
<text x="194.500000" y="166.000000" font-family="Arial" font-size="7" text-anchor="middle" fill="#FFFFFF">-1</text>
<circle cx="184.500000" cy="154.000000" r="1"/>
<rect x="260.200000" y="127.000000" width="24.000000" height="24.000000" rx="0.1" ry="0.1" style="stroke:none;fill:#aaaaaa;;filter:url(#filter);"/>
<rect x="259.200000" y="126.000000" width="24.000000" height="24.000000" rx="0" ry="0" style="stroke:none;fill:#4B71A1;"/>
<text x="271.200000" y="140.000000" font-family="Arial" font-size="7" text-anchor="middle" fill="#FFFFFF">*</text>
<circle cx="261.200000" cy="128.000000" r="1"/>
<line x1="256.200000" y1="133.000000" x2="259.200000" y2="134.000000"  transform="rotate(0.000000,259.200000,134.000000)" style="stroke: black; stroke-width:0.25;"/>
<line x1="256.200000" y1="135.000000" x2="259.200000" y2="134.000000"  transform="rotate(0.000000,259.200000,134.000000)" style="stroke: black; stroke-width:0.25;"/>
<line x1="256.200000" y1="141.000000" x2="259.200000" y2="142.000000"  transform="rotate(0.000000,259.200000,142.000000)" style="stroke: black; stroke-width:0.25;"/>
<line x1="256.200000" y1="143.000000" x2="259.200000" y2="142.000000"  transform="rotate(0.000000,259.200000,142.000000)" style="stroke: black; stroke-width:0.25;"/>
<rect x="203.500000" y="185.000000" width="24.000000" height="24.000000" rx="0.1" ry="0.1" style="stroke:none;fill:#aaaaaa;;filter:url(#filter);"/>
<rect x="202.500000" y="184.000000" width="24.000000" height="24.000000" rx="0" ry="0" style="stroke:none;fill:#f44800;"/>
<text x="214.500000" y="198.000000" font-family="Arial" font-size="7" text-anchor="middle" fill="#FFFFFF">1</text>
<circle cx="204.500000" cy="186.000000" r="1"/>
<rect x="300.200000" y="143.000000" width="24.000000" height="24.000000" rx="0.1" ry="0.1" style="stroke:none;fill:#aaaaaa;;filter:url(#filter);"/>
<rect x="299.200000" y="142.000000" width="24.000000" height="24.000000" rx="0" ry="0" style="stroke:none;fill:#4B71A1;"/>
<text x="311.200000" y="156.000000" font-family="Arial" font-size="7" text-anchor="middle" fill="#FFFFFF">+</text>
<circle cx="301.200000" cy="144.000000" r="1"/>
<line x1="296.200000" y1="149.000000" x2="299.200000" y2="150.000000"  transform="rotate(0.000000,299.200000,150.000000)" style="stroke: black; stroke-width:0.25;"/>
<line x1="296.200000" y1="151.000000" x2="299.200000" y2="150.000000"  transform="rotate(0.000000,299.200000,150.000000)" style="stroke: black; stroke-width:0.25;"/>
<line x1="296.200000" y1="157.000000" x2="299.200000" y2="158.000000"  transform="rotate(0.000000,299.200000,158.000000)" style="stroke: black; stroke-width:0.25;"/>
<line x1="296.200000" y1="159.000000" x2="299.200000" y2="158.000000"  transform="rotate(0.000000,299.200000,158.000000)" style="stroke: black; stroke-width:0.25;"/>
<rect x="340.200000" y="139.000000" width="24.000000" height="24.000000" rx="0.1" ry="0.1" style="stroke:none;fill:#aaaaaa;;filter:url(#filter);"/>
<rect x="339.200000" y="138.000000" width="24.000000" height="24.000000" rx="0" ry="0" style="stroke:none;fill:#4B71A1;"/>
<text x="351.200000" y="152.000000" font-family="Arial" font-size="7" text-anchor="middle" fill="#FFFFFF">*</text>
<circle cx="341.200000" cy="140.000000" r="1"/>
<line x1="336.200000" y1="145.000000" x2="339.200000" y2="146.000000"  transform="rotate(0.000000,339.200000,146.000000)" style="stroke: black; stroke-width:0.25;"/>
<line x1="336.200000" y1="147.000000" x2="339.200000" y2="146.000000"  transform="rotate(0.000000,339.200000,146.000000)" style="stroke: black; stroke-width:0.25;"/>
<line x1="336.200000" y1="153.000000" x2="339.200000" y2="154.000000"  transform="rotate(0.000000,339.200000,154.000000)" style="stroke: black; stroke-width:0.25;"/>
<line x1="336.200000" y1="155.000000" x2="339.200000" y2="154.000000"  transform="rotate(0.000000,339.200000,154.000000)" style="stroke: black; stroke-width:0.25;"/>
<rect x="179.900000" y="235.000000" width="77.400000" height="24.000000" rx="0.1" ry="0.1" style="stroke:none;fill:#aaaaaa;;filter:url(#filter);"/>
<rect x="178.900000" y="234.000000" width="77.400000" height="24.000000" rx="0" ry="0" style="stroke:none;fill:#477881;"/>
<text x="217.600000" y="248.000000" font-family="Arial" font-size="7" text-anchor="middle" fill="#FFFFFF">checkbox(Grains!)</text>
<circle cx="180.900000" cy="236.000000" r="1"/>
<line x1="169.900000" y1="225.000000" x2="169.900000" y2="267.000000"  style="stroke: black; stroke-linecap:round; stroke-width:0.25; stroke-dasharray:3,3;"/>
<line x1="169.900000" y1="267.000000" x2="265.300000" y2="267.000000"  style="stroke: black; stroke-linecap:round; stroke-width:0.25; stroke-dasharray:3,3;"/>
<line x1="265.300000" y1="267.000000" x2="265.300000" y2="225.000000"  style="stroke: black; stroke-linecap:round; stroke-width:0.25; stroke-dasharray:3,3;"/>
<line x1="169.900000" y1="225.000000" x2="174.900000" y2="225.000000"  style="stroke: black; stroke-linecap:round; stroke-width:0.25; stroke-dasharray:3,3;"/>
<line x1="220.050000" y1="225.000000" x2="265.300000" y2="225.000000"  style="stroke: black; stroke-linecap:round; stroke-width:0.25; stroke-dasharray:3,3;"/>
<text x="174.900000" y="227.000000" font-family="Arial" font-size="7">GrainyToggle</text>
<rect x="283.300000" y="231.000000" width="24.000000" height="24.000000" rx="0.1" ry="0.1" style="stroke:none;fill:#aaaaaa;;filter:url(#filter);"/>
<rect x="282.300000" y="230.000000" width="24.000000" height="24.000000" rx="0" ry="0" style="stroke:none;fill:#4B71A1;"/>
<text x="294.300000" y="244.000000" font-family="Arial" font-size="7" text-anchor="middle" fill="#FFFFFF">*</text>
<circle cx="284.300000" cy="232.000000" r="1"/>
<line x1="279.300000" y1="237.000000" x2="282.300000" y2="238.000000"  transform="rotate(0.000000,282.300000,238.000000)" style="stroke: black; stroke-width:0.25;"/>
<line x1="279.300000" y1="239.000000" x2="282.300000" y2="238.000000"  transform="rotate(0.000000,282.300000,238.000000)" style="stroke: black; stroke-width:0.25;"/>
<line x1="279.300000" y1="245.000000" x2="282.300000" y2="246.000000"  transform="rotate(0.000000,282.300000,246.000000)" style="stroke: black; stroke-width:0.25;"/>
<line x1="279.300000" y1="247.000000" x2="282.300000" y2="246.000000"  transform="rotate(0.000000,282.300000,246.000000)" style="stroke: black; stroke-width:0.25;"/>
<a xlink:href="gate-0x2a377e0.svg">
<rect x="315.300000" y="231.000000" width="25.800000" height="24.000000" rx="0.1" ry="0.1" style="stroke:none;fill:#aaaaaa;;filter:url(#filter);"/>
<rect x="314.300000" y="230.000000" width="25.800000" height="24.000000" rx="0" ry="0" style="stroke:none;fill:#003366;"/>
</a>
<a xlink:href="gate-0x2a377e0.svg">
<text x="327.200000" y="244.000000" font-family="Arial" font-size="7" text-anchor="middle" fill="#FFFFFF">gate</text>
</a>
<circle cx="316.300000" cy="232.000000" r="1"/>
<line x1="311.300000" y1="241.000000" x2="314.300000" y2="242.000000"  transform="rotate(0.000000,314.300000,242.000000)" style="stroke: black; stroke-width:0.25;"/>
<line x1="311.300000" y1="243.000000" x2="314.300000" y2="242.000000"  transform="rotate(0.000000,314.300000,242.000000)" style="stroke: black; stroke-width:0.25;"/>
<rect x="380.200000" y="169.000000" width="24.000000" height="24.000000" rx="0.1" ry="0.1" style="stroke:none;fill:#aaaaaa;;filter:url(#filter);"/>
<rect x="379.200000" y="168.000000" width="24.000000" height="24.000000" rx="0" ry="0" style="stroke:none;fill:#4B71A1;"/>
<text x="391.200000" y="182.000000" font-family="Arial" font-size="7" text-anchor="middle" fill="#FFFFFF">+</text>
<circle cx="381.200000" cy="170.000000" r="1"/>
<line x1="376.200000" y1="175.000000" x2="379.200000" y2="176.000000"  transform="rotate(0.000000,379.200000,176.000000)" style="stroke: black; stroke-width:0.25;"/>
<line x1="376.200000" y1="177.000000" x2="379.200000" y2="176.000000"  transform="rotate(0.000000,379.200000,176.000000)" style="stroke: black; stroke-width:0.25;"/>
<line x1="376.200000" y1="183.000000" x2="379.200000" y2="184.000000"  transform="rotate(0.000000,379.200000,184.000000)" style="stroke: black; stroke-width:0.25;"/>
<line x1="376.200000" y1="185.000000" x2="379.200000" y2="184.000000"  transform="rotate(0.000000,379.200000,184.000000)" style="stroke: black; stroke-width:0.25;"/>
<a xlink:href="delline1-0x2a20470.svg">
<rect x="538.200000" y="25.000000" width="64.500000" height="24.000000" rx="0.1" ry="0.1" style="stroke:none;fill:#aaaaaa;;filter:url(#filter);"/>
<rect x="537.200000" y="24.000000" width="64.500000" height="24.000000" rx="0" ry="0" style="stroke:none;fill:#003366;"/>
</a>
<a xlink:href="delline1-0x2a20470.svg">
<text x="569.450000" y="38.000000" font-family="Arial" font-size="7" text-anchor="middle" fill="#FFFFFF">delline1(301)</text>
</a>
<circle cx="539.200000" cy="26.000000" r="1"/>
<line x1="534.200000" y1="35.000000" x2="537.200000" y2="36.000000"  transform="rotate(0.000000,537.200000,36.000000)" style="stroke: black; stroke-width:0.25;"/>
<line x1="534.200000" y1="37.000000" x2="537.200000" y2="36.000000"  transform="rotate(0.000000,537.200000,36.000000)" style="stroke: black; stroke-width:0.25;"/>
<a xlink:href="delline1-0x2a1eb10.svg">
<rect x="538.200000" y="57.000000" width="64.500000" height="24.000000" rx="0.1" ry="0.1" style="stroke:none;fill:#aaaaaa;;filter:url(#filter);"/>
<rect x="537.200000" y="56.000000" width="64.500000" height="24.000000" rx="0" ry="0" style="stroke:none;fill:#003366;"/>
</a>
<a xlink:href="delline1-0x2a1eb10.svg">
<text x="569.450000" y="70.000000" font-family="Arial" font-size="7" text-anchor="middle" fill="#FFFFFF">delline1(461)</text>
</a>
<circle cx="539.200000" cy="58.000000" r="1"/>
<line x1="534.200000" y1="67.000000" x2="537.200000" y2="68.000000"  transform="rotate(0.000000,537.200000,68.000000)" style="stroke: black; stroke-width:0.25;"/>
<line x1="534.200000" y1="69.000000" x2="537.200000" y2="68.000000"  transform="rotate(0.000000,537.200000,68.000000)" style="stroke: black; stroke-width:0.25;"/>
<a xlink:href="delline1-0x2a1d1b0.svg">
<rect x="538.200000" y="89.000000" width="64.500000" height="24.000000" rx="0.1" ry="0.1" style="stroke:none;fill:#aaaaaa;;filter:url(#filter);"/>
<rect x="537.200000" y="88.000000" width="64.500000" height="24.000000" rx="0" ry="0" style="stroke:none;fill:#003366;"/>
</a>
<a xlink:href="delline1-0x2a1d1b0.svg">
<text x="569.450000" y="102.000000" font-family="Arial" font-size="7" text-anchor="middle" fill="#FFFFFF">delline1(1025)</text>
</a>
<circle cx="539.200000" cy="90.000000" r="1"/>
<line x1="534.200000" y1="99.000000" x2="537.200000" y2="100.000000"  transform="rotate(0.000000,537.200000,100.000000)" style="stroke: black; stroke-width:0.25;"/>
<line x1="534.200000" y1="101.000000" x2="537.200000" y2="100.000000"  transform="rotate(0.000000,537.200000,100.000000)" style="stroke: black; stroke-width:0.25;"/>
<a xlink:href="delline1-0x2a1b850.svg">
<rect x="538.200000" y="121.000000" width="64.500000" height="24.000000" rx="0.1" ry="0.1" style="stroke:none;fill:#aaaaaa;;filter:url(#filter);"/>
<rect x="537.200000" y="120.000000" width="64.500000" height="24.000000" rx="0" ry="0" style="stroke:none;fill:#003366;"/>
</a>
<a xlink:href="delline1-0x2a1b850.svg">
<text x="569.450000" y="134.000000" font-family="Arial" font-size="7" text-anchor="middle" fill="#FFFFFF">delline1(1317)</text>
</a>
<circle cx="539.200000" cy="122.000000" r="1"/>
<line x1="534.200000" y1="131.000000" x2="537.200000" y2="132.000000"  transform="rotate(0.000000,537.200000,132.000000)" style="stroke: black; stroke-width:0.25;"/>
<line x1="534.200000" y1="133.000000" x2="537.200000" y2="132.000000"  transform="rotate(0.000000,537.200000,132.000000)" style="stroke: black; stroke-width:0.25;"/>
<a xlink:href="delline1-0x2a19ef0.svg">
<rect x="538.200000" y="153.000000" width="64.500000" height="24.000000" rx="0.1" ry="0.1" style="stroke:none;fill:#aaaaaa;;filter:url(#filter);"/>
<rect x="537.200000" y="152.000000" width="64.500000" height="24.000000" rx="0" ry="0" style="stroke:none;fill:#003366;"/>
</a>
<a xlink:href="delline1-0x2a19ef0.svg">
<text x="569.450000" y="166.000000" font-family="Arial" font-size="7" text-anchor="middle" fill="#FFFFFF">delline1(1723)</text>
</a>
<circle cx="539.200000" cy="154.000000" r="1"/>
<line x1="534.200000" y1="163.000000" x2="537.200000" y2="164.000000"  transform="rotate(0.000000,537.200000,164.000000)" style="stroke: black; stroke-width:0.25;"/>
<line x1="534.200000" y1="165.000000" x2="537.200000" y2="164.000000"  transform="rotate(0.000000,537.200000,164.000000)" style="stroke: black; stroke-width:0.25;"/>
<a xlink:href="delline1-0x2a18590.svg">
<rect x="538.200000" y="185.000000" width="64.500000" height="24.000000" rx="0.1" ry="0.1" style="stroke:none;fill:#aaaaaa;;filter:url(#filter);"/>
<rect x="537.200000" y="184.000000" width="64.500000" height="24.000000" rx="0" ry="0" style="stroke:none;fill:#003366;"/>
</a>
<a xlink:href="delline1-0x2a18590.svg">
<text x="569.450000" y="198.000000" font-family="Arial" font-size="7" text-anchor="middle" fill="#FFFFFF">delline1(2317)</text>
</a>
<circle cx="539.200000" cy="186.000000" r="1"/>
<line x1="534.200000" y1="195.000000" x2="537.200000" y2="196.000000"  transform="rotate(0.000000,537.200000,196.000000)" style="stroke: black; stroke-width:0.25;"/>
<line x1="534.200000" y1="197.000000" x2="537.200000" y2="196.000000"  transform="rotate(0.000000,537.200000,196.000000)" style="stroke: black; stroke-width:0.25;"/>
<a xlink:href="delline1-0x2a16c30.svg">
<rect x="538.200000" y="217.000000" width="64.500000" height="24.000000" rx="0.1" ry="0.1" style="stroke:none;fill:#aaaaaa;;filter:url(#filter);"/>
<rect x="537.200000" y="216.000000" width="64.500000" height="24.000000" rx="0" ry="0" style="stroke:none;fill:#003366;"/>
</a>
<a xlink:href="delline1-0x2a16c30.svg">
<text x="569.450000" y="230.000000" font-family="Arial" font-size="7" text-anchor="middle" fill="#FFFFFF">delline1(2913)</text>
</a>
<circle cx="539.200000" cy="218.000000" r="1"/>
<line x1="534.200000" y1="227.000000" x2="537.200000" y2="228.000000"  transform="rotate(0.000000,537.200000,228.000000)" style="stroke: black; stroke-width:0.25;"/>
<line x1="534.200000" y1="229.000000" x2="537.200000" y2="228.000000"  transform="rotate(0.000000,537.200000,228.000000)" style="stroke: black; stroke-width:0.25;"/>
<a xlink:href="delline1-0x2a152d0.svg">
<rect x="538.200000" y="249.000000" width="64.500000" height="24.000000" rx="0.1" ry="0.1" style="stroke:none;fill:#aaaaaa;;filter:url(#filter);"/>
<rect x="537.200000" y="248.000000" width="64.500000" height="24.000000" rx="0" ry="0" style="stroke:none;fill:#003366;"/>
</a>
<a xlink:href="delline1-0x2a152d0.svg">
<text x="569.450000" y="262.000000" font-family="Arial" font-size="7" text-anchor="middle" fill="#FFFFFF">delline1(506)</text>
</a>
<circle cx="539.200000" cy="250.000000" r="1"/>
<line x1="534.200000" y1="259.000000" x2="537.200000" y2="260.000000"  transform="rotate(0.000000,537.200000,260.000000)" style="stroke: black; stroke-width:0.25;"/>
<line x1="534.200000" y1="261.000000" x2="537.200000" y2="260.000000"  transform="rotate(0.000000,537.200000,260.000000)" style="stroke: black; stroke-width:0.25;"/>
<a xlink:href="delline1-0x2a13940.svg">
<rect x="538.200000" y="281.000000" width="64.500000" height="24.000000" rx="0.1" ry="0.1" style="stroke:none;fill:#aaaaaa;;filter:url(#filter);"/>
<rect x="537.200000" y="280.000000" width="64.500000" height="24.000000" rx="0" ry="0" style="stroke:none;fill:#003366;"/>
</a>
<a xlink:href="delline1-0x2a13940.svg">
<text x="569.450000" y="294.000000" font-family="Arial" font-size="7" text-anchor="middle" fill="#FFFFFF">delline1(2600)</text>
</a>
<circle cx="539.200000" cy="282.000000" r="1"/>
<line x1="534.200000" y1="291.000000" x2="537.200000" y2="292.000000"  transform="rotate(0.000000,537.200000,292.000000)" style="stroke: black; stroke-width:0.25;"/>
<line x1="534.200000" y1="293.000000" x2="537.200000" y2="292.000000"  transform="rotate(0.000000,537.200000,292.000000)" style="stroke: black; stroke-width:0.25;"/>
<a xlink:href="delline1-0x2a120b0.svg">
<rect x="538.200000" y="313.000000" width="64.500000" height="24.000000" rx="0.1" ry="0.1" style="stroke:none;fill:#aaaaaa;;filter:url(#filter);"/>
<rect x="537.200000" y="312.000000" width="64.500000" height="24.000000" rx="0" ry="0" style="stroke:none;fill:#003366;"/>
</a>
<a xlink:href="delline1-0x2a120b0.svg">
<text x="569.450000" y="326.000000" font-family="Arial" font-size="7" text-anchor="middle" fill="#FFFFFF">delline1(3131)</text>
</a>
<circle cx="539.200000" cy="314.000000" r="1"/>
<line x1="534.200000" y1="323.000000" x2="537.200000" y2="324.000000"  transform="rotate(0.000000,537.200000,324.000000)" style="stroke: black; stroke-width:0.25;"/>
<line x1="534.200000" y1="325.000000" x2="537.200000" y2="324.000000"  transform="rotate(0.000000,537.200000,324.000000)" style="stroke: black; stroke-width:0.25;"/>
<line x1="15.000000" y1="15.000000" x2="15.000000" y2="345.000000"  style="stroke: black; stroke-linecap:round; stroke-width:0.25; stroke-dasharray:3,3;"/>
<line x1="15.000000" y1="345.000000" x2="702.700000" y2="345.000000"  style="stroke: black; stroke-linecap:round; stroke-width:0.25; stroke-dasharray:3,3;"/>
<line x1="702.700000" y1="345.000000" x2="702.700000" y2="15.000000"  style="stroke: black; stroke-linecap:round; stroke-width:0.25; stroke-dasharray:3,3;"/>
<line x1="15.000000" y1="15.000000" x2="20.000000" y2="15.000000"  style="stroke: black; stroke-linecap:round; stroke-width:0.25; stroke-dasharray:3,3;"/>
<line x1="58.700000" y1="15.000000" x2="702.700000" y2="15.000000"  style="stroke: black; stroke-linecap:round; stroke-width:0.25; stroke-dasharray:3,3;"/>
<text x="20.000000" y="17.000000" font-family="Arial" font-size="7">Febaroute2</text>
<line x1="704.700000" y1="175.000000" x2="707.700000" y2="176.000000"  transform="rotate(0.000000,707.700000,176.000000)" style="stroke: black; stroke-width:0.25;"/>
<line x1="704.700000" y1="177.000000" x2="707.700000" y2="176.000000"  transform="rotate(0.000000,707.700000,176.000000)" style="stroke: black; stroke-width:0.25;"/>
<line x1="704.700000" y1="183.000000" x2="707.700000" y2="184.000000"  transform="rotate(0.000000,707.700000,184.000000)" style="stroke: black; stroke-width:0.25;"/>
<line x1="704.700000" y1="185.000000" x2="707.700000" y2="184.000000"  transform="rotate(0.000000,707.700000,184.000000)" style="stroke: black; stroke-width:0.25;"/>
<line x1="10.000000" y1="180.000000" x2="20.000000" y2="180.000000"  style="stroke:black; stroke-linecap:round; stroke-width:0.25;"/>
<line x1="20.000000" y1="180.000000" x2="24.000000" y2="180.000000"  style="stroke:black; stroke-linecap:round; stroke-width:0.25;"/>
<line x1="49.800000" y1="176.000000" x2="53.800000" y2="176.000000"  style="stroke:black; stroke-linecap:round; stroke-width:0.25;"/>
<line x1="49.800000" y1="184.000000" x2="53.800000" y2="184.000000"  style="stroke:black; stroke-linecap:round; stroke-width:0.25;"/>
<line x1="53.800000" y1="176.000000" x2="141.800000" y2="92.000000"  style="stroke:black; stroke-linecap:round; stroke-width:0.25;"/>
<line x1="53.800000" y1="184.000000" x2="141.800000" y2="216.000000"  style="stroke:black; stroke-linecap:round; stroke-width:0.25;"/>
<line x1="141.800000" y1="92.000000" x2="234.500000" y2="92.000000"  style="stroke:black; stroke-linecap:round; stroke-width:0.25;"/>
<line x1="141.800000" y1="216.000000" x2="164.900000" y2="216.000000"  style="stroke:black; stroke-linecap:round; stroke-width:0.25;"/>
<line x1="164.900000" y1="216.000000" x2="217.600000" y2="216.000000"  style="stroke:black; stroke-linecap:round; stroke-width:0.25;"/>
<line x1="206.500000" y1="164.000000" x2="210.500000" y2="164.000000"  style="stroke:black; stroke-linecap:round; stroke-width:0.25;"/>
<line x1="210.500000" y1="164.000000" x2="247.200000" y2="164.000000"  style="stroke:black; stroke-linecap:round; stroke-width:0.25;"/>
<line x1="217.600000" y1="216.000000" x2="270.300000" y2="216.000000"  style="stroke:black; stroke-linecap:round; stroke-width:0.25;"/>
<line x1="226.500000" y1="196.000000" x2="230.500000" y2="196.000000"  style="stroke:black; stroke-linecap:round; stroke-width:0.25;"/>
<line x1="230.500000" y1="196.000000" x2="287.200000" y2="196.000000"  style="stroke:black; stroke-linecap:round; stroke-width:0.25;"/>
<line x1="233.200000" y1="122.000000" x2="237.200000" y2="122.000000"  style="stroke:black; stroke-linecap:round; stroke-width:0.25;"/>
<line x1="234.500000" y1="92.000000" x2="327.200000" y2="92.000000"  style="stroke:black; stroke-linecap:round; stroke-width:0.25;"/>
<line x1="237.200000" y1="122.000000" x2="247.200000" y2="122.000000"  style="stroke:black; stroke-linecap:round; stroke-width:0.25;"/>
<line x1="247.200000" y1="122.000000" x2="255.200000" y2="122.000000"  style="stroke:black; stroke-linecap:round; stroke-width:0.25;"/>
<line x1="247.200000" y1="142.000000" x2="255.200000" y2="142.000000"  style="stroke:black; stroke-linecap:round; stroke-width:0.25;"/>
<line x1="247.200000" y1="164.000000" x2="247.200000" y2="142.000000"  style="stroke:black; stroke-linecap:round; stroke-width:0.25;"/>
<line x1="247.200000" y1="164.000000" x2="247.200000" y2="164.000000"  style="stroke:black; stroke-linecap:round; stroke-width:0.25;"/>
<line x1="255.200000" y1="122.000000" x2="255.200000" y2="134.000000"  style="stroke:black; stroke-linecap:round; stroke-width:0.25;"/>
<line x1="255.200000" y1="134.000000" x2="255.200000" y2="134.000000"  style="stroke:black; stroke-linecap:round; stroke-width:0.25;"/>
<line x1="255.200000" y1="134.000000" x2="259.200000" y2="134.000000"  style="stroke:black; stroke-linecap:round; stroke-width:0.25;"/>
<line x1="255.200000" y1="142.000000" x2="259.200000" y2="142.000000"  style="stroke:black; stroke-linecap:round; stroke-width:0.25;"/>
<line x1="256.300000" y1="246.000000" x2="260.300000" y2="246.000000"  style="stroke:black; stroke-linecap:round; stroke-width:0.25;"/>
<line x1="260.300000" y1="246.000000" x2="270.300000" y2="246.000000"  style="stroke:black; stroke-linecap:round; stroke-width:0.25;"/>
<line x1="270.300000" y1="216.000000" x2="278.300000" y2="216.000000"  style="stroke:black; stroke-linecap:round; stroke-width:0.25;"/>
<line x1="270.300000" y1="246.000000" x2="278.300000" y2="246.000000"  style="stroke:black; stroke-linecap:round; stroke-width:0.25;"/>
<line x1="278.300000" y1="216.000000" x2="278.300000" y2="238.000000"  style="stroke:black; stroke-linecap:round; stroke-width:0.25;"/>
<line x1="278.300000" y1="238.000000" x2="278.300000" y2="238.000000"  style="stroke:black; stroke-linecap:round; stroke-width:0.25;"/>
<line x1="278.300000" y1="238.000000" x2="282.300000" y2="238.000000"  style="stroke:black; stroke-linecap:round; stroke-width:0.25;"/>
<line x1="278.300000" y1="246.000000" x2="282.300000" y2="246.000000"  style="stroke:black; stroke-linecap:round; stroke-width:0.25;"/>
<line x1="283.200000" y1="138.000000" x2="287.200000" y2="138.000000"  style="stroke:black; stroke-linecap:round; stroke-width:0.25;"/>
<line x1="287.200000" y1="138.000000" x2="295.200000" y2="138.000000"  style="stroke:black; stroke-linecap:round; stroke-width:0.25;"/>
<line x1="287.200000" y1="158.000000" x2="295.200000" y2="158.000000"  style="stroke:black; stroke-linecap:round; stroke-width:0.25;"/>
<line x1="287.200000" y1="196.000000" x2="287.200000" y2="158.000000"  style="stroke:black; stroke-linecap:round; stroke-width:0.25;"/>
<line x1="287.200000" y1="196.000000" x2="287.200000" y2="196.000000"  style="stroke:black; stroke-linecap:round; stroke-width:0.25;"/>
<line x1="295.200000" y1="138.000000" x2="295.200000" y2="150.000000"  style="stroke:black; stroke-linecap:round; stroke-width:0.25;"/>
<line x1="295.200000" y1="150.000000" x2="295.200000" y2="150.000000"  style="stroke:black; stroke-linecap:round; stroke-width:0.25;"/>
<line x1="295.200000" y1="150.000000" x2="299.200000" y2="150.000000"  style="stroke:black; stroke-linecap:round; stroke-width:0.25;"/>
<line x1="295.200000" y1="158.000000" x2="299.200000" y2="158.000000"  style="stroke:black; stroke-linecap:round; stroke-width:0.25;"/>
<line x1="306.300000" y1="242.000000" x2="310.300000" y2="242.000000"  style="stroke:black; stroke-linecap:round; stroke-width:0.25;"/>
<line x1="310.300000" y1="242.000000" x2="314.300000" y2="242.000000"  style="stroke:black; stroke-linecap:round; stroke-width:0.25;"/>
<line x1="310.300000" y1="242.000000" x2="310.300000" y2="242.000000"  style="stroke:black; stroke-linecap:round; stroke-width:0.25;"/>
<line x1="323.200000" y1="154.000000" x2="327.200000" y2="154.000000"  style="stroke:black; stroke-linecap:round; stroke-width:0.25;"/>
<line x1="327.200000" y1="92.000000" x2="335.200000" y2="92.000000"  style="stroke:black; stroke-linecap:round; stroke-width:0.25;"/>
<line x1="327.200000" y1="154.000000" x2="335.200000" y2="154.000000"  style="stroke:black; stroke-linecap:round; stroke-width:0.25;"/>
<line x1="335.200000" y1="92.000000" x2="335.200000" y2="146.000000"  style="stroke:black; stroke-linecap:round; stroke-width:0.25;"/>
<line x1="335.200000" y1="146.000000" x2="335.200000" y2="146.000000"  style="stroke:black; stroke-linecap:round; stroke-width:0.25;"/>
<line x1="335.200000" y1="146.000000" x2="339.200000" y2="146.000000"  style="stroke:black; stroke-linecap:round; stroke-width:0.25;"/>
<line x1="335.200000" y1="154.000000" x2="339.200000" y2="154.000000"  style="stroke:black; stroke-linecap:round; stroke-width:0.25;"/>
<line x1="340.100000" y1="242.000000" x2="344.100000" y2="242.000000"  style="stroke:black; stroke-linecap:round; stroke-width:0.25;"/>
<line x1="344.100000" y1="242.000000" x2="367.200000" y2="242.000000"  style="stroke:black; stroke-linecap:round; stroke-width:0.25;"/>
<line x1="363.200000" y1="150.000000" x2="367.200000" y2="150.000000"  style="stroke:black; stroke-linecap:round; stroke-width:0.25;"/>
<line x1="367.200000" y1="184.000000" x2="375.200000" y2="184.000000"  style="stroke:black; stroke-linecap:round; stroke-width:0.25;"/>
<line x1="367.200000" y1="242.000000" x2="367.200000" y2="184.000000"  style="stroke:black; stroke-linecap:round; stroke-width:0.25;"/>
<line x1="367.200000" y1="242.000000" x2="367.200000" y2="242.000000"  style="stroke:black; stroke-linecap:round; stroke-width:0.25;"/>
<line x1="367.200000" y1="150.000000" x2="375.200000" y2="150.000000"  style="stroke:black; stroke-linecap:round; stroke-width:0.25;"/>
<line x1="375.200000" y1="150.000000" x2="375.200000" y2="176.000000"  style="stroke:black; stroke-linecap:round; stroke-width:0.25;"/>
<line x1="375.200000" y1="176.000000" x2="375.200000" y2="176.000000"  style="stroke:black; stroke-linecap:round; stroke-width:0.25;"/>
<line x1="375.200000" y1="176.000000" x2="379.200000" y2="176.000000"  style="stroke:black; stroke-linecap:round; stroke-width:0.25;"/>
<line x1="375.200000" y1="184.000000" x2="379.200000" y2="184.000000"  style="stroke:black; stroke-linecap:round; stroke-width:0.25;"/>
<line x1="403.200000" y1="180.000000" x2="407.200000" y2="180.000000"  style="stroke:black; stroke-linecap:round; stroke-width:0.25;"/>
<line x1="407.200000" y1="180.000000" x2="533.200000" y2="36.000000"  style="stroke:black; stroke-linecap:round; stroke-width:0.25;"/>
<line x1="407.200000" y1="180.000000" x2="533.200000" y2="68.000000"  style="stroke:black; stroke-linecap:round; stroke-width:0.25;"/>
<line x1="407.200000" y1="180.000000" x2="533.200000" y2="100.000000"  style="stroke:black; stroke-linecap:round; stroke-width:0.25;"/>
<line x1="407.200000" y1="180.000000" x2="533.200000" y2="132.000000"  style="stroke:black; stroke-linecap:round; stroke-width:0.25;"/>
<line x1="407.200000" y1="180.000000" x2="533.200000" y2="164.000000"  style="stroke:black; stroke-linecap:round; stroke-width:0.25;"/>
<line x1="407.200000" y1="180.000000" x2="533.200000" y2="196.000000"  style="stroke:black; stroke-linecap:round; stroke-width:0.25;"/>
<line x1="407.200000" y1="180.000000" x2="533.200000" y2="228.000000"  style="stroke:black; stroke-linecap:round; stroke-width:0.25;"/>
<line x1="407.200000" y1="180.000000" x2="533.200000" y2="260.000000"  style="stroke:black; stroke-linecap:round; stroke-width:0.25;"/>
<line x1="407.200000" y1="180.000000" x2="533.200000" y2="292.000000"  style="stroke:black; stroke-linecap:round; stroke-width:0.25;"/>
<line x1="407.200000" y1="180.000000" x2="533.200000" y2="324.000000"  style="stroke:black; stroke-linecap:round; stroke-width:0.25;"/>
<line x1="533.200000" y1="36.000000" x2="537.200000" y2="36.000000"  style="stroke:black; stroke-linecap:round; stroke-width:0.25;"/>
<line x1="533.200000" y1="68.000000" x2="537.200000" y2="68.000000"  style="stroke:black; stroke-linecap:round; stroke-width:0.25;"/>
<line x1="533.200000" y1="100.000000" x2="537.200000" y2="100.000000"  style="stroke:black; stroke-linecap:round; stroke-width:0.25;"/>
<line x1="533.200000" y1="132.000000" x2="537.200000" y2="132.000000"  style="stroke:black; stroke-linecap:round; stroke-width:0.25;"/>
<line x1="533.200000" y1="164.000000" x2="537.200000" y2="164.000000"  style="stroke:black; stroke-linecap:round; stroke-width:0.25;"/>
<line x1="533.200000" y1="196.000000" x2="537.200000" y2="196.000000"  style="stroke:black; stroke-linecap:round; stroke-width:0.25;"/>
<line x1="533.200000" y1="228.000000" x2="537.200000" y2="228.000000"  style="stroke:black; stroke-linecap:round; stroke-width:0.25;"/>
<line x1="533.200000" y1="260.000000" x2="537.200000" y2="260.000000"  style="stroke:black; stroke-linecap:round; stroke-width:0.25;"/>
<line x1="533.200000" y1="292.000000" x2="537.200000" y2="292.000000"  style="stroke:black; stroke-linecap:round; stroke-width:0.25;"/>
<line x1="533.200000" y1="324.000000" x2="537.200000" y2="324.000000"  style="stroke:black; stroke-linecap:round; stroke-width:0.25;"/>
<line x1="601.700000" y1="36.000000" x2="605.700000" y2="36.000000"  style="stroke:black; stroke-linecap:round; stroke-width:0.25;"/>
<line x1="601.700000" y1="68.000000" x2="605.700000" y2="68.000000"  style="stroke:black; stroke-linecap:round; stroke-width:0.25;"/>
<line x1="601.700000" y1="100.000000" x2="605.700000" y2="100.000000"  style="stroke:black; stroke-linecap:round; stroke-width:0.25;"/>
<line x1="601.700000" y1="132.000000" x2="605.700000" y2="132.000000"  style="stroke:black; stroke-linecap:round; stroke-width:0.25;"/>
<line x1="601.700000" y1="164.000000" x2="605.700000" y2="164.000000"  style="stroke:black; stroke-linecap:round; stroke-width:0.25;"/>
<line x1="601.700000" y1="196.000000" x2="605.700000" y2="196.000000"  style="stroke:black; stroke-linecap:round; stroke-width:0.25;"/>
<line x1="601.700000" y1="228.000000" x2="605.700000" y2="228.000000"  style="stroke:black; stroke-linecap:round; stroke-width:0.25;"/>
<line x1="601.700000" y1="260.000000" x2="605.700000" y2="260.000000"  style="stroke:black; stroke-linecap:round; stroke-width:0.25;"/>
<line x1="601.700000" y1="292.000000" x2="605.700000" y2="292.000000"  style="stroke:black; stroke-linecap:round; stroke-width:0.25;"/>
<line x1="601.700000" y1="324.000000" x2="605.700000" y2="324.000000"  style="stroke:black; stroke-linecap:round; stroke-width:0.25;"/>
<line x1="605.700000" y1="36.000000" x2="689.700000" y2="176.000000"  style="stroke:black; stroke-linecap:round; stroke-width:0.25;"/>
<line x1="605.700000" y1="68.000000" x2="689.700000" y2="184.000000"  style="stroke:black; stroke-linecap:round; stroke-width:0.25;"/>
<line x1="605.700000" y1="100.000000" x2="689.700000" y2="176.000000"  style="stroke:black; stroke-linecap:round; stroke-width:0.25;"/>
<line x1="605.700000" y1="132.000000" x2="689.700000" y2="184.000000"  style="stroke:black; stroke-linecap:round; stroke-width:0.25;"/>
<line x1="605.700000" y1="164.000000" x2="689.700000" y2="176.000000"  style="stroke:black; stroke-linecap:round; stroke-width:0.25;"/>
<line x1="605.700000" y1="196.000000" x2="689.700000" y2="184.000000"  style="stroke:black; stroke-linecap:round; stroke-width:0.25;"/>
<line x1="605.700000" y1="228.000000" x2="689.700000" y2="176.000000"  style="stroke:black; stroke-linecap:round; stroke-width:0.25;"/>
<line x1="605.700000" y1="260.000000" x2="689.700000" y2="184.000000"  style="stroke:black; stroke-linecap:round; stroke-width:0.25;"/>
<line x1="605.700000" y1="292.000000" x2="689.700000" y2="176.000000"  style="stroke:black; stroke-linecap:round; stroke-width:0.25;"/>
<line x1="605.700000" y1="324.000000" x2="689.700000" y2="184.000000"  style="stroke:black; stroke-linecap:round; stroke-width:0.25;"/>
<line x1="689.700000" y1="176.000000" x2="693.700000" y2="176.000000"  style="stroke:black; stroke-linecap:round; stroke-width:0.25;"/>
<line x1="689.700000" y1="184.000000" x2="693.700000" y2="184.000000"  style="stroke:black; stroke-linecap:round; stroke-width:0.25;"/>
<line x1="693.700000" y1="176.000000" x2="697.700000" y2="176.000000"  style="stroke:black; stroke-linecap:round; stroke-width:0.25;"/>
<line x1="693.700000" y1="184.000000" x2="697.700000" y2="184.000000"  style="stroke:black; stroke-linecap:round; stroke-width:0.25;"/>
<line x1="697.700000" y1="176.000000" x2="707.700000" y2="176.000000"  style="stroke:black; stroke-linecap:round; stroke-width:0.25;"/>
<line x1="697.700000" y1="184.000000" x2="707.700000" y2="184.000000"  style="stroke:black; stroke-linecap:round; stroke-width:0.25;"/>
</svg>
