<?xml version="1.0"?>
<svg xmlns="http://www.w3.org/2000/svg" xmlns:xlink="http://www.w3.org/1999/xlink" viewBox="0 0 197.900000 72.000000" width="98.950000mm" height="36.000000mm" version="1.1">
<defs>
   <filter id="filter" filterRes="18" x="0" y="0">
     <feGaussianBlur in="SourceGraphic" stdDeviation="1.55" result="blur"/>
     <feOffset in="blur" dx="3" dy="3"/>
   </filter>
</defs>
<a xlink:href="noise-0x1736070.svg">
<rect x="1.000000" y="1.000000" width="196.900000" height="71.000000" rx="0.1" ry="0.1" style="stroke:none;fill:#aaaaaa;;filter:url(#filter);"/>
<rect x="0.000000" y="0.000000" width="196.900000" height="71.000000" rx="0" ry="0" style="stroke:none;fill:#ffffff;"/>
</a>
<text x="10.000000" y="7.000000" font-family="Arial" font-size="7"></text>
<a xlink:href="chain-0x16ea960.svg">
<rect x="25.000000" y="25.000000" width="38.700000" height="24.000000" rx="0.1" ry="0.1" style="stroke:none;fill:#aaaaaa;;filter:url(#filter);"/>
<rect x="24.000000" y="24.000000" width="38.700000" height="24.000000" rx="0" ry="0" style="stroke:none;fill:#003366;"/>
</a>
<a xlink:href="chain-0x16ea960.svg">
<text x="43.350000" y="38.000000" font-family="Arial" font-size="7" text-anchor="middle" fill="#FFFFFF">chain(3)</text>
</a>
<circle cx="26.000000" cy="26.000000" r="1"/>
<a xlink:href="Divide-0x16e3570.svg">
<rect x="71.700000" y="25.000000" width="103.200000" height="24.000000" rx="0.1" ry="0.1" style="stroke:none;fill:#aaaaaa;;filter:url(#filter);"/>
<rect x="70.700000" y="24.000000" width="103.200000" height="24.000000" rx="0" ry="0" style="stroke:none;fill:#003366;"/>
</a>
<a xlink:href="Divide-0x16e3570.svg">
<text x="122.300000" y="38.000000" font-family="Arial" font-size="7" text-anchor="middle" fill="#FFFFFF">Divide(3)(4.29497e+09)</text>
</a>
<circle cx="72.700000" cy="26.000000" r="1"/>
<line x1="67.700000" y1="27.000000" x2="70.700000" y2="28.000000"  transform="rotate(0.000000,70.700000,28.000000)" style="stroke: black; stroke-width:0.25;"/>
<line x1="67.700000" y1="29.000000" x2="70.700000" y2="28.000000"  transform="rotate(0.000000,70.700000,28.000000)" style="stroke: black; stroke-width:0.25;"/>
<line x1="67.700000" y1="35.000000" x2="70.700000" y2="36.000000"  transform="rotate(0.000000,70.700000,36.000000)" style="stroke: black; stroke-width:0.25;"/>
<line x1="67.700000" y1="37.000000" x2="70.700000" y2="36.000000"  transform="rotate(0.000000,70.700000,36.000000)" style="stroke: black; stroke-width:0.25;"/>
<line x1="67.700000" y1="43.000000" x2="70.700000" y2="44.000000"  transform="rotate(0.000000,70.700000,44.000000)" style="stroke: black; stroke-width:0.25;"/>
<line x1="67.700000" y1="45.000000" x2="70.700000" y2="44.000000"  transform="rotate(0.000000,70.700000,44.000000)" style="stroke: black; stroke-width:0.25;"/>
<line x1="15.000000" y1="15.000000" x2="15.000000" y2="57.000000"  style="stroke: black; stroke-linecap:round; stroke-width:0.25; stroke-dasharray:3,3;"/>
<line x1="15.000000" y1="57.000000" x2="182.900000" y2="57.000000"  style="stroke: black; stroke-linecap:round; stroke-width:0.25; stroke-dasharray:3,3;"/>
<line x1="182.900000" y1="57.000000" x2="182.900000" y2="15.000000"  style="stroke: black; stroke-linecap:round; stroke-width:0.25; stroke-dasharray:3,3;"/>
<line x1="15.000000" y1="15.000000" x2="20.000000" y2="15.000000"  style="stroke: black; stroke-linecap:round; stroke-width:0.25; stroke-dasharray:3,3;"/>
<line x1="45.800000" y1="15.000000" x2="182.900000" y2="15.000000"  style="stroke: black; stroke-linecap:round; stroke-width:0.25; stroke-dasharray:3,3;"/>
<text x="20.000000" y="17.000000" font-family="Arial" font-size="7">noiser</text>
<line x1="184.900000" y1="27.000000" x2="187.900000" y2="28.000000"  transform="rotate(0.000000,187.900000,28.000000)" style="stroke: black; stroke-width:0.25;"/>
<line x1="184.900000" y1="29.000000" x2="187.900000" y2="28.000000"  transform="rotate(0.000000,187.900000,28.000000)" style="stroke: black; stroke-width:0.25;"/>
<line x1="184.900000" y1="35.000000" x2="187.900000" y2="36.000000"  transform="rotate(0.000000,187.900000,36.000000)" style="stroke: black; stroke-width:0.25;"/>
<line x1="184.900000" y1="37.000000" x2="187.900000" y2="36.000000"  transform="rotate(0.000000,187.900000,36.000000)" style="stroke: black; stroke-width:0.25;"/>
<line x1="184.900000" y1="43.000000" x2="187.900000" y2="44.000000"  transform="rotate(0.000000,187.900000,44.000000)" style="stroke: black; stroke-width:0.25;"/>
<line x1="184.900000" y1="45.000000" x2="187.900000" y2="44.000000"  transform="rotate(0.000000,187.900000,44.000000)" style="stroke: black; stroke-width:0.25;"/>
<line x1="62.700000" y1="28.000000" x2="66.700000" y2="28.000000"  style="stroke:black; stroke-linecap:round; stroke-width:0.25;"/>
<line x1="62.700000" y1="36.000000" x2="66.700000" y2="36.000000"  style="stroke:black; stroke-linecap:round; stroke-width:0.25;"/>
<line x1="62.700000" y1="44.000000" x2="66.700000" y2="44.000000"  style="stroke:black; stroke-linecap:round; stroke-width:0.25;"/>
<line x1="66.700000" y1="28.000000" x2="66.700000" y2="28.000000"  style="stroke:black; stroke-linecap:round; stroke-width:0.25;"/>
<line x1="66.700000" y1="28.000000" x2="70.700000" y2="28.000000"  style="stroke:black; stroke-linecap:round; stroke-width:0.25;"/>
<line x1="66.700000" y1="36.000000" x2="66.700000" y2="36.000000"  style="stroke:black; stroke-linecap:round; stroke-width:0.25;"/>
<line x1="66.700000" y1="36.000000" x2="70.700000" y2="36.000000"  style="stroke:black; stroke-linecap:round; stroke-width:0.25;"/>
<line x1="66.700000" y1="44.000000" x2="66.700000" y2="44.000000"  style="stroke:black; stroke-linecap:round; stroke-width:0.25;"/>
<line x1="66.700000" y1="44.000000" x2="70.700000" y2="44.000000"  style="stroke:black; stroke-linecap:round; stroke-width:0.25;"/>
<line x1="173.900000" y1="28.000000" x2="177.900000" y2="28.000000"  style="stroke:black; stroke-linecap:round; stroke-width:0.25;"/>
<line x1="173.900000" y1="36.000000" x2="177.900000" y2="36.000000"  style="stroke:black; stroke-linecap:round; stroke-width:0.25;"/>
<line x1="173.900000" y1="44.000000" x2="177.900000" y2="44.000000"  style="stroke:black; stroke-linecap:round; stroke-width:0.25;"/>
<line x1="177.900000" y1="28.000000" x2="187.900000" y2="28.000000"  style="stroke:black; stroke-linecap:round; stroke-width:0.25;"/>
<line x1="177.900000" y1="36.000000" x2="187.900000" y2="36.000000"  style="stroke:black; stroke-linecap:round; stroke-width:0.25;"/>
<line x1="177.900000" y1="44.000000" x2="187.900000" y2="44.000000"  style="stroke:black; stroke-linecap:round; stroke-width:0.25;"/>
</svg>
