<?xml version="1.0"?>
<svg xmlns="http://www.w3.org/2000/svg" xmlns:xlink="http://www.w3.org/1999/xlink" viewBox="0 0 507.000000 268.000000" width="253.500000mm" height="134.000000mm" version="1.1">
<defs>
   <filter id="filter" filterRes="18" x="0" y="0">
     <feGaussianBlur in="SourceGraphic" stdDeviation="1.55" result="blur"/>
     <feOffset in="blur" dx="3" dy="3"/>
   </filter>
</defs>
<a xlink:href="gate-0x2d447e0.svg">
<rect x="1.000000" y="1.000000" width="506.000000" height="267.000000" rx="0.1" ry="0.1" style="stroke:none;fill:#aaaaaa;;filter:url(#filter);"/>
<rect x="0.000000" y="0.000000" width="506.000000" height="267.000000" rx="0" ry="0" style="stroke:none;fill:#ffffff;"/>
</a>
<text x="10.000000" y="7.000000" font-family="Arial" font-size="7"></text>
<rect x="149.350000" y="43.000000" width="90.300000" height="24.000000" rx="0.1" ry="0.1" style="stroke:none;fill:#aaaaaa;;filter:url(#filter);"/>
<rect x="148.350000" y="42.000000" width="90.300000" height="24.000000" rx="0" ry="0" style="stroke:none;fill:#477881;"/>
<text x="193.500000" y="56.000000" font-family="Arial" font-size="7" text-anchor="middle" fill="#FFFFFF">checkbox(SafeVerbOn)</text>
<circle cx="150.350000" cy="44.000000" r="1"/>
<line x1="139.350000" y1="33.000000" x2="139.350000" y2="75.000000"  style="stroke: black; stroke-linecap:round; stroke-width:0.25; stroke-dasharray:3,3;"/>
<line x1="139.350000" y1="75.000000" x2="247.650000" y2="75.000000"  style="stroke: black; stroke-linecap:round; stroke-width:0.25; stroke-dasharray:3,3;"/>
<line x1="247.650000" y1="75.000000" x2="247.650000" y2="33.000000"  style="stroke: black; stroke-linecap:round; stroke-width:0.25; stroke-dasharray:3,3;"/>
<line x1="139.350000" y1="33.000000" x2="144.350000" y2="33.000000"  style="stroke: black; stroke-linecap:round; stroke-width:0.25; stroke-dasharray:3,3;"/>
<line x1="195.950000" y1="33.000000" x2="247.650000" y2="33.000000"  style="stroke: black; stroke-linecap:round; stroke-width:0.25; stroke-dasharray:3,3;"/>
<text x="144.350000" y="35.000000" font-family="Arial" font-size="7">safeverbToggle</text>
<rect x="182.500000" y="85.000000" width="24.000000" height="24.000000" rx="0.1" ry="0.1" style="stroke:none;fill:#aaaaaa;;filter:url(#filter);"/>
<rect x="181.500000" y="84.000000" width="24.000000" height="24.000000" rx="0" ry="0" style="stroke:none;fill:#f44800;"/>
<text x="193.500000" y="98.000000" font-family="Arial" font-size="7" text-anchor="middle" fill="#FFFFFF">-1</text>
<circle cx="183.500000" cy="86.000000" r="1"/>
<rect x="265.650000" y="59.000000" width="24.000000" height="24.000000" rx="0.1" ry="0.1" style="stroke:none;fill:#aaaaaa;;filter:url(#filter);"/>
<rect x="264.650000" y="58.000000" width="24.000000" height="24.000000" rx="0" ry="0" style="stroke:none;fill:#4B71A1;"/>
<text x="276.650000" y="72.000000" font-family="Arial" font-size="7" text-anchor="middle" fill="#FFFFFF">*</text>
<circle cx="266.650000" cy="60.000000" r="1"/>
<line x1="261.650000" y1="65.000000" x2="264.650000" y2="66.000000"  transform="rotate(0.000000,264.650000,66.000000)" style="stroke: black; stroke-width:0.25;"/>
<line x1="261.650000" y1="67.000000" x2="264.650000" y2="66.000000"  transform="rotate(0.000000,264.650000,66.000000)" style="stroke: black; stroke-width:0.25;"/>
<line x1="261.650000" y1="73.000000" x2="264.650000" y2="74.000000"  transform="rotate(0.000000,264.650000,74.000000)" style="stroke: black; stroke-width:0.25;"/>
<line x1="261.650000" y1="75.000000" x2="264.650000" y2="74.000000"  transform="rotate(0.000000,264.650000,74.000000)" style="stroke: black; stroke-width:0.25;"/>
<rect x="202.500000" y="117.000000" width="24.000000" height="24.000000" rx="0.1" ry="0.1" style="stroke:none;fill:#aaaaaa;;filter:url(#filter);"/>
<rect x="201.500000" y="116.000000" width="24.000000" height="24.000000" rx="0" ry="0" style="stroke:none;fill:#f44800;"/>
<text x="213.500000" y="130.000000" font-family="Arial" font-size="7" text-anchor="middle" fill="#FFFFFF">1</text>
<circle cx="203.500000" cy="118.000000" r="1"/>
<rect x="305.650000" y="75.000000" width="24.000000" height="24.000000" rx="0.1" ry="0.1" style="stroke:none;fill:#aaaaaa;;filter:url(#filter);"/>
<rect x="304.650000" y="74.000000" width="24.000000" height="24.000000" rx="0" ry="0" style="stroke:none;fill:#4B71A1;"/>
<text x="316.650000" y="88.000000" font-family="Arial" font-size="7" text-anchor="middle" fill="#FFFFFF">+</text>
<circle cx="306.650000" cy="76.000000" r="1"/>
<line x1="301.650000" y1="81.000000" x2="304.650000" y2="82.000000"  transform="rotate(0.000000,304.650000,82.000000)" style="stroke: black; stroke-width:0.25;"/>
<line x1="301.650000" y1="83.000000" x2="304.650000" y2="82.000000"  transform="rotate(0.000000,304.650000,82.000000)" style="stroke: black; stroke-width:0.25;"/>
<line x1="301.650000" y1="89.000000" x2="304.650000" y2="90.000000"  transform="rotate(0.000000,304.650000,90.000000)" style="stroke: black; stroke-width:0.25;"/>
<line x1="301.650000" y1="91.000000" x2="304.650000" y2="90.000000"  transform="rotate(0.000000,304.650000,90.000000)" style="stroke: black; stroke-width:0.25;"/>
<rect x="345.650000" y="71.000000" width="24.000000" height="24.000000" rx="0.1" ry="0.1" style="stroke:none;fill:#aaaaaa;;filter:url(#filter);"/>
<rect x="344.650000" y="70.000000" width="24.000000" height="24.000000" rx="0" ry="0" style="stroke:none;fill:#4B71A1;"/>
<text x="356.650000" y="84.000000" font-family="Arial" font-size="7" text-anchor="middle" fill="#FFFFFF">*</text>
<circle cx="346.650000" cy="72.000000" r="1"/>
<line x1="341.650000" y1="77.000000" x2="344.650000" y2="78.000000"  transform="rotate(0.000000,344.650000,78.000000)" style="stroke: black; stroke-width:0.25;"/>
<line x1="341.650000" y1="79.000000" x2="344.650000" y2="78.000000"  transform="rotate(0.000000,344.650000,78.000000)" style="stroke: black; stroke-width:0.25;"/>
<line x1="341.650000" y1="85.000000" x2="344.650000" y2="86.000000"  transform="rotate(0.000000,344.650000,86.000000)" style="stroke: black; stroke-width:0.25;"/>
<line x1="341.650000" y1="87.000000" x2="344.650000" y2="86.000000"  transform="rotate(0.000000,344.650000,86.000000)" style="stroke: black; stroke-width:0.25;"/>
<rect x="102.000000" y="189.000000" width="90.300000" height="24.000000" rx="0.1" ry="0.1" style="stroke:none;fill:#aaaaaa;;filter:url(#filter);"/>
<rect x="101.000000" y="188.000000" width="90.300000" height="24.000000" rx="0" ry="0" style="stroke:none;fill:#477881;"/>
<text x="146.150000" y="202.000000" font-family="Arial" font-size="7" text-anchor="middle" fill="#FFFFFF">checkbox(SafeVerbOn)</text>
<circle cx="103.000000" cy="190.000000" r="1"/>
<line x1="92.000000" y1="179.000000" x2="92.000000" y2="221.000000"  style="stroke: black; stroke-linecap:round; stroke-width:0.25; stroke-dasharray:3,3;"/>
<line x1="92.000000" y1="221.000000" x2="200.300000" y2="221.000000"  style="stroke: black; stroke-linecap:round; stroke-width:0.25; stroke-dasharray:3,3;"/>
<line x1="200.300000" y1="221.000000" x2="200.300000" y2="179.000000"  style="stroke: black; stroke-linecap:round; stroke-width:0.25; stroke-dasharray:3,3;"/>
<line x1="92.000000" y1="179.000000" x2="97.000000" y2="179.000000"  style="stroke: black; stroke-linecap:round; stroke-width:0.25; stroke-dasharray:3,3;"/>
<line x1="148.600000" y1="179.000000" x2="200.300000" y2="179.000000"  style="stroke: black; stroke-linecap:round; stroke-width:0.25; stroke-dasharray:3,3;"/>
<text x="97.000000" y="181.000000" font-family="Arial" font-size="7">safeverbToggle</text>
<rect x="218.300000" y="185.000000" width="24.000000" height="24.000000" rx="0.1" ry="0.1" style="stroke:none;fill:#aaaaaa;;filter:url(#filter);"/>
<rect x="217.300000" y="184.000000" width="24.000000" height="24.000000" rx="0" ry="0" style="stroke:none;fill:#4B71A1;"/>
<text x="229.300000" y="198.000000" font-family="Arial" font-size="7" text-anchor="middle" fill="#FFFFFF">*</text>
<circle cx="219.300000" cy="186.000000" r="1"/>
<line x1="214.300000" y1="191.000000" x2="217.300000" y2="192.000000"  transform="rotate(0.000000,217.300000,192.000000)" style="stroke: black; stroke-width:0.25;"/>
<line x1="214.300000" y1="193.000000" x2="217.300000" y2="192.000000"  transform="rotate(0.000000,217.300000,192.000000)" style="stroke: black; stroke-width:0.25;"/>
<line x1="214.300000" y1="199.000000" x2="217.300000" y2="200.000000"  transform="rotate(0.000000,217.300000,200.000000)" style="stroke: black; stroke-width:0.25;"/>
<line x1="214.300000" y1="201.000000" x2="217.300000" y2="200.000000"  transform="rotate(0.000000,217.300000,200.000000)" style="stroke: black; stroke-width:0.25;"/>
<a xlink:href="UserFeBa-0x2d1df10.svg">
<rect x="258.300000" y="157.000000" width="38.700000" height="24.000000" rx="0.1" ry="0.1" style="stroke:none;fill:#aaaaaa;;filter:url(#filter);"/>
<rect x="257.300000" y="156.000000" width="38.700000" height="24.000000" rx="0" ry="0" style="stroke:none;fill:#003366;"/>
</a>
<a xlink:href="UserFeBa-0x2d1df10.svg">
<text x="276.650000" y="170.000000" font-family="Arial" font-size="7" text-anchor="middle" fill="#FFFFFF">UserFeBa</text>
</a>
<circle cx="259.300000" cy="158.000000" r="1"/>
<rect x="265.650000" y="189.000000" width="24.000000" height="24.000000" rx="0.1" ry="0.1" style="stroke:none;fill:#aaaaaa;;filter:url(#filter);"/>
<rect x="264.650000" y="188.000000" width="24.000000" height="24.000000" rx="0" ry="0" style="stroke:none;fill:#f44800;"/>
<text x="276.650000" y="202.000000" font-family="Arial" font-size="7" text-anchor="middle" fill="#FFFFFF">-1</text>
<circle cx="266.650000" cy="190.000000" r="1"/>
<rect x="313.000000" y="173.000000" width="24.000000" height="24.000000" rx="0.1" ry="0.1" style="stroke:none;fill:#aaaaaa;;filter:url(#filter);"/>
<rect x="312.000000" y="172.000000" width="24.000000" height="24.000000" rx="0" ry="0" style="stroke:none;fill:#4B71A1;"/>
<text x="324.000000" y="186.000000" font-family="Arial" font-size="7" text-anchor="middle" fill="#FFFFFF">*</text>
<circle cx="314.000000" cy="174.000000" r="1"/>
<line x1="309.000000" y1="179.000000" x2="312.000000" y2="180.000000"  transform="rotate(0.000000,312.000000,180.000000)" style="stroke: black; stroke-width:0.25;"/>
<line x1="309.000000" y1="181.000000" x2="312.000000" y2="180.000000"  transform="rotate(0.000000,312.000000,180.000000)" style="stroke: black; stroke-width:0.25;"/>
<line x1="309.000000" y1="187.000000" x2="312.000000" y2="188.000000"  transform="rotate(0.000000,312.000000,188.000000)" style="stroke: black; stroke-width:0.25;"/>
<line x1="309.000000" y1="189.000000" x2="312.000000" y2="188.000000"  transform="rotate(0.000000,312.000000,188.000000)" style="stroke: black; stroke-width:0.25;"/>
<rect x="285.650000" y="221.000000" width="24.000000" height="24.000000" rx="0.1" ry="0.1" style="stroke:none;fill:#aaaaaa;;filter:url(#filter);"/>
<rect x="284.650000" y="220.000000" width="24.000000" height="24.000000" rx="0" ry="0" style="stroke:none;fill:#f44800;"/>
<text x="296.650000" y="234.000000" font-family="Arial" font-size="7" text-anchor="middle" fill="#FFFFFF">1</text>
<circle cx="286.650000" cy="222.000000" r="1"/>
<rect x="353.000000" y="189.000000" width="24.000000" height="24.000000" rx="0.1" ry="0.1" style="stroke:none;fill:#aaaaaa;;filter:url(#filter);"/>
<rect x="352.000000" y="188.000000" width="24.000000" height="24.000000" rx="0" ry="0" style="stroke:none;fill:#4B71A1;"/>
<text x="364.000000" y="202.000000" font-family="Arial" font-size="7" text-anchor="middle" fill="#FFFFFF">+</text>
<circle cx="354.000000" cy="190.000000" r="1"/>
<line x1="349.000000" y1="195.000000" x2="352.000000" y2="196.000000"  transform="rotate(0.000000,352.000000,196.000000)" style="stroke: black; stroke-width:0.25;"/>
<line x1="349.000000" y1="197.000000" x2="352.000000" y2="196.000000"  transform="rotate(0.000000,352.000000,196.000000)" style="stroke: black; stroke-width:0.25;"/>
<line x1="349.000000" y1="203.000000" x2="352.000000" y2="204.000000"  transform="rotate(0.000000,352.000000,204.000000)" style="stroke: black; stroke-width:0.25;"/>
<line x1="349.000000" y1="205.000000" x2="352.000000" y2="204.000000"  transform="rotate(0.000000,352.000000,204.000000)" style="stroke: black; stroke-width:0.25;"/>
<rect x="393.000000" y="185.000000" width="24.000000" height="24.000000" rx="0.1" ry="0.1" style="stroke:none;fill:#aaaaaa;;filter:url(#filter);"/>
<rect x="392.000000" y="184.000000" width="24.000000" height="24.000000" rx="0" ry="0" style="stroke:none;fill:#4B71A1;"/>
<text x="404.000000" y="198.000000" font-family="Arial" font-size="7" text-anchor="middle" fill="#FFFFFF">*</text>
<circle cx="394.000000" cy="186.000000" r="1"/>
<line x1="389.000000" y1="191.000000" x2="392.000000" y2="192.000000"  transform="rotate(0.000000,392.000000,192.000000)" style="stroke: black; stroke-width:0.25;"/>
<line x1="389.000000" y1="193.000000" x2="392.000000" y2="192.000000"  transform="rotate(0.000000,392.000000,192.000000)" style="stroke: black; stroke-width:0.25;"/>
<line x1="389.000000" y1="199.000000" x2="392.000000" y2="200.000000"  transform="rotate(0.000000,392.000000,200.000000)" style="stroke: black; stroke-width:0.25;"/>
<line x1="389.000000" y1="201.000000" x2="392.000000" y2="200.000000"  transform="rotate(0.000000,392.000000,200.000000)" style="stroke: black; stroke-width:0.25;"/>
<line x1="15.000000" y1="15.000000" x2="15.000000" y2="253.000000"  style="stroke: black; stroke-linecap:round; stroke-width:0.25; stroke-dasharray:3,3;"/>
<line x1="15.000000" y1="253.000000" x2="492.000000" y2="253.000000"  style="stroke: black; stroke-linecap:round; stroke-width:0.25; stroke-dasharray:3,3;"/>
<line x1="492.000000" y1="253.000000" x2="492.000000" y2="15.000000"  style="stroke: black; stroke-linecap:round; stroke-width:0.25; stroke-dasharray:3,3;"/>
<line x1="15.000000" y1="15.000000" x2="20.000000" y2="15.000000"  style="stroke: black; stroke-linecap:round; stroke-width:0.25; stroke-dasharray:3,3;"/>
<line x1="52.250000" y1="15.000000" x2="492.000000" y2="15.000000"  style="stroke: black; stroke-linecap:round; stroke-width:0.25; stroke-dasharray:3,3;"/>
<text x="20.000000" y="17.000000" font-family="Arial" font-size="7">SafeVerb</text>
<line x1="494.000000" y1="133.000000" x2="497.000000" y2="134.000000"  transform="rotate(0.000000,497.000000,134.000000)" style="stroke: black; stroke-width:0.25;"/>
<line x1="494.000000" y1="135.000000" x2="497.000000" y2="134.000000"  transform="rotate(0.000000,497.000000,134.000000)" style="stroke: black; stroke-width:0.25;"/>
<line x1="10.000000" y1="134.000000" x2="20.000000" y2="134.000000"  style="stroke:black; stroke-linecap:round; stroke-width:0.25;"/>
<line x1="20.000000" y1="134.000000" x2="24.000000" y2="134.000000"  style="stroke:black; stroke-linecap:round; stroke-width:0.25;"/>
<line x1="24.000000" y1="134.000000" x2="28.000000" y2="134.000000"  style="stroke:black; stroke-linecap:round; stroke-width:0.25;"/>
<line x1="28.000000" y1="134.000000" x2="87.000000" y2="24.000000"  style="stroke:black; stroke-linecap:round; stroke-width:0.25;"/>
<line x1="28.000000" y1="134.000000" x2="87.000000" y2="170.000000"  style="stroke:black; stroke-linecap:round; stroke-width:0.25;"/>
<line x1="87.000000" y1="24.000000" x2="134.350000" y2="24.000000"  style="stroke:black; stroke-linecap:round; stroke-width:0.25;"/>
<line x1="87.000000" y1="170.000000" x2="146.150000" y2="170.000000"  style="stroke:black; stroke-linecap:round; stroke-width:0.25;"/>
<line x1="134.350000" y1="24.000000" x2="233.500000" y2="24.000000"  style="stroke:black; stroke-linecap:round; stroke-width:0.25;"/>
<line x1="146.150000" y1="170.000000" x2="205.300000" y2="170.000000"  style="stroke:black; stroke-linecap:round; stroke-width:0.25;"/>
<line x1="191.300000" y1="200.000000" x2="195.300000" y2="200.000000"  style="stroke:black; stroke-linecap:round; stroke-width:0.25;"/>
<line x1="195.300000" y1="200.000000" x2="205.300000" y2="200.000000"  style="stroke:black; stroke-linecap:round; stroke-width:0.25;"/>
<line x1="205.300000" y1="170.000000" x2="213.300000" y2="170.000000"  style="stroke:black; stroke-linecap:round; stroke-width:0.25;"/>
<line x1="205.300000" y1="200.000000" x2="213.300000" y2="200.000000"  style="stroke:black; stroke-linecap:round; stroke-width:0.25;"/>
<line x1="205.500000" y1="96.000000" x2="209.500000" y2="96.000000"  style="stroke:black; stroke-linecap:round; stroke-width:0.25;"/>
<line x1="209.500000" y1="96.000000" x2="252.650000" y2="96.000000"  style="stroke:black; stroke-linecap:round; stroke-width:0.25;"/>
<line x1="213.300000" y1="170.000000" x2="213.300000" y2="192.000000"  style="stroke:black; stroke-linecap:round; stroke-width:0.25;"/>
<line x1="213.300000" y1="192.000000" x2="213.300000" y2="192.000000"  style="stroke:black; stroke-linecap:round; stroke-width:0.25;"/>
<line x1="213.300000" y1="192.000000" x2="217.300000" y2="192.000000"  style="stroke:black; stroke-linecap:round; stroke-width:0.25;"/>
<line x1="213.300000" y1="200.000000" x2="217.300000" y2="200.000000"  style="stroke:black; stroke-linecap:round; stroke-width:0.25;"/>
<line x1="225.500000" y1="128.000000" x2="229.500000" y2="128.000000"  style="stroke:black; stroke-linecap:round; stroke-width:0.25;"/>
<line x1="229.500000" y1="128.000000" x2="292.650000" y2="128.000000"  style="stroke:black; stroke-linecap:round; stroke-width:0.25;"/>
<line x1="233.500000" y1="24.000000" x2="332.650000" y2="24.000000"  style="stroke:black; stroke-linecap:round; stroke-width:0.25;"/>
<line x1="238.650000" y1="54.000000" x2="242.650000" y2="54.000000"  style="stroke:black; stroke-linecap:round; stroke-width:0.25;"/>
<line x1="241.300000" y1="196.000000" x2="245.300000" y2="196.000000"  style="stroke:black; stroke-linecap:round; stroke-width:0.25;"/>
<line x1="242.650000" y1="54.000000" x2="252.650000" y2="54.000000"  style="stroke:black; stroke-linecap:round; stroke-width:0.25;"/>
<line x1="245.300000" y1="148.000000" x2="253.300000" y2="148.000000"  style="stroke:black; stroke-linecap:round; stroke-width:0.25;"/>
<line x1="245.300000" y1="196.000000" x2="245.300000" y2="148.000000"  style="stroke:black; stroke-linecap:round; stroke-width:0.25;"/>
<line x1="245.300000" y1="196.000000" x2="245.300000" y2="196.000000"  style="stroke:black; stroke-linecap:round; stroke-width:0.25;"/>
<line x1="252.650000" y1="54.000000" x2="260.650000" y2="54.000000"  style="stroke:black; stroke-linecap:round; stroke-width:0.25;"/>
<line x1="252.650000" y1="74.000000" x2="260.650000" y2="74.000000"  style="stroke:black; stroke-linecap:round; stroke-width:0.25;"/>
<line x1="252.650000" y1="96.000000" x2="252.650000" y2="74.000000"  style="stroke:black; stroke-linecap:round; stroke-width:0.25;"/>
<line x1="252.650000" y1="96.000000" x2="252.650000" y2="96.000000"  style="stroke:black; stroke-linecap:round; stroke-width:0.25;"/>
<line x1="253.300000" y1="148.000000" x2="316.650000" y2="148.000000"  style="stroke:black; stroke-linecap:round; stroke-width:0.25;"/>
<line x1="260.650000" y1="54.000000" x2="260.650000" y2="66.000000"  style="stroke:black; stroke-linecap:round; stroke-width:0.25;"/>
<line x1="260.650000" y1="66.000000" x2="260.650000" y2="66.000000"  style="stroke:black; stroke-linecap:round; stroke-width:0.25;"/>
<line x1="260.650000" y1="66.000000" x2="264.650000" y2="66.000000"  style="stroke:black; stroke-linecap:round; stroke-width:0.25;"/>
<line x1="260.650000" y1="74.000000" x2="264.650000" y2="74.000000"  style="stroke:black; stroke-linecap:round; stroke-width:0.25;"/>
<line x1="288.650000" y1="70.000000" x2="292.650000" y2="70.000000"  style="stroke:black; stroke-linecap:round; stroke-width:0.25;"/>
<line x1="288.650000" y1="200.000000" x2="292.650000" y2="200.000000"  style="stroke:black; stroke-linecap:round; stroke-width:0.25;"/>
<line x1="292.650000" y1="70.000000" x2="300.650000" y2="70.000000"  style="stroke:black; stroke-linecap:round; stroke-width:0.25;"/>
<line x1="292.650000" y1="90.000000" x2="300.650000" y2="90.000000"  style="stroke:black; stroke-linecap:round; stroke-width:0.25;"/>
<line x1="292.650000" y1="128.000000" x2="292.650000" y2="90.000000"  style="stroke:black; stroke-linecap:round; stroke-width:0.25;"/>
<line x1="292.650000" y1="128.000000" x2="292.650000" y2="128.000000"  style="stroke:black; stroke-linecap:round; stroke-width:0.25;"/>
<line x1="292.650000" y1="200.000000" x2="300.000000" y2="200.000000"  style="stroke:black; stroke-linecap:round; stroke-width:0.25;"/>
<line x1="296.000000" y1="168.000000" x2="300.000000" y2="168.000000"  style="stroke:black; stroke-linecap:round; stroke-width:0.25;"/>
<line x1="300.000000" y1="168.000000" x2="308.000000" y2="168.000000"  style="stroke:black; stroke-linecap:round; stroke-width:0.25;"/>
<line x1="300.000000" y1="188.000000" x2="308.000000" y2="188.000000"  style="stroke:black; stroke-linecap:round; stroke-width:0.25;"/>
<line x1="300.000000" y1="200.000000" x2="300.000000" y2="188.000000"  style="stroke:black; stroke-linecap:round; stroke-width:0.25;"/>
<line x1="300.000000" y1="200.000000" x2="300.000000" y2="200.000000"  style="stroke:black; stroke-linecap:round; stroke-width:0.25;"/>
<line x1="300.650000" y1="70.000000" x2="300.650000" y2="82.000000"  style="stroke:black; stroke-linecap:round; stroke-width:0.25;"/>
<line x1="300.650000" y1="82.000000" x2="300.650000" y2="82.000000"  style="stroke:black; stroke-linecap:round; stroke-width:0.25;"/>
<line x1="300.650000" y1="82.000000" x2="304.650000" y2="82.000000"  style="stroke:black; stroke-linecap:round; stroke-width:0.25;"/>
<line x1="300.650000" y1="90.000000" x2="304.650000" y2="90.000000"  style="stroke:black; stroke-linecap:round; stroke-width:0.25;"/>
<line x1="308.000000" y1="168.000000" x2="308.000000" y2="180.000000"  style="stroke:black; stroke-linecap:round; stroke-width:0.25;"/>
<line x1="308.000000" y1="180.000000" x2="308.000000" y2="180.000000"  style="stroke:black; stroke-linecap:round; stroke-width:0.25;"/>
<line x1="308.000000" y1="180.000000" x2="312.000000" y2="180.000000"  style="stroke:black; stroke-linecap:round; stroke-width:0.25;"/>
<line x1="308.000000" y1="188.000000" x2="312.000000" y2="188.000000"  style="stroke:black; stroke-linecap:round; stroke-width:0.25;"/>
<line x1="308.650000" y1="232.000000" x2="312.650000" y2="232.000000"  style="stroke:black; stroke-linecap:round; stroke-width:0.25;"/>
<line x1="312.650000" y1="232.000000" x2="340.000000" y2="232.000000"  style="stroke:black; stroke-linecap:round; stroke-width:0.25;"/>
<line x1="316.650000" y1="148.000000" x2="380.000000" y2="148.000000"  style="stroke:black; stroke-linecap:round; stroke-width:0.25;"/>
<line x1="328.650000" y1="86.000000" x2="332.650000" y2="86.000000"  style="stroke:black; stroke-linecap:round; stroke-width:0.25;"/>
<line x1="332.650000" y1="24.000000" x2="340.650000" y2="24.000000"  style="stroke:black; stroke-linecap:round; stroke-width:0.25;"/>
<line x1="332.650000" y1="86.000000" x2="340.650000" y2="86.000000"  style="stroke:black; stroke-linecap:round; stroke-width:0.25;"/>
<line x1="336.000000" y1="184.000000" x2="340.000000" y2="184.000000"  style="stroke:black; stroke-linecap:round; stroke-width:0.25;"/>
<line x1="340.000000" y1="184.000000" x2="348.000000" y2="184.000000"  style="stroke:black; stroke-linecap:round; stroke-width:0.25;"/>
<line x1="340.000000" y1="204.000000" x2="348.000000" y2="204.000000"  style="stroke:black; stroke-linecap:round; stroke-width:0.25;"/>
<line x1="340.000000" y1="232.000000" x2="340.000000" y2="204.000000"  style="stroke:black; stroke-linecap:round; stroke-width:0.25;"/>
<line x1="340.000000" y1="232.000000" x2="340.000000" y2="232.000000"  style="stroke:black; stroke-linecap:round; stroke-width:0.25;"/>
<line x1="340.650000" y1="24.000000" x2="340.650000" y2="78.000000"  style="stroke:black; stroke-linecap:round; stroke-width:0.25;"/>
<line x1="340.650000" y1="78.000000" x2="340.650000" y2="78.000000"  style="stroke:black; stroke-linecap:round; stroke-width:0.25;"/>
<line x1="340.650000" y1="78.000000" x2="344.650000" y2="78.000000"  style="stroke:black; stroke-linecap:round; stroke-width:0.25;"/>
<line x1="340.650000" y1="86.000000" x2="344.650000" y2="86.000000"  style="stroke:black; stroke-linecap:round; stroke-width:0.25;"/>
<line x1="348.000000" y1="184.000000" x2="348.000000" y2="196.000000"  style="stroke:black; stroke-linecap:round; stroke-width:0.25;"/>
<line x1="348.000000" y1="196.000000" x2="348.000000" y2="196.000000"  style="stroke:black; stroke-linecap:round; stroke-width:0.25;"/>
<line x1="348.000000" y1="196.000000" x2="352.000000" y2="196.000000"  style="stroke:black; stroke-linecap:round; stroke-width:0.25;"/>
<line x1="348.000000" y1="204.000000" x2="352.000000" y2="204.000000"  style="stroke:black; stroke-linecap:round; stroke-width:0.25;"/>
<line x1="368.650000" y1="82.000000" x2="372.650000" y2="82.000000"  style="stroke:black; stroke-linecap:round; stroke-width:0.25;"/>
<line x1="372.650000" y1="82.000000" x2="420.000000" y2="82.000000"  style="stroke:black; stroke-linecap:round; stroke-width:0.25;"/>
<line x1="376.000000" y1="200.000000" x2="380.000000" y2="200.000000"  style="stroke:black; stroke-linecap:round; stroke-width:0.25;"/>
<line x1="380.000000" y1="148.000000" x2="388.000000" y2="148.000000"  style="stroke:black; stroke-linecap:round; stroke-width:0.25;"/>
<line x1="380.000000" y1="200.000000" x2="388.000000" y2="200.000000"  style="stroke:black; stroke-linecap:round; stroke-width:0.25;"/>
<line x1="388.000000" y1="148.000000" x2="388.000000" y2="192.000000"  style="stroke:black; stroke-linecap:round; stroke-width:0.25;"/>
<line x1="388.000000" y1="192.000000" x2="388.000000" y2="192.000000"  style="stroke:black; stroke-linecap:round; stroke-width:0.25;"/>
<line x1="388.000000" y1="192.000000" x2="392.000000" y2="192.000000"  style="stroke:black; stroke-linecap:round; stroke-width:0.25;"/>
<line x1="388.000000" y1="200.000000" x2="392.000000" y2="200.000000"  style="stroke:black; stroke-linecap:round; stroke-width:0.25;"/>
<line x1="416.000000" y1="196.000000" x2="420.000000" y2="196.000000"  style="stroke:black; stroke-linecap:round; stroke-width:0.25;"/>
<line x1="420.000000" y1="82.000000" x2="479.000000" y2="134.000000"  style="stroke:black; stroke-linecap:round; stroke-width:0.25;"/>
<line x1="420.000000" y1="196.000000" x2="479.000000" y2="134.000000"  style="stroke:black; stroke-linecap:round; stroke-width:0.25;"/>
<line x1="479.000000" y1="134.000000" x2="483.000000" y2="134.000000"  style="stroke:black; stroke-linecap:round; stroke-width:0.25;"/>
<line x1="483.000000" y1="134.000000" x2="487.000000" y2="134.000000"  style="stroke:black; stroke-linecap:round; stroke-width:0.25;"/>
<line x1="487.000000" y1="134.000000" x2="497.000000" y2="134.000000"  style="stroke:black; stroke-linecap:round; stroke-width:0.25;"/>
</svg>
