<?xml version="1.0"?>
<svg xmlns="http://www.w3.org/2000/svg" xmlns:xlink="http://www.w3.org/1999/xlink" viewBox="0 0 492.600000 184.000000" width="246.300000mm" height="92.000000mm" version="1.1">
<defs>
   <filter id="filter" filterRes="18" x="0" y="0">
     <feGaussianBlur in="SourceGraphic" stdDeviation="1.55" result="blur"/>
     <feOffset in="blur" dx="3" dy="3"/>
   </filter>
</defs>
<a xlink:href="gate-0x2615d80.svg">
<rect x="1.000000" y="1.000000" width="491.600000" height="183.000000" rx="0.1" ry="0.1" style="stroke:none;fill:#aaaaaa;;filter:url(#filter);"/>
<rect x="0.000000" y="0.000000" width="491.600000" height="183.000000" rx="0" ry="0" style="stroke:none;fill:#ffffff;"/>
</a>
<text x="10.000000" y="7.000000" font-family="Arial" font-size="7"></text>
<a xlink:href="random-0x260af00.svg">
<rect x="39.450000" y="105.000000" width="141.900000" height="24.000000" rx="0.1" ry="0.1" style="stroke:none;fill:#aaaaaa;;filter:url(#filter);"/>
<rect x="38.450000" y="104.000000" width="141.900000" height="24.000000" rx="0" ry="0" style="stroke:none;fill:#003366;"/>
</a>
<a xlink:href="random-0x260af00.svg">
<text x="109.400000" y="118.000000" font-family="Arial" font-size="7" text-anchor="middle" fill="#FFFFFF">random((19200..., 0.1):/:int)(7)</text>
</a>
<circle cx="40.450000" cy="106.000000" r="1"/>
<rect x="33.000000" y="137.000000" width="154.800000" height="24.000000" rx="0.1" ry="0.1" style="stroke:none;fill:#aaaaaa;;filter:url(#filter);"/>
<rect x="32.000000" y="136.000000" width="154.800000" height="24.000000" rx="0" ry="0" style="stroke:none;fill:#477881;"/>
<text x="109.400000" y="150.000000" font-family="Arial" font-size="7" text-anchor="middle" fill="#FFFFFF">hslider(time off, 1, 1, 1000, 0.1)</text>
<circle cx="34.000000" cy="138.000000" r="1"/>
<rect x="203.800000" y="121.000000" width="24.000000" height="24.000000" rx="0.1" ry="0.1" style="stroke:none;fill:#aaaaaa;;filter:url(#filter);"/>
<rect x="202.800000" y="120.000000" width="24.000000" height="24.000000" rx="0" ry="0" style="stroke:none;fill:#4B71A1;"/>
<text x="214.800000" y="134.000000" font-family="Arial" font-size="7" text-anchor="middle" fill="#FFFFFF">*</text>
<circle cx="204.800000" cy="122.000000" r="1"/>
<line x1="199.800000" y1="127.000000" x2="202.800000" y2="128.000000"  transform="rotate(0.000000,202.800000,128.000000)" style="stroke: black; stroke-width:0.25;"/>
<line x1="199.800000" y1="129.000000" x2="202.800000" y2="128.000000"  transform="rotate(0.000000,202.800000,128.000000)" style="stroke: black; stroke-width:0.25;"/>
<line x1="199.800000" y1="135.000000" x2="202.800000" y2="136.000000"  transform="rotate(0.000000,202.800000,136.000000)" style="stroke: black; stroke-width:0.25;"/>
<line x1="199.800000" y1="137.000000" x2="202.800000" y2="136.000000"  transform="rotate(0.000000,202.800000,136.000000)" style="stroke: black; stroke-width:0.25;"/>
<a xlink:href="safer-0x26124c0.svg">
<rect x="235.800000" y="121.000000" width="25.800000" height="24.000000" rx="0.1" ry="0.1" style="stroke:none;fill:#aaaaaa;;filter:url(#filter);"/>
<rect x="234.800000" y="120.000000" width="25.800000" height="24.000000" rx="0" ry="0" style="stroke:none;fill:#003366;"/>
</a>
<a xlink:href="safer-0x26124c0.svg">
<text x="247.700000" y="134.000000" font-family="Arial" font-size="7" text-anchor="middle" fill="#FFFFFF">safer</text>
</a>
<circle cx="236.800000" cy="122.000000" r="1"/>
<line x1="231.800000" y1="131.000000" x2="234.800000" y2="132.000000"  transform="rotate(0.000000,234.800000,132.000000)" style="stroke: black; stroke-width:0.25;"/>
<line x1="231.800000" y1="133.000000" x2="234.800000" y2="132.000000"  transform="rotate(0.000000,234.800000,132.000000)" style="stroke: black; stroke-width:0.25;"/>
<rect x="277.600000" y="117.000000" width="24.000000" height="24.000000" rx="0.1" ry="0.1" style="stroke:none;fill:#aaaaaa;;filter:url(#filter);"/>
<rect x="276.600000" y="116.000000" width="24.000000" height="24.000000" rx="0" ry="0" style="stroke:none;fill:#4B71A1;"/>
<text x="288.600000" y="130.000000" font-family="Arial" font-size="7" text-anchor="middle" fill="#FFFFFF">@</text>
<circle cx="278.600000" cy="118.000000" r="1"/>
<line x1="273.600000" y1="123.000000" x2="276.600000" y2="124.000000"  transform="rotate(0.000000,276.600000,124.000000)" style="stroke: black; stroke-width:0.25;"/>
<line x1="273.600000" y1="125.000000" x2="276.600000" y2="124.000000"  transform="rotate(0.000000,276.600000,124.000000)" style="stroke: black; stroke-width:0.25;"/>
<line x1="273.600000" y1="131.000000" x2="276.600000" y2="132.000000"  transform="rotate(0.000000,276.600000,132.000000)" style="stroke: black; stroke-width:0.25;"/>
<line x1="273.600000" y1="133.000000" x2="276.600000" y2="132.000000"  transform="rotate(0.000000,276.600000,132.000000)" style="stroke: black; stroke-width:0.25;"/>
<rect x="317.600000" y="121.000000" width="24.000000" height="24.000000" rx="0.1" ry="0.1" style="stroke:none;fill:#aaaaaa;;filter:url(#filter);"/>
<rect x="316.600000" y="120.000000" width="24.000000" height="24.000000" rx="0" ry="0" style="stroke:none;fill:#f44800;"/>
<text x="328.600000" y="134.000000" font-family="Arial" font-size="7" text-anchor="middle" fill="#FFFFFF">1</text>
<circle cx="318.600000" cy="122.000000" r="1"/>
<rect x="357.600000" y="117.000000" width="24.000000" height="24.000000" rx="0.1" ry="0.1" style="stroke:none;fill:#aaaaaa;;filter:url(#filter);"/>
<rect x="356.600000" y="116.000000" width="24.000000" height="24.000000" rx="0" ry="0" style="stroke:none;fill:#4B71A1;"/>
<text x="368.600000" y="130.000000" font-family="Arial" font-size="7" text-anchor="middle" fill="#FFFFFF">+</text>
<circle cx="358.600000" cy="118.000000" r="1"/>
<line x1="353.600000" y1="123.000000" x2="356.600000" y2="124.000000"  transform="rotate(0.000000,356.600000,124.000000)" style="stroke: black; stroke-width:0.25;"/>
<line x1="353.600000" y1="125.000000" x2="356.600000" y2="124.000000"  transform="rotate(0.000000,356.600000,124.000000)" style="stroke: black; stroke-width:0.25;"/>
<line x1="353.600000" y1="131.000000" x2="356.600000" y2="132.000000"  transform="rotate(0.000000,356.600000,132.000000)" style="stroke: black; stroke-width:0.25;"/>
<line x1="353.600000" y1="133.000000" x2="356.600000" y2="132.000000"  transform="rotate(0.000000,356.600000,132.000000)" style="stroke: black; stroke-width:0.25;"/>
<a xlink:href="random-0x260af00.svg">
<rect x="193.250000" y="57.000000" width="141.900000" height="24.000000" rx="0.1" ry="0.1" style="stroke:none;fill:#aaaaaa;;filter:url(#filter);"/>
<rect x="192.250000" y="56.000000" width="141.900000" height="24.000000" rx="0" ry="0" style="stroke:none;fill:#003366;"/>
</a>
<a xlink:href="random-0x260af00.svg">
<text x="263.200000" y="70.000000" font-family="Arial" font-size="7" text-anchor="middle" fill="#FFFFFF">random((19200..., 0.1):/:int)(7)</text>
</a>
<circle cx="332.150000" cy="78.000000" r="1"/>
<rect x="193.250000" y="25.000000" width="141.900000" height="24.000000" rx="0.1" ry="0.1" style="stroke:none;fill:#aaaaaa;;filter:url(#filter);"/>
<rect x="192.250000" y="24.000000" width="141.900000" height="24.000000" rx="0" ry="0" style="stroke:none;fill:#477881;"/>
<text x="263.200000" y="38.000000" font-family="Arial" font-size="7" text-anchor="middle" fill="#FFFFFF">hslider(time on, 1, 1, 1000, 0.1)</text>
<circle cx="332.150000" cy="46.000000" r="1"/>
<rect x="153.250000" y="41.000000" width="24.000000" height="24.000000" rx="0.1" ry="0.1" style="stroke:none;fill:#aaaaaa;;filter:url(#filter);"/>
<rect x="152.250000" y="40.000000" width="24.000000" height="24.000000" rx="0" ry="0" style="stroke:none;fill:#4B71A1;"/>
<text x="164.250000" y="54.000000" font-family="Arial" font-size="7" text-anchor="middle" fill="#FFFFFF">*</text>
<circle cx="174.250000" cy="62.000000" r="1"/>
<line x1="179.250000" y1="55.000000" x2="176.250000" y2="56.000000"  transform="rotate(0.000000,176.250000,56.000000)" style="stroke: black; stroke-width:0.25;"/>
<line x1="179.250000" y1="57.000000" x2="176.250000" y2="56.000000"  transform="rotate(0.000000,176.250000,56.000000)" style="stroke: black; stroke-width:0.25;"/>
<line x1="179.250000" y1="47.000000" x2="176.250000" y2="48.000000"  transform="rotate(0.000000,176.250000,48.000000)" style="stroke: black; stroke-width:0.25;"/>
<line x1="179.250000" y1="49.000000" x2="176.250000" y2="48.000000"  transform="rotate(0.000000,176.250000,48.000000)" style="stroke: black; stroke-width:0.25;"/>
<a xlink:href="safer-0x26124c0.svg">
<rect x="119.450000" y="41.000000" width="25.800000" height="24.000000" rx="0.1" ry="0.1" style="stroke:none;fill:#aaaaaa;;filter:url(#filter);"/>
<rect x="118.450000" y="40.000000" width="25.800000" height="24.000000" rx="0" ry="0" style="stroke:none;fill:#003366;"/>
</a>
<a xlink:href="safer-0x26124c0.svg">
<text x="131.350000" y="54.000000" font-family="Arial" font-size="7" text-anchor="middle" fill="#FFFFFF">safer</text>
</a>
<circle cx="142.250000" cy="62.000000" r="1"/>
<line x1="147.250000" y1="51.000000" x2="144.250000" y2="52.000000"  transform="rotate(0.000000,144.250000,52.000000)" style="stroke: black; stroke-width:0.25;"/>
<line x1="147.250000" y1="53.000000" x2="144.250000" y2="52.000000"  transform="rotate(0.000000,144.250000,52.000000)" style="stroke: black; stroke-width:0.25;"/>
<rect x="79.450000" y="45.000000" width="24.000000" height="24.000000" rx="0.1" ry="0.1" style="stroke:none;fill:#aaaaaa;;filter:url(#filter);"/>
<rect x="78.450000" y="44.000000" width="24.000000" height="24.000000" rx="0" ry="0" style="stroke:none;fill:#4B71A1;"/>
<text x="90.450000" y="58.000000" font-family="Arial" font-size="7" text-anchor="middle" fill="#FFFFFF">@</text>
<circle cx="100.450000" cy="66.000000" r="1"/>
<line x1="105.450000" y1="59.000000" x2="102.450000" y2="60.000000"  transform="rotate(0.000000,102.450000,60.000000)" style="stroke: black; stroke-width:0.25;"/>
<line x1="105.450000" y1="61.000000" x2="102.450000" y2="60.000000"  transform="rotate(0.000000,102.450000,60.000000)" style="stroke: black; stroke-width:0.25;"/>
<line x1="105.450000" y1="51.000000" x2="102.450000" y2="52.000000"  transform="rotate(0.000000,102.450000,52.000000)" style="stroke: black; stroke-width:0.25;"/>
<line x1="105.450000" y1="53.000000" x2="102.450000" y2="52.000000"  transform="rotate(0.000000,102.450000,52.000000)" style="stroke: black; stroke-width:0.25;"/>
<line x1="382.600000" y1="128.000000" x2="382.600000" y2="124.000000"  style="stroke:black; stroke-linecap:round; stroke-width:0.25;"/>
<line x1="382.600000" y1="124.000000" x2="386.600000" y2="124.000000"  style="stroke:black; stroke-linecap:round; stroke-width:0.25;"/>
<line x1="386.600000" y1="124.000000" x2="386.600000" y2="128.000000"  style="stroke:black; stroke-linecap:round; stroke-width:0.25;"/>
<rect x="405.600000" y="85.000000" width="24.000000" height="24.000000" rx="0.1" ry="0.1" style="stroke:none;fill:#aaaaaa;;filter:url(#filter);"/>
<rect x="404.600000" y="84.000000" width="24.000000" height="24.000000" rx="0" ry="0" style="stroke:none;fill:#f44800;"/>
<text x="416.600000" y="98.000000" font-family="Arial" font-size="7" text-anchor="middle" fill="#FFFFFF">1</text>
<circle cx="406.600000" cy="86.000000" r="1"/>
<rect x="445.600000" y="81.000000" width="24.000000" height="24.000000" rx="0.1" ry="0.1" style="stroke:none;fill:#aaaaaa;;filter:url(#filter);"/>
<rect x="444.600000" y="80.000000" width="24.000000" height="24.000000" rx="0" ry="0" style="stroke:none;fill:#4B71A1;"/>
<text x="456.600000" y="94.000000" font-family="Arial" font-size="7" text-anchor="middle" fill="#FFFFFF">-</text>
<circle cx="446.600000" cy="82.000000" r="1"/>
<line x1="441.600000" y1="87.000000" x2="444.600000" y2="88.000000"  transform="rotate(0.000000,444.600000,88.000000)" style="stroke: black; stroke-width:0.25;"/>
<line x1="441.600000" y1="89.000000" x2="444.600000" y2="88.000000"  transform="rotate(0.000000,444.600000,88.000000)" style="stroke: black; stroke-width:0.25;"/>
<line x1="441.600000" y1="95.000000" x2="444.600000" y2="96.000000"  transform="rotate(0.000000,444.600000,96.000000)" style="stroke: black; stroke-width:0.25;"/>
<line x1="441.600000" y1="97.000000" x2="444.600000" y2="96.000000"  transform="rotate(0.000000,444.600000,96.000000)" style="stroke: black; stroke-width:0.25;"/>
<line x1="15.000000" y1="15.000000" x2="15.000000" y2="169.000000"  style="stroke: black; stroke-linecap:round; stroke-width:0.25; stroke-dasharray:3,3;"/>
<line x1="15.000000" y1="169.000000" x2="477.600000" y2="169.000000"  style="stroke: black; stroke-linecap:round; stroke-width:0.25; stroke-dasharray:3,3;"/>
<line x1="477.600000" y1="169.000000" x2="477.600000" y2="15.000000"  style="stroke: black; stroke-linecap:round; stroke-width:0.25; stroke-dasharray:3,3;"/>
<line x1="15.000000" y1="15.000000" x2="20.000000" y2="15.000000"  style="stroke: black; stroke-linecap:round; stroke-width:0.25; stroke-dasharray:3,3;"/>
<line x1="119.975000" y1="15.000000" x2="477.600000" y2="15.000000"  style="stroke: black; stroke-linecap:round; stroke-width:0.25; stroke-dasharray:3,3;"/>
<text x="20.000000" y="17.000000" font-family="Arial" font-size="7">trigger(((_,7...%:_,192000:%)</text>
<line x1="479.600000" y1="91.000000" x2="482.600000" y2="92.000000"  transform="rotate(0.000000,482.600000,92.000000)" style="stroke: black; stroke-width:0.25;"/>
<line x1="479.600000" y1="93.000000" x2="482.600000" y2="92.000000"  transform="rotate(0.000000,482.600000,92.000000)" style="stroke: black; stroke-width:0.25;"/>
<line x1="28.000000" y1="56.000000" x2="28.000000" y2="56.000000"  style="stroke:black; stroke-linecap:round; stroke-width:0.25;"/>
<line x1="28.000000" y1="56.000000" x2="28.000000" y2="96.000000"  style="stroke:black; stroke-linecap:round; stroke-width:0.25;"/>
<line x1="28.000000" y1="96.000000" x2="28.000000" y2="96.000000"  style="stroke:black; stroke-linecap:round; stroke-width:0.25;"/>
<line x1="28.000000" y1="96.000000" x2="146.300000" y2="96.000000"  style="stroke:black; stroke-linecap:round; stroke-width:0.25;"/>
<line x1="74.450000" y1="56.000000" x2="28.000000" y2="56.000000"  style="stroke:black; stroke-linecap:round; stroke-width:0.25;"/>
<line x1="78.450000" y1="56.000000" x2="74.450000" y2="56.000000"  style="stroke:black; stroke-linecap:round; stroke-width:0.25;"/>
<line x1="106.450000" y1="52.000000" x2="102.450000" y2="52.000000"  style="stroke:black; stroke-linecap:round; stroke-width:0.25;"/>
<line x1="106.450000" y1="60.000000" x2="102.450000" y2="60.000000"  style="stroke:black; stroke-linecap:round; stroke-width:0.25;"/>
<line x1="106.450000" y1="60.000000" x2="106.450000" y2="60.000000"  style="stroke:black; stroke-linecap:round; stroke-width:0.25;"/>
<line x1="106.450000" y1="88.000000" x2="106.450000" y2="60.000000"  style="stroke:black; stroke-linecap:round; stroke-width:0.25;"/>
<line x1="114.450000" y1="52.000000" x2="106.450000" y2="52.000000"  style="stroke:black; stroke-linecap:round; stroke-width:0.25;"/>
<line x1="114.450000" y1="88.000000" x2="106.450000" y2="88.000000"  style="stroke:black; stroke-linecap:round; stroke-width:0.25;"/>
<line x1="118.450000" y1="52.000000" x2="114.450000" y2="52.000000"  style="stroke:black; stroke-linecap:round; stroke-width:0.25;"/>
<line x1="146.300000" y1="96.000000" x2="264.600000" y2="96.000000"  style="stroke:black; stroke-linecap:round; stroke-width:0.25;"/>
<line x1="148.250000" y1="52.000000" x2="144.250000" y2="52.000000"  style="stroke:black; stroke-linecap:round; stroke-width:0.25;"/>
<line x1="148.250000" y1="52.000000" x2="148.250000" y2="52.000000"  style="stroke:black; stroke-linecap:round; stroke-width:0.25;"/>
<line x1="152.250000" y1="52.000000" x2="148.250000" y2="52.000000"  style="stroke:black; stroke-linecap:round; stroke-width:0.25;"/>
<line x1="180.250000" y1="48.000000" x2="176.250000" y2="48.000000"  style="stroke:black; stroke-linecap:round; stroke-width:0.25;"/>
<line x1="180.250000" y1="56.000000" x2="176.250000" y2="56.000000"  style="stroke:black; stroke-linecap:round; stroke-width:0.25;"/>
<line x1="180.250000" y1="56.000000" x2="180.250000" y2="56.000000"  style="stroke:black; stroke-linecap:round; stroke-width:0.25;"/>
<line x1="180.250000" y1="68.000000" x2="180.250000" y2="56.000000"  style="stroke:black; stroke-linecap:round; stroke-width:0.25;"/>
<line x1="180.350000" y1="116.000000" x2="184.350000" y2="116.000000"  style="stroke:black; stroke-linecap:round; stroke-width:0.25;"/>
<line x1="184.350000" y1="116.000000" x2="190.800000" y2="116.000000"  style="stroke:black; stroke-linecap:round; stroke-width:0.25;"/>
<line x1="186.800000" y1="148.000000" x2="190.800000" y2="148.000000"  style="stroke:black; stroke-linecap:round; stroke-width:0.25;"/>
<line x1="188.250000" y1="36.000000" x2="188.250000" y2="36.000000"  style="stroke:black; stroke-linecap:round; stroke-width:0.25;"/>
<line x1="188.250000" y1="36.000000" x2="188.250000" y2="48.000000"  style="stroke:black; stroke-linecap:round; stroke-width:0.25;"/>
<line x1="188.250000" y1="48.000000" x2="180.250000" y2="48.000000"  style="stroke:black; stroke-linecap:round; stroke-width:0.25;"/>
<line x1="188.250000" y1="68.000000" x2="180.250000" y2="68.000000"  style="stroke:black; stroke-linecap:round; stroke-width:0.25;"/>
<line x1="190.800000" y1="116.000000" x2="198.800000" y2="116.000000"  style="stroke:black; stroke-linecap:round; stroke-width:0.25;"/>
<line x1="190.800000" y1="136.000000" x2="198.800000" y2="136.000000"  style="stroke:black; stroke-linecap:round; stroke-width:0.25;"/>
<line x1="190.800000" y1="148.000000" x2="190.800000" y2="136.000000"  style="stroke:black; stroke-linecap:round; stroke-width:0.25;"/>
<line x1="190.800000" y1="148.000000" x2="190.800000" y2="148.000000"  style="stroke:black; stroke-linecap:round; stroke-width:0.25;"/>
<line x1="192.250000" y1="36.000000" x2="188.250000" y2="36.000000"  style="stroke:black; stroke-linecap:round; stroke-width:0.25;"/>
<line x1="192.250000" y1="68.000000" x2="188.250000" y2="68.000000"  style="stroke:black; stroke-linecap:round; stroke-width:0.25;"/>
<line x1="198.800000" y1="116.000000" x2="198.800000" y2="128.000000"  style="stroke:black; stroke-linecap:round; stroke-width:0.25;"/>
<line x1="198.800000" y1="128.000000" x2="198.800000" y2="128.000000"  style="stroke:black; stroke-linecap:round; stroke-width:0.25;"/>
<line x1="198.800000" y1="128.000000" x2="202.800000" y2="128.000000"  style="stroke:black; stroke-linecap:round; stroke-width:0.25;"/>
<line x1="198.800000" y1="136.000000" x2="202.800000" y2="136.000000"  style="stroke:black; stroke-linecap:round; stroke-width:0.25;"/>
<line x1="226.300000" y1="88.000000" x2="114.450000" y2="88.000000"  style="stroke:black; stroke-linecap:round; stroke-width:0.25;"/>
<line x1="226.800000" y1="132.000000" x2="230.800000" y2="132.000000"  style="stroke:black; stroke-linecap:round; stroke-width:0.25;"/>
<line x1="230.800000" y1="132.000000" x2="230.800000" y2="132.000000"  style="stroke:black; stroke-linecap:round; stroke-width:0.25;"/>
<line x1="230.800000" y1="132.000000" x2="234.800000" y2="132.000000"  style="stroke:black; stroke-linecap:round; stroke-width:0.25;"/>
<line x1="260.600000" y1="132.000000" x2="264.600000" y2="132.000000"  style="stroke:black; stroke-linecap:round; stroke-width:0.25;"/>
<line x1="264.600000" y1="96.000000" x2="272.600000" y2="96.000000"  style="stroke:black; stroke-linecap:round; stroke-width:0.25;"/>
<line x1="264.600000" y1="132.000000" x2="272.600000" y2="132.000000"  style="stroke:black; stroke-linecap:round; stroke-width:0.25;"/>
<line x1="272.600000" y1="96.000000" x2="272.600000" y2="124.000000"  style="stroke:black; stroke-linecap:round; stroke-width:0.25;"/>
<line x1="272.600000" y1="124.000000" x2="272.600000" y2="124.000000"  style="stroke:black; stroke-linecap:round; stroke-width:0.25;"/>
<line x1="272.600000" y1="124.000000" x2="276.600000" y2="124.000000"  style="stroke:black; stroke-linecap:round; stroke-width:0.25;"/>
<line x1="272.600000" y1="132.000000" x2="276.600000" y2="132.000000"  style="stroke:black; stroke-linecap:round; stroke-width:0.25;"/>
<line x1="300.600000" y1="128.000000" x2="304.600000" y2="128.000000"  style="stroke:black; stroke-linecap:round; stroke-width:0.25;"/>
<line x1="304.600000" y1="112.000000" x2="312.600000" y2="112.000000"  style="stroke:black; stroke-linecap:round; stroke-width:0.25;"/>
<line x1="304.600000" y1="128.000000" x2="304.600000" y2="112.000000"  style="stroke:black; stroke-linecap:round; stroke-width:0.25;"/>
<line x1="304.600000" y1="128.000000" x2="304.600000" y2="128.000000"  style="stroke:black; stroke-linecap:round; stroke-width:0.25;"/>
<line x1="312.600000" y1="112.000000" x2="328.600000" y2="112.000000"  style="stroke:black; stroke-linecap:round; stroke-width:0.25;"/>
<line x1="328.600000" y1="112.000000" x2="344.600000" y2="112.000000"  style="stroke:black; stroke-linecap:round; stroke-width:0.25;"/>
<line x1="338.150000" y1="88.000000" x2="226.300000" y2="88.000000"  style="stroke:black; stroke-linecap:round; stroke-width:0.25;"/>
<line x1="340.600000" y1="132.000000" x2="344.600000" y2="132.000000"  style="stroke:black; stroke-linecap:round; stroke-width:0.25;"/>
<line x1="344.600000" y1="112.000000" x2="352.600000" y2="112.000000"  style="stroke:black; stroke-linecap:round; stroke-width:0.25;"/>
<line x1="344.600000" y1="132.000000" x2="352.600000" y2="132.000000"  style="stroke:black; stroke-linecap:round; stroke-width:0.25;"/>
<line x1="352.600000" y1="112.000000" x2="352.600000" y2="124.000000"  style="stroke:black; stroke-linecap:round; stroke-width:0.25;"/>
<line x1="352.600000" y1="124.000000" x2="352.600000" y2="124.000000"  style="stroke:black; stroke-linecap:round; stroke-width:0.25;"/>
<line x1="352.600000" y1="124.000000" x2="356.600000" y2="124.000000"  style="stroke:black; stroke-linecap:round; stroke-width:0.25;"/>
<line x1="352.600000" y1="132.000000" x2="356.600000" y2="132.000000"  style="stroke:black; stroke-linecap:round; stroke-width:0.25;"/>
<line x1="380.600000" y1="128.000000" x2="384.600000" y2="128.000000"  style="stroke:black; stroke-linecap:round; stroke-width:0.25;"/>
<line x1="384.600000" y1="88.000000" x2="338.150000" y2="88.000000"  style="stroke:black; stroke-linecap:round; stroke-width:0.25;"/>
<line x1="384.600000" y1="88.000000" x2="384.600000" y2="88.000000"  style="stroke:black; stroke-linecap:round; stroke-width:0.25;"/>
<line x1="384.600000" y1="124.000000" x2="384.600000" y2="88.000000"  style="stroke:black; stroke-linecap:round; stroke-width:0.25;"/>
<line x1="384.600000" y1="128.000000" x2="386.600000" y2="128.000000"  style="stroke:black; stroke-linecap:round; stroke-width:0.25;"/>
<line x1="386.600000" y1="128.000000" x2="392.600000" y2="128.000000"  style="stroke:black; stroke-linecap:round; stroke-width:0.25;"/>
<line x1="392.600000" y1="76.000000" x2="400.600000" y2="76.000000"  style="stroke:black; stroke-linecap:round; stroke-width:0.25;"/>
<line x1="392.600000" y1="128.000000" x2="392.600000" y2="76.000000"  style="stroke:black; stroke-linecap:round; stroke-width:0.25;"/>
<line x1="392.600000" y1="128.000000" x2="392.600000" y2="128.000000"  style="stroke:black; stroke-linecap:round; stroke-width:0.25;"/>
<line x1="400.600000" y1="76.000000" x2="416.600000" y2="76.000000"  style="stroke:black; stroke-linecap:round; stroke-width:0.25;"/>
<line x1="416.600000" y1="76.000000" x2="432.600000" y2="76.000000"  style="stroke:black; stroke-linecap:round; stroke-width:0.25;"/>
<line x1="428.600000" y1="96.000000" x2="432.600000" y2="96.000000"  style="stroke:black; stroke-linecap:round; stroke-width:0.25;"/>
<line x1="432.600000" y1="76.000000" x2="440.600000" y2="76.000000"  style="stroke:black; stroke-linecap:round; stroke-width:0.25;"/>
<line x1="432.600000" y1="96.000000" x2="440.600000" y2="96.000000"  style="stroke:black; stroke-linecap:round; stroke-width:0.25;"/>
<line x1="440.600000" y1="76.000000" x2="440.600000" y2="88.000000"  style="stroke:black; stroke-linecap:round; stroke-width:0.25;"/>
<line x1="440.600000" y1="88.000000" x2="440.600000" y2="88.000000"  style="stroke:black; stroke-linecap:round; stroke-width:0.25;"/>
<line x1="440.600000" y1="88.000000" x2="444.600000" y2="88.000000"  style="stroke:black; stroke-linecap:round; stroke-width:0.25;"/>
<line x1="440.600000" y1="96.000000" x2="444.600000" y2="96.000000"  style="stroke:black; stroke-linecap:round; stroke-width:0.25;"/>
<line x1="468.600000" y1="92.000000" x2="472.600000" y2="92.000000"  style="stroke:black; stroke-linecap:round; stroke-width:0.25;"/>
<line x1="472.600000" y1="92.000000" x2="482.600000" y2="92.000000"  style="stroke:black; stroke-linecap:round; stroke-width:0.25;"/>
</svg>
