<?xml version="1.0"?>
<svg xmlns="http://www.w3.org/2000/svg" xmlns:xlink="http://www.w3.org/1999/xlink" viewBox="0 0 294.800000 156.000000" width="147.400000mm" height="78.000000mm" version="1.1">
<defs>
   <filter id="filter" filterRes="18" x="0" y="0">
     <feGaussianBlur in="SourceGraphic" stdDeviation="1.55" result="blur"/>
     <feOffset in="blur" dx="3" dy="3"/>
   </filter>
</defs>
<a xlink:href="process.svg">
<rect x="1.000000" y="1.000000" width="293.800000" height="155.000000" rx="0.1" ry="0.1" style="stroke:none;fill:#aaaaaa;;filter:url(#filter);"/>
<rect x="0.000000" y="0.000000" width="293.800000" height="155.000000" rx="0" ry="0" style="stroke:none;fill:#ffffff;"/>
</a>
<text x="10.000000" y="7.000000" font-family="Arial" font-size="7"></text>
<a xlink:href="SR-0x17a8830.svg">
<rect x="80.400000" y="25.000000" width="24.000000" height="24.000000" rx="0.1" ry="0.1" style="stroke:none;fill:#aaaaaa;;filter:url(#filter);"/>
<rect x="79.400000" y="24.000000" width="24.000000" height="24.000000" rx="0" ry="0" style="stroke:none;fill:#003366;"/>
</a>
<a xlink:href="SR-0x17a8830.svg">
<text x="91.400000" y="38.000000" font-family="Arial" font-size="7" text-anchor="middle" fill="#FFFFFF">SR</text>
</a>
<circle cx="81.400000" cy="26.000000" r="1"/>
<rect x="79.500000" y="57.000000" width="25.800000" height="24.000000" rx="0.1" ry="0.1" style="stroke:none;fill:#aaaaaa;;filter:url(#filter);"/>
<rect x="78.500000" y="56.000000" width="25.800000" height="24.000000" rx="0" ry="0" style="stroke:none;fill:#f44800;"/>
<text x="91.400000" y="70.000000" font-family="Arial" font-size="7" text-anchor="middle" fill="#FFFFFF">1000</text>
<circle cx="80.500000" cy="58.000000" r="1"/>
<rect x="121.300000" y="41.000000" width="24.000000" height="24.000000" rx="0.1" ry="0.1" style="stroke:none;fill:#aaaaaa;;filter:url(#filter);"/>
<rect x="120.300000" y="40.000000" width="24.000000" height="24.000000" rx="0" ry="0" style="stroke:none;fill:#4B71A1;"/>
<text x="132.300000" y="54.000000" font-family="Arial" font-size="7" text-anchor="middle" fill="#FFFFFF">/</text>
<circle cx="122.300000" cy="42.000000" r="1"/>
<line x1="117.300000" y1="47.000000" x2="120.300000" y2="48.000000"  transform="rotate(0.000000,120.300000,48.000000)" style="stroke: black; stroke-width:0.25;"/>
<line x1="117.300000" y1="49.000000" x2="120.300000" y2="48.000000"  transform="rotate(0.000000,120.300000,48.000000)" style="stroke: black; stroke-width:0.25;"/>
<line x1="117.300000" y1="55.000000" x2="120.300000" y2="56.000000"  transform="rotate(0.000000,120.300000,56.000000)" style="stroke: black; stroke-width:0.25;"/>
<line x1="117.300000" y1="57.000000" x2="120.300000" y2="56.000000"  transform="rotate(0.000000,120.300000,56.000000)" style="stroke: black; stroke-width:0.25;"/>
<rect x="35.000000" y="99.000000" width="154.800000" height="24.000000" rx="0.1" ry="0.1" style="stroke:none;fill:#aaaaaa;;filter:url(#filter);"/>
<rect x="34.000000" y="98.000000" width="154.800000" height="24.000000" rx="0" ry="0" style="stroke:none;fill:#477881;"/>
<text x="111.400000" y="112.000000" font-family="Arial" font-size="7" text-anchor="middle" fill="#FFFFFF">hslider(Period, 1, 0.1, 10000, 0.1)</text>
<circle cx="36.000000" cy="100.000000" r="1"/>
<line x1="25.000000" y1="89.000000" x2="25.000000" y2="131.000000"  style="stroke: black; stroke-linecap:round; stroke-width:0.25; stroke-dasharray:3,3;"/>
<line x1="25.000000" y1="131.000000" x2="197.800000" y2="131.000000"  style="stroke: black; stroke-linecap:round; stroke-width:0.25; stroke-dasharray:3,3;"/>
<line x1="197.800000" y1="131.000000" x2="197.800000" y2="89.000000"  style="stroke: black; stroke-linecap:round; stroke-width:0.25; stroke-dasharray:3,3;"/>
<line x1="25.000000" y1="89.000000" x2="30.000000" y2="89.000000"  style="stroke: black; stroke-linecap:round; stroke-width:0.25; stroke-dasharray:3,3;"/>
<line x1="39.675000" y1="89.000000" x2="197.800000" y2="89.000000"  style="stroke: black; stroke-linecap:round; stroke-width:0.25; stroke-dasharray:3,3;"/>
<text x="30.000000" y="91.000000" font-family="Arial" font-size="7">T</text>
<rect x="215.800000" y="67.000000" width="24.000000" height="24.000000" rx="0.1" ry="0.1" style="stroke:none;fill:#aaaaaa;;filter:url(#filter);"/>
<rect x="214.800000" y="66.000000" width="24.000000" height="24.000000" rx="0" ry="0" style="stroke:none;fill:#4B71A1;"/>
<text x="226.800000" y="80.000000" font-family="Arial" font-size="7" text-anchor="middle" fill="#FFFFFF">*</text>
<circle cx="216.800000" cy="68.000000" r="1"/>
<line x1="211.800000" y1="73.000000" x2="214.800000" y2="74.000000"  transform="rotate(0.000000,214.800000,74.000000)" style="stroke: black; stroke-width:0.25;"/>
<line x1="211.800000" y1="75.000000" x2="214.800000" y2="74.000000"  transform="rotate(0.000000,214.800000,74.000000)" style="stroke: black; stroke-width:0.25;"/>
<line x1="211.800000" y1="81.000000" x2="214.800000" y2="82.000000"  transform="rotate(0.000000,214.800000,82.000000)" style="stroke: black; stroke-width:0.25;"/>
<line x1="211.800000" y1="83.000000" x2="214.800000" y2="82.000000"  transform="rotate(0.000000,214.800000,82.000000)" style="stroke: black; stroke-width:0.25;"/>
<rect x="247.800000" y="67.000000" width="24.000000" height="24.000000" rx="0.1" ry="0.1" style="stroke:none;fill:#aaaaaa;;filter:url(#filter);"/>
<rect x="246.800000" y="66.000000" width="24.000000" height="24.000000" rx="0" ry="0" style="stroke:none;fill:#4B71A1;"/>
<text x="258.800000" y="80.000000" font-family="Arial" font-size="7" text-anchor="middle" fill="#FFFFFF">int</text>
<circle cx="248.800000" cy="68.000000" r="1"/>
<line x1="243.800000" y1="77.000000" x2="246.800000" y2="78.000000"  transform="rotate(0.000000,246.800000,78.000000)" style="stroke: black; stroke-width:0.25;"/>
<line x1="243.800000" y1="79.000000" x2="246.800000" y2="78.000000"  transform="rotate(0.000000,246.800000,78.000000)" style="stroke: black; stroke-width:0.25;"/>
<line x1="15.000000" y1="15.000000" x2="15.000000" y2="141.000000"  style="stroke: black; stroke-linecap:round; stroke-width:0.25; stroke-dasharray:3,3;"/>
<line x1="15.000000" y1="141.000000" x2="279.800000" y2="141.000000"  style="stroke: black; stroke-linecap:round; stroke-width:0.25; stroke-dasharray:3,3;"/>
<line x1="279.800000" y1="141.000000" x2="279.800000" y2="15.000000"  style="stroke: black; stroke-linecap:round; stroke-width:0.25; stroke-dasharray:3,3;"/>
<line x1="15.000000" y1="15.000000" x2="20.000000" y2="15.000000"  style="stroke: black; stroke-linecap:round; stroke-width:0.25; stroke-dasharray:3,3;"/>
<line x1="29.675000" y1="15.000000" x2="279.800000" y2="15.000000"  style="stroke: black; stroke-linecap:round; stroke-width:0.25; stroke-dasharray:3,3;"/>
<text x="20.000000" y="17.000000" font-family="Arial" font-size="7">N</text>
<line x1="281.800000" y1="77.000000" x2="284.800000" y2="78.000000"  transform="rotate(0.000000,284.800000,78.000000)" style="stroke: black; stroke-width:0.25;"/>
<line x1="281.800000" y1="79.000000" x2="284.800000" y2="78.000000"  transform="rotate(0.000000,284.800000,78.000000)" style="stroke: black; stroke-width:0.25;"/>
<line x1="103.400000" y1="36.000000" x2="107.400000" y2="36.000000"  style="stroke:black; stroke-linecap:round; stroke-width:0.25;"/>
<line x1="104.300000" y1="68.000000" x2="108.300000" y2="68.000000"  style="stroke:black; stroke-linecap:round; stroke-width:0.25;"/>
<line x1="107.400000" y1="36.000000" x2="108.300000" y2="36.000000"  style="stroke:black; stroke-linecap:round; stroke-width:0.25;"/>
<line x1="108.300000" y1="56.000000" x2="116.300000" y2="56.000000"  style="stroke:black; stroke-linecap:round; stroke-width:0.25;"/>
<line x1="108.300000" y1="68.000000" x2="108.300000" y2="56.000000"  style="stroke:black; stroke-linecap:round; stroke-width:0.25;"/>
<line x1="108.300000" y1="68.000000" x2="108.300000" y2="68.000000"  style="stroke:black; stroke-linecap:round; stroke-width:0.25;"/>
<line x1="108.300000" y1="36.000000" x2="116.300000" y2="36.000000"  style="stroke:black; stroke-linecap:round; stroke-width:0.25;"/>
<line x1="116.300000" y1="48.000000" x2="120.300000" y2="48.000000"  style="stroke:black; stroke-linecap:round; stroke-width:0.25;"/>
<line x1="116.300000" y1="56.000000" x2="120.300000" y2="56.000000"  style="stroke:black; stroke-linecap:round; stroke-width:0.25;"/>
<line x1="116.300000" y1="36.000000" x2="116.300000" y2="48.000000"  style="stroke:black; stroke-linecap:round; stroke-width:0.25;"/>
<line x1="116.300000" y1="48.000000" x2="116.300000" y2="48.000000"  style="stroke:black; stroke-linecap:round; stroke-width:0.25;"/>
<line x1="144.300000" y1="52.000000" x2="148.300000" y2="52.000000"  style="stroke:black; stroke-linecap:round; stroke-width:0.25;"/>
<line x1="148.300000" y1="52.000000" x2="202.800000" y2="52.000000"  style="stroke:black; stroke-linecap:round; stroke-width:0.25;"/>
<line x1="188.800000" y1="110.000000" x2="192.800000" y2="110.000000"  style="stroke:black; stroke-linecap:round; stroke-width:0.25;"/>
<line x1="192.800000" y1="110.000000" x2="202.800000" y2="110.000000"  style="stroke:black; stroke-linecap:round; stroke-width:0.25;"/>
<line x1="202.800000" y1="82.000000" x2="210.800000" y2="82.000000"  style="stroke:black; stroke-linecap:round; stroke-width:0.25;"/>
<line x1="202.800000" y1="110.000000" x2="202.800000" y2="82.000000"  style="stroke:black; stroke-linecap:round; stroke-width:0.25;"/>
<line x1="202.800000" y1="110.000000" x2="202.800000" y2="110.000000"  style="stroke:black; stroke-linecap:round; stroke-width:0.25;"/>
<line x1="202.800000" y1="52.000000" x2="210.800000" y2="52.000000"  style="stroke:black; stroke-linecap:round; stroke-width:0.25;"/>
<line x1="210.800000" y1="74.000000" x2="214.800000" y2="74.000000"  style="stroke:black; stroke-linecap:round; stroke-width:0.25;"/>
<line x1="210.800000" y1="82.000000" x2="214.800000" y2="82.000000"  style="stroke:black; stroke-linecap:round; stroke-width:0.25;"/>
<line x1="210.800000" y1="52.000000" x2="210.800000" y2="74.000000"  style="stroke:black; stroke-linecap:round; stroke-width:0.25;"/>
<line x1="210.800000" y1="74.000000" x2="210.800000" y2="74.000000"  style="stroke:black; stroke-linecap:round; stroke-width:0.25;"/>
<line x1="238.800000" y1="78.000000" x2="242.800000" y2="78.000000"  style="stroke:black; stroke-linecap:round; stroke-width:0.25;"/>
<line x1="242.800000" y1="78.000000" x2="242.800000" y2="78.000000"  style="stroke:black; stroke-linecap:round; stroke-width:0.25;"/>
<line x1="242.800000" y1="78.000000" x2="246.800000" y2="78.000000"  style="stroke:black; stroke-linecap:round; stroke-width:0.25;"/>
<line x1="270.800000" y1="78.000000" x2="274.800000" y2="78.000000"  style="stroke:black; stroke-linecap:round; stroke-width:0.25;"/>
<line x1="274.800000" y1="78.000000" x2="284.800000" y2="78.000000"  style="stroke:black; stroke-linecap:round; stroke-width:0.25;"/>
</svg>
