<?xml version="1.0"?>
<svg xmlns="http://www.w3.org/2000/svg" xmlns:xlink="http://www.w3.org/1999/xlink" viewBox="0 0 356.700000 144.000000" width="178.350000mm" height="72.000000mm" version="1.1">
<defs>
   <filter id="filter" filterRes="18" x="0" y="0">
     <feGaussianBlur in="SourceGraphic" stdDeviation="1.55" result="blur"/>
     <feOffset in="blur" dx="3" dy="3"/>
   </filter>
</defs>
<a xlink:href="process.svg">
<rect x="1.000000" y="1.000000" width="355.700000" height="143.000000" rx="0.1" ry="0.1" style="stroke:none;fill:#aaaaaa;;filter:url(#filter);"/>
<rect x="0.000000" y="0.000000" width="355.700000" height="143.000000" rx="0" ry="0" style="stroke:none;fill:#ffffff;"/>
</a>
<text x="10.000000" y="7.000000" font-family="Arial" font-size="7"></text>
<rect x="25.000000" y="45.000000" width="24.000000" height="24.000000" rx="0.1" ry="0.1" style="stroke:none;fill:#aaaaaa;;filter:url(#filter);"/>
<rect x="24.000000" y="44.000000" width="24.000000" height="24.000000" rx="0" ry="0" style="stroke:none;fill:#f44800;"/>
<text x="36.000000" y="58.000000" font-family="Arial" font-size="7" text-anchor="middle" fill="#FFFFFF">2</text>
<circle cx="26.000000" cy="46.000000" r="1"/>
<rect x="65.000000" y="41.000000" width="24.000000" height="24.000000" rx="0.1" ry="0.1" style="stroke:none;fill:#aaaaaa;;filter:url(#filter);"/>
<rect x="64.000000" y="40.000000" width="24.000000" height="24.000000" rx="0" ry="0" style="stroke:none;fill:#4B71A1;"/>
<text x="76.000000" y="54.000000" font-family="Arial" font-size="7" text-anchor="middle" fill="#FFFFFF">/</text>
<circle cx="66.000000" cy="42.000000" r="1"/>
<line x1="61.000000" y1="47.000000" x2="64.000000" y2="48.000000"  transform="rotate(0.000000,64.000000,48.000000)" style="stroke: black; stroke-width:0.25;"/>
<line x1="61.000000" y1="49.000000" x2="64.000000" y2="48.000000"  transform="rotate(0.000000,64.000000,48.000000)" style="stroke: black; stroke-width:0.25;"/>
<line x1="61.000000" y1="55.000000" x2="64.000000" y2="56.000000"  transform="rotate(0.000000,64.000000,56.000000)" style="stroke: black; stroke-width:0.25;"/>
<line x1="61.000000" y1="57.000000" x2="64.000000" y2="56.000000"  transform="rotate(0.000000,64.000000,56.000000)" style="stroke: black; stroke-width:0.25;"/>
<rect x="25.000000" y="85.000000" width="24.000000" height="24.000000" rx="0.1" ry="0.1" style="stroke:none;fill:#aaaaaa;;filter:url(#filter);"/>
<rect x="24.000000" y="84.000000" width="24.000000" height="24.000000" rx="0" ry="0" style="stroke:none;fill:#f44800;"/>
<text x="36.000000" y="98.000000" font-family="Arial" font-size="7" text-anchor="middle" fill="#FFFFFF">2</text>
<circle cx="26.000000" cy="86.000000" r="1"/>
<rect x="65.000000" y="81.000000" width="24.000000" height="24.000000" rx="0.1" ry="0.1" style="stroke:none;fill:#aaaaaa;;filter:url(#filter);"/>
<rect x="64.000000" y="80.000000" width="24.000000" height="24.000000" rx="0" ry="0" style="stroke:none;fill:#4B71A1;"/>
<text x="76.000000" y="94.000000" font-family="Arial" font-size="7" text-anchor="middle" fill="#FFFFFF">/</text>
<circle cx="66.000000" cy="82.000000" r="1"/>
<line x1="61.000000" y1="87.000000" x2="64.000000" y2="88.000000"  transform="rotate(0.000000,64.000000,88.000000)" style="stroke: black; stroke-width:0.25;"/>
<line x1="61.000000" y1="89.000000" x2="64.000000" y2="88.000000"  transform="rotate(0.000000,64.000000,88.000000)" style="stroke: black; stroke-width:0.25;"/>
<line x1="61.000000" y1="95.000000" x2="64.000000" y2="96.000000"  transform="rotate(0.000000,64.000000,96.000000)" style="stroke: black; stroke-width:0.25;"/>
<line x1="61.000000" y1="97.000000" x2="64.000000" y2="96.000000"  transform="rotate(0.000000,64.000000,96.000000)" style="stroke: black; stroke-width:0.25;"/>
<rect x="143.000000" y="45.000000" width="24.000000" height="24.000000" rx="0.1" ry="0.1" style="stroke:none;fill:#aaaaaa;;filter:url(#filter);"/>
<rect x="142.000000" y="44.000000" width="24.000000" height="24.000000" rx="0" ry="0" style="stroke:none;fill:#4B71A1;"/>
<text x="154.000000" y="58.000000" font-family="Arial" font-size="7" text-anchor="middle" fill="#FFFFFF">-</text>
<circle cx="144.000000" cy="46.000000" r="1"/>
<line x1="139.000000" y1="51.000000" x2="142.000000" y2="52.000000"  transform="rotate(0.000000,142.000000,52.000000)" style="stroke: black; stroke-width:0.25;"/>
<line x1="139.000000" y1="53.000000" x2="142.000000" y2="52.000000"  transform="rotate(0.000000,142.000000,52.000000)" style="stroke: black; stroke-width:0.25;"/>
<line x1="139.000000" y1="59.000000" x2="142.000000" y2="60.000000"  transform="rotate(0.000000,142.000000,60.000000)" style="stroke: black; stroke-width:0.25;"/>
<line x1="139.000000" y1="61.000000" x2="142.000000" y2="60.000000"  transform="rotate(0.000000,142.000000,60.000000)" style="stroke: black; stroke-width:0.25;"/>
<a xlink:href="DelTime-0x2fdcfd0.svg">
<rect x="183.000000" y="33.000000" width="38.700000" height="24.000000" rx="0.1" ry="0.1" style="stroke:none;fill:#aaaaaa;;filter:url(#filter);"/>
<rect x="182.000000" y="32.000000" width="38.700000" height="24.000000" rx="0" ry="0" style="stroke:none;fill:#003366;"/>
</a>
<a xlink:href="DelTime-0x2fdcfd0.svg">
<text x="201.350000" y="46.000000" font-family="Arial" font-size="7" text-anchor="middle" fill="#FFFFFF">DelTime</text>
</a>
<circle cx="184.000000" cy="34.000000" r="1"/>
<rect x="189.450000" y="65.000000" width="25.800000" height="24.000000" rx="0.1" ry="0.1" style="stroke:none;fill:#aaaaaa;;filter:url(#filter);"/>
<rect x="188.450000" y="64.000000" width="25.800000" height="24.000000" rx="0" ry="0" style="stroke:none;fill:#f44800;"/>
<text x="201.350000" y="78.000000" font-family="Arial" font-size="7" text-anchor="middle" fill="#FFFFFF">1532</text>
<circle cx="190.450000" cy="66.000000" r="1"/>
<rect x="237.700000" y="49.000000" width="24.000000" height="24.000000" rx="0.1" ry="0.1" style="stroke:none;fill:#aaaaaa;;filter:url(#filter);"/>
<rect x="236.700000" y="48.000000" width="24.000000" height="24.000000" rx="0" ry="0" style="stroke:none;fill:#4B71A1;"/>
<text x="248.700000" y="62.000000" font-family="Arial" font-size="7" text-anchor="middle" fill="#FFFFFF">*</text>
<circle cx="238.700000" cy="50.000000" r="1"/>
<line x1="233.700000" y1="55.000000" x2="236.700000" y2="56.000000"  transform="rotate(0.000000,236.700000,56.000000)" style="stroke: black; stroke-width:0.25;"/>
<line x1="233.700000" y1="57.000000" x2="236.700000" y2="56.000000"  transform="rotate(0.000000,236.700000,56.000000)" style="stroke: black; stroke-width:0.25;"/>
<line x1="233.700000" y1="63.000000" x2="236.700000" y2="64.000000"  transform="rotate(0.000000,236.700000,64.000000)" style="stroke: black; stroke-width:0.25;"/>
<line x1="233.700000" y1="65.000000" x2="236.700000" y2="64.000000"  transform="rotate(0.000000,236.700000,64.000000)" style="stroke: black; stroke-width:0.25;"/>
<rect x="269.700000" y="49.000000" width="24.000000" height="24.000000" rx="0.1" ry="0.1" style="stroke:none;fill:#aaaaaa;;filter:url(#filter);"/>
<rect x="268.700000" y="48.000000" width="24.000000" height="24.000000" rx="0" ry="0" style="stroke:none;fill:#4B71A1;"/>
<text x="280.700000" y="62.000000" font-family="Arial" font-size="7" text-anchor="middle" fill="#FFFFFF">int</text>
<circle cx="270.700000" cy="50.000000" r="1"/>
<line x1="265.700000" y1="59.000000" x2="268.700000" y2="60.000000"  transform="rotate(0.000000,268.700000,60.000000)" style="stroke: black; stroke-width:0.25;"/>
<line x1="265.700000" y1="61.000000" x2="268.700000" y2="60.000000"  transform="rotate(0.000000,268.700000,60.000000)" style="stroke: black; stroke-width:0.25;"/>
<rect x="309.700000" y="45.000000" width="24.000000" height="24.000000" rx="0.1" ry="0.1" style="stroke:none;fill:#aaaaaa;;filter:url(#filter);"/>
<rect x="308.700000" y="44.000000" width="24.000000" height="24.000000" rx="0" ry="0" style="stroke:none;fill:#4B71A1;"/>
<text x="320.700000" y="58.000000" font-family="Arial" font-size="7" text-anchor="middle" fill="#FFFFFF">@</text>
<circle cx="310.700000" cy="46.000000" r="1"/>
<line x1="305.700000" y1="51.000000" x2="308.700000" y2="52.000000"  transform="rotate(0.000000,308.700000,52.000000)" style="stroke: black; stroke-width:0.25;"/>
<line x1="305.700000" y1="53.000000" x2="308.700000" y2="52.000000"  transform="rotate(0.000000,308.700000,52.000000)" style="stroke: black; stroke-width:0.25;"/>
<line x1="305.700000" y1="59.000000" x2="308.700000" y2="60.000000"  transform="rotate(0.000000,308.700000,60.000000)" style="stroke: black; stroke-width:0.25;"/>
<line x1="305.700000" y1="61.000000" x2="308.700000" y2="60.000000"  transform="rotate(0.000000,308.700000,60.000000)" style="stroke: black; stroke-width:0.25;"/>
<rect x="226.350000" y="97.000000" width="24.000000" height="24.000000" rx="0.1" ry="0.1" style="stroke:none;fill:#aaaaaa;;filter:url(#filter);"/>
<rect x="225.350000" y="96.000000" width="24.000000" height="24.000000" rx="0" ry="0" style="stroke:none;fill:#4B71A1;"/>
<text x="237.350000" y="110.000000" font-family="Arial" font-size="7" text-anchor="middle" fill="#FFFFFF">+</text>
<circle cx="227.350000" cy="98.000000" r="1"/>
<line x1="222.350000" y1="103.000000" x2="225.350000" y2="104.000000"  transform="rotate(0.000000,225.350000,104.000000)" style="stroke: black; stroke-width:0.25;"/>
<line x1="222.350000" y1="105.000000" x2="225.350000" y2="104.000000"  transform="rotate(0.000000,225.350000,104.000000)" style="stroke: black; stroke-width:0.25;"/>
<line x1="222.350000" y1="111.000000" x2="225.350000" y2="112.000000"  transform="rotate(0.000000,225.350000,112.000000)" style="stroke: black; stroke-width:0.25;"/>
<line x1="222.350000" y1="113.000000" x2="225.350000" y2="112.000000"  transform="rotate(0.000000,225.350000,112.000000)" style="stroke: black; stroke-width:0.25;"/>
<line x1="15.000000" y1="15.000000" x2="15.000000" y2="129.000000"  style="stroke: black; stroke-linecap:round; stroke-width:0.25; stroke-dasharray:3,3;"/>
<line x1="15.000000" y1="129.000000" x2="341.700000" y2="129.000000"  style="stroke: black; stroke-linecap:round; stroke-width:0.25; stroke-dasharray:3,3;"/>
<line x1="341.700000" y1="129.000000" x2="341.700000" y2="15.000000"  style="stroke: black; stroke-linecap:round; stroke-width:0.25; stroke-dasharray:3,3;"/>
<line x1="15.000000" y1="15.000000" x2="20.000000" y2="15.000000"  style="stroke: black; stroke-linecap:round; stroke-width:0.25; stroke-dasharray:3,3;"/>
<line x1="55.475000" y1="15.000000" x2="341.700000" y2="15.000000"  style="stroke: black; stroke-linecap:round; stroke-width:0.25; stroke-dasharray:3,3;"/>
<text x="20.000000" y="17.000000" font-family="Arial" font-size="7">Del(1532)</text>
<line x1="343.700000" y1="55.000000" x2="346.700000" y2="56.000000"  transform="rotate(0.000000,346.700000,56.000000)" style="stroke: black; stroke-width:0.25;"/>
<line x1="343.700000" y1="57.000000" x2="346.700000" y2="56.000000"  transform="rotate(0.000000,346.700000,56.000000)" style="stroke: black; stroke-width:0.25;"/>
<line x1="343.700000" y1="107.000000" x2="346.700000" y2="108.000000"  transform="rotate(0.000000,346.700000,108.000000)" style="stroke: black; stroke-width:0.25;"/>
<line x1="343.700000" y1="109.000000" x2="346.700000" y2="108.000000"  transform="rotate(0.000000,346.700000,108.000000)" style="stroke: black; stroke-width:0.25;"/>
<line x1="10.000000" y1="36.000000" x2="20.000000" y2="36.000000"  style="stroke:black; stroke-linecap:round; stroke-width:0.25;"/>
<line x1="10.000000" y1="76.000000" x2="20.000000" y2="76.000000"  style="stroke:black; stroke-linecap:round; stroke-width:0.25;"/>
<line x1="20.000000" y1="36.000000" x2="36.000000" y2="36.000000"  style="stroke:black; stroke-linecap:round; stroke-width:0.25;"/>
<line x1="20.000000" y1="76.000000" x2="36.000000" y2="76.000000"  style="stroke:black; stroke-linecap:round; stroke-width:0.25;"/>
<line x1="36.000000" y1="36.000000" x2="52.000000" y2="36.000000"  style="stroke:black; stroke-linecap:round; stroke-width:0.25;"/>
<line x1="36.000000" y1="76.000000" x2="52.000000" y2="76.000000"  style="stroke:black; stroke-linecap:round; stroke-width:0.25;"/>
<line x1="48.000000" y1="56.000000" x2="52.000000" y2="56.000000"  style="stroke:black; stroke-linecap:round; stroke-width:0.25;"/>
<line x1="48.000000" y1="96.000000" x2="52.000000" y2="96.000000"  style="stroke:black; stroke-linecap:round; stroke-width:0.25;"/>
<line x1="52.000000" y1="36.000000" x2="60.000000" y2="36.000000"  style="stroke:black; stroke-linecap:round; stroke-width:0.25;"/>
<line x1="52.000000" y1="56.000000" x2="60.000000" y2="56.000000"  style="stroke:black; stroke-linecap:round; stroke-width:0.25;"/>
<line x1="52.000000" y1="76.000000" x2="60.000000" y2="76.000000"  style="stroke:black; stroke-linecap:round; stroke-width:0.25;"/>
<line x1="52.000000" y1="96.000000" x2="60.000000" y2="96.000000"  style="stroke:black; stroke-linecap:round; stroke-width:0.25;"/>
<line x1="60.000000" y1="36.000000" x2="60.000000" y2="48.000000"  style="stroke:black; stroke-linecap:round; stroke-width:0.25;"/>
<line x1="60.000000" y1="48.000000" x2="60.000000" y2="48.000000"  style="stroke:black; stroke-linecap:round; stroke-width:0.25;"/>
<line x1="60.000000" y1="48.000000" x2="64.000000" y2="48.000000"  style="stroke:black; stroke-linecap:round; stroke-width:0.25;"/>
<line x1="60.000000" y1="56.000000" x2="64.000000" y2="56.000000"  style="stroke:black; stroke-linecap:round; stroke-width:0.25;"/>
<line x1="60.000000" y1="76.000000" x2="60.000000" y2="88.000000"  style="stroke:black; stroke-linecap:round; stroke-width:0.25;"/>
<line x1="60.000000" y1="88.000000" x2="60.000000" y2="88.000000"  style="stroke:black; stroke-linecap:round; stroke-width:0.25;"/>
<line x1="60.000000" y1="88.000000" x2="64.000000" y2="88.000000"  style="stroke:black; stroke-linecap:round; stroke-width:0.25;"/>
<line x1="60.000000" y1="96.000000" x2="64.000000" y2="96.000000"  style="stroke:black; stroke-linecap:round; stroke-width:0.25;"/>
<line x1="88.000000" y1="52.000000" x2="92.000000" y2="52.000000"  style="stroke:black; stroke-linecap:round; stroke-width:0.25;"/>
<line x1="88.000000" y1="92.000000" x2="92.000000" y2="92.000000"  style="stroke:black; stroke-linecap:round; stroke-width:0.25;"/>
<line x1="92.000000" y1="52.000000" x2="138.000000" y2="52.000000"  style="stroke:black; stroke-linecap:round; stroke-width:0.25;"/>
<line x1="92.000000" y1="52.000000" x2="138.000000" y2="104.000000"  style="stroke:black; stroke-linecap:round; stroke-width:0.25;"/>
<line x1="92.000000" y1="92.000000" x2="138.000000" y2="60.000000"  style="stroke:black; stroke-linecap:round; stroke-width:0.25;"/>
<line x1="92.000000" y1="92.000000" x2="138.000000" y2="112.000000"  style="stroke:black; stroke-linecap:round; stroke-width:0.25;"/>
<line x1="138.000000" y1="52.000000" x2="138.000000" y2="52.000000"  style="stroke:black; stroke-linecap:round; stroke-width:0.25;"/>
<line x1="138.000000" y1="52.000000" x2="142.000000" y2="52.000000"  style="stroke:black; stroke-linecap:round; stroke-width:0.25;"/>
<line x1="138.000000" y1="60.000000" x2="138.000000" y2="60.000000"  style="stroke:black; stroke-linecap:round; stroke-width:0.25;"/>
<line x1="138.000000" y1="60.000000" x2="142.000000" y2="60.000000"  style="stroke:black; stroke-linecap:round; stroke-width:0.25;"/>
<line x1="138.000000" y1="104.000000" x2="221.350000" y2="104.000000"  style="stroke:black; stroke-linecap:round; stroke-width:0.25;"/>
<line x1="138.000000" y1="112.000000" x2="221.350000" y2="112.000000"  style="stroke:black; stroke-linecap:round; stroke-width:0.25;"/>
<line x1="166.000000" y1="56.000000" x2="170.000000" y2="56.000000"  style="stroke:black; stroke-linecap:round; stroke-width:0.25;"/>
<line x1="170.000000" y1="24.000000" x2="178.000000" y2="24.000000"  style="stroke:black; stroke-linecap:round; stroke-width:0.25;"/>
<line x1="170.000000" y1="56.000000" x2="170.000000" y2="24.000000"  style="stroke:black; stroke-linecap:round; stroke-width:0.25;"/>
<line x1="170.000000" y1="56.000000" x2="170.000000" y2="56.000000"  style="stroke:black; stroke-linecap:round; stroke-width:0.25;"/>
<line x1="178.000000" y1="24.000000" x2="237.350000" y2="24.000000"  style="stroke:black; stroke-linecap:round; stroke-width:0.25;"/>
<line x1="214.250000" y1="76.000000" x2="218.250000" y2="76.000000"  style="stroke:black; stroke-linecap:round; stroke-width:0.25;"/>
<line x1="218.250000" y1="76.000000" x2="224.700000" y2="76.000000"  style="stroke:black; stroke-linecap:round; stroke-width:0.25;"/>
<line x1="220.700000" y1="44.000000" x2="224.700000" y2="44.000000"  style="stroke:black; stroke-linecap:round; stroke-width:0.25;"/>
<line x1="221.350000" y1="104.000000" x2="221.350000" y2="104.000000"  style="stroke:black; stroke-linecap:round; stroke-width:0.25;"/>
<line x1="221.350000" y1="104.000000" x2="225.350000" y2="104.000000"  style="stroke:black; stroke-linecap:round; stroke-width:0.25;"/>
<line x1="221.350000" y1="112.000000" x2="221.350000" y2="112.000000"  style="stroke:black; stroke-linecap:round; stroke-width:0.25;"/>
<line x1="221.350000" y1="112.000000" x2="225.350000" y2="112.000000"  style="stroke:black; stroke-linecap:round; stroke-width:0.25;"/>
<line x1="224.700000" y1="44.000000" x2="232.700000" y2="44.000000"  style="stroke:black; stroke-linecap:round; stroke-width:0.25;"/>
<line x1="224.700000" y1="64.000000" x2="232.700000" y2="64.000000"  style="stroke:black; stroke-linecap:round; stroke-width:0.25;"/>
<line x1="224.700000" y1="76.000000" x2="224.700000" y2="64.000000"  style="stroke:black; stroke-linecap:round; stroke-width:0.25;"/>
<line x1="224.700000" y1="76.000000" x2="224.700000" y2="76.000000"  style="stroke:black; stroke-linecap:round; stroke-width:0.25;"/>
<line x1="232.700000" y1="44.000000" x2="232.700000" y2="56.000000"  style="stroke:black; stroke-linecap:round; stroke-width:0.25;"/>
<line x1="232.700000" y1="56.000000" x2="232.700000" y2="56.000000"  style="stroke:black; stroke-linecap:round; stroke-width:0.25;"/>
<line x1="232.700000" y1="56.000000" x2="236.700000" y2="56.000000"  style="stroke:black; stroke-linecap:round; stroke-width:0.25;"/>
<line x1="232.700000" y1="64.000000" x2="236.700000" y2="64.000000"  style="stroke:black; stroke-linecap:round; stroke-width:0.25;"/>
<line x1="237.350000" y1="24.000000" x2="296.700000" y2="24.000000"  style="stroke:black; stroke-linecap:round; stroke-width:0.25;"/>
<line x1="249.350000" y1="108.000000" x2="253.350000" y2="108.000000"  style="stroke:black; stroke-linecap:round; stroke-width:0.25;"/>
<line x1="253.350000" y1="108.000000" x2="336.700000" y2="108.000000"  style="stroke:black; stroke-linecap:round; stroke-width:0.25;"/>
<line x1="260.700000" y1="60.000000" x2="264.700000" y2="60.000000"  style="stroke:black; stroke-linecap:round; stroke-width:0.25;"/>
<line x1="264.700000" y1="60.000000" x2="264.700000" y2="60.000000"  style="stroke:black; stroke-linecap:round; stroke-width:0.25;"/>
<line x1="264.700000" y1="60.000000" x2="268.700000" y2="60.000000"  style="stroke:black; stroke-linecap:round; stroke-width:0.25;"/>
<line x1="292.700000" y1="60.000000" x2="296.700000" y2="60.000000"  style="stroke:black; stroke-linecap:round; stroke-width:0.25;"/>
<line x1="296.700000" y1="24.000000" x2="304.700000" y2="24.000000"  style="stroke:black; stroke-linecap:round; stroke-width:0.25;"/>
<line x1="296.700000" y1="60.000000" x2="304.700000" y2="60.000000"  style="stroke:black; stroke-linecap:round; stroke-width:0.25;"/>
<line x1="304.700000" y1="24.000000" x2="304.700000" y2="52.000000"  style="stroke:black; stroke-linecap:round; stroke-width:0.25;"/>
<line x1="304.700000" y1="52.000000" x2="304.700000" y2="52.000000"  style="stroke:black; stroke-linecap:round; stroke-width:0.25;"/>
<line x1="304.700000" y1="52.000000" x2="308.700000" y2="52.000000"  style="stroke:black; stroke-linecap:round; stroke-width:0.25;"/>
<line x1="304.700000" y1="60.000000" x2="308.700000" y2="60.000000"  style="stroke:black; stroke-linecap:round; stroke-width:0.25;"/>
<line x1="332.700000" y1="56.000000" x2="336.700000" y2="56.000000"  style="stroke:black; stroke-linecap:round; stroke-width:0.25;"/>
<line x1="336.700000" y1="56.000000" x2="346.700000" y2="56.000000"  style="stroke:black; stroke-linecap:round; stroke-width:0.25;"/>
<line x1="336.700000" y1="108.000000" x2="346.700000" y2="108.000000"  style="stroke:black; stroke-linecap:round; stroke-width:0.25;"/>
</svg>
