<?xml version="1.0"?>
<svg xmlns="http://www.w3.org/2000/svg" xmlns:xlink="http://www.w3.org/1999/xlink" viewBox="0 0 401.900000 288.000000" width="200.950000mm" height="144.000000mm" version="1.1">
<defs>
   <filter id="filter" filterRes="18" x="0" y="0">
     <feGaussianBlur in="SourceGraphic" stdDeviation="1.55" result="blur"/>
     <feOffset in="blur" dx="3" dy="3"/>
   </filter>
</defs>
<rect x="1.000000" y="1.000000" width="400.900000" height="287.000000" rx="0.1" ry="0.1" style="stroke:none;fill:#aaaaaa;;filter:url(#filter);"/>
<rect x="0.000000" y="0.000000" width="400.900000" height="287.000000" rx="0" ry="0" style="stroke:none;fill:#ffffff;"/>
<text x="10.000000" y="7.000000" font-family="Arial" font-size="7"></text>
<rect x="120.050000" y="37.000000" width="24.000000" height="24.000000" rx="0.1" ry="0.1" style="stroke:none;fill:#aaaaaa;;filter:url(#filter);"/>
<rect x="119.050000" y="36.000000" width="24.000000" height="24.000000" rx="0" ry="0" style="stroke:none;fill:#4B71A1;"/>
<text x="131.050000" y="50.000000" font-family="Arial" font-size="7" text-anchor="middle" fill="#FFFFFF">abs</text>
<circle cx="121.050000" cy="38.000000" r="1"/>
<line x1="116.050000" y1="47.000000" x2="119.050000" y2="48.000000"  transform="rotate(0.000000,119.050000,48.000000)" style="stroke: black; stroke-width:0.25;"/>
<line x1="116.050000" y1="49.000000" x2="119.050000" y2="48.000000"  transform="rotate(0.000000,119.050000,48.000000)" style="stroke: black; stroke-width:0.25;"/>
<rect x="160.050000" y="41.000000" width="25.800000" height="24.000000" rx="0.1" ry="0.1" style="stroke:none;fill:#aaaaaa;;filter:url(#filter);"/>
<rect x="159.050000" y="40.000000" width="25.800000" height="24.000000" rx="0" ry="0" style="stroke:none;fill:#f44800;"/>
<text x="171.950000" y="54.000000" font-family="Arial" font-size="7" text-anchor="middle" fill="#FFFFFF">1e-59</text>
<circle cx="161.050000" cy="42.000000" r="1"/>
<rect x="201.850000" y="37.000000" width="24.000000" height="24.000000" rx="0.1" ry="0.1" style="stroke:none;fill:#aaaaaa;;filter:url(#filter);"/>
<rect x="200.850000" y="36.000000" width="24.000000" height="24.000000" rx="0" ry="0" style="stroke:none;fill:#4B71A1;"/>
<text x="212.850000" y="50.000000" font-family="Arial" font-size="7" text-anchor="middle" fill="#FFFFFF">&gt;</text>
<circle cx="202.850000" cy="38.000000" r="1"/>
<line x1="197.850000" y1="43.000000" x2="200.850000" y2="44.000000"  transform="rotate(0.000000,200.850000,44.000000)" style="stroke: black; stroke-width:0.25;"/>
<line x1="197.850000" y1="45.000000" x2="200.850000" y2="44.000000"  transform="rotate(0.000000,200.850000,44.000000)" style="stroke: black; stroke-width:0.25;"/>
<line x1="197.850000" y1="51.000000" x2="200.850000" y2="52.000000"  transform="rotate(0.000000,200.850000,52.000000)" style="stroke: black; stroke-width:0.25;"/>
<line x1="197.850000" y1="53.000000" x2="200.850000" y2="52.000000"  transform="rotate(0.000000,200.850000,52.000000)" style="stroke: black; stroke-width:0.25;"/>
<rect x="241.850000" y="33.000000" width="24.000000" height="24.000000" rx="0.1" ry="0.1" style="stroke:none;fill:#aaaaaa;;filter:url(#filter);"/>
<rect x="240.850000" y="32.000000" width="24.000000" height="24.000000" rx="0" ry="0" style="stroke:none;fill:#4B71A1;"/>
<text x="252.850000" y="46.000000" font-family="Arial" font-size="7" text-anchor="middle" fill="#FFFFFF">*</text>
<circle cx="242.850000" cy="34.000000" r="1"/>
<line x1="237.850000" y1="39.000000" x2="240.850000" y2="40.000000"  transform="rotate(0.000000,240.850000,40.000000)" style="stroke: black; stroke-width:0.25;"/>
<line x1="237.850000" y1="41.000000" x2="240.850000" y2="40.000000"  transform="rotate(0.000000,240.850000,40.000000)" style="stroke: black; stroke-width:0.25;"/>
<line x1="237.850000" y1="47.000000" x2="240.850000" y2="48.000000"  transform="rotate(0.000000,240.850000,48.000000)" style="stroke: black; stroke-width:0.25;"/>
<line x1="237.850000" y1="49.000000" x2="240.850000" y2="48.000000"  transform="rotate(0.000000,240.850000,48.000000)" style="stroke: black; stroke-width:0.25;"/>
<a xlink:href="i-0x2866c20.svg">
<rect x="149.950000" y="73.000000" width="24.000000" height="24.000000" rx="0.1" ry="0.1" style="stroke:none;fill:#aaaaaa;;filter:url(#filter);"/>
<rect x="148.950000" y="72.000000" width="24.000000" height="24.000000" rx="0" ry="0" style="stroke:none;fill:#003366;"/>
</a>
<a xlink:href="i-0x2866c20.svg">
<text x="160.950000" y="86.000000" font-family="Arial" font-size="7" text-anchor="middle" fill="#FFFFFF">i</text>
</a>
<circle cx="150.950000" cy="74.000000" r="1"/>
<a xlink:href="SR-0x2863c00.svg">
<rect x="73.950000" y="105.000000" width="24.000000" height="24.000000" rx="0.1" ry="0.1" style="stroke:none;fill:#aaaaaa;;filter:url(#filter);"/>
<rect x="72.950000" y="104.000000" width="24.000000" height="24.000000" rx="0" ry="0" style="stroke:none;fill:#003366;"/>
</a>
<a xlink:href="SR-0x2863c00.svg">
<text x="84.950000" y="118.000000" font-family="Arial" font-size="7" text-anchor="middle" fill="#FFFFFF">SR</text>
</a>
<circle cx="74.950000" cy="106.000000" r="1"/>
<rect x="73.050000" y="137.000000" width="25.800000" height="24.000000" rx="0.1" ry="0.1" style="stroke:none;fill:#aaaaaa;;filter:url(#filter);"/>
<rect x="72.050000" y="136.000000" width="25.800000" height="24.000000" rx="0" ry="0" style="stroke:none;fill:#f44800;"/>
<text x="84.950000" y="150.000000" font-family="Arial" font-size="7" text-anchor="middle" fill="#FFFFFF">1000</text>
<circle cx="74.050000" cy="138.000000" r="1"/>
<rect x="114.850000" y="121.000000" width="24.000000" height="24.000000" rx="0.1" ry="0.1" style="stroke:none;fill:#aaaaaa;;filter:url(#filter);"/>
<rect x="113.850000" y="120.000000" width="24.000000" height="24.000000" rx="0" ry="0" style="stroke:none;fill:#4B71A1;"/>
<text x="125.850000" y="134.000000" font-family="Arial" font-size="7" text-anchor="middle" fill="#FFFFFF">/</text>
<circle cx="115.850000" cy="122.000000" r="1"/>
<line x1="110.850000" y1="127.000000" x2="113.850000" y2="128.000000"  transform="rotate(0.000000,113.850000,128.000000)" style="stroke: black; stroke-width:0.25;"/>
<line x1="110.850000" y1="129.000000" x2="113.850000" y2="128.000000"  transform="rotate(0.000000,113.850000,128.000000)" style="stroke: black; stroke-width:0.25;"/>
<line x1="110.850000" y1="135.000000" x2="113.850000" y2="136.000000"  transform="rotate(0.000000,113.850000,136.000000)" style="stroke: black; stroke-width:0.25;"/>
<line x1="110.850000" y1="137.000000" x2="113.850000" y2="136.000000"  transform="rotate(0.000000,113.850000,136.000000)" style="stroke: black; stroke-width:0.25;"/>
<rect x="35.000000" y="179.000000" width="141.900000" height="24.000000" rx="0.1" ry="0.1" style="stroke:none;fill:#aaaaaa;;filter:url(#filter);"/>
<rect x="34.000000" y="178.000000" width="141.900000" height="24.000000" rx="0" ry="0" style="stroke:none;fill:#477881;"/>
<text x="104.950000" y="192.000000" font-family="Arial" font-size="7" text-anchor="middle" fill="#FFFFFF">hslider(PeriodB, 1, 1, 2000, 0.1)</text>
<circle cx="36.000000" cy="180.000000" r="1"/>
<line x1="25.000000" y1="169.000000" x2="25.000000" y2="211.000000"  style="stroke: black; stroke-linecap:round; stroke-width:0.25; stroke-dasharray:3,3;"/>
<line x1="25.000000" y1="211.000000" x2="184.900000" y2="211.000000"  style="stroke: black; stroke-linecap:round; stroke-width:0.25; stroke-dasharray:3,3;"/>
<line x1="184.900000" y1="211.000000" x2="184.900000" y2="169.000000"  style="stroke: black; stroke-linecap:round; stroke-width:0.25; stroke-dasharray:3,3;"/>
<line x1="25.000000" y1="169.000000" x2="30.000000" y2="169.000000"  style="stroke: black; stroke-linecap:round; stroke-width:0.25; stroke-dasharray:3,3;"/>
<line x1="39.675000" y1="169.000000" x2="184.900000" y2="169.000000"  style="stroke: black; stroke-linecap:round; stroke-width:0.25; stroke-dasharray:3,3;"/>
<text x="30.000000" y="171.000000" font-family="Arial" font-size="7">T</text>
<rect x="202.900000" y="147.000000" width="24.000000" height="24.000000" rx="0.1" ry="0.1" style="stroke:none;fill:#aaaaaa;;filter:url(#filter);"/>
<rect x="201.900000" y="146.000000" width="24.000000" height="24.000000" rx="0" ry="0" style="stroke:none;fill:#4B71A1;"/>
<text x="213.900000" y="160.000000" font-family="Arial" font-size="7" text-anchor="middle" fill="#FFFFFF">*</text>
<circle cx="203.900000" cy="148.000000" r="1"/>
<line x1="198.900000" y1="153.000000" x2="201.900000" y2="154.000000"  transform="rotate(0.000000,201.900000,154.000000)" style="stroke: black; stroke-width:0.25;"/>
<line x1="198.900000" y1="155.000000" x2="201.900000" y2="154.000000"  transform="rotate(0.000000,201.900000,154.000000)" style="stroke: black; stroke-width:0.25;"/>
<line x1="198.900000" y1="161.000000" x2="201.900000" y2="162.000000"  transform="rotate(0.000000,201.900000,162.000000)" style="stroke: black; stroke-width:0.25;"/>
<line x1="198.900000" y1="163.000000" x2="201.900000" y2="162.000000"  transform="rotate(0.000000,201.900000,162.000000)" style="stroke: black; stroke-width:0.25;"/>
<rect x="234.900000" y="147.000000" width="24.000000" height="24.000000" rx="0.1" ry="0.1" style="stroke:none;fill:#aaaaaa;;filter:url(#filter);"/>
<rect x="233.900000" y="146.000000" width="24.000000" height="24.000000" rx="0" ry="0" style="stroke:none;fill:#4B71A1;"/>
<text x="245.900000" y="160.000000" font-family="Arial" font-size="7" text-anchor="middle" fill="#FFFFFF">int</text>
<circle cx="235.900000" cy="148.000000" r="1"/>
<line x1="230.900000" y1="157.000000" x2="233.900000" y2="158.000000"  transform="rotate(0.000000,233.900000,158.000000)" style="stroke: black; stroke-width:0.25;"/>
<line x1="230.900000" y1="159.000000" x2="233.900000" y2="158.000000"  transform="rotate(0.000000,233.900000,158.000000)" style="stroke: black; stroke-width:0.25;"/>
<rect x="58.100000" y="231.000000" width="167.700000" height="24.000000" rx="0.1" ry="0.1" style="stroke:none;fill:#aaaaaa;;filter:url(#filter);"/>
<rect x="57.100000" y="230.000000" width="167.700000" height="24.000000" rx="0" ry="0" style="stroke:none;fill:#477881;"/>
<text x="140.950000" y="244.000000" font-family="Arial" font-size="7" text-anchor="middle" fill="#FFFFFF">hslider(Cyclic ratio A, 0.5, 0, 1, 0.1)</text>
<circle cx="59.100000" cy="232.000000" r="1"/>
<line x1="48.100000" y1="221.000000" x2="48.100000" y2="263.000000"  style="stroke: black; stroke-linecap:round; stroke-width:0.25; stroke-dasharray:3,3;"/>
<line x1="48.100000" y1="263.000000" x2="233.800000" y2="263.000000"  style="stroke: black; stroke-linecap:round; stroke-width:0.25; stroke-dasharray:3,3;"/>
<line x1="233.800000" y1="263.000000" x2="233.800000" y2="221.000000"  style="stroke: black; stroke-linecap:round; stroke-width:0.25; stroke-dasharray:3,3;"/>
<line x1="48.100000" y1="221.000000" x2="53.100000" y2="221.000000"  style="stroke: black; stroke-linecap:round; stroke-width:0.25; stroke-dasharray:3,3;"/>
<line x1="62.775000" y1="221.000000" x2="233.800000" y2="221.000000"  style="stroke: black; stroke-linecap:round; stroke-width:0.25; stroke-dasharray:3,3;"/>
<text x="53.100000" y="223.000000" font-family="Arial" font-size="7">a</text>
<rect x="274.900000" y="173.000000" width="24.000000" height="24.000000" rx="0.1" ry="0.1" style="stroke:none;fill:#aaaaaa;;filter:url(#filter);"/>
<rect x="273.900000" y="172.000000" width="24.000000" height="24.000000" rx="0" ry="0" style="stroke:none;fill:#4B71A1;"/>
<text x="285.900000" y="186.000000" font-family="Arial" font-size="7" text-anchor="middle" fill="#FFFFFF">*</text>
<circle cx="275.900000" cy="174.000000" r="1"/>
<line x1="270.900000" y1="179.000000" x2="273.900000" y2="180.000000"  transform="rotate(0.000000,273.900000,180.000000)" style="stroke: black; stroke-width:0.25;"/>
<line x1="270.900000" y1="181.000000" x2="273.900000" y2="180.000000"  transform="rotate(0.000000,273.900000,180.000000)" style="stroke: black; stroke-width:0.25;"/>
<line x1="270.900000" y1="187.000000" x2="273.900000" y2="188.000000"  transform="rotate(0.000000,273.900000,188.000000)" style="stroke: black; stroke-width:0.25;"/>
<line x1="270.900000" y1="189.000000" x2="273.900000" y2="188.000000"  transform="rotate(0.000000,273.900000,188.000000)" style="stroke: black; stroke-width:0.25;"/>
<rect x="314.900000" y="157.000000" width="24.000000" height="24.000000" rx="0.1" ry="0.1" style="stroke:none;fill:#aaaaaa;;filter:url(#filter);"/>
<rect x="313.900000" y="156.000000" width="24.000000" height="24.000000" rx="0" ry="0" style="stroke:none;fill:#4B71A1;"/>
<text x="325.900000" y="170.000000" font-family="Arial" font-size="7" text-anchor="middle" fill="#FFFFFF">&lt;</text>
<circle cx="315.900000" cy="158.000000" r="1"/>
<line x1="310.900000" y1="163.000000" x2="313.900000" y2="164.000000"  transform="rotate(0.000000,313.900000,164.000000)" style="stroke: black; stroke-width:0.25;"/>
<line x1="310.900000" y1="165.000000" x2="313.900000" y2="164.000000"  transform="rotate(0.000000,313.900000,164.000000)" style="stroke: black; stroke-width:0.25;"/>
<line x1="310.900000" y1="171.000000" x2="313.900000" y2="172.000000"  transform="rotate(0.000000,313.900000,172.000000)" style="stroke: black; stroke-width:0.25;"/>
<line x1="310.900000" y1="173.000000" x2="313.900000" y2="172.000000"  transform="rotate(0.000000,313.900000,172.000000)" style="stroke: black; stroke-width:0.25;"/>
<rect x="354.900000" y="133.000000" width="24.000000" height="24.000000" rx="0.1" ry="0.1" style="stroke:none;fill:#aaaaaa;;filter:url(#filter);"/>
<rect x="353.900000" y="132.000000" width="24.000000" height="24.000000" rx="0" ry="0" style="stroke:none;fill:#4B71A1;"/>
<text x="365.900000" y="146.000000" font-family="Arial" font-size="7" text-anchor="middle" fill="#FFFFFF">*</text>
<circle cx="355.900000" cy="134.000000" r="1"/>
<line x1="350.900000" y1="139.000000" x2="353.900000" y2="140.000000"  transform="rotate(0.000000,353.900000,140.000000)" style="stroke: black; stroke-width:0.25;"/>
<line x1="350.900000" y1="141.000000" x2="353.900000" y2="140.000000"  transform="rotate(0.000000,353.900000,140.000000)" style="stroke: black; stroke-width:0.25;"/>
<line x1="350.900000" y1="147.000000" x2="353.900000" y2="148.000000"  transform="rotate(0.000000,353.900000,148.000000)" style="stroke: black; stroke-width:0.25;"/>
<line x1="350.900000" y1="149.000000" x2="353.900000" y2="148.000000"  transform="rotate(0.000000,353.900000,148.000000)" style="stroke: black; stroke-width:0.25;"/>
<line x1="15.000000" y1="15.000000" x2="15.000000" y2="273.000000"  style="stroke: black; stroke-linecap:round; stroke-width:0.25; stroke-dasharray:3,3;"/>
<line x1="15.000000" y1="273.000000" x2="386.900000" y2="273.000000"  style="stroke: black; stroke-linecap:round; stroke-width:0.25; stroke-dasharray:3,3;"/>
<line x1="386.900000" y1="273.000000" x2="386.900000" y2="15.000000"  style="stroke: black; stroke-linecap:round; stroke-width:0.25; stroke-dasharray:3,3;"/>
<line x1="15.000000" y1="15.000000" x2="20.000000" y2="15.000000"  style="stroke: black; stroke-linecap:round; stroke-width:0.25; stroke-dasharray:3,3;"/>
<line x1="49.025000" y1="15.000000" x2="386.900000" y2="15.000000"  style="stroke: black; stroke-linecap:round; stroke-width:0.25; stroke-dasharray:3,3;"/>
<text x="20.000000" y="17.000000" font-family="Arial" font-size="7">process</text>
<line x1="388.900000" y1="143.000000" x2="391.900000" y2="144.000000"  transform="rotate(0.000000,391.900000,144.000000)" style="stroke: black; stroke-width:0.25;"/>
<line x1="388.900000" y1="145.000000" x2="391.900000" y2="144.000000"  transform="rotate(0.000000,391.900000,144.000000)" style="stroke: black; stroke-width:0.25;"/>
<line x1="10.000000" y1="44.000000" x2="20.000000" y2="44.000000"  style="stroke:black; stroke-linecap:round; stroke-width:0.25;"/>
<line x1="20.000000" y1="44.000000" x2="93.050000" y2="44.000000"  style="stroke:black; stroke-linecap:round; stroke-width:0.25;"/>
<line x1="93.050000" y1="44.000000" x2="97.050000" y2="44.000000"  style="stroke:black; stroke-linecap:round; stroke-width:0.25;"/>
<line x1="96.950000" y1="116.000000" x2="100.950000" y2="116.000000"  style="stroke:black; stroke-linecap:round; stroke-width:0.25;"/>
<line x1="97.050000" y1="44.000000" x2="101.050000" y2="44.000000"  style="stroke:black; stroke-linecap:round; stroke-width:0.25;"/>
<line x1="97.850000" y1="148.000000" x2="101.850000" y2="148.000000"  style="stroke:black; stroke-linecap:round; stroke-width:0.25;"/>
<line x1="100.950000" y1="116.000000" x2="101.850000" y2="116.000000"  style="stroke:black; stroke-linecap:round; stroke-width:0.25;"/>
<line x1="101.050000" y1="44.000000" x2="115.050000" y2="24.000000"  style="stroke:black; stroke-linecap:round; stroke-width:0.25;"/>
<line x1="101.050000" y1="44.000000" x2="115.050000" y2="48.000000"  style="stroke:black; stroke-linecap:round; stroke-width:0.25;"/>
<line x1="101.850000" y1="136.000000" x2="109.850000" y2="136.000000"  style="stroke:black; stroke-linecap:round; stroke-width:0.25;"/>
<line x1="101.850000" y1="148.000000" x2="101.850000" y2="136.000000"  style="stroke:black; stroke-linecap:round; stroke-width:0.25;"/>
<line x1="101.850000" y1="148.000000" x2="101.850000" y2="148.000000"  style="stroke:black; stroke-linecap:round; stroke-width:0.25;"/>
<line x1="101.850000" y1="116.000000" x2="109.850000" y2="116.000000"  style="stroke:black; stroke-linecap:round; stroke-width:0.25;"/>
<line x1="109.850000" y1="128.000000" x2="113.850000" y2="128.000000"  style="stroke:black; stroke-linecap:round; stroke-width:0.25;"/>
<line x1="109.850000" y1="136.000000" x2="113.850000" y2="136.000000"  style="stroke:black; stroke-linecap:round; stroke-width:0.25;"/>
<line x1="109.850000" y1="116.000000" x2="109.850000" y2="128.000000"  style="stroke:black; stroke-linecap:round; stroke-width:0.25;"/>
<line x1="109.850000" y1="128.000000" x2="109.850000" y2="128.000000"  style="stroke:black; stroke-linecap:round; stroke-width:0.25;"/>
<line x1="115.050000" y1="24.000000" x2="171.950000" y2="24.000000"  style="stroke:black; stroke-linecap:round; stroke-width:0.25;"/>
<line x1="115.050000" y1="48.000000" x2="115.050000" y2="48.000000"  style="stroke:black; stroke-linecap:round; stroke-width:0.25;"/>
<line x1="115.050000" y1="48.000000" x2="119.050000" y2="48.000000"  style="stroke:black; stroke-linecap:round; stroke-width:0.25;"/>
<line x1="137.850000" y1="132.000000" x2="141.850000" y2="132.000000"  style="stroke:black; stroke-linecap:round; stroke-width:0.25;"/>
<line x1="141.850000" y1="132.000000" x2="189.900000" y2="132.000000"  style="stroke:black; stroke-linecap:round; stroke-width:0.25;"/>
<line x1="143.050000" y1="48.000000" x2="147.050000" y2="48.000000"  style="stroke:black; stroke-linecap:round; stroke-width:0.25;"/>
<line x1="147.050000" y1="32.000000" x2="155.050000" y2="32.000000"  style="stroke:black; stroke-linecap:round; stroke-width:0.25;"/>
<line x1="147.050000" y1="48.000000" x2="147.050000" y2="32.000000"  style="stroke:black; stroke-linecap:round; stroke-width:0.25;"/>
<line x1="147.050000" y1="48.000000" x2="147.050000" y2="48.000000"  style="stroke:black; stroke-linecap:round; stroke-width:0.25;"/>
<line x1="155.050000" y1="32.000000" x2="171.950000" y2="32.000000"  style="stroke:black; stroke-linecap:round; stroke-width:0.25;"/>
<line x1="171.950000" y1="24.000000" x2="228.850000" y2="24.000000"  style="stroke:black; stroke-linecap:round; stroke-width:0.25;"/>
<line x1="171.950000" y1="32.000000" x2="188.850000" y2="32.000000"  style="stroke:black; stroke-linecap:round; stroke-width:0.25;"/>
<line x1="172.950000" y1="84.000000" x2="176.950000" y2="84.000000"  style="stroke:black; stroke-linecap:round; stroke-width:0.25;"/>
<line x1="175.900000" y1="190.000000" x2="179.900000" y2="190.000000"  style="stroke:black; stroke-linecap:round; stroke-width:0.25;"/>
<line x1="176.950000" y1="84.000000" x2="301.900000" y2="84.000000"  style="stroke:black; stroke-linecap:round; stroke-width:0.25;"/>
<line x1="179.900000" y1="190.000000" x2="189.900000" y2="190.000000"  style="stroke:black; stroke-linecap:round; stroke-width:0.25;"/>
<line x1="184.850000" y1="52.000000" x2="188.850000" y2="52.000000"  style="stroke:black; stroke-linecap:round; stroke-width:0.25;"/>
<line x1="188.850000" y1="52.000000" x2="196.850000" y2="52.000000"  style="stroke:black; stroke-linecap:round; stroke-width:0.25;"/>
<line x1="188.850000" y1="32.000000" x2="196.850000" y2="32.000000"  style="stroke:black; stroke-linecap:round; stroke-width:0.25;"/>
<line x1="189.900000" y1="162.000000" x2="197.900000" y2="162.000000"  style="stroke:black; stroke-linecap:round; stroke-width:0.25;"/>
<line x1="189.900000" y1="190.000000" x2="189.900000" y2="162.000000"  style="stroke:black; stroke-linecap:round; stroke-width:0.25;"/>
<line x1="189.900000" y1="190.000000" x2="189.900000" y2="190.000000"  style="stroke:black; stroke-linecap:round; stroke-width:0.25;"/>
<line x1="189.900000" y1="132.000000" x2="197.900000" y2="132.000000"  style="stroke:black; stroke-linecap:round; stroke-width:0.25;"/>
<line x1="196.850000" y1="44.000000" x2="200.850000" y2="44.000000"  style="stroke:black; stroke-linecap:round; stroke-width:0.25;"/>
<line x1="196.850000" y1="52.000000" x2="200.850000" y2="52.000000"  style="stroke:black; stroke-linecap:round; stroke-width:0.25;"/>
<line x1="196.850000" y1="32.000000" x2="196.850000" y2="44.000000"  style="stroke:black; stroke-linecap:round; stroke-width:0.25;"/>
<line x1="196.850000" y1="44.000000" x2="196.850000" y2="44.000000"  style="stroke:black; stroke-linecap:round; stroke-width:0.25;"/>
<line x1="197.900000" y1="154.000000" x2="201.900000" y2="154.000000"  style="stroke:black; stroke-linecap:round; stroke-width:0.25;"/>
<line x1="197.900000" y1="162.000000" x2="201.900000" y2="162.000000"  style="stroke:black; stroke-linecap:round; stroke-width:0.25;"/>
<line x1="197.900000" y1="132.000000" x2="197.900000" y2="154.000000"  style="stroke:black; stroke-linecap:round; stroke-width:0.25;"/>
<line x1="197.900000" y1="154.000000" x2="197.900000" y2="154.000000"  style="stroke:black; stroke-linecap:round; stroke-width:0.25;"/>
<line x1="224.800000" y1="242.000000" x2="228.800000" y2="242.000000"  style="stroke:black; stroke-linecap:round; stroke-width:0.25;"/>
<line x1="224.850000" y1="48.000000" x2="228.850000" y2="48.000000"  style="stroke:black; stroke-linecap:round; stroke-width:0.25;"/>
<line x1="225.900000" y1="158.000000" x2="229.900000" y2="158.000000"  style="stroke:black; stroke-linecap:round; stroke-width:0.25;"/>
<line x1="228.800000" y1="242.000000" x2="238.800000" y2="242.000000"  style="stroke:black; stroke-linecap:round; stroke-width:0.25;"/>
<line x1="228.850000" y1="48.000000" x2="236.850000" y2="48.000000"  style="stroke:black; stroke-linecap:round; stroke-width:0.25;"/>
<line x1="228.850000" y1="24.000000" x2="236.850000" y2="24.000000"  style="stroke:black; stroke-linecap:round; stroke-width:0.25;"/>
<line x1="229.900000" y1="158.000000" x2="229.900000" y2="158.000000"  style="stroke:black; stroke-linecap:round; stroke-width:0.25;"/>
<line x1="229.900000" y1="158.000000" x2="233.900000" y2="158.000000"  style="stroke:black; stroke-linecap:round; stroke-width:0.25;"/>
<line x1="236.850000" y1="40.000000" x2="240.850000" y2="40.000000"  style="stroke:black; stroke-linecap:round; stroke-width:0.25;"/>
<line x1="236.850000" y1="48.000000" x2="240.850000" y2="48.000000"  style="stroke:black; stroke-linecap:round; stroke-width:0.25;"/>
<line x1="236.850000" y1="24.000000" x2="236.850000" y2="40.000000"  style="stroke:black; stroke-linecap:round; stroke-width:0.25;"/>
<line x1="236.850000" y1="40.000000" x2="236.850000" y2="40.000000"  style="stroke:black; stroke-linecap:round; stroke-width:0.25;"/>
<line x1="238.800000" y1="242.000000" x2="261.900000" y2="242.000000"  style="stroke:black; stroke-linecap:round; stroke-width:0.25;"/>
<line x1="257.900000" y1="158.000000" x2="261.900000" y2="158.000000"  style="stroke:black; stroke-linecap:round; stroke-width:0.25;"/>
<line x1="261.900000" y1="158.000000" x2="269.900000" y2="158.000000"  style="stroke:black; stroke-linecap:round; stroke-width:0.25;"/>
<line x1="261.900000" y1="188.000000" x2="269.900000" y2="188.000000"  style="stroke:black; stroke-linecap:round; stroke-width:0.25;"/>
<line x1="261.900000" y1="242.000000" x2="261.900000" y2="188.000000"  style="stroke:black; stroke-linecap:round; stroke-width:0.25;"/>
<line x1="261.900000" y1="242.000000" x2="261.900000" y2="242.000000"  style="stroke:black; stroke-linecap:round; stroke-width:0.25;"/>
<line x1="264.850000" y1="44.000000" x2="268.850000" y2="44.000000"  style="stroke:black; stroke-linecap:round; stroke-width:0.25;"/>
<line x1="268.850000" y1="44.000000" x2="341.900000" y2="44.000000"  style="stroke:black; stroke-linecap:round; stroke-width:0.25;"/>
<line x1="269.900000" y1="158.000000" x2="269.900000" y2="180.000000"  style="stroke:black; stroke-linecap:round; stroke-width:0.25;"/>
<line x1="269.900000" y1="180.000000" x2="269.900000" y2="180.000000"  style="stroke:black; stroke-linecap:round; stroke-width:0.25;"/>
<line x1="269.900000" y1="180.000000" x2="273.900000" y2="180.000000"  style="stroke:black; stroke-linecap:round; stroke-width:0.25;"/>
<line x1="269.900000" y1="188.000000" x2="273.900000" y2="188.000000"  style="stroke:black; stroke-linecap:round; stroke-width:0.25;"/>
<line x1="297.900000" y1="184.000000" x2="301.900000" y2="184.000000"  style="stroke:black; stroke-linecap:round; stroke-width:0.25;"/>
<line x1="301.900000" y1="84.000000" x2="309.900000" y2="84.000000"  style="stroke:black; stroke-linecap:round; stroke-width:0.25;"/>
<line x1="301.900000" y1="172.000000" x2="309.900000" y2="172.000000"  style="stroke:black; stroke-linecap:round; stroke-width:0.25;"/>
<line x1="301.900000" y1="184.000000" x2="301.900000" y2="172.000000"  style="stroke:black; stroke-linecap:round; stroke-width:0.25;"/>
<line x1="301.900000" y1="184.000000" x2="301.900000" y2="184.000000"  style="stroke:black; stroke-linecap:round; stroke-width:0.25;"/>
<line x1="309.900000" y1="84.000000" x2="309.900000" y2="164.000000"  style="stroke:black; stroke-linecap:round; stroke-width:0.25;"/>
<line x1="309.900000" y1="164.000000" x2="309.900000" y2="164.000000"  style="stroke:black; stroke-linecap:round; stroke-width:0.25;"/>
<line x1="309.900000" y1="164.000000" x2="313.900000" y2="164.000000"  style="stroke:black; stroke-linecap:round; stroke-width:0.25;"/>
<line x1="309.900000" y1="172.000000" x2="313.900000" y2="172.000000"  style="stroke:black; stroke-linecap:round; stroke-width:0.25;"/>
<line x1="337.900000" y1="168.000000" x2="341.900000" y2="168.000000"  style="stroke:black; stroke-linecap:round; stroke-width:0.25;"/>
<line x1="341.900000" y1="44.000000" x2="349.900000" y2="44.000000"  style="stroke:black; stroke-linecap:round; stroke-width:0.25;"/>
<line x1="341.900000" y1="148.000000" x2="349.900000" y2="148.000000"  style="stroke:black; stroke-linecap:round; stroke-width:0.25;"/>
<line x1="341.900000" y1="168.000000" x2="341.900000" y2="148.000000"  style="stroke:black; stroke-linecap:round; stroke-width:0.25;"/>
<line x1="341.900000" y1="168.000000" x2="341.900000" y2="168.000000"  style="stroke:black; stroke-linecap:round; stroke-width:0.25;"/>
<line x1="349.900000" y1="44.000000" x2="349.900000" y2="140.000000"  style="stroke:black; stroke-linecap:round; stroke-width:0.25;"/>
<line x1="349.900000" y1="140.000000" x2="349.900000" y2="140.000000"  style="stroke:black; stroke-linecap:round; stroke-width:0.25;"/>
<line x1="349.900000" y1="140.000000" x2="353.900000" y2="140.000000"  style="stroke:black; stroke-linecap:round; stroke-width:0.25;"/>
<line x1="349.900000" y1="148.000000" x2="353.900000" y2="148.000000"  style="stroke:black; stroke-linecap:round; stroke-width:0.25;"/>
<line x1="377.900000" y1="144.000000" x2="381.900000" y2="144.000000"  style="stroke:black; stroke-linecap:round; stroke-width:0.25;"/>
<line x1="381.900000" y1="144.000000" x2="391.900000" y2="144.000000"  style="stroke:black; stroke-linecap:round; stroke-width:0.25;"/>
</svg>
