<?xml version="1.0"?>
<svg xmlns="http://www.w3.org/2000/svg" xmlns:xlink="http://www.w3.org/1999/xlink" viewBox="0 0 212.500000 92.000000" width="106.250000mm" height="46.000000mm" version="1.1">
<defs>
   <filter id="filter" filterRes="18" x="0" y="0">
     <feGaussianBlur in="SourceGraphic" stdDeviation="1.55" result="blur"/>
     <feOffset in="blur" dx="3" dy="3"/>
   </filter>
</defs>
<a xlink:href="process.svg">
<rect x="1.000000" y="1.000000" width="211.500000" height="91.000000" rx="0.1" ry="0.1" style="stroke:none;fill:#aaaaaa;;filter:url(#filter);"/>
<rect x="0.000000" y="0.000000" width="211.500000" height="91.000000" rx="0" ry="0" style="stroke:none;fill:#ffffff;"/>
</a>
<text x="10.000000" y="7.000000" font-family="Arial" font-size="7"></text>
<a xlink:href="userinput-0x26d6680.svg">
<rect x="25.000000" y="31.000000" width="38.700000" height="24.000000" rx="0.1" ry="0.1" style="stroke:none;fill:#aaaaaa;;filter:url(#filter);"/>
<rect x="24.000000" y="30.000000" width="38.700000" height="24.000000" rx="0" ry="0" style="stroke:none;fill:#003366;"/>
</a>
<a xlink:href="userinput-0x26d6680.svg">
<text x="43.350000" y="44.000000" font-family="Arial" font-size="7" text-anchor="middle" fill="#FFFFFF">userinput</text>
</a>
<circle cx="26.000000" cy="32.000000" r="1"/>
<rect x="89.700000" y="35.000000" width="24.000000" height="24.000000" rx="0.1" ry="0.1" style="stroke:none;fill:#aaaaaa;;filter:url(#filter);"/>
<rect x="88.700000" y="34.000000" width="24.000000" height="24.000000" rx="0" ry="0" style="stroke:none;fill:#4B71A1;"/>
<text x="100.700000" y="48.000000" font-family="Arial" font-size="7" text-anchor="middle" fill="#FFFFFF">*</text>
<circle cx="90.700000" cy="36.000000" r="1"/>
<line x1="85.700000" y1="41.000000" x2="88.700000" y2="42.000000"  transform="rotate(0.000000,88.700000,42.000000)" style="stroke: black; stroke-width:0.25;"/>
<line x1="85.700000" y1="43.000000" x2="88.700000" y2="42.000000"  transform="rotate(0.000000,88.700000,42.000000)" style="stroke: black; stroke-width:0.25;"/>
<line x1="85.700000" y1="49.000000" x2="88.700000" y2="50.000000"  transform="rotate(0.000000,88.700000,50.000000)" style="stroke: black; stroke-width:0.25;"/>
<line x1="85.700000" y1="51.000000" x2="88.700000" y2="50.000000"  transform="rotate(0.000000,88.700000,50.000000)" style="stroke: black; stroke-width:0.25;"/>
<line x1="79.700000" y1="25.000000" x2="79.700000" y2="67.000000"  style="stroke: black; stroke-linecap:round; stroke-width:0.25; stroke-dasharray:3,3;"/>
<line x1="79.700000" y1="67.000000" x2="121.700000" y2="67.000000"  style="stroke: black; stroke-linecap:round; stroke-width:0.25; stroke-dasharray:3,3;"/>
<line x1="121.700000" y1="67.000000" x2="121.700000" y2="25.000000"  style="stroke: black; stroke-linecap:round; stroke-width:0.25; stroke-dasharray:3,3;"/>
<line x1="79.700000" y1="25.000000" x2="84.700000" y2="25.000000"  style="stroke: black; stroke-linecap:round; stroke-width:0.25; stroke-dasharray:3,3;"/>
<line x1="100.825000" y1="25.000000" x2="121.700000" y2="25.000000"  style="stroke: black; stroke-linecap:round; stroke-width:0.25; stroke-dasharray:3,3;"/>
<text x="84.700000" y="27.000000" font-family="Arial" font-size="7">Bit</text>
<rect x="131.700000" y="35.000000" width="24.000000" height="24.000000" rx="0.1" ry="0.1" style="stroke:none;fill:#aaaaaa;;filter:url(#filter);"/>
<rect x="130.700000" y="34.000000" width="24.000000" height="24.000000" rx="0" ry="0" style="stroke:none;fill:#4B71A1;"/>
<text x="142.700000" y="48.000000" font-family="Arial" font-size="7" text-anchor="middle" fill="#FFFFFF">int</text>
<circle cx="132.700000" cy="36.000000" r="1"/>
<line x1="127.700000" y1="45.000000" x2="130.700000" y2="46.000000"  transform="rotate(0.000000,130.700000,46.000000)" style="stroke: black; stroke-width:0.25;"/>
<line x1="127.700000" y1="47.000000" x2="130.700000" y2="46.000000"  transform="rotate(0.000000,130.700000,46.000000)" style="stroke: black; stroke-width:0.25;"/>
<a xlink:href="user-0x26d6900.svg">
<rect x="163.700000" y="35.000000" width="25.800000" height="24.000000" rx="0.1" ry="0.1" style="stroke:none;fill:#aaaaaa;;filter:url(#filter);"/>
<rect x="162.700000" y="34.000000" width="25.800000" height="24.000000" rx="0" ry="0" style="stroke:none;fill:#003366;"/>
</a>
<a xlink:href="user-0x26d6900.svg">
<text x="175.600000" y="48.000000" font-family="Arial" font-size="7" text-anchor="middle" fill="#FFFFFF">user</text>
</a>
<circle cx="164.700000" cy="36.000000" r="1"/>
<line x1="159.700000" y1="45.000000" x2="162.700000" y2="46.000000"  transform="rotate(0.000000,162.700000,46.000000)" style="stroke: black; stroke-width:0.25;"/>
<line x1="159.700000" y1="47.000000" x2="162.700000" y2="46.000000"  transform="rotate(0.000000,162.700000,46.000000)" style="stroke: black; stroke-width:0.25;"/>
<line x1="15.000000" y1="15.000000" x2="15.000000" y2="77.000000"  style="stroke: black; stroke-linecap:round; stroke-width:0.25; stroke-dasharray:3,3;"/>
<line x1="15.000000" y1="77.000000" x2="197.500000" y2="77.000000"  style="stroke: black; stroke-linecap:round; stroke-width:0.25; stroke-dasharray:3,3;"/>
<line x1="197.500000" y1="77.000000" x2="197.500000" y2="15.000000"  style="stroke: black; stroke-linecap:round; stroke-width:0.25; stroke-dasharray:3,3;"/>
<line x1="15.000000" y1="15.000000" x2="20.000000" y2="15.000000"  style="stroke: black; stroke-linecap:round; stroke-width:0.25; stroke-dasharray:3,3;"/>
<line x1="61.925000" y1="15.000000" x2="197.500000" y2="15.000000"  style="stroke: black; stroke-linecap:round; stroke-width:0.25; stroke-dasharray:3,3;"/>
<text x="20.000000" y="17.000000" font-family="Arial" font-size="7">Bitcrushing</text>
<line x1="199.500000" y1="45.000000" x2="202.500000" y2="46.000000"  transform="rotate(0.000000,202.500000,46.000000)" style="stroke: black; stroke-width:0.25;"/>
<line x1="199.500000" y1="47.000000" x2="202.500000" y2="46.000000"  transform="rotate(0.000000,202.500000,46.000000)" style="stroke: black; stroke-width:0.25;"/>
<line x1="10.000000" y1="62.000000" x2="20.000000" y2="62.000000"  style="stroke:black; stroke-linecap:round; stroke-width:0.25;"/>
<line x1="20.000000" y1="62.000000" x2="43.350000" y2="62.000000"  style="stroke:black; stroke-linecap:round; stroke-width:0.25;"/>
<line x1="43.350000" y1="62.000000" x2="66.700000" y2="62.000000"  style="stroke:black; stroke-linecap:round; stroke-width:0.25;"/>
<line x1="62.700000" y1="42.000000" x2="66.700000" y2="42.000000"  style="stroke:black; stroke-linecap:round; stroke-width:0.25;"/>
<line x1="66.700000" y1="42.000000" x2="74.700000" y2="42.000000"  style="stroke:black; stroke-linecap:round; stroke-width:0.25;"/>
<line x1="66.700000" y1="50.000000" x2="74.700000" y2="50.000000"  style="stroke:black; stroke-linecap:round; stroke-width:0.25;"/>
<line x1="66.700000" y1="62.000000" x2="66.700000" y2="50.000000"  style="stroke:black; stroke-linecap:round; stroke-width:0.25;"/>
<line x1="66.700000" y1="62.000000" x2="66.700000" y2="62.000000"  style="stroke:black; stroke-linecap:round; stroke-width:0.25;"/>
<line x1="74.700000" y1="42.000000" x2="84.700000" y2="42.000000"  style="stroke:black; stroke-linecap:round; stroke-width:0.25;"/>
<line x1="74.700000" y1="50.000000" x2="84.700000" y2="50.000000"  style="stroke:black; stroke-linecap:round; stroke-width:0.25;"/>
<line x1="84.700000" y1="42.000000" x2="84.700000" y2="42.000000"  style="stroke:black; stroke-linecap:round; stroke-width:0.25;"/>
<line x1="84.700000" y1="42.000000" x2="88.700000" y2="42.000000"  style="stroke:black; stroke-linecap:round; stroke-width:0.25;"/>
<line x1="84.700000" y1="50.000000" x2="84.700000" y2="50.000000"  style="stroke:black; stroke-linecap:round; stroke-width:0.25;"/>
<line x1="84.700000" y1="50.000000" x2="88.700000" y2="50.000000"  style="stroke:black; stroke-linecap:round; stroke-width:0.25;"/>
<line x1="112.700000" y1="46.000000" x2="116.700000" y2="46.000000"  style="stroke:black; stroke-linecap:round; stroke-width:0.25;"/>
<line x1="116.700000" y1="46.000000" x2="126.700000" y2="46.000000"  style="stroke:black; stroke-linecap:round; stroke-width:0.25;"/>
<line x1="126.700000" y1="46.000000" x2="126.700000" y2="46.000000"  style="stroke:black; stroke-linecap:round; stroke-width:0.25;"/>
<line x1="126.700000" y1="46.000000" x2="130.700000" y2="46.000000"  style="stroke:black; stroke-linecap:round; stroke-width:0.25;"/>
<line x1="154.700000" y1="46.000000" x2="158.700000" y2="46.000000"  style="stroke:black; stroke-linecap:round; stroke-width:0.25;"/>
<line x1="158.700000" y1="46.000000" x2="158.700000" y2="46.000000"  style="stroke:black; stroke-linecap:round; stroke-width:0.25;"/>
<line x1="158.700000" y1="46.000000" x2="162.700000" y2="46.000000"  style="stroke:black; stroke-linecap:round; stroke-width:0.25;"/>
<line x1="188.500000" y1="46.000000" x2="192.500000" y2="46.000000"  style="stroke:black; stroke-linecap:round; stroke-width:0.25;"/>
<line x1="192.500000" y1="46.000000" x2="202.500000" y2="46.000000"  style="stroke:black; stroke-linecap:round; stroke-width:0.25;"/>
</svg>
