<?xml version="1.0"?>
<svg xmlns="http://www.w3.org/2000/svg" xmlns:xlink="http://www.w3.org/1999/xlink" viewBox="0 0 657.500000 124.000000" width="328.750000mm" height="62.000000mm" version="1.1">
<defs>
   <filter id="filter" filterRes="18" x="0" y="0">
     <feGaussianBlur in="SourceGraphic" stdDeviation="1.55" result="blur"/>
     <feOffset in="blur" dx="3" dy="3"/>
   </filter>
</defs>
<a xlink:href="process.svg">
<rect x="1.000000" y="1.000000" width="656.500000" height="123.000000" rx="0.1" ry="0.1" style="stroke:none;fill:#aaaaaa;;filter:url(#filter);"/>
<rect x="0.000000" y="0.000000" width="656.500000" height="123.000000" rx="0" ry="0" style="stroke:none;fill:#ffffff;"/>
</a>
<text x="10.000000" y="7.000000" font-family="Arial" font-size="7"></text>
<rect x="45.000000" y="47.000000" width="141.900000" height="24.000000" rx="0.1" ry="0.1" style="stroke:none;fill:#aaaaaa;;filter:url(#filter);"/>
<rect x="44.000000" y="46.000000" width="141.900000" height="24.000000" rx="0" ry="0" style="stroke:none;fill:#477881;"/>
<text x="114.950000" y="60.000000" font-family="Arial" font-size="7" text-anchor="middle" fill="#FFFFFF">hslider(cleanamp, 1, 1, 100, 1)</text>
<circle cx="46.000000" cy="48.000000" r="1"/>
<rect x="202.900000" y="51.000000" width="24.000000" height="24.000000" rx="0.1" ry="0.1" style="stroke:none;fill:#aaaaaa;;filter:url(#filter);"/>
<rect x="201.900000" y="50.000000" width="24.000000" height="24.000000" rx="0" ry="0" style="stroke:none;fill:#4B71A1;"/>
<text x="213.900000" y="64.000000" font-family="Arial" font-size="7" text-anchor="middle" fill="#FFFFFF">*</text>
<circle cx="203.900000" cy="52.000000" r="1"/>
<line x1="198.900000" y1="57.000000" x2="201.900000" y2="58.000000"  transform="rotate(0.000000,201.900000,58.000000)" style="stroke: black; stroke-width:0.25;"/>
<line x1="198.900000" y1="59.000000" x2="201.900000" y2="58.000000"  transform="rotate(0.000000,201.900000,58.000000)" style="stroke: black; stroke-width:0.25;"/>
<line x1="198.900000" y1="65.000000" x2="201.900000" y2="66.000000"  transform="rotate(0.000000,201.900000,66.000000)" style="stroke: black; stroke-width:0.25;"/>
<line x1="198.900000" y1="67.000000" x2="201.900000" y2="66.000000"  transform="rotate(0.000000,201.900000,66.000000)" style="stroke: black; stroke-width:0.25;"/>
<line x1="35.000000" y1="37.000000" x2="35.000000" y2="87.000000"  style="stroke: black; stroke-linecap:round; stroke-width:0.25; stroke-dasharray:3,3;"/>
<line x1="35.000000" y1="87.000000" x2="234.900000" y2="87.000000"  style="stroke: black; stroke-linecap:round; stroke-width:0.25; stroke-dasharray:3,3;"/>
<line x1="234.900000" y1="87.000000" x2="234.900000" y2="37.000000"  style="stroke: black; stroke-linecap:round; stroke-width:0.25; stroke-dasharray:3,3;"/>
<line x1="35.000000" y1="37.000000" x2="40.000000" y2="37.000000"  style="stroke: black; stroke-linecap:round; stroke-width:0.25; stroke-dasharray:3,3;"/>
<line x1="56.125000" y1="37.000000" x2="234.900000" y2="37.000000"  style="stroke: black; stroke-linecap:round; stroke-width:0.25; stroke-dasharray:3,3;"/>
<text x="40.000000" y="39.000000" font-family="Arial" font-size="7">pre</text>
<a xlink:href="A-0x26bfda0.svg">
<rect x="334.300000" y="35.000000" width="24.000000" height="24.000000" rx="0.1" ry="0.1" style="stroke:none;fill:#aaaaaa;;filter:url(#filter);"/>
<rect x="333.300000" y="34.000000" width="24.000000" height="24.000000" rx="0" ry="0" style="stroke:none;fill:#003366;"/>
</a>
<a xlink:href="A-0x26bfda0.svg">
<text x="345.300000" y="48.000000" font-family="Arial" font-size="7" text-anchor="middle" fill="#FFFFFF">A</text>
</a>
<circle cx="335.300000" cy="36.000000" r="1"/>
<line x1="330.300000" y1="45.000000" x2="333.300000" y2="46.000000"  transform="rotate(0.000000,333.300000,46.000000)" style="stroke: black; stroke-width:0.25;"/>
<line x1="330.300000" y1="47.000000" x2="333.300000" y2="46.000000"  transform="rotate(0.000000,333.300000,46.000000)" style="stroke: black; stroke-width:0.25;"/>
<rect x="252.900000" y="67.000000" width="154.800000" height="24.000000" rx="0.1" ry="0.1" style="stroke:none;fill:#aaaaaa;;filter:url(#filter);"/>
<rect x="251.900000" y="66.000000" width="154.800000" height="24.000000" rx="0" ry="0" style="stroke:none;fill:#477881;"/>
<text x="329.300000" y="80.000000" font-family="Arial" font-size="7" text-anchor="middle" fill="#FFFFFF">hslider(Distortion, 2, 2, 1500, 0.1)</text>
<circle cx="253.900000" cy="68.000000" r="1"/>
<rect x="415.700000" y="67.000000" width="24.000000" height="24.000000" rx="0.1" ry="0.1" style="stroke:none;fill:#aaaaaa;;filter:url(#filter);"/>
<rect x="414.700000" y="66.000000" width="24.000000" height="24.000000" rx="0" ry="0" style="stroke:none;fill:#4B71A1;"/>
<text x="426.700000" y="80.000000" font-family="Arial" font-size="7" text-anchor="middle" fill="#FFFFFF">int</text>
<circle cx="416.700000" cy="68.000000" r="1"/>
<line x1="411.700000" y1="77.000000" x2="414.700000" y2="78.000000"  transform="rotate(0.000000,414.700000,78.000000)" style="stroke: black; stroke-width:0.25;"/>
<line x1="411.700000" y1="79.000000" x2="414.700000" y2="78.000000"  transform="rotate(0.000000,414.700000,78.000000)" style="stroke: black; stroke-width:0.25;"/>
<rect x="488.700000" y="51.000000" width="24.000000" height="24.000000" rx="0.1" ry="0.1" style="stroke:none;fill:#aaaaaa;;filter:url(#filter);"/>
<rect x="487.700000" y="50.000000" width="24.000000" height="24.000000" rx="0" ry="0" style="stroke:none;fill:#4B71A1;"/>
<text x="499.700000" y="64.000000" font-family="Arial" font-size="7" text-anchor="middle" fill="#FFFFFF">%</text>
<circle cx="489.700000" cy="52.000000" r="1"/>
<line x1="484.700000" y1="57.000000" x2="487.700000" y2="58.000000"  transform="rotate(0.000000,487.700000,58.000000)" style="stroke: black; stroke-width:0.25;"/>
<line x1="484.700000" y1="59.000000" x2="487.700000" y2="58.000000"  transform="rotate(0.000000,487.700000,58.000000)" style="stroke: black; stroke-width:0.25;"/>
<line x1="484.700000" y1="65.000000" x2="487.700000" y2="66.000000"  transform="rotate(0.000000,487.700000,66.000000)" style="stroke: black; stroke-width:0.25;"/>
<line x1="484.700000" y1="67.000000" x2="487.700000" y2="66.000000"  transform="rotate(0.000000,487.700000,66.000000)" style="stroke: black; stroke-width:0.25;"/>
<line x1="478.700000" y1="41.000000" x2="478.700000" y2="83.000000"  style="stroke: black; stroke-linecap:round; stroke-width:0.25; stroke-dasharray:3,3;"/>
<line x1="478.700000" y1="83.000000" x2="520.700000" y2="83.000000"  style="stroke: black; stroke-linecap:round; stroke-width:0.25; stroke-dasharray:3,3;"/>
<line x1="520.700000" y1="83.000000" x2="520.700000" y2="41.000000"  style="stroke: black; stroke-linecap:round; stroke-width:0.25; stroke-dasharray:3,3;"/>
<line x1="478.700000" y1="41.000000" x2="483.700000" y2="41.000000"  style="stroke: black; stroke-linecap:round; stroke-width:0.25; stroke-dasharray:3,3;"/>
<line x1="493.375000" y1="41.000000" x2="520.700000" y2="41.000000"  style="stroke: black; stroke-linecap:round; stroke-width:0.25; stroke-dasharray:3,3;"/>
<text x="483.700000" y="43.000000" font-family="Arial" font-size="7">B</text>
<rect x="548.700000" y="55.000000" width="25.800000" height="24.000000" rx="0.1" ry="0.1" style="stroke:none;fill:#aaaaaa;;filter:url(#filter);"/>
<rect x="547.700000" y="54.000000" width="25.800000" height="24.000000" rx="0" ry="0" style="stroke:none;fill:#f44800;"/>
<text x="560.600000" y="68.000000" font-family="Arial" font-size="7" text-anchor="middle" fill="#FFFFFF">1500</text>
<circle cx="549.700000" cy="56.000000" r="1"/>
<rect x="590.500000" y="51.000000" width="24.000000" height="24.000000" rx="0.1" ry="0.1" style="stroke:none;fill:#aaaaaa;;filter:url(#filter);"/>
<rect x="589.500000" y="50.000000" width="24.000000" height="24.000000" rx="0" ry="0" style="stroke:none;fill:#4B71A1;"/>
<text x="601.500000" y="64.000000" font-family="Arial" font-size="7" text-anchor="middle" fill="#FFFFFF">/</text>
<circle cx="591.500000" cy="52.000000" r="1"/>
<line x1="586.500000" y1="57.000000" x2="589.500000" y2="58.000000"  transform="rotate(0.000000,589.500000,58.000000)" style="stroke: black; stroke-width:0.25;"/>
<line x1="586.500000" y1="59.000000" x2="589.500000" y2="58.000000"  transform="rotate(0.000000,589.500000,58.000000)" style="stroke: black; stroke-width:0.25;"/>
<line x1="586.500000" y1="65.000000" x2="589.500000" y2="66.000000"  transform="rotate(0.000000,589.500000,66.000000)" style="stroke: black; stroke-width:0.25;"/>
<line x1="586.500000" y1="67.000000" x2="589.500000" y2="66.000000"  transform="rotate(0.000000,589.500000,66.000000)" style="stroke: black; stroke-width:0.25;"/>
<line x1="538.700000" y1="37.000000" x2="538.700000" y2="87.000000"  style="stroke: black; stroke-linecap:round; stroke-width:0.25; stroke-dasharray:3,3;"/>
<line x1="538.700000" y1="87.000000" x2="622.500000" y2="87.000000"  style="stroke: black; stroke-linecap:round; stroke-width:0.25; stroke-dasharray:3,3;"/>
<line x1="622.500000" y1="87.000000" x2="622.500000" y2="37.000000"  style="stroke: black; stroke-linecap:round; stroke-width:0.25; stroke-dasharray:3,3;"/>
<line x1="538.700000" y1="37.000000" x2="543.700000" y2="37.000000"  style="stroke: black; stroke-linecap:round; stroke-width:0.25; stroke-dasharray:3,3;"/>
<line x1="553.375000" y1="37.000000" x2="622.500000" y2="37.000000"  style="stroke: black; stroke-linecap:round; stroke-width:0.25; stroke-dasharray:3,3;"/>
<text x="543.700000" y="39.000000" font-family="Arial" font-size="7">C</text>
<line x1="25.000000" y1="25.000000" x2="25.000000" y2="99.000000"  style="stroke: black; stroke-linecap:round; stroke-width:0.25; stroke-dasharray:3,3;"/>
<line x1="25.000000" y1="99.000000" x2="632.500000" y2="99.000000"  style="stroke: black; stroke-linecap:round; stroke-width:0.25; stroke-dasharray:3,3;"/>
<line x1="632.500000" y1="99.000000" x2="632.500000" y2="25.000000"  style="stroke: black; stroke-linecap:round; stroke-width:0.25; stroke-dasharray:3,3;"/>
<line x1="25.000000" y1="25.000000" x2="30.000000" y2="25.000000"  style="stroke: black; stroke-linecap:round; stroke-width:0.25; stroke-dasharray:3,3;"/>
<line x1="94.500000" y1="25.000000" x2="632.500000" y2="25.000000"  style="stroke: black; stroke-linecap:round; stroke-width:0.25; stroke-dasharray:3,3;"/>
<text x="30.000000" y="27.000000" font-family="Arial" font-size="7">hgroup(Distortion)</text>
<line x1="15.000000" y1="15.000000" x2="15.000000" y2="109.000000"  style="stroke: black; stroke-linecap:round; stroke-width:0.25; stroke-dasharray:3,3;"/>
<line x1="15.000000" y1="109.000000" x2="642.500000" y2="109.000000"  style="stroke: black; stroke-linecap:round; stroke-width:0.25; stroke-dasharray:3,3;"/>
<line x1="642.500000" y1="109.000000" x2="642.500000" y2="15.000000"  style="stroke: black; stroke-linecap:round; stroke-width:0.25; stroke-dasharray:3,3;"/>
<line x1="15.000000" y1="15.000000" x2="20.000000" y2="15.000000"  style="stroke: black; stroke-linecap:round; stroke-width:0.25; stroke-dasharray:3,3;"/>
<line x1="58.700000" y1="15.000000" x2="642.500000" y2="15.000000"  style="stroke: black; stroke-linecap:round; stroke-width:0.25; stroke-dasharray:3,3;"/>
<text x="20.000000" y="17.000000" font-family="Arial" font-size="7">Distortion</text>
<line x1="644.500000" y1="61.000000" x2="647.500000" y2="62.000000"  transform="rotate(0.000000,647.500000,62.000000)" style="stroke: black; stroke-width:0.25;"/>
<line x1="644.500000" y1="63.000000" x2="647.500000" y2="62.000000"  transform="rotate(0.000000,647.500000,62.000000)" style="stroke: black; stroke-width:0.25;"/>
<line x1="10.000000" y1="78.000000" x2="20.000000" y2="78.000000"  style="stroke:black; stroke-linecap:round; stroke-width:0.25;"/>
<line x1="20.000000" y1="78.000000" x2="30.000000" y2="78.000000"  style="stroke:black; stroke-linecap:round; stroke-width:0.25;"/>
<line x1="30.000000" y1="78.000000" x2="40.000000" y2="78.000000"  style="stroke:black; stroke-linecap:round; stroke-width:0.25;"/>
<line x1="40.000000" y1="78.000000" x2="114.950000" y2="78.000000"  style="stroke:black; stroke-linecap:round; stroke-width:0.25;"/>
<line x1="114.950000" y1="78.000000" x2="189.900000" y2="78.000000"  style="stroke:black; stroke-linecap:round; stroke-width:0.25;"/>
<line x1="185.900000" y1="58.000000" x2="189.900000" y2="58.000000"  style="stroke:black; stroke-linecap:round; stroke-width:0.25;"/>
<line x1="189.900000" y1="58.000000" x2="197.900000" y2="58.000000"  style="stroke:black; stroke-linecap:round; stroke-width:0.25;"/>
<line x1="189.900000" y1="66.000000" x2="197.900000" y2="66.000000"  style="stroke:black; stroke-linecap:round; stroke-width:0.25;"/>
<line x1="189.900000" y1="78.000000" x2="189.900000" y2="66.000000"  style="stroke:black; stroke-linecap:round; stroke-width:0.25;"/>
<line x1="189.900000" y1="78.000000" x2="189.900000" y2="78.000000"  style="stroke:black; stroke-linecap:round; stroke-width:0.25;"/>
<line x1="197.900000" y1="58.000000" x2="201.900000" y2="58.000000"  style="stroke:black; stroke-linecap:round; stroke-width:0.25;"/>
<line x1="197.900000" y1="66.000000" x2="201.900000" y2="66.000000"  style="stroke:black; stroke-linecap:round; stroke-width:0.25;"/>
<line x1="225.900000" y1="62.000000" x2="229.900000" y2="62.000000"  style="stroke:black; stroke-linecap:round; stroke-width:0.25;"/>
<line x1="229.900000" y1="62.000000" x2="239.900000" y2="62.000000"  style="stroke:black; stroke-linecap:round; stroke-width:0.25;"/>
<line x1="239.900000" y1="46.000000" x2="247.900000" y2="46.000000"  style="stroke:black; stroke-linecap:round; stroke-width:0.25;"/>
<line x1="239.900000" y1="62.000000" x2="239.900000" y2="46.000000"  style="stroke:black; stroke-linecap:round; stroke-width:0.25;"/>
<line x1="239.900000" y1="62.000000" x2="239.900000" y2="62.000000"  style="stroke:black; stroke-linecap:round; stroke-width:0.25;"/>
<line x1="247.900000" y1="46.000000" x2="329.300000" y2="46.000000"  style="stroke:black; stroke-linecap:round; stroke-width:0.25;"/>
<line x1="329.300000" y1="46.000000" x2="333.300000" y2="46.000000"  style="stroke:black; stroke-linecap:round; stroke-width:0.25;"/>
<line x1="357.300000" y1="46.000000" x2="361.300000" y2="46.000000"  style="stroke:black; stroke-linecap:round; stroke-width:0.25;"/>
<line x1="361.300000" y1="46.000000" x2="442.700000" y2="46.000000"  style="stroke:black; stroke-linecap:round; stroke-width:0.25;"/>
<line x1="406.700000" y1="78.000000" x2="410.700000" y2="78.000000"  style="stroke:black; stroke-linecap:round; stroke-width:0.25;"/>
<line x1="410.700000" y1="78.000000" x2="410.700000" y2="78.000000"  style="stroke:black; stroke-linecap:round; stroke-width:0.25;"/>
<line x1="410.700000" y1="78.000000" x2="414.700000" y2="78.000000"  style="stroke:black; stroke-linecap:round; stroke-width:0.25;"/>
<line x1="438.700000" y1="78.000000" x2="442.700000" y2="78.000000"  style="stroke:black; stroke-linecap:round; stroke-width:0.25;"/>
<line x1="442.700000" y1="46.000000" x2="473.700000" y2="58.000000"  style="stroke:black; stroke-linecap:round; stroke-width:0.25;"/>
<line x1="442.700000" y1="78.000000" x2="473.700000" y2="66.000000"  style="stroke:black; stroke-linecap:round; stroke-width:0.25;"/>
<line x1="473.700000" y1="58.000000" x2="483.700000" y2="58.000000"  style="stroke:black; stroke-linecap:round; stroke-width:0.25;"/>
<line x1="473.700000" y1="66.000000" x2="483.700000" y2="66.000000"  style="stroke:black; stroke-linecap:round; stroke-width:0.25;"/>
<line x1="483.700000" y1="58.000000" x2="483.700000" y2="58.000000"  style="stroke:black; stroke-linecap:round; stroke-width:0.25;"/>
<line x1="483.700000" y1="58.000000" x2="487.700000" y2="58.000000"  style="stroke:black; stroke-linecap:round; stroke-width:0.25;"/>
<line x1="483.700000" y1="66.000000" x2="483.700000" y2="66.000000"  style="stroke:black; stroke-linecap:round; stroke-width:0.25;"/>
<line x1="483.700000" y1="66.000000" x2="487.700000" y2="66.000000"  style="stroke:black; stroke-linecap:round; stroke-width:0.25;"/>
<line x1="511.700000" y1="62.000000" x2="515.700000" y2="62.000000"  style="stroke:black; stroke-linecap:round; stroke-width:0.25;"/>
<line x1="515.700000" y1="62.000000" x2="525.700000" y2="62.000000"  style="stroke:black; stroke-linecap:round; stroke-width:0.25;"/>
<line x1="525.700000" y1="46.000000" x2="533.700000" y2="46.000000"  style="stroke:black; stroke-linecap:round; stroke-width:0.25;"/>
<line x1="525.700000" y1="62.000000" x2="525.700000" y2="46.000000"  style="stroke:black; stroke-linecap:round; stroke-width:0.25;"/>
<line x1="525.700000" y1="62.000000" x2="525.700000" y2="62.000000"  style="stroke:black; stroke-linecap:round; stroke-width:0.25;"/>
<line x1="533.700000" y1="46.000000" x2="543.700000" y2="46.000000"  style="stroke:black; stroke-linecap:round; stroke-width:0.25;"/>
<line x1="543.700000" y1="46.000000" x2="560.600000" y2="46.000000"  style="stroke:black; stroke-linecap:round; stroke-width:0.25;"/>
<line x1="560.600000" y1="46.000000" x2="577.500000" y2="46.000000"  style="stroke:black; stroke-linecap:round; stroke-width:0.25;"/>
<line x1="573.500000" y1="66.000000" x2="577.500000" y2="66.000000"  style="stroke:black; stroke-linecap:round; stroke-width:0.25;"/>
<line x1="577.500000" y1="46.000000" x2="585.500000" y2="46.000000"  style="stroke:black; stroke-linecap:round; stroke-width:0.25;"/>
<line x1="577.500000" y1="66.000000" x2="585.500000" y2="66.000000"  style="stroke:black; stroke-linecap:round; stroke-width:0.25;"/>
<line x1="585.500000" y1="46.000000" x2="585.500000" y2="58.000000"  style="stroke:black; stroke-linecap:round; stroke-width:0.25;"/>
<line x1="585.500000" y1="58.000000" x2="585.500000" y2="58.000000"  style="stroke:black; stroke-linecap:round; stroke-width:0.25;"/>
<line x1="585.500000" y1="58.000000" x2="589.500000" y2="58.000000"  style="stroke:black; stroke-linecap:round; stroke-width:0.25;"/>
<line x1="585.500000" y1="66.000000" x2="589.500000" y2="66.000000"  style="stroke:black; stroke-linecap:round; stroke-width:0.25;"/>
<line x1="613.500000" y1="62.000000" x2="617.500000" y2="62.000000"  style="stroke:black; stroke-linecap:round; stroke-width:0.25;"/>
<line x1="617.500000" y1="62.000000" x2="627.500000" y2="62.000000"  style="stroke:black; stroke-linecap:round; stroke-width:0.25;"/>
<line x1="627.500000" y1="62.000000" x2="637.500000" y2="62.000000"  style="stroke:black; stroke-linecap:round; stroke-width:0.25;"/>
<line x1="637.500000" y1="62.000000" x2="647.500000" y2="62.000000"  style="stroke:black; stroke-linecap:round; stroke-width:0.25;"/>
</svg>
