<?xml version="1.0"?>
<svg xmlns="http://www.w3.org/2000/svg" xmlns:xlink="http://www.w3.org/1999/xlink" viewBox="0 0 254.700000 184.000000" width="127.350000mm" height="92.000000mm" version="1.1">
<defs>
   <filter id="filter" filterRes="18" x="0" y="0">
     <feGaussianBlur in="SourceGraphic" stdDeviation="1.55" result="blur"/>
     <feOffset in="blur" dx="3" dy="3"/>
   </filter>
</defs>
<a xlink:href="process.svg">
<rect x="1.000000" y="1.000000" width="253.700000" height="183.000000" rx="0.1" ry="0.1" style="stroke:none;fill:#aaaaaa;;filter:url(#filter);"/>
<rect x="0.000000" y="0.000000" width="253.700000" height="183.000000" rx="0" ry="0" style="stroke:none;fill:#ffffff;"/>
</a>
<text x="10.000000" y="7.000000" font-family="Arial" font-size="7"></text>
<rect x="25.000000" y="81.000000" width="24.000000" height="24.000000" rx="0.1" ry="0.1" style="stroke:none;fill:#aaaaaa;;filter:url(#filter);"/>
<rect x="24.000000" y="80.000000" width="24.000000" height="24.000000" rx="0" ry="0" style="stroke:none;fill:#47945E;"/>
<text x="36.000000" y="94.000000" font-family="Arial" font-size="7" text-anchor="middle" fill="#FFFFFF">x</text>
<circle cx="26.000000" cy="82.000000" r="1"/>
<line x1="21.000000" y1="91.000000" x2="24.000000" y2="92.000000"  transform="rotate(0.000000,24.000000,92.000000)" style="stroke: black; stroke-width:0.25;"/>
<line x1="21.000000" y1="93.000000" x2="24.000000" y2="92.000000"  transform="rotate(0.000000,24.000000,92.000000)" style="stroke: black; stroke-width:0.25;"/>
<rect x="72.350000" y="41.000000" width="24.000000" height="24.000000" rx="0.1" ry="0.1" style="stroke:none;fill:#aaaaaa;;filter:url(#filter);"/>
<rect x="71.350000" y="40.000000" width="24.000000" height="24.000000" rx="0" ry="0" style="stroke:none;fill:#f44800;"/>
<text x="83.350000" y="54.000000" font-family="Arial" font-size="7" text-anchor="middle" fill="#FFFFFF">1</text>
<circle cx="73.350000" cy="42.000000" r="1"/>
<a xlink:href="vergelijk-0x26cced0.svg">
<rect x="65.000000" y="73.000000" width="38.700000" height="24.000000" rx="0.1" ry="0.1" style="stroke:none;fill:#aaaaaa;;filter:url(#filter);"/>
<rect x="64.000000" y="72.000000" width="38.700000" height="24.000000" rx="0" ry="0" style="stroke:none;fill:#003366;"/>
</a>
<a xlink:href="vergelijk-0x26cced0.svg">
<text x="83.350000" y="86.000000" font-family="Arial" font-size="7" text-anchor="middle" fill="#FFFFFF">vergelijk</text>
</a>
<circle cx="66.000000" cy="74.000000" r="1"/>
<rect x="119.700000" y="57.000000" width="24.000000" height="24.000000" rx="0.1" ry="0.1" style="stroke:none;fill:#aaaaaa;;filter:url(#filter);"/>
<rect x="118.700000" y="56.000000" width="24.000000" height="24.000000" rx="0" ry="0" style="stroke:none;fill:#4B71A1;"/>
<text x="130.700000" y="70.000000" font-family="Arial" font-size="7" text-anchor="middle" fill="#FFFFFF">-</text>
<circle cx="120.700000" cy="58.000000" r="1"/>
<line x1="115.700000" y1="63.000000" x2="118.700000" y2="64.000000"  transform="rotate(0.000000,118.700000,64.000000)" style="stroke: black; stroke-width:0.25;"/>
<line x1="115.700000" y1="65.000000" x2="118.700000" y2="64.000000"  transform="rotate(0.000000,118.700000,64.000000)" style="stroke: black; stroke-width:0.25;"/>
<line x1="115.700000" y1="71.000000" x2="118.700000" y2="72.000000"  transform="rotate(0.000000,118.700000,72.000000)" style="stroke: black; stroke-width:0.25;"/>
<line x1="115.700000" y1="73.000000" x2="118.700000" y2="72.000000"  transform="rotate(0.000000,118.700000,72.000000)" style="stroke: black; stroke-width:0.25;"/>
<rect x="159.700000" y="53.000000" width="24.000000" height="24.000000" rx="0.1" ry="0.1" style="stroke:none;fill:#aaaaaa;;filter:url(#filter);"/>
<rect x="158.700000" y="52.000000" width="24.000000" height="24.000000" rx="0" ry="0" style="stroke:none;fill:#4B71A1;"/>
<text x="170.700000" y="66.000000" font-family="Arial" font-size="7" text-anchor="middle" fill="#FFFFFF">*</text>
<circle cx="160.700000" cy="54.000000" r="1"/>
<line x1="155.700000" y1="59.000000" x2="158.700000" y2="60.000000"  transform="rotate(0.000000,158.700000,60.000000)" style="stroke: black; stroke-width:0.25;"/>
<line x1="155.700000" y1="61.000000" x2="158.700000" y2="60.000000"  transform="rotate(0.000000,158.700000,60.000000)" style="stroke: black; stroke-width:0.25;"/>
<line x1="155.700000" y1="67.000000" x2="158.700000" y2="68.000000"  transform="rotate(0.000000,158.700000,68.000000)" style="stroke: black; stroke-width:0.25;"/>
<line x1="155.700000" y1="69.000000" x2="158.700000" y2="68.000000"  transform="rotate(0.000000,158.700000,68.000000)" style="stroke: black; stroke-width:0.25;"/>
<rect x="92.350000" y="105.000000" width="24.000000" height="24.000000" rx="0.1" ry="0.1" style="stroke:none;fill:#aaaaaa;;filter:url(#filter);"/>
<rect x="91.350000" y="104.000000" width="24.000000" height="24.000000" rx="0" ry="0" style="stroke:none;fill:#47945E;"/>
<text x="103.350000" y="118.000000" font-family="Arial" font-size="7" text-anchor="middle" fill="#FFFFFF">x</text>
<circle cx="93.350000" cy="106.000000" r="1"/>
<a xlink:href="vergelijk-0x26cced0.svg">
<rect x="85.000000" y="137.000000" width="38.700000" height="24.000000" rx="0.1" ry="0.1" style="stroke:none;fill:#aaaaaa;;filter:url(#filter);"/>
<rect x="84.000000" y="136.000000" width="38.700000" height="24.000000" rx="0" ry="0" style="stroke:none;fill:#003366;"/>
</a>
<a xlink:href="vergelijk-0x26cced0.svg">
<text x="103.350000" y="150.000000" font-family="Arial" font-size="7" text-anchor="middle" fill="#FFFFFF">vergelijk</text>
</a>
<circle cx="86.000000" cy="138.000000" r="1"/>
<rect x="139.700000" y="121.000000" width="24.000000" height="24.000000" rx="0.1" ry="0.1" style="stroke:none;fill:#aaaaaa;;filter:url(#filter);"/>
<rect x="138.700000" y="120.000000" width="24.000000" height="24.000000" rx="0" ry="0" style="stroke:none;fill:#4B71A1;"/>
<text x="150.700000" y="134.000000" font-family="Arial" font-size="7" text-anchor="middle" fill="#FFFFFF">*</text>
<circle cx="140.700000" cy="122.000000" r="1"/>
<line x1="135.700000" y1="127.000000" x2="138.700000" y2="128.000000"  transform="rotate(0.000000,138.700000,128.000000)" style="stroke: black; stroke-width:0.25;"/>
<line x1="135.700000" y1="129.000000" x2="138.700000" y2="128.000000"  transform="rotate(0.000000,138.700000,128.000000)" style="stroke: black; stroke-width:0.25;"/>
<line x1="135.700000" y1="135.000000" x2="138.700000" y2="136.000000"  transform="rotate(0.000000,138.700000,136.000000)" style="stroke: black; stroke-width:0.25;"/>
<line x1="135.700000" y1="137.000000" x2="138.700000" y2="136.000000"  transform="rotate(0.000000,138.700000,136.000000)" style="stroke: black; stroke-width:0.25;"/>
<rect x="199.700000" y="85.000000" width="24.000000" height="24.000000" rx="0.1" ry="0.1" style="stroke:none;fill:#aaaaaa;;filter:url(#filter);"/>
<rect x="198.700000" y="84.000000" width="24.000000" height="24.000000" rx="0" ry="0" style="stroke:none;fill:#4B71A1;"/>
<text x="210.700000" y="98.000000" font-family="Arial" font-size="7" text-anchor="middle" fill="#FFFFFF">+</text>
<circle cx="200.700000" cy="86.000000" r="1"/>
<line x1="195.700000" y1="91.000000" x2="198.700000" y2="92.000000"  transform="rotate(0.000000,198.700000,92.000000)" style="stroke: black; stroke-width:0.25;"/>
<line x1="195.700000" y1="93.000000" x2="198.700000" y2="92.000000"  transform="rotate(0.000000,198.700000,92.000000)" style="stroke: black; stroke-width:0.25;"/>
<line x1="195.700000" y1="99.000000" x2="198.700000" y2="100.000000"  transform="rotate(0.000000,198.700000,100.000000)" style="stroke: black; stroke-width:0.25;"/>
<line x1="195.700000" y1="101.000000" x2="198.700000" y2="100.000000"  transform="rotate(0.000000,198.700000,100.000000)" style="stroke: black; stroke-width:0.25;"/>
<line x1="224.700000" y1="96.000000" x2="224.700000" y2="92.000000"  style="stroke:black; stroke-linecap:round; stroke-width:0.25;"/>
<line x1="224.700000" y1="92.000000" x2="228.700000" y2="92.000000"  style="stroke:black; stroke-linecap:round; stroke-width:0.25;"/>
<line x1="228.700000" y1="92.000000" x2="228.700000" y2="96.000000"  style="stroke:black; stroke-linecap:round; stroke-width:0.25;"/>
<line x1="15.000000" y1="15.000000" x2="15.000000" y2="169.000000"  style="stroke: black; stroke-linecap:round; stroke-width:0.25; stroke-dasharray:3,3;"/>
<line x1="15.000000" y1="169.000000" x2="239.700000" y2="169.000000"  style="stroke: black; stroke-linecap:round; stroke-width:0.25; stroke-dasharray:3,3;"/>
<line x1="239.700000" y1="169.000000" x2="239.700000" y2="15.000000"  style="stroke: black; stroke-linecap:round; stroke-width:0.25; stroke-dasharray:3,3;"/>
<line x1="15.000000" y1="15.000000" x2="20.000000" y2="15.000000"  style="stroke: black; stroke-linecap:round; stroke-width:0.25; stroke-dasharray:3,3;"/>
<line x1="58.700000" y1="15.000000" x2="239.700000" y2="15.000000"  style="stroke: black; stroke-linecap:round; stroke-width:0.25; stroke-dasharray:3,3;"/>
<text x="20.000000" y="17.000000" font-family="Arial" font-size="7">Downsample</text>
<line x1="241.700000" y1="95.000000" x2="244.700000" y2="96.000000"  transform="rotate(0.000000,244.700000,96.000000)" style="stroke: black; stroke-width:0.25;"/>
<line x1="241.700000" y1="97.000000" x2="244.700000" y2="96.000000"  transform="rotate(0.000000,244.700000,96.000000)" style="stroke: black; stroke-width:0.25;"/>
<line x1="10.000000" y1="92.000000" x2="20.000000" y2="92.000000"  style="stroke:black; stroke-linecap:round; stroke-width:0.25;"/>
<line x1="20.000000" y1="92.000000" x2="24.000000" y2="92.000000"  style="stroke:black; stroke-linecap:round; stroke-width:0.25;"/>
<line x1="60.000000" y1="24.000000" x2="60.000000" y2="24.000000"  style="stroke:black; stroke-linecap:round; stroke-width:0.25;"/>
<line x1="60.000000" y1="24.000000" x2="60.000000" y2="32.000000"  style="stroke:black; stroke-linecap:round; stroke-width:0.25;"/>
<line x1="60.000000" y1="32.000000" x2="60.000000" y2="32.000000"  style="stroke:black; stroke-linecap:round; stroke-width:0.25;"/>
<line x1="60.000000" y1="32.000000" x2="103.350000" y2="32.000000"  style="stroke:black; stroke-linecap:round; stroke-width:0.25;"/>
<line x1="95.350000" y1="52.000000" x2="99.350000" y2="52.000000"  style="stroke:black; stroke-linecap:round; stroke-width:0.25;"/>
<line x1="99.350000" y1="52.000000" x2="106.700000" y2="52.000000"  style="stroke:black; stroke-linecap:round; stroke-width:0.25;"/>
<line x1="102.700000" y1="84.000000" x2="106.700000" y2="84.000000"  style="stroke:black; stroke-linecap:round; stroke-width:0.25;"/>
<line x1="103.350000" y1="32.000000" x2="146.700000" y2="32.000000"  style="stroke:black; stroke-linecap:round; stroke-width:0.25;"/>
<line x1="106.700000" y1="52.000000" x2="114.700000" y2="52.000000"  style="stroke:black; stroke-linecap:round; stroke-width:0.25;"/>
<line x1="106.700000" y1="72.000000" x2="114.700000" y2="72.000000"  style="stroke:black; stroke-linecap:round; stroke-width:0.25;"/>
<line x1="106.700000" y1="84.000000" x2="106.700000" y2="72.000000"  style="stroke:black; stroke-linecap:round; stroke-width:0.25;"/>
<line x1="106.700000" y1="84.000000" x2="106.700000" y2="84.000000"  style="stroke:black; stroke-linecap:round; stroke-width:0.25;"/>
<line x1="114.700000" y1="52.000000" x2="114.700000" y2="64.000000"  style="stroke:black; stroke-linecap:round; stroke-width:0.25;"/>
<line x1="114.700000" y1="64.000000" x2="114.700000" y2="64.000000"  style="stroke:black; stroke-linecap:round; stroke-width:0.25;"/>
<line x1="114.700000" y1="64.000000" x2="118.700000" y2="64.000000"  style="stroke:black; stroke-linecap:round; stroke-width:0.25;"/>
<line x1="114.700000" y1="72.000000" x2="118.700000" y2="72.000000"  style="stroke:black; stroke-linecap:round; stroke-width:0.25;"/>
<line x1="115.350000" y1="116.000000" x2="119.350000" y2="116.000000"  style="stroke:black; stroke-linecap:round; stroke-width:0.25;"/>
<line x1="119.350000" y1="116.000000" x2="126.700000" y2="116.000000"  style="stroke:black; stroke-linecap:round; stroke-width:0.25;"/>
<line x1="122.700000" y1="148.000000" x2="126.700000" y2="148.000000"  style="stroke:black; stroke-linecap:round; stroke-width:0.25;"/>
<line x1="126.700000" y1="116.000000" x2="134.700000" y2="116.000000"  style="stroke:black; stroke-linecap:round; stroke-width:0.25;"/>
<line x1="126.700000" y1="136.000000" x2="134.700000" y2="136.000000"  style="stroke:black; stroke-linecap:round; stroke-width:0.25;"/>
<line x1="126.700000" y1="148.000000" x2="126.700000" y2="136.000000"  style="stroke:black; stroke-linecap:round; stroke-width:0.25;"/>
<line x1="126.700000" y1="148.000000" x2="126.700000" y2="148.000000"  style="stroke:black; stroke-linecap:round; stroke-width:0.25;"/>
<line x1="134.700000" y1="116.000000" x2="134.700000" y2="128.000000"  style="stroke:black; stroke-linecap:round; stroke-width:0.25;"/>
<line x1="134.700000" y1="128.000000" x2="134.700000" y2="128.000000"  style="stroke:black; stroke-linecap:round; stroke-width:0.25;"/>
<line x1="134.700000" y1="128.000000" x2="138.700000" y2="128.000000"  style="stroke:black; stroke-linecap:round; stroke-width:0.25;"/>
<line x1="134.700000" y1="136.000000" x2="138.700000" y2="136.000000"  style="stroke:black; stroke-linecap:round; stroke-width:0.25;"/>
<line x1="142.700000" y1="68.000000" x2="146.700000" y2="68.000000"  style="stroke:black; stroke-linecap:round; stroke-width:0.25;"/>
<line x1="143.350000" y1="24.000000" x2="60.000000" y2="24.000000"  style="stroke:black; stroke-linecap:round; stroke-width:0.25;"/>
<line x1="146.700000" y1="32.000000" x2="154.700000" y2="32.000000"  style="stroke:black; stroke-linecap:round; stroke-width:0.25;"/>
<line x1="146.700000" y1="68.000000" x2="154.700000" y2="68.000000"  style="stroke:black; stroke-linecap:round; stroke-width:0.25;"/>
<line x1="154.700000" y1="32.000000" x2="154.700000" y2="60.000000"  style="stroke:black; stroke-linecap:round; stroke-width:0.25;"/>
<line x1="154.700000" y1="60.000000" x2="154.700000" y2="60.000000"  style="stroke:black; stroke-linecap:round; stroke-width:0.25;"/>
<line x1="154.700000" y1="60.000000" x2="158.700000" y2="60.000000"  style="stroke:black; stroke-linecap:round; stroke-width:0.25;"/>
<line x1="154.700000" y1="68.000000" x2="158.700000" y2="68.000000"  style="stroke:black; stroke-linecap:round; stroke-width:0.25;"/>
<line x1="162.700000" y1="132.000000" x2="166.700000" y2="132.000000"  style="stroke:black; stroke-linecap:round; stroke-width:0.25;"/>
<line x1="166.700000" y1="132.000000" x2="186.700000" y2="132.000000"  style="stroke:black; stroke-linecap:round; stroke-width:0.25;"/>
<line x1="182.700000" y1="64.000000" x2="186.700000" y2="64.000000"  style="stroke:black; stroke-linecap:round; stroke-width:0.25;"/>
<line x1="186.700000" y1="64.000000" x2="194.700000" y2="64.000000"  style="stroke:black; stroke-linecap:round; stroke-width:0.25;"/>
<line x1="186.700000" y1="100.000000" x2="194.700000" y2="100.000000"  style="stroke:black; stroke-linecap:round; stroke-width:0.25;"/>
<line x1="186.700000" y1="132.000000" x2="186.700000" y2="100.000000"  style="stroke:black; stroke-linecap:round; stroke-width:0.25;"/>
<line x1="186.700000" y1="132.000000" x2="186.700000" y2="132.000000"  style="stroke:black; stroke-linecap:round; stroke-width:0.25;"/>
<line x1="194.700000" y1="64.000000" x2="194.700000" y2="92.000000"  style="stroke:black; stroke-linecap:round; stroke-width:0.25;"/>
<line x1="194.700000" y1="92.000000" x2="194.700000" y2="92.000000"  style="stroke:black; stroke-linecap:round; stroke-width:0.25;"/>
<line x1="194.700000" y1="92.000000" x2="198.700000" y2="92.000000"  style="stroke:black; stroke-linecap:round; stroke-width:0.25;"/>
<line x1="194.700000" y1="100.000000" x2="198.700000" y2="100.000000"  style="stroke:black; stroke-linecap:round; stroke-width:0.25;"/>
<line x1="222.700000" y1="96.000000" x2="226.700000" y2="96.000000"  style="stroke:black; stroke-linecap:round; stroke-width:0.25;"/>
<line x1="226.700000" y1="24.000000" x2="143.350000" y2="24.000000"  style="stroke:black; stroke-linecap:round; stroke-width:0.25;"/>
<line x1="226.700000" y1="24.000000" x2="226.700000" y2="24.000000"  style="stroke:black; stroke-linecap:round; stroke-width:0.25;"/>
<line x1="226.700000" y1="92.000000" x2="226.700000" y2="24.000000"  style="stroke:black; stroke-linecap:round; stroke-width:0.25;"/>
<line x1="226.700000" y1="96.000000" x2="228.700000" y2="96.000000"  style="stroke:black; stroke-linecap:round; stroke-width:0.25;"/>
<line x1="228.700000" y1="96.000000" x2="234.700000" y2="96.000000"  style="stroke:black; stroke-linecap:round; stroke-width:0.25;"/>
<line x1="234.700000" y1="96.000000" x2="244.700000" y2="96.000000"  style="stroke:black; stroke-linecap:round; stroke-width:0.25;"/>
</svg>
