<?xml version="1.0"?>
<svg xmlns="http://www.w3.org/2000/svg" xmlns:xlink="http://www.w3.org/1999/xlink" viewBox="0 0 126.700000 80.000000" width="63.350000mm" height="40.000000mm" version="1.1">
<defs>
   <filter id="filter" filterRes="18" x="0" y="0">
     <feGaussianBlur in="SourceGraphic" stdDeviation="1.55" result="blur"/>
     <feOffset in="blur" dx="3" dy="3"/>
   </filter>
</defs>
<a xlink:href="Bitcrushing-0x26d72a0.svg">
<rect x="1.000000" y="1.000000" width="125.700000" height="79.000000" rx="0.1" ry="0.1" style="stroke:none;fill:#aaaaaa;;filter:url(#filter);"/>
<rect x="0.000000" y="0.000000" width="125.700000" height="79.000000" rx="0" ry="0" style="stroke:none;fill:#ffffff;"/>
</a>
<text x="10.000000" y="7.000000" font-family="Arial" font-size="7"></text>
<a xlink:href="userinput-0x26d6680.svg">
<rect x="25.000000" y="33.000000" width="38.700000" height="24.000000" rx="0.1" ry="0.1" style="stroke:none;fill:#aaaaaa;;filter:url(#filter);"/>
<rect x="24.000000" y="32.000000" width="38.700000" height="24.000000" rx="0" ry="0" style="stroke:none;fill:#003366;"/>
</a>
<a xlink:href="userinput-0x26d6680.svg">
<text x="43.350000" y="46.000000" font-family="Arial" font-size="7" text-anchor="middle" fill="#FFFFFF">userinput</text>
</a>
<circle cx="26.000000" cy="34.000000" r="1"/>
<rect x="79.700000" y="29.000000" width="24.000000" height="24.000000" rx="0.1" ry="0.1" style="stroke:none;fill:#aaaaaa;;filter:url(#filter);"/>
<rect x="78.700000" y="28.000000" width="24.000000" height="24.000000" rx="0" ry="0" style="stroke:none;fill:#4B71A1;"/>
<text x="90.700000" y="42.000000" font-family="Arial" font-size="7" text-anchor="middle" fill="#FFFFFF">/</text>
<circle cx="80.700000" cy="30.000000" r="1"/>
<line x1="75.700000" y1="35.000000" x2="78.700000" y2="36.000000"  transform="rotate(0.000000,78.700000,36.000000)" style="stroke: black; stroke-width:0.25;"/>
<line x1="75.700000" y1="37.000000" x2="78.700000" y2="36.000000"  transform="rotate(0.000000,78.700000,36.000000)" style="stroke: black; stroke-width:0.25;"/>
<line x1="75.700000" y1="43.000000" x2="78.700000" y2="44.000000"  transform="rotate(0.000000,78.700000,44.000000)" style="stroke: black; stroke-width:0.25;"/>
<line x1="75.700000" y1="45.000000" x2="78.700000" y2="44.000000"  transform="rotate(0.000000,78.700000,44.000000)" style="stroke: black; stroke-width:0.25;"/>
<line x1="15.000000" y1="15.000000" x2="15.000000" y2="65.000000"  style="stroke: black; stroke-linecap:round; stroke-width:0.25; stroke-dasharray:3,3;"/>
<line x1="15.000000" y1="65.000000" x2="111.700000" y2="65.000000"  style="stroke: black; stroke-linecap:round; stroke-width:0.25; stroke-dasharray:3,3;"/>
<line x1="111.700000" y1="65.000000" x2="111.700000" y2="15.000000"  style="stroke: black; stroke-linecap:round; stroke-width:0.25; stroke-dasharray:3,3;"/>
<line x1="15.000000" y1="15.000000" x2="20.000000" y2="15.000000"  style="stroke: black; stroke-linecap:round; stroke-width:0.25; stroke-dasharray:3,3;"/>
<line x1="39.350000" y1="15.000000" x2="111.700000" y2="15.000000"  style="stroke: black; stroke-linecap:round; stroke-width:0.25; stroke-dasharray:3,3;"/>
<text x="20.000000" y="17.000000" font-family="Arial" font-size="7">user</text>
<line x1="113.700000" y1="39.000000" x2="116.700000" y2="40.000000"  transform="rotate(0.000000,116.700000,40.000000)" style="stroke: black; stroke-width:0.25;"/>
<line x1="113.700000" y1="41.000000" x2="116.700000" y2="40.000000"  transform="rotate(0.000000,116.700000,40.000000)" style="stroke: black; stroke-width:0.25;"/>
<line x1="10.000000" y1="24.000000" x2="20.000000" y2="24.000000"  style="stroke:black; stroke-linecap:round; stroke-width:0.25;"/>
<line x1="20.000000" y1="24.000000" x2="43.350000" y2="24.000000"  style="stroke:black; stroke-linecap:round; stroke-width:0.25;"/>
<line x1="43.350000" y1="24.000000" x2="66.700000" y2="24.000000"  style="stroke:black; stroke-linecap:round; stroke-width:0.25;"/>
<line x1="62.700000" y1="44.000000" x2="66.700000" y2="44.000000"  style="stroke:black; stroke-linecap:round; stroke-width:0.25;"/>
<line x1="66.700000" y1="24.000000" x2="74.700000" y2="24.000000"  style="stroke:black; stroke-linecap:round; stroke-width:0.25;"/>
<line x1="66.700000" y1="44.000000" x2="74.700000" y2="44.000000"  style="stroke:black; stroke-linecap:round; stroke-width:0.25;"/>
<line x1="74.700000" y1="24.000000" x2="74.700000" y2="36.000000"  style="stroke:black; stroke-linecap:round; stroke-width:0.25;"/>
<line x1="74.700000" y1="36.000000" x2="74.700000" y2="36.000000"  style="stroke:black; stroke-linecap:round; stroke-width:0.25;"/>
<line x1="74.700000" y1="36.000000" x2="78.700000" y2="36.000000"  style="stroke:black; stroke-linecap:round; stroke-width:0.25;"/>
<line x1="74.700000" y1="44.000000" x2="78.700000" y2="44.000000"  style="stroke:black; stroke-linecap:round; stroke-width:0.25;"/>
<line x1="102.700000" y1="40.000000" x2="106.700000" y2="40.000000"  style="stroke:black; stroke-linecap:round; stroke-width:0.25;"/>
<line x1="106.700000" y1="40.000000" x2="116.700000" y2="40.000000"  style="stroke:black; stroke-linecap:round; stroke-width:0.25;"/>
</svg>
