<?xml version="1.0"?>
<svg xmlns="http://www.w3.org/2000/svg" xmlns:xlink="http://www.w3.org/1999/xlink" viewBox="0 0 256.500000 112.000000" width="128.250000mm" height="56.000000mm" version="1.1">
<defs>
   <filter id="filter" filterRes="18" x="0" y="0">
     <feGaussianBlur in="SourceGraphic" stdDeviation="1.55" result="blur"/>
     <feOffset in="blur" dx="3" dy="3"/>
   </filter>
</defs>
<a xlink:href="Febaroute2-0x1b2a110.svg">
<rect x="1.000000" y="1.000000" width="255.500000" height="111.000000" rx="0.1" ry="0.1" style="stroke:none;fill:#aaaaaa;;filter:url(#filter);"/>
<rect x="0.000000" y="0.000000" width="255.500000" height="111.000000" rx="0" ry="0" style="stroke:none;fill:#ffffff;"/>
</a>
<text x="10.000000" y="7.000000" font-family="Arial" font-size="7"></text>
<rect x="117.250000" y="65.000000" width="24.000000" height="24.000000" rx="0.1" ry="0.1" style="stroke:none;fill:#aaaaaa;;filter:url(#filter);"/>
<rect x="116.250000" y="64.000000" width="24.000000" height="24.000000" rx="0" ry="0" style="stroke:none;fill:#4B71A1;"/>
<text x="128.250000" y="78.000000" font-family="Arial" font-size="7" text-anchor="middle" fill="#FFFFFF">+</text>
<circle cx="118.250000" cy="66.000000" r="1"/>
<line x1="113.250000" y1="71.000000" x2="116.250000" y2="72.000000"  transform="rotate(0.000000,116.250000,72.000000)" style="stroke: black; stroke-width:0.25;"/>
<line x1="113.250000" y1="73.000000" x2="116.250000" y2="72.000000"  transform="rotate(0.000000,116.250000,72.000000)" style="stroke: black; stroke-width:0.25;"/>
<line x1="113.250000" y1="79.000000" x2="116.250000" y2="80.000000"  transform="rotate(0.000000,116.250000,80.000000)" style="stroke: black; stroke-width:0.25;"/>
<line x1="113.250000" y1="81.000000" x2="116.250000" y2="80.000000"  transform="rotate(0.000000,116.250000,80.000000)" style="stroke: black; stroke-width:0.25;"/>
<rect x="199.700000" y="25.000000" width="25.800000" height="24.000000" rx="0.1" ry="0.1" style="stroke:none;fill:#aaaaaa;;filter:url(#filter);"/>
<rect x="198.700000" y="24.000000" width="25.800000" height="24.000000" rx="0" ry="0" style="stroke:none;fill:#f44800;"/>
<text x="211.600000" y="38.000000" font-family="Arial" font-size="7" text-anchor="middle" fill="#FFFFFF">1317</text>
<circle cx="222.500000" cy="46.000000" r="1"/>
<rect x="167.700000" y="25.000000" width="24.000000" height="24.000000" rx="0.1" ry="0.1" style="stroke:none;fill:#aaaaaa;;filter:url(#filter);"/>
<rect x="166.700000" y="24.000000" width="24.000000" height="24.000000" rx="0" ry="0" style="stroke:none;fill:#4B71A1;"/>
<text x="178.700000" y="38.000000" font-family="Arial" font-size="7" text-anchor="middle" fill="#FFFFFF">int</text>
<circle cx="188.700000" cy="46.000000" r="1"/>
<line x1="193.700000" y1="35.000000" x2="190.700000" y2="36.000000"  transform="rotate(0.000000,190.700000,36.000000)" style="stroke: black; stroke-width:0.25;"/>
<line x1="193.700000" y1="37.000000" x2="190.700000" y2="36.000000"  transform="rotate(0.000000,190.700000,36.000000)" style="stroke: black; stroke-width:0.25;"/>
<rect x="127.700000" y="29.000000" width="24.000000" height="24.000000" rx="0.1" ry="0.1" style="stroke:none;fill:#aaaaaa;;filter:url(#filter);"/>
<rect x="126.700000" y="28.000000" width="24.000000" height="24.000000" rx="0" ry="0" style="stroke:none;fill:#4B71A1;"/>
<text x="138.700000" y="42.000000" font-family="Arial" font-size="7" text-anchor="middle" fill="#FFFFFF">@</text>
<circle cx="148.700000" cy="50.000000" r="1"/>
<line x1="153.700000" y1="43.000000" x2="150.700000" y2="44.000000"  transform="rotate(0.000000,150.700000,44.000000)" style="stroke: black; stroke-width:0.25;"/>
<line x1="153.700000" y1="45.000000" x2="150.700000" y2="44.000000"  transform="rotate(0.000000,150.700000,44.000000)" style="stroke: black; stroke-width:0.25;"/>
<line x1="153.700000" y1="35.000000" x2="150.700000" y2="36.000000"  transform="rotate(0.000000,150.700000,36.000000)" style="stroke: black; stroke-width:0.25;"/>
<line x1="153.700000" y1="37.000000" x2="150.700000" y2="36.000000"  transform="rotate(0.000000,150.700000,36.000000)" style="stroke: black; stroke-width:0.25;"/>
<a xlink:href="UserFeBa-0x1ae4150.svg">
<rect x="73.000000" y="25.000000" width="38.700000" height="24.000000" rx="0.1" ry="0.1" style="stroke:none;fill:#aaaaaa;;filter:url(#filter);"/>
<rect x="72.000000" y="24.000000" width="38.700000" height="24.000000" rx="0" ry="0" style="stroke:none;fill:#003366;"/>
</a>
<a xlink:href="UserFeBa-0x1ae4150.svg">
<text x="91.350000" y="38.000000" font-family="Arial" font-size="7" text-anchor="middle" fill="#FFFFFF">UserFeBa</text>
</a>
<circle cx="108.700000" cy="46.000000" r="1"/>
<rect x="33.000000" y="29.000000" width="24.000000" height="24.000000" rx="0.1" ry="0.1" style="stroke:none;fill:#aaaaaa;;filter:url(#filter);"/>
<rect x="32.000000" y="28.000000" width="24.000000" height="24.000000" rx="0" ry="0" style="stroke:none;fill:#4B71A1;"/>
<text x="44.000000" y="42.000000" font-family="Arial" font-size="7" text-anchor="middle" fill="#FFFFFF">*</text>
<circle cx="54.000000" cy="50.000000" r="1"/>
<line x1="59.000000" y1="43.000000" x2="56.000000" y2="44.000000"  transform="rotate(0.000000,56.000000,44.000000)" style="stroke: black; stroke-width:0.25;"/>
<line x1="59.000000" y1="45.000000" x2="56.000000" y2="44.000000"  transform="rotate(0.000000,56.000000,44.000000)" style="stroke: black; stroke-width:0.25;"/>
<line x1="59.000000" y1="35.000000" x2="56.000000" y2="36.000000"  transform="rotate(0.000000,56.000000,36.000000)" style="stroke: black; stroke-width:0.25;"/>
<line x1="59.000000" y1="37.000000" x2="56.000000" y2="36.000000"  transform="rotate(0.000000,56.000000,36.000000)" style="stroke: black; stroke-width:0.25;"/>
<line x1="226.500000" y1="76.000000" x2="226.500000" y2="72.000000"  style="stroke:black; stroke-linecap:round; stroke-width:0.25;"/>
<line x1="226.500000" y1="72.000000" x2="230.500000" y2="72.000000"  style="stroke:black; stroke-linecap:round; stroke-width:0.25;"/>
<line x1="230.500000" y1="72.000000" x2="230.500000" y2="76.000000"  style="stroke:black; stroke-linecap:round; stroke-width:0.25;"/>
<line x1="15.000000" y1="15.000000" x2="15.000000" y2="97.000000"  style="stroke: black; stroke-linecap:round; stroke-width:0.25; stroke-dasharray:3,3;"/>
<line x1="15.000000" y1="97.000000" x2="241.500000" y2="97.000000"  style="stroke: black; stroke-linecap:round; stroke-width:0.25; stroke-dasharray:3,3;"/>
<line x1="241.500000" y1="97.000000" x2="241.500000" y2="15.000000"  style="stroke: black; stroke-linecap:round; stroke-width:0.25; stroke-dasharray:3,3;"/>
<line x1="15.000000" y1="15.000000" x2="20.000000" y2="15.000000"  style="stroke: black; stroke-linecap:round; stroke-width:0.25; stroke-dasharray:3,3;"/>
<line x1="71.600000" y1="15.000000" x2="241.500000" y2="15.000000"  style="stroke: black; stroke-linecap:round; stroke-width:0.25; stroke-dasharray:3,3;"/>
<text x="20.000000" y="17.000000" font-family="Arial" font-size="7">delline1(1317)</text>
<line x1="243.500000" y1="75.000000" x2="246.500000" y2="76.000000"  transform="rotate(0.000000,246.500000,76.000000)" style="stroke: black; stroke-width:0.25;"/>
<line x1="243.500000" y1="77.000000" x2="246.500000" y2="76.000000"  transform="rotate(0.000000,246.500000,76.000000)" style="stroke: black; stroke-width:0.25;"/>
<line x1="10.000000" y1="80.000000" x2="20.000000" y2="80.000000"  style="stroke:black; stroke-linecap:round; stroke-width:0.25;"/>
<line x1="20.000000" y1="80.000000" x2="28.000000" y2="80.000000"  style="stroke:black; stroke-linecap:round; stroke-width:0.25;"/>
<line x1="28.000000" y1="40.000000" x2="28.000000" y2="40.000000"  style="stroke:black; stroke-linecap:round; stroke-width:0.25;"/>
<line x1="28.000000" y1="40.000000" x2="28.000000" y2="72.000000"  style="stroke:black; stroke-linecap:round; stroke-width:0.25;"/>
<line x1="28.000000" y1="72.000000" x2="28.000000" y2="72.000000"  style="stroke:black; stroke-linecap:round; stroke-width:0.25;"/>
<line x1="28.000000" y1="72.000000" x2="112.250000" y2="72.000000"  style="stroke:black; stroke-linecap:round; stroke-width:0.25;"/>
<line x1="28.000000" y1="80.000000" x2="112.250000" y2="80.000000"  style="stroke:black; stroke-linecap:round; stroke-width:0.25;"/>
<line x1="32.000000" y1="40.000000" x2="28.000000" y2="40.000000"  style="stroke:black; stroke-linecap:round; stroke-width:0.25;"/>
<line x1="60.000000" y1="36.000000" x2="56.000000" y2="36.000000"  style="stroke:black; stroke-linecap:round; stroke-width:0.25;"/>
<line x1="60.000000" y1="44.000000" x2="56.000000" y2="44.000000"  style="stroke:black; stroke-linecap:round; stroke-width:0.25;"/>
<line x1="60.000000" y1="44.000000" x2="60.000000" y2="44.000000"  style="stroke:black; stroke-linecap:round; stroke-width:0.25;"/>
<line x1="60.000000" y1="56.000000" x2="60.000000" y2="44.000000"  style="stroke:black; stroke-linecap:round; stroke-width:0.25;"/>
<line x1="68.000000" y1="36.000000" x2="60.000000" y2="36.000000"  style="stroke:black; stroke-linecap:round; stroke-width:0.25;"/>
<line x1="68.000000" y1="56.000000" x2="60.000000" y2="56.000000"  style="stroke:black; stroke-linecap:round; stroke-width:0.25;"/>
<line x1="72.000000" y1="36.000000" x2="68.000000" y2="36.000000"  style="stroke:black; stroke-linecap:round; stroke-width:0.25;"/>
<line x1="91.350000" y1="56.000000" x2="68.000000" y2="56.000000"  style="stroke:black; stroke-linecap:round; stroke-width:0.25;"/>
<line x1="112.250000" y1="72.000000" x2="112.250000" y2="72.000000"  style="stroke:black; stroke-linecap:round; stroke-width:0.25;"/>
<line x1="112.250000" y1="72.000000" x2="116.250000" y2="72.000000"  style="stroke:black; stroke-linecap:round; stroke-width:0.25;"/>
<line x1="112.250000" y1="80.000000" x2="112.250000" y2="80.000000"  style="stroke:black; stroke-linecap:round; stroke-width:0.25;"/>
<line x1="112.250000" y1="80.000000" x2="116.250000" y2="80.000000"  style="stroke:black; stroke-linecap:round; stroke-width:0.25;"/>
<line x1="114.700000" y1="56.000000" x2="91.350000" y2="56.000000"  style="stroke:black; stroke-linecap:round; stroke-width:0.25;"/>
<line x1="122.700000" y1="40.000000" x2="122.700000" y2="40.000000"  style="stroke:black; stroke-linecap:round; stroke-width:0.25;"/>
<line x1="122.700000" y1="40.000000" x2="122.700000" y2="56.000000"  style="stroke:black; stroke-linecap:round; stroke-width:0.25;"/>
<line x1="122.700000" y1="56.000000" x2="114.700000" y2="56.000000"  style="stroke:black; stroke-linecap:round; stroke-width:0.25;"/>
<line x1="126.700000" y1="40.000000" x2="122.700000" y2="40.000000"  style="stroke:black; stroke-linecap:round; stroke-width:0.25;"/>
<line x1="140.250000" y1="76.000000" x2="144.250000" y2="76.000000"  style="stroke:black; stroke-linecap:round; stroke-width:0.25;"/>
<line x1="144.250000" y1="76.000000" x2="228.500000" y2="76.000000"  style="stroke:black; stroke-linecap:round; stroke-width:0.25;"/>
<line x1="154.700000" y1="36.000000" x2="150.700000" y2="36.000000"  style="stroke:black; stroke-linecap:round; stroke-width:0.25;"/>
<line x1="154.700000" y1="44.000000" x2="150.700000" y2="44.000000"  style="stroke:black; stroke-linecap:round; stroke-width:0.25;"/>
<line x1="154.700000" y1="44.000000" x2="154.700000" y2="44.000000"  style="stroke:black; stroke-linecap:round; stroke-width:0.25;"/>
<line x1="154.700000" y1="56.000000" x2="154.700000" y2="44.000000"  style="stroke:black; stroke-linecap:round; stroke-width:0.25;"/>
<line x1="162.700000" y1="36.000000" x2="154.700000" y2="36.000000"  style="stroke:black; stroke-linecap:round; stroke-width:0.25;"/>
<line x1="162.700000" y1="56.000000" x2="154.700000" y2="56.000000"  style="stroke:black; stroke-linecap:round; stroke-width:0.25;"/>
<line x1="166.700000" y1="36.000000" x2="162.700000" y2="36.000000"  style="stroke:black; stroke-linecap:round; stroke-width:0.25;"/>
<line x1="194.700000" y1="36.000000" x2="190.700000" y2="36.000000"  style="stroke:black; stroke-linecap:round; stroke-width:0.25;"/>
<line x1="194.700000" y1="36.000000" x2="194.700000" y2="36.000000"  style="stroke:black; stroke-linecap:round; stroke-width:0.25;"/>
<line x1="195.600000" y1="56.000000" x2="162.700000" y2="56.000000"  style="stroke:black; stroke-linecap:round; stroke-width:0.25;"/>
<line x1="198.700000" y1="36.000000" x2="194.700000" y2="36.000000"  style="stroke:black; stroke-linecap:round; stroke-width:0.25;"/>
<line x1="228.500000" y1="56.000000" x2="195.600000" y2="56.000000"  style="stroke:black; stroke-linecap:round; stroke-width:0.25;"/>
<line x1="228.500000" y1="56.000000" x2="228.500000" y2="56.000000"  style="stroke:black; stroke-linecap:round; stroke-width:0.25;"/>
<line x1="228.500000" y1="72.000000" x2="228.500000" y2="56.000000"  style="stroke:black; stroke-linecap:round; stroke-width:0.25;"/>
<line x1="228.500000" y1="76.000000" x2="230.500000" y2="76.000000"  style="stroke:black; stroke-linecap:round; stroke-width:0.25;"/>
<line x1="230.500000" y1="76.000000" x2="236.500000" y2="76.000000"  style="stroke:black; stroke-linecap:round; stroke-width:0.25;"/>
<line x1="236.500000" y1="76.000000" x2="246.500000" y2="76.000000"  style="stroke:black; stroke-linecap:round; stroke-width:0.25;"/>
</svg>
