<?xml version="1.0"?>
<svg xmlns="http://www.w3.org/2000/svg" xmlns:xlink="http://www.w3.org/1999/xlink" viewBox="0 0 748.900000 100.000000" width="374.450000mm" height="50.000000mm" version="1.1">
<defs>
   <filter id="filter" filterRes="18" x="0" y="0">
     <feGaussianBlur in="SourceGraphic" stdDeviation="1.55" result="blur"/>
     <feOffset in="blur" dx="3" dy="3"/>
   </filter>
</defs>
<a xlink:href="Febaroute2-0x30a1650.svg">
<rect x="1.000000" y="1.000000" width="747.900000" height="99.000000" rx="0.1" ry="0.1" style="stroke:none;fill:#aaaaaa;;filter:url(#filter);"/>
<rect x="0.000000" y="0.000000" width="747.900000" height="99.000000" rx="0" ry="0" style="stroke:none;fill:#ffffff;"/>
</a>
<text x="10.000000" y="7.000000" font-family="Arial" font-size="7"></text>
<rect x="35.000000" y="43.000000" width="24.000000" height="24.000000" rx="0.1" ry="0.1" style="stroke:none;fill:#aaaaaa;;filter:url(#filter);"/>
<rect x="34.000000" y="42.000000" width="24.000000" height="24.000000" rx="0" ry="0" style="stroke:none;fill:#f44800;"/>
<text x="46.000000" y="56.000000" font-family="Arial" font-size="7" text-anchor="middle" fill="#FFFFFF">0</text>
<circle cx="36.000000" cy="44.000000" r="1"/>
<line x1="25.000000" y1="33.000000" x2="25.000000" y2="75.000000"  style="stroke: black; stroke-linecap:round; stroke-width:0.25; stroke-dasharray:3,3;"/>
<line x1="25.000000" y1="75.000000" x2="67.000000" y2="75.000000"  style="stroke: black; stroke-linecap:round; stroke-width:0.25; stroke-dasharray:3,3;"/>
<line x1="67.000000" y1="75.000000" x2="67.000000" y2="33.000000"  style="stroke: black; stroke-linecap:round; stroke-width:0.25; stroke-dasharray:3,3;"/>
<line x1="25.000000" y1="33.000000" x2="30.000000" y2="33.000000"  style="stroke: black; stroke-linecap:round; stroke-width:0.25; stroke-dasharray:3,3;"/>
<line x1="39.675000" y1="33.000000" x2="67.000000" y2="33.000000"  style="stroke: black; stroke-linecap:round; stroke-width:0.25; stroke-dasharray:3,3;"/>
<text x="30.000000" y="35.000000" font-family="Arial" font-size="7">A</text>
<a xlink:href="Del-0x30a0b60.svg">
<rect x="85.000000" y="39.000000" width="25.800000" height="24.000000" rx="0.1" ry="0.1" style="stroke:none;fill:#aaaaaa;;filter:url(#filter);"/>
<rect x="84.000000" y="38.000000" width="25.800000" height="24.000000" rx="0" ry="0" style="stroke:none;fill:#003366;"/>
</a>
<a xlink:href="Del-0x30a0b60.svg">
<text x="96.900000" y="52.000000" font-family="Arial" font-size="7" text-anchor="middle" fill="#FFFFFF">Del(1)</text>
</a>
<circle cx="86.000000" cy="40.000000" r="1"/>
<line x1="81.000000" y1="45.000000" x2="84.000000" y2="46.000000"  transform="rotate(0.000000,84.000000,46.000000)" style="stroke: black; stroke-width:0.25;"/>
<line x1="81.000000" y1="47.000000" x2="84.000000" y2="46.000000"  transform="rotate(0.000000,84.000000,46.000000)" style="stroke: black; stroke-width:0.25;"/>
<line x1="81.000000" y1="53.000000" x2="84.000000" y2="54.000000"  transform="rotate(0.000000,84.000000,54.000000)" style="stroke: black; stroke-width:0.25;"/>
<line x1="81.000000" y1="55.000000" x2="84.000000" y2="54.000000"  transform="rotate(0.000000,84.000000,54.000000)" style="stroke: black; stroke-width:0.25;"/>
<a xlink:href="Del-0x309eb50.svg">
<rect x="118.800000" y="39.000000" width="25.800000" height="24.000000" rx="0.1" ry="0.1" style="stroke:none;fill:#aaaaaa;;filter:url(#filter);"/>
<rect x="117.800000" y="38.000000" width="25.800000" height="24.000000" rx="0" ry="0" style="stroke:none;fill:#003366;"/>
</a>
<a xlink:href="Del-0x309eb50.svg">
<text x="130.700000" y="52.000000" font-family="Arial" font-size="7" text-anchor="middle" fill="#FFFFFF">Del(2)</text>
</a>
<circle cx="119.800000" cy="40.000000" r="1"/>
<line x1="114.800000" y1="45.000000" x2="117.800000" y2="46.000000"  transform="rotate(0.000000,117.800000,46.000000)" style="stroke: black; stroke-width:0.25;"/>
<line x1="114.800000" y1="47.000000" x2="117.800000" y2="46.000000"  transform="rotate(0.000000,117.800000,46.000000)" style="stroke: black; stroke-width:0.25;"/>
<line x1="114.800000" y1="53.000000" x2="117.800000" y2="54.000000"  transform="rotate(0.000000,117.800000,54.000000)" style="stroke: black; stroke-width:0.25;"/>
<line x1="114.800000" y1="55.000000" x2="117.800000" y2="54.000000"  transform="rotate(0.000000,117.800000,54.000000)" style="stroke: black; stroke-width:0.25;"/>
<a xlink:href="Del-0x309ca20.svg">
<rect x="152.600000" y="39.000000" width="25.800000" height="24.000000" rx="0.1" ry="0.1" style="stroke:none;fill:#aaaaaa;;filter:url(#filter);"/>
<rect x="151.600000" y="38.000000" width="25.800000" height="24.000000" rx="0" ry="0" style="stroke:none;fill:#003366;"/>
</a>
<a xlink:href="Del-0x309ca20.svg">
<text x="164.500000" y="52.000000" font-family="Arial" font-size="7" text-anchor="middle" fill="#FFFFFF">Del(5)</text>
</a>
<circle cx="153.600000" cy="40.000000" r="1"/>
<line x1="148.600000" y1="45.000000" x2="151.600000" y2="46.000000"  transform="rotate(0.000000,151.600000,46.000000)" style="stroke: black; stroke-width:0.25;"/>
<line x1="148.600000" y1="47.000000" x2="151.600000" y2="46.000000"  transform="rotate(0.000000,151.600000,46.000000)" style="stroke: black; stroke-width:0.25;"/>
<line x1="148.600000" y1="53.000000" x2="151.600000" y2="54.000000"  transform="rotate(0.000000,151.600000,54.000000)" style="stroke: black; stroke-width:0.25;"/>
<line x1="148.600000" y1="55.000000" x2="151.600000" y2="54.000000"  transform="rotate(0.000000,151.600000,54.000000)" style="stroke: black; stroke-width:0.25;"/>
<a xlink:href="Del-0x309a9d0.svg">
<rect x="186.400000" y="39.000000" width="25.800000" height="24.000000" rx="0.1" ry="0.1" style="stroke:none;fill:#aaaaaa;;filter:url(#filter);"/>
<rect x="185.400000" y="38.000000" width="25.800000" height="24.000000" rx="0" ry="0" style="stroke:none;fill:#003366;"/>
</a>
<a xlink:href="Del-0x309a9d0.svg">
<text x="198.300000" y="52.000000" font-family="Arial" font-size="7" text-anchor="middle" fill="#FFFFFF">Del(7)</text>
</a>
<circle cx="187.400000" cy="40.000000" r="1"/>
<line x1="182.400000" y1="45.000000" x2="185.400000" y2="46.000000"  transform="rotate(0.000000,185.400000,46.000000)" style="stroke: black; stroke-width:0.25;"/>
<line x1="182.400000" y1="47.000000" x2="185.400000" y2="46.000000"  transform="rotate(0.000000,185.400000,46.000000)" style="stroke: black; stroke-width:0.25;"/>
<line x1="182.400000" y1="53.000000" x2="185.400000" y2="54.000000"  transform="rotate(0.000000,185.400000,54.000000)" style="stroke: black; stroke-width:0.25;"/>
<line x1="182.400000" y1="55.000000" x2="185.400000" y2="54.000000"  transform="rotate(0.000000,185.400000,54.000000)" style="stroke: black; stroke-width:0.25;"/>
<a xlink:href="Del-0x30989c0.svg">
<rect x="220.200000" y="39.000000" width="38.700000" height="24.000000" rx="0.1" ry="0.1" style="stroke:none;fill:#aaaaaa;;filter:url(#filter);"/>
<rect x="219.200000" y="38.000000" width="38.700000" height="24.000000" rx="0" ry="0" style="stroke:none;fill:#003366;"/>
</a>
<a xlink:href="Del-0x30989c0.svg">
<text x="238.550000" y="52.000000" font-family="Arial" font-size="7" text-anchor="middle" fill="#FFFFFF">Del(23)</text>
</a>
<circle cx="221.200000" cy="40.000000" r="1"/>
<line x1="216.200000" y1="45.000000" x2="219.200000" y2="46.000000"  transform="rotate(0.000000,219.200000,46.000000)" style="stroke: black; stroke-width:0.25;"/>
<line x1="216.200000" y1="47.000000" x2="219.200000" y2="46.000000"  transform="rotate(0.000000,219.200000,46.000000)" style="stroke: black; stroke-width:0.25;"/>
<line x1="216.200000" y1="53.000000" x2="219.200000" y2="54.000000"  transform="rotate(0.000000,219.200000,54.000000)" style="stroke: black; stroke-width:0.25;"/>
<line x1="216.200000" y1="55.000000" x2="219.200000" y2="54.000000"  transform="rotate(0.000000,219.200000,54.000000)" style="stroke: black; stroke-width:0.25;"/>
<a xlink:href="Del-0x3096890.svg">
<rect x="266.900000" y="39.000000" width="38.700000" height="24.000000" rx="0.1" ry="0.1" style="stroke:none;fill:#aaaaaa;;filter:url(#filter);"/>
<rect x="265.900000" y="38.000000" width="38.700000" height="24.000000" rx="0" ry="0" style="stroke:none;fill:#003366;"/>
</a>
<a xlink:href="Del-0x3096890.svg">
<text x="285.250000" y="52.000000" font-family="Arial" font-size="7" text-anchor="middle" fill="#FFFFFF">Del(54)</text>
</a>
<circle cx="267.900000" cy="40.000000" r="1"/>
<line x1="262.900000" y1="45.000000" x2="265.900000" y2="46.000000"  transform="rotate(0.000000,265.900000,46.000000)" style="stroke: black; stroke-width:0.25;"/>
<line x1="262.900000" y1="47.000000" x2="265.900000" y2="46.000000"  transform="rotate(0.000000,265.900000,46.000000)" style="stroke: black; stroke-width:0.25;"/>
<line x1="262.900000" y1="53.000000" x2="265.900000" y2="54.000000"  transform="rotate(0.000000,265.900000,54.000000)" style="stroke: black; stroke-width:0.25;"/>
<line x1="262.900000" y1="55.000000" x2="265.900000" y2="54.000000"  transform="rotate(0.000000,265.900000,54.000000)" style="stroke: black; stroke-width:0.25;"/>
<a xlink:href="Del-0x3094760.svg">
<rect x="313.600000" y="39.000000" width="38.700000" height="24.000000" rx="0.1" ry="0.1" style="stroke:none;fill:#aaaaaa;;filter:url(#filter);"/>
<rect x="312.600000" y="38.000000" width="38.700000" height="24.000000" rx="0" ry="0" style="stroke:none;fill:#003366;"/>
</a>
<a xlink:href="Del-0x3094760.svg">
<text x="331.950000" y="52.000000" font-family="Arial" font-size="7" text-anchor="middle" fill="#FFFFFF">Del(79)</text>
</a>
<circle cx="314.600000" cy="40.000000" r="1"/>
<line x1="309.600000" y1="45.000000" x2="312.600000" y2="46.000000"  transform="rotate(0.000000,312.600000,46.000000)" style="stroke: black; stroke-width:0.25;"/>
<line x1="309.600000" y1="47.000000" x2="312.600000" y2="46.000000"  transform="rotate(0.000000,312.600000,46.000000)" style="stroke: black; stroke-width:0.25;"/>
<line x1="309.600000" y1="53.000000" x2="312.600000" y2="54.000000"  transform="rotate(0.000000,312.600000,54.000000)" style="stroke: black; stroke-width:0.25;"/>
<line x1="309.600000" y1="55.000000" x2="312.600000" y2="54.000000"  transform="rotate(0.000000,312.600000,54.000000)" style="stroke: black; stroke-width:0.25;"/>
<a xlink:href="Del-0x3092660.svg">
<rect x="360.300000" y="39.000000" width="38.700000" height="24.000000" rx="0.1" ry="0.1" style="stroke:none;fill:#aaaaaa;;filter:url(#filter);"/>
<rect x="359.300000" y="38.000000" width="38.700000" height="24.000000" rx="0" ry="0" style="stroke:none;fill:#003366;"/>
</a>
<a xlink:href="Del-0x3092660.svg">
<text x="378.650000" y="52.000000" font-family="Arial" font-size="7" text-anchor="middle" fill="#FFFFFF">Del(220)</text>
</a>
<circle cx="361.300000" cy="40.000000" r="1"/>
<line x1="356.300000" y1="45.000000" x2="359.300000" y2="46.000000"  transform="rotate(0.000000,359.300000,46.000000)" style="stroke: black; stroke-width:0.25;"/>
<line x1="356.300000" y1="47.000000" x2="359.300000" y2="46.000000"  transform="rotate(0.000000,359.300000,46.000000)" style="stroke: black; stroke-width:0.25;"/>
<line x1="356.300000" y1="53.000000" x2="359.300000" y2="54.000000"  transform="rotate(0.000000,359.300000,54.000000)" style="stroke: black; stroke-width:0.25;"/>
<line x1="356.300000" y1="55.000000" x2="359.300000" y2="54.000000"  transform="rotate(0.000000,359.300000,54.000000)" style="stroke: black; stroke-width:0.25;"/>
<a xlink:href="Del-0x3090540.svg">
<rect x="407.000000" y="39.000000" width="38.700000" height="24.000000" rx="0.1" ry="0.1" style="stroke:none;fill:#aaaaaa;;filter:url(#filter);"/>
<rect x="406.000000" y="38.000000" width="38.700000" height="24.000000" rx="0" ry="0" style="stroke:none;fill:#003366;"/>
</a>
<a xlink:href="Del-0x3090540.svg">
<text x="425.350000" y="52.000000" font-family="Arial" font-size="7" text-anchor="middle" fill="#FFFFFF">Del(340)</text>
</a>
<circle cx="408.000000" cy="40.000000" r="1"/>
<line x1="403.000000" y1="45.000000" x2="406.000000" y2="46.000000"  transform="rotate(0.000000,406.000000,46.000000)" style="stroke: black; stroke-width:0.25;"/>
<line x1="403.000000" y1="47.000000" x2="406.000000" y2="46.000000"  transform="rotate(0.000000,406.000000,46.000000)" style="stroke: black; stroke-width:0.25;"/>
<line x1="403.000000" y1="53.000000" x2="406.000000" y2="54.000000"  transform="rotate(0.000000,406.000000,54.000000)" style="stroke: black; stroke-width:0.25;"/>
<line x1="403.000000" y1="55.000000" x2="406.000000" y2="54.000000"  transform="rotate(0.000000,406.000000,54.000000)" style="stroke: black; stroke-width:0.25;"/>
<a xlink:href="Del-0x308e420.svg">
<rect x="453.700000" y="39.000000" width="38.700000" height="24.000000" rx="0.1" ry="0.1" style="stroke:none;fill:#aaaaaa;;filter:url(#filter);"/>
<rect x="452.700000" y="38.000000" width="38.700000" height="24.000000" rx="0" ry="0" style="stroke:none;fill:#003366;"/>
</a>
<a xlink:href="Del-0x308e420.svg">
<text x="472.050000" y="52.000000" font-family="Arial" font-size="7" text-anchor="middle" fill="#FFFFFF">Del(454)</text>
</a>
<circle cx="454.700000" cy="40.000000" r="1"/>
<line x1="449.700000" y1="45.000000" x2="452.700000" y2="46.000000"  transform="rotate(0.000000,452.700000,46.000000)" style="stroke: black; stroke-width:0.25;"/>
<line x1="449.700000" y1="47.000000" x2="452.700000" y2="46.000000"  transform="rotate(0.000000,452.700000,46.000000)" style="stroke: black; stroke-width:0.25;"/>
<line x1="449.700000" y1="53.000000" x2="452.700000" y2="54.000000"  transform="rotate(0.000000,452.700000,54.000000)" style="stroke: black; stroke-width:0.25;"/>
<line x1="449.700000" y1="55.000000" x2="452.700000" y2="54.000000"  transform="rotate(0.000000,452.700000,54.000000)" style="stroke: black; stroke-width:0.25;"/>
<a xlink:href="Del-0x308c300.svg">
<rect x="500.400000" y="39.000000" width="38.700000" height="24.000000" rx="0.1" ry="0.1" style="stroke:none;fill:#aaaaaa;;filter:url(#filter);"/>
<rect x="499.400000" y="38.000000" width="38.700000" height="24.000000" rx="0" ry="0" style="stroke:none;fill:#003366;"/>
</a>
<a xlink:href="Del-0x308c300.svg">
<text x="518.750000" y="52.000000" font-family="Arial" font-size="7" text-anchor="middle" fill="#FFFFFF">Del(623)</text>
</a>
<circle cx="501.400000" cy="40.000000" r="1"/>
<line x1="496.400000" y1="45.000000" x2="499.400000" y2="46.000000"  transform="rotate(0.000000,499.400000,46.000000)" style="stroke: black; stroke-width:0.25;"/>
<line x1="496.400000" y1="47.000000" x2="499.400000" y2="46.000000"  transform="rotate(0.000000,499.400000,46.000000)" style="stroke: black; stroke-width:0.25;"/>
<line x1="496.400000" y1="53.000000" x2="499.400000" y2="54.000000"  transform="rotate(0.000000,499.400000,54.000000)" style="stroke: black; stroke-width:0.25;"/>
<line x1="496.400000" y1="55.000000" x2="499.400000" y2="54.000000"  transform="rotate(0.000000,499.400000,54.000000)" style="stroke: black; stroke-width:0.25;"/>
<a xlink:href="Del-0x308a1e0.svg">
<rect x="547.100000" y="39.000000" width="38.700000" height="24.000000" rx="0.1" ry="0.1" style="stroke:none;fill:#aaaaaa;;filter:url(#filter);"/>
<rect x="546.100000" y="38.000000" width="38.700000" height="24.000000" rx="0" ry="0" style="stroke:none;fill:#003366;"/>
</a>
<a xlink:href="Del-0x308a1e0.svg">
<text x="565.450000" y="52.000000" font-family="Arial" font-size="7" text-anchor="middle" fill="#FFFFFF">Del(845)</text>
</a>
<circle cx="548.100000" cy="40.000000" r="1"/>
<line x1="543.100000" y1="45.000000" x2="546.100000" y2="46.000000"  transform="rotate(0.000000,546.100000,46.000000)" style="stroke: black; stroke-width:0.25;"/>
<line x1="543.100000" y1="47.000000" x2="546.100000" y2="46.000000"  transform="rotate(0.000000,546.100000,46.000000)" style="stroke: black; stroke-width:0.25;"/>
<line x1="543.100000" y1="53.000000" x2="546.100000" y2="54.000000"  transform="rotate(0.000000,546.100000,54.000000)" style="stroke: black; stroke-width:0.25;"/>
<line x1="543.100000" y1="55.000000" x2="546.100000" y2="54.000000"  transform="rotate(0.000000,546.100000,54.000000)" style="stroke: black; stroke-width:0.25;"/>
<a xlink:href="Del-0x30880c0.svg">
<rect x="593.800000" y="39.000000" width="38.700000" height="24.000000" rx="0.1" ry="0.1" style="stroke:none;fill:#aaaaaa;;filter:url(#filter);"/>
<rect x="592.800000" y="38.000000" width="38.700000" height="24.000000" rx="0" ry="0" style="stroke:none;fill:#003366;"/>
</a>
<a xlink:href="Del-0x30880c0.svg">
<text x="612.150000" y="52.000000" font-family="Arial" font-size="7" text-anchor="middle" fill="#FFFFFF">Del(1304)</text>
</a>
<circle cx="594.800000" cy="40.000000" r="1"/>
<line x1="589.800000" y1="45.000000" x2="592.800000" y2="46.000000"  transform="rotate(0.000000,592.800000,46.000000)" style="stroke: black; stroke-width:0.25;"/>
<line x1="589.800000" y1="47.000000" x2="592.800000" y2="46.000000"  transform="rotate(0.000000,592.800000,46.000000)" style="stroke: black; stroke-width:0.25;"/>
<line x1="589.800000" y1="53.000000" x2="592.800000" y2="54.000000"  transform="rotate(0.000000,592.800000,54.000000)" style="stroke: black; stroke-width:0.25;"/>
<line x1="589.800000" y1="55.000000" x2="592.800000" y2="54.000000"  transform="rotate(0.000000,592.800000,54.000000)" style="stroke: black; stroke-width:0.25;"/>
<a xlink:href="Del-0x3085f70.svg">
<rect x="640.500000" y="39.000000" width="38.700000" height="24.000000" rx="0.1" ry="0.1" style="stroke:none;fill:#aaaaaa;;filter:url(#filter);"/>
<rect x="639.500000" y="38.000000" width="38.700000" height="24.000000" rx="0" ry="0" style="stroke:none;fill:#003366;"/>
</a>
<a xlink:href="Del-0x3085f70.svg">
<text x="658.850000" y="52.000000" font-family="Arial" font-size="7" text-anchor="middle" fill="#FFFFFF">Del(1532)</text>
</a>
<circle cx="641.500000" cy="40.000000" r="1"/>
<line x1="636.500000" y1="45.000000" x2="639.500000" y2="46.000000"  transform="rotate(0.000000,639.500000,46.000000)" style="stroke: black; stroke-width:0.25;"/>
<line x1="636.500000" y1="47.000000" x2="639.500000" y2="46.000000"  transform="rotate(0.000000,639.500000,46.000000)" style="stroke: black; stroke-width:0.25;"/>
<line x1="636.500000" y1="53.000000" x2="639.500000" y2="54.000000"  transform="rotate(0.000000,639.500000,54.000000)" style="stroke: black; stroke-width:0.25;"/>
<line x1="636.500000" y1="55.000000" x2="639.500000" y2="54.000000"  transform="rotate(0.000000,639.500000,54.000000)" style="stroke: black; stroke-width:0.25;"/>
<a xlink:href="Del-0x3083f20.svg">
<rect x="687.200000" y="39.000000" width="38.700000" height="24.000000" rx="0.1" ry="0.1" style="stroke:none;fill:#aaaaaa;;filter:url(#filter);"/>
<rect x="686.200000" y="38.000000" width="38.700000" height="24.000000" rx="0" ry="0" style="stroke:none;fill:#003366;"/>
</a>
<a xlink:href="Del-0x3083f20.svg">
<text x="705.550000" y="52.000000" font-family="Arial" font-size="7" text-anchor="middle" fill="#FFFFFF">Del(2204)</text>
</a>
<circle cx="688.200000" cy="40.000000" r="1"/>
<line x1="683.200000" y1="45.000000" x2="686.200000" y2="46.000000"  transform="rotate(0.000000,686.200000,46.000000)" style="stroke: black; stroke-width:0.25;"/>
<line x1="683.200000" y1="47.000000" x2="686.200000" y2="46.000000"  transform="rotate(0.000000,686.200000,46.000000)" style="stroke: black; stroke-width:0.25;"/>
<line x1="683.200000" y1="53.000000" x2="686.200000" y2="54.000000"  transform="rotate(0.000000,686.200000,54.000000)" style="stroke: black; stroke-width:0.25;"/>
<line x1="683.200000" y1="55.000000" x2="686.200000" y2="54.000000"  transform="rotate(0.000000,686.200000,54.000000)" style="stroke: black; stroke-width:0.25;"/>
<line x1="15.000000" y1="15.000000" x2="15.000000" y2="85.000000"  style="stroke: black; stroke-linecap:round; stroke-width:0.25; stroke-dasharray:3,3;"/>
<line x1="15.000000" y1="85.000000" x2="733.900000" y2="85.000000"  style="stroke: black; stroke-linecap:round; stroke-width:0.25; stroke-dasharray:3,3;"/>
<line x1="733.900000" y1="85.000000" x2="733.900000" y2="15.000000"  style="stroke: black; stroke-linecap:round; stroke-width:0.25; stroke-dasharray:3,3;"/>
<line x1="15.000000" y1="15.000000" x2="20.000000" y2="15.000000"  style="stroke: black; stroke-linecap:round; stroke-width:0.25; stroke-dasharray:3,3;"/>
<line x1="42.575000" y1="15.000000" x2="733.900000" y2="15.000000"  style="stroke: black; stroke-linecap:round; stroke-width:0.25; stroke-dasharray:3,3;"/>
<text x="20.000000" y="17.000000" font-family="Arial" font-size="7">Early</text>
<line x1="735.900000" y1="45.000000" x2="738.900000" y2="46.000000"  transform="rotate(0.000000,738.900000,46.000000)" style="stroke: black; stroke-width:0.25;"/>
<line x1="735.900000" y1="47.000000" x2="738.900000" y2="46.000000"  transform="rotate(0.000000,738.900000,46.000000)" style="stroke: black; stroke-width:0.25;"/>
<line x1="735.900000" y1="53.000000" x2="738.900000" y2="54.000000"  transform="rotate(0.000000,738.900000,54.000000)" style="stroke: black; stroke-width:0.25;"/>
<line x1="735.900000" y1="55.000000" x2="738.900000" y2="54.000000"  transform="rotate(0.000000,738.900000,54.000000)" style="stroke: black; stroke-width:0.25;"/>
<line x1="10.000000" y1="24.000000" x2="20.000000" y2="24.000000"  style="stroke:black; stroke-linecap:round; stroke-width:0.25;"/>
<line x1="20.000000" y1="24.000000" x2="46.000000" y2="24.000000"  style="stroke:black; stroke-linecap:round; stroke-width:0.25;"/>
<line x1="46.000000" y1="24.000000" x2="72.000000" y2="24.000000"  style="stroke:black; stroke-linecap:round; stroke-width:0.25;"/>
<line x1="58.000000" y1="54.000000" x2="62.000000" y2="54.000000"  style="stroke:black; stroke-linecap:round; stroke-width:0.25;"/>
<line x1="62.000000" y1="54.000000" x2="72.000000" y2="54.000000"  style="stroke:black; stroke-linecap:round; stroke-width:0.25;"/>
<line x1="72.000000" y1="24.000000" x2="80.000000" y2="24.000000"  style="stroke:black; stroke-linecap:round; stroke-width:0.25;"/>
<line x1="72.000000" y1="54.000000" x2="80.000000" y2="54.000000"  style="stroke:black; stroke-linecap:round; stroke-width:0.25;"/>
<line x1="80.000000" y1="24.000000" x2="80.000000" y2="46.000000"  style="stroke:black; stroke-linecap:round; stroke-width:0.25;"/>
<line x1="80.000000" y1="46.000000" x2="80.000000" y2="46.000000"  style="stroke:black; stroke-linecap:round; stroke-width:0.25;"/>
<line x1="80.000000" y1="46.000000" x2="84.000000" y2="46.000000"  style="stroke:black; stroke-linecap:round; stroke-width:0.25;"/>
<line x1="80.000000" y1="54.000000" x2="84.000000" y2="54.000000"  style="stroke:black; stroke-linecap:round; stroke-width:0.25;"/>
<line x1="109.800000" y1="46.000000" x2="113.800000" y2="46.000000"  style="stroke:black; stroke-linecap:round; stroke-width:0.25;"/>
<line x1="109.800000" y1="54.000000" x2="113.800000" y2="54.000000"  style="stroke:black; stroke-linecap:round; stroke-width:0.25;"/>
<line x1="113.800000" y1="46.000000" x2="113.800000" y2="46.000000"  style="stroke:black; stroke-linecap:round; stroke-width:0.25;"/>
<line x1="113.800000" y1="46.000000" x2="117.800000" y2="46.000000"  style="stroke:black; stroke-linecap:round; stroke-width:0.25;"/>
<line x1="113.800000" y1="54.000000" x2="113.800000" y2="54.000000"  style="stroke:black; stroke-linecap:round; stroke-width:0.25;"/>
<line x1="113.800000" y1="54.000000" x2="117.800000" y2="54.000000"  style="stroke:black; stroke-linecap:round; stroke-width:0.25;"/>
<line x1="143.600000" y1="46.000000" x2="147.600000" y2="46.000000"  style="stroke:black; stroke-linecap:round; stroke-width:0.25;"/>
<line x1="143.600000" y1="54.000000" x2="147.600000" y2="54.000000"  style="stroke:black; stroke-linecap:round; stroke-width:0.25;"/>
<line x1="147.600000" y1="46.000000" x2="147.600000" y2="46.000000"  style="stroke:black; stroke-linecap:round; stroke-width:0.25;"/>
<line x1="147.600000" y1="46.000000" x2="151.600000" y2="46.000000"  style="stroke:black; stroke-linecap:round; stroke-width:0.25;"/>
<line x1="147.600000" y1="54.000000" x2="147.600000" y2="54.000000"  style="stroke:black; stroke-linecap:round; stroke-width:0.25;"/>
<line x1="147.600000" y1="54.000000" x2="151.600000" y2="54.000000"  style="stroke:black; stroke-linecap:round; stroke-width:0.25;"/>
<line x1="177.400000" y1="46.000000" x2="181.400000" y2="46.000000"  style="stroke:black; stroke-linecap:round; stroke-width:0.25;"/>
<line x1="177.400000" y1="54.000000" x2="181.400000" y2="54.000000"  style="stroke:black; stroke-linecap:round; stroke-width:0.25;"/>
<line x1="181.400000" y1="46.000000" x2="181.400000" y2="46.000000"  style="stroke:black; stroke-linecap:round; stroke-width:0.25;"/>
<line x1="181.400000" y1="46.000000" x2="185.400000" y2="46.000000"  style="stroke:black; stroke-linecap:round; stroke-width:0.25;"/>
<line x1="181.400000" y1="54.000000" x2="181.400000" y2="54.000000"  style="stroke:black; stroke-linecap:round; stroke-width:0.25;"/>
<line x1="181.400000" y1="54.000000" x2="185.400000" y2="54.000000"  style="stroke:black; stroke-linecap:round; stroke-width:0.25;"/>
<line x1="211.200000" y1="46.000000" x2="215.200000" y2="46.000000"  style="stroke:black; stroke-linecap:round; stroke-width:0.25;"/>
<line x1="211.200000" y1="54.000000" x2="215.200000" y2="54.000000"  style="stroke:black; stroke-linecap:round; stroke-width:0.25;"/>
<line x1="215.200000" y1="46.000000" x2="215.200000" y2="46.000000"  style="stroke:black; stroke-linecap:round; stroke-width:0.25;"/>
<line x1="215.200000" y1="46.000000" x2="219.200000" y2="46.000000"  style="stroke:black; stroke-linecap:round; stroke-width:0.25;"/>
<line x1="215.200000" y1="54.000000" x2="215.200000" y2="54.000000"  style="stroke:black; stroke-linecap:round; stroke-width:0.25;"/>
<line x1="215.200000" y1="54.000000" x2="219.200000" y2="54.000000"  style="stroke:black; stroke-linecap:round; stroke-width:0.25;"/>
<line x1="257.900000" y1="46.000000" x2="261.900000" y2="46.000000"  style="stroke:black; stroke-linecap:round; stroke-width:0.25;"/>
<line x1="257.900000" y1="54.000000" x2="261.900000" y2="54.000000"  style="stroke:black; stroke-linecap:round; stroke-width:0.25;"/>
<line x1="261.900000" y1="46.000000" x2="261.900000" y2="46.000000"  style="stroke:black; stroke-linecap:round; stroke-width:0.25;"/>
<line x1="261.900000" y1="46.000000" x2="265.900000" y2="46.000000"  style="stroke:black; stroke-linecap:round; stroke-width:0.25;"/>
<line x1="261.900000" y1="54.000000" x2="261.900000" y2="54.000000"  style="stroke:black; stroke-linecap:round; stroke-width:0.25;"/>
<line x1="261.900000" y1="54.000000" x2="265.900000" y2="54.000000"  style="stroke:black; stroke-linecap:round; stroke-width:0.25;"/>
<line x1="304.600000" y1="46.000000" x2="308.600000" y2="46.000000"  style="stroke:black; stroke-linecap:round; stroke-width:0.25;"/>
<line x1="304.600000" y1="54.000000" x2="308.600000" y2="54.000000"  style="stroke:black; stroke-linecap:round; stroke-width:0.25;"/>
<line x1="308.600000" y1="46.000000" x2="308.600000" y2="46.000000"  style="stroke:black; stroke-linecap:round; stroke-width:0.25;"/>
<line x1="308.600000" y1="46.000000" x2="312.600000" y2="46.000000"  style="stroke:black; stroke-linecap:round; stroke-width:0.25;"/>
<line x1="308.600000" y1="54.000000" x2="308.600000" y2="54.000000"  style="stroke:black; stroke-linecap:round; stroke-width:0.25;"/>
<line x1="308.600000" y1="54.000000" x2="312.600000" y2="54.000000"  style="stroke:black; stroke-linecap:round; stroke-width:0.25;"/>
<line x1="351.300000" y1="46.000000" x2="355.300000" y2="46.000000"  style="stroke:black; stroke-linecap:round; stroke-width:0.25;"/>
<line x1="351.300000" y1="54.000000" x2="355.300000" y2="54.000000"  style="stroke:black; stroke-linecap:round; stroke-width:0.25;"/>
<line x1="355.300000" y1="46.000000" x2="355.300000" y2="46.000000"  style="stroke:black; stroke-linecap:round; stroke-width:0.25;"/>
<line x1="355.300000" y1="46.000000" x2="359.300000" y2="46.000000"  style="stroke:black; stroke-linecap:round; stroke-width:0.25;"/>
<line x1="355.300000" y1="54.000000" x2="355.300000" y2="54.000000"  style="stroke:black; stroke-linecap:round; stroke-width:0.25;"/>
<line x1="355.300000" y1="54.000000" x2="359.300000" y2="54.000000"  style="stroke:black; stroke-linecap:round; stroke-width:0.25;"/>
<line x1="398.000000" y1="46.000000" x2="402.000000" y2="46.000000"  style="stroke:black; stroke-linecap:round; stroke-width:0.25;"/>
<line x1="398.000000" y1="54.000000" x2="402.000000" y2="54.000000"  style="stroke:black; stroke-linecap:round; stroke-width:0.25;"/>
<line x1="402.000000" y1="46.000000" x2="402.000000" y2="46.000000"  style="stroke:black; stroke-linecap:round; stroke-width:0.25;"/>
<line x1="402.000000" y1="46.000000" x2="406.000000" y2="46.000000"  style="stroke:black; stroke-linecap:round; stroke-width:0.25;"/>
<line x1="402.000000" y1="54.000000" x2="402.000000" y2="54.000000"  style="stroke:black; stroke-linecap:round; stroke-width:0.25;"/>
<line x1="402.000000" y1="54.000000" x2="406.000000" y2="54.000000"  style="stroke:black; stroke-linecap:round; stroke-width:0.25;"/>
<line x1="444.700000" y1="46.000000" x2="448.700000" y2="46.000000"  style="stroke:black; stroke-linecap:round; stroke-width:0.25;"/>
<line x1="444.700000" y1="54.000000" x2="448.700000" y2="54.000000"  style="stroke:black; stroke-linecap:round; stroke-width:0.25;"/>
<line x1="448.700000" y1="46.000000" x2="448.700000" y2="46.000000"  style="stroke:black; stroke-linecap:round; stroke-width:0.25;"/>
<line x1="448.700000" y1="46.000000" x2="452.700000" y2="46.000000"  style="stroke:black; stroke-linecap:round; stroke-width:0.25;"/>
<line x1="448.700000" y1="54.000000" x2="448.700000" y2="54.000000"  style="stroke:black; stroke-linecap:round; stroke-width:0.25;"/>
<line x1="448.700000" y1="54.000000" x2="452.700000" y2="54.000000"  style="stroke:black; stroke-linecap:round; stroke-width:0.25;"/>
<line x1="491.400000" y1="46.000000" x2="495.400000" y2="46.000000"  style="stroke:black; stroke-linecap:round; stroke-width:0.25;"/>
<line x1="491.400000" y1="54.000000" x2="495.400000" y2="54.000000"  style="stroke:black; stroke-linecap:round; stroke-width:0.25;"/>
<line x1="495.400000" y1="46.000000" x2="495.400000" y2="46.000000"  style="stroke:black; stroke-linecap:round; stroke-width:0.25;"/>
<line x1="495.400000" y1="46.000000" x2="499.400000" y2="46.000000"  style="stroke:black; stroke-linecap:round; stroke-width:0.25;"/>
<line x1="495.400000" y1="54.000000" x2="495.400000" y2="54.000000"  style="stroke:black; stroke-linecap:round; stroke-width:0.25;"/>
<line x1="495.400000" y1="54.000000" x2="499.400000" y2="54.000000"  style="stroke:black; stroke-linecap:round; stroke-width:0.25;"/>
<line x1="538.100000" y1="46.000000" x2="542.100000" y2="46.000000"  style="stroke:black; stroke-linecap:round; stroke-width:0.25;"/>
<line x1="538.100000" y1="54.000000" x2="542.100000" y2="54.000000"  style="stroke:black; stroke-linecap:round; stroke-width:0.25;"/>
<line x1="542.100000" y1="46.000000" x2="542.100000" y2="46.000000"  style="stroke:black; stroke-linecap:round; stroke-width:0.25;"/>
<line x1="542.100000" y1="46.000000" x2="546.100000" y2="46.000000"  style="stroke:black; stroke-linecap:round; stroke-width:0.25;"/>
<line x1="542.100000" y1="54.000000" x2="542.100000" y2="54.000000"  style="stroke:black; stroke-linecap:round; stroke-width:0.25;"/>
<line x1="542.100000" y1="54.000000" x2="546.100000" y2="54.000000"  style="stroke:black; stroke-linecap:round; stroke-width:0.25;"/>
<line x1="584.800000" y1="46.000000" x2="588.800000" y2="46.000000"  style="stroke:black; stroke-linecap:round; stroke-width:0.25;"/>
<line x1="584.800000" y1="54.000000" x2="588.800000" y2="54.000000"  style="stroke:black; stroke-linecap:round; stroke-width:0.25;"/>
<line x1="588.800000" y1="46.000000" x2="588.800000" y2="46.000000"  style="stroke:black; stroke-linecap:round; stroke-width:0.25;"/>
<line x1="588.800000" y1="46.000000" x2="592.800000" y2="46.000000"  style="stroke:black; stroke-linecap:round; stroke-width:0.25;"/>
<line x1="588.800000" y1="54.000000" x2="588.800000" y2="54.000000"  style="stroke:black; stroke-linecap:round; stroke-width:0.25;"/>
<line x1="588.800000" y1="54.000000" x2="592.800000" y2="54.000000"  style="stroke:black; stroke-linecap:round; stroke-width:0.25;"/>
<line x1="631.500000" y1="46.000000" x2="635.500000" y2="46.000000"  style="stroke:black; stroke-linecap:round; stroke-width:0.25;"/>
<line x1="631.500000" y1="54.000000" x2="635.500000" y2="54.000000"  style="stroke:black; stroke-linecap:round; stroke-width:0.25;"/>
<line x1="635.500000" y1="46.000000" x2="635.500000" y2="46.000000"  style="stroke:black; stroke-linecap:round; stroke-width:0.25;"/>
<line x1="635.500000" y1="46.000000" x2="639.500000" y2="46.000000"  style="stroke:black; stroke-linecap:round; stroke-width:0.25;"/>
<line x1="635.500000" y1="54.000000" x2="635.500000" y2="54.000000"  style="stroke:black; stroke-linecap:round; stroke-width:0.25;"/>
<line x1="635.500000" y1="54.000000" x2="639.500000" y2="54.000000"  style="stroke:black; stroke-linecap:round; stroke-width:0.25;"/>
<line x1="678.200000" y1="46.000000" x2="682.200000" y2="46.000000"  style="stroke:black; stroke-linecap:round; stroke-width:0.25;"/>
<line x1="678.200000" y1="54.000000" x2="682.200000" y2="54.000000"  style="stroke:black; stroke-linecap:round; stroke-width:0.25;"/>
<line x1="682.200000" y1="46.000000" x2="682.200000" y2="46.000000"  style="stroke:black; stroke-linecap:round; stroke-width:0.25;"/>
<line x1="682.200000" y1="46.000000" x2="686.200000" y2="46.000000"  style="stroke:black; stroke-linecap:round; stroke-width:0.25;"/>
<line x1="682.200000" y1="54.000000" x2="682.200000" y2="54.000000"  style="stroke:black; stroke-linecap:round; stroke-width:0.25;"/>
<line x1="682.200000" y1="54.000000" x2="686.200000" y2="54.000000"  style="stroke:black; stroke-linecap:round; stroke-width:0.25;"/>
<line x1="724.900000" y1="46.000000" x2="728.900000" y2="46.000000"  style="stroke:black; stroke-linecap:round; stroke-width:0.25;"/>
<line x1="724.900000" y1="54.000000" x2="728.900000" y2="54.000000"  style="stroke:black; stroke-linecap:round; stroke-width:0.25;"/>
<line x1="728.900000" y1="46.000000" x2="738.900000" y2="46.000000"  style="stroke:black; stroke-linecap:round; stroke-width:0.25;"/>
<line x1="728.900000" y1="54.000000" x2="738.900000" y2="54.000000"  style="stroke:black; stroke-linecap:round; stroke-width:0.25;"/>
</svg>
