<?xml version="1.0"?>
<svg xmlns="http://www.w3.org/2000/svg" xmlns:xlink="http://www.w3.org/1999/xlink" viewBox="0 0 704.700000 360.000000" width="352.350000mm" height="180.000000mm" version="1.1">
<defs>
   <filter id="filter" filterRes="18" x="0" y="0">
     <feGaussianBlur in="SourceGraphic" stdDeviation="1.55" result="blur"/>
     <feOffset in="blur" dx="3" dy="3"/>
   </filter>
</defs>
<a xlink:href="process.svg">
<rect x="1.000000" y="1.000000" width="703.700000" height="359.000000" rx="0.1" ry="0.1" style="stroke:none;fill:#aaaaaa;;filter:url(#filter);"/>
<rect x="0.000000" y="0.000000" width="703.700000" height="359.000000" rx="0" ry="0" style="stroke:none;fill:#ffffff;"/>
</a>
<text x="10.000000" y="7.000000" font-family="Arial" font-size="7"></text>
<a xlink:href="Early-0x2c27970.svg">
<rect x="25.000000" y="169.000000" width="25.800000" height="24.000000" rx="0.1" ry="0.1" style="stroke:none;fill:#aaaaaa;;filter:url(#filter);"/>
<rect x="24.000000" y="168.000000" width="25.800000" height="24.000000" rx="0" ry="0" style="stroke:none;fill:#003366;"/>
</a>
<a xlink:href="Early-0x2c27970.svg">
<text x="36.900000" y="182.000000" font-family="Arial" font-size="7" text-anchor="middle" fill="#FFFFFF">Early</text>
</a>
<circle cx="26.000000" cy="170.000000" r="1"/>
<line x1="21.000000" y1="179.000000" x2="24.000000" y2="180.000000"  transform="rotate(0.000000,24.000000,180.000000)" style="stroke: black; stroke-width:0.25;"/>
<line x1="21.000000" y1="181.000000" x2="24.000000" y2="180.000000"  transform="rotate(0.000000,24.000000,180.000000)" style="stroke: black; stroke-width:0.25;"/>
<rect x="156.800000" y="137.000000" width="77.400000" height="24.000000" rx="0.1" ry="0.1" style="stroke:none;fill:#aaaaaa;;filter:url(#filter);"/>
<rect x="155.800000" y="136.000000" width="77.400000" height="24.000000" rx="0" ry="0" style="stroke:none;fill:#477881;"/>
<text x="194.500000" y="150.000000" font-family="Arial" font-size="7" text-anchor="middle" fill="#FFFFFF">checkbox(Grains!)</text>
<circle cx="157.800000" cy="138.000000" r="1"/>
<line x1="146.800000" y1="127.000000" x2="146.800000" y2="169.000000"  style="stroke: black; stroke-linecap:round; stroke-width:0.25; stroke-dasharray:3,3;"/>
<line x1="146.800000" y1="169.000000" x2="242.200000" y2="169.000000"  style="stroke: black; stroke-linecap:round; stroke-width:0.25; stroke-dasharray:3,3;"/>
<line x1="242.200000" y1="169.000000" x2="242.200000" y2="127.000000"  style="stroke: black; stroke-linecap:round; stroke-width:0.25; stroke-dasharray:3,3;"/>
<line x1="146.800000" y1="127.000000" x2="151.800000" y2="127.000000"  style="stroke: black; stroke-linecap:round; stroke-width:0.25; stroke-dasharray:3,3;"/>
<line x1="196.950000" y1="127.000000" x2="242.200000" y2="127.000000"  style="stroke: black; stroke-linecap:round; stroke-width:0.25; stroke-dasharray:3,3;"/>
<text x="151.800000" y="129.000000" font-family="Arial" font-size="7">GrainyToggle</text>
<rect x="183.500000" y="179.000000" width="24.000000" height="24.000000" rx="0.1" ry="0.1" style="stroke:none;fill:#aaaaaa;;filter:url(#filter);"/>
<rect x="182.500000" y="178.000000" width="24.000000" height="24.000000" rx="0" ry="0" style="stroke:none;fill:#f44800;"/>
<text x="194.500000" y="192.000000" font-family="Arial" font-size="7" text-anchor="middle" fill="#FFFFFF">-1</text>
<circle cx="184.500000" cy="180.000000" r="1"/>
<rect x="260.200000" y="153.000000" width="24.000000" height="24.000000" rx="0.1" ry="0.1" style="stroke:none;fill:#aaaaaa;;filter:url(#filter);"/>
<rect x="259.200000" y="152.000000" width="24.000000" height="24.000000" rx="0" ry="0" style="stroke:none;fill:#4B71A1;"/>
<text x="271.200000" y="166.000000" font-family="Arial" font-size="7" text-anchor="middle" fill="#FFFFFF">*</text>
<circle cx="261.200000" cy="154.000000" r="1"/>
<line x1="256.200000" y1="159.000000" x2="259.200000" y2="160.000000"  transform="rotate(0.000000,259.200000,160.000000)" style="stroke: black; stroke-width:0.25;"/>
<line x1="256.200000" y1="161.000000" x2="259.200000" y2="160.000000"  transform="rotate(0.000000,259.200000,160.000000)" style="stroke: black; stroke-width:0.25;"/>
<line x1="256.200000" y1="167.000000" x2="259.200000" y2="168.000000"  transform="rotate(0.000000,259.200000,168.000000)" style="stroke: black; stroke-width:0.25;"/>
<line x1="256.200000" y1="169.000000" x2="259.200000" y2="168.000000"  transform="rotate(0.000000,259.200000,168.000000)" style="stroke: black; stroke-width:0.25;"/>
<rect x="203.500000" y="211.000000" width="24.000000" height="24.000000" rx="0.1" ry="0.1" style="stroke:none;fill:#aaaaaa;;filter:url(#filter);"/>
<rect x="202.500000" y="210.000000" width="24.000000" height="24.000000" rx="0" ry="0" style="stroke:none;fill:#f44800;"/>
<text x="214.500000" y="224.000000" font-family="Arial" font-size="7" text-anchor="middle" fill="#FFFFFF">1</text>
<circle cx="204.500000" cy="212.000000" r="1"/>
<rect x="300.200000" y="169.000000" width="24.000000" height="24.000000" rx="0.1" ry="0.1" style="stroke:none;fill:#aaaaaa;;filter:url(#filter);"/>
<rect x="299.200000" y="168.000000" width="24.000000" height="24.000000" rx="0" ry="0" style="stroke:none;fill:#4B71A1;"/>
<text x="311.200000" y="182.000000" font-family="Arial" font-size="7" text-anchor="middle" fill="#FFFFFF">+</text>
<circle cx="301.200000" cy="170.000000" r="1"/>
<line x1="296.200000" y1="175.000000" x2="299.200000" y2="176.000000"  transform="rotate(0.000000,299.200000,176.000000)" style="stroke: black; stroke-width:0.25;"/>
<line x1="296.200000" y1="177.000000" x2="299.200000" y2="176.000000"  transform="rotate(0.000000,299.200000,176.000000)" style="stroke: black; stroke-width:0.25;"/>
<line x1="296.200000" y1="183.000000" x2="299.200000" y2="184.000000"  transform="rotate(0.000000,299.200000,184.000000)" style="stroke: black; stroke-width:0.25;"/>
<line x1="296.200000" y1="185.000000" x2="299.200000" y2="184.000000"  transform="rotate(0.000000,299.200000,184.000000)" style="stroke: black; stroke-width:0.25;"/>
<rect x="340.200000" y="165.000000" width="24.000000" height="24.000000" rx="0.1" ry="0.1" style="stroke:none;fill:#aaaaaa;;filter:url(#filter);"/>
<rect x="339.200000" y="164.000000" width="24.000000" height="24.000000" rx="0" ry="0" style="stroke:none;fill:#4B71A1;"/>
<text x="351.200000" y="178.000000" font-family="Arial" font-size="7" text-anchor="middle" fill="#FFFFFF">*</text>
<circle cx="341.200000" cy="166.000000" r="1"/>
<line x1="336.200000" y1="171.000000" x2="339.200000" y2="172.000000"  transform="rotate(0.000000,339.200000,172.000000)" style="stroke: black; stroke-width:0.25;"/>
<line x1="336.200000" y1="173.000000" x2="339.200000" y2="172.000000"  transform="rotate(0.000000,339.200000,172.000000)" style="stroke: black; stroke-width:0.25;"/>
<line x1="336.200000" y1="179.000000" x2="339.200000" y2="180.000000"  transform="rotate(0.000000,339.200000,180.000000)" style="stroke: black; stroke-width:0.25;"/>
<line x1="336.200000" y1="181.000000" x2="339.200000" y2="180.000000"  transform="rotate(0.000000,339.200000,180.000000)" style="stroke: black; stroke-width:0.25;"/>
<rect x="380.200000" y="169.000000" width="24.000000" height="24.000000" rx="0.1" ry="0.1" style="stroke:none;fill:#aaaaaa;;filter:url(#filter);"/>
<rect x="379.200000" y="168.000000" width="24.000000" height="24.000000" rx="0" ry="0" style="stroke:none;fill:#4B71A1;"/>
<text x="391.200000" y="182.000000" font-family="Arial" font-size="7" text-anchor="middle" fill="#FFFFFF">+</text>
<circle cx="381.200000" cy="170.000000" r="1"/>
<line x1="376.200000" y1="175.000000" x2="379.200000" y2="176.000000"  transform="rotate(0.000000,379.200000,176.000000)" style="stroke: black; stroke-width:0.25;"/>
<line x1="376.200000" y1="177.000000" x2="379.200000" y2="176.000000"  transform="rotate(0.000000,379.200000,176.000000)" style="stroke: black; stroke-width:0.25;"/>
<line x1="376.200000" y1="183.000000" x2="379.200000" y2="184.000000"  transform="rotate(0.000000,379.200000,184.000000)" style="stroke: black; stroke-width:0.25;"/>
<line x1="376.200000" y1="185.000000" x2="379.200000" y2="184.000000"  transform="rotate(0.000000,379.200000,184.000000)" style="stroke: black; stroke-width:0.25;"/>
<a xlink:href="delline1-0x2c04140.svg">
<rect x="525.200000" y="25.000000" width="64.500000" height="24.000000" rx="0.1" ry="0.1" style="stroke:none;fill:#aaaaaa;;filter:url(#filter);"/>
<rect x="524.200000" y="24.000000" width="64.500000" height="24.000000" rx="0" ry="0" style="stroke:none;fill:#003366;"/>
</a>
<a xlink:href="delline1-0x2c04140.svg">
<text x="556.450000" y="38.000000" font-family="Arial" font-size="7" text-anchor="middle" fill="#FFFFFF">delline1(301)</text>
</a>
<circle cx="526.200000" cy="26.000000" r="1"/>
<line x1="521.200000" y1="35.000000" x2="524.200000" y2="36.000000"  transform="rotate(0.000000,524.200000,36.000000)" style="stroke: black; stroke-width:0.25;"/>
<line x1="521.200000" y1="37.000000" x2="524.200000" y2="36.000000"  transform="rotate(0.000000,524.200000,36.000000)" style="stroke: black; stroke-width:0.25;"/>
<a xlink:href="delline1-0x2c027e0.svg">
<rect x="525.200000" y="57.000000" width="64.500000" height="24.000000" rx="0.1" ry="0.1" style="stroke:none;fill:#aaaaaa;;filter:url(#filter);"/>
<rect x="524.200000" y="56.000000" width="64.500000" height="24.000000" rx="0" ry="0" style="stroke:none;fill:#003366;"/>
</a>
<a xlink:href="delline1-0x2c027e0.svg">
<text x="556.450000" y="70.000000" font-family="Arial" font-size="7" text-anchor="middle" fill="#FFFFFF">delline1(461)</text>
</a>
<circle cx="526.200000" cy="58.000000" r="1"/>
<line x1="521.200000" y1="67.000000" x2="524.200000" y2="68.000000"  transform="rotate(0.000000,524.200000,68.000000)" style="stroke: black; stroke-width:0.25;"/>
<line x1="521.200000" y1="69.000000" x2="524.200000" y2="68.000000"  transform="rotate(0.000000,524.200000,68.000000)" style="stroke: black; stroke-width:0.25;"/>
<a xlink:href="delline1-0x2c00e80.svg">
<rect x="525.200000" y="89.000000" width="64.500000" height="24.000000" rx="0.1" ry="0.1" style="stroke:none;fill:#aaaaaa;;filter:url(#filter);"/>
<rect x="524.200000" y="88.000000" width="64.500000" height="24.000000" rx="0" ry="0" style="stroke:none;fill:#003366;"/>
</a>
<a xlink:href="delline1-0x2c00e80.svg">
<text x="556.450000" y="102.000000" font-family="Arial" font-size="7" text-anchor="middle" fill="#FFFFFF">delline1(1025)</text>
</a>
<circle cx="526.200000" cy="90.000000" r="1"/>
<line x1="521.200000" y1="99.000000" x2="524.200000" y2="100.000000"  transform="rotate(0.000000,524.200000,100.000000)" style="stroke: black; stroke-width:0.25;"/>
<line x1="521.200000" y1="101.000000" x2="524.200000" y2="100.000000"  transform="rotate(0.000000,524.200000,100.000000)" style="stroke: black; stroke-width:0.25;"/>
<a xlink:href="delline1-0x2bff520.svg">
<rect x="525.200000" y="121.000000" width="64.500000" height="24.000000" rx="0.1" ry="0.1" style="stroke:none;fill:#aaaaaa;;filter:url(#filter);"/>
<rect x="524.200000" y="120.000000" width="64.500000" height="24.000000" rx="0" ry="0" style="stroke:none;fill:#003366;"/>
</a>
<a xlink:href="delline1-0x2bff520.svg">
<text x="556.450000" y="134.000000" font-family="Arial" font-size="7" text-anchor="middle" fill="#FFFFFF">delline1(1317)</text>
</a>
<circle cx="526.200000" cy="122.000000" r="1"/>
<line x1="521.200000" y1="131.000000" x2="524.200000" y2="132.000000"  transform="rotate(0.000000,524.200000,132.000000)" style="stroke: black; stroke-width:0.25;"/>
<line x1="521.200000" y1="133.000000" x2="524.200000" y2="132.000000"  transform="rotate(0.000000,524.200000,132.000000)" style="stroke: black; stroke-width:0.25;"/>
<a xlink:href="delline1-0x2bfdbc0.svg">
<rect x="525.200000" y="153.000000" width="64.500000" height="24.000000" rx="0.1" ry="0.1" style="stroke:none;fill:#aaaaaa;;filter:url(#filter);"/>
<rect x="524.200000" y="152.000000" width="64.500000" height="24.000000" rx="0" ry="0" style="stroke:none;fill:#003366;"/>
</a>
<a xlink:href="delline1-0x2bfdbc0.svg">
<text x="556.450000" y="166.000000" font-family="Arial" font-size="7" text-anchor="middle" fill="#FFFFFF">delline1(1723)</text>
</a>
<circle cx="526.200000" cy="154.000000" r="1"/>
<line x1="521.200000" y1="163.000000" x2="524.200000" y2="164.000000"  transform="rotate(0.000000,524.200000,164.000000)" style="stroke: black; stroke-width:0.25;"/>
<line x1="521.200000" y1="165.000000" x2="524.200000" y2="164.000000"  transform="rotate(0.000000,524.200000,164.000000)" style="stroke: black; stroke-width:0.25;"/>
<a xlink:href="delline1-0x2bfc260.svg">
<rect x="525.200000" y="185.000000" width="64.500000" height="24.000000" rx="0.1" ry="0.1" style="stroke:none;fill:#aaaaaa;;filter:url(#filter);"/>
<rect x="524.200000" y="184.000000" width="64.500000" height="24.000000" rx="0" ry="0" style="stroke:none;fill:#003366;"/>
</a>
<a xlink:href="delline1-0x2bfc260.svg">
<text x="556.450000" y="198.000000" font-family="Arial" font-size="7" text-anchor="middle" fill="#FFFFFF">delline1(2317)</text>
</a>
<circle cx="526.200000" cy="186.000000" r="1"/>
<line x1="521.200000" y1="195.000000" x2="524.200000" y2="196.000000"  transform="rotate(0.000000,524.200000,196.000000)" style="stroke: black; stroke-width:0.25;"/>
<line x1="521.200000" y1="197.000000" x2="524.200000" y2="196.000000"  transform="rotate(0.000000,524.200000,196.000000)" style="stroke: black; stroke-width:0.25;"/>
<a xlink:href="delline1-0x2bfa8d0.svg">
<rect x="525.200000" y="217.000000" width="64.500000" height="24.000000" rx="0.1" ry="0.1" style="stroke:none;fill:#aaaaaa;;filter:url(#filter);"/>
<rect x="524.200000" y="216.000000" width="64.500000" height="24.000000" rx="0" ry="0" style="stroke:none;fill:#003366;"/>
</a>
<a xlink:href="delline1-0x2bfa8d0.svg">
<text x="556.450000" y="230.000000" font-family="Arial" font-size="7" text-anchor="middle" fill="#FFFFFF">delline1(2913)</text>
</a>
<circle cx="526.200000" cy="218.000000" r="1"/>
<line x1="521.200000" y1="227.000000" x2="524.200000" y2="228.000000"  transform="rotate(0.000000,524.200000,228.000000)" style="stroke: black; stroke-width:0.25;"/>
<line x1="521.200000" y1="229.000000" x2="524.200000" y2="228.000000"  transform="rotate(0.000000,524.200000,228.000000)" style="stroke: black; stroke-width:0.25;"/>
<a xlink:href="delline1-0x2bf8f60.svg">
<rect x="525.200000" y="249.000000" width="64.500000" height="24.000000" rx="0.1" ry="0.1" style="stroke:none;fill:#aaaaaa;;filter:url(#filter);"/>
<rect x="524.200000" y="248.000000" width="64.500000" height="24.000000" rx="0" ry="0" style="stroke:none;fill:#003366;"/>
</a>
<a xlink:href="delline1-0x2bf8f60.svg">
<text x="556.450000" y="262.000000" font-family="Arial" font-size="7" text-anchor="middle" fill="#FFFFFF">delline1(506)</text>
</a>
<circle cx="526.200000" cy="250.000000" r="1"/>
<line x1="521.200000" y1="259.000000" x2="524.200000" y2="260.000000"  transform="rotate(0.000000,524.200000,260.000000)" style="stroke: black; stroke-width:0.25;"/>
<line x1="521.200000" y1="261.000000" x2="524.200000" y2="260.000000"  transform="rotate(0.000000,524.200000,260.000000)" style="stroke: black; stroke-width:0.25;"/>
<a xlink:href="delline1-0x2bf75f0.svg">
<rect x="525.200000" y="281.000000" width="64.500000" height="24.000000" rx="0.1" ry="0.1" style="stroke:none;fill:#aaaaaa;;filter:url(#filter);"/>
<rect x="524.200000" y="280.000000" width="64.500000" height="24.000000" rx="0" ry="0" style="stroke:none;fill:#003366;"/>
</a>
<a xlink:href="delline1-0x2bf75f0.svg">
<text x="556.450000" y="294.000000" font-family="Arial" font-size="7" text-anchor="middle" fill="#FFFFFF">delline1(2600)</text>
</a>
<circle cx="526.200000" cy="282.000000" r="1"/>
<line x1="521.200000" y1="291.000000" x2="524.200000" y2="292.000000"  transform="rotate(0.000000,524.200000,292.000000)" style="stroke: black; stroke-width:0.25;"/>
<line x1="521.200000" y1="293.000000" x2="524.200000" y2="292.000000"  transform="rotate(0.000000,524.200000,292.000000)" style="stroke: black; stroke-width:0.25;"/>
<a xlink:href="delline1-0x2bf5d60.svg">
<rect x="525.200000" y="313.000000" width="64.500000" height="24.000000" rx="0.1" ry="0.1" style="stroke:none;fill:#aaaaaa;;filter:url(#filter);"/>
<rect x="524.200000" y="312.000000" width="64.500000" height="24.000000" rx="0" ry="0" style="stroke:none;fill:#003366;"/>
</a>
<a xlink:href="delline1-0x2bf5d60.svg">
<text x="556.450000" y="326.000000" font-family="Arial" font-size="7" text-anchor="middle" fill="#FFFFFF">delline1(3131)</text>
</a>
<circle cx="526.200000" cy="314.000000" r="1"/>
<line x1="521.200000" y1="323.000000" x2="524.200000" y2="324.000000"  transform="rotate(0.000000,524.200000,324.000000)" style="stroke: black; stroke-width:0.25;"/>
<line x1="521.200000" y1="325.000000" x2="524.200000" y2="324.000000"  transform="rotate(0.000000,524.200000,324.000000)" style="stroke: black; stroke-width:0.25;"/>
<line x1="15.000000" y1="15.000000" x2="15.000000" y2="345.000000"  style="stroke: black; stroke-linecap:round; stroke-width:0.25; stroke-dasharray:3,3;"/>
<line x1="15.000000" y1="345.000000" x2="689.700000" y2="345.000000"  style="stroke: black; stroke-linecap:round; stroke-width:0.25; stroke-dasharray:3,3;"/>
<line x1="689.700000" y1="345.000000" x2="689.700000" y2="15.000000"  style="stroke: black; stroke-linecap:round; stroke-width:0.25; stroke-dasharray:3,3;"/>
<line x1="15.000000" y1="15.000000" x2="20.000000" y2="15.000000"  style="stroke: black; stroke-linecap:round; stroke-width:0.25; stroke-dasharray:3,3;"/>
<line x1="58.700000" y1="15.000000" x2="689.700000" y2="15.000000"  style="stroke: black; stroke-linecap:round; stroke-width:0.25; stroke-dasharray:3,3;"/>
<text x="20.000000" y="17.000000" font-family="Arial" font-size="7">Febaroute2</text>
<line x1="691.700000" y1="175.000000" x2="694.700000" y2="176.000000"  transform="rotate(0.000000,694.700000,176.000000)" style="stroke: black; stroke-width:0.25;"/>
<line x1="691.700000" y1="177.000000" x2="694.700000" y2="176.000000"  transform="rotate(0.000000,694.700000,176.000000)" style="stroke: black; stroke-width:0.25;"/>
<line x1="691.700000" y1="183.000000" x2="694.700000" y2="184.000000"  transform="rotate(0.000000,694.700000,184.000000)" style="stroke: black; stroke-width:0.25;"/>
<line x1="691.700000" y1="185.000000" x2="694.700000" y2="184.000000"  transform="rotate(0.000000,694.700000,184.000000)" style="stroke: black; stroke-width:0.25;"/>
<line x1="10.000000" y1="180.000000" x2="20.000000" y2="180.000000"  style="stroke:black; stroke-linecap:round; stroke-width:0.25;"/>
<line x1="20.000000" y1="180.000000" x2="24.000000" y2="180.000000"  style="stroke:black; stroke-linecap:round; stroke-width:0.25;"/>
<line x1="49.800000" y1="176.000000" x2="53.800000" y2="176.000000"  style="stroke:black; stroke-linecap:round; stroke-width:0.25;"/>
<line x1="49.800000" y1="184.000000" x2="53.800000" y2="184.000000"  style="stroke:black; stroke-linecap:round; stroke-width:0.25;"/>
<line x1="53.800000" y1="176.000000" x2="141.800000" y2="118.000000"  style="stroke:black; stroke-linecap:round; stroke-width:0.25;"/>
<line x1="53.800000" y1="184.000000" x2="141.800000" y2="242.000000"  style="stroke:black; stroke-linecap:round; stroke-width:0.25;"/>
<line x1="141.800000" y1="118.000000" x2="234.500000" y2="118.000000"  style="stroke:black; stroke-linecap:round; stroke-width:0.25;"/>
<line x1="141.800000" y1="242.000000" x2="254.500000" y2="242.000000"  style="stroke:black; stroke-linecap:round; stroke-width:0.25;"/>
<line x1="206.500000" y1="190.000000" x2="210.500000" y2="190.000000"  style="stroke:black; stroke-linecap:round; stroke-width:0.25;"/>
<line x1="210.500000" y1="190.000000" x2="247.200000" y2="190.000000"  style="stroke:black; stroke-linecap:round; stroke-width:0.25;"/>
<line x1="226.500000" y1="222.000000" x2="230.500000" y2="222.000000"  style="stroke:black; stroke-linecap:round; stroke-width:0.25;"/>
<line x1="230.500000" y1="222.000000" x2="287.200000" y2="222.000000"  style="stroke:black; stroke-linecap:round; stroke-width:0.25;"/>
<line x1="233.200000" y1="148.000000" x2="237.200000" y2="148.000000"  style="stroke:black; stroke-linecap:round; stroke-width:0.25;"/>
<line x1="234.500000" y1="118.000000" x2="327.200000" y2="118.000000"  style="stroke:black; stroke-linecap:round; stroke-width:0.25;"/>
<line x1="237.200000" y1="148.000000" x2="247.200000" y2="148.000000"  style="stroke:black; stroke-linecap:round; stroke-width:0.25;"/>
<line x1="247.200000" y1="148.000000" x2="255.200000" y2="148.000000"  style="stroke:black; stroke-linecap:round; stroke-width:0.25;"/>
<line x1="247.200000" y1="168.000000" x2="255.200000" y2="168.000000"  style="stroke:black; stroke-linecap:round; stroke-width:0.25;"/>
<line x1="247.200000" y1="190.000000" x2="247.200000" y2="168.000000"  style="stroke:black; stroke-linecap:round; stroke-width:0.25;"/>
<line x1="247.200000" y1="190.000000" x2="247.200000" y2="190.000000"  style="stroke:black; stroke-linecap:round; stroke-width:0.25;"/>
<line x1="254.500000" y1="242.000000" x2="367.200000" y2="242.000000"  style="stroke:black; stroke-linecap:round; stroke-width:0.25;"/>
<line x1="255.200000" y1="148.000000" x2="255.200000" y2="160.000000"  style="stroke:black; stroke-linecap:round; stroke-width:0.25;"/>
<line x1="255.200000" y1="160.000000" x2="255.200000" y2="160.000000"  style="stroke:black; stroke-linecap:round; stroke-width:0.25;"/>
<line x1="255.200000" y1="160.000000" x2="259.200000" y2="160.000000"  style="stroke:black; stroke-linecap:round; stroke-width:0.25;"/>
<line x1="255.200000" y1="168.000000" x2="259.200000" y2="168.000000"  style="stroke:black; stroke-linecap:round; stroke-width:0.25;"/>
<line x1="283.200000" y1="164.000000" x2="287.200000" y2="164.000000"  style="stroke:black; stroke-linecap:round; stroke-width:0.25;"/>
<line x1="287.200000" y1="164.000000" x2="295.200000" y2="164.000000"  style="stroke:black; stroke-linecap:round; stroke-width:0.25;"/>
<line x1="287.200000" y1="184.000000" x2="295.200000" y2="184.000000"  style="stroke:black; stroke-linecap:round; stroke-width:0.25;"/>
<line x1="287.200000" y1="222.000000" x2="287.200000" y2="184.000000"  style="stroke:black; stroke-linecap:round; stroke-width:0.25;"/>
<line x1="287.200000" y1="222.000000" x2="287.200000" y2="222.000000"  style="stroke:black; stroke-linecap:round; stroke-width:0.25;"/>
<line x1="295.200000" y1="164.000000" x2="295.200000" y2="176.000000"  style="stroke:black; stroke-linecap:round; stroke-width:0.25;"/>
<line x1="295.200000" y1="176.000000" x2="295.200000" y2="176.000000"  style="stroke:black; stroke-linecap:round; stroke-width:0.25;"/>
<line x1="295.200000" y1="176.000000" x2="299.200000" y2="176.000000"  style="stroke:black; stroke-linecap:round; stroke-width:0.25;"/>
<line x1="295.200000" y1="184.000000" x2="299.200000" y2="184.000000"  style="stroke:black; stroke-linecap:round; stroke-width:0.25;"/>
<line x1="323.200000" y1="180.000000" x2="327.200000" y2="180.000000"  style="stroke:black; stroke-linecap:round; stroke-width:0.25;"/>
<line x1="327.200000" y1="118.000000" x2="335.200000" y2="118.000000"  style="stroke:black; stroke-linecap:round; stroke-width:0.25;"/>
<line x1="327.200000" y1="180.000000" x2="335.200000" y2="180.000000"  style="stroke:black; stroke-linecap:round; stroke-width:0.25;"/>
<line x1="335.200000" y1="118.000000" x2="335.200000" y2="172.000000"  style="stroke:black; stroke-linecap:round; stroke-width:0.25;"/>
<line x1="335.200000" y1="172.000000" x2="335.200000" y2="172.000000"  style="stroke:black; stroke-linecap:round; stroke-width:0.25;"/>
<line x1="335.200000" y1="172.000000" x2="339.200000" y2="172.000000"  style="stroke:black; stroke-linecap:round; stroke-width:0.25;"/>
<line x1="335.200000" y1="180.000000" x2="339.200000" y2="180.000000"  style="stroke:black; stroke-linecap:round; stroke-width:0.25;"/>
<line x1="363.200000" y1="176.000000" x2="367.200000" y2="176.000000"  style="stroke:black; stroke-linecap:round; stroke-width:0.25;"/>
<line x1="367.200000" y1="176.000000" x2="375.200000" y2="176.000000"  style="stroke:black; stroke-linecap:round; stroke-width:0.25;"/>
<line x1="367.200000" y1="184.000000" x2="375.200000" y2="184.000000"  style="stroke:black; stroke-linecap:round; stroke-width:0.25;"/>
<line x1="367.200000" y1="242.000000" x2="367.200000" y2="184.000000"  style="stroke:black; stroke-linecap:round; stroke-width:0.25;"/>
<line x1="367.200000" y1="242.000000" x2="367.200000" y2="242.000000"  style="stroke:black; stroke-linecap:round; stroke-width:0.25;"/>
<line x1="375.200000" y1="176.000000" x2="379.200000" y2="176.000000"  style="stroke:black; stroke-linecap:round; stroke-width:0.25;"/>
<line x1="375.200000" y1="184.000000" x2="379.200000" y2="184.000000"  style="stroke:black; stroke-linecap:round; stroke-width:0.25;"/>
<line x1="403.200000" y1="180.000000" x2="407.200000" y2="180.000000"  style="stroke:black; stroke-linecap:round; stroke-width:0.25;"/>
<line x1="407.200000" y1="180.000000" x2="520.200000" y2="36.000000"  style="stroke:black; stroke-linecap:round; stroke-width:0.25;"/>
<line x1="407.200000" y1="180.000000" x2="520.200000" y2="68.000000"  style="stroke:black; stroke-linecap:round; stroke-width:0.25;"/>
<line x1="407.200000" y1="180.000000" x2="520.200000" y2="100.000000"  style="stroke:black; stroke-linecap:round; stroke-width:0.25;"/>
<line x1="407.200000" y1="180.000000" x2="520.200000" y2="132.000000"  style="stroke:black; stroke-linecap:round; stroke-width:0.25;"/>
<line x1="407.200000" y1="180.000000" x2="520.200000" y2="164.000000"  style="stroke:black; stroke-linecap:round; stroke-width:0.25;"/>
<line x1="407.200000" y1="180.000000" x2="520.200000" y2="196.000000"  style="stroke:black; stroke-linecap:round; stroke-width:0.25;"/>
<line x1="407.200000" y1="180.000000" x2="520.200000" y2="228.000000"  style="stroke:black; stroke-linecap:round; stroke-width:0.25;"/>
<line x1="407.200000" y1="180.000000" x2="520.200000" y2="260.000000"  style="stroke:black; stroke-linecap:round; stroke-width:0.25;"/>
<line x1="407.200000" y1="180.000000" x2="520.200000" y2="292.000000"  style="stroke:black; stroke-linecap:round; stroke-width:0.25;"/>
<line x1="407.200000" y1="180.000000" x2="520.200000" y2="324.000000"  style="stroke:black; stroke-linecap:round; stroke-width:0.25;"/>
<line x1="520.200000" y1="36.000000" x2="524.200000" y2="36.000000"  style="stroke:black; stroke-linecap:round; stroke-width:0.25;"/>
<line x1="520.200000" y1="68.000000" x2="524.200000" y2="68.000000"  style="stroke:black; stroke-linecap:round; stroke-width:0.25;"/>
<line x1="520.200000" y1="100.000000" x2="524.200000" y2="100.000000"  style="stroke:black; stroke-linecap:round; stroke-width:0.25;"/>
<line x1="520.200000" y1="132.000000" x2="524.200000" y2="132.000000"  style="stroke:black; stroke-linecap:round; stroke-width:0.25;"/>
<line x1="520.200000" y1="164.000000" x2="524.200000" y2="164.000000"  style="stroke:black; stroke-linecap:round; stroke-width:0.25;"/>
<line x1="520.200000" y1="196.000000" x2="524.200000" y2="196.000000"  style="stroke:black; stroke-linecap:round; stroke-width:0.25;"/>
<line x1="520.200000" y1="228.000000" x2="524.200000" y2="228.000000"  style="stroke:black; stroke-linecap:round; stroke-width:0.25;"/>
<line x1="520.200000" y1="260.000000" x2="524.200000" y2="260.000000"  style="stroke:black; stroke-linecap:round; stroke-width:0.25;"/>
<line x1="520.200000" y1="292.000000" x2="524.200000" y2="292.000000"  style="stroke:black; stroke-linecap:round; stroke-width:0.25;"/>
<line x1="520.200000" y1="324.000000" x2="524.200000" y2="324.000000"  style="stroke:black; stroke-linecap:round; stroke-width:0.25;"/>
<line x1="588.700000" y1="36.000000" x2="592.700000" y2="36.000000"  style="stroke:black; stroke-linecap:round; stroke-width:0.25;"/>
<line x1="588.700000" y1="68.000000" x2="592.700000" y2="68.000000"  style="stroke:black; stroke-linecap:round; stroke-width:0.25;"/>
<line x1="588.700000" y1="100.000000" x2="592.700000" y2="100.000000"  style="stroke:black; stroke-linecap:round; stroke-width:0.25;"/>
<line x1="588.700000" y1="132.000000" x2="592.700000" y2="132.000000"  style="stroke:black; stroke-linecap:round; stroke-width:0.25;"/>
<line x1="588.700000" y1="164.000000" x2="592.700000" y2="164.000000"  style="stroke:black; stroke-linecap:round; stroke-width:0.25;"/>
<line x1="588.700000" y1="196.000000" x2="592.700000" y2="196.000000"  style="stroke:black; stroke-linecap:round; stroke-width:0.25;"/>
<line x1="588.700000" y1="228.000000" x2="592.700000" y2="228.000000"  style="stroke:black; stroke-linecap:round; stroke-width:0.25;"/>
<line x1="588.700000" y1="260.000000" x2="592.700000" y2="260.000000"  style="stroke:black; stroke-linecap:round; stroke-width:0.25;"/>
<line x1="588.700000" y1="292.000000" x2="592.700000" y2="292.000000"  style="stroke:black; stroke-linecap:round; stroke-width:0.25;"/>
<line x1="588.700000" y1="324.000000" x2="592.700000" y2="324.000000"  style="stroke:black; stroke-linecap:round; stroke-width:0.25;"/>
<line x1="592.700000" y1="36.000000" x2="676.700000" y2="176.000000"  style="stroke:black; stroke-linecap:round; stroke-width:0.25;"/>
<line x1="592.700000" y1="68.000000" x2="676.700000" y2="184.000000"  style="stroke:black; stroke-linecap:round; stroke-width:0.25;"/>
<line x1="592.700000" y1="100.000000" x2="676.700000" y2="176.000000"  style="stroke:black; stroke-linecap:round; stroke-width:0.25;"/>
<line x1="592.700000" y1="132.000000" x2="676.700000" y2="184.000000"  style="stroke:black; stroke-linecap:round; stroke-width:0.25;"/>
<line x1="592.700000" y1="164.000000" x2="676.700000" y2="176.000000"  style="stroke:black; stroke-linecap:round; stroke-width:0.25;"/>
<line x1="592.700000" y1="196.000000" x2="676.700000" y2="184.000000"  style="stroke:black; stroke-linecap:round; stroke-width:0.25;"/>
<line x1="592.700000" y1="228.000000" x2="676.700000" y2="176.000000"  style="stroke:black; stroke-linecap:round; stroke-width:0.25;"/>
<line x1="592.700000" y1="260.000000" x2="676.700000" y2="184.000000"  style="stroke:black; stroke-linecap:round; stroke-width:0.25;"/>
<line x1="592.700000" y1="292.000000" x2="676.700000" y2="176.000000"  style="stroke:black; stroke-linecap:round; stroke-width:0.25;"/>
<line x1="592.700000" y1="324.000000" x2="676.700000" y2="184.000000"  style="stroke:black; stroke-linecap:round; stroke-width:0.25;"/>
<line x1="676.700000" y1="176.000000" x2="680.700000" y2="176.000000"  style="stroke:black; stroke-linecap:round; stroke-width:0.25;"/>
<line x1="676.700000" y1="184.000000" x2="680.700000" y2="184.000000"  style="stroke:black; stroke-linecap:round; stroke-width:0.25;"/>
<line x1="680.700000" y1="176.000000" x2="684.700000" y2="176.000000"  style="stroke:black; stroke-linecap:round; stroke-width:0.25;"/>
<line x1="680.700000" y1="184.000000" x2="684.700000" y2="184.000000"  style="stroke:black; stroke-linecap:round; stroke-width:0.25;"/>
<line x1="684.700000" y1="176.000000" x2="694.700000" y2="176.000000"  style="stroke:black; stroke-linecap:round; stroke-width:0.25;"/>
<line x1="684.700000" y1="184.000000" x2="694.700000" y2="184.000000"  style="stroke:black; stroke-linecap:round; stroke-width:0.25;"/>
</svg>
