<?xml version="1.0"?>
<svg xmlns="http://www.w3.org/2000/svg" xmlns:xlink="http://www.w3.org/1999/xlink" viewBox="0 0 268.100000 284.000000" width="134.050000mm" height="142.000000mm" version="1.1">
<defs>
   <filter id="filter" filterRes="18" x="0" y="0">
     <feGaussianBlur in="SourceGraphic" stdDeviation="1.55" result="blur"/>
     <feOffset in="blur" dx="3" dy="3"/>
   </filter>
</defs>
<a xlink:href="Granulator-0x2ec8180.svg">
<rect x="1.000000" y="1.000000" width="267.100000" height="283.000000" rx="0.1" ry="0.1" style="stroke:none;fill:#aaaaaa;;filter:url(#filter);"/>
<rect x="0.000000" y="0.000000" width="267.100000" height="283.000000" rx="0" ry="0" style="stroke:none;fill:#ffffff;"/>
</a>
<text x="10.000000" y="7.000000" font-family="Arial" font-size="7"></text>
<rect x="25.000000" y="131.000000" width="24.000000" height="24.000000" rx="0.1" ry="0.1" style="stroke:none;fill:#aaaaaa;;filter:url(#filter);"/>
<rect x="24.000000" y="130.000000" width="24.000000" height="24.000000" rx="0" ry="0" style="stroke:none;fill:#47945E;"/>
<text x="36.000000" y="144.000000" font-family="Arial" font-size="7" text-anchor="middle" fill="#FFFFFF">x</text>
<circle cx="26.000000" cy="132.000000" r="1"/>
<line x1="21.000000" y1="141.000000" x2="24.000000" y2="142.000000"  transform="rotate(0.000000,24.000000,142.000000)" style="stroke: black; stroke-width:0.25;"/>
<line x1="21.000000" y1="143.000000" x2="24.000000" y2="142.000000"  transform="rotate(0.000000,24.000000,142.000000)" style="stroke: black; stroke-width:0.25;"/>
<rect x="102.800000" y="35.000000" width="25.800000" height="24.000000" rx="0.1" ry="0.1" style="stroke:none;fill:#aaaaaa;;filter:url(#filter);"/>
<rect x="101.800000" y="34.000000" width="25.800000" height="24.000000" rx="0" ry="0" style="stroke:none;fill:#f44800;"/>
<text x="114.700000" y="48.000000" font-family="Arial" font-size="7" text-anchor="middle" fill="#FFFFFF">480000</text>
<circle cx="103.800000" cy="36.000000" r="1"/>
<line x1="92.800000" y1="25.000000" x2="92.800000" y2="67.000000"  style="stroke: black; stroke-linecap:round; stroke-width:0.25; stroke-dasharray:3,3;"/>
<line x1="92.800000" y1="67.000000" x2="136.600000" y2="67.000000"  style="stroke: black; stroke-linecap:round; stroke-width:0.25; stroke-dasharray:3,3;"/>
<line x1="136.600000" y1="67.000000" x2="136.600000" y2="25.000000"  style="stroke: black; stroke-linecap:round; stroke-width:0.25; stroke-dasharray:3,3;"/>
<line x1="92.800000" y1="25.000000" x2="97.800000" y2="25.000000"  style="stroke: black; stroke-linecap:round; stroke-width:0.25; stroke-dasharray:3,3;"/>
<line x1="136.600000" y1="25.000000" x2="136.600000" y2="25.000000"  style="stroke: black; stroke-linecap:round; stroke-width:0.25; stroke-dasharray:3,3;"/>
<text x="97.800000" y="27.000000" font-family="Arial" font-size="7">delayBufferSize</text>
<rect x="103.700000" y="77.000000" width="24.000000" height="24.000000" rx="0.1" ry="0.1" style="stroke:none;fill:#aaaaaa;;filter:url(#filter);"/>
<rect x="102.700000" y="76.000000" width="24.000000" height="24.000000" rx="0" ry="0" style="stroke:none;fill:#f44800;"/>
<text x="114.700000" y="90.000000" font-family="Arial" font-size="7" text-anchor="middle" fill="#FFFFFF">0</text>
<circle cx="104.700000" cy="78.000000" r="1"/>
<a xlink:href="counter-0x2e4ab50.svg">
<rect x="76.350000" y="109.000000" width="38.700000" height="24.000000" rx="0.1" ry="0.1" style="stroke:none;fill:#aaaaaa;;filter:url(#filter);"/>
<rect x="75.350000" y="108.000000" width="38.700000" height="24.000000" rx="0" ry="0" style="stroke:none;fill:#003366;"/>
</a>
<a xlink:href="counter-0x2e4ab50.svg">
<text x="94.700000" y="122.000000" font-family="Arial" font-size="7" text-anchor="middle" fill="#FFFFFF">counter</text>
</a>
<circle cx="77.350000" cy="110.000000" r="1"/>
<a xlink:href="delayLength-0x2e10b90.svg">
<rect x="69.900000" y="141.000000" width="51.600000" height="24.000000" rx="0.1" ry="0.1" style="stroke:none;fill:#aaaaaa;;filter:url(#filter);"/>
<rect x="68.900000" y="140.000000" width="51.600000" height="24.000000" rx="0" ry="0" style="stroke:none;fill:#003366;"/>
</a>
<a xlink:href="delayLength-0x2e10b90.svg">
<text x="94.700000" y="154.000000" font-family="Arial" font-size="7" text-anchor="middle" fill="#FFFFFF">delayLength</text>
</a>
<circle cx="70.900000" cy="142.000000" r="1"/>
<rect x="137.500000" y="125.000000" width="24.000000" height="24.000000" rx="0.1" ry="0.1" style="stroke:none;fill:#aaaaaa;;filter:url(#filter);"/>
<rect x="136.500000" y="124.000000" width="24.000000" height="24.000000" rx="0" ry="0" style="stroke:none;fill:#4B71A1;"/>
<text x="148.500000" y="138.000000" font-family="Arial" font-size="7" text-anchor="middle" fill="#FFFFFF">%</text>
<circle cx="138.500000" cy="126.000000" r="1"/>
<line x1="133.500000" y1="131.000000" x2="136.500000" y2="132.000000"  transform="rotate(0.000000,136.500000,132.000000)" style="stroke: black; stroke-width:0.25;"/>
<line x1="133.500000" y1="133.000000" x2="136.500000" y2="132.000000"  transform="rotate(0.000000,136.500000,132.000000)" style="stroke: black; stroke-width:0.25;"/>
<line x1="133.500000" y1="139.000000" x2="136.500000" y2="140.000000"  transform="rotate(0.000000,136.500000,140.000000)" style="stroke: black; stroke-width:0.25;"/>
<line x1="133.500000" y1="141.000000" x2="136.500000" y2="140.000000"  transform="rotate(0.000000,136.500000,140.000000)" style="stroke: black; stroke-width:0.25;"/>
<rect x="103.700000" y="173.000000" width="24.000000" height="24.000000" rx="0.1" ry="0.1" style="stroke:none;fill:#aaaaaa;;filter:url(#filter);"/>
<rect x="102.700000" y="172.000000" width="24.000000" height="24.000000" rx="0" ry="0" style="stroke:none;fill:#47945E;"/>
<text x="114.700000" y="186.000000" font-family="Arial" font-size="7" text-anchor="middle" fill="#FFFFFF">x</text>
<circle cx="104.700000" cy="174.000000" r="1"/>
<a xlink:href="grainPosition-0x2e84170.svg">
<rect x="57.000000" y="205.000000" width="77.400000" height="24.000000" rx="0.1" ry="0.1" style="stroke:none;fill:#aaaaaa;;filter:url(#filter);"/>
<rect x="56.000000" y="204.000000" width="77.400000" height="24.000000" rx="0" ry="0" style="stroke:none;fill:#003366;"/>
</a>
<a xlink:href="grainPosition-0x2e84170.svg">
<text x="94.700000" y="218.000000" font-family="Arial" font-size="7" text-anchor="middle" fill="#FFFFFF">grainPosition(0)</text>
</a>
<circle cx="58.000000" cy="206.000000" r="1"/>
<a xlink:href="delayLength-0x2e10b90.svg">
<rect x="69.900000" y="237.000000" width="51.600000" height="24.000000" rx="0.1" ry="0.1" style="stroke:none;fill:#aaaaaa;;filter:url(#filter);"/>
<rect x="68.900000" y="236.000000" width="51.600000" height="24.000000" rx="0" ry="0" style="stroke:none;fill:#003366;"/>
</a>
<a xlink:href="delayLength-0x2e10b90.svg">
<text x="94.700000" y="250.000000" font-family="Arial" font-size="7" text-anchor="middle" fill="#FFFFFF">delayLength</text>
</a>
<circle cx="70.900000" cy="238.000000" r="1"/>
<rect x="150.400000" y="221.000000" width="24.000000" height="24.000000" rx="0.1" ry="0.1" style="stroke:none;fill:#aaaaaa;;filter:url(#filter);"/>
<rect x="149.400000" y="220.000000" width="24.000000" height="24.000000" rx="0" ry="0" style="stroke:none;fill:#4B71A1;"/>
<text x="161.400000" y="234.000000" font-family="Arial" font-size="7" text-anchor="middle" fill="#FFFFFF">%</text>
<circle cx="151.400000" cy="222.000000" r="1"/>
<line x1="146.400000" y1="227.000000" x2="149.400000" y2="228.000000"  transform="rotate(0.000000,149.400000,228.000000)" style="stroke: black; stroke-width:0.25;"/>
<line x1="146.400000" y1="229.000000" x2="149.400000" y2="228.000000"  transform="rotate(0.000000,149.400000,228.000000)" style="stroke: black; stroke-width:0.25;"/>
<line x1="146.400000" y1="235.000000" x2="149.400000" y2="236.000000"  transform="rotate(0.000000,149.400000,236.000000)" style="stroke: black; stroke-width:0.25;"/>
<line x1="146.400000" y1="237.000000" x2="149.400000" y2="236.000000"  transform="rotate(0.000000,149.400000,236.000000)" style="stroke: black; stroke-width:0.25;"/>
<rect x="206.400000" y="123.000000" width="38.700000" height="40.000000" rx="0.1" ry="0.1" style="stroke:none;fill:#aaaaaa;;filter:url(#filter);"/>
<rect x="205.400000" y="122.000000" width="38.700000" height="40.000000" rx="0" ry="0" style="stroke:none;fill:#4B71A1;"/>
<text x="224.750000" y="144.000000" font-family="Arial" font-size="7" text-anchor="middle" fill="#FFFFFF">wrtable</text>
<circle cx="207.400000" cy="124.000000" r="1"/>
<line x1="202.400000" y1="125.000000" x2="205.400000" y2="126.000000"  transform="rotate(0.000000,205.400000,126.000000)" style="stroke: black; stroke-width:0.25;"/>
<line x1="202.400000" y1="127.000000" x2="205.400000" y2="126.000000"  transform="rotate(0.000000,205.400000,126.000000)" style="stroke: black; stroke-width:0.25;"/>
<line x1="202.400000" y1="133.000000" x2="205.400000" y2="134.000000"  transform="rotate(0.000000,205.400000,134.000000)" style="stroke: black; stroke-width:0.25;"/>
<line x1="202.400000" y1="135.000000" x2="205.400000" y2="134.000000"  transform="rotate(0.000000,205.400000,134.000000)" style="stroke: black; stroke-width:0.25;"/>
<line x1="202.400000" y1="141.000000" x2="205.400000" y2="142.000000"  transform="rotate(0.000000,205.400000,142.000000)" style="stroke: black; stroke-width:0.25;"/>
<line x1="202.400000" y1="143.000000" x2="205.400000" y2="142.000000"  transform="rotate(0.000000,205.400000,142.000000)" style="stroke: black; stroke-width:0.25;"/>
<line x1="202.400000" y1="149.000000" x2="205.400000" y2="150.000000"  transform="rotate(0.000000,205.400000,150.000000)" style="stroke: black; stroke-width:0.25;"/>
<line x1="202.400000" y1="151.000000" x2="205.400000" y2="150.000000"  transform="rotate(0.000000,205.400000,150.000000)" style="stroke: black; stroke-width:0.25;"/>
<line x1="202.400000" y1="157.000000" x2="205.400000" y2="158.000000"  transform="rotate(0.000000,205.400000,158.000000)" style="stroke: black; stroke-width:0.25;"/>
<line x1="202.400000" y1="159.000000" x2="205.400000" y2="158.000000"  transform="rotate(0.000000,205.400000,158.000000)" style="stroke: black; stroke-width:0.25;"/>
<line x1="15.000000" y1="15.000000" x2="15.000000" y2="269.000000"  style="stroke: black; stroke-linecap:round; stroke-width:0.25; stroke-dasharray:3,3;"/>
<line x1="15.000000" y1="269.000000" x2="253.100000" y2="269.000000"  style="stroke: black; stroke-linecap:round; stroke-width:0.25; stroke-dasharray:3,3;"/>
<line x1="253.100000" y1="269.000000" x2="253.100000" y2="15.000000"  style="stroke: black; stroke-linecap:round; stroke-width:0.25; stroke-dasharray:3,3;"/>
<line x1="15.000000" y1="15.000000" x2="20.000000" y2="15.000000"  style="stroke: black; stroke-linecap:round; stroke-width:0.25; stroke-dasharray:3,3;"/>
<line x1="119.975000" y1="15.000000" x2="253.100000" y2="15.000000"  style="stroke: black; stroke-linecap:round; stroke-width:0.25; stroke-dasharray:3,3;"/>
<text x="20.000000" y="17.000000" font-family="Arial" font-size="7">buffer(((_,1:...:+)~_:int):+)</text>
<line x1="255.100000" y1="141.000000" x2="258.100000" y2="142.000000"  transform="rotate(0.000000,258.100000,142.000000)" style="stroke: black; stroke-width:0.25;"/>
<line x1="255.100000" y1="143.000000" x2="258.100000" y2="142.000000"  transform="rotate(0.000000,258.100000,142.000000)" style="stroke: black; stroke-width:0.25;"/>
<line x1="10.000000" y1="142.000000" x2="20.000000" y2="142.000000"  style="stroke:black; stroke-linecap:round; stroke-width:0.25;"/>
<line x1="20.000000" y1="142.000000" x2="24.000000" y2="142.000000"  style="stroke:black; stroke-linecap:round; stroke-width:0.25;"/>
<line x1="114.050000" y1="120.000000" x2="118.050000" y2="120.000000"  style="stroke:black; stroke-linecap:round; stroke-width:0.25;"/>
<line x1="118.050000" y1="120.000000" x2="124.500000" y2="120.000000"  style="stroke:black; stroke-linecap:round; stroke-width:0.25;"/>
<line x1="120.500000" y1="152.000000" x2="124.500000" y2="152.000000"  style="stroke:black; stroke-linecap:round; stroke-width:0.25;"/>
<line x1="120.500000" y1="248.000000" x2="124.500000" y2="248.000000"  style="stroke:black; stroke-linecap:round; stroke-width:0.25;"/>
<line x1="124.500000" y1="140.000000" x2="132.500000" y2="140.000000"  style="stroke:black; stroke-linecap:round; stroke-width:0.25;"/>
<line x1="124.500000" y1="152.000000" x2="124.500000" y2="140.000000"  style="stroke:black; stroke-linecap:round; stroke-width:0.25;"/>
<line x1="124.500000" y1="152.000000" x2="124.500000" y2="152.000000"  style="stroke:black; stroke-linecap:round; stroke-width:0.25;"/>
<line x1="124.500000" y1="248.000000" x2="137.400000" y2="248.000000"  style="stroke:black; stroke-linecap:round; stroke-width:0.25;"/>
<line x1="124.500000" y1="120.000000" x2="132.500000" y2="120.000000"  style="stroke:black; stroke-linecap:round; stroke-width:0.25;"/>
<line x1="126.700000" y1="88.000000" x2="130.700000" y2="88.000000"  style="stroke:black; stroke-linecap:round; stroke-width:0.25;"/>
<line x1="126.700000" y1="184.000000" x2="130.700000" y2="184.000000"  style="stroke:black; stroke-linecap:round; stroke-width:0.25;"/>
<line x1="127.600000" y1="46.000000" x2="131.600000" y2="46.000000"  style="stroke:black; stroke-linecap:round; stroke-width:0.25;"/>
<line x1="130.700000" y1="88.000000" x2="177.400000" y2="88.000000"  style="stroke:black; stroke-linecap:round; stroke-width:0.25;"/>
<line x1="130.700000" y1="184.000000" x2="177.400000" y2="184.000000"  style="stroke:black; stroke-linecap:round; stroke-width:0.25;"/>
<line x1="131.600000" y1="46.000000" x2="141.600000" y2="46.000000"  style="stroke:black; stroke-linecap:round; stroke-width:0.25;"/>
<line x1="132.500000" y1="120.000000" x2="132.500000" y2="132.000000"  style="stroke:black; stroke-linecap:round; stroke-width:0.25;"/>
<line x1="132.500000" y1="132.000000" x2="132.500000" y2="132.000000"  style="stroke:black; stroke-linecap:round; stroke-width:0.25;"/>
<line x1="132.500000" y1="132.000000" x2="136.500000" y2="132.000000"  style="stroke:black; stroke-linecap:round; stroke-width:0.25;"/>
<line x1="132.500000" y1="140.000000" x2="136.500000" y2="140.000000"  style="stroke:black; stroke-linecap:round; stroke-width:0.25;"/>
<line x1="133.400000" y1="216.000000" x2="137.400000" y2="216.000000"  style="stroke:black; stroke-linecap:round; stroke-width:0.25;"/>
<line x1="137.400000" y1="216.000000" x2="145.400000" y2="216.000000"  style="stroke:black; stroke-linecap:round; stroke-width:0.25;"/>
<line x1="137.400000" y1="236.000000" x2="145.400000" y2="236.000000"  style="stroke:black; stroke-linecap:round; stroke-width:0.25;"/>
<line x1="137.400000" y1="248.000000" x2="137.400000" y2="236.000000"  style="stroke:black; stroke-linecap:round; stroke-width:0.25;"/>
<line x1="137.400000" y1="248.000000" x2="137.400000" y2="248.000000"  style="stroke:black; stroke-linecap:round; stroke-width:0.25;"/>
<line x1="141.600000" y1="46.000000" x2="177.400000" y2="46.000000"  style="stroke:black; stroke-linecap:round; stroke-width:0.25;"/>
<line x1="145.400000" y1="216.000000" x2="145.400000" y2="228.000000"  style="stroke:black; stroke-linecap:round; stroke-width:0.25;"/>
<line x1="145.400000" y1="228.000000" x2="145.400000" y2="228.000000"  style="stroke:black; stroke-linecap:round; stroke-width:0.25;"/>
<line x1="145.400000" y1="228.000000" x2="149.400000" y2="228.000000"  style="stroke:black; stroke-linecap:round; stroke-width:0.25;"/>
<line x1="145.400000" y1="236.000000" x2="149.400000" y2="236.000000"  style="stroke:black; stroke-linecap:round; stroke-width:0.25;"/>
<line x1="160.500000" y1="136.000000" x2="164.500000" y2="136.000000"  style="stroke:black; stroke-linecap:round; stroke-width:0.25;"/>
<line x1="164.500000" y1="136.000000" x2="177.400000" y2="136.000000"  style="stroke:black; stroke-linecap:round; stroke-width:0.25;"/>
<line x1="173.400000" y1="232.000000" x2="177.400000" y2="232.000000"  style="stroke:black; stroke-linecap:round; stroke-width:0.25;"/>
<line x1="177.400000" y1="46.000000" x2="201.400000" y2="46.000000"  style="stroke:black; stroke-linecap:round; stroke-width:0.25;"/>
<line x1="177.400000" y1="88.000000" x2="193.400000" y2="88.000000"  style="stroke:black; stroke-linecap:round; stroke-width:0.25;"/>
<line x1="177.400000" y1="150.000000" x2="201.400000" y2="150.000000"  style="stroke:black; stroke-linecap:round; stroke-width:0.25;"/>
<line x1="177.400000" y1="184.000000" x2="177.400000" y2="150.000000"  style="stroke:black; stroke-linecap:round; stroke-width:0.25;"/>
<line x1="177.400000" y1="184.000000" x2="177.400000" y2="184.000000"  style="stroke:black; stroke-linecap:round; stroke-width:0.25;"/>
<line x1="177.400000" y1="232.000000" x2="185.400000" y2="232.000000"  style="stroke:black; stroke-linecap:round; stroke-width:0.25;"/>
<line x1="177.400000" y1="136.000000" x2="185.400000" y2="136.000000"  style="stroke:black; stroke-linecap:round; stroke-width:0.25;"/>
<line x1="185.400000" y1="158.000000" x2="201.400000" y2="158.000000"  style="stroke:black; stroke-linecap:round; stroke-width:0.25;"/>
<line x1="185.400000" y1="232.000000" x2="185.400000" y2="158.000000"  style="stroke:black; stroke-linecap:round; stroke-width:0.25;"/>
<line x1="185.400000" y1="136.000000" x2="185.400000" y2="142.000000"  style="stroke:black; stroke-linecap:round; stroke-width:0.25;"/>
<line x1="185.400000" y1="142.000000" x2="201.400000" y2="142.000000"  style="stroke:black; stroke-linecap:round; stroke-width:0.25;"/>
<line x1="193.400000" y1="88.000000" x2="193.400000" y2="134.000000"  style="stroke:black; stroke-linecap:round; stroke-width:0.25;"/>
<line x1="193.400000" y1="134.000000" x2="201.400000" y2="134.000000"  style="stroke:black; stroke-linecap:round; stroke-width:0.25;"/>
<line x1="201.400000" y1="46.000000" x2="201.400000" y2="126.000000"  style="stroke:black; stroke-linecap:round; stroke-width:0.25;"/>
<line x1="201.400000" y1="126.000000" x2="201.400000" y2="126.000000"  style="stroke:black; stroke-linecap:round; stroke-width:0.25;"/>
<line x1="201.400000" y1="126.000000" x2="205.400000" y2="126.000000"  style="stroke:black; stroke-linecap:round; stroke-width:0.25;"/>
<line x1="201.400000" y1="134.000000" x2="205.400000" y2="134.000000"  style="stroke:black; stroke-linecap:round; stroke-width:0.25;"/>
<line x1="201.400000" y1="142.000000" x2="205.400000" y2="142.000000"  style="stroke:black; stroke-linecap:round; stroke-width:0.25;"/>
<line x1="201.400000" y1="150.000000" x2="205.400000" y2="150.000000"  style="stroke:black; stroke-linecap:round; stroke-width:0.25;"/>
<line x1="201.400000" y1="158.000000" x2="205.400000" y2="158.000000"  style="stroke:black; stroke-linecap:round; stroke-width:0.25;"/>
<line x1="244.100000" y1="142.000000" x2="248.100000" y2="142.000000"  style="stroke:black; stroke-linecap:round; stroke-width:0.25;"/>
<line x1="248.100000" y1="142.000000" x2="258.100000" y2="142.000000"  style="stroke:black; stroke-linecap:round; stroke-width:0.25;"/>
</svg>
