<?xml version="1.0"?>
<svg xmlns="http://www.w3.org/2000/svg" xmlns:xlink="http://www.w3.org/1999/xlink" viewBox="0 0 397.000000 164.000000" width="198.500000mm" height="82.000000mm" version="1.1">
<defs>
   <filter id="filter" filterRes="18" x="0" y="0">
     <feGaussianBlur in="SourceGraphic" stdDeviation="1.55" result="blur"/>
     <feOffset in="blur" dx="3" dy="3"/>
   </filter>
</defs>
<a xlink:href="Early-0x1ea17b0.svg">
<rect x="1.000000" y="1.000000" width="396.000000" height="163.000000" rx="0.1" ry="0.1" style="stroke:none;fill:#aaaaaa;;filter:url(#filter);"/>
<rect x="0.000000" y="0.000000" width="396.000000" height="163.000000" rx="0" ry="0" style="stroke:none;fill:#ffffff;"/>
</a>
<text x="10.000000" y="7.000000" font-family="Arial" font-size="7"></text>
<rect x="35.000000" y="45.000000" width="24.000000" height="24.000000" rx="0.1" ry="0.1" style="stroke:none;fill:#aaaaaa;;filter:url(#filter);"/>
<rect x="34.000000" y="44.000000" width="24.000000" height="24.000000" rx="0" ry="0" style="stroke:none;fill:#f44800;"/>
<text x="46.000000" y="58.000000" font-family="Arial" font-size="7" text-anchor="middle" fill="#FFFFFF">2</text>
<circle cx="36.000000" cy="46.000000" r="1"/>
<line x1="25.000000" y1="35.000000" x2="25.000000" y2="77.000000"  style="stroke: black; stroke-linecap:round; stroke-width:0.25; stroke-dasharray:3,3;"/>
<line x1="25.000000" y1="77.000000" x2="67.000000" y2="77.000000"  style="stroke: black; stroke-linecap:round; stroke-width:0.25; stroke-dasharray:3,3;"/>
<line x1="67.000000" y1="77.000000" x2="67.000000" y2="35.000000"  style="stroke: black; stroke-linecap:round; stroke-width:0.25; stroke-dasharray:3,3;"/>
<line x1="25.000000" y1="35.000000" x2="30.000000" y2="35.000000"  style="stroke: black; stroke-linecap:round; stroke-width:0.25; stroke-dasharray:3,3;"/>
<line x1="49.350000" y1="35.000000" x2="67.000000" y2="35.000000"  style="stroke: black; stroke-linecap:round; stroke-width:0.25; stroke-dasharray:3,3;"/>
<text x="30.000000" y="37.000000" font-family="Arial" font-size="7">maxN</text>
<rect x="85.000000" y="41.000000" width="24.000000" height="24.000000" rx="0.1" ry="0.1" style="stroke:none;fill:#aaaaaa;;filter:url(#filter);"/>
<rect x="84.000000" y="40.000000" width="24.000000" height="24.000000" rx="0" ry="0" style="stroke:none;fill:#4B71A1;"/>
<text x="96.000000" y="54.000000" font-family="Arial" font-size="7" text-anchor="middle" fill="#FFFFFF">/</text>
<circle cx="86.000000" cy="42.000000" r="1"/>
<line x1="81.000000" y1="47.000000" x2="84.000000" y2="48.000000"  transform="rotate(0.000000,84.000000,48.000000)" style="stroke: black; stroke-width:0.25;"/>
<line x1="81.000000" y1="49.000000" x2="84.000000" y2="48.000000"  transform="rotate(0.000000,84.000000,48.000000)" style="stroke: black; stroke-width:0.25;"/>
<line x1="81.000000" y1="55.000000" x2="84.000000" y2="56.000000"  transform="rotate(0.000000,84.000000,56.000000)" style="stroke: black; stroke-width:0.25;"/>
<line x1="81.000000" y1="57.000000" x2="84.000000" y2="56.000000"  transform="rotate(0.000000,84.000000,56.000000)" style="stroke: black; stroke-width:0.25;"/>
<rect x="35.000000" y="105.000000" width="24.000000" height="24.000000" rx="0.1" ry="0.1" style="stroke:none;fill:#aaaaaa;;filter:url(#filter);"/>
<rect x="34.000000" y="104.000000" width="24.000000" height="24.000000" rx="0" ry="0" style="stroke:none;fill:#f44800;"/>
<text x="46.000000" y="118.000000" font-family="Arial" font-size="7" text-anchor="middle" fill="#FFFFFF">2</text>
<circle cx="36.000000" cy="106.000000" r="1"/>
<line x1="25.000000" y1="95.000000" x2="25.000000" y2="137.000000"  style="stroke: black; stroke-linecap:round; stroke-width:0.25; stroke-dasharray:3,3;"/>
<line x1="25.000000" y1="137.000000" x2="67.000000" y2="137.000000"  style="stroke: black; stroke-linecap:round; stroke-width:0.25; stroke-dasharray:3,3;"/>
<line x1="67.000000" y1="137.000000" x2="67.000000" y2="95.000000"  style="stroke: black; stroke-linecap:round; stroke-width:0.25; stroke-dasharray:3,3;"/>
<line x1="25.000000" y1="95.000000" x2="30.000000" y2="95.000000"  style="stroke: black; stroke-linecap:round; stroke-width:0.25; stroke-dasharray:3,3;"/>
<line x1="49.350000" y1="95.000000" x2="67.000000" y2="95.000000"  style="stroke: black; stroke-linecap:round; stroke-width:0.25; stroke-dasharray:3,3;"/>
<text x="30.000000" y="97.000000" font-family="Arial" font-size="7">maxN</text>
<rect x="85.000000" y="101.000000" width="24.000000" height="24.000000" rx="0.1" ry="0.1" style="stroke:none;fill:#aaaaaa;;filter:url(#filter);"/>
<rect x="84.000000" y="100.000000" width="24.000000" height="24.000000" rx="0" ry="0" style="stroke:none;fill:#4B71A1;"/>
<text x="96.000000" y="114.000000" font-family="Arial" font-size="7" text-anchor="middle" fill="#FFFFFF">/</text>
<circle cx="86.000000" cy="102.000000" r="1"/>
<line x1="81.000000" y1="107.000000" x2="84.000000" y2="108.000000"  transform="rotate(0.000000,84.000000,108.000000)" style="stroke: black; stroke-width:0.25;"/>
<line x1="81.000000" y1="109.000000" x2="84.000000" y2="108.000000"  transform="rotate(0.000000,84.000000,108.000000)" style="stroke: black; stroke-width:0.25;"/>
<line x1="81.000000" y1="115.000000" x2="84.000000" y2="116.000000"  transform="rotate(0.000000,84.000000,116.000000)" style="stroke: black; stroke-width:0.25;"/>
<line x1="81.000000" y1="117.000000" x2="84.000000" y2="116.000000"  transform="rotate(0.000000,84.000000,116.000000)" style="stroke: black; stroke-width:0.25;"/>
<rect x="178.000000" y="55.000000" width="24.000000" height="24.000000" rx="0.1" ry="0.1" style="stroke:none;fill:#aaaaaa;;filter:url(#filter);"/>
<rect x="177.000000" y="54.000000" width="24.000000" height="24.000000" rx="0" ry="0" style="stroke:none;fill:#4B71A1;"/>
<text x="189.000000" y="68.000000" font-family="Arial" font-size="7" text-anchor="middle" fill="#FFFFFF">-</text>
<circle cx="179.000000" cy="56.000000" r="1"/>
<line x1="174.000000" y1="61.000000" x2="177.000000" y2="62.000000"  transform="rotate(0.000000,177.000000,62.000000)" style="stroke: black; stroke-width:0.25;"/>
<line x1="174.000000" y1="63.000000" x2="177.000000" y2="62.000000"  transform="rotate(0.000000,177.000000,62.000000)" style="stroke: black; stroke-width:0.25;"/>
<line x1="174.000000" y1="69.000000" x2="177.000000" y2="70.000000"  transform="rotate(0.000000,177.000000,70.000000)" style="stroke: black; stroke-width:0.25;"/>
<line x1="174.000000" y1="71.000000" x2="177.000000" y2="70.000000"  transform="rotate(0.000000,177.000000,70.000000)" style="stroke: black; stroke-width:0.25;"/>
<a xlink:href="DelTime-0x1e7dc90.svg">
<rect x="220.650000" y="33.000000" width="38.700000" height="24.000000" rx="0.1" ry="0.1" style="stroke:none;fill:#aaaaaa;;filter:url(#filter);"/>
<rect x="219.650000" y="32.000000" width="38.700000" height="24.000000" rx="0" ry="0" style="stroke:none;fill:#003366;"/>
</a>
<a xlink:href="DelTime-0x1e7dc90.svg">
<text x="239.000000" y="46.000000" font-family="Arial" font-size="7" text-anchor="middle" fill="#FFFFFF">DelTime</text>
</a>
<circle cx="221.650000" cy="34.000000" r="1"/>
<rect x="228.000000" y="75.000000" width="24.000000" height="24.000000" rx="0.1" ry="0.1" style="stroke:none;fill:#aaaaaa;;filter:url(#filter);"/>
<rect x="227.000000" y="74.000000" width="24.000000" height="24.000000" rx="0" ry="0" style="stroke:none;fill:#f44800;"/>
<text x="239.000000" y="88.000000" font-family="Arial" font-size="7" text-anchor="middle" fill="#FFFFFF">2</text>
<circle cx="229.000000" cy="76.000000" r="1"/>
<line x1="218.000000" y1="65.000000" x2="218.000000" y2="107.000000"  style="stroke: black; stroke-linecap:round; stroke-width:0.25; stroke-dasharray:3,3;"/>
<line x1="218.000000" y1="107.000000" x2="260.000000" y2="107.000000"  style="stroke: black; stroke-linecap:round; stroke-width:0.25; stroke-dasharray:3,3;"/>
<line x1="260.000000" y1="107.000000" x2="260.000000" y2="65.000000"  style="stroke: black; stroke-linecap:round; stroke-width:0.25; stroke-dasharray:3,3;"/>
<line x1="218.000000" y1="65.000000" x2="223.000000" y2="65.000000"  style="stroke: black; stroke-linecap:round; stroke-width:0.25; stroke-dasharray:3,3;"/>
<line x1="242.350000" y1="65.000000" x2="260.000000" y2="65.000000"  style="stroke: black; stroke-linecap:round; stroke-width:0.25; stroke-dasharray:3,3;"/>
<text x="223.000000" y="67.000000" font-family="Arial" font-size="7">maxN</text>
<rect x="278.000000" y="59.000000" width="24.000000" height="24.000000" rx="0.1" ry="0.1" style="stroke:none;fill:#aaaaaa;;filter:url(#filter);"/>
<rect x="277.000000" y="58.000000" width="24.000000" height="24.000000" rx="0" ry="0" style="stroke:none;fill:#4B71A1;"/>
<text x="289.000000" y="72.000000" font-family="Arial" font-size="7" text-anchor="middle" fill="#FFFFFF">*</text>
<circle cx="279.000000" cy="60.000000" r="1"/>
<line x1="274.000000" y1="65.000000" x2="277.000000" y2="66.000000"  transform="rotate(0.000000,277.000000,66.000000)" style="stroke: black; stroke-width:0.25;"/>
<line x1="274.000000" y1="67.000000" x2="277.000000" y2="66.000000"  transform="rotate(0.000000,277.000000,66.000000)" style="stroke: black; stroke-width:0.25;"/>
<line x1="274.000000" y1="73.000000" x2="277.000000" y2="74.000000"  transform="rotate(0.000000,277.000000,74.000000)" style="stroke: black; stroke-width:0.25;"/>
<line x1="274.000000" y1="75.000000" x2="277.000000" y2="74.000000"  transform="rotate(0.000000,277.000000,74.000000)" style="stroke: black; stroke-width:0.25;"/>
<rect x="310.000000" y="59.000000" width="24.000000" height="24.000000" rx="0.1" ry="0.1" style="stroke:none;fill:#aaaaaa;;filter:url(#filter);"/>
<rect x="309.000000" y="58.000000" width="24.000000" height="24.000000" rx="0" ry="0" style="stroke:none;fill:#4B71A1;"/>
<text x="321.000000" y="72.000000" font-family="Arial" font-size="7" text-anchor="middle" fill="#FFFFFF">int</text>
<circle cx="311.000000" cy="60.000000" r="1"/>
<line x1="306.000000" y1="69.000000" x2="309.000000" y2="70.000000"  transform="rotate(0.000000,309.000000,70.000000)" style="stroke: black; stroke-width:0.25;"/>
<line x1="306.000000" y1="71.000000" x2="309.000000" y2="70.000000"  transform="rotate(0.000000,309.000000,70.000000)" style="stroke: black; stroke-width:0.25;"/>
<rect x="350.000000" y="55.000000" width="24.000000" height="24.000000" rx="0.1" ry="0.1" style="stroke:none;fill:#aaaaaa;;filter:url(#filter);"/>
<rect x="349.000000" y="54.000000" width="24.000000" height="24.000000" rx="0" ry="0" style="stroke:none;fill:#4B71A1;"/>
<text x="361.000000" y="68.000000" font-family="Arial" font-size="7" text-anchor="middle" fill="#FFFFFF">@</text>
<circle cx="351.000000" cy="56.000000" r="1"/>
<line x1="346.000000" y1="61.000000" x2="349.000000" y2="62.000000"  transform="rotate(0.000000,349.000000,62.000000)" style="stroke: black; stroke-width:0.25;"/>
<line x1="346.000000" y1="63.000000" x2="349.000000" y2="62.000000"  transform="rotate(0.000000,349.000000,62.000000)" style="stroke: black; stroke-width:0.25;"/>
<line x1="346.000000" y1="69.000000" x2="349.000000" y2="70.000000"  transform="rotate(0.000000,349.000000,70.000000)" style="stroke: black; stroke-width:0.25;"/>
<line x1="346.000000" y1="71.000000" x2="349.000000" y2="70.000000"  transform="rotate(0.000000,349.000000,70.000000)" style="stroke: black; stroke-width:0.25;"/>
<rect x="264.000000" y="117.000000" width="24.000000" height="24.000000" rx="0.1" ry="0.1" style="stroke:none;fill:#aaaaaa;;filter:url(#filter);"/>
<rect x="263.000000" y="116.000000" width="24.000000" height="24.000000" rx="0" ry="0" style="stroke:none;fill:#4B71A1;"/>
<text x="275.000000" y="130.000000" font-family="Arial" font-size="7" text-anchor="middle" fill="#FFFFFF">+</text>
<circle cx="265.000000" cy="118.000000" r="1"/>
<line x1="260.000000" y1="123.000000" x2="263.000000" y2="124.000000"  transform="rotate(0.000000,263.000000,124.000000)" style="stroke: black; stroke-width:0.25;"/>
<line x1="260.000000" y1="125.000000" x2="263.000000" y2="124.000000"  transform="rotate(0.000000,263.000000,124.000000)" style="stroke: black; stroke-width:0.25;"/>
<line x1="260.000000" y1="131.000000" x2="263.000000" y2="132.000000"  transform="rotate(0.000000,263.000000,132.000000)" style="stroke: black; stroke-width:0.25;"/>
<line x1="260.000000" y1="133.000000" x2="263.000000" y2="132.000000"  transform="rotate(0.000000,263.000000,132.000000)" style="stroke: black; stroke-width:0.25;"/>
<line x1="15.000000" y1="15.000000" x2="15.000000" y2="149.000000"  style="stroke: black; stroke-linecap:round; stroke-width:0.25; stroke-dasharray:3,3;"/>
<line x1="15.000000" y1="149.000000" x2="382.000000" y2="149.000000"  style="stroke: black; stroke-linecap:round; stroke-width:0.25; stroke-dasharray:3,3;"/>
<line x1="382.000000" y1="149.000000" x2="382.000000" y2="15.000000"  style="stroke: black; stroke-linecap:round; stroke-width:0.25; stroke-dasharray:3,3;"/>
<line x1="15.000000" y1="15.000000" x2="20.000000" y2="15.000000"  style="stroke: black; stroke-linecap:round; stroke-width:0.25; stroke-dasharray:3,3;"/>
<line x1="45.800000" y1="15.000000" x2="382.000000" y2="15.000000"  style="stroke: black; stroke-linecap:round; stroke-width:0.25; stroke-dasharray:3,3;"/>
<text x="20.000000" y="17.000000" font-family="Arial" font-size="7">Del(2)</text>
<line x1="384.000000" y1="65.000000" x2="387.000000" y2="66.000000"  transform="rotate(0.000000,387.000000,66.000000)" style="stroke: black; stroke-width:0.25;"/>
<line x1="384.000000" y1="67.000000" x2="387.000000" y2="66.000000"  transform="rotate(0.000000,387.000000,66.000000)" style="stroke: black; stroke-width:0.25;"/>
<line x1="384.000000" y1="127.000000" x2="387.000000" y2="128.000000"  transform="rotate(0.000000,387.000000,128.000000)" style="stroke: black; stroke-width:0.25;"/>
<line x1="384.000000" y1="129.000000" x2="387.000000" y2="128.000000"  transform="rotate(0.000000,387.000000,128.000000)" style="stroke: black; stroke-width:0.25;"/>
<line x1="10.000000" y1="26.000000" x2="20.000000" y2="26.000000"  style="stroke:black; stroke-linecap:round; stroke-width:0.25;"/>
<line x1="10.000000" y1="86.000000" x2="20.000000" y2="86.000000"  style="stroke:black; stroke-linecap:round; stroke-width:0.25;"/>
<line x1="20.000000" y1="26.000000" x2="46.000000" y2="26.000000"  style="stroke:black; stroke-linecap:round; stroke-width:0.25;"/>
<line x1="20.000000" y1="86.000000" x2="46.000000" y2="86.000000"  style="stroke:black; stroke-linecap:round; stroke-width:0.25;"/>
<line x1="46.000000" y1="26.000000" x2="72.000000" y2="26.000000"  style="stroke:black; stroke-linecap:round; stroke-width:0.25;"/>
<line x1="46.000000" y1="86.000000" x2="72.000000" y2="86.000000"  style="stroke:black; stroke-linecap:round; stroke-width:0.25;"/>
<line x1="58.000000" y1="56.000000" x2="62.000000" y2="56.000000"  style="stroke:black; stroke-linecap:round; stroke-width:0.25;"/>
<line x1="58.000000" y1="116.000000" x2="62.000000" y2="116.000000"  style="stroke:black; stroke-linecap:round; stroke-width:0.25;"/>
<line x1="62.000000" y1="56.000000" x2="72.000000" y2="56.000000"  style="stroke:black; stroke-linecap:round; stroke-width:0.25;"/>
<line x1="62.000000" y1="116.000000" x2="72.000000" y2="116.000000"  style="stroke:black; stroke-linecap:round; stroke-width:0.25;"/>
<line x1="72.000000" y1="26.000000" x2="80.000000" y2="26.000000"  style="stroke:black; stroke-linecap:round; stroke-width:0.25;"/>
<line x1="72.000000" y1="56.000000" x2="80.000000" y2="56.000000"  style="stroke:black; stroke-linecap:round; stroke-width:0.25;"/>
<line x1="72.000000" y1="86.000000" x2="80.000000" y2="86.000000"  style="stroke:black; stroke-linecap:round; stroke-width:0.25;"/>
<line x1="72.000000" y1="116.000000" x2="80.000000" y2="116.000000"  style="stroke:black; stroke-linecap:round; stroke-width:0.25;"/>
<line x1="80.000000" y1="26.000000" x2="80.000000" y2="48.000000"  style="stroke:black; stroke-linecap:round; stroke-width:0.25;"/>
<line x1="80.000000" y1="48.000000" x2="80.000000" y2="48.000000"  style="stroke:black; stroke-linecap:round; stroke-width:0.25;"/>
<line x1="80.000000" y1="48.000000" x2="84.000000" y2="48.000000"  style="stroke:black; stroke-linecap:round; stroke-width:0.25;"/>
<line x1="80.000000" y1="56.000000" x2="84.000000" y2="56.000000"  style="stroke:black; stroke-linecap:round; stroke-width:0.25;"/>
<line x1="80.000000" y1="86.000000" x2="80.000000" y2="108.000000"  style="stroke:black; stroke-linecap:round; stroke-width:0.25;"/>
<line x1="80.000000" y1="108.000000" x2="80.000000" y2="108.000000"  style="stroke:black; stroke-linecap:round; stroke-width:0.25;"/>
<line x1="80.000000" y1="108.000000" x2="84.000000" y2="108.000000"  style="stroke:black; stroke-linecap:round; stroke-width:0.25;"/>
<line x1="80.000000" y1="116.000000" x2="84.000000" y2="116.000000"  style="stroke:black; stroke-linecap:round; stroke-width:0.25;"/>
<line x1="108.000000" y1="52.000000" x2="112.000000" y2="52.000000"  style="stroke:black; stroke-linecap:round; stroke-width:0.25;"/>
<line x1="108.000000" y1="112.000000" x2="112.000000" y2="112.000000"  style="stroke:black; stroke-linecap:round; stroke-width:0.25;"/>
<line x1="112.000000" y1="52.000000" x2="173.000000" y2="62.000000"  style="stroke:black; stroke-linecap:round; stroke-width:0.25;"/>
<line x1="112.000000" y1="52.000000" x2="173.000000" y2="124.000000"  style="stroke:black; stroke-linecap:round; stroke-width:0.25;"/>
<line x1="112.000000" y1="112.000000" x2="173.000000" y2="70.000000"  style="stroke:black; stroke-linecap:round; stroke-width:0.25;"/>
<line x1="112.000000" y1="112.000000" x2="173.000000" y2="132.000000"  style="stroke:black; stroke-linecap:round; stroke-width:0.25;"/>
<line x1="173.000000" y1="62.000000" x2="173.000000" y2="62.000000"  style="stroke:black; stroke-linecap:round; stroke-width:0.25;"/>
<line x1="173.000000" y1="62.000000" x2="177.000000" y2="62.000000"  style="stroke:black; stroke-linecap:round; stroke-width:0.25;"/>
<line x1="173.000000" y1="70.000000" x2="173.000000" y2="70.000000"  style="stroke:black; stroke-linecap:round; stroke-width:0.25;"/>
<line x1="173.000000" y1="70.000000" x2="177.000000" y2="70.000000"  style="stroke:black; stroke-linecap:round; stroke-width:0.25;"/>
<line x1="173.000000" y1="124.000000" x2="259.000000" y2="124.000000"  style="stroke:black; stroke-linecap:round; stroke-width:0.25;"/>
<line x1="173.000000" y1="132.000000" x2="259.000000" y2="132.000000"  style="stroke:black; stroke-linecap:round; stroke-width:0.25;"/>
<line x1="201.000000" y1="66.000000" x2="205.000000" y2="66.000000"  style="stroke:black; stroke-linecap:round; stroke-width:0.25;"/>
<line x1="205.000000" y1="24.000000" x2="213.000000" y2="24.000000"  style="stroke:black; stroke-linecap:round; stroke-width:0.25;"/>
<line x1="205.000000" y1="66.000000" x2="205.000000" y2="24.000000"  style="stroke:black; stroke-linecap:round; stroke-width:0.25;"/>
<line x1="205.000000" y1="66.000000" x2="205.000000" y2="66.000000"  style="stroke:black; stroke-linecap:round; stroke-width:0.25;"/>
<line x1="213.000000" y1="24.000000" x2="275.000000" y2="24.000000"  style="stroke:black; stroke-linecap:round; stroke-width:0.25;"/>
<line x1="251.000000" y1="86.000000" x2="255.000000" y2="86.000000"  style="stroke:black; stroke-linecap:round; stroke-width:0.25;"/>
<line x1="255.000000" y1="86.000000" x2="265.000000" y2="86.000000"  style="stroke:black; stroke-linecap:round; stroke-width:0.25;"/>
<line x1="258.350000" y1="44.000000" x2="262.350000" y2="44.000000"  style="stroke:black; stroke-linecap:round; stroke-width:0.25;"/>
<line x1="259.000000" y1="124.000000" x2="259.000000" y2="124.000000"  style="stroke:black; stroke-linecap:round; stroke-width:0.25;"/>
<line x1="259.000000" y1="124.000000" x2="263.000000" y2="124.000000"  style="stroke:black; stroke-linecap:round; stroke-width:0.25;"/>
<line x1="259.000000" y1="132.000000" x2="259.000000" y2="132.000000"  style="stroke:black; stroke-linecap:round; stroke-width:0.25;"/>
<line x1="259.000000" y1="132.000000" x2="263.000000" y2="132.000000"  style="stroke:black; stroke-linecap:round; stroke-width:0.25;"/>
<line x1="262.350000" y1="44.000000" x2="265.000000" y2="44.000000"  style="stroke:black; stroke-linecap:round; stroke-width:0.25;"/>
<line x1="265.000000" y1="44.000000" x2="273.000000" y2="44.000000"  style="stroke:black; stroke-linecap:round; stroke-width:0.25;"/>
<line x1="265.000000" y1="74.000000" x2="273.000000" y2="74.000000"  style="stroke:black; stroke-linecap:round; stroke-width:0.25;"/>
<line x1="265.000000" y1="86.000000" x2="265.000000" y2="74.000000"  style="stroke:black; stroke-linecap:round; stroke-width:0.25;"/>
<line x1="265.000000" y1="86.000000" x2="265.000000" y2="86.000000"  style="stroke:black; stroke-linecap:round; stroke-width:0.25;"/>
<line x1="273.000000" y1="44.000000" x2="273.000000" y2="66.000000"  style="stroke:black; stroke-linecap:round; stroke-width:0.25;"/>
<line x1="273.000000" y1="66.000000" x2="273.000000" y2="66.000000"  style="stroke:black; stroke-linecap:round; stroke-width:0.25;"/>
<line x1="273.000000" y1="66.000000" x2="277.000000" y2="66.000000"  style="stroke:black; stroke-linecap:round; stroke-width:0.25;"/>
<line x1="273.000000" y1="74.000000" x2="277.000000" y2="74.000000"  style="stroke:black; stroke-linecap:round; stroke-width:0.25;"/>
<line x1="275.000000" y1="24.000000" x2="337.000000" y2="24.000000"  style="stroke:black; stroke-linecap:round; stroke-width:0.25;"/>
<line x1="287.000000" y1="128.000000" x2="291.000000" y2="128.000000"  style="stroke:black; stroke-linecap:round; stroke-width:0.25;"/>
<line x1="291.000000" y1="128.000000" x2="377.000000" y2="128.000000"  style="stroke:black; stroke-linecap:round; stroke-width:0.25;"/>
<line x1="301.000000" y1="70.000000" x2="305.000000" y2="70.000000"  style="stroke:black; stroke-linecap:round; stroke-width:0.25;"/>
<line x1="305.000000" y1="70.000000" x2="305.000000" y2="70.000000"  style="stroke:black; stroke-linecap:round; stroke-width:0.25;"/>
<line x1="305.000000" y1="70.000000" x2="309.000000" y2="70.000000"  style="stroke:black; stroke-linecap:round; stroke-width:0.25;"/>
<line x1="333.000000" y1="70.000000" x2="337.000000" y2="70.000000"  style="stroke:black; stroke-linecap:round; stroke-width:0.25;"/>
<line x1="337.000000" y1="24.000000" x2="345.000000" y2="24.000000"  style="stroke:black; stroke-linecap:round; stroke-width:0.25;"/>
<line x1="337.000000" y1="70.000000" x2="345.000000" y2="70.000000"  style="stroke:black; stroke-linecap:round; stroke-width:0.25;"/>
<line x1="345.000000" y1="24.000000" x2="345.000000" y2="62.000000"  style="stroke:black; stroke-linecap:round; stroke-width:0.25;"/>
<line x1="345.000000" y1="62.000000" x2="345.000000" y2="62.000000"  style="stroke:black; stroke-linecap:round; stroke-width:0.25;"/>
<line x1="345.000000" y1="62.000000" x2="349.000000" y2="62.000000"  style="stroke:black; stroke-linecap:round; stroke-width:0.25;"/>
<line x1="345.000000" y1="70.000000" x2="349.000000" y2="70.000000"  style="stroke:black; stroke-linecap:round; stroke-width:0.25;"/>
<line x1="373.000000" y1="66.000000" x2="377.000000" y2="66.000000"  style="stroke:black; stroke-linecap:round; stroke-width:0.25;"/>
<line x1="377.000000" y1="66.000000" x2="387.000000" y2="66.000000"  style="stroke:black; stroke-linecap:round; stroke-width:0.25;"/>
<line x1="377.000000" y1="128.000000" x2="387.000000" y2="128.000000"  style="stroke:black; stroke-linecap:round; stroke-width:0.25;"/>
</svg>
