<?xml version="1.0"?>
<svg xmlns="http://www.w3.org/2000/svg" xmlns:xlink="http://www.w3.org/1999/xlink" viewBox="0 0 406.100000 200.000000" width="203.050000mm" height="100.000000mm" version="1.1">
<defs>
   <filter id="filter" filterRes="18" x="0" y="0">
     <feGaussianBlur in="SourceGraphic" stdDeviation="1.55" result="blur"/>
     <feOffset in="blur" dx="3" dy="3"/>
   </filter>
</defs>
<rect x="1.000000" y="1.000000" width="405.100000" height="199.000000" rx="0.1" ry="0.1" style="stroke:none;fill:#aaaaaa;;filter:url(#filter);"/>
<rect x="0.000000" y="0.000000" width="405.100000" height="199.000000" rx="0" ry="0" style="stroke:none;fill:#ffffff;"/>
<text x="10.000000" y="7.000000" font-family="Arial" font-size="7"></text>
<a xlink:href="Volumeinputdry-0x1dbe3f0.svg">
<rect x="152.800000" y="33.000000" width="64.500000" height="24.000000" rx="0.1" ry="0.1" style="stroke:none;fill:#aaaaaa;;filter:url(#filter);"/>
<rect x="151.800000" y="32.000000" width="64.500000" height="24.000000" rx="0" ry="0" style="stroke:none;fill:#003366;"/>
</a>
<a xlink:href="Volumeinputdry-0x1dbe3f0.svg">
<text x="184.050000" y="46.000000" font-family="Arial" font-size="7" text-anchor="middle" fill="#FFFFFF">Volumeinputdry</text>
</a>
<circle cx="153.800000" cy="34.000000" r="1"/>
<rect x="233.300000" y="29.000000" width="24.000000" height="24.000000" rx="0.1" ry="0.1" style="stroke:none;fill:#aaaaaa;;filter:url(#filter);"/>
<rect x="232.300000" y="28.000000" width="24.000000" height="24.000000" rx="0" ry="0" style="stroke:none;fill:#4B71A1;"/>
<text x="244.300000" y="42.000000" font-family="Arial" font-size="7" text-anchor="middle" fill="#FFFFFF">*</text>
<circle cx="234.300000" cy="30.000000" r="1"/>
<line x1="229.300000" y1="35.000000" x2="232.300000" y2="36.000000"  transform="rotate(0.000000,232.300000,36.000000)" style="stroke: black; stroke-width:0.25;"/>
<line x1="229.300000" y1="37.000000" x2="232.300000" y2="36.000000"  transform="rotate(0.000000,232.300000,36.000000)" style="stroke: black; stroke-width:0.25;"/>
<line x1="229.300000" y1="43.000000" x2="232.300000" y2="44.000000"  transform="rotate(0.000000,232.300000,44.000000)" style="stroke: black; stroke-width:0.25;"/>
<line x1="229.300000" y1="45.000000" x2="232.300000" y2="44.000000"  transform="rotate(0.000000,232.300000,44.000000)" style="stroke: black; stroke-width:0.25;"/>
<a xlink:href="Febaroute2-0x1eb0260.svg">
<rect x="75.000000" y="89.000000" width="51.600000" height="24.000000" rx="0.1" ry="0.1" style="stroke:none;fill:#aaaaaa;;filter:url(#filter);"/>
<rect x="74.000000" y="88.000000" width="51.600000" height="24.000000" rx="0" ry="0" style="stroke:none;fill:#003366;"/>
</a>
<a xlink:href="Febaroute2-0x1eb0260.svg">
<text x="99.800000" y="102.000000" font-family="Arial" font-size="7" text-anchor="middle" fill="#FFFFFF">Febaroute2</text>
</a>
<circle cx="76.000000" cy="90.000000" r="1"/>
<line x1="71.000000" y1="99.000000" x2="74.000000" y2="100.000000"  transform="rotate(0.000000,74.000000,100.000000)" style="stroke: black; stroke-width:0.25;"/>
<line x1="71.000000" y1="101.000000" x2="74.000000" y2="100.000000"  transform="rotate(0.000000,74.000000,100.000000)" style="stroke: black; stroke-width:0.25;"/>
<rect x="142.600000" y="73.000000" width="24.000000" height="24.000000" rx="0.1" ry="0.1" style="stroke:none;fill:#aaaaaa;;filter:url(#filter);"/>
<rect x="141.600000" y="72.000000" width="24.000000" height="24.000000" rx="0" ry="0" style="stroke:none;fill:#f44800;"/>
<text x="153.600000" y="86.000000" font-family="Arial" font-size="7" text-anchor="middle" fill="#FFFFFF">1</text>
<circle cx="143.600000" cy="74.000000" r="1"/>
<rect x="182.600000" y="69.000000" width="24.000000" height="24.000000" rx="0.1" ry="0.1" style="stroke:none;fill:#aaaaaa;;filter:url(#filter);"/>
<rect x="181.600000" y="68.000000" width="24.000000" height="24.000000" rx="0" ry="0" style="stroke:none;fill:#4B71A1;"/>
<text x="193.600000" y="82.000000" font-family="Arial" font-size="7" text-anchor="middle" fill="#FFFFFF">/</text>
<circle cx="183.600000" cy="70.000000" r="1"/>
<line x1="178.600000" y1="75.000000" x2="181.600000" y2="76.000000"  transform="rotate(0.000000,181.600000,76.000000)" style="stroke: black; stroke-width:0.25;"/>
<line x1="178.600000" y1="77.000000" x2="181.600000" y2="76.000000"  transform="rotate(0.000000,181.600000,76.000000)" style="stroke: black; stroke-width:0.25;"/>
<line x1="178.600000" y1="83.000000" x2="181.600000" y2="84.000000"  transform="rotate(0.000000,181.600000,84.000000)" style="stroke: black; stroke-width:0.25;"/>
<line x1="178.600000" y1="85.000000" x2="181.600000" y2="84.000000"  transform="rotate(0.000000,181.600000,84.000000)" style="stroke: black; stroke-width:0.25;"/>
<rect x="142.600000" y="113.000000" width="24.000000" height="24.000000" rx="0.1" ry="0.1" style="stroke:none;fill:#aaaaaa;;filter:url(#filter);"/>
<rect x="141.600000" y="112.000000" width="24.000000" height="24.000000" rx="0" ry="0" style="stroke:none;fill:#f44800;"/>
<text x="153.600000" y="126.000000" font-family="Arial" font-size="7" text-anchor="middle" fill="#FFFFFF">1</text>
<circle cx="143.600000" cy="114.000000" r="1"/>
<rect x="182.600000" y="109.000000" width="24.000000" height="24.000000" rx="0.1" ry="0.1" style="stroke:none;fill:#aaaaaa;;filter:url(#filter);"/>
<rect x="181.600000" y="108.000000" width="24.000000" height="24.000000" rx="0" ry="0" style="stroke:none;fill:#4B71A1;"/>
<text x="193.600000" y="122.000000" font-family="Arial" font-size="7" text-anchor="middle" fill="#FFFFFF">/</text>
<circle cx="183.600000" cy="110.000000" r="1"/>
<line x1="178.600000" y1="115.000000" x2="181.600000" y2="116.000000"  transform="rotate(0.000000,181.600000,116.000000)" style="stroke: black; stroke-width:0.25;"/>
<line x1="178.600000" y1="117.000000" x2="181.600000" y2="116.000000"  transform="rotate(0.000000,181.600000,116.000000)" style="stroke: black; stroke-width:0.25;"/>
<line x1="178.600000" y1="123.000000" x2="181.600000" y2="124.000000"  transform="rotate(0.000000,181.600000,124.000000)" style="stroke: black; stroke-width:0.25;"/>
<line x1="178.600000" y1="125.000000" x2="181.600000" y2="124.000000"  transform="rotate(0.000000,181.600000,124.000000)" style="stroke: black; stroke-width:0.25;"/>
<a xlink:href="Volumeinputwet-0x1dbfad0.svg">
<rect x="230.600000" y="73.000000" width="64.500000" height="24.000000" rx="0.1" ry="0.1" style="stroke:none;fill:#aaaaaa;;filter:url(#filter);"/>
<rect x="229.600000" y="72.000000" width="64.500000" height="24.000000" rx="0" ry="0" style="stroke:none;fill:#003366;"/>
</a>
<a xlink:href="Volumeinputwet-0x1dbfad0.svg">
<text x="261.850000" y="86.000000" font-family="Arial" font-size="7" text-anchor="middle" fill="#FFFFFF">Volumeinputwet</text>
</a>
<circle cx="231.600000" cy="74.000000" r="1"/>
<rect x="311.100000" y="69.000000" width="24.000000" height="24.000000" rx="0.1" ry="0.1" style="stroke:none;fill:#aaaaaa;;filter:url(#filter);"/>
<rect x="310.100000" y="68.000000" width="24.000000" height="24.000000" rx="0" ry="0" style="stroke:none;fill:#4B71A1;"/>
<text x="322.100000" y="82.000000" font-family="Arial" font-size="7" text-anchor="middle" fill="#FFFFFF">*</text>
<circle cx="312.100000" cy="70.000000" r="1"/>
<line x1="307.100000" y1="75.000000" x2="310.100000" y2="76.000000"  transform="rotate(0.000000,310.100000,76.000000)" style="stroke: black; stroke-width:0.25;"/>
<line x1="307.100000" y1="77.000000" x2="310.100000" y2="76.000000"  transform="rotate(0.000000,310.100000,76.000000)" style="stroke: black; stroke-width:0.25;"/>
<line x1="307.100000" y1="83.000000" x2="310.100000" y2="84.000000"  transform="rotate(0.000000,310.100000,84.000000)" style="stroke: black; stroke-width:0.25;"/>
<line x1="307.100000" y1="85.000000" x2="310.100000" y2="84.000000"  transform="rotate(0.000000,310.100000,84.000000)" style="stroke: black; stroke-width:0.25;"/>
<a xlink:href="Volumeinputwet-0x1dbfad0.svg">
<rect x="230.600000" y="113.000000" width="64.500000" height="24.000000" rx="0.1" ry="0.1" style="stroke:none;fill:#aaaaaa;;filter:url(#filter);"/>
<rect x="229.600000" y="112.000000" width="64.500000" height="24.000000" rx="0" ry="0" style="stroke:none;fill:#003366;"/>
</a>
<a xlink:href="Volumeinputwet-0x1dbfad0.svg">
<text x="261.850000" y="126.000000" font-family="Arial" font-size="7" text-anchor="middle" fill="#FFFFFF">Volumeinputwet</text>
</a>
<circle cx="231.600000" cy="114.000000" r="1"/>
<rect x="311.100000" y="109.000000" width="24.000000" height="24.000000" rx="0.1" ry="0.1" style="stroke:none;fill:#aaaaaa;;filter:url(#filter);"/>
<rect x="310.100000" y="108.000000" width="24.000000" height="24.000000" rx="0" ry="0" style="stroke:none;fill:#4B71A1;"/>
<text x="322.100000" y="122.000000" font-family="Arial" font-size="7" text-anchor="middle" fill="#FFFFFF">*</text>
<circle cx="312.100000" cy="110.000000" r="1"/>
<line x1="307.100000" y1="115.000000" x2="310.100000" y2="116.000000"  transform="rotate(0.000000,310.100000,116.000000)" style="stroke: black; stroke-width:0.25;"/>
<line x1="307.100000" y1="117.000000" x2="310.100000" y2="116.000000"  transform="rotate(0.000000,310.100000,116.000000)" style="stroke: black; stroke-width:0.25;"/>
<line x1="307.100000" y1="123.000000" x2="310.100000" y2="124.000000"  transform="rotate(0.000000,310.100000,124.000000)" style="stroke: black; stroke-width:0.25;"/>
<line x1="307.100000" y1="125.000000" x2="310.100000" y2="124.000000"  transform="rotate(0.000000,310.100000,124.000000)" style="stroke: black; stroke-width:0.25;"/>
<a xlink:href="Volumeinputdry-0x1dbe3f0.svg">
<rect x="152.800000" y="153.000000" width="64.500000" height="24.000000" rx="0.1" ry="0.1" style="stroke:none;fill:#aaaaaa;;filter:url(#filter);"/>
<rect x="151.800000" y="152.000000" width="64.500000" height="24.000000" rx="0" ry="0" style="stroke:none;fill:#003366;"/>
</a>
<a xlink:href="Volumeinputdry-0x1dbe3f0.svg">
<text x="184.050000" y="166.000000" font-family="Arial" font-size="7" text-anchor="middle" fill="#FFFFFF">Volumeinputdry</text>
</a>
<circle cx="153.800000" cy="154.000000" r="1"/>
<rect x="233.300000" y="149.000000" width="24.000000" height="24.000000" rx="0.1" ry="0.1" style="stroke:none;fill:#aaaaaa;;filter:url(#filter);"/>
<rect x="232.300000" y="148.000000" width="24.000000" height="24.000000" rx="0" ry="0" style="stroke:none;fill:#4B71A1;"/>
<text x="244.300000" y="162.000000" font-family="Arial" font-size="7" text-anchor="middle" fill="#FFFFFF">*</text>
<circle cx="234.300000" cy="150.000000" r="1"/>
<line x1="229.300000" y1="155.000000" x2="232.300000" y2="156.000000"  transform="rotate(0.000000,232.300000,156.000000)" style="stroke: black; stroke-width:0.25;"/>
<line x1="229.300000" y1="157.000000" x2="232.300000" y2="156.000000"  transform="rotate(0.000000,232.300000,156.000000)" style="stroke: black; stroke-width:0.25;"/>
<line x1="229.300000" y1="163.000000" x2="232.300000" y2="164.000000"  transform="rotate(0.000000,232.300000,164.000000)" style="stroke: black; stroke-width:0.25;"/>
<line x1="229.300000" y1="165.000000" x2="232.300000" y2="164.000000"  transform="rotate(0.000000,232.300000,164.000000)" style="stroke: black; stroke-width:0.25;"/>
<rect x="359.100000" y="73.000000" width="24.000000" height="24.000000" rx="0.1" ry="0.1" style="stroke:none;fill:#aaaaaa;;filter:url(#filter);"/>
<rect x="358.100000" y="72.000000" width="24.000000" height="24.000000" rx="0" ry="0" style="stroke:none;fill:#4B71A1;"/>
<text x="370.100000" y="86.000000" font-family="Arial" font-size="7" text-anchor="middle" fill="#FFFFFF">+</text>
<circle cx="360.100000" cy="74.000000" r="1"/>
<line x1="355.100000" y1="79.000000" x2="358.100000" y2="80.000000"  transform="rotate(0.000000,358.100000,80.000000)" style="stroke: black; stroke-width:0.25;"/>
<line x1="355.100000" y1="81.000000" x2="358.100000" y2="80.000000"  transform="rotate(0.000000,358.100000,80.000000)" style="stroke: black; stroke-width:0.25;"/>
<line x1="355.100000" y1="87.000000" x2="358.100000" y2="88.000000"  transform="rotate(0.000000,358.100000,88.000000)" style="stroke: black; stroke-width:0.25;"/>
<line x1="355.100000" y1="89.000000" x2="358.100000" y2="88.000000"  transform="rotate(0.000000,358.100000,88.000000)" style="stroke: black; stroke-width:0.25;"/>
<rect x="359.100000" y="105.000000" width="24.000000" height="24.000000" rx="0.1" ry="0.1" style="stroke:none;fill:#aaaaaa;;filter:url(#filter);"/>
<rect x="358.100000" y="104.000000" width="24.000000" height="24.000000" rx="0" ry="0" style="stroke:none;fill:#4B71A1;"/>
<text x="370.100000" y="118.000000" font-family="Arial" font-size="7" text-anchor="middle" fill="#FFFFFF">+</text>
<circle cx="360.100000" cy="106.000000" r="1"/>
<line x1="355.100000" y1="111.000000" x2="358.100000" y2="112.000000"  transform="rotate(0.000000,358.100000,112.000000)" style="stroke: black; stroke-width:0.25;"/>
<line x1="355.100000" y1="113.000000" x2="358.100000" y2="112.000000"  transform="rotate(0.000000,358.100000,112.000000)" style="stroke: black; stroke-width:0.25;"/>
<line x1="355.100000" y1="119.000000" x2="358.100000" y2="120.000000"  transform="rotate(0.000000,358.100000,120.000000)" style="stroke: black; stroke-width:0.25;"/>
<line x1="355.100000" y1="121.000000" x2="358.100000" y2="120.000000"  transform="rotate(0.000000,358.100000,120.000000)" style="stroke: black; stroke-width:0.25;"/>
<line x1="15.000000" y1="15.000000" x2="15.000000" y2="185.000000"  style="stroke: black; stroke-linecap:round; stroke-width:0.25; stroke-dasharray:3,3;"/>
<line x1="15.000000" y1="185.000000" x2="391.100000" y2="185.000000"  style="stroke: black; stroke-linecap:round; stroke-width:0.25; stroke-dasharray:3,3;"/>
<line x1="391.100000" y1="185.000000" x2="391.100000" y2="15.000000"  style="stroke: black; stroke-linecap:round; stroke-width:0.25; stroke-dasharray:3,3;"/>
<line x1="15.000000" y1="15.000000" x2="20.000000" y2="15.000000"  style="stroke: black; stroke-linecap:round; stroke-width:0.25; stroke-dasharray:3,3;"/>
<line x1="49.025000" y1="15.000000" x2="391.100000" y2="15.000000"  style="stroke: black; stroke-linecap:round; stroke-width:0.25; stroke-dasharray:3,3;"/>
<text x="20.000000" y="17.000000" font-family="Arial" font-size="7">process</text>
<line x1="393.100000" y1="83.000000" x2="396.100000" y2="84.000000"  transform="rotate(0.000000,396.100000,84.000000)" style="stroke: black; stroke-width:0.25;"/>
<line x1="393.100000" y1="85.000000" x2="396.100000" y2="84.000000"  transform="rotate(0.000000,396.100000,84.000000)" style="stroke: black; stroke-width:0.25;"/>
<line x1="393.100000" y1="115.000000" x2="396.100000" y2="116.000000"  transform="rotate(0.000000,396.100000,116.000000)" style="stroke: black; stroke-width:0.25;"/>
<line x1="393.100000" y1="117.000000" x2="396.100000" y2="116.000000"  transform="rotate(0.000000,396.100000,116.000000)" style="stroke: black; stroke-width:0.25;"/>
<line x1="10.000000" y1="100.000000" x2="20.000000" y2="100.000000"  style="stroke:black; stroke-linecap:round; stroke-width:0.25;"/>
<line x1="20.000000" y1="100.000000" x2="24.000000" y2="100.000000"  style="stroke:black; stroke-linecap:round; stroke-width:0.25;"/>
<line x1="24.000000" y1="100.000000" x2="28.000000" y2="100.000000"  style="stroke:black; stroke-linecap:round; stroke-width:0.25;"/>
<line x1="28.000000" y1="100.000000" x2="70.000000" y2="24.000000"  style="stroke:black; stroke-linecap:round; stroke-width:0.25;"/>
<line x1="28.000000" y1="100.000000" x2="70.000000" y2="100.000000"  style="stroke:black; stroke-linecap:round; stroke-width:0.25;"/>
<line x1="28.000000" y1="100.000000" x2="70.000000" y2="144.000000"  style="stroke:black; stroke-linecap:round; stroke-width:0.25;"/>
<line x1="70.000000" y1="24.000000" x2="147.800000" y2="24.000000"  style="stroke:black; stroke-linecap:round; stroke-width:0.25;"/>
<line x1="70.000000" y1="100.000000" x2="74.000000" y2="100.000000"  style="stroke:black; stroke-linecap:round; stroke-width:0.25;"/>
<line x1="70.000000" y1="144.000000" x2="147.800000" y2="144.000000"  style="stroke:black; stroke-linecap:round; stroke-width:0.25;"/>
<line x1="125.600000" y1="96.000000" x2="129.600000" y2="96.000000"  style="stroke:black; stroke-linecap:round; stroke-width:0.25;"/>
<line x1="125.600000" y1="104.000000" x2="129.600000" y2="104.000000"  style="stroke:black; stroke-linecap:round; stroke-width:0.25;"/>
<line x1="129.600000" y1="64.000000" x2="137.600000" y2="64.000000"  style="stroke:black; stroke-linecap:round; stroke-width:0.25;"/>
<line x1="129.600000" y1="96.000000" x2="129.600000" y2="64.000000"  style="stroke:black; stroke-linecap:round; stroke-width:0.25;"/>
<line x1="129.600000" y1="96.000000" x2="129.600000" y2="96.000000"  style="stroke:black; stroke-linecap:round; stroke-width:0.25;"/>
<line x1="129.600000" y1="104.000000" x2="137.600000" y2="104.000000"  style="stroke:black; stroke-linecap:round; stroke-width:0.25;"/>
<line x1="137.600000" y1="64.000000" x2="153.600000" y2="64.000000"  style="stroke:black; stroke-linecap:round; stroke-width:0.25;"/>
<line x1="137.600000" y1="104.000000" x2="153.600000" y2="104.000000"  style="stroke:black; stroke-linecap:round; stroke-width:0.25;"/>
<line x1="147.800000" y1="24.000000" x2="184.050000" y2="24.000000"  style="stroke:black; stroke-linecap:round; stroke-width:0.25;"/>
<line x1="147.800000" y1="144.000000" x2="184.050000" y2="144.000000"  style="stroke:black; stroke-linecap:round; stroke-width:0.25;"/>
<line x1="153.600000" y1="64.000000" x2="169.600000" y2="64.000000"  style="stroke:black; stroke-linecap:round; stroke-width:0.25;"/>
<line x1="153.600000" y1="104.000000" x2="169.600000" y2="104.000000"  style="stroke:black; stroke-linecap:round; stroke-width:0.25;"/>
<line x1="165.600000" y1="84.000000" x2="169.600000" y2="84.000000"  style="stroke:black; stroke-linecap:round; stroke-width:0.25;"/>
<line x1="165.600000" y1="124.000000" x2="169.600000" y2="124.000000"  style="stroke:black; stroke-linecap:round; stroke-width:0.25;"/>
<line x1="169.600000" y1="64.000000" x2="177.600000" y2="64.000000"  style="stroke:black; stroke-linecap:round; stroke-width:0.25;"/>
<line x1="169.600000" y1="84.000000" x2="177.600000" y2="84.000000"  style="stroke:black; stroke-linecap:round; stroke-width:0.25;"/>
<line x1="169.600000" y1="104.000000" x2="177.600000" y2="104.000000"  style="stroke:black; stroke-linecap:round; stroke-width:0.25;"/>
<line x1="169.600000" y1="124.000000" x2="177.600000" y2="124.000000"  style="stroke:black; stroke-linecap:round; stroke-width:0.25;"/>
<line x1="177.600000" y1="64.000000" x2="177.600000" y2="76.000000"  style="stroke:black; stroke-linecap:round; stroke-width:0.25;"/>
<line x1="177.600000" y1="76.000000" x2="177.600000" y2="76.000000"  style="stroke:black; stroke-linecap:round; stroke-width:0.25;"/>
<line x1="177.600000" y1="76.000000" x2="181.600000" y2="76.000000"  style="stroke:black; stroke-linecap:round; stroke-width:0.25;"/>
<line x1="177.600000" y1="84.000000" x2="181.600000" y2="84.000000"  style="stroke:black; stroke-linecap:round; stroke-width:0.25;"/>
<line x1="177.600000" y1="104.000000" x2="177.600000" y2="116.000000"  style="stroke:black; stroke-linecap:round; stroke-width:0.25;"/>
<line x1="177.600000" y1="116.000000" x2="177.600000" y2="116.000000"  style="stroke:black; stroke-linecap:round; stroke-width:0.25;"/>
<line x1="177.600000" y1="116.000000" x2="181.600000" y2="116.000000"  style="stroke:black; stroke-linecap:round; stroke-width:0.25;"/>
<line x1="177.600000" y1="124.000000" x2="181.600000" y2="124.000000"  style="stroke:black; stroke-linecap:round; stroke-width:0.25;"/>
<line x1="184.050000" y1="24.000000" x2="220.300000" y2="24.000000"  style="stroke:black; stroke-linecap:round; stroke-width:0.25;"/>
<line x1="184.050000" y1="144.000000" x2="220.300000" y2="144.000000"  style="stroke:black; stroke-linecap:round; stroke-width:0.25;"/>
<line x1="205.600000" y1="80.000000" x2="209.600000" y2="80.000000"  style="stroke:black; stroke-linecap:round; stroke-width:0.25;"/>
<line x1="205.600000" y1="120.000000" x2="209.600000" y2="120.000000"  style="stroke:black; stroke-linecap:round; stroke-width:0.25;"/>
<line x1="209.600000" y1="64.000000" x2="225.600000" y2="64.000000"  style="stroke:black; stroke-linecap:round; stroke-width:0.25;"/>
<line x1="209.600000" y1="80.000000" x2="209.600000" y2="64.000000"  style="stroke:black; stroke-linecap:round; stroke-width:0.25;"/>
<line x1="209.600000" y1="80.000000" x2="209.600000" y2="80.000000"  style="stroke:black; stroke-linecap:round; stroke-width:0.25;"/>
<line x1="209.600000" y1="120.000000" x2="217.600000" y2="120.000000"  style="stroke:black; stroke-linecap:round; stroke-width:0.25;"/>
<line x1="216.300000" y1="44.000000" x2="220.300000" y2="44.000000"  style="stroke:black; stroke-linecap:round; stroke-width:0.25;"/>
<line x1="216.300000" y1="164.000000" x2="220.300000" y2="164.000000"  style="stroke:black; stroke-linecap:round; stroke-width:0.25;"/>
<line x1="217.600000" y1="104.000000" x2="225.600000" y2="104.000000"  style="stroke:black; stroke-linecap:round; stroke-width:0.25;"/>
<line x1="217.600000" y1="120.000000" x2="217.600000" y2="104.000000"  style="stroke:black; stroke-linecap:round; stroke-width:0.25;"/>
<line x1="220.300000" y1="24.000000" x2="228.300000" y2="24.000000"  style="stroke:black; stroke-linecap:round; stroke-width:0.25;"/>
<line x1="220.300000" y1="44.000000" x2="228.300000" y2="44.000000"  style="stroke:black; stroke-linecap:round; stroke-width:0.25;"/>
<line x1="220.300000" y1="144.000000" x2="228.300000" y2="144.000000"  style="stroke:black; stroke-linecap:round; stroke-width:0.25;"/>
<line x1="220.300000" y1="164.000000" x2="228.300000" y2="164.000000"  style="stroke:black; stroke-linecap:round; stroke-width:0.25;"/>
<line x1="225.600000" y1="64.000000" x2="261.850000" y2="64.000000"  style="stroke:black; stroke-linecap:round; stroke-width:0.25;"/>
<line x1="225.600000" y1="104.000000" x2="261.850000" y2="104.000000"  style="stroke:black; stroke-linecap:round; stroke-width:0.25;"/>
<line x1="228.300000" y1="24.000000" x2="228.300000" y2="36.000000"  style="stroke:black; stroke-linecap:round; stroke-width:0.25;"/>
<line x1="228.300000" y1="36.000000" x2="228.300000" y2="36.000000"  style="stroke:black; stroke-linecap:round; stroke-width:0.25;"/>
<line x1="228.300000" y1="36.000000" x2="232.300000" y2="36.000000"  style="stroke:black; stroke-linecap:round; stroke-width:0.25;"/>
<line x1="228.300000" y1="44.000000" x2="232.300000" y2="44.000000"  style="stroke:black; stroke-linecap:round; stroke-width:0.25;"/>
<line x1="228.300000" y1="144.000000" x2="228.300000" y2="156.000000"  style="stroke:black; stroke-linecap:round; stroke-width:0.25;"/>
<line x1="228.300000" y1="156.000000" x2="228.300000" y2="156.000000"  style="stroke:black; stroke-linecap:round; stroke-width:0.25;"/>
<line x1="228.300000" y1="156.000000" x2="232.300000" y2="156.000000"  style="stroke:black; stroke-linecap:round; stroke-width:0.25;"/>
<line x1="228.300000" y1="164.000000" x2="232.300000" y2="164.000000"  style="stroke:black; stroke-linecap:round; stroke-width:0.25;"/>
<line x1="256.300000" y1="40.000000" x2="260.300000" y2="40.000000"  style="stroke:black; stroke-linecap:round; stroke-width:0.25;"/>
<line x1="256.300000" y1="160.000000" x2="260.300000" y2="160.000000"  style="stroke:black; stroke-linecap:round; stroke-width:0.25;"/>
<line x1="260.300000" y1="40.000000" x2="338.100000" y2="40.000000"  style="stroke:black; stroke-linecap:round; stroke-width:0.25;"/>
<line x1="260.300000" y1="160.000000" x2="338.100000" y2="160.000000"  style="stroke:black; stroke-linecap:round; stroke-width:0.25;"/>
<line x1="261.850000" y1="64.000000" x2="298.100000" y2="64.000000"  style="stroke:black; stroke-linecap:round; stroke-width:0.25;"/>
<line x1="261.850000" y1="104.000000" x2="298.100000" y2="104.000000"  style="stroke:black; stroke-linecap:round; stroke-width:0.25;"/>
<line x1="294.100000" y1="84.000000" x2="298.100000" y2="84.000000"  style="stroke:black; stroke-linecap:round; stroke-width:0.25;"/>
<line x1="294.100000" y1="124.000000" x2="298.100000" y2="124.000000"  style="stroke:black; stroke-linecap:round; stroke-width:0.25;"/>
<line x1="298.100000" y1="64.000000" x2="306.100000" y2="64.000000"  style="stroke:black; stroke-linecap:round; stroke-width:0.25;"/>
<line x1="298.100000" y1="84.000000" x2="306.100000" y2="84.000000"  style="stroke:black; stroke-linecap:round; stroke-width:0.25;"/>
<line x1="298.100000" y1="104.000000" x2="306.100000" y2="104.000000"  style="stroke:black; stroke-linecap:round; stroke-width:0.25;"/>
<line x1="298.100000" y1="124.000000" x2="306.100000" y2="124.000000"  style="stroke:black; stroke-linecap:round; stroke-width:0.25;"/>
<line x1="306.100000" y1="64.000000" x2="306.100000" y2="76.000000"  style="stroke:black; stroke-linecap:round; stroke-width:0.25;"/>
<line x1="306.100000" y1="76.000000" x2="306.100000" y2="76.000000"  style="stroke:black; stroke-linecap:round; stroke-width:0.25;"/>
<line x1="306.100000" y1="76.000000" x2="310.100000" y2="76.000000"  style="stroke:black; stroke-linecap:round; stroke-width:0.25;"/>
<line x1="306.100000" y1="84.000000" x2="310.100000" y2="84.000000"  style="stroke:black; stroke-linecap:round; stroke-width:0.25;"/>
<line x1="306.100000" y1="104.000000" x2="306.100000" y2="116.000000"  style="stroke:black; stroke-linecap:round; stroke-width:0.25;"/>
<line x1="306.100000" y1="116.000000" x2="306.100000" y2="116.000000"  style="stroke:black; stroke-linecap:round; stroke-width:0.25;"/>
<line x1="306.100000" y1="116.000000" x2="310.100000" y2="116.000000"  style="stroke:black; stroke-linecap:round; stroke-width:0.25;"/>
<line x1="306.100000" y1="124.000000" x2="310.100000" y2="124.000000"  style="stroke:black; stroke-linecap:round; stroke-width:0.25;"/>
<line x1="334.100000" y1="80.000000" x2="338.100000" y2="80.000000"  style="stroke:black; stroke-linecap:round; stroke-width:0.25;"/>
<line x1="334.100000" y1="120.000000" x2="338.100000" y2="120.000000"  style="stroke:black; stroke-linecap:round; stroke-width:0.25;"/>
<line x1="338.100000" y1="40.000000" x2="354.100000" y2="40.000000"  style="stroke:black; stroke-linecap:round; stroke-width:0.25;"/>
<line x1="338.100000" y1="80.000000" x2="346.100000" y2="80.000000"  style="stroke:black; stroke-linecap:round; stroke-width:0.25;"/>
<line x1="338.100000" y1="112.000000" x2="354.100000" y2="112.000000"  style="stroke:black; stroke-linecap:round; stroke-width:0.25;"/>
<line x1="338.100000" y1="120.000000" x2="338.100000" y2="112.000000"  style="stroke:black; stroke-linecap:round; stroke-width:0.25;"/>
<line x1="338.100000" y1="120.000000" x2="338.100000" y2="120.000000"  style="stroke:black; stroke-linecap:round; stroke-width:0.25;"/>
<line x1="338.100000" y1="160.000000" x2="346.100000" y2="160.000000"  style="stroke:black; stroke-linecap:round; stroke-width:0.25;"/>
<line x1="346.100000" y1="80.000000" x2="346.100000" y2="88.000000"  style="stroke:black; stroke-linecap:round; stroke-width:0.25;"/>
<line x1="346.100000" y1="88.000000" x2="354.100000" y2="88.000000"  style="stroke:black; stroke-linecap:round; stroke-width:0.25;"/>
<line x1="346.100000" y1="120.000000" x2="354.100000" y2="120.000000"  style="stroke:black; stroke-linecap:round; stroke-width:0.25;"/>
<line x1="346.100000" y1="160.000000" x2="346.100000" y2="120.000000"  style="stroke:black; stroke-linecap:round; stroke-width:0.25;"/>
<line x1="354.100000" y1="40.000000" x2="354.100000" y2="80.000000"  style="stroke:black; stroke-linecap:round; stroke-width:0.25;"/>
<line x1="354.100000" y1="80.000000" x2="354.100000" y2="80.000000"  style="stroke:black; stroke-linecap:round; stroke-width:0.25;"/>
<line x1="354.100000" y1="80.000000" x2="358.100000" y2="80.000000"  style="stroke:black; stroke-linecap:round; stroke-width:0.25;"/>
<line x1="354.100000" y1="88.000000" x2="354.100000" y2="88.000000"  style="stroke:black; stroke-linecap:round; stroke-width:0.25;"/>
<line x1="354.100000" y1="88.000000" x2="358.100000" y2="88.000000"  style="stroke:black; stroke-linecap:round; stroke-width:0.25;"/>
<line x1="354.100000" y1="112.000000" x2="354.100000" y2="112.000000"  style="stroke:black; stroke-linecap:round; stroke-width:0.25;"/>
<line x1="354.100000" y1="112.000000" x2="358.100000" y2="112.000000"  style="stroke:black; stroke-linecap:round; stroke-width:0.25;"/>
<line x1="354.100000" y1="120.000000" x2="354.100000" y2="120.000000"  style="stroke:black; stroke-linecap:round; stroke-width:0.25;"/>
<line x1="354.100000" y1="120.000000" x2="358.100000" y2="120.000000"  style="stroke:black; stroke-linecap:round; stroke-width:0.25;"/>
<line x1="382.100000" y1="84.000000" x2="386.100000" y2="84.000000"  style="stroke:black; stroke-linecap:round; stroke-width:0.25;"/>
<line x1="382.100000" y1="116.000000" x2="386.100000" y2="116.000000"  style="stroke:black; stroke-linecap:round; stroke-width:0.25;"/>
<line x1="386.100000" y1="84.000000" x2="396.100000" y2="84.000000"  style="stroke:black; stroke-linecap:round; stroke-width:0.25;"/>
<line x1="386.100000" y1="116.000000" x2="396.100000" y2="116.000000"  style="stroke:black; stroke-linecap:round; stroke-width:0.25;"/>
</svg>
